%TF.GenerationSoftware,KiCad,Pcbnew,4.0.7-e2-6376~61~ubuntu18.04.1*%
%TF.CreationDate,2018-06-03T07:13:52+02:00*%
%TF.ProjectId,esp32_radio,65737033325F726164696F2E6B696361,V0.1*%
%TF.FileFunction,Copper,L2,Bot,Signal*%
%FSLAX46Y46*%
G04 Gerber Fmt 4.6, Leading zero omitted, Abs format (unit mm)*
G04 Created by KiCad (PCBNEW 4.0.7-e2-6376~61~ubuntu18.04.1) date Sun Jun  3 07:13:52 2018*
%MOMM*%
%LPD*%
G01*
G04 APERTURE LIST*
%ADD10C,0.100000*%
%ADD11C,0.150000*%
%ADD12C,0.400000*%
%ADD13C,1.600000*%
%ADD14R,4.000000X0.400000*%
%ADD15C,0.150000*%
%ADD16R,2.000000X2.000000*%
%ADD17C,2.000000*%
%ADD18R,1.250000X1.000000*%
%ADD19R,1.524000X4.064000*%
%ADD20R,1.700000X1.700000*%
%ADD21O,1.700000X1.700000*%
%ADD22R,1.600000X1.000000*%
%ADD23C,1.778000*%
%ADD24C,2.540000*%
%ADD25R,1.200000X1.700000*%
%ADD26O,1.200000X1.700000*%
%ADD27R,1.524000X1.524000*%
%ADD28C,1.524000*%
%ADD29C,1.800000*%
%ADD30C,0.685800*%
%ADD31C,0.500000*%
%ADD32C,0.200000*%
%ADD33C,0.152400*%
%ADD34C,0.254000*%
G04 APERTURE END LIST*
D10*
D11*
X107188000Y-109088000D02*
G75*
G03X112188000Y-114088000I5000000J0D01*
G01*
X182188000Y-114088000D02*
G75*
G03X187188000Y-109088000I0J5000000D01*
G01*
X187188000Y-44088000D02*
G75*
G03X182188000Y-39088000I-5000000J0D01*
G01*
X112188000Y-39088000D02*
G75*
G03X107188000Y-44088000I0J-5000000D01*
G01*
X182188000Y-39088000D02*
X112188000Y-39088000D01*
X187188000Y-109088000D02*
X187188000Y-44088000D01*
X112188000Y-114088000D02*
X182188000Y-114088000D01*
X107188000Y-44088000D02*
X107188000Y-109088000D01*
D12*
X133350000Y-112522000D03*
X132080000Y-112522000D03*
X130810000Y-112522000D03*
X129540000Y-112522000D03*
X128270000Y-112522000D03*
X133350000Y-111252000D03*
X132080000Y-111252000D03*
X130810000Y-111252000D03*
X129540000Y-111252000D03*
X128270000Y-111252000D03*
X127000000Y-112522000D03*
X125730000Y-112522000D03*
X124460000Y-112522000D03*
X127000000Y-111252000D03*
X125730000Y-111252000D03*
X124460000Y-111252000D03*
X127000000Y-109982000D03*
X125730000Y-109982000D03*
X159004000Y-99060000D03*
X157734000Y-99060000D03*
X159004000Y-97790000D03*
X157734000Y-97790000D03*
X159004000Y-96520000D03*
X157734000Y-96520000D03*
X159004000Y-101600000D03*
X157734000Y-101600000D03*
X185928000Y-87630000D03*
X184658000Y-87630000D03*
X124460000Y-109982000D03*
X159004000Y-100330000D03*
X157734000Y-100330000D03*
X185928000Y-86360000D03*
X184658000Y-86360000D03*
D13*
X152688000Y-98658000D03*
X154688000Y-100588000D03*
X150688000Y-100588000D03*
X154688000Y-96588000D03*
X123188000Y-77838000D03*
X128188000Y-97588000D03*
D14*
X162188000Y-85488000D03*
X162188000Y-86288000D03*
X162188000Y-87088000D03*
X162188000Y-87888000D03*
X162188000Y-88688000D03*
X162188000Y-89488000D03*
X162188000Y-90288000D03*
X162188000Y-91088000D03*
X162188000Y-91888000D03*
X162188000Y-92688000D03*
X162188000Y-93488000D03*
X162188000Y-94288000D03*
X162188000Y-95088000D03*
X162188000Y-95888000D03*
X162188000Y-96688000D03*
X162188000Y-97488000D03*
X162188000Y-98288000D03*
X162188000Y-99088000D03*
D12*
X172188000Y-66588000D03*
X172188000Y-67588000D03*
X161188000Y-58588000D03*
X160188000Y-58588000D03*
X159188000Y-58588000D03*
X158188000Y-58588000D03*
X171188000Y-88588000D03*
X169688000Y-88588000D03*
X169188000Y-82588000D03*
X168188000Y-82588000D03*
X171188000Y-66588000D03*
X171188000Y-67588000D03*
X161188000Y-57588000D03*
X160188000Y-57588000D03*
X159188000Y-57588000D03*
X158188000Y-57588000D03*
X171188000Y-81588000D03*
X170188000Y-81588000D03*
X169188000Y-81588000D03*
X168188000Y-81588000D03*
X170188000Y-66588000D03*
X170188000Y-67588000D03*
X161188000Y-56588000D03*
X160188000Y-56588000D03*
X159188000Y-56588000D03*
X158188000Y-56588000D03*
X171188000Y-80588000D03*
X170188000Y-80588000D03*
X169188000Y-66588000D03*
X169188000Y-67588000D03*
X161188000Y-55588000D03*
X160188000Y-55588000D03*
X159188000Y-55588000D03*
X158188000Y-55588000D03*
X171188000Y-79588000D03*
X170188000Y-79588000D03*
X168188000Y-66588000D03*
X168188000Y-67588000D03*
X174188000Y-97088000D03*
X173188000Y-98088000D03*
X171188000Y-93588000D03*
X170188000Y-93588000D03*
X153688000Y-105588000D03*
X152688000Y-105588000D03*
X151688000Y-105588000D03*
X150688000Y-105588000D03*
X167188000Y-66588000D03*
X167188000Y-67588000D03*
X173188000Y-92588000D03*
X172188000Y-92588000D03*
X171188000Y-92588000D03*
X170188000Y-92588000D03*
X153688000Y-104588000D03*
X152688000Y-104588000D03*
X151688000Y-104588000D03*
X150688000Y-104588000D03*
X166188000Y-66588000D03*
X166188000Y-67588000D03*
X173188000Y-91588000D03*
X172188000Y-91588000D03*
X171188000Y-91588000D03*
X170188000Y-91588000D03*
X153688000Y-103588000D03*
X152688000Y-103588000D03*
X151688000Y-103588000D03*
X150688000Y-103588000D03*
X138688000Y-81088000D03*
X137688000Y-81088000D03*
X136688000Y-81088000D03*
X135688000Y-81088000D03*
X118688000Y-90088000D03*
X117688000Y-90088000D03*
X116688000Y-90088000D03*
X126188000Y-87588000D03*
X125188000Y-87588000D03*
X124188000Y-87588000D03*
X138688000Y-80088000D03*
X137688000Y-80088000D03*
X136688000Y-80088000D03*
X135688000Y-80088000D03*
X118688000Y-89088000D03*
X117688000Y-89088000D03*
X116688000Y-89088000D03*
X126188000Y-86588000D03*
X125188000Y-86588000D03*
X124188000Y-86588000D03*
X138688000Y-79088000D03*
X137688000Y-79088000D03*
X136688000Y-79088000D03*
X135688000Y-79088000D03*
X118688000Y-88088000D03*
X117688000Y-88088000D03*
X116688000Y-88088000D03*
X126188000Y-85588000D03*
X125188000Y-85588000D03*
D15*
X148438000Y-44088000D03*
X145938000Y-44088000D03*
X148438000Y-44838000D03*
X145938000Y-44838000D03*
D16*
X111188000Y-80088000D03*
D17*
X111188000Y-72488000D03*
D18*
X141688000Y-57588000D03*
X141688000Y-55588000D03*
D19*
X149728000Y-41588000D03*
X144648000Y-41588000D03*
D20*
X184188000Y-68088000D03*
D21*
X184188000Y-65548000D03*
X181648000Y-68088000D03*
X181648000Y-65548000D03*
X179108000Y-68088000D03*
X179108000Y-65548000D03*
X176568000Y-68088000D03*
X176568000Y-65548000D03*
D20*
X123688000Y-66088000D03*
D21*
X126228000Y-66088000D03*
D22*
X149688000Y-55016800D03*
X149688000Y-58216800D03*
X144688000Y-55016800D03*
X144688000Y-58216800D03*
D23*
X179688000Y-61338000D03*
X177188000Y-61338000D03*
X174688000Y-61338000D03*
D24*
X183838000Y-43838000D03*
X183838000Y-59338000D03*
X170538000Y-59338000D03*
X170538000Y-43838000D03*
D23*
X167438000Y-49088000D03*
X167438000Y-51608076D03*
X167438000Y-54088000D03*
X114688000Y-41838000D03*
X117188000Y-41838000D03*
X119688000Y-41838000D03*
D24*
X110538000Y-59338000D03*
X110538000Y-43838000D03*
X123838000Y-43838000D03*
X123838000Y-59338000D03*
D23*
X126938000Y-54088000D03*
X126938000Y-51567924D03*
X126938000Y-49088000D03*
D12*
X124188000Y-85588000D03*
D20*
X140988000Y-67588000D03*
D21*
X140988000Y-65048000D03*
X143528000Y-67588000D03*
X143528000Y-65048000D03*
X146068000Y-67588000D03*
X146068000Y-65048000D03*
X148608000Y-67588000D03*
X148608000Y-65048000D03*
X151148000Y-67588000D03*
X151148000Y-65048000D03*
X153688000Y-67588000D03*
X153688000Y-65048000D03*
D25*
X127188000Y-107838000D03*
D26*
X129188000Y-107838000D03*
D27*
X142068000Y-79128000D03*
D28*
X142068000Y-76588000D03*
X144608000Y-79128000D03*
X144608000Y-76588000D03*
X147148000Y-79128000D03*
X147148000Y-76588000D03*
X149688000Y-79128000D03*
X149688000Y-76588000D03*
D13*
X150688000Y-96588000D03*
D17*
X114213000Y-108488000D03*
X121663000Y-108488000D03*
D29*
X114063000Y-112288000D03*
X121813000Y-112288000D03*
D30*
X170162698Y-111506000D03*
X166878000Y-85344000D03*
X177539123Y-104105151D03*
X165188000Y-96088000D03*
X176938000Y-104838000D03*
X141688000Y-109088000D03*
X139188000Y-107088000D03*
X131061308Y-102407279D03*
X114188000Y-106088000D03*
X159188000Y-92588000D03*
X122188000Y-82588000D03*
X119688000Y-78588000D03*
X125188000Y-96588000D03*
X141714943Y-104560915D03*
X163688000Y-105088000D03*
X165862000Y-86288000D03*
X159766000Y-76708000D03*
X161036000Y-74676000D03*
X140188000Y-57588000D03*
X131538000Y-63088000D03*
X135138000Y-103638000D03*
X159688000Y-105588000D03*
X132688000Y-105088000D03*
X140188000Y-70188000D03*
X160088000Y-70488000D03*
X131538000Y-74588000D03*
X164938000Y-91938000D03*
X136458000Y-74588000D03*
X127942698Y-101388000D03*
X123488000Y-104388000D03*
X119738000Y-85388000D03*
X141388000Y-103738000D03*
X157938176Y-91683310D03*
X156188000Y-69588000D03*
X157575401Y-71065599D03*
X173796104Y-90438000D03*
X179192052Y-95833948D03*
X184038000Y-90188000D03*
X183188000Y-95838000D03*
X181088000Y-88788000D03*
X180738000Y-94438000D03*
X133438000Y-91688000D03*
X133438000Y-96188000D03*
X136186799Y-109933310D03*
X135342820Y-107098792D03*
X141117805Y-106176209D03*
X158188000Y-106333310D03*
X165038000Y-93588000D03*
X145888000Y-92388000D03*
X179938000Y-100538000D03*
X153938000Y-91980899D03*
X152688000Y-74588000D03*
X182288000Y-100588000D03*
X173688000Y-89488000D03*
X154688000Y-69588000D03*
X152688000Y-70706952D03*
X175488000Y-89888000D03*
X157064280Y-90455722D03*
X184838000Y-100588000D03*
X144188000Y-70588000D03*
X149688000Y-82838000D03*
X156388000Y-85938000D03*
X159211120Y-88895802D03*
X150688000Y-82838000D03*
X159186270Y-84950018D03*
X157615992Y-84997091D03*
X157915872Y-77978000D03*
X157480000Y-79502000D03*
X147688000Y-74588000D03*
X157390833Y-74517888D03*
X141238000Y-92538000D03*
X129388000Y-94638000D03*
X133638000Y-102488000D03*
X136938000Y-100988000D03*
X128538000Y-94638000D03*
X166522968Y-76233888D03*
X153648370Y-91159037D03*
X177086992Y-76233888D03*
X148188000Y-60588000D03*
X137688000Y-62588000D03*
X140188000Y-94088000D03*
X145638000Y-91438000D03*
X168588000Y-110038000D03*
X159415851Y-86140629D03*
X157488000Y-86188000D03*
X147288000Y-86588000D03*
X164846000Y-88646000D03*
X158318128Y-90242690D03*
X135751704Y-83772835D03*
X153650640Y-93183310D03*
X121088000Y-79338000D03*
X129538000Y-83688000D03*
X135680221Y-82937676D03*
X155938000Y-94588000D03*
X133088000Y-82938000D03*
X120688000Y-77088000D03*
X169938000Y-100538000D03*
X169438000Y-101338000D03*
X168819601Y-99745739D03*
X168138000Y-98138000D03*
X124714150Y-99355207D03*
X118881894Y-110781894D03*
X119494106Y-111394106D03*
X125283627Y-100062993D03*
D31*
X162188000Y-85488000D02*
X166734000Y-85488000D01*
X166734000Y-85488000D02*
X166878000Y-85344000D01*
X162188000Y-95888000D02*
X164988000Y-95888000D01*
X164988000Y-95888000D02*
X165188000Y-96088000D01*
X139188000Y-107088000D02*
X139688000Y-107088000D01*
X139688000Y-107088000D02*
X141688000Y-109088000D01*
X130868721Y-102407279D02*
X131061308Y-102407279D01*
X114188000Y-106088000D02*
X114188000Y-108463000D01*
X114188000Y-108463000D02*
X114213000Y-108488000D01*
X162188000Y-85488000D02*
X166288000Y-85488000D01*
D32*
X163688000Y-105088000D02*
X163345101Y-104745101D01*
X163345101Y-104745101D02*
X154200453Y-104745101D01*
X154200453Y-104745101D02*
X153905153Y-105040401D01*
X153905153Y-105040401D02*
X150470847Y-105040401D01*
X150470847Y-105040401D02*
X149991361Y-104560915D01*
X149991361Y-104560915D02*
X141714943Y-104560915D01*
D31*
X162188000Y-86288000D02*
X165862000Y-86288000D01*
X161036000Y-74676000D02*
X161036000Y-75438000D01*
X161036000Y-75438000D02*
X159766000Y-76708000D01*
X144688000Y-58216800D02*
X142316800Y-58216800D01*
X142316800Y-58216800D02*
X141688000Y-57588000D01*
X140188000Y-57588000D02*
X141688000Y-57588000D01*
X131538000Y-58688000D02*
X131538000Y-63088000D01*
X131538000Y-63088000D02*
X131538000Y-74588000D01*
X140533301Y-69842699D02*
X140188000Y-70188000D01*
X153339653Y-69842699D02*
X140533301Y-69842699D01*
X156733947Y-70145101D02*
X156545746Y-70333302D01*
X159745101Y-70145101D02*
X156733947Y-70145101D01*
X160088000Y-70488000D02*
X159745101Y-70145101D01*
X153830255Y-70333301D02*
X153339653Y-69842699D01*
X156545746Y-70333302D02*
X153830255Y-70333301D01*
X140988000Y-67588000D02*
X140988000Y-65048000D01*
X140188000Y-70188000D02*
X140188000Y-68388000D01*
X140188000Y-68388000D02*
X140988000Y-67588000D01*
X135138000Y-103638000D02*
X134138000Y-103638000D01*
X134138000Y-103638000D02*
X132688000Y-105088000D01*
X141232657Y-105430899D02*
X141330255Y-105333301D01*
X132688000Y-105088000D02*
X133030899Y-105430899D01*
X133030899Y-105430899D02*
X141232657Y-105430899D01*
X154579554Y-105588000D02*
X159688000Y-105588000D01*
X141330255Y-105333301D02*
X149541747Y-105333301D01*
X149541747Y-105333301D02*
X150398847Y-106190401D01*
X150398847Y-106190401D02*
X153977153Y-106190401D01*
X153977153Y-106190401D02*
X154579554Y-105588000D01*
X126938000Y-54088000D02*
X131538000Y-58688000D01*
X114688000Y-41838000D02*
X126938000Y-54088000D01*
X179688000Y-61338000D02*
X167438000Y-49088000D01*
X164938000Y-91938000D02*
X162238000Y-91938000D01*
X162238000Y-91938000D02*
X162188000Y-91888000D01*
X142068000Y-76588000D02*
X144608000Y-79128000D01*
X142068000Y-76588000D02*
X138458000Y-76588000D01*
X138458000Y-76588000D02*
X136458000Y-74588000D01*
D32*
X126488000Y-101388000D02*
X127942698Y-101388000D01*
X123488000Y-104388000D02*
X126488000Y-101388000D01*
X133460942Y-90488000D02*
X124838000Y-90488000D01*
X124838000Y-90488000D02*
X119738000Y-85388000D01*
X137488000Y-99838000D02*
X137488000Y-94515058D01*
X137488000Y-94515058D02*
X133460942Y-90488000D01*
X141388000Y-103738000D02*
X137488000Y-99838000D01*
X160388000Y-90288000D02*
X158992690Y-91683310D01*
X162188000Y-90288000D02*
X160388000Y-90288000D01*
X158423109Y-91683310D02*
X157938176Y-91683310D01*
X158992690Y-91683310D02*
X158423109Y-91683310D01*
X149688000Y-79128000D02*
X154139486Y-74676514D01*
X154139486Y-74676514D02*
X155666930Y-74676514D01*
X146068000Y-67588000D02*
X147170401Y-68690401D01*
X147170401Y-68690401D02*
X155290401Y-68690401D01*
X155290401Y-68690401D02*
X156188000Y-69588000D01*
X157575401Y-72768043D02*
X155666930Y-74676514D01*
X157575401Y-71065599D02*
X157575401Y-72768043D01*
X173646104Y-90288000D02*
X173796104Y-90438000D01*
X173796104Y-90438000D02*
X179192052Y-95833948D01*
X162188000Y-90288000D02*
X173646104Y-90288000D01*
X184388000Y-94638000D02*
X184388000Y-90538000D01*
X184388000Y-90538000D02*
X184038000Y-90188000D01*
X183188000Y-95838000D02*
X184388000Y-94638000D01*
X180738000Y-94438000D02*
X181088000Y-94088000D01*
X181088000Y-94088000D02*
X181088000Y-88788000D01*
X184188000Y-68088000D02*
X183138000Y-68088000D01*
X183138000Y-68088000D02*
X182750401Y-67700401D01*
X182750401Y-67700401D02*
X182750401Y-65018847D01*
X182750401Y-65018847D02*
X180210955Y-62479401D01*
X180210955Y-62479401D02*
X179179401Y-62479401D01*
X179179401Y-62479401D02*
X178329401Y-61629401D01*
X178329401Y-61629401D02*
X178329401Y-60790127D01*
X169147350Y-51608076D02*
X167438000Y-51608076D01*
X178329401Y-60790127D02*
X169147350Y-51608076D01*
X126938000Y-51567924D02*
X134062888Y-58692812D01*
X134062888Y-58692812D02*
X136292812Y-58692812D01*
X136292812Y-58692812D02*
X141545599Y-63945599D01*
X141545599Y-63945599D02*
X179137153Y-63945599D01*
X179137153Y-63945599D02*
X180545599Y-65354045D01*
X180545599Y-65354045D02*
X180545599Y-66985599D01*
X180545599Y-66985599D02*
X181648000Y-68088000D01*
X181648000Y-65548000D02*
X178579401Y-62479401D01*
X178579401Y-62479401D02*
X142018675Y-62479401D01*
X142018675Y-62479401D02*
X124899675Y-45360401D01*
X124899675Y-45360401D02*
X120710401Y-45360401D01*
X120710401Y-45360401D02*
X117188000Y-41838000D01*
X133438000Y-96188000D02*
X133438000Y-91688000D01*
X135342820Y-107098792D02*
X136186799Y-107942771D01*
X136186799Y-107942771D02*
X136186799Y-109448377D01*
X136186799Y-109448377D02*
X136186799Y-109933310D01*
X141634407Y-106692811D02*
X141117805Y-106176209D01*
X157828499Y-106692811D02*
X141634407Y-106692811D01*
X158188000Y-106333310D02*
X157828499Y-106692811D01*
X162188000Y-92688000D02*
X163988000Y-92688000D01*
X163988000Y-92688000D02*
X164888000Y-93588000D01*
X164888000Y-93588000D02*
X165038000Y-93588000D01*
X145888000Y-92388000D02*
X146708948Y-93208948D01*
X146708948Y-93208948D02*
X146708948Y-94851394D01*
X158329896Y-103188000D02*
X177288000Y-103188000D01*
X146708948Y-94851394D02*
X147388000Y-95530446D01*
X147388000Y-95530446D02*
X147388000Y-98645554D01*
X147388000Y-98645554D02*
X148588000Y-99845554D01*
X148588000Y-99845554D02*
X148588000Y-101488000D01*
X148588000Y-101488000D02*
X150235599Y-103135599D01*
X150235599Y-103135599D02*
X158277495Y-103135599D01*
X158277495Y-103135599D02*
X158329896Y-103188000D01*
X177288000Y-103188000D02*
X179938000Y-100538000D01*
X158788000Y-91088000D02*
X154830899Y-91088000D01*
X154830899Y-91088000D02*
X153938000Y-91980899D01*
X162188000Y-89488000D02*
X160388000Y-89488000D01*
X160388000Y-89488000D02*
X158788000Y-91088000D01*
X147148000Y-76588000D02*
X146133599Y-77602401D01*
X148673599Y-76101087D02*
X150186686Y-74588000D01*
X173688000Y-89488000D02*
X182288000Y-98088000D01*
X150186686Y-74588000D02*
X152688000Y-74588000D01*
X146133599Y-79614913D02*
X146661087Y-80142401D01*
X147634913Y-80142401D02*
X148673599Y-79103715D01*
X145688000Y-69088000D02*
X154188000Y-69088000D01*
X154188000Y-69088000D02*
X154688000Y-69588000D01*
X144630401Y-68030401D02*
X145688000Y-69088000D01*
X144630401Y-66150401D02*
X144630401Y-68030401D01*
X162188000Y-89488000D02*
X173688000Y-89488000D01*
X143528000Y-65048000D02*
X144630401Y-66150401D01*
X148673599Y-79103715D02*
X148673599Y-76101087D01*
X146133599Y-77602401D02*
X146133599Y-79614913D01*
X146661087Y-80142401D02*
X147634913Y-80142401D01*
X182288000Y-98088000D02*
X182288000Y-100588000D01*
X152345101Y-71049851D02*
X152688000Y-70706952D01*
X147148000Y-79128000D02*
X148162401Y-78113599D01*
X148162401Y-78113599D02*
X148162401Y-75612358D01*
X148783302Y-74611650D02*
X152345101Y-71049851D01*
X148162401Y-75612358D02*
X148783302Y-74991457D01*
X148783302Y-74991457D02*
X148783302Y-74611650D01*
X144188000Y-70588000D02*
X152569048Y-70588000D01*
X152569048Y-70588000D02*
X152688000Y-70706952D01*
X175488000Y-89888000D02*
X175488000Y-90372933D01*
X164388000Y-87088000D02*
X164483301Y-86992699D01*
X164483301Y-86992699D02*
X164826315Y-87335713D01*
X164826315Y-87335713D02*
X172935713Y-87335713D01*
X162188000Y-87088000D02*
X164388000Y-87088000D01*
X175488000Y-90372933D02*
X180548368Y-95433301D01*
X168128650Y-86251340D02*
X168128650Y-84647602D01*
X167473746Y-83992698D02*
X159262542Y-83992698D01*
X172935713Y-87335713D02*
X175488000Y-89888000D01*
X167387291Y-86992699D02*
X168128650Y-86251340D01*
X158563713Y-84691527D02*
X158563713Y-85394307D01*
X168128650Y-84647602D02*
X167473746Y-83992698D01*
X184838000Y-99238000D02*
X184838000Y-100588000D01*
X159262542Y-83992698D02*
X158563713Y-84691527D01*
X180548368Y-95433301D02*
X181033301Y-95433301D01*
X158563713Y-85394307D02*
X158440287Y-85517733D01*
X181033301Y-95433301D02*
X184838000Y-99238000D01*
X164483301Y-86992699D02*
X167387291Y-86992699D01*
X158440287Y-89079715D02*
X157064280Y-90455722D01*
X158440287Y-85517733D02*
X158440287Y-89079715D01*
X156388000Y-85938000D02*
X152788000Y-85938000D01*
X152788000Y-85938000D02*
X149688000Y-82838000D01*
X159186270Y-85489162D02*
X158820549Y-85854883D01*
X159186270Y-84950018D02*
X159186270Y-85489162D01*
X158820549Y-88505231D02*
X158868221Y-88552903D01*
X158868221Y-88552903D02*
X159211120Y-88895802D01*
X158820549Y-85854883D02*
X158820549Y-88505231D01*
X157615992Y-84997091D02*
X152847091Y-84997091D01*
X152847091Y-84997091D02*
X150688000Y-82838000D01*
X157480000Y-79502000D02*
X157480000Y-78413872D01*
X157480000Y-78413872D02*
X157915872Y-77978000D01*
X145688000Y-76588000D02*
X147688000Y-74588000D01*
X144608000Y-76588000D02*
X145688000Y-76588000D01*
X141238000Y-92538000D02*
X140895101Y-92195101D01*
X140895101Y-92195101D02*
X139045101Y-92195101D01*
X152122085Y-82188000D02*
X154541450Y-79768635D01*
X139045101Y-92195101D02*
X134938000Y-88088000D01*
X134938000Y-88088000D02*
X134938000Y-82838000D01*
X134938000Y-82838000D02*
X135588000Y-82188000D01*
X135588000Y-82188000D02*
X152122085Y-82188000D01*
X154541450Y-79768635D02*
X157390833Y-76919252D01*
X157390833Y-76919252D02*
X157390833Y-74517888D01*
X133638000Y-98888000D02*
X129388000Y-94638000D01*
X133638000Y-102488000D02*
X133638000Y-98888000D01*
X129788000Y-93888000D02*
X136888000Y-100988000D01*
X136888000Y-100988000D02*
X136938000Y-100988000D01*
X128803067Y-93888000D02*
X129788000Y-93888000D01*
X128538000Y-94638000D02*
X128538000Y-94153067D01*
X128538000Y-94153067D02*
X128803067Y-93888000D01*
X158087876Y-86719531D02*
X153648370Y-91159037D01*
X158211302Y-85248334D02*
X158087876Y-85371760D01*
X158211302Y-84545554D02*
X158211302Y-85248334D01*
X166522968Y-76233888D02*
X158211302Y-84545554D01*
X158087876Y-85371760D02*
X158087876Y-86719531D01*
X177086992Y-76233888D02*
X166522968Y-76233888D01*
X140188000Y-94088000D02*
X134585589Y-88485589D01*
X134585589Y-88485589D02*
X134585589Y-65690411D01*
X134585589Y-65690411D02*
X137345101Y-62930899D01*
X137345101Y-62930899D02*
X137688000Y-62588000D01*
X148188000Y-60588000D02*
X149688000Y-59088000D01*
X149688000Y-59088000D02*
X149688000Y-58216800D01*
X149438000Y-58466800D02*
X149688000Y-58216800D01*
X145295101Y-91780899D02*
X145638000Y-91438000D01*
X145292698Y-91783302D02*
X145295101Y-91780899D01*
X149137215Y-104135599D02*
X145292698Y-100291082D01*
X154905153Y-104135599D02*
X149137215Y-104135599D01*
X168588000Y-109106952D02*
X163716637Y-104235589D01*
X155005143Y-104235589D02*
X154905153Y-104135599D01*
X163716637Y-104235589D02*
X155005143Y-104235589D01*
X168588000Y-110038000D02*
X168588000Y-109106952D01*
X145292698Y-100291082D02*
X145292698Y-91783302D01*
X162188000Y-87888000D02*
X160388000Y-87888000D01*
X160388000Y-87888000D02*
X159768477Y-87268477D01*
X159768477Y-86493255D02*
X159415851Y-86140629D01*
X159768477Y-87268477D02*
X159768477Y-86493255D01*
X147288000Y-86588000D02*
X157088000Y-86588000D01*
X157088000Y-86588000D02*
X157488000Y-86188000D01*
X164846000Y-88646000D02*
X164361067Y-88646000D01*
X164361067Y-88646000D02*
X164319067Y-88688000D01*
X164319067Y-88688000D02*
X162188000Y-88688000D01*
X162188000Y-88688000D02*
X160388000Y-88688000D01*
X160388000Y-88688000D02*
X158833310Y-90242690D01*
X158833310Y-90242690D02*
X158803061Y-90242690D01*
X158803061Y-90242690D02*
X158318128Y-90242690D01*
X136236637Y-83772835D02*
X135751704Y-83772835D01*
X149283310Y-93183310D02*
X139872835Y-83772835D01*
X153650640Y-93183310D02*
X149283310Y-93183310D01*
X139872835Y-83772835D02*
X136236637Y-83772835D01*
X125438000Y-83688000D02*
X121088000Y-79338000D01*
X129538000Y-83688000D02*
X125438000Y-83688000D01*
X155938000Y-94588000D02*
X153938000Y-92588000D01*
X136165154Y-82937676D02*
X135680221Y-82937676D01*
X139787676Y-82937676D02*
X136165154Y-82937676D01*
X149438000Y-92588000D02*
X139787676Y-82937676D01*
X153938000Y-92588000D02*
X149438000Y-92588000D01*
X121362175Y-77977434D02*
X126272741Y-82888000D01*
X121362175Y-77762175D02*
X120688000Y-77088000D01*
X121362175Y-77977434D02*
X121362175Y-77762175D01*
X126272741Y-82888000D02*
X133038000Y-82888000D01*
X133038000Y-82888000D02*
X133088000Y-82938000D01*
X169338000Y-98188000D02*
X167838000Y-96688000D01*
X167838000Y-96688000D02*
X162188000Y-96688000D01*
X169338000Y-99453067D02*
X169338000Y-98188000D01*
X169938000Y-100538000D02*
X169938000Y-100053067D01*
X169938000Y-100053067D02*
X169338000Y-99453067D01*
X162188000Y-99088000D02*
X167188000Y-99088000D01*
X167188000Y-99088000D02*
X169438000Y-101338000D01*
X167361862Y-98288000D02*
X168819601Y-99745739D01*
X162188000Y-98288000D02*
X167361862Y-98288000D01*
X168138000Y-98138000D02*
X167488000Y-97488000D01*
X167488000Y-97488000D02*
X162188000Y-97488000D01*
D33*
X119216935Y-109853450D02*
X119160054Y-109817709D01*
X119029888Y-109788000D02*
X118983691Y-109788000D01*
X119329888Y-104739469D02*
X124714150Y-99355207D01*
X119329888Y-108888000D02*
X119329888Y-104739469D01*
X119322367Y-108954756D02*
X119329888Y-108888000D01*
X119300179Y-109018165D02*
X119322367Y-108954756D01*
X118853526Y-109758290D02*
X118796645Y-109722549D01*
X119216935Y-109122549D02*
X119264438Y-109075046D01*
X119264438Y-109075046D02*
X119300179Y-109018165D01*
X119096645Y-109180478D02*
X119160054Y-109158290D01*
X118713401Y-109357834D02*
X118749142Y-109300953D01*
X118796645Y-109253450D02*
X118853526Y-109217709D01*
X119029888Y-109188000D02*
X119096645Y-109180478D01*
X118683691Y-109488000D02*
X118691213Y-109421243D01*
X118691213Y-109421243D02*
X118713401Y-109357834D01*
X118983691Y-109188000D02*
X119029888Y-109188000D01*
X118691213Y-109554756D02*
X118683691Y-109488000D01*
X118749142Y-109675046D02*
X118713401Y-109618165D01*
X118749142Y-109300953D02*
X118796645Y-109253450D01*
X118916935Y-109195521D02*
X118983691Y-109188000D01*
X118796645Y-109722549D02*
X118749142Y-109675046D01*
X118916935Y-109780478D02*
X118853526Y-109758290D01*
X119096645Y-109795521D02*
X119029888Y-109788000D01*
X119160054Y-109817709D02*
X119096645Y-109795521D01*
X119160054Y-109158290D02*
X119216935Y-109122549D01*
X119322367Y-110021243D02*
X119300179Y-109957834D01*
X119300179Y-109957834D02*
X119264438Y-109900953D01*
X119322367Y-110341421D02*
X119322367Y-110021243D01*
X118881894Y-110781894D02*
X119322367Y-110341421D01*
X118983691Y-109788000D02*
X118916935Y-109780478D01*
X118853526Y-109217709D02*
X118916935Y-109195521D01*
X118713401Y-109618165D02*
X118691213Y-109554756D01*
X119264438Y-109900953D02*
X119216935Y-109853450D01*
X124906457Y-100062993D02*
X119662288Y-105307162D01*
X119494106Y-111016936D02*
X119494106Y-111394106D01*
X119662288Y-105307162D02*
X119662288Y-110848754D01*
X125283627Y-100062993D02*
X124906457Y-100062993D01*
X119662288Y-110848754D02*
X119494106Y-111016936D01*
D32*
X151148000Y-67588000D02*
X148608000Y-65048000D01*
D34*
G36*
X143251000Y-41302250D02*
X143409750Y-41461000D01*
X144521000Y-41461000D01*
X144521000Y-41441000D01*
X144775000Y-41441000D01*
X144775000Y-41461000D01*
X145886250Y-41461000D01*
X146045000Y-41302250D01*
X146045000Y-39539281D01*
X148331000Y-39539281D01*
X148331000Y-41302250D01*
X148489750Y-41461000D01*
X149601000Y-41461000D01*
X149601000Y-41441000D01*
X149855000Y-41441000D01*
X149855000Y-41461000D01*
X150966250Y-41461000D01*
X151125000Y-41302250D01*
X151125000Y-39539281D01*
X182143552Y-39539281D01*
X183925337Y-39893700D01*
X185398180Y-40877823D01*
X186382300Y-42350664D01*
X186736719Y-44132448D01*
X186736719Y-109043552D01*
X186382300Y-110825336D01*
X185398180Y-112298177D01*
X183925337Y-113282300D01*
X182143552Y-113636719D01*
X161815000Y-113636719D01*
X161815000Y-107338000D01*
X161806315Y-107291841D01*
X161779035Y-107249447D01*
X161737410Y-107221006D01*
X161688000Y-107211000D01*
X143188000Y-107211000D01*
X143141841Y-107219685D01*
X143099447Y-107246965D01*
X143071006Y-107288590D01*
X143061000Y-107338000D01*
X143061000Y-113636719D01*
X122597994Y-113636719D01*
X122627148Y-113624643D01*
X122713554Y-113368159D01*
X121813000Y-112467605D01*
X120912446Y-113368159D01*
X120998852Y-113624643D01*
X121031859Y-113636719D01*
X114847994Y-113636719D01*
X114877148Y-113624643D01*
X114963554Y-113368159D01*
X114063000Y-112467605D01*
X113162446Y-113368159D01*
X113248852Y-113624643D01*
X113281859Y-113636719D01*
X112232448Y-113636719D01*
X110450664Y-113282300D01*
X108977823Y-112298180D01*
X108810215Y-112047336D01*
X112516542Y-112047336D01*
X112542161Y-112657460D01*
X112726357Y-113102148D01*
X112982841Y-113188554D01*
X113883395Y-112288000D01*
X114242605Y-112288000D01*
X115143159Y-113188554D01*
X115399643Y-113102148D01*
X115609458Y-112528664D01*
X115583839Y-111918540D01*
X115399643Y-111473852D01*
X115143159Y-111387446D01*
X114242605Y-112288000D01*
X113883395Y-112288000D01*
X112982841Y-111387446D01*
X112726357Y-111473852D01*
X112516542Y-112047336D01*
X108810215Y-112047336D01*
X107993700Y-110825337D01*
X107905189Y-110380362D01*
X109711463Y-110380362D01*
X109935740Y-110923153D01*
X110350662Y-111338800D01*
X110893061Y-111564024D01*
X111480362Y-111564537D01*
X112023153Y-111340260D01*
X112155803Y-111207841D01*
X113162446Y-111207841D01*
X114063000Y-112108395D01*
X114963554Y-111207841D01*
X114877148Y-110951357D01*
X114803249Y-110924320D01*
X118162588Y-110924320D01*
X118271846Y-111188745D01*
X118473979Y-111391231D01*
X118738212Y-111500950D01*
X118774831Y-111500982D01*
X118774800Y-111536532D01*
X118884058Y-111800957D01*
X119086191Y-112003443D01*
X119350424Y-112113162D01*
X119636532Y-112113412D01*
X119796448Y-112047336D01*
X120266542Y-112047336D01*
X120292161Y-112657460D01*
X120476357Y-113102148D01*
X120732841Y-113188554D01*
X121633395Y-112288000D01*
X121992605Y-112288000D01*
X122893159Y-113188554D01*
X123149643Y-113102148D01*
X123359458Y-112528664D01*
X123333839Y-111918540D01*
X123149643Y-111473852D01*
X122893159Y-111387446D01*
X121992605Y-112288000D01*
X121633395Y-112288000D01*
X120732841Y-111387446D01*
X120476357Y-111473852D01*
X120266542Y-112047336D01*
X119796448Y-112047336D01*
X119900957Y-112004154D01*
X120103443Y-111802021D01*
X120213162Y-111537788D01*
X120213412Y-111251680D01*
X120195299Y-111207841D01*
X120912446Y-111207841D01*
X121813000Y-112108395D01*
X122713554Y-111207841D01*
X122627148Y-110951357D01*
X122053664Y-110741542D01*
X121443540Y-110767161D01*
X120998852Y-110951357D01*
X120912446Y-111207841D01*
X120195299Y-111207841D01*
X120104154Y-110987255D01*
X120090033Y-110973109D01*
X120099488Y-110925576D01*
X120114769Y-110848754D01*
X120114769Y-110244327D01*
X120282911Y-110314146D01*
X120591734Y-110314415D01*
X120877153Y-110196483D01*
X121064227Y-110009735D01*
X121398461Y-110133908D01*
X122048460Y-110109856D01*
X122537264Y-109907387D01*
X122635927Y-109640532D01*
X121663000Y-108667605D01*
X121648858Y-108681748D01*
X121469253Y-108502143D01*
X121483395Y-108488000D01*
X121842605Y-108488000D01*
X122815532Y-109460927D01*
X123082387Y-109362264D01*
X123308908Y-108752539D01*
X123284856Y-108102540D01*
X123082387Y-107613736D01*
X122815532Y-107515073D01*
X121842605Y-108488000D01*
X121483395Y-108488000D01*
X120510468Y-107515073D01*
X120243613Y-107613736D01*
X120114769Y-107960544D01*
X120114769Y-107335468D01*
X120690073Y-107335468D01*
X121663000Y-108308395D01*
X122635927Y-107335468D01*
X122537264Y-107068613D01*
X122320279Y-106988000D01*
X126204348Y-106988000D01*
X126204348Y-108688000D01*
X126230586Y-108827441D01*
X126312995Y-108955509D01*
X126438738Y-109041426D01*
X126588000Y-109071652D01*
X127788000Y-109071652D01*
X127927441Y-109045414D01*
X128055509Y-108963005D01*
X128141426Y-108837262D01*
X128158188Y-108754490D01*
X128358875Y-109019933D01*
X128778624Y-109266286D01*
X128870391Y-109281462D01*
X129061000Y-109156731D01*
X129061000Y-107965000D01*
X129315000Y-107965000D01*
X129315000Y-109156731D01*
X129505609Y-109281462D01*
X129597376Y-109266286D01*
X130017125Y-109019933D01*
X130310647Y-108631701D01*
X130433256Y-108160696D01*
X130270547Y-107965000D01*
X129315000Y-107965000D01*
X129061000Y-107965000D01*
X129041000Y-107965000D01*
X129041000Y-107711000D01*
X129061000Y-107711000D01*
X129061000Y-106519269D01*
X129315000Y-106519269D01*
X129315000Y-107711000D01*
X130270547Y-107711000D01*
X130433256Y-107515304D01*
X130361908Y-107241218D01*
X134623514Y-107241218D01*
X134732772Y-107505643D01*
X134934905Y-107708129D01*
X135199138Y-107817848D01*
X135388478Y-107818013D01*
X135710518Y-108140053D01*
X135710518Y-109392571D01*
X135577462Y-109525395D01*
X135467743Y-109789628D01*
X135467493Y-110075736D01*
X135576751Y-110340161D01*
X135778884Y-110542647D01*
X136043117Y-110652366D01*
X136329225Y-110652616D01*
X136593650Y-110543358D01*
X136796136Y-110341225D01*
X136905855Y-110076992D01*
X136906105Y-109790884D01*
X136796847Y-109526459D01*
X136663080Y-109392458D01*
X136663080Y-107942776D01*
X136663081Y-107942771D01*
X136626826Y-107760507D01*
X136528757Y-107613736D01*
X136523581Y-107605989D01*
X136523578Y-107605987D01*
X136061962Y-107144370D01*
X136062126Y-106956366D01*
X135952868Y-106691941D01*
X135750735Y-106489455D01*
X135486502Y-106379736D01*
X135200394Y-106379486D01*
X134935969Y-106488744D01*
X134733483Y-106690877D01*
X134623764Y-106955110D01*
X134623514Y-107241218D01*
X130361908Y-107241218D01*
X130310647Y-107044299D01*
X130017125Y-106656067D01*
X129597376Y-106409714D01*
X129505609Y-106394538D01*
X129315000Y-106519269D01*
X129061000Y-106519269D01*
X128870391Y-106394538D01*
X128778624Y-106409714D01*
X128358875Y-106656067D01*
X128158951Y-106920500D01*
X128145414Y-106848559D01*
X128063005Y-106720491D01*
X127937262Y-106634574D01*
X127788000Y-106604348D01*
X126588000Y-106604348D01*
X126448559Y-106630586D01*
X126320491Y-106712995D01*
X126234574Y-106838738D01*
X126204348Y-106988000D01*
X122320279Y-106988000D01*
X121927539Y-106842092D01*
X121277540Y-106866144D01*
X120788736Y-107068613D01*
X120690073Y-107335468D01*
X120114769Y-107335468D01*
X120114769Y-105494585D01*
X121078928Y-104530426D01*
X122768694Y-104530426D01*
X122877952Y-104794851D01*
X123080085Y-104997337D01*
X123344318Y-105107056D01*
X123630426Y-105107306D01*
X123894851Y-104998048D01*
X124097337Y-104795915D01*
X124207056Y-104531682D01*
X124207221Y-104342342D01*
X126685282Y-101864281D01*
X127401959Y-101864281D01*
X127534783Y-101997337D01*
X127799016Y-102107056D01*
X128085124Y-102107306D01*
X128349549Y-101998048D01*
X128552035Y-101795915D01*
X128661754Y-101531682D01*
X128662004Y-101245574D01*
X128552746Y-100981149D01*
X128350613Y-100778663D01*
X128086380Y-100668944D01*
X127800272Y-100668694D01*
X127535847Y-100777952D01*
X127401846Y-100911719D01*
X126488005Y-100911719D01*
X126488000Y-100911718D01*
X126335976Y-100941959D01*
X126305735Y-100947974D01*
X126151218Y-101051218D01*
X126151216Y-101051221D01*
X123533578Y-103668858D01*
X123345574Y-103668694D01*
X123081149Y-103777952D01*
X122878663Y-103980085D01*
X122768944Y-104244318D01*
X122768694Y-104530426D01*
X121078928Y-104530426D01*
X124919035Y-100690319D01*
X125139945Y-100782049D01*
X125426053Y-100782299D01*
X125690478Y-100673041D01*
X125892964Y-100470908D01*
X126002683Y-100206675D01*
X126002933Y-99920567D01*
X125893675Y-99656142D01*
X125691542Y-99453656D01*
X125433339Y-99346441D01*
X125433456Y-99212781D01*
X125324198Y-98948356D01*
X125122065Y-98745870D01*
X124857832Y-98636151D01*
X124571724Y-98635901D01*
X124307299Y-98745159D01*
X124104813Y-98947292D01*
X123995094Y-99211525D01*
X123994899Y-99434553D01*
X119009936Y-104419517D01*
X118911850Y-104566312D01*
X118877407Y-104739469D01*
X118877407Y-108744631D01*
X118866277Y-108745885D01*
X118817835Y-108761324D01*
X118767489Y-108768432D01*
X118704080Y-108790620D01*
X118660291Y-108816451D01*
X118612790Y-108834583D01*
X118555909Y-108870324D01*
X118518964Y-108905252D01*
X118476692Y-108933498D01*
X118429190Y-108981001D01*
X118400946Y-109023271D01*
X118366016Y-109060217D01*
X118330275Y-109117098D01*
X118312143Y-109164599D01*
X118286312Y-109208388D01*
X118264124Y-109271797D01*
X118257017Y-109322139D01*
X118241577Y-109370580D01*
X118234055Y-109437336D01*
X118238328Y-109487998D01*
X118234055Y-109538664D01*
X118241577Y-109605420D01*
X118257017Y-109653862D01*
X118264124Y-109704202D01*
X118286312Y-109767611D01*
X118312143Y-109811400D01*
X118330275Y-109858901D01*
X118366016Y-109915782D01*
X118400946Y-109952728D01*
X118429190Y-109994998D01*
X118476692Y-110042501D01*
X118518964Y-110070747D01*
X118555909Y-110105675D01*
X118587360Y-110125437D01*
X118475043Y-110171846D01*
X118272557Y-110373979D01*
X118162838Y-110638212D01*
X118162588Y-110924320D01*
X114803249Y-110924320D01*
X114303664Y-110741542D01*
X113693540Y-110767161D01*
X113248852Y-110951357D01*
X113162446Y-111207841D01*
X112155803Y-111207841D01*
X112438800Y-110925338D01*
X112664024Y-110382939D01*
X112664537Y-109795638D01*
X112600449Y-109640532D01*
X113240073Y-109640532D01*
X113338736Y-109907387D01*
X113948461Y-110133908D01*
X114598460Y-110109856D01*
X114820272Y-110017979D01*
X114997698Y-110195715D01*
X115282911Y-110314146D01*
X115591734Y-110314415D01*
X115877153Y-110196483D01*
X116095715Y-109978302D01*
X116214146Y-109693089D01*
X116214415Y-109384266D01*
X116096483Y-109098847D01*
X115878302Y-108880285D01*
X115820384Y-108856235D01*
X115858908Y-108752539D01*
X115834856Y-108102540D01*
X115632387Y-107613736D01*
X115365532Y-107515073D01*
X114392605Y-108488000D01*
X114406748Y-108502143D01*
X114227143Y-108681748D01*
X114213000Y-108667605D01*
X113240073Y-109640532D01*
X112600449Y-109640532D01*
X112440260Y-109252847D01*
X112025338Y-108837200D01*
X111482939Y-108611976D01*
X110895638Y-108611463D01*
X110352847Y-108835740D01*
X109937200Y-109250662D01*
X109711976Y-109793061D01*
X109711463Y-110380362D01*
X107905189Y-110380362D01*
X107639281Y-109043552D01*
X107639281Y-108223461D01*
X112567092Y-108223461D01*
X112591144Y-108873460D01*
X112793613Y-109362264D01*
X113060468Y-109460927D01*
X114033395Y-108488000D01*
X113060468Y-107515073D01*
X112793613Y-107613736D01*
X112567092Y-108223461D01*
X107639281Y-108223461D01*
X107639281Y-107335468D01*
X113240073Y-107335468D01*
X114213000Y-108308395D01*
X115185927Y-107335468D01*
X115087264Y-107068613D01*
X114477539Y-106842092D01*
X113827540Y-106866144D01*
X113338736Y-107068613D01*
X113240073Y-107335468D01*
X107639281Y-107335468D01*
X107639281Y-85530426D01*
X119018694Y-85530426D01*
X119127952Y-85794851D01*
X119330085Y-85997337D01*
X119594318Y-86107056D01*
X119783658Y-86107221D01*
X124501216Y-90824779D01*
X124501218Y-90824782D01*
X124655735Y-90928026D01*
X124838000Y-90964282D01*
X124838005Y-90964281D01*
X133263659Y-90964281D01*
X133276113Y-90976735D01*
X133031149Y-91077952D01*
X132828663Y-91280085D01*
X132718944Y-91544318D01*
X132718694Y-91830426D01*
X132827952Y-92094851D01*
X132961719Y-92228852D01*
X132961719Y-95647261D01*
X132828663Y-95780085D01*
X132718944Y-96044318D01*
X132718856Y-96145292D01*
X130124782Y-93551218D01*
X129970265Y-93447974D01*
X129788000Y-93411718D01*
X129787995Y-93411719D01*
X128803067Y-93411719D01*
X128620802Y-93447974D01*
X128466285Y-93551218D01*
X128466283Y-93551221D01*
X128201218Y-93816285D01*
X128097974Y-93970802D01*
X128075569Y-94083435D01*
X127928663Y-94230085D01*
X127818944Y-94494318D01*
X127818694Y-94780426D01*
X127927952Y-95044851D01*
X128130085Y-95247337D01*
X128394318Y-95357056D01*
X128680426Y-95357306D01*
X128944851Y-95248048D01*
X128962854Y-95230076D01*
X128980085Y-95247337D01*
X129244318Y-95357056D01*
X129433658Y-95357221D01*
X133161719Y-99085282D01*
X133161719Y-101947261D01*
X133028663Y-102080085D01*
X132918944Y-102344318D01*
X132918694Y-102630426D01*
X133027952Y-102894851D01*
X133230085Y-103097337D01*
X133494318Y-103207056D01*
X133683084Y-103207221D01*
X132504736Y-104385568D01*
X132281149Y-104477952D01*
X132078663Y-104680085D01*
X131968944Y-104944318D01*
X131968694Y-105230426D01*
X132077952Y-105494851D01*
X132280085Y-105697337D01*
X132505059Y-105790754D01*
X132588049Y-105873744D01*
X132588051Y-105873747D01*
X132666941Y-105926459D01*
X132791231Y-106009507D01*
X133030899Y-106057180D01*
X140398727Y-106057180D01*
X140398499Y-106318635D01*
X140507757Y-106583060D01*
X140709890Y-106785546D01*
X140974123Y-106895265D01*
X141163463Y-106895430D01*
X141297623Y-107029590D01*
X141297625Y-107029593D01*
X141400870Y-107098578D01*
X141452143Y-107132838D01*
X141634407Y-107169093D01*
X141634412Y-107169092D01*
X157828494Y-107169092D01*
X157828499Y-107169093D01*
X158010764Y-107132837D01*
X158131085Y-107052442D01*
X158330426Y-107052616D01*
X158594851Y-106943358D01*
X158797337Y-106741225D01*
X158907056Y-106476992D01*
X158907286Y-106214281D01*
X159320891Y-106214281D01*
X159544318Y-106307056D01*
X159830426Y-106307306D01*
X160094851Y-106198048D01*
X160297337Y-105995915D01*
X160407056Y-105731682D01*
X160407306Y-105445574D01*
X160314672Y-105221382D01*
X162968702Y-105221382D01*
X162968694Y-105230426D01*
X163077952Y-105494851D01*
X163280085Y-105697337D01*
X163544318Y-105807056D01*
X163830426Y-105807306D01*
X164094851Y-105698048D01*
X164297337Y-105495915D01*
X164299116Y-105491631D01*
X168111719Y-109304234D01*
X168111719Y-109497261D01*
X167978663Y-109630085D01*
X167868944Y-109894318D01*
X167868694Y-110180426D01*
X167977952Y-110444851D01*
X168180085Y-110647337D01*
X168444318Y-110757056D01*
X168730426Y-110757306D01*
X168994851Y-110648048D01*
X169197337Y-110445915D01*
X169224556Y-110380362D01*
X181711463Y-110380362D01*
X181935740Y-110923153D01*
X182350662Y-111338800D01*
X182893061Y-111564024D01*
X183480362Y-111564537D01*
X184023153Y-111340260D01*
X184438800Y-110925338D01*
X184664024Y-110382939D01*
X184664537Y-109795638D01*
X184440260Y-109252847D01*
X184025338Y-108837200D01*
X183482939Y-108611976D01*
X182895638Y-108611463D01*
X182352847Y-108835740D01*
X181937200Y-109250662D01*
X181711976Y-109793061D01*
X181711463Y-110380362D01*
X169224556Y-110380362D01*
X169307056Y-110181682D01*
X169307306Y-109895574D01*
X169198048Y-109631149D01*
X169064281Y-109497148D01*
X169064281Y-109106957D01*
X169064282Y-109106952D01*
X169030805Y-108938658D01*
X169028026Y-108924687D01*
X168924782Y-108770170D01*
X168924779Y-108770168D01*
X164053419Y-103898807D01*
X163898902Y-103795563D01*
X163716637Y-103759307D01*
X163716632Y-103759308D01*
X155182805Y-103759308D01*
X155087418Y-103695573D01*
X154905153Y-103659317D01*
X154905148Y-103659318D01*
X149334497Y-103659318D01*
X145768979Y-100093799D01*
X145768979Y-93107078D01*
X145933658Y-93107221D01*
X146232667Y-93406230D01*
X146232667Y-94851389D01*
X146232666Y-94851394D01*
X146268922Y-95033659D01*
X146372166Y-95188176D01*
X146911719Y-95727728D01*
X146911719Y-98645549D01*
X146911718Y-98645554D01*
X146947974Y-98827819D01*
X147051218Y-98982336D01*
X148111719Y-100042836D01*
X148111719Y-101487995D01*
X148111718Y-101488000D01*
X148147974Y-101670265D01*
X148251218Y-101824782D01*
X149898815Y-103472378D01*
X149898817Y-103472381D01*
X150053334Y-103575625D01*
X150083575Y-103581640D01*
X150235599Y-103611881D01*
X150235604Y-103611880D01*
X158123467Y-103611880D01*
X158147631Y-103628026D01*
X158329896Y-103664282D01*
X158329901Y-103664281D01*
X177287995Y-103664281D01*
X177288000Y-103664282D01*
X177470265Y-103628026D01*
X177624782Y-103524782D01*
X179892421Y-101257142D01*
X180080426Y-101257306D01*
X180344851Y-101148048D01*
X180547337Y-100945915D01*
X180657056Y-100681682D01*
X180657306Y-100395574D01*
X180548048Y-100131149D01*
X180345915Y-99928663D01*
X180081682Y-99818944D01*
X179795574Y-99818694D01*
X179531149Y-99927952D01*
X179328663Y-100130085D01*
X179218944Y-100394318D01*
X179218779Y-100583658D01*
X177090717Y-102711719D01*
X158483924Y-102711719D01*
X158459760Y-102695573D01*
X158277495Y-102659317D01*
X158277490Y-102659318D01*
X150432881Y-102659318D01*
X149064281Y-101290717D01*
X149064281Y-99845554D01*
X149028026Y-99663289D01*
X148924782Y-99508772D01*
X148924779Y-99508770D01*
X147864281Y-98448271D01*
X147864281Y-96146750D01*
X159553000Y-96146750D01*
X159553000Y-96214310D01*
X159649673Y-96447699D01*
X159804348Y-96602373D01*
X159804348Y-96888000D01*
X159830586Y-97027441D01*
X159869403Y-97087765D01*
X159834574Y-97138738D01*
X159804348Y-97288000D01*
X159804348Y-97688000D01*
X159830586Y-97827441D01*
X159869403Y-97887765D01*
X159834574Y-97938738D01*
X159804348Y-98088000D01*
X159804348Y-98488000D01*
X159830586Y-98627441D01*
X159869403Y-98687765D01*
X159834574Y-98738738D01*
X159804348Y-98888000D01*
X159804348Y-99288000D01*
X159830586Y-99427441D01*
X159912995Y-99555509D01*
X160038738Y-99641426D01*
X160188000Y-99671652D01*
X164188000Y-99671652D01*
X164327441Y-99645414D01*
X164453526Y-99564281D01*
X166990717Y-99564281D01*
X168718858Y-101292421D01*
X168718694Y-101480426D01*
X168827952Y-101744851D01*
X169030085Y-101947337D01*
X169294318Y-102057056D01*
X169580426Y-102057306D01*
X169844851Y-101948048D01*
X170047337Y-101745915D01*
X170157056Y-101481682D01*
X170157280Y-101225551D01*
X170344851Y-101148048D01*
X170547337Y-100945915D01*
X170657056Y-100681682D01*
X170657306Y-100395574D01*
X170548048Y-100131149D01*
X170400391Y-99983234D01*
X170378026Y-99870802D01*
X170361156Y-99845554D01*
X170274782Y-99716285D01*
X170274779Y-99716283D01*
X169814281Y-99255784D01*
X169814281Y-98188000D01*
X169778026Y-98005735D01*
X169674782Y-97851218D01*
X169674779Y-97851216D01*
X168174782Y-96351218D01*
X168020265Y-96247974D01*
X167838000Y-96211718D01*
X167837995Y-96211719D01*
X164823000Y-96211719D01*
X164823000Y-96146750D01*
X164664250Y-95988000D01*
X162315000Y-95988000D01*
X162315000Y-96035000D01*
X162061000Y-96035000D01*
X162061000Y-95988000D01*
X159711750Y-95988000D01*
X159553000Y-96146750D01*
X147864281Y-96146750D01*
X147864281Y-95530451D01*
X147864282Y-95530446D01*
X147828027Y-95348182D01*
X147761120Y-95248048D01*
X147724782Y-95193664D01*
X147724779Y-95193662D01*
X147185229Y-94654111D01*
X147185229Y-93208953D01*
X147185230Y-93208948D01*
X147148974Y-93026684D01*
X147148974Y-93026683D01*
X147045730Y-92872166D01*
X147045727Y-92872164D01*
X146607142Y-92433578D01*
X146607306Y-92245574D01*
X146498048Y-91981149D01*
X146295915Y-91778663D01*
X146278300Y-91771348D01*
X146357056Y-91581682D01*
X146357306Y-91295574D01*
X146248048Y-91031149D01*
X146045915Y-90828663D01*
X145781682Y-90718944D01*
X145495574Y-90718694D01*
X145231149Y-90827952D01*
X145028663Y-91030085D01*
X144918944Y-91294318D01*
X144918762Y-91502125D01*
X144852672Y-91601037D01*
X144816416Y-91783302D01*
X144816417Y-91783307D01*
X144816417Y-100291077D01*
X144816416Y-100291082D01*
X144852672Y-100473347D01*
X144955916Y-100627864D01*
X148412687Y-104084634D01*
X142255682Y-104084634D01*
X142122858Y-103951578D01*
X142084625Y-103935702D01*
X142107056Y-103881682D01*
X142107306Y-103595574D01*
X141998048Y-103331149D01*
X141795915Y-103128663D01*
X141531682Y-103018944D01*
X141342342Y-103018779D01*
X137964281Y-99640717D01*
X137964281Y-94515063D01*
X137964282Y-94515058D01*
X137928026Y-94332793D01*
X137902318Y-94294318D01*
X137824782Y-94178276D01*
X137824779Y-94178274D01*
X133797724Y-90151218D01*
X133643207Y-90047974D01*
X133460942Y-90011718D01*
X133460937Y-90011719D01*
X125035282Y-90011719D01*
X120457142Y-85433578D01*
X120457306Y-85245574D01*
X120348048Y-84981149D01*
X120145915Y-84778663D01*
X119881682Y-84668944D01*
X119595574Y-84668694D01*
X119331149Y-84777952D01*
X119128663Y-84980085D01*
X119018944Y-85244318D01*
X119018694Y-85530426D01*
X107639281Y-85530426D01*
X107639281Y-79088000D01*
X109804348Y-79088000D01*
X109804348Y-81088000D01*
X109830586Y-81227441D01*
X109912995Y-81355509D01*
X110038738Y-81441426D01*
X110188000Y-81471652D01*
X112188000Y-81471652D01*
X112327441Y-81445414D01*
X112455509Y-81363005D01*
X112541426Y-81237262D01*
X112571652Y-81088000D01*
X112571652Y-79088000D01*
X112545414Y-78948559D01*
X112463005Y-78820491D01*
X112337262Y-78734574D01*
X112188000Y-78704348D01*
X110188000Y-78704348D01*
X110048559Y-78730586D01*
X109920491Y-78812995D01*
X109834574Y-78938738D01*
X109804348Y-79088000D01*
X107639281Y-79088000D01*
X107639281Y-77230426D01*
X119968694Y-77230426D01*
X120077952Y-77494851D01*
X120280085Y-77697337D01*
X120544318Y-77807056D01*
X120733658Y-77807221D01*
X120885894Y-77959457D01*
X120885894Y-77977429D01*
X120885893Y-77977434D01*
X120922149Y-78159699D01*
X121025393Y-78314216D01*
X121400022Y-78688845D01*
X121231682Y-78618944D01*
X120945574Y-78618694D01*
X120681149Y-78727952D01*
X120478663Y-78930085D01*
X120368944Y-79194318D01*
X120368694Y-79480426D01*
X120477952Y-79744851D01*
X120680085Y-79947337D01*
X120944318Y-80057056D01*
X121133657Y-80057221D01*
X125101218Y-84024782D01*
X125255735Y-84128026D01*
X125438000Y-84164282D01*
X125438005Y-84164281D01*
X128997261Y-84164281D01*
X129130085Y-84297337D01*
X129394318Y-84407056D01*
X129680426Y-84407306D01*
X129944851Y-84298048D01*
X130147337Y-84095915D01*
X130257056Y-83831682D01*
X130257306Y-83545574D01*
X130182397Y-83364281D01*
X132497348Y-83364281D01*
X132680085Y-83547337D01*
X132944318Y-83657056D01*
X133230426Y-83657306D01*
X133494851Y-83548048D01*
X133697337Y-83345915D01*
X133807056Y-83081682D01*
X133807306Y-82795574D01*
X133698048Y-82531149D01*
X133495915Y-82328663D01*
X133231682Y-82218944D01*
X132945574Y-82218694D01*
X132681149Y-82327952D01*
X132597236Y-82411719D01*
X126470023Y-82411719D01*
X121838456Y-77780151D01*
X121838456Y-77762175D01*
X121802201Y-77579910D01*
X121698957Y-77425393D01*
X121698954Y-77425391D01*
X121407142Y-77133578D01*
X121407306Y-76945574D01*
X121298048Y-76681149D01*
X121095915Y-76478663D01*
X120831682Y-76368944D01*
X120545574Y-76368694D01*
X120281149Y-76477952D01*
X120078663Y-76680085D01*
X119968944Y-76944318D01*
X119968694Y-77230426D01*
X107639281Y-77230426D01*
X107639281Y-72760558D01*
X109811481Y-72760558D01*
X110020565Y-73266582D01*
X110407382Y-73654074D01*
X110913040Y-73864042D01*
X111460558Y-73864519D01*
X111966582Y-73655435D01*
X112354074Y-73268618D01*
X112564042Y-72762960D01*
X112564519Y-72215442D01*
X112355435Y-71709418D01*
X111968618Y-71321926D01*
X111462960Y-71111958D01*
X110915442Y-71111481D01*
X110409418Y-71320565D01*
X110021926Y-71707382D01*
X109811958Y-72213040D01*
X109811481Y-72760558D01*
X107639281Y-72760558D01*
X107639281Y-65238000D01*
X122454348Y-65238000D01*
X122454348Y-66938000D01*
X122480586Y-67077441D01*
X122562995Y-67205509D01*
X122688738Y-67291426D01*
X122838000Y-67321652D01*
X124538000Y-67321652D01*
X124677441Y-67295414D01*
X124805509Y-67213005D01*
X124891426Y-67087262D01*
X124921652Y-66938000D01*
X124921652Y-66063976D01*
X125001719Y-66063976D01*
X125001719Y-66112024D01*
X125095064Y-66581301D01*
X125360888Y-66979136D01*
X125758723Y-67244960D01*
X126228000Y-67338305D01*
X126697277Y-67244960D01*
X127095112Y-66979136D01*
X127360936Y-66581301D01*
X127454281Y-66112024D01*
X127454281Y-66063976D01*
X127360936Y-65594699D01*
X127095112Y-65196864D01*
X126697277Y-64931040D01*
X126228000Y-64837695D01*
X125758723Y-64931040D01*
X125360888Y-65196864D01*
X125095064Y-65594699D01*
X125001719Y-66063976D01*
X124921652Y-66063976D01*
X124921652Y-65238000D01*
X124895414Y-65098559D01*
X124813005Y-64970491D01*
X124687262Y-64884574D01*
X124538000Y-64854348D01*
X122838000Y-64854348D01*
X122698559Y-64880586D01*
X122570491Y-64962995D01*
X122484574Y-65088738D01*
X122454348Y-65238000D01*
X107639281Y-65238000D01*
X107639281Y-59664029D01*
X108891433Y-59664029D01*
X109141537Y-60269325D01*
X109604239Y-60732836D01*
X110209098Y-60983995D01*
X110864029Y-60984567D01*
X111469325Y-60734463D01*
X111932836Y-60271761D01*
X112183995Y-59666902D01*
X112183997Y-59664029D01*
X122191433Y-59664029D01*
X122441537Y-60269325D01*
X122904239Y-60732836D01*
X123509098Y-60983995D01*
X124164029Y-60984567D01*
X124769325Y-60734463D01*
X125232836Y-60271761D01*
X125483995Y-59666902D01*
X125484567Y-59011971D01*
X125234463Y-58406675D01*
X124771761Y-57943164D01*
X124166902Y-57692005D01*
X123511971Y-57691433D01*
X122906675Y-57941537D01*
X122443164Y-58404239D01*
X122192005Y-59009098D01*
X122191433Y-59664029D01*
X112183997Y-59664029D01*
X112184567Y-59011971D01*
X111934463Y-58406675D01*
X111471761Y-57943164D01*
X110866902Y-57692005D01*
X110211971Y-57691433D01*
X109606675Y-57941537D01*
X109143164Y-58404239D01*
X108892005Y-59009098D01*
X108891433Y-59664029D01*
X107639281Y-59664029D01*
X107639281Y-44164029D01*
X108891433Y-44164029D01*
X109141537Y-44769325D01*
X109604239Y-45232836D01*
X110209098Y-45483995D01*
X110864029Y-45484567D01*
X111469325Y-45234463D01*
X111932836Y-44771761D01*
X112183995Y-44166902D01*
X112184567Y-43511971D01*
X111934463Y-42906675D01*
X111471761Y-42443164D01*
X110866902Y-42192005D01*
X110211971Y-42191433D01*
X109606675Y-42441537D01*
X109143164Y-42904239D01*
X108892005Y-43509098D01*
X108891433Y-44164029D01*
X107639281Y-44164029D01*
X107639281Y-44132448D01*
X107993700Y-42350663D01*
X108168821Y-42088576D01*
X113422500Y-42088576D01*
X113614722Y-42553788D01*
X113970340Y-42910027D01*
X114435216Y-43103061D01*
X114938576Y-43103500D01*
X115030020Y-43065716D01*
X125710079Y-53745774D01*
X125672939Y-53835216D01*
X125672500Y-54338576D01*
X125864722Y-54803788D01*
X126220340Y-55160027D01*
X126685216Y-55353061D01*
X127188576Y-55353500D01*
X127280020Y-55315716D01*
X130911719Y-58947414D01*
X130911719Y-62720891D01*
X130818944Y-62944318D01*
X130818694Y-63230426D01*
X130911719Y-63455564D01*
X130911719Y-74220891D01*
X130818944Y-74444318D01*
X130818694Y-74730426D01*
X130927952Y-74994851D01*
X131130085Y-75197337D01*
X131394318Y-75307056D01*
X131680426Y-75307306D01*
X131944851Y-75198048D01*
X132147337Y-74995915D01*
X132257056Y-74731682D01*
X132257306Y-74445574D01*
X132164281Y-74220436D01*
X132164281Y-63455109D01*
X132257056Y-63231682D01*
X132257306Y-62945574D01*
X132164281Y-62720436D01*
X132164281Y-58688000D01*
X132149108Y-58611719D01*
X132116608Y-58448332D01*
X132054934Y-58356030D01*
X131980848Y-58245152D01*
X131980845Y-58245150D01*
X128165921Y-54430226D01*
X128203061Y-54340784D01*
X128203500Y-53837424D01*
X128011278Y-53372212D01*
X127655660Y-53015973D01*
X127202339Y-52827737D01*
X127430128Y-52733616D01*
X133726104Y-59029591D01*
X133726106Y-59029594D01*
X133877643Y-59130847D01*
X133880623Y-59132838D01*
X134062888Y-59169094D01*
X134062893Y-59169093D01*
X136095529Y-59169093D01*
X140767910Y-63841474D01*
X140518723Y-63891040D01*
X140120888Y-64156864D01*
X139855064Y-64554699D01*
X139761719Y-65023976D01*
X139761719Y-65072024D01*
X139855064Y-65541301D01*
X140120888Y-65939136D01*
X140361719Y-66100054D01*
X140361719Y-66354348D01*
X140138000Y-66354348D01*
X139998559Y-66380586D01*
X139870491Y-66462995D01*
X139784574Y-66588738D01*
X139754348Y-66738000D01*
X139754348Y-67935956D01*
X139745152Y-67945152D01*
X139609392Y-68148333D01*
X139561718Y-68388000D01*
X139561719Y-68388005D01*
X139561719Y-69820891D01*
X139468944Y-70044318D01*
X139468694Y-70330426D01*
X139577952Y-70594851D01*
X139780085Y-70797337D01*
X140044318Y-70907056D01*
X140330426Y-70907306D01*
X140594851Y-70798048D01*
X140797337Y-70595915D01*
X140850045Y-70468980D01*
X143468922Y-70468980D01*
X143468694Y-70730426D01*
X143577952Y-70994851D01*
X143780085Y-71197337D01*
X144044318Y-71307056D01*
X144330426Y-71307306D01*
X144594851Y-71198048D01*
X144728852Y-71064281D01*
X151657108Y-71064281D01*
X148446520Y-74274868D01*
X148378707Y-74376359D01*
X148298048Y-74181149D01*
X148095915Y-73978663D01*
X147831682Y-73868944D01*
X147545574Y-73868694D01*
X147281149Y-73977952D01*
X147078663Y-74180085D01*
X146968944Y-74444318D01*
X146968779Y-74633658D01*
X145598352Y-76004084D01*
X145573550Y-75944058D01*
X145253626Y-75623575D01*
X144835411Y-75449917D01*
X144382575Y-75449522D01*
X143964058Y-75622450D01*
X143643575Y-75942374D01*
X143469917Y-76360589D01*
X143469522Y-76813425D01*
X143642450Y-77231942D01*
X143962374Y-77552425D01*
X144380589Y-77726083D01*
X144833425Y-77726478D01*
X145251942Y-77553550D01*
X145572425Y-77233626D01*
X145642743Y-77064281D01*
X145687995Y-77064281D01*
X145688000Y-77064282D01*
X145870265Y-77028026D01*
X146024782Y-76924782D01*
X146046543Y-76903021D01*
X146079544Y-76982892D01*
X145796817Y-77265619D01*
X145693573Y-77420136D01*
X145657317Y-77602401D01*
X145657318Y-77602406D01*
X145657318Y-78686792D01*
X145573550Y-78484058D01*
X145253626Y-78163575D01*
X144835411Y-77989917D01*
X144382575Y-77989522D01*
X144363216Y-77997521D01*
X143198755Y-76833059D01*
X143206083Y-76815411D01*
X143206478Y-76362575D01*
X143033550Y-75944058D01*
X142713626Y-75623575D01*
X142295411Y-75449917D01*
X141842575Y-75449522D01*
X141424058Y-75622450D01*
X141103575Y-75942374D01*
X141095542Y-75961719D01*
X138717414Y-75961719D01*
X137160432Y-74404736D01*
X137068048Y-74181149D01*
X136865915Y-73978663D01*
X136601682Y-73868944D01*
X136315574Y-73868694D01*
X136051149Y-73977952D01*
X135848663Y-74180085D01*
X135738944Y-74444318D01*
X135738694Y-74730426D01*
X135847952Y-74994851D01*
X136050085Y-75197337D01*
X136275058Y-75290754D01*
X138015150Y-77030845D01*
X138015152Y-77030848D01*
X138100687Y-77088000D01*
X138218332Y-77166608D01*
X138458000Y-77214282D01*
X138458005Y-77214281D01*
X141095153Y-77214281D01*
X141102450Y-77231942D01*
X141422374Y-77552425D01*
X141840589Y-77726083D01*
X142293425Y-77726478D01*
X142312783Y-77718479D01*
X142339527Y-77745223D01*
X142195000Y-77889750D01*
X142195000Y-79001000D01*
X143306250Y-79001000D01*
X143450777Y-78856473D01*
X143477245Y-78882941D01*
X143469917Y-78900589D01*
X143469522Y-79353425D01*
X143642450Y-79771942D01*
X143962374Y-80092425D01*
X144380589Y-80266083D01*
X144833425Y-80266478D01*
X145251942Y-80093550D01*
X145572425Y-79773626D01*
X145657318Y-79569181D01*
X145657318Y-79614908D01*
X145657317Y-79614913D01*
X145693573Y-79797178D01*
X145796817Y-79951695D01*
X146324303Y-80479180D01*
X146324305Y-80479183D01*
X146478822Y-80582427D01*
X146509063Y-80588442D01*
X146661087Y-80618683D01*
X146661092Y-80618682D01*
X147634908Y-80618682D01*
X147634913Y-80618683D01*
X147817178Y-80582427D01*
X147971695Y-80479183D01*
X148709727Y-79741150D01*
X148722450Y-79771942D01*
X149042374Y-80092425D01*
X149460589Y-80266083D01*
X149913425Y-80266478D01*
X150331942Y-80093550D01*
X150652425Y-79773626D01*
X150826083Y-79355411D01*
X150826478Y-78902575D01*
X150756456Y-78733108D01*
X154336768Y-75152795D01*
X155666925Y-75152795D01*
X155666930Y-75152796D01*
X155849195Y-75116540D01*
X156003712Y-75013296D01*
X156692352Y-74324655D01*
X156671777Y-74374206D01*
X156671527Y-74660314D01*
X156780785Y-74924739D01*
X156914552Y-75058740D01*
X156914552Y-76721970D01*
X154204668Y-79431853D01*
X154204666Y-79431856D01*
X151924802Y-81711719D01*
X135588005Y-81711719D01*
X135588000Y-81711718D01*
X135435976Y-81741959D01*
X135405735Y-81747974D01*
X135251218Y-81851218D01*
X135251216Y-81851221D01*
X135061870Y-82040567D01*
X135061870Y-79413750D01*
X140671000Y-79413750D01*
X140671000Y-80016309D01*
X140767673Y-80249698D01*
X140946301Y-80428327D01*
X141179690Y-80525000D01*
X141782250Y-80525000D01*
X141941000Y-80366250D01*
X141941000Y-79255000D01*
X142195000Y-79255000D01*
X142195000Y-80366250D01*
X142353750Y-80525000D01*
X142956310Y-80525000D01*
X143189699Y-80428327D01*
X143368327Y-80249698D01*
X143465000Y-80016309D01*
X143465000Y-79413750D01*
X143306250Y-79255000D01*
X142195000Y-79255000D01*
X141941000Y-79255000D01*
X140829750Y-79255000D01*
X140671000Y-79413750D01*
X135061870Y-79413750D01*
X135061870Y-78239691D01*
X140671000Y-78239691D01*
X140671000Y-78842250D01*
X140829750Y-79001000D01*
X141941000Y-79001000D01*
X141941000Y-77889750D01*
X141782250Y-77731000D01*
X141179690Y-77731000D01*
X140946301Y-77827673D01*
X140767673Y-78006302D01*
X140671000Y-78239691D01*
X135061870Y-78239691D01*
X135061870Y-65887694D01*
X137642421Y-63307142D01*
X137830426Y-63307306D01*
X138094851Y-63198048D01*
X138297337Y-62995915D01*
X138407056Y-62731682D01*
X138407306Y-62445574D01*
X138298048Y-62181149D01*
X138095915Y-61978663D01*
X137831682Y-61868944D01*
X137545574Y-61868694D01*
X137281149Y-61977952D01*
X137078663Y-62180085D01*
X136968944Y-62444318D01*
X136968779Y-62633658D01*
X134248807Y-65353629D01*
X134145563Y-65508146D01*
X134109307Y-65690411D01*
X134109308Y-65690416D01*
X134109308Y-88485584D01*
X134109307Y-88485589D01*
X134145563Y-88667854D01*
X134248807Y-88822371D01*
X139468858Y-94042421D01*
X139468694Y-94230426D01*
X139577952Y-94494851D01*
X139780085Y-94697337D01*
X140044318Y-94807056D01*
X140330426Y-94807306D01*
X140594851Y-94698048D01*
X140797337Y-94495915D01*
X140907056Y-94231682D01*
X140907306Y-93945574D01*
X140798048Y-93681149D01*
X140595915Y-93478663D01*
X140331682Y-93368944D01*
X140142342Y-93368779D01*
X139444945Y-92671382D01*
X140518702Y-92671382D01*
X140518694Y-92680426D01*
X140627952Y-92944851D01*
X140830085Y-93147337D01*
X141094318Y-93257056D01*
X141380426Y-93257306D01*
X141644851Y-93148048D01*
X141847337Y-92945915D01*
X141957056Y-92681682D01*
X141957306Y-92395574D01*
X141848048Y-92131149D01*
X141645915Y-91928663D01*
X141381682Y-91818944D01*
X141172680Y-91818761D01*
X141077366Y-91755075D01*
X140895101Y-91718819D01*
X140895096Y-91718820D01*
X139242383Y-91718820D01*
X135414281Y-87890717D01*
X135414281Y-84411443D01*
X135608022Y-84491891D01*
X135894130Y-84492141D01*
X136158555Y-84382883D01*
X136292556Y-84249116D01*
X139675552Y-84249116D01*
X148946526Y-93520089D01*
X148946528Y-93520092D01*
X149083657Y-93611718D01*
X149101045Y-93623336D01*
X149283310Y-93659591D01*
X153109901Y-93659591D01*
X153242725Y-93792647D01*
X153506958Y-93902366D01*
X153793066Y-93902616D01*
X154057491Y-93793358D01*
X154259977Y-93591225D01*
X154262232Y-93585795D01*
X155218858Y-94542421D01*
X155218694Y-94730426D01*
X155327952Y-94994851D01*
X155530085Y-95197337D01*
X155794318Y-95307056D01*
X156080426Y-95307306D01*
X156344851Y-95198048D01*
X156547337Y-94995915D01*
X156657056Y-94731682D01*
X156657306Y-94445574D01*
X156548048Y-94181149D01*
X156345915Y-93978663D01*
X156081682Y-93868944D01*
X155892342Y-93868779D01*
X155770314Y-93746750D01*
X159553000Y-93746750D01*
X159553000Y-93814310D01*
X159583523Y-93888000D01*
X159553000Y-93961690D01*
X159553000Y-94029250D01*
X159711750Y-94188000D01*
X159789975Y-94188000D01*
X159828302Y-94226327D01*
X159977194Y-94288000D01*
X159828302Y-94349673D01*
X159789975Y-94388000D01*
X159711750Y-94388000D01*
X159553000Y-94546750D01*
X159553000Y-94614310D01*
X159583523Y-94688000D01*
X159553000Y-94761690D01*
X159553000Y-94829250D01*
X159711750Y-94988000D01*
X159789975Y-94988000D01*
X159828302Y-95026327D01*
X159977194Y-95088000D01*
X159828302Y-95149673D01*
X159789975Y-95188000D01*
X159711750Y-95188000D01*
X159553000Y-95346750D01*
X159553000Y-95414310D01*
X159583523Y-95488000D01*
X159553000Y-95561690D01*
X159553000Y-95629250D01*
X159711750Y-95788000D01*
X159789975Y-95788000D01*
X159828302Y-95826327D01*
X160061691Y-95923000D01*
X161902250Y-95923000D01*
X162037250Y-95788000D01*
X162061000Y-95788000D01*
X162061000Y-95188000D01*
X162037250Y-95188000D01*
X161937250Y-95088000D01*
X162037250Y-94988000D01*
X162061000Y-94988000D01*
X162061000Y-94388000D01*
X162037250Y-94388000D01*
X161937250Y-94288000D01*
X162037250Y-94188000D01*
X162061000Y-94188000D01*
X162061000Y-93588000D01*
X162037250Y-93588000D01*
X161902250Y-93453000D01*
X160061691Y-93453000D01*
X159828302Y-93549673D01*
X159789975Y-93588000D01*
X159711750Y-93588000D01*
X159553000Y-93746750D01*
X155770314Y-93746750D01*
X154479799Y-92456235D01*
X154547337Y-92388814D01*
X154657056Y-92124581D01*
X154657221Y-91935241D01*
X155028181Y-91564281D01*
X157219098Y-91564281D01*
X157218870Y-91825736D01*
X157328128Y-92090161D01*
X157530261Y-92292647D01*
X157794494Y-92402366D01*
X158080602Y-92402616D01*
X158345027Y-92293358D01*
X158479028Y-92159591D01*
X158992685Y-92159591D01*
X158992690Y-92159592D01*
X159174955Y-92123336D01*
X159329472Y-92020092D01*
X159675769Y-91673795D01*
X159804348Y-91802373D01*
X159804348Y-92088000D01*
X159830586Y-92227441D01*
X159869403Y-92287765D01*
X159834574Y-92338738D01*
X159804348Y-92488000D01*
X159804348Y-92773627D01*
X159649673Y-92928301D01*
X159553000Y-93161690D01*
X159553000Y-93229250D01*
X159711750Y-93388000D01*
X162061000Y-93388000D01*
X162061000Y-93341000D01*
X162315000Y-93341000D01*
X162315000Y-93388000D01*
X162335000Y-93388000D01*
X162335000Y-93588000D01*
X162315000Y-93588000D01*
X162315000Y-94188000D01*
X162338750Y-94188000D01*
X162438750Y-94288000D01*
X162338750Y-94388000D01*
X162315000Y-94388000D01*
X162315000Y-94988000D01*
X162338750Y-94988000D01*
X162438750Y-95088000D01*
X162338750Y-95188000D01*
X162315000Y-95188000D01*
X162315000Y-95788000D01*
X162338750Y-95788000D01*
X162473750Y-95923000D01*
X164314309Y-95923000D01*
X164547698Y-95826327D01*
X164586025Y-95788000D01*
X164664250Y-95788000D01*
X164823000Y-95629250D01*
X164823000Y-95561690D01*
X164792477Y-95488000D01*
X164823000Y-95414310D01*
X164823000Y-95346750D01*
X164664250Y-95188000D01*
X164586025Y-95188000D01*
X164547698Y-95149673D01*
X164398806Y-95088000D01*
X164547698Y-95026327D01*
X164586025Y-94988000D01*
X164664250Y-94988000D01*
X164823000Y-94829250D01*
X164823000Y-94761690D01*
X164792477Y-94688000D01*
X164823000Y-94614310D01*
X164823000Y-94546750D01*
X164664250Y-94388000D01*
X164586025Y-94388000D01*
X164547698Y-94349673D01*
X164398806Y-94288000D01*
X164547698Y-94226327D01*
X164586025Y-94188000D01*
X164620764Y-94188000D01*
X164630085Y-94197337D01*
X164894318Y-94307056D01*
X165180426Y-94307306D01*
X165444851Y-94198048D01*
X165647337Y-93995915D01*
X165757056Y-93731682D01*
X165757306Y-93445574D01*
X165648048Y-93181149D01*
X165445915Y-92978663D01*
X165181682Y-92868944D01*
X164895574Y-92868694D01*
X164857846Y-92884283D01*
X164571652Y-92598088D01*
X164571652Y-92564597D01*
X164794318Y-92657056D01*
X165080426Y-92657306D01*
X165344851Y-92548048D01*
X165547337Y-92345915D01*
X165657056Y-92081682D01*
X165657306Y-91795574D01*
X165548048Y-91531149D01*
X165345915Y-91328663D01*
X165081682Y-91218944D01*
X164795574Y-91218694D01*
X164724366Y-91248116D01*
X164664250Y-91188000D01*
X162315000Y-91188000D01*
X162315000Y-91235000D01*
X162061000Y-91235000D01*
X162061000Y-91188000D01*
X162041000Y-91188000D01*
X162041000Y-90988000D01*
X162061000Y-90988000D01*
X162061000Y-90941000D01*
X162315000Y-90941000D01*
X162315000Y-90988000D01*
X164664250Y-90988000D01*
X164823000Y-90829250D01*
X164823000Y-90764281D01*
X173152765Y-90764281D01*
X173186056Y-90844851D01*
X173388189Y-91047337D01*
X173652422Y-91157056D01*
X173841762Y-91157221D01*
X178472910Y-95788369D01*
X178472746Y-95976374D01*
X178582004Y-96240799D01*
X178784137Y-96443285D01*
X179048370Y-96553004D01*
X179334478Y-96553254D01*
X179598903Y-96443996D01*
X179784830Y-96258393D01*
X181811719Y-98285282D01*
X181811719Y-100047261D01*
X181678663Y-100180085D01*
X181568944Y-100444318D01*
X181568694Y-100730426D01*
X181677952Y-100994851D01*
X181880085Y-101197337D01*
X182144318Y-101307056D01*
X182430426Y-101307306D01*
X182694851Y-101198048D01*
X182897337Y-100995915D01*
X183007056Y-100731682D01*
X183007306Y-100445574D01*
X182898048Y-100181149D01*
X182764281Y-100047148D01*
X182764281Y-98088005D01*
X182764282Y-98088000D01*
X182728026Y-97905736D01*
X182728026Y-97905735D01*
X182624782Y-97751218D01*
X182624779Y-97751216D01*
X180783145Y-95909582D01*
X180836018Y-95909582D01*
X184361719Y-99435282D01*
X184361719Y-100047261D01*
X184228663Y-100180085D01*
X184118944Y-100444318D01*
X184118694Y-100730426D01*
X184227952Y-100994851D01*
X184430085Y-101197337D01*
X184694318Y-101307056D01*
X184980426Y-101307306D01*
X185244851Y-101198048D01*
X185447337Y-100995915D01*
X185557056Y-100731682D01*
X185557306Y-100445574D01*
X185448048Y-100181149D01*
X185314281Y-100047148D01*
X185314281Y-99238005D01*
X185314282Y-99238000D01*
X185278026Y-99055736D01*
X185278026Y-99055735D01*
X185174782Y-98901218D01*
X185174779Y-98901216D01*
X182253990Y-95980426D01*
X182468694Y-95980426D01*
X182577952Y-96244851D01*
X182780085Y-96447337D01*
X183044318Y-96557056D01*
X183330426Y-96557306D01*
X183594851Y-96448048D01*
X183797337Y-96245915D01*
X183907056Y-95981682D01*
X183907221Y-95792342D01*
X184724779Y-94974784D01*
X184724782Y-94974782D01*
X184828026Y-94820265D01*
X184864281Y-94638000D01*
X184864281Y-90538005D01*
X184864282Y-90538000D01*
X184828026Y-90355736D01*
X184828026Y-90355735D01*
X184757128Y-90249627D01*
X184757306Y-90045574D01*
X184648048Y-89781149D01*
X184445915Y-89578663D01*
X184181682Y-89468944D01*
X183895574Y-89468694D01*
X183631149Y-89577952D01*
X183428663Y-89780085D01*
X183318944Y-90044318D01*
X183318694Y-90330426D01*
X183427952Y-90594851D01*
X183630085Y-90797337D01*
X183894318Y-90907056D01*
X183911719Y-90907071D01*
X183911719Y-94440718D01*
X183233578Y-95118858D01*
X183045574Y-95118694D01*
X182781149Y-95227952D01*
X182578663Y-95430085D01*
X182468944Y-95694318D01*
X182468694Y-95980426D01*
X182253990Y-95980426D01*
X181370083Y-95096519D01*
X181215566Y-94993275D01*
X181202353Y-94990647D01*
X181347337Y-94845915D01*
X181457056Y-94581682D01*
X181457236Y-94376211D01*
X181528026Y-94270265D01*
X181542406Y-94197974D01*
X181564282Y-94088000D01*
X181564281Y-94087995D01*
X181564281Y-89328739D01*
X181697337Y-89195915D01*
X181807056Y-88931682D01*
X181807306Y-88645574D01*
X181698048Y-88381149D01*
X181495915Y-88178663D01*
X181231682Y-88068944D01*
X180945574Y-88068694D01*
X180681149Y-88177952D01*
X180478663Y-88380085D01*
X180368944Y-88644318D01*
X180368694Y-88930426D01*
X180477952Y-89194851D01*
X180611719Y-89328852D01*
X180611719Y-93718708D01*
X180595574Y-93718694D01*
X180331149Y-93827952D01*
X180128663Y-94030085D01*
X180037723Y-94249093D01*
X176090936Y-90302305D01*
X176097337Y-90295915D01*
X176207056Y-90031682D01*
X176207306Y-89745574D01*
X176098048Y-89481149D01*
X175895915Y-89278663D01*
X175631682Y-89168944D01*
X175442342Y-89168779D01*
X173272495Y-86998931D01*
X173117978Y-86895687D01*
X172935713Y-86859431D01*
X172935708Y-86859432D01*
X168194121Y-86859432D01*
X168465429Y-86588124D01*
X168465432Y-86588122D01*
X168568676Y-86433605D01*
X168578792Y-86382749D01*
X168604932Y-86251340D01*
X168604931Y-86251335D01*
X168604931Y-84647607D01*
X168604932Y-84647602D01*
X168568676Y-84465337D01*
X168516362Y-84387043D01*
X168465432Y-84310820D01*
X168465429Y-84310818D01*
X167810528Y-83655916D01*
X167656011Y-83552672D01*
X167473746Y-83516416D01*
X167473741Y-83516417D01*
X159914003Y-83516417D01*
X166477389Y-76953030D01*
X166665394Y-76953194D01*
X166929819Y-76843936D01*
X167063820Y-76710169D01*
X176546253Y-76710169D01*
X176679077Y-76843225D01*
X176943310Y-76952944D01*
X177229418Y-76953194D01*
X177493843Y-76843936D01*
X177696329Y-76641803D01*
X177806048Y-76377570D01*
X177806298Y-76091462D01*
X177697040Y-75827037D01*
X177494907Y-75624551D01*
X177230674Y-75514832D01*
X176944566Y-75514582D01*
X176680141Y-75623840D01*
X176546140Y-75757607D01*
X167063707Y-75757607D01*
X166930883Y-75624551D01*
X166666650Y-75514832D01*
X166380542Y-75514582D01*
X166116117Y-75623840D01*
X165913631Y-75825973D01*
X165803912Y-76090206D01*
X165803747Y-76279546D01*
X157874520Y-84208772D01*
X157813348Y-84300323D01*
X157759674Y-84278035D01*
X157473566Y-84277785D01*
X157209141Y-84387043D01*
X157075140Y-84520810D01*
X153044373Y-84520810D01*
X151407142Y-82883578D01*
X151407306Y-82695574D01*
X151394376Y-82664281D01*
X152122080Y-82664281D01*
X152122085Y-82664282D01*
X152304350Y-82628026D01*
X152458867Y-82524782D01*
X154878229Y-80105419D01*
X154878232Y-80105417D01*
X157230535Y-77753113D01*
X157196816Y-77834318D01*
X157196651Y-78023658D01*
X157143218Y-78077090D01*
X157039974Y-78231607D01*
X157003718Y-78413872D01*
X157003719Y-78413877D01*
X157003719Y-78961261D01*
X156870663Y-79094085D01*
X156760944Y-79358318D01*
X156760694Y-79644426D01*
X156869952Y-79908851D01*
X157072085Y-80111337D01*
X157336318Y-80221056D01*
X157622426Y-80221306D01*
X157886851Y-80112048D01*
X158089337Y-79909915D01*
X158199056Y-79645682D01*
X158199306Y-79359574D01*
X158090048Y-79095149D01*
X157956281Y-78961148D01*
X157956281Y-78697217D01*
X158058298Y-78697306D01*
X158322723Y-78588048D01*
X158525209Y-78385915D01*
X158634928Y-78121682D01*
X158635178Y-77835574D01*
X158525920Y-77571149D01*
X158323787Y-77368663D01*
X158059554Y-77258944D01*
X157773446Y-77258694D01*
X157690809Y-77292839D01*
X157727612Y-77256036D01*
X157727615Y-77256034D01*
X157830859Y-77101517D01*
X157844916Y-77030848D01*
X157867115Y-76919252D01*
X157867114Y-76919247D01*
X157867114Y-76850426D01*
X159046694Y-76850426D01*
X159155952Y-77114851D01*
X159358085Y-77317337D01*
X159622318Y-77427056D01*
X159908426Y-77427306D01*
X160172851Y-77318048D01*
X160375337Y-77115915D01*
X160468754Y-76890942D01*
X161478845Y-75880850D01*
X161478848Y-75880848D01*
X161561195Y-75757606D01*
X161614608Y-75677668D01*
X161662281Y-75438000D01*
X161662281Y-75043109D01*
X161755056Y-74819682D01*
X161755306Y-74533574D01*
X161646048Y-74269149D01*
X161443915Y-74066663D01*
X161179682Y-73956944D01*
X160893574Y-73956694D01*
X160629149Y-74065952D01*
X160426663Y-74268085D01*
X160316944Y-74532318D01*
X160316694Y-74818426D01*
X160409719Y-75043564D01*
X160409719Y-75178586D01*
X159582737Y-76005568D01*
X159359149Y-76097952D01*
X159156663Y-76300085D01*
X159046944Y-76564318D01*
X159046694Y-76850426D01*
X157867114Y-76850426D01*
X157867114Y-75058627D01*
X158000170Y-74925803D01*
X158109889Y-74661570D01*
X158110139Y-74375462D01*
X158000881Y-74111037D01*
X157798748Y-73908551D01*
X157534515Y-73798832D01*
X157248407Y-73798582D01*
X157197314Y-73819693D01*
X157912180Y-73104827D01*
X157912183Y-73104825D01*
X158015427Y-72950308D01*
X158021442Y-72920067D01*
X158051683Y-72768043D01*
X158051682Y-72768038D01*
X158051682Y-71606338D01*
X158184738Y-71473514D01*
X158294457Y-71209281D01*
X158294707Y-70923173D01*
X158231988Y-70771382D01*
X159426936Y-70771382D01*
X159477952Y-70894851D01*
X159680085Y-71097337D01*
X159944318Y-71207056D01*
X160230426Y-71207306D01*
X160494851Y-71098048D01*
X160697337Y-70895915D01*
X160807056Y-70631682D01*
X160807306Y-70345574D01*
X160698048Y-70081149D01*
X160495915Y-69878663D01*
X160270942Y-69785246D01*
X160187949Y-69702253D01*
X159984768Y-69566493D01*
X159745101Y-69518819D01*
X159745096Y-69518820D01*
X156907242Y-69518820D01*
X156907306Y-69445574D01*
X156798048Y-69181149D01*
X156595915Y-68978663D01*
X156331682Y-68868944D01*
X156142342Y-68868779D01*
X155627183Y-68353619D01*
X155472666Y-68250375D01*
X155290401Y-68214119D01*
X155290396Y-68214120D01*
X155003049Y-68214120D01*
X155073560Y-68063976D01*
X175341719Y-68063976D01*
X175341719Y-68112024D01*
X175435064Y-68581301D01*
X175700888Y-68979136D01*
X176098723Y-69244960D01*
X176568000Y-69338305D01*
X177037277Y-69244960D01*
X177435112Y-68979136D01*
X177700936Y-68581301D01*
X177794281Y-68112024D01*
X177794281Y-68063976D01*
X177881719Y-68063976D01*
X177881719Y-68112024D01*
X177975064Y-68581301D01*
X178240888Y-68979136D01*
X178638723Y-69244960D01*
X179108000Y-69338305D01*
X179577277Y-69244960D01*
X179975112Y-68979136D01*
X180240936Y-68581301D01*
X180334281Y-68112024D01*
X180334281Y-68063976D01*
X180240936Y-67594699D01*
X179975112Y-67196864D01*
X179577277Y-66931040D01*
X179108000Y-66837695D01*
X178638723Y-66931040D01*
X178240888Y-67196864D01*
X177975064Y-67594699D01*
X177881719Y-68063976D01*
X177794281Y-68063976D01*
X177700936Y-67594699D01*
X177435112Y-67196864D01*
X177037277Y-66931040D01*
X176568000Y-66837695D01*
X176098723Y-66931040D01*
X175700888Y-67196864D01*
X175435064Y-67594699D01*
X175341719Y-68063976D01*
X155073560Y-68063976D01*
X155129486Y-67944892D01*
X155008819Y-67715000D01*
X153815000Y-67715000D01*
X153815000Y-67735000D01*
X153561000Y-67735000D01*
X153561000Y-67715000D01*
X153541000Y-67715000D01*
X153541000Y-67461000D01*
X153561000Y-67461000D01*
X153561000Y-65175000D01*
X153815000Y-65175000D01*
X153815000Y-67461000D01*
X155008819Y-67461000D01*
X155129486Y-67231108D01*
X154883183Y-66706642D01*
X154456729Y-66318000D01*
X154883183Y-65929358D01*
X155129486Y-65404892D01*
X155008819Y-65175000D01*
X153815000Y-65175000D01*
X153561000Y-65175000D01*
X153541000Y-65175000D01*
X153541000Y-64921000D01*
X153561000Y-64921000D01*
X153561000Y-64901000D01*
X153815000Y-64901000D01*
X153815000Y-64921000D01*
X155008819Y-64921000D01*
X155129486Y-64691108D01*
X155003049Y-64421880D01*
X176052568Y-64421880D01*
X175700888Y-64656864D01*
X175435064Y-65054699D01*
X175341719Y-65523976D01*
X175341719Y-65572024D01*
X175435064Y-66041301D01*
X175700888Y-66439136D01*
X176098723Y-66704960D01*
X176568000Y-66798305D01*
X177037277Y-66704960D01*
X177435112Y-66439136D01*
X177700936Y-66041301D01*
X177794281Y-65572024D01*
X177794281Y-65523976D01*
X177700936Y-65054699D01*
X177435112Y-64656864D01*
X177083432Y-64421880D01*
X178592568Y-64421880D01*
X178240888Y-64656864D01*
X177975064Y-65054699D01*
X177881719Y-65523976D01*
X177881719Y-65572024D01*
X177975064Y-66041301D01*
X178240888Y-66439136D01*
X178638723Y-66704960D01*
X179108000Y-66798305D01*
X179577277Y-66704960D01*
X179975112Y-66439136D01*
X180069318Y-66298146D01*
X180069318Y-66985594D01*
X180069317Y-66985599D01*
X180105573Y-67167864D01*
X180208817Y-67322381D01*
X180509435Y-67622999D01*
X180421719Y-68063976D01*
X180421719Y-68112024D01*
X180515064Y-68581301D01*
X180780888Y-68979136D01*
X181178723Y-69244960D01*
X181648000Y-69338305D01*
X182117277Y-69244960D01*
X182515112Y-68979136D01*
X182780936Y-68581301D01*
X182810797Y-68431182D01*
X182954348Y-68527099D01*
X182954348Y-68938000D01*
X182980586Y-69077441D01*
X183062995Y-69205509D01*
X183188738Y-69291426D01*
X183338000Y-69321652D01*
X185038000Y-69321652D01*
X185177441Y-69295414D01*
X185305509Y-69213005D01*
X185391426Y-69087262D01*
X185421652Y-68938000D01*
X185421652Y-67238000D01*
X185395414Y-67098559D01*
X185313005Y-66970491D01*
X185187262Y-66884574D01*
X185038000Y-66854348D01*
X183338000Y-66854348D01*
X183226682Y-66875294D01*
X183226682Y-66298146D01*
X183320888Y-66439136D01*
X183718723Y-66704960D01*
X184188000Y-66798305D01*
X184657277Y-66704960D01*
X185055112Y-66439136D01*
X185320936Y-66041301D01*
X185414281Y-65572024D01*
X185414281Y-65523976D01*
X185320936Y-65054699D01*
X185055112Y-64656864D01*
X184657277Y-64391040D01*
X184188000Y-64297695D01*
X183718723Y-64391040D01*
X183320888Y-64656864D01*
X183192808Y-64848550D01*
X183190427Y-64836582D01*
X183087183Y-64682065D01*
X180610272Y-62205154D01*
X180760027Y-62055660D01*
X180953061Y-61590784D01*
X180953500Y-61087424D01*
X180761278Y-60622212D01*
X180405660Y-60265973D01*
X179940784Y-60072939D01*
X179437424Y-60072500D01*
X179345979Y-60110284D01*
X178899724Y-59664029D01*
X182191433Y-59664029D01*
X182441537Y-60269325D01*
X182904239Y-60732836D01*
X183509098Y-60983995D01*
X184164029Y-60984567D01*
X184769325Y-60734463D01*
X185232836Y-60271761D01*
X185483995Y-59666902D01*
X185484567Y-59011971D01*
X185234463Y-58406675D01*
X184771761Y-57943164D01*
X184166902Y-57692005D01*
X183511971Y-57691433D01*
X182906675Y-57941537D01*
X182443164Y-58404239D01*
X182192005Y-59009098D01*
X182191433Y-59664029D01*
X178899724Y-59664029D01*
X168665921Y-49430226D01*
X168703061Y-49340784D01*
X168703500Y-48837424D01*
X168511278Y-48372212D01*
X168155660Y-48015973D01*
X167690784Y-47822939D01*
X167187424Y-47822500D01*
X166722212Y-48014722D01*
X166365973Y-48370340D01*
X166172939Y-48835216D01*
X166172500Y-49338576D01*
X166364722Y-49803788D01*
X166720340Y-50160027D01*
X167173661Y-50348263D01*
X166722212Y-50534798D01*
X166365973Y-50890416D01*
X166172939Y-51355292D01*
X166172500Y-51858652D01*
X166364722Y-52323864D01*
X166720340Y-52680103D01*
X166772340Y-52701695D01*
X166630467Y-52760461D01*
X166545409Y-53015804D01*
X167438000Y-53908395D01*
X168330591Y-53015804D01*
X168245533Y-52760461D01*
X168095202Y-52705561D01*
X168153788Y-52681354D01*
X168510027Y-52325736D01*
X168610257Y-52084357D01*
X168950067Y-52084357D01*
X176938212Y-60072501D01*
X176937424Y-60072500D01*
X176472212Y-60264722D01*
X176115973Y-60620340D01*
X176084330Y-60696544D01*
X176015539Y-60530467D01*
X175760196Y-60445409D01*
X174867605Y-61338000D01*
X174881748Y-61352143D01*
X174702143Y-61531748D01*
X174688000Y-61517605D01*
X174673858Y-61531748D01*
X174494253Y-61352143D01*
X174508395Y-61338000D01*
X173615804Y-60445409D01*
X173360461Y-60530467D01*
X173152484Y-61099965D01*
X173178277Y-61705700D01*
X173301472Y-62003120D01*
X142215958Y-62003120D01*
X140943264Y-60730426D01*
X147468694Y-60730426D01*
X147577952Y-60994851D01*
X147780085Y-61197337D01*
X148044318Y-61307056D01*
X148330426Y-61307306D01*
X148594851Y-61198048D01*
X148797337Y-60995915D01*
X148907056Y-60731682D01*
X148907221Y-60542342D01*
X149785534Y-59664029D01*
X168891433Y-59664029D01*
X169141537Y-60269325D01*
X169604239Y-60732836D01*
X170209098Y-60983995D01*
X170864029Y-60984567D01*
X171469325Y-60734463D01*
X171932836Y-60271761D01*
X171935309Y-60265804D01*
X173795409Y-60265804D01*
X174688000Y-61158395D01*
X175580591Y-60265804D01*
X175495533Y-60010461D01*
X174926035Y-59802484D01*
X174320300Y-59828277D01*
X173880467Y-60010461D01*
X173795409Y-60265804D01*
X171935309Y-60265804D01*
X172183995Y-59666902D01*
X172184567Y-59011971D01*
X171934463Y-58406675D01*
X171471761Y-57943164D01*
X170866902Y-57692005D01*
X170211971Y-57691433D01*
X169606675Y-57941537D01*
X169143164Y-58404239D01*
X168892005Y-59009098D01*
X168891433Y-59664029D01*
X149785534Y-59664029D01*
X150024779Y-59424784D01*
X150024782Y-59424782D01*
X150128026Y-59270265D01*
X150161804Y-59100452D01*
X150488000Y-59100452D01*
X150627441Y-59074214D01*
X150755509Y-58991805D01*
X150841426Y-58866062D01*
X150871652Y-58716800D01*
X150871652Y-57716800D01*
X150845414Y-57577359D01*
X150763005Y-57449291D01*
X150637262Y-57363374D01*
X150488000Y-57333148D01*
X148888000Y-57333148D01*
X148748559Y-57359386D01*
X148620491Y-57441795D01*
X148534574Y-57567538D01*
X148504348Y-57716800D01*
X148504348Y-58716800D01*
X148530586Y-58856241D01*
X148612995Y-58984309D01*
X148738738Y-59070226D01*
X148888000Y-59100452D01*
X149001985Y-59100452D01*
X148233578Y-59868858D01*
X148045574Y-59868694D01*
X147781149Y-59977952D01*
X147578663Y-60180085D01*
X147468944Y-60444318D01*
X147468694Y-60730426D01*
X140943264Y-60730426D01*
X137943264Y-57730426D01*
X139468694Y-57730426D01*
X139577952Y-57994851D01*
X139780085Y-58197337D01*
X140044318Y-58307056D01*
X140330426Y-58307306D01*
X140555564Y-58214281D01*
X140703110Y-58214281D01*
X140705586Y-58227441D01*
X140787995Y-58355509D01*
X140913738Y-58441426D01*
X141063000Y-58471652D01*
X141685957Y-58471652D01*
X141873950Y-58659645D01*
X141873952Y-58659648D01*
X142077133Y-58795408D01*
X142316800Y-58843081D01*
X143528110Y-58843081D01*
X143530586Y-58856241D01*
X143612995Y-58984309D01*
X143738738Y-59070226D01*
X143888000Y-59100452D01*
X145488000Y-59100452D01*
X145627441Y-59074214D01*
X145755509Y-58991805D01*
X145841426Y-58866062D01*
X145871652Y-58716800D01*
X145871652Y-57716800D01*
X145845414Y-57577359D01*
X145763005Y-57449291D01*
X145637262Y-57363374D01*
X145488000Y-57333148D01*
X143888000Y-57333148D01*
X143748559Y-57359386D01*
X143620491Y-57441795D01*
X143534574Y-57567538D01*
X143529920Y-57590519D01*
X142696652Y-57590519D01*
X142696652Y-57088000D01*
X142670414Y-56948559D01*
X142588005Y-56820491D01*
X142462262Y-56734574D01*
X142405107Y-56723000D01*
X142439310Y-56723000D01*
X142672699Y-56626327D01*
X142851327Y-56447698D01*
X142948000Y-56214309D01*
X142948000Y-55873750D01*
X142789250Y-55715000D01*
X141815000Y-55715000D01*
X141815000Y-55735000D01*
X141561000Y-55735000D01*
X141561000Y-55715000D01*
X140586750Y-55715000D01*
X140428000Y-55873750D01*
X140428000Y-56214309D01*
X140524673Y-56447698D01*
X140703301Y-56626327D01*
X140936690Y-56723000D01*
X140963875Y-56723000D01*
X140923559Y-56730586D01*
X140795491Y-56812995D01*
X140709574Y-56938738D01*
X140704920Y-56961719D01*
X140555109Y-56961719D01*
X140331682Y-56868944D01*
X140045574Y-56868694D01*
X139781149Y-56977952D01*
X139578663Y-57180085D01*
X139468944Y-57444318D01*
X139468694Y-57730426D01*
X137943264Y-57730426D01*
X135174529Y-54961691D01*
X140428000Y-54961691D01*
X140428000Y-55302250D01*
X140586750Y-55461000D01*
X141561000Y-55461000D01*
X141561000Y-54611750D01*
X141815000Y-54611750D01*
X141815000Y-55461000D01*
X142789250Y-55461000D01*
X142948000Y-55302250D01*
X142948000Y-54961691D01*
X142851327Y-54728302D01*
X142672699Y-54549673D01*
X142593337Y-54516800D01*
X143504348Y-54516800D01*
X143504348Y-55516800D01*
X143530586Y-55656241D01*
X143612995Y-55784309D01*
X143738738Y-55870226D01*
X143888000Y-55900452D01*
X145488000Y-55900452D01*
X145627441Y-55874214D01*
X145755509Y-55791805D01*
X145841426Y-55666062D01*
X145871652Y-55516800D01*
X145871652Y-55302550D01*
X148253000Y-55302550D01*
X148253000Y-55643110D01*
X148349673Y-55876499D01*
X148528302Y-56055127D01*
X148761691Y-56151800D01*
X149402250Y-56151800D01*
X149561000Y-55993050D01*
X149561000Y-55143800D01*
X149815000Y-55143800D01*
X149815000Y-55993050D01*
X149973750Y-56151800D01*
X150614309Y-56151800D01*
X150847698Y-56055127D01*
X151026327Y-55876499D01*
X151123000Y-55643110D01*
X151123000Y-55302550D01*
X150980646Y-55160196D01*
X166545409Y-55160196D01*
X166630467Y-55415539D01*
X167199965Y-55623516D01*
X167805700Y-55597723D01*
X168245533Y-55415539D01*
X168330591Y-55160196D01*
X167438000Y-54267605D01*
X166545409Y-55160196D01*
X150980646Y-55160196D01*
X150964250Y-55143800D01*
X149815000Y-55143800D01*
X149561000Y-55143800D01*
X148411750Y-55143800D01*
X148253000Y-55302550D01*
X145871652Y-55302550D01*
X145871652Y-54516800D01*
X145847885Y-54390490D01*
X148253000Y-54390490D01*
X148253000Y-54731050D01*
X148411750Y-54889800D01*
X149561000Y-54889800D01*
X149561000Y-54040550D01*
X149815000Y-54040550D01*
X149815000Y-54889800D01*
X150964250Y-54889800D01*
X151123000Y-54731050D01*
X151123000Y-54390490D01*
X151026327Y-54157101D01*
X150847698Y-53978473D01*
X150614309Y-53881800D01*
X149973750Y-53881800D01*
X149815000Y-54040550D01*
X149561000Y-54040550D01*
X149402250Y-53881800D01*
X148761691Y-53881800D01*
X148528302Y-53978473D01*
X148349673Y-54157101D01*
X148253000Y-54390490D01*
X145847885Y-54390490D01*
X145845414Y-54377359D01*
X145763005Y-54249291D01*
X145637262Y-54163374D01*
X145488000Y-54133148D01*
X143888000Y-54133148D01*
X143748559Y-54159386D01*
X143620491Y-54241795D01*
X143534574Y-54367538D01*
X143504348Y-54516800D01*
X142593337Y-54516800D01*
X142439310Y-54453000D01*
X141973750Y-54453000D01*
X141815000Y-54611750D01*
X141561000Y-54611750D01*
X141402250Y-54453000D01*
X140936690Y-54453000D01*
X140703301Y-54549673D01*
X140524673Y-54728302D01*
X140428000Y-54961691D01*
X135174529Y-54961691D01*
X134062803Y-53849965D01*
X165902484Y-53849965D01*
X165928277Y-54455700D01*
X166110461Y-54895533D01*
X166365804Y-54980591D01*
X167258395Y-54088000D01*
X167617605Y-54088000D01*
X168510196Y-54980591D01*
X168765539Y-54895533D01*
X168973516Y-54326035D01*
X168947723Y-53720300D01*
X168765539Y-53280467D01*
X168510196Y-53195409D01*
X167617605Y-54088000D01*
X167258395Y-54088000D01*
X166365804Y-53195409D01*
X166110461Y-53280467D01*
X165902484Y-53849965D01*
X134062803Y-53849965D01*
X125236457Y-45023619D01*
X125083151Y-44921184D01*
X125232836Y-44771761D01*
X125483995Y-44166902D01*
X125484567Y-43511971D01*
X125234463Y-42906675D01*
X124771761Y-42443164D01*
X124620517Y-42380362D01*
X127711463Y-42380362D01*
X127935740Y-42923153D01*
X128350662Y-43338800D01*
X128893061Y-43564024D01*
X129480362Y-43564537D01*
X130023153Y-43340260D01*
X130438800Y-42925338D01*
X130664024Y-42382939D01*
X130664468Y-41873750D01*
X143251000Y-41873750D01*
X143251000Y-43746310D01*
X143347673Y-43979699D01*
X143526302Y-44158327D01*
X143759691Y-44255000D01*
X144362250Y-44255000D01*
X144521000Y-44096250D01*
X144521000Y-41715000D01*
X144775000Y-41715000D01*
X144775000Y-44096250D01*
X144933750Y-44255000D01*
X145536309Y-44255000D01*
X145769698Y-44158327D01*
X145948327Y-43979699D01*
X146045000Y-43746310D01*
X146045000Y-41873750D01*
X148331000Y-41873750D01*
X148331000Y-43746310D01*
X148427673Y-43979699D01*
X148606302Y-44158327D01*
X148839691Y-44255000D01*
X149442250Y-44255000D01*
X149601000Y-44096250D01*
X149601000Y-41715000D01*
X149855000Y-41715000D01*
X149855000Y-44096250D01*
X150013750Y-44255000D01*
X150616309Y-44255000D01*
X150835932Y-44164029D01*
X168891433Y-44164029D01*
X169141537Y-44769325D01*
X169604239Y-45232836D01*
X170209098Y-45483995D01*
X170864029Y-45484567D01*
X171469325Y-45234463D01*
X171932836Y-44771761D01*
X172183995Y-44166902D01*
X172183997Y-44164029D01*
X182191433Y-44164029D01*
X182441537Y-44769325D01*
X182904239Y-45232836D01*
X183509098Y-45483995D01*
X184164029Y-45484567D01*
X184769325Y-45234463D01*
X185232836Y-44771761D01*
X185483995Y-44166902D01*
X185484567Y-43511971D01*
X185234463Y-42906675D01*
X184771761Y-42443164D01*
X184166902Y-42192005D01*
X183511971Y-42191433D01*
X182906675Y-42441537D01*
X182443164Y-42904239D01*
X182192005Y-43509098D01*
X182191433Y-44164029D01*
X172183997Y-44164029D01*
X172184567Y-43511971D01*
X171934463Y-42906675D01*
X171471761Y-42443164D01*
X170866902Y-42192005D01*
X170211971Y-42191433D01*
X169606675Y-42441537D01*
X169143164Y-42904239D01*
X168892005Y-43509098D01*
X168891433Y-44164029D01*
X150835932Y-44164029D01*
X150849698Y-44158327D01*
X151028327Y-43979699D01*
X151125000Y-43746310D01*
X151125000Y-42380362D01*
X163711463Y-42380362D01*
X163935740Y-42923153D01*
X164350662Y-43338800D01*
X164893061Y-43564024D01*
X165480362Y-43564537D01*
X166023153Y-43340260D01*
X166438800Y-42925338D01*
X166664024Y-42382939D01*
X166664537Y-41795638D01*
X166440260Y-41252847D01*
X166025338Y-40837200D01*
X165482939Y-40611976D01*
X164895638Y-40611463D01*
X164352847Y-40835740D01*
X163937200Y-41250662D01*
X163711976Y-41793061D01*
X163711463Y-42380362D01*
X151125000Y-42380362D01*
X151125000Y-41873750D01*
X150966250Y-41715000D01*
X149855000Y-41715000D01*
X149601000Y-41715000D01*
X148489750Y-41715000D01*
X148331000Y-41873750D01*
X146045000Y-41873750D01*
X145886250Y-41715000D01*
X144775000Y-41715000D01*
X144521000Y-41715000D01*
X143409750Y-41715000D01*
X143251000Y-41873750D01*
X130664468Y-41873750D01*
X130664537Y-41795638D01*
X130440260Y-41252847D01*
X130025338Y-40837200D01*
X129482939Y-40611976D01*
X128895638Y-40611463D01*
X128352847Y-40835740D01*
X127937200Y-41250662D01*
X127711976Y-41793061D01*
X127711463Y-42380362D01*
X124620517Y-42380362D01*
X124166902Y-42192005D01*
X123511971Y-42191433D01*
X122906675Y-42441537D01*
X122443164Y-42904239D01*
X122192005Y-43509098D01*
X122191433Y-44164029D01*
X122441537Y-44769325D01*
X122556132Y-44884120D01*
X120907683Y-44884120D01*
X119366655Y-43343092D01*
X119449965Y-43373516D01*
X120055700Y-43347723D01*
X120495533Y-43165539D01*
X120580591Y-42910196D01*
X119688000Y-42017605D01*
X119673858Y-42031748D01*
X119494253Y-41852143D01*
X119508395Y-41838000D01*
X119867605Y-41838000D01*
X120760196Y-42730591D01*
X121015539Y-42645533D01*
X121223516Y-42076035D01*
X121197723Y-41470300D01*
X121015539Y-41030467D01*
X120760196Y-40945409D01*
X119867605Y-41838000D01*
X119508395Y-41838000D01*
X118615804Y-40945409D01*
X118360461Y-41030467D01*
X118296142Y-41206590D01*
X118261278Y-41122212D01*
X117905660Y-40765973D01*
X117905254Y-40765804D01*
X118795409Y-40765804D01*
X119688000Y-41658395D01*
X120580591Y-40765804D01*
X120495533Y-40510461D01*
X119926035Y-40302484D01*
X119320300Y-40328277D01*
X118880467Y-40510461D01*
X118795409Y-40765804D01*
X117905254Y-40765804D01*
X117440784Y-40572939D01*
X116937424Y-40572500D01*
X116472212Y-40764722D01*
X116115973Y-41120340D01*
X115937800Y-41549427D01*
X115761278Y-41122212D01*
X115405660Y-40765973D01*
X114940784Y-40572939D01*
X114437424Y-40572500D01*
X113972212Y-40764722D01*
X113615973Y-41120340D01*
X113422939Y-41585216D01*
X113422500Y-42088576D01*
X108168821Y-42088576D01*
X108977823Y-40877820D01*
X110450664Y-39893700D01*
X112232448Y-39539281D01*
X143251000Y-39539281D01*
X143251000Y-41302250D01*
X143251000Y-41302250D01*
G37*
X143251000Y-41302250D02*
X143409750Y-41461000D01*
X144521000Y-41461000D01*
X144521000Y-41441000D01*
X144775000Y-41441000D01*
X144775000Y-41461000D01*
X145886250Y-41461000D01*
X146045000Y-41302250D01*
X146045000Y-39539281D01*
X148331000Y-39539281D01*
X148331000Y-41302250D01*
X148489750Y-41461000D01*
X149601000Y-41461000D01*
X149601000Y-41441000D01*
X149855000Y-41441000D01*
X149855000Y-41461000D01*
X150966250Y-41461000D01*
X151125000Y-41302250D01*
X151125000Y-39539281D01*
X182143552Y-39539281D01*
X183925337Y-39893700D01*
X185398180Y-40877823D01*
X186382300Y-42350664D01*
X186736719Y-44132448D01*
X186736719Y-109043552D01*
X186382300Y-110825336D01*
X185398180Y-112298177D01*
X183925337Y-113282300D01*
X182143552Y-113636719D01*
X161815000Y-113636719D01*
X161815000Y-107338000D01*
X161806315Y-107291841D01*
X161779035Y-107249447D01*
X161737410Y-107221006D01*
X161688000Y-107211000D01*
X143188000Y-107211000D01*
X143141841Y-107219685D01*
X143099447Y-107246965D01*
X143071006Y-107288590D01*
X143061000Y-107338000D01*
X143061000Y-113636719D01*
X122597994Y-113636719D01*
X122627148Y-113624643D01*
X122713554Y-113368159D01*
X121813000Y-112467605D01*
X120912446Y-113368159D01*
X120998852Y-113624643D01*
X121031859Y-113636719D01*
X114847994Y-113636719D01*
X114877148Y-113624643D01*
X114963554Y-113368159D01*
X114063000Y-112467605D01*
X113162446Y-113368159D01*
X113248852Y-113624643D01*
X113281859Y-113636719D01*
X112232448Y-113636719D01*
X110450664Y-113282300D01*
X108977823Y-112298180D01*
X108810215Y-112047336D01*
X112516542Y-112047336D01*
X112542161Y-112657460D01*
X112726357Y-113102148D01*
X112982841Y-113188554D01*
X113883395Y-112288000D01*
X114242605Y-112288000D01*
X115143159Y-113188554D01*
X115399643Y-113102148D01*
X115609458Y-112528664D01*
X115583839Y-111918540D01*
X115399643Y-111473852D01*
X115143159Y-111387446D01*
X114242605Y-112288000D01*
X113883395Y-112288000D01*
X112982841Y-111387446D01*
X112726357Y-111473852D01*
X112516542Y-112047336D01*
X108810215Y-112047336D01*
X107993700Y-110825337D01*
X107905189Y-110380362D01*
X109711463Y-110380362D01*
X109935740Y-110923153D01*
X110350662Y-111338800D01*
X110893061Y-111564024D01*
X111480362Y-111564537D01*
X112023153Y-111340260D01*
X112155803Y-111207841D01*
X113162446Y-111207841D01*
X114063000Y-112108395D01*
X114963554Y-111207841D01*
X114877148Y-110951357D01*
X114803249Y-110924320D01*
X118162588Y-110924320D01*
X118271846Y-111188745D01*
X118473979Y-111391231D01*
X118738212Y-111500950D01*
X118774831Y-111500982D01*
X118774800Y-111536532D01*
X118884058Y-111800957D01*
X119086191Y-112003443D01*
X119350424Y-112113162D01*
X119636532Y-112113412D01*
X119796448Y-112047336D01*
X120266542Y-112047336D01*
X120292161Y-112657460D01*
X120476357Y-113102148D01*
X120732841Y-113188554D01*
X121633395Y-112288000D01*
X121992605Y-112288000D01*
X122893159Y-113188554D01*
X123149643Y-113102148D01*
X123359458Y-112528664D01*
X123333839Y-111918540D01*
X123149643Y-111473852D01*
X122893159Y-111387446D01*
X121992605Y-112288000D01*
X121633395Y-112288000D01*
X120732841Y-111387446D01*
X120476357Y-111473852D01*
X120266542Y-112047336D01*
X119796448Y-112047336D01*
X119900957Y-112004154D01*
X120103443Y-111802021D01*
X120213162Y-111537788D01*
X120213412Y-111251680D01*
X120195299Y-111207841D01*
X120912446Y-111207841D01*
X121813000Y-112108395D01*
X122713554Y-111207841D01*
X122627148Y-110951357D01*
X122053664Y-110741542D01*
X121443540Y-110767161D01*
X120998852Y-110951357D01*
X120912446Y-111207841D01*
X120195299Y-111207841D01*
X120104154Y-110987255D01*
X120090033Y-110973109D01*
X120099488Y-110925576D01*
X120114769Y-110848754D01*
X120114769Y-110244327D01*
X120282911Y-110314146D01*
X120591734Y-110314415D01*
X120877153Y-110196483D01*
X121064227Y-110009735D01*
X121398461Y-110133908D01*
X122048460Y-110109856D01*
X122537264Y-109907387D01*
X122635927Y-109640532D01*
X121663000Y-108667605D01*
X121648858Y-108681748D01*
X121469253Y-108502143D01*
X121483395Y-108488000D01*
X121842605Y-108488000D01*
X122815532Y-109460927D01*
X123082387Y-109362264D01*
X123308908Y-108752539D01*
X123284856Y-108102540D01*
X123082387Y-107613736D01*
X122815532Y-107515073D01*
X121842605Y-108488000D01*
X121483395Y-108488000D01*
X120510468Y-107515073D01*
X120243613Y-107613736D01*
X120114769Y-107960544D01*
X120114769Y-107335468D01*
X120690073Y-107335468D01*
X121663000Y-108308395D01*
X122635927Y-107335468D01*
X122537264Y-107068613D01*
X122320279Y-106988000D01*
X126204348Y-106988000D01*
X126204348Y-108688000D01*
X126230586Y-108827441D01*
X126312995Y-108955509D01*
X126438738Y-109041426D01*
X126588000Y-109071652D01*
X127788000Y-109071652D01*
X127927441Y-109045414D01*
X128055509Y-108963005D01*
X128141426Y-108837262D01*
X128158188Y-108754490D01*
X128358875Y-109019933D01*
X128778624Y-109266286D01*
X128870391Y-109281462D01*
X129061000Y-109156731D01*
X129061000Y-107965000D01*
X129315000Y-107965000D01*
X129315000Y-109156731D01*
X129505609Y-109281462D01*
X129597376Y-109266286D01*
X130017125Y-109019933D01*
X130310647Y-108631701D01*
X130433256Y-108160696D01*
X130270547Y-107965000D01*
X129315000Y-107965000D01*
X129061000Y-107965000D01*
X129041000Y-107965000D01*
X129041000Y-107711000D01*
X129061000Y-107711000D01*
X129061000Y-106519269D01*
X129315000Y-106519269D01*
X129315000Y-107711000D01*
X130270547Y-107711000D01*
X130433256Y-107515304D01*
X130361908Y-107241218D01*
X134623514Y-107241218D01*
X134732772Y-107505643D01*
X134934905Y-107708129D01*
X135199138Y-107817848D01*
X135388478Y-107818013D01*
X135710518Y-108140053D01*
X135710518Y-109392571D01*
X135577462Y-109525395D01*
X135467743Y-109789628D01*
X135467493Y-110075736D01*
X135576751Y-110340161D01*
X135778884Y-110542647D01*
X136043117Y-110652366D01*
X136329225Y-110652616D01*
X136593650Y-110543358D01*
X136796136Y-110341225D01*
X136905855Y-110076992D01*
X136906105Y-109790884D01*
X136796847Y-109526459D01*
X136663080Y-109392458D01*
X136663080Y-107942776D01*
X136663081Y-107942771D01*
X136626826Y-107760507D01*
X136528757Y-107613736D01*
X136523581Y-107605989D01*
X136523578Y-107605987D01*
X136061962Y-107144370D01*
X136062126Y-106956366D01*
X135952868Y-106691941D01*
X135750735Y-106489455D01*
X135486502Y-106379736D01*
X135200394Y-106379486D01*
X134935969Y-106488744D01*
X134733483Y-106690877D01*
X134623764Y-106955110D01*
X134623514Y-107241218D01*
X130361908Y-107241218D01*
X130310647Y-107044299D01*
X130017125Y-106656067D01*
X129597376Y-106409714D01*
X129505609Y-106394538D01*
X129315000Y-106519269D01*
X129061000Y-106519269D01*
X128870391Y-106394538D01*
X128778624Y-106409714D01*
X128358875Y-106656067D01*
X128158951Y-106920500D01*
X128145414Y-106848559D01*
X128063005Y-106720491D01*
X127937262Y-106634574D01*
X127788000Y-106604348D01*
X126588000Y-106604348D01*
X126448559Y-106630586D01*
X126320491Y-106712995D01*
X126234574Y-106838738D01*
X126204348Y-106988000D01*
X122320279Y-106988000D01*
X121927539Y-106842092D01*
X121277540Y-106866144D01*
X120788736Y-107068613D01*
X120690073Y-107335468D01*
X120114769Y-107335468D01*
X120114769Y-105494585D01*
X121078928Y-104530426D01*
X122768694Y-104530426D01*
X122877952Y-104794851D01*
X123080085Y-104997337D01*
X123344318Y-105107056D01*
X123630426Y-105107306D01*
X123894851Y-104998048D01*
X124097337Y-104795915D01*
X124207056Y-104531682D01*
X124207221Y-104342342D01*
X126685282Y-101864281D01*
X127401959Y-101864281D01*
X127534783Y-101997337D01*
X127799016Y-102107056D01*
X128085124Y-102107306D01*
X128349549Y-101998048D01*
X128552035Y-101795915D01*
X128661754Y-101531682D01*
X128662004Y-101245574D01*
X128552746Y-100981149D01*
X128350613Y-100778663D01*
X128086380Y-100668944D01*
X127800272Y-100668694D01*
X127535847Y-100777952D01*
X127401846Y-100911719D01*
X126488005Y-100911719D01*
X126488000Y-100911718D01*
X126335976Y-100941959D01*
X126305735Y-100947974D01*
X126151218Y-101051218D01*
X126151216Y-101051221D01*
X123533578Y-103668858D01*
X123345574Y-103668694D01*
X123081149Y-103777952D01*
X122878663Y-103980085D01*
X122768944Y-104244318D01*
X122768694Y-104530426D01*
X121078928Y-104530426D01*
X124919035Y-100690319D01*
X125139945Y-100782049D01*
X125426053Y-100782299D01*
X125690478Y-100673041D01*
X125892964Y-100470908D01*
X126002683Y-100206675D01*
X126002933Y-99920567D01*
X125893675Y-99656142D01*
X125691542Y-99453656D01*
X125433339Y-99346441D01*
X125433456Y-99212781D01*
X125324198Y-98948356D01*
X125122065Y-98745870D01*
X124857832Y-98636151D01*
X124571724Y-98635901D01*
X124307299Y-98745159D01*
X124104813Y-98947292D01*
X123995094Y-99211525D01*
X123994899Y-99434553D01*
X119009936Y-104419517D01*
X118911850Y-104566312D01*
X118877407Y-104739469D01*
X118877407Y-108744631D01*
X118866277Y-108745885D01*
X118817835Y-108761324D01*
X118767489Y-108768432D01*
X118704080Y-108790620D01*
X118660291Y-108816451D01*
X118612790Y-108834583D01*
X118555909Y-108870324D01*
X118518964Y-108905252D01*
X118476692Y-108933498D01*
X118429190Y-108981001D01*
X118400946Y-109023271D01*
X118366016Y-109060217D01*
X118330275Y-109117098D01*
X118312143Y-109164599D01*
X118286312Y-109208388D01*
X118264124Y-109271797D01*
X118257017Y-109322139D01*
X118241577Y-109370580D01*
X118234055Y-109437336D01*
X118238328Y-109487998D01*
X118234055Y-109538664D01*
X118241577Y-109605420D01*
X118257017Y-109653862D01*
X118264124Y-109704202D01*
X118286312Y-109767611D01*
X118312143Y-109811400D01*
X118330275Y-109858901D01*
X118366016Y-109915782D01*
X118400946Y-109952728D01*
X118429190Y-109994998D01*
X118476692Y-110042501D01*
X118518964Y-110070747D01*
X118555909Y-110105675D01*
X118587360Y-110125437D01*
X118475043Y-110171846D01*
X118272557Y-110373979D01*
X118162838Y-110638212D01*
X118162588Y-110924320D01*
X114803249Y-110924320D01*
X114303664Y-110741542D01*
X113693540Y-110767161D01*
X113248852Y-110951357D01*
X113162446Y-111207841D01*
X112155803Y-111207841D01*
X112438800Y-110925338D01*
X112664024Y-110382939D01*
X112664537Y-109795638D01*
X112600449Y-109640532D01*
X113240073Y-109640532D01*
X113338736Y-109907387D01*
X113948461Y-110133908D01*
X114598460Y-110109856D01*
X114820272Y-110017979D01*
X114997698Y-110195715D01*
X115282911Y-110314146D01*
X115591734Y-110314415D01*
X115877153Y-110196483D01*
X116095715Y-109978302D01*
X116214146Y-109693089D01*
X116214415Y-109384266D01*
X116096483Y-109098847D01*
X115878302Y-108880285D01*
X115820384Y-108856235D01*
X115858908Y-108752539D01*
X115834856Y-108102540D01*
X115632387Y-107613736D01*
X115365532Y-107515073D01*
X114392605Y-108488000D01*
X114406748Y-108502143D01*
X114227143Y-108681748D01*
X114213000Y-108667605D01*
X113240073Y-109640532D01*
X112600449Y-109640532D01*
X112440260Y-109252847D01*
X112025338Y-108837200D01*
X111482939Y-108611976D01*
X110895638Y-108611463D01*
X110352847Y-108835740D01*
X109937200Y-109250662D01*
X109711976Y-109793061D01*
X109711463Y-110380362D01*
X107905189Y-110380362D01*
X107639281Y-109043552D01*
X107639281Y-108223461D01*
X112567092Y-108223461D01*
X112591144Y-108873460D01*
X112793613Y-109362264D01*
X113060468Y-109460927D01*
X114033395Y-108488000D01*
X113060468Y-107515073D01*
X112793613Y-107613736D01*
X112567092Y-108223461D01*
X107639281Y-108223461D01*
X107639281Y-107335468D01*
X113240073Y-107335468D01*
X114213000Y-108308395D01*
X115185927Y-107335468D01*
X115087264Y-107068613D01*
X114477539Y-106842092D01*
X113827540Y-106866144D01*
X113338736Y-107068613D01*
X113240073Y-107335468D01*
X107639281Y-107335468D01*
X107639281Y-85530426D01*
X119018694Y-85530426D01*
X119127952Y-85794851D01*
X119330085Y-85997337D01*
X119594318Y-86107056D01*
X119783658Y-86107221D01*
X124501216Y-90824779D01*
X124501218Y-90824782D01*
X124655735Y-90928026D01*
X124838000Y-90964282D01*
X124838005Y-90964281D01*
X133263659Y-90964281D01*
X133276113Y-90976735D01*
X133031149Y-91077952D01*
X132828663Y-91280085D01*
X132718944Y-91544318D01*
X132718694Y-91830426D01*
X132827952Y-92094851D01*
X132961719Y-92228852D01*
X132961719Y-95647261D01*
X132828663Y-95780085D01*
X132718944Y-96044318D01*
X132718856Y-96145292D01*
X130124782Y-93551218D01*
X129970265Y-93447974D01*
X129788000Y-93411718D01*
X129787995Y-93411719D01*
X128803067Y-93411719D01*
X128620802Y-93447974D01*
X128466285Y-93551218D01*
X128466283Y-93551221D01*
X128201218Y-93816285D01*
X128097974Y-93970802D01*
X128075569Y-94083435D01*
X127928663Y-94230085D01*
X127818944Y-94494318D01*
X127818694Y-94780426D01*
X127927952Y-95044851D01*
X128130085Y-95247337D01*
X128394318Y-95357056D01*
X128680426Y-95357306D01*
X128944851Y-95248048D01*
X128962854Y-95230076D01*
X128980085Y-95247337D01*
X129244318Y-95357056D01*
X129433658Y-95357221D01*
X133161719Y-99085282D01*
X133161719Y-101947261D01*
X133028663Y-102080085D01*
X132918944Y-102344318D01*
X132918694Y-102630426D01*
X133027952Y-102894851D01*
X133230085Y-103097337D01*
X133494318Y-103207056D01*
X133683084Y-103207221D01*
X132504736Y-104385568D01*
X132281149Y-104477952D01*
X132078663Y-104680085D01*
X131968944Y-104944318D01*
X131968694Y-105230426D01*
X132077952Y-105494851D01*
X132280085Y-105697337D01*
X132505059Y-105790754D01*
X132588049Y-105873744D01*
X132588051Y-105873747D01*
X132666941Y-105926459D01*
X132791231Y-106009507D01*
X133030899Y-106057180D01*
X140398727Y-106057180D01*
X140398499Y-106318635D01*
X140507757Y-106583060D01*
X140709890Y-106785546D01*
X140974123Y-106895265D01*
X141163463Y-106895430D01*
X141297623Y-107029590D01*
X141297625Y-107029593D01*
X141400870Y-107098578D01*
X141452143Y-107132838D01*
X141634407Y-107169093D01*
X141634412Y-107169092D01*
X157828494Y-107169092D01*
X157828499Y-107169093D01*
X158010764Y-107132837D01*
X158131085Y-107052442D01*
X158330426Y-107052616D01*
X158594851Y-106943358D01*
X158797337Y-106741225D01*
X158907056Y-106476992D01*
X158907286Y-106214281D01*
X159320891Y-106214281D01*
X159544318Y-106307056D01*
X159830426Y-106307306D01*
X160094851Y-106198048D01*
X160297337Y-105995915D01*
X160407056Y-105731682D01*
X160407306Y-105445574D01*
X160314672Y-105221382D01*
X162968702Y-105221382D01*
X162968694Y-105230426D01*
X163077952Y-105494851D01*
X163280085Y-105697337D01*
X163544318Y-105807056D01*
X163830426Y-105807306D01*
X164094851Y-105698048D01*
X164297337Y-105495915D01*
X164299116Y-105491631D01*
X168111719Y-109304234D01*
X168111719Y-109497261D01*
X167978663Y-109630085D01*
X167868944Y-109894318D01*
X167868694Y-110180426D01*
X167977952Y-110444851D01*
X168180085Y-110647337D01*
X168444318Y-110757056D01*
X168730426Y-110757306D01*
X168994851Y-110648048D01*
X169197337Y-110445915D01*
X169224556Y-110380362D01*
X181711463Y-110380362D01*
X181935740Y-110923153D01*
X182350662Y-111338800D01*
X182893061Y-111564024D01*
X183480362Y-111564537D01*
X184023153Y-111340260D01*
X184438800Y-110925338D01*
X184664024Y-110382939D01*
X184664537Y-109795638D01*
X184440260Y-109252847D01*
X184025338Y-108837200D01*
X183482939Y-108611976D01*
X182895638Y-108611463D01*
X182352847Y-108835740D01*
X181937200Y-109250662D01*
X181711976Y-109793061D01*
X181711463Y-110380362D01*
X169224556Y-110380362D01*
X169307056Y-110181682D01*
X169307306Y-109895574D01*
X169198048Y-109631149D01*
X169064281Y-109497148D01*
X169064281Y-109106957D01*
X169064282Y-109106952D01*
X169030805Y-108938658D01*
X169028026Y-108924687D01*
X168924782Y-108770170D01*
X168924779Y-108770168D01*
X164053419Y-103898807D01*
X163898902Y-103795563D01*
X163716637Y-103759307D01*
X163716632Y-103759308D01*
X155182805Y-103759308D01*
X155087418Y-103695573D01*
X154905153Y-103659317D01*
X154905148Y-103659318D01*
X149334497Y-103659318D01*
X145768979Y-100093799D01*
X145768979Y-93107078D01*
X145933658Y-93107221D01*
X146232667Y-93406230D01*
X146232667Y-94851389D01*
X146232666Y-94851394D01*
X146268922Y-95033659D01*
X146372166Y-95188176D01*
X146911719Y-95727728D01*
X146911719Y-98645549D01*
X146911718Y-98645554D01*
X146947974Y-98827819D01*
X147051218Y-98982336D01*
X148111719Y-100042836D01*
X148111719Y-101487995D01*
X148111718Y-101488000D01*
X148147974Y-101670265D01*
X148251218Y-101824782D01*
X149898815Y-103472378D01*
X149898817Y-103472381D01*
X150053334Y-103575625D01*
X150083575Y-103581640D01*
X150235599Y-103611881D01*
X150235604Y-103611880D01*
X158123467Y-103611880D01*
X158147631Y-103628026D01*
X158329896Y-103664282D01*
X158329901Y-103664281D01*
X177287995Y-103664281D01*
X177288000Y-103664282D01*
X177470265Y-103628026D01*
X177624782Y-103524782D01*
X179892421Y-101257142D01*
X180080426Y-101257306D01*
X180344851Y-101148048D01*
X180547337Y-100945915D01*
X180657056Y-100681682D01*
X180657306Y-100395574D01*
X180548048Y-100131149D01*
X180345915Y-99928663D01*
X180081682Y-99818944D01*
X179795574Y-99818694D01*
X179531149Y-99927952D01*
X179328663Y-100130085D01*
X179218944Y-100394318D01*
X179218779Y-100583658D01*
X177090717Y-102711719D01*
X158483924Y-102711719D01*
X158459760Y-102695573D01*
X158277495Y-102659317D01*
X158277490Y-102659318D01*
X150432881Y-102659318D01*
X149064281Y-101290717D01*
X149064281Y-99845554D01*
X149028026Y-99663289D01*
X148924782Y-99508772D01*
X148924779Y-99508770D01*
X147864281Y-98448271D01*
X147864281Y-96146750D01*
X159553000Y-96146750D01*
X159553000Y-96214310D01*
X159649673Y-96447699D01*
X159804348Y-96602373D01*
X159804348Y-96888000D01*
X159830586Y-97027441D01*
X159869403Y-97087765D01*
X159834574Y-97138738D01*
X159804348Y-97288000D01*
X159804348Y-97688000D01*
X159830586Y-97827441D01*
X159869403Y-97887765D01*
X159834574Y-97938738D01*
X159804348Y-98088000D01*
X159804348Y-98488000D01*
X159830586Y-98627441D01*
X159869403Y-98687765D01*
X159834574Y-98738738D01*
X159804348Y-98888000D01*
X159804348Y-99288000D01*
X159830586Y-99427441D01*
X159912995Y-99555509D01*
X160038738Y-99641426D01*
X160188000Y-99671652D01*
X164188000Y-99671652D01*
X164327441Y-99645414D01*
X164453526Y-99564281D01*
X166990717Y-99564281D01*
X168718858Y-101292421D01*
X168718694Y-101480426D01*
X168827952Y-101744851D01*
X169030085Y-101947337D01*
X169294318Y-102057056D01*
X169580426Y-102057306D01*
X169844851Y-101948048D01*
X170047337Y-101745915D01*
X170157056Y-101481682D01*
X170157280Y-101225551D01*
X170344851Y-101148048D01*
X170547337Y-100945915D01*
X170657056Y-100681682D01*
X170657306Y-100395574D01*
X170548048Y-100131149D01*
X170400391Y-99983234D01*
X170378026Y-99870802D01*
X170361156Y-99845554D01*
X170274782Y-99716285D01*
X170274779Y-99716283D01*
X169814281Y-99255784D01*
X169814281Y-98188000D01*
X169778026Y-98005735D01*
X169674782Y-97851218D01*
X169674779Y-97851216D01*
X168174782Y-96351218D01*
X168020265Y-96247974D01*
X167838000Y-96211718D01*
X167837995Y-96211719D01*
X164823000Y-96211719D01*
X164823000Y-96146750D01*
X164664250Y-95988000D01*
X162315000Y-95988000D01*
X162315000Y-96035000D01*
X162061000Y-96035000D01*
X162061000Y-95988000D01*
X159711750Y-95988000D01*
X159553000Y-96146750D01*
X147864281Y-96146750D01*
X147864281Y-95530451D01*
X147864282Y-95530446D01*
X147828027Y-95348182D01*
X147761120Y-95248048D01*
X147724782Y-95193664D01*
X147724779Y-95193662D01*
X147185229Y-94654111D01*
X147185229Y-93208953D01*
X147185230Y-93208948D01*
X147148974Y-93026684D01*
X147148974Y-93026683D01*
X147045730Y-92872166D01*
X147045727Y-92872164D01*
X146607142Y-92433578D01*
X146607306Y-92245574D01*
X146498048Y-91981149D01*
X146295915Y-91778663D01*
X146278300Y-91771348D01*
X146357056Y-91581682D01*
X146357306Y-91295574D01*
X146248048Y-91031149D01*
X146045915Y-90828663D01*
X145781682Y-90718944D01*
X145495574Y-90718694D01*
X145231149Y-90827952D01*
X145028663Y-91030085D01*
X144918944Y-91294318D01*
X144918762Y-91502125D01*
X144852672Y-91601037D01*
X144816416Y-91783302D01*
X144816417Y-91783307D01*
X144816417Y-100291077D01*
X144816416Y-100291082D01*
X144852672Y-100473347D01*
X144955916Y-100627864D01*
X148412687Y-104084634D01*
X142255682Y-104084634D01*
X142122858Y-103951578D01*
X142084625Y-103935702D01*
X142107056Y-103881682D01*
X142107306Y-103595574D01*
X141998048Y-103331149D01*
X141795915Y-103128663D01*
X141531682Y-103018944D01*
X141342342Y-103018779D01*
X137964281Y-99640717D01*
X137964281Y-94515063D01*
X137964282Y-94515058D01*
X137928026Y-94332793D01*
X137902318Y-94294318D01*
X137824782Y-94178276D01*
X137824779Y-94178274D01*
X133797724Y-90151218D01*
X133643207Y-90047974D01*
X133460942Y-90011718D01*
X133460937Y-90011719D01*
X125035282Y-90011719D01*
X120457142Y-85433578D01*
X120457306Y-85245574D01*
X120348048Y-84981149D01*
X120145915Y-84778663D01*
X119881682Y-84668944D01*
X119595574Y-84668694D01*
X119331149Y-84777952D01*
X119128663Y-84980085D01*
X119018944Y-85244318D01*
X119018694Y-85530426D01*
X107639281Y-85530426D01*
X107639281Y-79088000D01*
X109804348Y-79088000D01*
X109804348Y-81088000D01*
X109830586Y-81227441D01*
X109912995Y-81355509D01*
X110038738Y-81441426D01*
X110188000Y-81471652D01*
X112188000Y-81471652D01*
X112327441Y-81445414D01*
X112455509Y-81363005D01*
X112541426Y-81237262D01*
X112571652Y-81088000D01*
X112571652Y-79088000D01*
X112545414Y-78948559D01*
X112463005Y-78820491D01*
X112337262Y-78734574D01*
X112188000Y-78704348D01*
X110188000Y-78704348D01*
X110048559Y-78730586D01*
X109920491Y-78812995D01*
X109834574Y-78938738D01*
X109804348Y-79088000D01*
X107639281Y-79088000D01*
X107639281Y-77230426D01*
X119968694Y-77230426D01*
X120077952Y-77494851D01*
X120280085Y-77697337D01*
X120544318Y-77807056D01*
X120733658Y-77807221D01*
X120885894Y-77959457D01*
X120885894Y-77977429D01*
X120885893Y-77977434D01*
X120922149Y-78159699D01*
X121025393Y-78314216D01*
X121400022Y-78688845D01*
X121231682Y-78618944D01*
X120945574Y-78618694D01*
X120681149Y-78727952D01*
X120478663Y-78930085D01*
X120368944Y-79194318D01*
X120368694Y-79480426D01*
X120477952Y-79744851D01*
X120680085Y-79947337D01*
X120944318Y-80057056D01*
X121133657Y-80057221D01*
X125101218Y-84024782D01*
X125255735Y-84128026D01*
X125438000Y-84164282D01*
X125438005Y-84164281D01*
X128997261Y-84164281D01*
X129130085Y-84297337D01*
X129394318Y-84407056D01*
X129680426Y-84407306D01*
X129944851Y-84298048D01*
X130147337Y-84095915D01*
X130257056Y-83831682D01*
X130257306Y-83545574D01*
X130182397Y-83364281D01*
X132497348Y-83364281D01*
X132680085Y-83547337D01*
X132944318Y-83657056D01*
X133230426Y-83657306D01*
X133494851Y-83548048D01*
X133697337Y-83345915D01*
X133807056Y-83081682D01*
X133807306Y-82795574D01*
X133698048Y-82531149D01*
X133495915Y-82328663D01*
X133231682Y-82218944D01*
X132945574Y-82218694D01*
X132681149Y-82327952D01*
X132597236Y-82411719D01*
X126470023Y-82411719D01*
X121838456Y-77780151D01*
X121838456Y-77762175D01*
X121802201Y-77579910D01*
X121698957Y-77425393D01*
X121698954Y-77425391D01*
X121407142Y-77133578D01*
X121407306Y-76945574D01*
X121298048Y-76681149D01*
X121095915Y-76478663D01*
X120831682Y-76368944D01*
X120545574Y-76368694D01*
X120281149Y-76477952D01*
X120078663Y-76680085D01*
X119968944Y-76944318D01*
X119968694Y-77230426D01*
X107639281Y-77230426D01*
X107639281Y-72760558D01*
X109811481Y-72760558D01*
X110020565Y-73266582D01*
X110407382Y-73654074D01*
X110913040Y-73864042D01*
X111460558Y-73864519D01*
X111966582Y-73655435D01*
X112354074Y-73268618D01*
X112564042Y-72762960D01*
X112564519Y-72215442D01*
X112355435Y-71709418D01*
X111968618Y-71321926D01*
X111462960Y-71111958D01*
X110915442Y-71111481D01*
X110409418Y-71320565D01*
X110021926Y-71707382D01*
X109811958Y-72213040D01*
X109811481Y-72760558D01*
X107639281Y-72760558D01*
X107639281Y-65238000D01*
X122454348Y-65238000D01*
X122454348Y-66938000D01*
X122480586Y-67077441D01*
X122562995Y-67205509D01*
X122688738Y-67291426D01*
X122838000Y-67321652D01*
X124538000Y-67321652D01*
X124677441Y-67295414D01*
X124805509Y-67213005D01*
X124891426Y-67087262D01*
X124921652Y-66938000D01*
X124921652Y-66063976D01*
X125001719Y-66063976D01*
X125001719Y-66112024D01*
X125095064Y-66581301D01*
X125360888Y-66979136D01*
X125758723Y-67244960D01*
X126228000Y-67338305D01*
X126697277Y-67244960D01*
X127095112Y-66979136D01*
X127360936Y-66581301D01*
X127454281Y-66112024D01*
X127454281Y-66063976D01*
X127360936Y-65594699D01*
X127095112Y-65196864D01*
X126697277Y-64931040D01*
X126228000Y-64837695D01*
X125758723Y-64931040D01*
X125360888Y-65196864D01*
X125095064Y-65594699D01*
X125001719Y-66063976D01*
X124921652Y-66063976D01*
X124921652Y-65238000D01*
X124895414Y-65098559D01*
X124813005Y-64970491D01*
X124687262Y-64884574D01*
X124538000Y-64854348D01*
X122838000Y-64854348D01*
X122698559Y-64880586D01*
X122570491Y-64962995D01*
X122484574Y-65088738D01*
X122454348Y-65238000D01*
X107639281Y-65238000D01*
X107639281Y-59664029D01*
X108891433Y-59664029D01*
X109141537Y-60269325D01*
X109604239Y-60732836D01*
X110209098Y-60983995D01*
X110864029Y-60984567D01*
X111469325Y-60734463D01*
X111932836Y-60271761D01*
X112183995Y-59666902D01*
X112183997Y-59664029D01*
X122191433Y-59664029D01*
X122441537Y-60269325D01*
X122904239Y-60732836D01*
X123509098Y-60983995D01*
X124164029Y-60984567D01*
X124769325Y-60734463D01*
X125232836Y-60271761D01*
X125483995Y-59666902D01*
X125484567Y-59011971D01*
X125234463Y-58406675D01*
X124771761Y-57943164D01*
X124166902Y-57692005D01*
X123511971Y-57691433D01*
X122906675Y-57941537D01*
X122443164Y-58404239D01*
X122192005Y-59009098D01*
X122191433Y-59664029D01*
X112183997Y-59664029D01*
X112184567Y-59011971D01*
X111934463Y-58406675D01*
X111471761Y-57943164D01*
X110866902Y-57692005D01*
X110211971Y-57691433D01*
X109606675Y-57941537D01*
X109143164Y-58404239D01*
X108892005Y-59009098D01*
X108891433Y-59664029D01*
X107639281Y-59664029D01*
X107639281Y-44164029D01*
X108891433Y-44164029D01*
X109141537Y-44769325D01*
X109604239Y-45232836D01*
X110209098Y-45483995D01*
X110864029Y-45484567D01*
X111469325Y-45234463D01*
X111932836Y-44771761D01*
X112183995Y-44166902D01*
X112184567Y-43511971D01*
X111934463Y-42906675D01*
X111471761Y-42443164D01*
X110866902Y-42192005D01*
X110211971Y-42191433D01*
X109606675Y-42441537D01*
X109143164Y-42904239D01*
X108892005Y-43509098D01*
X108891433Y-44164029D01*
X107639281Y-44164029D01*
X107639281Y-44132448D01*
X107993700Y-42350663D01*
X108168821Y-42088576D01*
X113422500Y-42088576D01*
X113614722Y-42553788D01*
X113970340Y-42910027D01*
X114435216Y-43103061D01*
X114938576Y-43103500D01*
X115030020Y-43065716D01*
X125710079Y-53745774D01*
X125672939Y-53835216D01*
X125672500Y-54338576D01*
X125864722Y-54803788D01*
X126220340Y-55160027D01*
X126685216Y-55353061D01*
X127188576Y-55353500D01*
X127280020Y-55315716D01*
X130911719Y-58947414D01*
X130911719Y-62720891D01*
X130818944Y-62944318D01*
X130818694Y-63230426D01*
X130911719Y-63455564D01*
X130911719Y-74220891D01*
X130818944Y-74444318D01*
X130818694Y-74730426D01*
X130927952Y-74994851D01*
X131130085Y-75197337D01*
X131394318Y-75307056D01*
X131680426Y-75307306D01*
X131944851Y-75198048D01*
X132147337Y-74995915D01*
X132257056Y-74731682D01*
X132257306Y-74445574D01*
X132164281Y-74220436D01*
X132164281Y-63455109D01*
X132257056Y-63231682D01*
X132257306Y-62945574D01*
X132164281Y-62720436D01*
X132164281Y-58688000D01*
X132149108Y-58611719D01*
X132116608Y-58448332D01*
X132054934Y-58356030D01*
X131980848Y-58245152D01*
X131980845Y-58245150D01*
X128165921Y-54430226D01*
X128203061Y-54340784D01*
X128203500Y-53837424D01*
X128011278Y-53372212D01*
X127655660Y-53015973D01*
X127202339Y-52827737D01*
X127430128Y-52733616D01*
X133726104Y-59029591D01*
X133726106Y-59029594D01*
X133877643Y-59130847D01*
X133880623Y-59132838D01*
X134062888Y-59169094D01*
X134062893Y-59169093D01*
X136095529Y-59169093D01*
X140767910Y-63841474D01*
X140518723Y-63891040D01*
X140120888Y-64156864D01*
X139855064Y-64554699D01*
X139761719Y-65023976D01*
X139761719Y-65072024D01*
X139855064Y-65541301D01*
X140120888Y-65939136D01*
X140361719Y-66100054D01*
X140361719Y-66354348D01*
X140138000Y-66354348D01*
X139998559Y-66380586D01*
X139870491Y-66462995D01*
X139784574Y-66588738D01*
X139754348Y-66738000D01*
X139754348Y-67935956D01*
X139745152Y-67945152D01*
X139609392Y-68148333D01*
X139561718Y-68388000D01*
X139561719Y-68388005D01*
X139561719Y-69820891D01*
X139468944Y-70044318D01*
X139468694Y-70330426D01*
X139577952Y-70594851D01*
X139780085Y-70797337D01*
X140044318Y-70907056D01*
X140330426Y-70907306D01*
X140594851Y-70798048D01*
X140797337Y-70595915D01*
X140850045Y-70468980D01*
X143468922Y-70468980D01*
X143468694Y-70730426D01*
X143577952Y-70994851D01*
X143780085Y-71197337D01*
X144044318Y-71307056D01*
X144330426Y-71307306D01*
X144594851Y-71198048D01*
X144728852Y-71064281D01*
X151657108Y-71064281D01*
X148446520Y-74274868D01*
X148378707Y-74376359D01*
X148298048Y-74181149D01*
X148095915Y-73978663D01*
X147831682Y-73868944D01*
X147545574Y-73868694D01*
X147281149Y-73977952D01*
X147078663Y-74180085D01*
X146968944Y-74444318D01*
X146968779Y-74633658D01*
X145598352Y-76004084D01*
X145573550Y-75944058D01*
X145253626Y-75623575D01*
X144835411Y-75449917D01*
X144382575Y-75449522D01*
X143964058Y-75622450D01*
X143643575Y-75942374D01*
X143469917Y-76360589D01*
X143469522Y-76813425D01*
X143642450Y-77231942D01*
X143962374Y-77552425D01*
X144380589Y-77726083D01*
X144833425Y-77726478D01*
X145251942Y-77553550D01*
X145572425Y-77233626D01*
X145642743Y-77064281D01*
X145687995Y-77064281D01*
X145688000Y-77064282D01*
X145870265Y-77028026D01*
X146024782Y-76924782D01*
X146046543Y-76903021D01*
X146079544Y-76982892D01*
X145796817Y-77265619D01*
X145693573Y-77420136D01*
X145657317Y-77602401D01*
X145657318Y-77602406D01*
X145657318Y-78686792D01*
X145573550Y-78484058D01*
X145253626Y-78163575D01*
X144835411Y-77989917D01*
X144382575Y-77989522D01*
X144363216Y-77997521D01*
X143198755Y-76833059D01*
X143206083Y-76815411D01*
X143206478Y-76362575D01*
X143033550Y-75944058D01*
X142713626Y-75623575D01*
X142295411Y-75449917D01*
X141842575Y-75449522D01*
X141424058Y-75622450D01*
X141103575Y-75942374D01*
X141095542Y-75961719D01*
X138717414Y-75961719D01*
X137160432Y-74404736D01*
X137068048Y-74181149D01*
X136865915Y-73978663D01*
X136601682Y-73868944D01*
X136315574Y-73868694D01*
X136051149Y-73977952D01*
X135848663Y-74180085D01*
X135738944Y-74444318D01*
X135738694Y-74730426D01*
X135847952Y-74994851D01*
X136050085Y-75197337D01*
X136275058Y-75290754D01*
X138015150Y-77030845D01*
X138015152Y-77030848D01*
X138100687Y-77088000D01*
X138218332Y-77166608D01*
X138458000Y-77214282D01*
X138458005Y-77214281D01*
X141095153Y-77214281D01*
X141102450Y-77231942D01*
X141422374Y-77552425D01*
X141840589Y-77726083D01*
X142293425Y-77726478D01*
X142312783Y-77718479D01*
X142339527Y-77745223D01*
X142195000Y-77889750D01*
X142195000Y-79001000D01*
X143306250Y-79001000D01*
X143450777Y-78856473D01*
X143477245Y-78882941D01*
X143469917Y-78900589D01*
X143469522Y-79353425D01*
X143642450Y-79771942D01*
X143962374Y-80092425D01*
X144380589Y-80266083D01*
X144833425Y-80266478D01*
X145251942Y-80093550D01*
X145572425Y-79773626D01*
X145657318Y-79569181D01*
X145657318Y-79614908D01*
X145657317Y-79614913D01*
X145693573Y-79797178D01*
X145796817Y-79951695D01*
X146324303Y-80479180D01*
X146324305Y-80479183D01*
X146478822Y-80582427D01*
X146509063Y-80588442D01*
X146661087Y-80618683D01*
X146661092Y-80618682D01*
X147634908Y-80618682D01*
X147634913Y-80618683D01*
X147817178Y-80582427D01*
X147971695Y-80479183D01*
X148709727Y-79741150D01*
X148722450Y-79771942D01*
X149042374Y-80092425D01*
X149460589Y-80266083D01*
X149913425Y-80266478D01*
X150331942Y-80093550D01*
X150652425Y-79773626D01*
X150826083Y-79355411D01*
X150826478Y-78902575D01*
X150756456Y-78733108D01*
X154336768Y-75152795D01*
X155666925Y-75152795D01*
X155666930Y-75152796D01*
X155849195Y-75116540D01*
X156003712Y-75013296D01*
X156692352Y-74324655D01*
X156671777Y-74374206D01*
X156671527Y-74660314D01*
X156780785Y-74924739D01*
X156914552Y-75058740D01*
X156914552Y-76721970D01*
X154204668Y-79431853D01*
X154204666Y-79431856D01*
X151924802Y-81711719D01*
X135588005Y-81711719D01*
X135588000Y-81711718D01*
X135435976Y-81741959D01*
X135405735Y-81747974D01*
X135251218Y-81851218D01*
X135251216Y-81851221D01*
X135061870Y-82040567D01*
X135061870Y-79413750D01*
X140671000Y-79413750D01*
X140671000Y-80016309D01*
X140767673Y-80249698D01*
X140946301Y-80428327D01*
X141179690Y-80525000D01*
X141782250Y-80525000D01*
X141941000Y-80366250D01*
X141941000Y-79255000D01*
X142195000Y-79255000D01*
X142195000Y-80366250D01*
X142353750Y-80525000D01*
X142956310Y-80525000D01*
X143189699Y-80428327D01*
X143368327Y-80249698D01*
X143465000Y-80016309D01*
X143465000Y-79413750D01*
X143306250Y-79255000D01*
X142195000Y-79255000D01*
X141941000Y-79255000D01*
X140829750Y-79255000D01*
X140671000Y-79413750D01*
X135061870Y-79413750D01*
X135061870Y-78239691D01*
X140671000Y-78239691D01*
X140671000Y-78842250D01*
X140829750Y-79001000D01*
X141941000Y-79001000D01*
X141941000Y-77889750D01*
X141782250Y-77731000D01*
X141179690Y-77731000D01*
X140946301Y-77827673D01*
X140767673Y-78006302D01*
X140671000Y-78239691D01*
X135061870Y-78239691D01*
X135061870Y-65887694D01*
X137642421Y-63307142D01*
X137830426Y-63307306D01*
X138094851Y-63198048D01*
X138297337Y-62995915D01*
X138407056Y-62731682D01*
X138407306Y-62445574D01*
X138298048Y-62181149D01*
X138095915Y-61978663D01*
X137831682Y-61868944D01*
X137545574Y-61868694D01*
X137281149Y-61977952D01*
X137078663Y-62180085D01*
X136968944Y-62444318D01*
X136968779Y-62633658D01*
X134248807Y-65353629D01*
X134145563Y-65508146D01*
X134109307Y-65690411D01*
X134109308Y-65690416D01*
X134109308Y-88485584D01*
X134109307Y-88485589D01*
X134145563Y-88667854D01*
X134248807Y-88822371D01*
X139468858Y-94042421D01*
X139468694Y-94230426D01*
X139577952Y-94494851D01*
X139780085Y-94697337D01*
X140044318Y-94807056D01*
X140330426Y-94807306D01*
X140594851Y-94698048D01*
X140797337Y-94495915D01*
X140907056Y-94231682D01*
X140907306Y-93945574D01*
X140798048Y-93681149D01*
X140595915Y-93478663D01*
X140331682Y-93368944D01*
X140142342Y-93368779D01*
X139444945Y-92671382D01*
X140518702Y-92671382D01*
X140518694Y-92680426D01*
X140627952Y-92944851D01*
X140830085Y-93147337D01*
X141094318Y-93257056D01*
X141380426Y-93257306D01*
X141644851Y-93148048D01*
X141847337Y-92945915D01*
X141957056Y-92681682D01*
X141957306Y-92395574D01*
X141848048Y-92131149D01*
X141645915Y-91928663D01*
X141381682Y-91818944D01*
X141172680Y-91818761D01*
X141077366Y-91755075D01*
X140895101Y-91718819D01*
X140895096Y-91718820D01*
X139242383Y-91718820D01*
X135414281Y-87890717D01*
X135414281Y-84411443D01*
X135608022Y-84491891D01*
X135894130Y-84492141D01*
X136158555Y-84382883D01*
X136292556Y-84249116D01*
X139675552Y-84249116D01*
X148946526Y-93520089D01*
X148946528Y-93520092D01*
X149083657Y-93611718D01*
X149101045Y-93623336D01*
X149283310Y-93659591D01*
X153109901Y-93659591D01*
X153242725Y-93792647D01*
X153506958Y-93902366D01*
X153793066Y-93902616D01*
X154057491Y-93793358D01*
X154259977Y-93591225D01*
X154262232Y-93585795D01*
X155218858Y-94542421D01*
X155218694Y-94730426D01*
X155327952Y-94994851D01*
X155530085Y-95197337D01*
X155794318Y-95307056D01*
X156080426Y-95307306D01*
X156344851Y-95198048D01*
X156547337Y-94995915D01*
X156657056Y-94731682D01*
X156657306Y-94445574D01*
X156548048Y-94181149D01*
X156345915Y-93978663D01*
X156081682Y-93868944D01*
X155892342Y-93868779D01*
X155770314Y-93746750D01*
X159553000Y-93746750D01*
X159553000Y-93814310D01*
X159583523Y-93888000D01*
X159553000Y-93961690D01*
X159553000Y-94029250D01*
X159711750Y-94188000D01*
X159789975Y-94188000D01*
X159828302Y-94226327D01*
X159977194Y-94288000D01*
X159828302Y-94349673D01*
X159789975Y-94388000D01*
X159711750Y-94388000D01*
X159553000Y-94546750D01*
X159553000Y-94614310D01*
X159583523Y-94688000D01*
X159553000Y-94761690D01*
X159553000Y-94829250D01*
X159711750Y-94988000D01*
X159789975Y-94988000D01*
X159828302Y-95026327D01*
X159977194Y-95088000D01*
X159828302Y-95149673D01*
X159789975Y-95188000D01*
X159711750Y-95188000D01*
X159553000Y-95346750D01*
X159553000Y-95414310D01*
X159583523Y-95488000D01*
X159553000Y-95561690D01*
X159553000Y-95629250D01*
X159711750Y-95788000D01*
X159789975Y-95788000D01*
X159828302Y-95826327D01*
X160061691Y-95923000D01*
X161902250Y-95923000D01*
X162037250Y-95788000D01*
X162061000Y-95788000D01*
X162061000Y-95188000D01*
X162037250Y-95188000D01*
X161937250Y-95088000D01*
X162037250Y-94988000D01*
X162061000Y-94988000D01*
X162061000Y-94388000D01*
X162037250Y-94388000D01*
X161937250Y-94288000D01*
X162037250Y-94188000D01*
X162061000Y-94188000D01*
X162061000Y-93588000D01*
X162037250Y-93588000D01*
X161902250Y-93453000D01*
X160061691Y-93453000D01*
X159828302Y-93549673D01*
X159789975Y-93588000D01*
X159711750Y-93588000D01*
X159553000Y-93746750D01*
X155770314Y-93746750D01*
X154479799Y-92456235D01*
X154547337Y-92388814D01*
X154657056Y-92124581D01*
X154657221Y-91935241D01*
X155028181Y-91564281D01*
X157219098Y-91564281D01*
X157218870Y-91825736D01*
X157328128Y-92090161D01*
X157530261Y-92292647D01*
X157794494Y-92402366D01*
X158080602Y-92402616D01*
X158345027Y-92293358D01*
X158479028Y-92159591D01*
X158992685Y-92159591D01*
X158992690Y-92159592D01*
X159174955Y-92123336D01*
X159329472Y-92020092D01*
X159675769Y-91673795D01*
X159804348Y-91802373D01*
X159804348Y-92088000D01*
X159830586Y-92227441D01*
X159869403Y-92287765D01*
X159834574Y-92338738D01*
X159804348Y-92488000D01*
X159804348Y-92773627D01*
X159649673Y-92928301D01*
X159553000Y-93161690D01*
X159553000Y-93229250D01*
X159711750Y-93388000D01*
X162061000Y-93388000D01*
X162061000Y-93341000D01*
X162315000Y-93341000D01*
X162315000Y-93388000D01*
X162335000Y-93388000D01*
X162335000Y-93588000D01*
X162315000Y-93588000D01*
X162315000Y-94188000D01*
X162338750Y-94188000D01*
X162438750Y-94288000D01*
X162338750Y-94388000D01*
X162315000Y-94388000D01*
X162315000Y-94988000D01*
X162338750Y-94988000D01*
X162438750Y-95088000D01*
X162338750Y-95188000D01*
X162315000Y-95188000D01*
X162315000Y-95788000D01*
X162338750Y-95788000D01*
X162473750Y-95923000D01*
X164314309Y-95923000D01*
X164547698Y-95826327D01*
X164586025Y-95788000D01*
X164664250Y-95788000D01*
X164823000Y-95629250D01*
X164823000Y-95561690D01*
X164792477Y-95488000D01*
X164823000Y-95414310D01*
X164823000Y-95346750D01*
X164664250Y-95188000D01*
X164586025Y-95188000D01*
X164547698Y-95149673D01*
X164398806Y-95088000D01*
X164547698Y-95026327D01*
X164586025Y-94988000D01*
X164664250Y-94988000D01*
X164823000Y-94829250D01*
X164823000Y-94761690D01*
X164792477Y-94688000D01*
X164823000Y-94614310D01*
X164823000Y-94546750D01*
X164664250Y-94388000D01*
X164586025Y-94388000D01*
X164547698Y-94349673D01*
X164398806Y-94288000D01*
X164547698Y-94226327D01*
X164586025Y-94188000D01*
X164620764Y-94188000D01*
X164630085Y-94197337D01*
X164894318Y-94307056D01*
X165180426Y-94307306D01*
X165444851Y-94198048D01*
X165647337Y-93995915D01*
X165757056Y-93731682D01*
X165757306Y-93445574D01*
X165648048Y-93181149D01*
X165445915Y-92978663D01*
X165181682Y-92868944D01*
X164895574Y-92868694D01*
X164857846Y-92884283D01*
X164571652Y-92598088D01*
X164571652Y-92564597D01*
X164794318Y-92657056D01*
X165080426Y-92657306D01*
X165344851Y-92548048D01*
X165547337Y-92345915D01*
X165657056Y-92081682D01*
X165657306Y-91795574D01*
X165548048Y-91531149D01*
X165345915Y-91328663D01*
X165081682Y-91218944D01*
X164795574Y-91218694D01*
X164724366Y-91248116D01*
X164664250Y-91188000D01*
X162315000Y-91188000D01*
X162315000Y-91235000D01*
X162061000Y-91235000D01*
X162061000Y-91188000D01*
X162041000Y-91188000D01*
X162041000Y-90988000D01*
X162061000Y-90988000D01*
X162061000Y-90941000D01*
X162315000Y-90941000D01*
X162315000Y-90988000D01*
X164664250Y-90988000D01*
X164823000Y-90829250D01*
X164823000Y-90764281D01*
X173152765Y-90764281D01*
X173186056Y-90844851D01*
X173388189Y-91047337D01*
X173652422Y-91157056D01*
X173841762Y-91157221D01*
X178472910Y-95788369D01*
X178472746Y-95976374D01*
X178582004Y-96240799D01*
X178784137Y-96443285D01*
X179048370Y-96553004D01*
X179334478Y-96553254D01*
X179598903Y-96443996D01*
X179784830Y-96258393D01*
X181811719Y-98285282D01*
X181811719Y-100047261D01*
X181678663Y-100180085D01*
X181568944Y-100444318D01*
X181568694Y-100730426D01*
X181677952Y-100994851D01*
X181880085Y-101197337D01*
X182144318Y-101307056D01*
X182430426Y-101307306D01*
X182694851Y-101198048D01*
X182897337Y-100995915D01*
X183007056Y-100731682D01*
X183007306Y-100445574D01*
X182898048Y-100181149D01*
X182764281Y-100047148D01*
X182764281Y-98088005D01*
X182764282Y-98088000D01*
X182728026Y-97905736D01*
X182728026Y-97905735D01*
X182624782Y-97751218D01*
X182624779Y-97751216D01*
X180783145Y-95909582D01*
X180836018Y-95909582D01*
X184361719Y-99435282D01*
X184361719Y-100047261D01*
X184228663Y-100180085D01*
X184118944Y-100444318D01*
X184118694Y-100730426D01*
X184227952Y-100994851D01*
X184430085Y-101197337D01*
X184694318Y-101307056D01*
X184980426Y-101307306D01*
X185244851Y-101198048D01*
X185447337Y-100995915D01*
X185557056Y-100731682D01*
X185557306Y-100445574D01*
X185448048Y-100181149D01*
X185314281Y-100047148D01*
X185314281Y-99238005D01*
X185314282Y-99238000D01*
X185278026Y-99055736D01*
X185278026Y-99055735D01*
X185174782Y-98901218D01*
X185174779Y-98901216D01*
X182253990Y-95980426D01*
X182468694Y-95980426D01*
X182577952Y-96244851D01*
X182780085Y-96447337D01*
X183044318Y-96557056D01*
X183330426Y-96557306D01*
X183594851Y-96448048D01*
X183797337Y-96245915D01*
X183907056Y-95981682D01*
X183907221Y-95792342D01*
X184724779Y-94974784D01*
X184724782Y-94974782D01*
X184828026Y-94820265D01*
X184864281Y-94638000D01*
X184864281Y-90538005D01*
X184864282Y-90538000D01*
X184828026Y-90355736D01*
X184828026Y-90355735D01*
X184757128Y-90249627D01*
X184757306Y-90045574D01*
X184648048Y-89781149D01*
X184445915Y-89578663D01*
X184181682Y-89468944D01*
X183895574Y-89468694D01*
X183631149Y-89577952D01*
X183428663Y-89780085D01*
X183318944Y-90044318D01*
X183318694Y-90330426D01*
X183427952Y-90594851D01*
X183630085Y-90797337D01*
X183894318Y-90907056D01*
X183911719Y-90907071D01*
X183911719Y-94440718D01*
X183233578Y-95118858D01*
X183045574Y-95118694D01*
X182781149Y-95227952D01*
X182578663Y-95430085D01*
X182468944Y-95694318D01*
X182468694Y-95980426D01*
X182253990Y-95980426D01*
X181370083Y-95096519D01*
X181215566Y-94993275D01*
X181202353Y-94990647D01*
X181347337Y-94845915D01*
X181457056Y-94581682D01*
X181457236Y-94376211D01*
X181528026Y-94270265D01*
X181542406Y-94197974D01*
X181564282Y-94088000D01*
X181564281Y-94087995D01*
X181564281Y-89328739D01*
X181697337Y-89195915D01*
X181807056Y-88931682D01*
X181807306Y-88645574D01*
X181698048Y-88381149D01*
X181495915Y-88178663D01*
X181231682Y-88068944D01*
X180945574Y-88068694D01*
X180681149Y-88177952D01*
X180478663Y-88380085D01*
X180368944Y-88644318D01*
X180368694Y-88930426D01*
X180477952Y-89194851D01*
X180611719Y-89328852D01*
X180611719Y-93718708D01*
X180595574Y-93718694D01*
X180331149Y-93827952D01*
X180128663Y-94030085D01*
X180037723Y-94249093D01*
X176090936Y-90302305D01*
X176097337Y-90295915D01*
X176207056Y-90031682D01*
X176207306Y-89745574D01*
X176098048Y-89481149D01*
X175895915Y-89278663D01*
X175631682Y-89168944D01*
X175442342Y-89168779D01*
X173272495Y-86998931D01*
X173117978Y-86895687D01*
X172935713Y-86859431D01*
X172935708Y-86859432D01*
X168194121Y-86859432D01*
X168465429Y-86588124D01*
X168465432Y-86588122D01*
X168568676Y-86433605D01*
X168578792Y-86382749D01*
X168604932Y-86251340D01*
X168604931Y-86251335D01*
X168604931Y-84647607D01*
X168604932Y-84647602D01*
X168568676Y-84465337D01*
X168516362Y-84387043D01*
X168465432Y-84310820D01*
X168465429Y-84310818D01*
X167810528Y-83655916D01*
X167656011Y-83552672D01*
X167473746Y-83516416D01*
X167473741Y-83516417D01*
X159914003Y-83516417D01*
X166477389Y-76953030D01*
X166665394Y-76953194D01*
X166929819Y-76843936D01*
X167063820Y-76710169D01*
X176546253Y-76710169D01*
X176679077Y-76843225D01*
X176943310Y-76952944D01*
X177229418Y-76953194D01*
X177493843Y-76843936D01*
X177696329Y-76641803D01*
X177806048Y-76377570D01*
X177806298Y-76091462D01*
X177697040Y-75827037D01*
X177494907Y-75624551D01*
X177230674Y-75514832D01*
X176944566Y-75514582D01*
X176680141Y-75623840D01*
X176546140Y-75757607D01*
X167063707Y-75757607D01*
X166930883Y-75624551D01*
X166666650Y-75514832D01*
X166380542Y-75514582D01*
X166116117Y-75623840D01*
X165913631Y-75825973D01*
X165803912Y-76090206D01*
X165803747Y-76279546D01*
X157874520Y-84208772D01*
X157813348Y-84300323D01*
X157759674Y-84278035D01*
X157473566Y-84277785D01*
X157209141Y-84387043D01*
X157075140Y-84520810D01*
X153044373Y-84520810D01*
X151407142Y-82883578D01*
X151407306Y-82695574D01*
X151394376Y-82664281D01*
X152122080Y-82664281D01*
X152122085Y-82664282D01*
X152304350Y-82628026D01*
X152458867Y-82524782D01*
X154878229Y-80105419D01*
X154878232Y-80105417D01*
X157230535Y-77753113D01*
X157196816Y-77834318D01*
X157196651Y-78023658D01*
X157143218Y-78077090D01*
X157039974Y-78231607D01*
X157003718Y-78413872D01*
X157003719Y-78413877D01*
X157003719Y-78961261D01*
X156870663Y-79094085D01*
X156760944Y-79358318D01*
X156760694Y-79644426D01*
X156869952Y-79908851D01*
X157072085Y-80111337D01*
X157336318Y-80221056D01*
X157622426Y-80221306D01*
X157886851Y-80112048D01*
X158089337Y-79909915D01*
X158199056Y-79645682D01*
X158199306Y-79359574D01*
X158090048Y-79095149D01*
X157956281Y-78961148D01*
X157956281Y-78697217D01*
X158058298Y-78697306D01*
X158322723Y-78588048D01*
X158525209Y-78385915D01*
X158634928Y-78121682D01*
X158635178Y-77835574D01*
X158525920Y-77571149D01*
X158323787Y-77368663D01*
X158059554Y-77258944D01*
X157773446Y-77258694D01*
X157690809Y-77292839D01*
X157727612Y-77256036D01*
X157727615Y-77256034D01*
X157830859Y-77101517D01*
X157844916Y-77030848D01*
X157867115Y-76919252D01*
X157867114Y-76919247D01*
X157867114Y-76850426D01*
X159046694Y-76850426D01*
X159155952Y-77114851D01*
X159358085Y-77317337D01*
X159622318Y-77427056D01*
X159908426Y-77427306D01*
X160172851Y-77318048D01*
X160375337Y-77115915D01*
X160468754Y-76890942D01*
X161478845Y-75880850D01*
X161478848Y-75880848D01*
X161561195Y-75757606D01*
X161614608Y-75677668D01*
X161662281Y-75438000D01*
X161662281Y-75043109D01*
X161755056Y-74819682D01*
X161755306Y-74533574D01*
X161646048Y-74269149D01*
X161443915Y-74066663D01*
X161179682Y-73956944D01*
X160893574Y-73956694D01*
X160629149Y-74065952D01*
X160426663Y-74268085D01*
X160316944Y-74532318D01*
X160316694Y-74818426D01*
X160409719Y-75043564D01*
X160409719Y-75178586D01*
X159582737Y-76005568D01*
X159359149Y-76097952D01*
X159156663Y-76300085D01*
X159046944Y-76564318D01*
X159046694Y-76850426D01*
X157867114Y-76850426D01*
X157867114Y-75058627D01*
X158000170Y-74925803D01*
X158109889Y-74661570D01*
X158110139Y-74375462D01*
X158000881Y-74111037D01*
X157798748Y-73908551D01*
X157534515Y-73798832D01*
X157248407Y-73798582D01*
X157197314Y-73819693D01*
X157912180Y-73104827D01*
X157912183Y-73104825D01*
X158015427Y-72950308D01*
X158021442Y-72920067D01*
X158051683Y-72768043D01*
X158051682Y-72768038D01*
X158051682Y-71606338D01*
X158184738Y-71473514D01*
X158294457Y-71209281D01*
X158294707Y-70923173D01*
X158231988Y-70771382D01*
X159426936Y-70771382D01*
X159477952Y-70894851D01*
X159680085Y-71097337D01*
X159944318Y-71207056D01*
X160230426Y-71207306D01*
X160494851Y-71098048D01*
X160697337Y-70895915D01*
X160807056Y-70631682D01*
X160807306Y-70345574D01*
X160698048Y-70081149D01*
X160495915Y-69878663D01*
X160270942Y-69785246D01*
X160187949Y-69702253D01*
X159984768Y-69566493D01*
X159745101Y-69518819D01*
X159745096Y-69518820D01*
X156907242Y-69518820D01*
X156907306Y-69445574D01*
X156798048Y-69181149D01*
X156595915Y-68978663D01*
X156331682Y-68868944D01*
X156142342Y-68868779D01*
X155627183Y-68353619D01*
X155472666Y-68250375D01*
X155290401Y-68214119D01*
X155290396Y-68214120D01*
X155003049Y-68214120D01*
X155073560Y-68063976D01*
X175341719Y-68063976D01*
X175341719Y-68112024D01*
X175435064Y-68581301D01*
X175700888Y-68979136D01*
X176098723Y-69244960D01*
X176568000Y-69338305D01*
X177037277Y-69244960D01*
X177435112Y-68979136D01*
X177700936Y-68581301D01*
X177794281Y-68112024D01*
X177794281Y-68063976D01*
X177881719Y-68063976D01*
X177881719Y-68112024D01*
X177975064Y-68581301D01*
X178240888Y-68979136D01*
X178638723Y-69244960D01*
X179108000Y-69338305D01*
X179577277Y-69244960D01*
X179975112Y-68979136D01*
X180240936Y-68581301D01*
X180334281Y-68112024D01*
X180334281Y-68063976D01*
X180240936Y-67594699D01*
X179975112Y-67196864D01*
X179577277Y-66931040D01*
X179108000Y-66837695D01*
X178638723Y-66931040D01*
X178240888Y-67196864D01*
X177975064Y-67594699D01*
X177881719Y-68063976D01*
X177794281Y-68063976D01*
X177700936Y-67594699D01*
X177435112Y-67196864D01*
X177037277Y-66931040D01*
X176568000Y-66837695D01*
X176098723Y-66931040D01*
X175700888Y-67196864D01*
X175435064Y-67594699D01*
X175341719Y-68063976D01*
X155073560Y-68063976D01*
X155129486Y-67944892D01*
X155008819Y-67715000D01*
X153815000Y-67715000D01*
X153815000Y-67735000D01*
X153561000Y-67735000D01*
X153561000Y-67715000D01*
X153541000Y-67715000D01*
X153541000Y-67461000D01*
X153561000Y-67461000D01*
X153561000Y-65175000D01*
X153815000Y-65175000D01*
X153815000Y-67461000D01*
X155008819Y-67461000D01*
X155129486Y-67231108D01*
X154883183Y-66706642D01*
X154456729Y-66318000D01*
X154883183Y-65929358D01*
X155129486Y-65404892D01*
X155008819Y-65175000D01*
X153815000Y-65175000D01*
X153561000Y-65175000D01*
X153541000Y-65175000D01*
X153541000Y-64921000D01*
X153561000Y-64921000D01*
X153561000Y-64901000D01*
X153815000Y-64901000D01*
X153815000Y-64921000D01*
X155008819Y-64921000D01*
X155129486Y-64691108D01*
X155003049Y-64421880D01*
X176052568Y-64421880D01*
X175700888Y-64656864D01*
X175435064Y-65054699D01*
X175341719Y-65523976D01*
X175341719Y-65572024D01*
X175435064Y-66041301D01*
X175700888Y-66439136D01*
X176098723Y-66704960D01*
X176568000Y-66798305D01*
X177037277Y-66704960D01*
X177435112Y-66439136D01*
X177700936Y-66041301D01*
X177794281Y-65572024D01*
X177794281Y-65523976D01*
X177700936Y-65054699D01*
X177435112Y-64656864D01*
X177083432Y-64421880D01*
X178592568Y-64421880D01*
X178240888Y-64656864D01*
X177975064Y-65054699D01*
X177881719Y-65523976D01*
X177881719Y-65572024D01*
X177975064Y-66041301D01*
X178240888Y-66439136D01*
X178638723Y-66704960D01*
X179108000Y-66798305D01*
X179577277Y-66704960D01*
X179975112Y-66439136D01*
X180069318Y-66298146D01*
X180069318Y-66985594D01*
X180069317Y-66985599D01*
X180105573Y-67167864D01*
X180208817Y-67322381D01*
X180509435Y-67622999D01*
X180421719Y-68063976D01*
X180421719Y-68112024D01*
X180515064Y-68581301D01*
X180780888Y-68979136D01*
X181178723Y-69244960D01*
X181648000Y-69338305D01*
X182117277Y-69244960D01*
X182515112Y-68979136D01*
X182780936Y-68581301D01*
X182810797Y-68431182D01*
X182954348Y-68527099D01*
X182954348Y-68938000D01*
X182980586Y-69077441D01*
X183062995Y-69205509D01*
X183188738Y-69291426D01*
X183338000Y-69321652D01*
X185038000Y-69321652D01*
X185177441Y-69295414D01*
X185305509Y-69213005D01*
X185391426Y-69087262D01*
X185421652Y-68938000D01*
X185421652Y-67238000D01*
X185395414Y-67098559D01*
X185313005Y-66970491D01*
X185187262Y-66884574D01*
X185038000Y-66854348D01*
X183338000Y-66854348D01*
X183226682Y-66875294D01*
X183226682Y-66298146D01*
X183320888Y-66439136D01*
X183718723Y-66704960D01*
X184188000Y-66798305D01*
X184657277Y-66704960D01*
X185055112Y-66439136D01*
X185320936Y-66041301D01*
X185414281Y-65572024D01*
X185414281Y-65523976D01*
X185320936Y-65054699D01*
X185055112Y-64656864D01*
X184657277Y-64391040D01*
X184188000Y-64297695D01*
X183718723Y-64391040D01*
X183320888Y-64656864D01*
X183192808Y-64848550D01*
X183190427Y-64836582D01*
X183087183Y-64682065D01*
X180610272Y-62205154D01*
X180760027Y-62055660D01*
X180953061Y-61590784D01*
X180953500Y-61087424D01*
X180761278Y-60622212D01*
X180405660Y-60265973D01*
X179940784Y-60072939D01*
X179437424Y-60072500D01*
X179345979Y-60110284D01*
X178899724Y-59664029D01*
X182191433Y-59664029D01*
X182441537Y-60269325D01*
X182904239Y-60732836D01*
X183509098Y-60983995D01*
X184164029Y-60984567D01*
X184769325Y-60734463D01*
X185232836Y-60271761D01*
X185483995Y-59666902D01*
X185484567Y-59011971D01*
X185234463Y-58406675D01*
X184771761Y-57943164D01*
X184166902Y-57692005D01*
X183511971Y-57691433D01*
X182906675Y-57941537D01*
X182443164Y-58404239D01*
X182192005Y-59009098D01*
X182191433Y-59664029D01*
X178899724Y-59664029D01*
X168665921Y-49430226D01*
X168703061Y-49340784D01*
X168703500Y-48837424D01*
X168511278Y-48372212D01*
X168155660Y-48015973D01*
X167690784Y-47822939D01*
X167187424Y-47822500D01*
X166722212Y-48014722D01*
X166365973Y-48370340D01*
X166172939Y-48835216D01*
X166172500Y-49338576D01*
X166364722Y-49803788D01*
X166720340Y-50160027D01*
X167173661Y-50348263D01*
X166722212Y-50534798D01*
X166365973Y-50890416D01*
X166172939Y-51355292D01*
X166172500Y-51858652D01*
X166364722Y-52323864D01*
X166720340Y-52680103D01*
X166772340Y-52701695D01*
X166630467Y-52760461D01*
X166545409Y-53015804D01*
X167438000Y-53908395D01*
X168330591Y-53015804D01*
X168245533Y-52760461D01*
X168095202Y-52705561D01*
X168153788Y-52681354D01*
X168510027Y-52325736D01*
X168610257Y-52084357D01*
X168950067Y-52084357D01*
X176938212Y-60072501D01*
X176937424Y-60072500D01*
X176472212Y-60264722D01*
X176115973Y-60620340D01*
X176084330Y-60696544D01*
X176015539Y-60530467D01*
X175760196Y-60445409D01*
X174867605Y-61338000D01*
X174881748Y-61352143D01*
X174702143Y-61531748D01*
X174688000Y-61517605D01*
X174673858Y-61531748D01*
X174494253Y-61352143D01*
X174508395Y-61338000D01*
X173615804Y-60445409D01*
X173360461Y-60530467D01*
X173152484Y-61099965D01*
X173178277Y-61705700D01*
X173301472Y-62003120D01*
X142215958Y-62003120D01*
X140943264Y-60730426D01*
X147468694Y-60730426D01*
X147577952Y-60994851D01*
X147780085Y-61197337D01*
X148044318Y-61307056D01*
X148330426Y-61307306D01*
X148594851Y-61198048D01*
X148797337Y-60995915D01*
X148907056Y-60731682D01*
X148907221Y-60542342D01*
X149785534Y-59664029D01*
X168891433Y-59664029D01*
X169141537Y-60269325D01*
X169604239Y-60732836D01*
X170209098Y-60983995D01*
X170864029Y-60984567D01*
X171469325Y-60734463D01*
X171932836Y-60271761D01*
X171935309Y-60265804D01*
X173795409Y-60265804D01*
X174688000Y-61158395D01*
X175580591Y-60265804D01*
X175495533Y-60010461D01*
X174926035Y-59802484D01*
X174320300Y-59828277D01*
X173880467Y-60010461D01*
X173795409Y-60265804D01*
X171935309Y-60265804D01*
X172183995Y-59666902D01*
X172184567Y-59011971D01*
X171934463Y-58406675D01*
X171471761Y-57943164D01*
X170866902Y-57692005D01*
X170211971Y-57691433D01*
X169606675Y-57941537D01*
X169143164Y-58404239D01*
X168892005Y-59009098D01*
X168891433Y-59664029D01*
X149785534Y-59664029D01*
X150024779Y-59424784D01*
X150024782Y-59424782D01*
X150128026Y-59270265D01*
X150161804Y-59100452D01*
X150488000Y-59100452D01*
X150627441Y-59074214D01*
X150755509Y-58991805D01*
X150841426Y-58866062D01*
X150871652Y-58716800D01*
X150871652Y-57716800D01*
X150845414Y-57577359D01*
X150763005Y-57449291D01*
X150637262Y-57363374D01*
X150488000Y-57333148D01*
X148888000Y-57333148D01*
X148748559Y-57359386D01*
X148620491Y-57441795D01*
X148534574Y-57567538D01*
X148504348Y-57716800D01*
X148504348Y-58716800D01*
X148530586Y-58856241D01*
X148612995Y-58984309D01*
X148738738Y-59070226D01*
X148888000Y-59100452D01*
X149001985Y-59100452D01*
X148233578Y-59868858D01*
X148045574Y-59868694D01*
X147781149Y-59977952D01*
X147578663Y-60180085D01*
X147468944Y-60444318D01*
X147468694Y-60730426D01*
X140943264Y-60730426D01*
X137943264Y-57730426D01*
X139468694Y-57730426D01*
X139577952Y-57994851D01*
X139780085Y-58197337D01*
X140044318Y-58307056D01*
X140330426Y-58307306D01*
X140555564Y-58214281D01*
X140703110Y-58214281D01*
X140705586Y-58227441D01*
X140787995Y-58355509D01*
X140913738Y-58441426D01*
X141063000Y-58471652D01*
X141685957Y-58471652D01*
X141873950Y-58659645D01*
X141873952Y-58659648D01*
X142077133Y-58795408D01*
X142316800Y-58843081D01*
X143528110Y-58843081D01*
X143530586Y-58856241D01*
X143612995Y-58984309D01*
X143738738Y-59070226D01*
X143888000Y-59100452D01*
X145488000Y-59100452D01*
X145627441Y-59074214D01*
X145755509Y-58991805D01*
X145841426Y-58866062D01*
X145871652Y-58716800D01*
X145871652Y-57716800D01*
X145845414Y-57577359D01*
X145763005Y-57449291D01*
X145637262Y-57363374D01*
X145488000Y-57333148D01*
X143888000Y-57333148D01*
X143748559Y-57359386D01*
X143620491Y-57441795D01*
X143534574Y-57567538D01*
X143529920Y-57590519D01*
X142696652Y-57590519D01*
X142696652Y-57088000D01*
X142670414Y-56948559D01*
X142588005Y-56820491D01*
X142462262Y-56734574D01*
X142405107Y-56723000D01*
X142439310Y-56723000D01*
X142672699Y-56626327D01*
X142851327Y-56447698D01*
X142948000Y-56214309D01*
X142948000Y-55873750D01*
X142789250Y-55715000D01*
X141815000Y-55715000D01*
X141815000Y-55735000D01*
X141561000Y-55735000D01*
X141561000Y-55715000D01*
X140586750Y-55715000D01*
X140428000Y-55873750D01*
X140428000Y-56214309D01*
X140524673Y-56447698D01*
X140703301Y-56626327D01*
X140936690Y-56723000D01*
X140963875Y-56723000D01*
X140923559Y-56730586D01*
X140795491Y-56812995D01*
X140709574Y-56938738D01*
X140704920Y-56961719D01*
X140555109Y-56961719D01*
X140331682Y-56868944D01*
X140045574Y-56868694D01*
X139781149Y-56977952D01*
X139578663Y-57180085D01*
X139468944Y-57444318D01*
X139468694Y-57730426D01*
X137943264Y-57730426D01*
X135174529Y-54961691D01*
X140428000Y-54961691D01*
X140428000Y-55302250D01*
X140586750Y-55461000D01*
X141561000Y-55461000D01*
X141561000Y-54611750D01*
X141815000Y-54611750D01*
X141815000Y-55461000D01*
X142789250Y-55461000D01*
X142948000Y-55302250D01*
X142948000Y-54961691D01*
X142851327Y-54728302D01*
X142672699Y-54549673D01*
X142593337Y-54516800D01*
X143504348Y-54516800D01*
X143504348Y-55516800D01*
X143530586Y-55656241D01*
X143612995Y-55784309D01*
X143738738Y-55870226D01*
X143888000Y-55900452D01*
X145488000Y-55900452D01*
X145627441Y-55874214D01*
X145755509Y-55791805D01*
X145841426Y-55666062D01*
X145871652Y-55516800D01*
X145871652Y-55302550D01*
X148253000Y-55302550D01*
X148253000Y-55643110D01*
X148349673Y-55876499D01*
X148528302Y-56055127D01*
X148761691Y-56151800D01*
X149402250Y-56151800D01*
X149561000Y-55993050D01*
X149561000Y-55143800D01*
X149815000Y-55143800D01*
X149815000Y-55993050D01*
X149973750Y-56151800D01*
X150614309Y-56151800D01*
X150847698Y-56055127D01*
X151026327Y-55876499D01*
X151123000Y-55643110D01*
X151123000Y-55302550D01*
X150980646Y-55160196D01*
X166545409Y-55160196D01*
X166630467Y-55415539D01*
X167199965Y-55623516D01*
X167805700Y-55597723D01*
X168245533Y-55415539D01*
X168330591Y-55160196D01*
X167438000Y-54267605D01*
X166545409Y-55160196D01*
X150980646Y-55160196D01*
X150964250Y-55143800D01*
X149815000Y-55143800D01*
X149561000Y-55143800D01*
X148411750Y-55143800D01*
X148253000Y-55302550D01*
X145871652Y-55302550D01*
X145871652Y-54516800D01*
X145847885Y-54390490D01*
X148253000Y-54390490D01*
X148253000Y-54731050D01*
X148411750Y-54889800D01*
X149561000Y-54889800D01*
X149561000Y-54040550D01*
X149815000Y-54040550D01*
X149815000Y-54889800D01*
X150964250Y-54889800D01*
X151123000Y-54731050D01*
X151123000Y-54390490D01*
X151026327Y-54157101D01*
X150847698Y-53978473D01*
X150614309Y-53881800D01*
X149973750Y-53881800D01*
X149815000Y-54040550D01*
X149561000Y-54040550D01*
X149402250Y-53881800D01*
X148761691Y-53881800D01*
X148528302Y-53978473D01*
X148349673Y-54157101D01*
X148253000Y-54390490D01*
X145847885Y-54390490D01*
X145845414Y-54377359D01*
X145763005Y-54249291D01*
X145637262Y-54163374D01*
X145488000Y-54133148D01*
X143888000Y-54133148D01*
X143748559Y-54159386D01*
X143620491Y-54241795D01*
X143534574Y-54367538D01*
X143504348Y-54516800D01*
X142593337Y-54516800D01*
X142439310Y-54453000D01*
X141973750Y-54453000D01*
X141815000Y-54611750D01*
X141561000Y-54611750D01*
X141402250Y-54453000D01*
X140936690Y-54453000D01*
X140703301Y-54549673D01*
X140524673Y-54728302D01*
X140428000Y-54961691D01*
X135174529Y-54961691D01*
X134062803Y-53849965D01*
X165902484Y-53849965D01*
X165928277Y-54455700D01*
X166110461Y-54895533D01*
X166365804Y-54980591D01*
X167258395Y-54088000D01*
X167617605Y-54088000D01*
X168510196Y-54980591D01*
X168765539Y-54895533D01*
X168973516Y-54326035D01*
X168947723Y-53720300D01*
X168765539Y-53280467D01*
X168510196Y-53195409D01*
X167617605Y-54088000D01*
X167258395Y-54088000D01*
X166365804Y-53195409D01*
X166110461Y-53280467D01*
X165902484Y-53849965D01*
X134062803Y-53849965D01*
X125236457Y-45023619D01*
X125083151Y-44921184D01*
X125232836Y-44771761D01*
X125483995Y-44166902D01*
X125484567Y-43511971D01*
X125234463Y-42906675D01*
X124771761Y-42443164D01*
X124620517Y-42380362D01*
X127711463Y-42380362D01*
X127935740Y-42923153D01*
X128350662Y-43338800D01*
X128893061Y-43564024D01*
X129480362Y-43564537D01*
X130023153Y-43340260D01*
X130438800Y-42925338D01*
X130664024Y-42382939D01*
X130664468Y-41873750D01*
X143251000Y-41873750D01*
X143251000Y-43746310D01*
X143347673Y-43979699D01*
X143526302Y-44158327D01*
X143759691Y-44255000D01*
X144362250Y-44255000D01*
X144521000Y-44096250D01*
X144521000Y-41715000D01*
X144775000Y-41715000D01*
X144775000Y-44096250D01*
X144933750Y-44255000D01*
X145536309Y-44255000D01*
X145769698Y-44158327D01*
X145948327Y-43979699D01*
X146045000Y-43746310D01*
X146045000Y-41873750D01*
X148331000Y-41873750D01*
X148331000Y-43746310D01*
X148427673Y-43979699D01*
X148606302Y-44158327D01*
X148839691Y-44255000D01*
X149442250Y-44255000D01*
X149601000Y-44096250D01*
X149601000Y-41715000D01*
X149855000Y-41715000D01*
X149855000Y-44096250D01*
X150013750Y-44255000D01*
X150616309Y-44255000D01*
X150835932Y-44164029D01*
X168891433Y-44164029D01*
X169141537Y-44769325D01*
X169604239Y-45232836D01*
X170209098Y-45483995D01*
X170864029Y-45484567D01*
X171469325Y-45234463D01*
X171932836Y-44771761D01*
X172183995Y-44166902D01*
X172183997Y-44164029D01*
X182191433Y-44164029D01*
X182441537Y-44769325D01*
X182904239Y-45232836D01*
X183509098Y-45483995D01*
X184164029Y-45484567D01*
X184769325Y-45234463D01*
X185232836Y-44771761D01*
X185483995Y-44166902D01*
X185484567Y-43511971D01*
X185234463Y-42906675D01*
X184771761Y-42443164D01*
X184166902Y-42192005D01*
X183511971Y-42191433D01*
X182906675Y-42441537D01*
X182443164Y-42904239D01*
X182192005Y-43509098D01*
X182191433Y-44164029D01*
X172183997Y-44164029D01*
X172184567Y-43511971D01*
X171934463Y-42906675D01*
X171471761Y-42443164D01*
X170866902Y-42192005D01*
X170211971Y-42191433D01*
X169606675Y-42441537D01*
X169143164Y-42904239D01*
X168892005Y-43509098D01*
X168891433Y-44164029D01*
X150835932Y-44164029D01*
X150849698Y-44158327D01*
X151028327Y-43979699D01*
X151125000Y-43746310D01*
X151125000Y-42380362D01*
X163711463Y-42380362D01*
X163935740Y-42923153D01*
X164350662Y-43338800D01*
X164893061Y-43564024D01*
X165480362Y-43564537D01*
X166023153Y-43340260D01*
X166438800Y-42925338D01*
X166664024Y-42382939D01*
X166664537Y-41795638D01*
X166440260Y-41252847D01*
X166025338Y-40837200D01*
X165482939Y-40611976D01*
X164895638Y-40611463D01*
X164352847Y-40835740D01*
X163937200Y-41250662D01*
X163711976Y-41793061D01*
X163711463Y-42380362D01*
X151125000Y-42380362D01*
X151125000Y-41873750D01*
X150966250Y-41715000D01*
X149855000Y-41715000D01*
X149601000Y-41715000D01*
X148489750Y-41715000D01*
X148331000Y-41873750D01*
X146045000Y-41873750D01*
X145886250Y-41715000D01*
X144775000Y-41715000D01*
X144521000Y-41715000D01*
X143409750Y-41715000D01*
X143251000Y-41873750D01*
X130664468Y-41873750D01*
X130664537Y-41795638D01*
X130440260Y-41252847D01*
X130025338Y-40837200D01*
X129482939Y-40611976D01*
X128895638Y-40611463D01*
X128352847Y-40835740D01*
X127937200Y-41250662D01*
X127711976Y-41793061D01*
X127711463Y-42380362D01*
X124620517Y-42380362D01*
X124166902Y-42192005D01*
X123511971Y-42191433D01*
X122906675Y-42441537D01*
X122443164Y-42904239D01*
X122192005Y-43509098D01*
X122191433Y-44164029D01*
X122441537Y-44769325D01*
X122556132Y-44884120D01*
X120907683Y-44884120D01*
X119366655Y-43343092D01*
X119449965Y-43373516D01*
X120055700Y-43347723D01*
X120495533Y-43165539D01*
X120580591Y-42910196D01*
X119688000Y-42017605D01*
X119673858Y-42031748D01*
X119494253Y-41852143D01*
X119508395Y-41838000D01*
X119867605Y-41838000D01*
X120760196Y-42730591D01*
X121015539Y-42645533D01*
X121223516Y-42076035D01*
X121197723Y-41470300D01*
X121015539Y-41030467D01*
X120760196Y-40945409D01*
X119867605Y-41838000D01*
X119508395Y-41838000D01*
X118615804Y-40945409D01*
X118360461Y-41030467D01*
X118296142Y-41206590D01*
X118261278Y-41122212D01*
X117905660Y-40765973D01*
X117905254Y-40765804D01*
X118795409Y-40765804D01*
X119688000Y-41658395D01*
X120580591Y-40765804D01*
X120495533Y-40510461D01*
X119926035Y-40302484D01*
X119320300Y-40328277D01*
X118880467Y-40510461D01*
X118795409Y-40765804D01*
X117905254Y-40765804D01*
X117440784Y-40572939D01*
X116937424Y-40572500D01*
X116472212Y-40764722D01*
X116115973Y-41120340D01*
X115937800Y-41549427D01*
X115761278Y-41122212D01*
X115405660Y-40765973D01*
X114940784Y-40572939D01*
X114437424Y-40572500D01*
X113972212Y-40764722D01*
X113615973Y-41120340D01*
X113422939Y-41585216D01*
X113422500Y-42088576D01*
X108168821Y-42088576D01*
X108977823Y-40877820D01*
X110450664Y-39893700D01*
X112232448Y-39539281D01*
X143251000Y-39539281D01*
X143251000Y-41302250D01*
G36*
X164644050Y-87775739D02*
X164826315Y-87811995D01*
X164826320Y-87811994D01*
X172738430Y-87811994D01*
X173695261Y-88768825D01*
X173545574Y-88768694D01*
X173281149Y-88877952D01*
X173147148Y-89011719D01*
X165472858Y-89011719D01*
X165565056Y-88789682D01*
X165565306Y-88503574D01*
X165456048Y-88239149D01*
X165253915Y-88036663D01*
X164989682Y-87926944D01*
X164703574Y-87926694D01*
X164571652Y-87981203D01*
X164571652Y-87727365D01*
X164644050Y-87775739D01*
X164644050Y-87775739D01*
G37*
X164644050Y-87775739D02*
X164826315Y-87811995D01*
X164826320Y-87811994D01*
X172738430Y-87811994D01*
X173695261Y-88768825D01*
X173545574Y-88768694D01*
X173281149Y-88877952D01*
X173147148Y-89011719D01*
X165472858Y-89011719D01*
X165565056Y-88789682D01*
X165565306Y-88503574D01*
X165456048Y-88239149D01*
X165253915Y-88036663D01*
X164989682Y-87926944D01*
X164703574Y-87926694D01*
X164571652Y-87981203D01*
X164571652Y-87727365D01*
X164644050Y-87775739D01*
G36*
X167652369Y-84844884D02*
X167652369Y-86054058D01*
X167190008Y-86516418D01*
X166545871Y-86516418D01*
X166581056Y-86431682D01*
X166581306Y-86145574D01*
X166472048Y-85881149D01*
X166269915Y-85678663D01*
X166005682Y-85568944D01*
X165719574Y-85568694D01*
X165494436Y-85661719D01*
X164737969Y-85661719D01*
X164664250Y-85588000D01*
X162315000Y-85588000D01*
X162315000Y-85635000D01*
X162061000Y-85635000D01*
X162061000Y-85588000D01*
X162041000Y-85588000D01*
X162041000Y-85388000D01*
X162061000Y-85388000D01*
X162061000Y-84811750D01*
X162315000Y-84811750D01*
X162315000Y-85388000D01*
X164664250Y-85388000D01*
X164823000Y-85229250D01*
X164823000Y-85161690D01*
X164726327Y-84928301D01*
X164547698Y-84749673D01*
X164314309Y-84653000D01*
X162473750Y-84653000D01*
X162315000Y-84811750D01*
X162061000Y-84811750D01*
X161902250Y-84653000D01*
X160061691Y-84653000D01*
X159873849Y-84730807D01*
X159796318Y-84543167D01*
X159722259Y-84468979D01*
X167276463Y-84468979D01*
X167652369Y-84844884D01*
X167652369Y-84844884D01*
G37*
X167652369Y-84844884D02*
X167652369Y-86054058D01*
X167190008Y-86516418D01*
X166545871Y-86516418D01*
X166581056Y-86431682D01*
X166581306Y-86145574D01*
X166472048Y-85881149D01*
X166269915Y-85678663D01*
X166005682Y-85568944D01*
X165719574Y-85568694D01*
X165494436Y-85661719D01*
X164737969Y-85661719D01*
X164664250Y-85588000D01*
X162315000Y-85588000D01*
X162315000Y-85635000D01*
X162061000Y-85635000D01*
X162061000Y-85588000D01*
X162041000Y-85588000D01*
X162041000Y-85388000D01*
X162061000Y-85388000D01*
X162061000Y-84811750D01*
X162315000Y-84811750D01*
X162315000Y-85388000D01*
X164664250Y-85388000D01*
X164823000Y-85229250D01*
X164823000Y-85161690D01*
X164726327Y-84928301D01*
X164547698Y-84749673D01*
X164314309Y-84653000D01*
X162473750Y-84653000D01*
X162315000Y-84811750D01*
X162061000Y-84811750D01*
X161902250Y-84653000D01*
X160061691Y-84653000D01*
X159873849Y-84730807D01*
X159796318Y-84543167D01*
X159722259Y-84468979D01*
X167276463Y-84468979D01*
X167652369Y-84844884D01*
G36*
X120373617Y-45697180D02*
X120373619Y-45697183D01*
X120528136Y-45800427D01*
X120710401Y-45836682D01*
X124702392Y-45836682D01*
X126480983Y-47615273D01*
X126130467Y-47760461D01*
X126045409Y-48015804D01*
X126938000Y-48908395D01*
X126952143Y-48894253D01*
X127131748Y-49073858D01*
X127117605Y-49088000D01*
X128010196Y-49980591D01*
X128265539Y-49895533D01*
X128398141Y-49532431D01*
X141681893Y-62816183D01*
X141836410Y-62919427D01*
X142018675Y-62955683D01*
X142018680Y-62955682D01*
X178382118Y-62955682D01*
X178895754Y-63469318D01*
X141742881Y-63469318D01*
X136629594Y-58356030D01*
X136475077Y-58252786D01*
X136292812Y-58216530D01*
X136292807Y-58216531D01*
X134260170Y-58216531D01*
X128103681Y-52060041D01*
X128203061Y-51820708D01*
X128203500Y-51317348D01*
X128011278Y-50852136D01*
X127655660Y-50495897D01*
X127603660Y-50474305D01*
X127745533Y-50415539D01*
X127830591Y-50160196D01*
X126938000Y-49267605D01*
X126045409Y-50160196D01*
X126130467Y-50415539D01*
X126280798Y-50470439D01*
X126222212Y-50494646D01*
X125865973Y-50850264D01*
X125672939Y-51315140D01*
X125672500Y-51818500D01*
X125755803Y-52020108D01*
X122585661Y-48849965D01*
X125402484Y-48849965D01*
X125428277Y-49455700D01*
X125610461Y-49895533D01*
X125865804Y-49980591D01*
X126758395Y-49088000D01*
X125865804Y-48195409D01*
X125610461Y-48280467D01*
X125402484Y-48849965D01*
X122585661Y-48849965D01*
X116770262Y-43034566D01*
X116935216Y-43103061D01*
X117438576Y-43103500D01*
X117680129Y-43003692D01*
X120373617Y-45697180D01*
X120373617Y-45697180D01*
G37*
X120373617Y-45697180D02*
X120373619Y-45697183D01*
X120528136Y-45800427D01*
X120710401Y-45836682D01*
X124702392Y-45836682D01*
X126480983Y-47615273D01*
X126130467Y-47760461D01*
X126045409Y-48015804D01*
X126938000Y-48908395D01*
X126952143Y-48894253D01*
X127131748Y-49073858D01*
X127117605Y-49088000D01*
X128010196Y-49980591D01*
X128265539Y-49895533D01*
X128398141Y-49532431D01*
X141681893Y-62816183D01*
X141836410Y-62919427D01*
X142018675Y-62955683D01*
X142018680Y-62955682D01*
X178382118Y-62955682D01*
X178895754Y-63469318D01*
X141742881Y-63469318D01*
X136629594Y-58356030D01*
X136475077Y-58252786D01*
X136292812Y-58216530D01*
X136292807Y-58216531D01*
X134260170Y-58216531D01*
X128103681Y-52060041D01*
X128203061Y-51820708D01*
X128203500Y-51317348D01*
X128011278Y-50852136D01*
X127655660Y-50495897D01*
X127603660Y-50474305D01*
X127745533Y-50415539D01*
X127830591Y-50160196D01*
X126938000Y-49267605D01*
X126045409Y-50160196D01*
X126130467Y-50415539D01*
X126280798Y-50470439D01*
X126222212Y-50494646D01*
X125865973Y-50850264D01*
X125672939Y-51315140D01*
X125672500Y-51818500D01*
X125755803Y-52020108D01*
X122585661Y-48849965D01*
X125402484Y-48849965D01*
X125428277Y-49455700D01*
X125610461Y-49895533D01*
X125865804Y-49980591D01*
X126758395Y-49088000D01*
X125865804Y-48195409D01*
X125610461Y-48280467D01*
X125402484Y-48849965D01*
X122585661Y-48849965D01*
X116770262Y-43034566D01*
X116935216Y-43103061D01*
X117438576Y-43103500D01*
X117680129Y-43003692D01*
X120373617Y-45697180D01*
M02*
