%TF.GenerationSoftware,KiCad,Pcbnew,5.1.6-c6e7f7d~86~ubuntu20.04.1*%
%TF.CreationDate,2020-05-16T11:05:40+02:00*%
%TF.ProjectId,esp32_radio,65737033-325f-4726-9164-696f2e6b6963,V0.1*%
%TF.SameCoordinates,Original*%
%TF.FileFunction,Legend,Bot*%
%TF.FilePolarity,Positive*%
%FSLAX46Y46*%
G04 Gerber Fmt 4.6, Leading zero omitted, Abs format (unit mm)*
G04 Created by KiCad (PCBNEW 5.1.6-c6e7f7d~86~ubuntu20.04.1) date 2020-05-16 11:05:40*
%MOMM*%
%LPD*%
G01*
G04 APERTURE LIST*
%ADD10C,0.300000*%
%TA.AperFunction,Profile*%
%ADD11C,0.150000*%
%TD*%
%ADD12C,0.150000*%
%ADD13C,0.120000*%
%ADD14C,0.010000*%
G04 APERTURE END LIST*
D10*
X141990142Y-60895142D02*
X141775857Y-60966571D01*
X141418714Y-60966571D01*
X141275857Y-60895142D01*
X141204428Y-60823714D01*
X141133000Y-60680857D01*
X141133000Y-60538000D01*
X141204428Y-60395142D01*
X141275857Y-60323714D01*
X141418714Y-60252285D01*
X141704428Y-60180857D01*
X141847285Y-60109428D01*
X141918714Y-60038000D01*
X141990142Y-59895142D01*
X141990142Y-59752285D01*
X141918714Y-59609428D01*
X141847285Y-59538000D01*
X141704428Y-59466571D01*
X141347285Y-59466571D01*
X141133000Y-59538000D01*
X140490142Y-59966571D02*
X140490142Y-61466571D01*
X140490142Y-60038000D02*
X140347285Y-59966571D01*
X140061571Y-59966571D01*
X139918714Y-60038000D01*
X139847285Y-60109428D01*
X139775857Y-60252285D01*
X139775857Y-60680857D01*
X139847285Y-60823714D01*
X139918714Y-60895142D01*
X140061571Y-60966571D01*
X140347285Y-60966571D01*
X140490142Y-60895142D01*
X138561571Y-60895142D02*
X138704428Y-60966571D01*
X138990142Y-60966571D01*
X139133000Y-60895142D01*
X139204428Y-60752285D01*
X139204428Y-60180857D01*
X139133000Y-60038000D01*
X138990142Y-59966571D01*
X138704428Y-59966571D01*
X138561571Y-60038000D01*
X138490142Y-60180857D01*
X138490142Y-60323714D01*
X139204428Y-60466571D01*
X137204428Y-60895142D02*
X137347285Y-60966571D01*
X137633000Y-60966571D01*
X137775857Y-60895142D01*
X137847285Y-60823714D01*
X137918714Y-60680857D01*
X137918714Y-60252285D01*
X137847285Y-60109428D01*
X137775857Y-60038000D01*
X137633000Y-59966571D01*
X137347285Y-59966571D01*
X137204428Y-60038000D01*
X136775857Y-59966571D02*
X136204428Y-59966571D01*
X136561571Y-59466571D02*
X136561571Y-60752285D01*
X136490142Y-60895142D01*
X136347285Y-60966571D01*
X136204428Y-60966571D01*
X135704428Y-60966571D02*
X135704428Y-59966571D01*
X135704428Y-60252285D02*
X135633000Y-60109428D01*
X135561571Y-60038000D01*
X135418714Y-59966571D01*
X135275857Y-59966571D01*
X134204428Y-60895142D02*
X134347285Y-60966571D01*
X134633000Y-60966571D01*
X134775857Y-60895142D01*
X134847285Y-60752285D01*
X134847285Y-60180857D01*
X134775857Y-60038000D01*
X134633000Y-59966571D01*
X134347285Y-59966571D01*
X134204428Y-60038000D01*
X134133000Y-60180857D01*
X134133000Y-60323714D01*
X134847285Y-60466571D01*
X133490142Y-60395142D02*
X132347285Y-60395142D01*
X131847285Y-59466571D02*
X130990142Y-59466571D01*
X131418714Y-60966571D02*
X131418714Y-59466571D01*
X130633000Y-60966571D02*
X129847285Y-59966571D01*
X130633000Y-59966571D02*
X129847285Y-60966571D01*
X155561571Y-63516571D02*
X155561571Y-62016571D01*
X155061571Y-63088000D01*
X154561571Y-62016571D01*
X154561571Y-63516571D01*
X153204428Y-62516571D02*
X153204428Y-63516571D01*
X153847285Y-62516571D02*
X153847285Y-63302285D01*
X153775857Y-63445142D01*
X153633000Y-63516571D01*
X153418714Y-63516571D01*
X153275857Y-63445142D01*
X153204428Y-63373714D01*
X152275857Y-63516571D02*
X152418714Y-63445142D01*
X152490142Y-63302285D01*
X152490142Y-62016571D01*
X151918714Y-62516571D02*
X151347285Y-62516571D01*
X151704428Y-62016571D02*
X151704428Y-63302285D01*
X151633000Y-63445142D01*
X151490142Y-63516571D01*
X151347285Y-63516571D01*
X150847285Y-63516571D02*
X150847285Y-62516571D01*
X150847285Y-62016571D02*
X150918714Y-62088000D01*
X150847285Y-62159428D01*
X150775857Y-62088000D01*
X150847285Y-62016571D01*
X150847285Y-62159428D01*
X150133000Y-62516571D02*
X150133000Y-64016571D01*
X150133000Y-62588000D02*
X149990142Y-62516571D01*
X149704428Y-62516571D01*
X149561571Y-62588000D01*
X149490142Y-62659428D01*
X149418714Y-62802285D01*
X149418714Y-63230857D01*
X149490142Y-63373714D01*
X149561571Y-63445142D01*
X149704428Y-63516571D01*
X149990142Y-63516571D01*
X150133000Y-63445142D01*
X148775857Y-63516571D02*
X148775857Y-62516571D01*
X148775857Y-62802285D02*
X148704428Y-62659428D01*
X148633000Y-62588000D01*
X148490142Y-62516571D01*
X148347285Y-62516571D01*
X147633000Y-63516571D02*
X147775857Y-63445142D01*
X147847285Y-63373714D01*
X147918714Y-63230857D01*
X147918714Y-62802285D01*
X147847285Y-62659428D01*
X147775857Y-62588000D01*
X147633000Y-62516571D01*
X147418714Y-62516571D01*
X147275857Y-62588000D01*
X147204428Y-62659428D01*
X147133000Y-62802285D01*
X147133000Y-63230857D01*
X147204428Y-63373714D01*
X147275857Y-63445142D01*
X147418714Y-63516571D01*
X147633000Y-63516571D01*
X145847285Y-63445142D02*
X145990142Y-63516571D01*
X146275857Y-63516571D01*
X146418714Y-63445142D01*
X146490142Y-63373714D01*
X146561571Y-63230857D01*
X146561571Y-62802285D01*
X146490142Y-62659428D01*
X146418714Y-62588000D01*
X146275857Y-62516571D01*
X145990142Y-62516571D01*
X145847285Y-62588000D01*
X144990142Y-63516571D02*
X145133000Y-63445142D01*
X145204428Y-63373714D01*
X145275857Y-63230857D01*
X145275857Y-62802285D01*
X145204428Y-62659428D01*
X145133000Y-62588000D01*
X144990142Y-62516571D01*
X144775857Y-62516571D01*
X144633000Y-62588000D01*
X144561571Y-62659428D01*
X144490142Y-62802285D01*
X144490142Y-63230857D01*
X144561571Y-63373714D01*
X144633000Y-63445142D01*
X144775857Y-63516571D01*
X144990142Y-63516571D01*
X143633000Y-63516571D02*
X143775857Y-63445142D01*
X143847285Y-63302285D01*
X143847285Y-62016571D01*
X142133000Y-62016571D02*
X141275857Y-62016571D01*
X141704428Y-63516571D02*
X141704428Y-62016571D01*
X140775857Y-63516571D02*
X140775857Y-62516571D01*
X140775857Y-62802285D02*
X140704428Y-62659428D01*
X140633000Y-62588000D01*
X140490142Y-62516571D01*
X140347285Y-62516571D01*
X139204428Y-63516571D02*
X139204428Y-62730857D01*
X139275857Y-62588000D01*
X139418714Y-62516571D01*
X139704428Y-62516571D01*
X139847285Y-62588000D01*
X139204428Y-63445142D02*
X139347285Y-63516571D01*
X139704428Y-63516571D01*
X139847285Y-63445142D01*
X139918714Y-63302285D01*
X139918714Y-63159428D01*
X139847285Y-63016571D01*
X139704428Y-62945142D01*
X139347285Y-62945142D01*
X139204428Y-62873714D01*
X138490142Y-62516571D02*
X138490142Y-63516571D01*
X138490142Y-62659428D02*
X138418714Y-62588000D01*
X138275857Y-62516571D01*
X138061571Y-62516571D01*
X137918714Y-62588000D01*
X137847285Y-62730857D01*
X137847285Y-63516571D01*
X137204428Y-63445142D02*
X137061571Y-63516571D01*
X136775857Y-63516571D01*
X136633000Y-63445142D01*
X136561571Y-63302285D01*
X136561571Y-63230857D01*
X136633000Y-63088000D01*
X136775857Y-63016571D01*
X136990142Y-63016571D01*
X137133000Y-62945142D01*
X137204428Y-62802285D01*
X137204428Y-62730857D01*
X137133000Y-62588000D01*
X136990142Y-62516571D01*
X136775857Y-62516571D01*
X136633000Y-62588000D01*
X135918714Y-63516571D02*
X135918714Y-62516571D01*
X135918714Y-62659428D02*
X135847285Y-62588000D01*
X135704428Y-62516571D01*
X135490142Y-62516571D01*
X135347285Y-62588000D01*
X135275857Y-62730857D01*
X135275857Y-63516571D01*
X135275857Y-62730857D02*
X135204428Y-62588000D01*
X135061571Y-62516571D01*
X134847285Y-62516571D01*
X134704428Y-62588000D01*
X134633000Y-62730857D01*
X134633000Y-63516571D01*
X133918714Y-63516571D02*
X133918714Y-62516571D01*
X133918714Y-62016571D02*
X133990142Y-62088000D01*
X133918714Y-62159428D01*
X133847285Y-62088000D01*
X133918714Y-62016571D01*
X133918714Y-62159428D01*
X133418714Y-62516571D02*
X132847285Y-62516571D01*
X133204428Y-62016571D02*
X133204428Y-63302285D01*
X133133000Y-63445142D01*
X132990142Y-63516571D01*
X132847285Y-63516571D01*
X132561571Y-62516571D02*
X131990142Y-62516571D01*
X132347285Y-62016571D02*
X132347285Y-63302285D01*
X132275857Y-63445142D01*
X132133000Y-63516571D01*
X131990142Y-63516571D01*
X130918714Y-63445142D02*
X131061571Y-63516571D01*
X131347285Y-63516571D01*
X131490142Y-63445142D01*
X131561571Y-63302285D01*
X131561571Y-62730857D01*
X131490142Y-62588000D01*
X131347285Y-62516571D01*
X131061571Y-62516571D01*
X130918714Y-62588000D01*
X130847285Y-62730857D01*
X130847285Y-62873714D01*
X131561571Y-63016571D01*
X130204428Y-63516571D02*
X130204428Y-62516571D01*
X130204428Y-62802285D02*
X130133000Y-62659428D01*
X130061571Y-62588000D01*
X129918714Y-62516571D01*
X129775857Y-62516571D01*
X139133000Y-66066571D02*
X139133000Y-64566571D01*
X138561571Y-64566571D01*
X138418714Y-64638000D01*
X138347285Y-64709428D01*
X138275857Y-64852285D01*
X138275857Y-65066571D01*
X138347285Y-65209428D01*
X138418714Y-65280857D01*
X138561571Y-65352285D01*
X139133000Y-65352285D01*
X137633000Y-66066571D02*
X137633000Y-65066571D01*
X137633000Y-65352285D02*
X137561571Y-65209428D01*
X137490142Y-65138000D01*
X137347285Y-65066571D01*
X137204428Y-65066571D01*
X136490142Y-66066571D02*
X136633000Y-65995142D01*
X136704428Y-65923714D01*
X136775857Y-65780857D01*
X136775857Y-65352285D01*
X136704428Y-65209428D01*
X136633000Y-65138000D01*
X136490142Y-65066571D01*
X136275857Y-65066571D01*
X136133000Y-65138000D01*
X136061571Y-65209428D01*
X135990142Y-65352285D01*
X135990142Y-65780857D01*
X136061571Y-65923714D01*
X136133000Y-65995142D01*
X136275857Y-66066571D01*
X136490142Y-66066571D01*
X135561571Y-65066571D02*
X134990142Y-65066571D01*
X135347285Y-64566571D02*
X135347285Y-65852285D01*
X135275857Y-65995142D01*
X135133000Y-66066571D01*
X134990142Y-66066571D01*
X134275857Y-66066571D02*
X134418714Y-65995142D01*
X134490142Y-65923714D01*
X134561571Y-65780857D01*
X134561571Y-65352285D01*
X134490142Y-65209428D01*
X134418714Y-65138000D01*
X134275857Y-65066571D01*
X134061571Y-65066571D01*
X133918714Y-65138000D01*
X133847285Y-65209428D01*
X133775857Y-65352285D01*
X133775857Y-65780857D01*
X133847285Y-65923714D01*
X133918714Y-65995142D01*
X134061571Y-66066571D01*
X134275857Y-66066571D01*
X132204428Y-64566571D02*
X131704428Y-66066571D01*
X131204428Y-64566571D01*
X130061571Y-64566571D02*
X130347285Y-64566571D01*
X130490142Y-64638000D01*
X130561571Y-64709428D01*
X130704428Y-64923714D01*
X130775857Y-65209428D01*
X130775857Y-65780857D01*
X130704428Y-65923714D01*
X130633000Y-65995142D01*
X130490142Y-66066571D01*
X130204428Y-66066571D01*
X130061571Y-65995142D01*
X129990142Y-65923714D01*
X129918714Y-65780857D01*
X129918714Y-65423714D01*
X129990142Y-65280857D01*
X130061571Y-65209428D01*
X130204428Y-65138000D01*
X130490142Y-65138000D01*
X130633000Y-65209428D01*
X130704428Y-65280857D01*
X130775857Y-65423714D01*
D11*
X107188000Y-109088000D02*
G75*
G03*
X112188000Y-114088000I5000000J0D01*
G01*
X182188000Y-114088000D02*
G75*
G03*
X187188000Y-109088000I0J5000000D01*
G01*
X187188000Y-44088000D02*
G75*
G03*
X182188000Y-39088000I-5000000J0D01*
G01*
X112188000Y-39088000D02*
G75*
G03*
X107188000Y-44088000I0J-5000000D01*
G01*
X182188000Y-39088000D02*
X112188000Y-39088000D01*
X187188000Y-109088000D02*
X187188000Y-44088000D01*
X112188000Y-114088000D02*
X182188000Y-114088000D01*
X107188000Y-44088000D02*
X107188000Y-109088000D01*
D12*
X167188000Y-83588000D02*
X173688000Y-83588000D01*
X173688000Y-83588000D02*
X173688000Y-105088000D01*
X173688000Y-105088000D02*
X167188000Y-105088000D01*
X167188000Y-105088000D02*
X167188000Y-101588000D01*
X167188000Y-83588000D02*
X167188000Y-87088000D01*
D13*
X159768000Y-42753000D02*
X159768000Y-42983000D01*
X160288000Y-39083000D02*
X152568000Y-39083000D01*
X152568000Y-39083000D02*
X152568000Y-42983000D01*
X160288000Y-46093000D02*
X159768000Y-46093000D01*
X160288000Y-39083000D02*
X160288000Y-42983000D01*
X153088000Y-42753000D02*
X153088000Y-42983000D01*
X159768000Y-45583000D02*
X159768000Y-46093000D01*
X160288000Y-45583000D02*
X160288000Y-46093000D01*
X153628000Y-42753000D02*
X153088000Y-42753000D01*
X153088000Y-45583000D02*
X153088000Y-46093000D01*
X153088000Y-46093000D02*
X152568000Y-46093000D01*
X152568000Y-45583000D02*
X152568000Y-46093000D01*
X159768000Y-42753000D02*
X159228000Y-42753000D01*
X158128000Y-42753000D02*
X154728000Y-42753000D01*
X141298000Y-42753000D02*
X141298000Y-42983000D01*
X141818000Y-39083000D02*
X134098000Y-39083000D01*
X134098000Y-39083000D02*
X134098000Y-42983000D01*
X141818000Y-46093000D02*
X141298000Y-46093000D01*
X141818000Y-39083000D02*
X141818000Y-42983000D01*
X134618000Y-42753000D02*
X134618000Y-42983000D01*
X141298000Y-45583000D02*
X141298000Y-46093000D01*
X141818000Y-45583000D02*
X141818000Y-46093000D01*
X135158000Y-42753000D02*
X134618000Y-42753000D01*
X134618000Y-45583000D02*
X134618000Y-46093000D01*
X134618000Y-46093000D02*
X134098000Y-46093000D01*
X134098000Y-45583000D02*
X134098000Y-46093000D01*
X141298000Y-42753000D02*
X140758000Y-42753000D01*
X139658000Y-42753000D02*
X136258000Y-42753000D01*
D12*
X178458000Y-51588000D02*
G75*
G03*
X178458000Y-51588000I-1270000J0D01*
G01*
X177188000Y-50318000D02*
X177188000Y-52858000D01*
X178458000Y-51588000D02*
X175918000Y-51588000D01*
X183838000Y-43838000D02*
X170538000Y-43838000D01*
X170538000Y-58988000D02*
X170538000Y-44188000D01*
X183838000Y-44188000D02*
X183838000Y-58988000D01*
X183838000Y-59338000D02*
X170538000Y-59338000D01*
X118458000Y-51588000D02*
G75*
G03*
X118458000Y-51588000I-1270000J0D01*
G01*
X117188000Y-52858000D02*
X117188000Y-50318000D01*
X115918000Y-51588000D02*
X118458000Y-51588000D01*
X110538000Y-59338000D02*
X123838000Y-59338000D01*
X123838000Y-44188000D02*
X123838000Y-58988000D01*
X110538000Y-58988000D02*
X110538000Y-44188000D01*
X110538000Y-43838000D02*
X123838000Y-43838000D01*
D13*
X141178000Y-56750779D02*
X141178000Y-56425221D01*
X142198000Y-56750779D02*
X142198000Y-56425221D01*
X145198000Y-68925221D02*
X145198000Y-69250779D01*
X144178000Y-68925221D02*
X144178000Y-69250779D01*
X147198000Y-68925221D02*
X147198000Y-69250779D01*
X146178000Y-68925221D02*
X146178000Y-69250779D01*
X149198000Y-68925221D02*
X149198000Y-69250779D01*
X148178000Y-68925221D02*
X148178000Y-69250779D01*
X151198000Y-68925221D02*
X151198000Y-69250779D01*
X150178000Y-68925221D02*
X150178000Y-69250779D01*
D14*
G36*
X148053911Y-87788935D02*
G01*
X148045250Y-87826000D01*
X148067845Y-87877077D01*
X148115966Y-87888234D01*
X148156375Y-87857750D01*
X148160513Y-87804495D01*
X148119225Y-87767272D01*
X148091002Y-87762500D01*
X148053911Y-87788935D01*
G37*
X148053911Y-87788935D02*
X148045250Y-87826000D01*
X148067845Y-87877077D01*
X148115966Y-87888234D01*
X148156375Y-87857750D01*
X148160513Y-87804495D01*
X148119225Y-87767272D01*
X148091002Y-87762500D01*
X148053911Y-87788935D01*
G36*
X145696722Y-84184858D02*
G01*
X145636513Y-84218270D01*
X145587497Y-84280591D01*
X145548307Y-84377114D01*
X145517573Y-84513136D01*
X145493927Y-84693949D01*
X145476000Y-84924849D01*
X145462425Y-85211129D01*
X145456569Y-85385710D01*
X145436862Y-86041045D01*
X145555163Y-86195335D01*
X145648387Y-86330812D01*
X145729122Y-86473706D01*
X145789090Y-86607093D01*
X145820012Y-86714052D01*
X145822440Y-86741701D01*
X145793920Y-86870978D01*
X145712684Y-87010316D01*
X145586737Y-87151191D01*
X145424082Y-87285077D01*
X145232721Y-87403447D01*
X145172771Y-87433766D01*
X145061252Y-87484795D01*
X144968523Y-87522482D01*
X144912037Y-87539827D01*
X144907219Y-87540250D01*
X144812666Y-87565729D01*
X144707740Y-87632058D01*
X144611976Y-87724071D01*
X144548636Y-87818623D01*
X144516609Y-87893460D01*
X144498119Y-87967055D01*
X144491036Y-88057865D01*
X144493226Y-88184351D01*
X144497053Y-88265216D01*
X144523483Y-88522509D01*
X144575534Y-88730839D01*
X144657081Y-88900902D01*
X144771997Y-89043397D01*
X144782634Y-89053816D01*
X144877983Y-89131200D01*
X145022940Y-89229505D01*
X145209083Y-89343876D01*
X145427987Y-89469455D01*
X145671229Y-89601386D01*
X145930385Y-89734813D01*
X146153195Y-89844008D01*
X146334158Y-89932536D01*
X146470945Y-90006955D01*
X146577537Y-90078662D01*
X146667910Y-90159049D01*
X146756045Y-90259514D01*
X146855918Y-90391449D01*
X146900650Y-90453312D01*
X146978208Y-90555605D01*
X147045442Y-90634130D01*
X147091943Y-90677148D01*
X147103235Y-90681800D01*
X147145178Y-90661536D01*
X147217838Y-90610363D01*
X147296487Y-90546862D01*
X147389217Y-90465738D01*
X147508851Y-90358317D01*
X147636168Y-90241945D01*
X147700748Y-90182047D01*
X147851066Y-90047823D01*
X147976166Y-89954544D01*
X148092262Y-89895035D01*
X148215565Y-89862120D01*
X148362289Y-89848623D01*
X148458000Y-89846879D01*
X148727875Y-89846059D01*
X149251750Y-89318441D01*
X149429932Y-89140357D01*
X149574329Y-89000109D01*
X149694780Y-88889388D01*
X149801124Y-88799887D01*
X149903201Y-88723298D01*
X150010849Y-88651312D01*
X150125488Y-88580673D01*
X150435773Y-88371184D01*
X150694370Y-88142923D01*
X150912756Y-87883607D01*
X150935981Y-87846544D01*
X149552094Y-87846544D01*
X149544121Y-87973287D01*
X149504329Y-88096529D01*
X149489672Y-88127625D01*
X149432573Y-88215196D01*
X149349352Y-88287346D01*
X149237350Y-88352489D01*
X149096555Y-88435276D01*
X149003139Y-88521016D01*
X148943922Y-88628078D01*
X148905724Y-88774834D01*
X148896726Y-88827257D01*
X148865792Y-88977103D01*
X148822694Y-89080796D01*
X148756430Y-89155673D01*
X148655998Y-89219071D01*
X148644225Y-89225155D01*
X148500231Y-89289476D01*
X148347228Y-89337366D01*
X148174130Y-89370454D01*
X147969853Y-89390366D01*
X147723312Y-89398731D01*
X147467677Y-89397909D01*
X146874228Y-89388993D01*
X146610427Y-89259865D01*
X146481229Y-89193413D01*
X146363953Y-89127440D01*
X146277800Y-89072946D01*
X146257194Y-89057517D01*
X146167762Y-88984297D01*
X146220669Y-88746461D01*
X146258725Y-88593664D01*
X146300715Y-88480067D01*
X146358712Y-88381890D01*
X146444786Y-88275357D01*
X146479766Y-88236134D01*
X146584269Y-88142947D01*
X146672525Y-88110426D01*
X146742529Y-88137354D01*
X146792274Y-88222515D01*
X146819756Y-88364693D01*
X146824281Y-88445125D01*
X146827576Y-88553460D01*
X146831278Y-88637858D01*
X146833861Y-88672891D01*
X146862848Y-88692652D01*
X146946078Y-88703240D01*
X147087596Y-88705109D01*
X147115329Y-88704641D01*
X147248493Y-88701190D01*
X147333838Y-88693928D01*
X147387031Y-88677786D01*
X147423742Y-88647690D01*
X147459639Y-88598571D01*
X147464275Y-88591692D01*
X147514137Y-88494682D01*
X147521880Y-88397980D01*
X147517691Y-88365736D01*
X147513473Y-88233780D01*
X147546732Y-88149788D01*
X147611753Y-88115175D01*
X147702819Y-88131354D01*
X147814217Y-88199740D01*
X147894446Y-88272475D01*
X147998311Y-88368282D01*
X148071066Y-88412401D01*
X148104516Y-88413769D01*
X148183712Y-88377404D01*
X148300683Y-88315652D01*
X148439853Y-88237567D01*
X148585649Y-88152204D01*
X148722498Y-88068619D01*
X148834825Y-87995867D01*
X148887547Y-87958497D01*
X148984801Y-87876292D01*
X148422820Y-87876292D01*
X148418671Y-87975143D01*
X148369133Y-88069469D01*
X148283375Y-88138327D01*
X148185193Y-88157929D01*
X148081498Y-88118401D01*
X148032021Y-88078445D01*
X147976521Y-87988182D01*
X147971628Y-87888300D01*
X148010208Y-87795609D01*
X148085129Y-87726916D01*
X148189257Y-87699030D01*
X148193046Y-87699000D01*
X148306998Y-87723579D01*
X148384593Y-87787557D01*
X148422820Y-87876292D01*
X148984801Y-87876292D01*
X148993105Y-87869273D01*
X149044894Y-87795769D01*
X149041297Y-87730156D01*
X148980698Y-87664607D01*
X148861481Y-87591293D01*
X148805776Y-87562435D01*
X148581156Y-87469481D01*
X148371376Y-87422239D01*
X148186148Y-87422383D01*
X148103798Y-87441395D01*
X148035584Y-87477239D01*
X147936013Y-87546174D01*
X147819708Y-87637492D01*
X147726166Y-87717921D01*
X147539872Y-87876340D01*
X147376325Y-87998192D01*
X147240565Y-88080295D01*
X147137632Y-88119467D01*
X147089256Y-88120035D01*
X147044295Y-88093185D01*
X146964019Y-88030826D01*
X146858809Y-87941537D01*
X146739047Y-87833900D01*
X146706595Y-87803769D01*
X146567931Y-87675393D01*
X146462464Y-87583375D01*
X146377556Y-87520126D01*
X146300570Y-87478057D01*
X146218867Y-87449579D01*
X146119811Y-87427102D01*
X146060735Y-87415911D01*
X145916185Y-87381039D01*
X145828905Y-87338991D01*
X145792781Y-87286437D01*
X145791000Y-87269079D01*
X145810516Y-87225824D01*
X145861764Y-87151397D01*
X145933799Y-87061645D01*
X145936362Y-87058655D01*
X146013476Y-86966369D01*
X146075577Y-86887548D01*
X146109052Y-86839514D01*
X146110656Y-86790264D01*
X146083148Y-86697124D01*
X146025153Y-86556075D01*
X145973206Y-86442639D01*
X145903189Y-86290958D01*
X145856585Y-86178629D01*
X145828588Y-86088122D01*
X145814390Y-86001902D01*
X145809188Y-85902439D01*
X145808453Y-85841625D01*
X145810559Y-85703721D01*
X145822549Y-85604466D01*
X145849852Y-85519163D01*
X145897897Y-85423118D01*
X145902125Y-85415448D01*
X146007842Y-85266949D01*
X146140449Y-85144447D01*
X146286734Y-85055944D01*
X146433483Y-85009441D01*
X146567028Y-85012824D01*
X146621158Y-85041847D01*
X146709098Y-85106086D01*
X146819215Y-85196401D01*
X146939878Y-85303654D01*
X146954593Y-85317303D01*
X147233287Y-85547891D01*
X147530538Y-85740628D01*
X147835386Y-85890005D01*
X148136867Y-85990512D01*
X148378625Y-86033058D01*
X148573776Y-86059638D01*
X148715359Y-86102540D01*
X148812918Y-86171062D01*
X148875996Y-86274504D01*
X148914137Y-86422167D01*
X148932610Y-86572886D01*
X148951020Y-86727990D01*
X148975300Y-86834883D01*
X149009425Y-86908827D01*
X149026028Y-86931743D01*
X149215138Y-87173951D01*
X149359768Y-87380004D01*
X149462449Y-87556434D01*
X149525714Y-87709770D01*
X149552094Y-87846544D01*
X150935981Y-87846544D01*
X151102411Y-87580953D01*
X151156921Y-87476892D01*
X151274289Y-87217987D01*
X151348084Y-86994862D01*
X151377838Y-86809911D01*
X151363084Y-86665528D01*
X151329448Y-86594633D01*
X151253617Y-86517967D01*
X151141997Y-86460296D01*
X150984366Y-86417372D01*
X150848878Y-86394879D01*
X150666689Y-86365501D01*
X150530280Y-86331779D01*
X150421950Y-86287862D01*
X150323997Y-86227899D01*
X150307426Y-86215925D01*
X150210654Y-86151544D01*
X150112014Y-86103624D01*
X149998495Y-86068901D01*
X149857090Y-86044111D01*
X149674791Y-86025988D01*
X149506636Y-86014993D01*
X149271826Y-85999152D01*
X149092061Y-85980499D01*
X148958890Y-85957054D01*
X148863861Y-85926835D01*
X148798526Y-85887861D01*
X148754829Y-85838760D01*
X148707879Y-85778801D01*
X148650533Y-85736691D01*
X148569538Y-85707699D01*
X148451644Y-85687096D01*
X148283602Y-85670149D01*
X148282254Y-85670035D01*
X148154306Y-85656111D01*
X148037976Y-85634589D01*
X147925972Y-85601366D01*
X147811000Y-85552343D01*
X147685769Y-85483420D01*
X147542985Y-85390495D01*
X147375355Y-85269469D01*
X147175587Y-85116240D01*
X146936388Y-84926708D01*
X146880233Y-84881726D01*
X146630962Y-84683840D01*
X146423718Y-84524395D01*
X146252904Y-84399831D01*
X146112921Y-84306585D01*
X145998173Y-84241098D01*
X145903062Y-84199807D01*
X145821991Y-84179152D01*
X145769492Y-84175060D01*
X145696722Y-84184858D01*
G37*
X145696722Y-84184858D02*
X145636513Y-84218270D01*
X145587497Y-84280591D01*
X145548307Y-84377114D01*
X145517573Y-84513136D01*
X145493927Y-84693949D01*
X145476000Y-84924849D01*
X145462425Y-85211129D01*
X145456569Y-85385710D01*
X145436862Y-86041045D01*
X145555163Y-86195335D01*
X145648387Y-86330812D01*
X145729122Y-86473706D01*
X145789090Y-86607093D01*
X145820012Y-86714052D01*
X145822440Y-86741701D01*
X145793920Y-86870978D01*
X145712684Y-87010316D01*
X145586737Y-87151191D01*
X145424082Y-87285077D01*
X145232721Y-87403447D01*
X145172771Y-87433766D01*
X145061252Y-87484795D01*
X144968523Y-87522482D01*
X144912037Y-87539827D01*
X144907219Y-87540250D01*
X144812666Y-87565729D01*
X144707740Y-87632058D01*
X144611976Y-87724071D01*
X144548636Y-87818623D01*
X144516609Y-87893460D01*
X144498119Y-87967055D01*
X144491036Y-88057865D01*
X144493226Y-88184351D01*
X144497053Y-88265216D01*
X144523483Y-88522509D01*
X144575534Y-88730839D01*
X144657081Y-88900902D01*
X144771997Y-89043397D01*
X144782634Y-89053816D01*
X144877983Y-89131200D01*
X145022940Y-89229505D01*
X145209083Y-89343876D01*
X145427987Y-89469455D01*
X145671229Y-89601386D01*
X145930385Y-89734813D01*
X146153195Y-89844008D01*
X146334158Y-89932536D01*
X146470945Y-90006955D01*
X146577537Y-90078662D01*
X146667910Y-90159049D01*
X146756045Y-90259514D01*
X146855918Y-90391449D01*
X146900650Y-90453312D01*
X146978208Y-90555605D01*
X147045442Y-90634130D01*
X147091943Y-90677148D01*
X147103235Y-90681800D01*
X147145178Y-90661536D01*
X147217838Y-90610363D01*
X147296487Y-90546862D01*
X147389217Y-90465738D01*
X147508851Y-90358317D01*
X147636168Y-90241945D01*
X147700748Y-90182047D01*
X147851066Y-90047823D01*
X147976166Y-89954544D01*
X148092262Y-89895035D01*
X148215565Y-89862120D01*
X148362289Y-89848623D01*
X148458000Y-89846879D01*
X148727875Y-89846059D01*
X149251750Y-89318441D01*
X149429932Y-89140357D01*
X149574329Y-89000109D01*
X149694780Y-88889388D01*
X149801124Y-88799887D01*
X149903201Y-88723298D01*
X150010849Y-88651312D01*
X150125488Y-88580673D01*
X150435773Y-88371184D01*
X150694370Y-88142923D01*
X150912756Y-87883607D01*
X150935981Y-87846544D01*
X149552094Y-87846544D01*
X149544121Y-87973287D01*
X149504329Y-88096529D01*
X149489672Y-88127625D01*
X149432573Y-88215196D01*
X149349352Y-88287346D01*
X149237350Y-88352489D01*
X149096555Y-88435276D01*
X149003139Y-88521016D01*
X148943922Y-88628078D01*
X148905724Y-88774834D01*
X148896726Y-88827257D01*
X148865792Y-88977103D01*
X148822694Y-89080796D01*
X148756430Y-89155673D01*
X148655998Y-89219071D01*
X148644225Y-89225155D01*
X148500231Y-89289476D01*
X148347228Y-89337366D01*
X148174130Y-89370454D01*
X147969853Y-89390366D01*
X147723312Y-89398731D01*
X147467677Y-89397909D01*
X146874228Y-89388993D01*
X146610427Y-89259865D01*
X146481229Y-89193413D01*
X146363953Y-89127440D01*
X146277800Y-89072946D01*
X146257194Y-89057517D01*
X146167762Y-88984297D01*
X146220669Y-88746461D01*
X146258725Y-88593664D01*
X146300715Y-88480067D01*
X146358712Y-88381890D01*
X146444786Y-88275357D01*
X146479766Y-88236134D01*
X146584269Y-88142947D01*
X146672525Y-88110426D01*
X146742529Y-88137354D01*
X146792274Y-88222515D01*
X146819756Y-88364693D01*
X146824281Y-88445125D01*
X146827576Y-88553460D01*
X146831278Y-88637858D01*
X146833861Y-88672891D01*
X146862848Y-88692652D01*
X146946078Y-88703240D01*
X147087596Y-88705109D01*
X147115329Y-88704641D01*
X147248493Y-88701190D01*
X147333838Y-88693928D01*
X147387031Y-88677786D01*
X147423742Y-88647690D01*
X147459639Y-88598571D01*
X147464275Y-88591692D01*
X147514137Y-88494682D01*
X147521880Y-88397980D01*
X147517691Y-88365736D01*
X147513473Y-88233780D01*
X147546732Y-88149788D01*
X147611753Y-88115175D01*
X147702819Y-88131354D01*
X147814217Y-88199740D01*
X147894446Y-88272475D01*
X147998311Y-88368282D01*
X148071066Y-88412401D01*
X148104516Y-88413769D01*
X148183712Y-88377404D01*
X148300683Y-88315652D01*
X148439853Y-88237567D01*
X148585649Y-88152204D01*
X148722498Y-88068619D01*
X148834825Y-87995867D01*
X148887547Y-87958497D01*
X148984801Y-87876292D01*
X148422820Y-87876292D01*
X148418671Y-87975143D01*
X148369133Y-88069469D01*
X148283375Y-88138327D01*
X148185193Y-88157929D01*
X148081498Y-88118401D01*
X148032021Y-88078445D01*
X147976521Y-87988182D01*
X147971628Y-87888300D01*
X148010208Y-87795609D01*
X148085129Y-87726916D01*
X148189257Y-87699030D01*
X148193046Y-87699000D01*
X148306998Y-87723579D01*
X148384593Y-87787557D01*
X148422820Y-87876292D01*
X148984801Y-87876292D01*
X148993105Y-87869273D01*
X149044894Y-87795769D01*
X149041297Y-87730156D01*
X148980698Y-87664607D01*
X148861481Y-87591293D01*
X148805776Y-87562435D01*
X148581156Y-87469481D01*
X148371376Y-87422239D01*
X148186148Y-87422383D01*
X148103798Y-87441395D01*
X148035584Y-87477239D01*
X147936013Y-87546174D01*
X147819708Y-87637492D01*
X147726166Y-87717921D01*
X147539872Y-87876340D01*
X147376325Y-87998192D01*
X147240565Y-88080295D01*
X147137632Y-88119467D01*
X147089256Y-88120035D01*
X147044295Y-88093185D01*
X146964019Y-88030826D01*
X146858809Y-87941537D01*
X146739047Y-87833900D01*
X146706595Y-87803769D01*
X146567931Y-87675393D01*
X146462464Y-87583375D01*
X146377556Y-87520126D01*
X146300570Y-87478057D01*
X146218867Y-87449579D01*
X146119811Y-87427102D01*
X146060735Y-87415911D01*
X145916185Y-87381039D01*
X145828905Y-87338991D01*
X145792781Y-87286437D01*
X145791000Y-87269079D01*
X145810516Y-87225824D01*
X145861764Y-87151397D01*
X145933799Y-87061645D01*
X145936362Y-87058655D01*
X146013476Y-86966369D01*
X146075577Y-86887548D01*
X146109052Y-86839514D01*
X146110656Y-86790264D01*
X146083148Y-86697124D01*
X146025153Y-86556075D01*
X145973206Y-86442639D01*
X145903189Y-86290958D01*
X145856585Y-86178629D01*
X145828588Y-86088122D01*
X145814390Y-86001902D01*
X145809188Y-85902439D01*
X145808453Y-85841625D01*
X145810559Y-85703721D01*
X145822549Y-85604466D01*
X145849852Y-85519163D01*
X145897897Y-85423118D01*
X145902125Y-85415448D01*
X146007842Y-85266949D01*
X146140449Y-85144447D01*
X146286734Y-85055944D01*
X146433483Y-85009441D01*
X146567028Y-85012824D01*
X146621158Y-85041847D01*
X146709098Y-85106086D01*
X146819215Y-85196401D01*
X146939878Y-85303654D01*
X146954593Y-85317303D01*
X147233287Y-85547891D01*
X147530538Y-85740628D01*
X147835386Y-85890005D01*
X148136867Y-85990512D01*
X148378625Y-86033058D01*
X148573776Y-86059638D01*
X148715359Y-86102540D01*
X148812918Y-86171062D01*
X148875996Y-86274504D01*
X148914137Y-86422167D01*
X148932610Y-86572886D01*
X148951020Y-86727990D01*
X148975300Y-86834883D01*
X149009425Y-86908827D01*
X149026028Y-86931743D01*
X149215138Y-87173951D01*
X149359768Y-87380004D01*
X149462449Y-87556434D01*
X149525714Y-87709770D01*
X149552094Y-87846544D01*
X150935981Y-87846544D01*
X151102411Y-87580953D01*
X151156921Y-87476892D01*
X151274289Y-87217987D01*
X151348084Y-86994862D01*
X151377838Y-86809911D01*
X151363084Y-86665528D01*
X151329448Y-86594633D01*
X151253617Y-86517967D01*
X151141997Y-86460296D01*
X150984366Y-86417372D01*
X150848878Y-86394879D01*
X150666689Y-86365501D01*
X150530280Y-86331779D01*
X150421950Y-86287862D01*
X150323997Y-86227899D01*
X150307426Y-86215925D01*
X150210654Y-86151544D01*
X150112014Y-86103624D01*
X149998495Y-86068901D01*
X149857090Y-86044111D01*
X149674791Y-86025988D01*
X149506636Y-86014993D01*
X149271826Y-85999152D01*
X149092061Y-85980499D01*
X148958890Y-85957054D01*
X148863861Y-85926835D01*
X148798526Y-85887861D01*
X148754829Y-85838760D01*
X148707879Y-85778801D01*
X148650533Y-85736691D01*
X148569538Y-85707699D01*
X148451644Y-85687096D01*
X148283602Y-85670149D01*
X148282254Y-85670035D01*
X148154306Y-85656111D01*
X148037976Y-85634589D01*
X147925972Y-85601366D01*
X147811000Y-85552343D01*
X147685769Y-85483420D01*
X147542985Y-85390495D01*
X147375355Y-85269469D01*
X147175587Y-85116240D01*
X146936388Y-84926708D01*
X146880233Y-84881726D01*
X146630962Y-84683840D01*
X146423718Y-84524395D01*
X146252904Y-84399831D01*
X146112921Y-84306585D01*
X145998173Y-84241098D01*
X145903062Y-84199807D01*
X145821991Y-84179152D01*
X145769492Y-84175060D01*
X145696722Y-84184858D01*
G36*
X148776207Y-92778658D02*
G01*
X148672302Y-92833282D01*
X148596949Y-92881297D01*
X148563237Y-92914103D01*
X148562834Y-92918874D01*
X148597058Y-92939198D01*
X148683509Y-92969861D01*
X148812207Y-93008456D01*
X148973172Y-93052575D01*
X149156422Y-93099811D01*
X149351977Y-93147755D01*
X149549858Y-93194002D01*
X149740083Y-93236142D01*
X149912672Y-93271769D01*
X150057644Y-93298475D01*
X150165020Y-93313853D01*
X150211649Y-93316607D01*
X150308840Y-93306456D01*
X150424656Y-93283744D01*
X150458250Y-93275130D01*
X150588627Y-93232319D01*
X150709943Y-93180431D01*
X150810867Y-93125990D01*
X150880064Y-93075517D01*
X150906202Y-93035533D01*
X150899337Y-93021310D01*
X150865770Y-93013360D01*
X150778642Y-92996714D01*
X150647048Y-92972996D01*
X150480084Y-92943832D01*
X150286843Y-92910846D01*
X150188375Y-92894291D01*
X149967480Y-92856751D01*
X149751418Y-92818974D01*
X149553742Y-92783410D01*
X149388006Y-92752506D01*
X149267762Y-92728711D01*
X149245037Y-92723863D01*
X149000199Y-92670297D01*
X148776207Y-92778658D01*
G37*
X148776207Y-92778658D02*
X148672302Y-92833282D01*
X148596949Y-92881297D01*
X148563237Y-92914103D01*
X148562834Y-92918874D01*
X148597058Y-92939198D01*
X148683509Y-92969861D01*
X148812207Y-93008456D01*
X148973172Y-93052575D01*
X149156422Y-93099811D01*
X149351977Y-93147755D01*
X149549858Y-93194002D01*
X149740083Y-93236142D01*
X149912672Y-93271769D01*
X150057644Y-93298475D01*
X150165020Y-93313853D01*
X150211649Y-93316607D01*
X150308840Y-93306456D01*
X150424656Y-93283744D01*
X150458250Y-93275130D01*
X150588627Y-93232319D01*
X150709943Y-93180431D01*
X150810867Y-93125990D01*
X150880064Y-93075517D01*
X150906202Y-93035533D01*
X150899337Y-93021310D01*
X150865770Y-93013360D01*
X150778642Y-92996714D01*
X150647048Y-92972996D01*
X150480084Y-92943832D01*
X150286843Y-92910846D01*
X150188375Y-92894291D01*
X149967480Y-92856751D01*
X149751418Y-92818974D01*
X149553742Y-92783410D01*
X149388006Y-92752506D01*
X149267762Y-92728711D01*
X149245037Y-92723863D01*
X149000199Y-92670297D01*
X148776207Y-92778658D01*
G36*
X152197922Y-93249945D02*
G01*
X152121150Y-93259631D01*
X152057574Y-93276283D01*
X151994622Y-93301250D01*
X151947626Y-93322791D01*
X151796695Y-93413787D01*
X151690867Y-93521009D01*
X151637769Y-93635777D01*
X151633000Y-93680838D01*
X151637329Y-93728523D01*
X151660841Y-93753035D01*
X151719324Y-93762046D01*
X151802605Y-93763250D01*
X151900078Y-93764621D01*
X152042357Y-93768363D01*
X152210818Y-93773913D01*
X152386834Y-93780711D01*
X152397918Y-93781175D01*
X152590974Y-93787349D01*
X152730467Y-93786781D01*
X152826021Y-93779017D01*
X152887262Y-93763601D01*
X152900479Y-93757363D01*
X152947624Y-93713678D01*
X153005483Y-93635408D01*
X153065269Y-93538411D01*
X153118197Y-93438550D01*
X153155479Y-93351684D01*
X153168328Y-93293676D01*
X153164098Y-93281498D01*
X153126032Y-93273176D01*
X153035744Y-93264989D01*
X152904511Y-93257624D01*
X152743610Y-93251766D01*
X152633125Y-93249179D01*
X152441339Y-93246069D01*
X152300461Y-93245874D01*
X152197922Y-93249945D01*
G37*
X152197922Y-93249945D02*
X152121150Y-93259631D01*
X152057574Y-93276283D01*
X151994622Y-93301250D01*
X151947626Y-93322791D01*
X151796695Y-93413787D01*
X151690867Y-93521009D01*
X151637769Y-93635777D01*
X151633000Y-93680838D01*
X151637329Y-93728523D01*
X151660841Y-93753035D01*
X151719324Y-93762046D01*
X151802605Y-93763250D01*
X151900078Y-93764621D01*
X152042357Y-93768363D01*
X152210818Y-93773913D01*
X152386834Y-93780711D01*
X152397918Y-93781175D01*
X152590974Y-93787349D01*
X152730467Y-93786781D01*
X152826021Y-93779017D01*
X152887262Y-93763601D01*
X152900479Y-93757363D01*
X152947624Y-93713678D01*
X153005483Y-93635408D01*
X153065269Y-93538411D01*
X153118197Y-93438550D01*
X153155479Y-93351684D01*
X153168328Y-93293676D01*
X153164098Y-93281498D01*
X153126032Y-93273176D01*
X153035744Y-93264989D01*
X152904511Y-93257624D01*
X152743610Y-93251766D01*
X152633125Y-93249179D01*
X152441339Y-93246069D01*
X152300461Y-93245874D01*
X152197922Y-93249945D01*
G36*
X148124920Y-93060744D02*
G01*
X148052899Y-93087020D01*
X148036687Y-93093820D01*
X147920510Y-93140968D01*
X147790364Y-93191162D01*
X147748868Y-93206538D01*
X147667755Y-93241729D01*
X147623700Y-93272169D01*
X147621868Y-93285517D01*
X147689664Y-93322343D01*
X147811951Y-93366267D01*
X147980340Y-93415553D01*
X148186441Y-93468463D01*
X148421862Y-93523260D01*
X148678215Y-93578205D01*
X148947109Y-93631561D01*
X149220153Y-93681591D01*
X149488957Y-93726558D01*
X149745131Y-93764723D01*
X149980286Y-93794349D01*
X150164563Y-93812086D01*
X150304293Y-93821560D01*
X150392127Y-93822994D01*
X150439271Y-93815449D01*
X150456930Y-93797991D01*
X150458250Y-93787549D01*
X150428894Y-93713637D01*
X150348553Y-93637415D01*
X150228826Y-93567350D01*
X150081306Y-93511906D01*
X150080282Y-93511612D01*
X149984244Y-93485830D01*
X149839643Y-93449227D01*
X149659833Y-93405077D01*
X149458168Y-93356652D01*
X149248001Y-93307226D01*
X149220000Y-93300724D01*
X149010617Y-93251685D01*
X148808796Y-93203516D01*
X148627653Y-93159415D01*
X148480304Y-93122581D01*
X148379864Y-93096212D01*
X148370062Y-93093472D01*
X148259550Y-93063995D01*
X148185820Y-93053077D01*
X148124920Y-93060744D01*
G37*
X148124920Y-93060744D02*
X148052899Y-93087020D01*
X148036687Y-93093820D01*
X147920510Y-93140968D01*
X147790364Y-93191162D01*
X147748868Y-93206538D01*
X147667755Y-93241729D01*
X147623700Y-93272169D01*
X147621868Y-93285517D01*
X147689664Y-93322343D01*
X147811951Y-93366267D01*
X147980340Y-93415553D01*
X148186441Y-93468463D01*
X148421862Y-93523260D01*
X148678215Y-93578205D01*
X148947109Y-93631561D01*
X149220153Y-93681591D01*
X149488957Y-93726558D01*
X149745131Y-93764723D01*
X149980286Y-93794349D01*
X150164563Y-93812086D01*
X150304293Y-93821560D01*
X150392127Y-93822994D01*
X150439271Y-93815449D01*
X150456930Y-93797991D01*
X150458250Y-93787549D01*
X150428894Y-93713637D01*
X150348553Y-93637415D01*
X150228826Y-93567350D01*
X150081306Y-93511906D01*
X150080282Y-93511612D01*
X149984244Y-93485830D01*
X149839643Y-93449227D01*
X149659833Y-93405077D01*
X149458168Y-93356652D01*
X149248001Y-93307226D01*
X149220000Y-93300724D01*
X149010617Y-93251685D01*
X148808796Y-93203516D01*
X148627653Y-93159415D01*
X148480304Y-93122581D01*
X148379864Y-93096212D01*
X148370062Y-93093472D01*
X148259550Y-93063995D01*
X148185820Y-93053077D01*
X148124920Y-93060744D01*
G36*
X147018993Y-82452132D02*
G01*
X146667571Y-82471507D01*
X146394250Y-82495958D01*
X146074950Y-82541813D01*
X145777329Y-82611017D01*
X145492868Y-82707884D01*
X145213049Y-82836725D01*
X144929353Y-83001853D01*
X144633263Y-83207582D01*
X144316259Y-83458223D01*
X144060625Y-83677419D01*
X143773139Y-83940987D01*
X143538844Y-84178859D01*
X143354668Y-84394777D01*
X143217537Y-84592481D01*
X143124378Y-84775710D01*
X143097578Y-84849394D01*
X143053691Y-84994682D01*
X143026997Y-85112168D01*
X143015562Y-85223440D01*
X143017452Y-85350086D01*
X143030732Y-85513694D01*
X143034567Y-85552580D01*
X143051828Y-85760326D01*
X143054092Y-85918673D01*
X143038247Y-86040603D01*
X143001180Y-86139094D01*
X142939779Y-86227127D01*
X142851144Y-86317484D01*
X142769676Y-86399442D01*
X142707832Y-86481031D01*
X142663829Y-86571656D01*
X142635881Y-86680724D01*
X142622204Y-86817642D01*
X142621012Y-86991815D01*
X142630521Y-87212650D01*
X142643432Y-87412138D01*
X142659264Y-87631634D01*
X142673807Y-87802196D01*
X142689828Y-87938260D01*
X142710097Y-88054265D01*
X142737382Y-88164644D01*
X142774450Y-88283836D01*
X142824070Y-88426277D01*
X142853693Y-88508625D01*
X142908575Y-88668663D01*
X142941090Y-88787581D01*
X142954753Y-88882245D01*
X142953077Y-88969521D01*
X142952004Y-88980379D01*
X142920588Y-89111477D01*
X142856538Y-89268352D01*
X142769867Y-89429734D01*
X142675114Y-89568594D01*
X142631929Y-89642794D01*
X142616000Y-89703531D01*
X142603065Y-89752771D01*
X142587010Y-89762750D01*
X142540070Y-89742930D01*
X142453795Y-89687891D01*
X142336607Y-89604263D01*
X142196930Y-89498674D01*
X142043188Y-89377754D01*
X141883803Y-89248133D01*
X141727200Y-89116439D01*
X141581800Y-88989303D01*
X141456029Y-88873354D01*
X141451793Y-88869300D01*
X141159932Y-88588866D01*
X140907936Y-88345310D01*
X140689281Y-88132148D01*
X140497440Y-87942896D01*
X140325890Y-87771070D01*
X140168106Y-87610187D01*
X140017562Y-87453762D01*
X139867734Y-87295312D01*
X139866391Y-87293882D01*
X139734501Y-87154950D01*
X139616812Y-87034117D01*
X139520316Y-86938303D01*
X139452002Y-86874431D01*
X139418861Y-86849422D01*
X139417515Y-86849382D01*
X139396450Y-86887939D01*
X139402445Y-86973244D01*
X139431994Y-87096386D01*
X139481595Y-87248454D01*
X139547743Y-87420534D01*
X139626932Y-87603716D01*
X139715660Y-87789086D01*
X139810420Y-87967735D01*
X139907710Y-88130748D01*
X139941718Y-88182471D01*
X140017347Y-88295187D01*
X140116212Y-88443909D01*
X140226915Y-88611423D01*
X140338057Y-88780514D01*
X140367916Y-88826125D01*
X140505090Y-89028690D01*
X140643758Y-89217032D01*
X140789604Y-89396610D01*
X140948314Y-89572886D01*
X141125570Y-89751318D01*
X141327057Y-89937368D01*
X141558459Y-90136495D01*
X141825459Y-90354159D01*
X142133742Y-90595821D01*
X142488992Y-90866942D01*
X142504875Y-90878942D01*
X142696091Y-91017111D01*
X142921571Y-91169613D01*
X143173712Y-91332126D01*
X143444908Y-91500327D01*
X143727556Y-91669892D01*
X144014051Y-91836500D01*
X144296788Y-91995826D01*
X144568162Y-92143549D01*
X144820569Y-92275344D01*
X145046404Y-92386890D01*
X145238063Y-92473863D01*
X145387942Y-92531940D01*
X145440393Y-92547668D01*
X145514988Y-92557793D01*
X145607537Y-92550219D01*
X145734008Y-92522867D01*
X145829331Y-92497085D01*
X145951708Y-92460083D01*
X146046809Y-92426709D01*
X146101003Y-92401976D01*
X146108500Y-92394377D01*
X146081106Y-92374887D01*
X146003638Y-92331389D01*
X145883172Y-92267556D01*
X145726783Y-92187062D01*
X145541547Y-92093581D01*
X145334539Y-91990788D01*
X145273123Y-91960584D01*
X144998504Y-91824388D01*
X144776802Y-91711081D01*
X144602889Y-91617807D01*
X144471634Y-91541713D01*
X144377908Y-91479944D01*
X144316580Y-91429646D01*
X144313514Y-91426626D01*
X144244573Y-91355862D01*
X144216876Y-91317529D01*
X144225987Y-91299946D01*
X144262443Y-91292144D01*
X144316248Y-91302952D01*
X144420222Y-91341414D01*
X144568629Y-91405071D01*
X144755735Y-91491462D01*
X144975802Y-91598127D01*
X144975989Y-91598220D01*
X145347628Y-91780622D01*
X145664612Y-91933359D01*
X145928142Y-92056972D01*
X146139419Y-92152000D01*
X146299645Y-92218985D01*
X146410019Y-92258468D01*
X146470605Y-92271000D01*
X146543621Y-92259983D01*
X146648721Y-92231534D01*
X146731937Y-92203160D01*
X146829735Y-92164719D01*
X146876351Y-92138538D01*
X146880736Y-92116484D01*
X146854163Y-92092110D01*
X146801365Y-92063486D01*
X146703867Y-92019236D01*
X146576493Y-91965842D01*
X146459723Y-91919618D01*
X146086773Y-91772426D01*
X145758017Y-91634294D01*
X145456550Y-91496977D01*
X145165466Y-91352235D01*
X144867862Y-91191824D01*
X144546832Y-91007502D01*
X144354236Y-90892994D01*
X144102842Y-90740986D01*
X143860391Y-90592286D01*
X143632845Y-90450721D01*
X143426168Y-90320114D01*
X143246320Y-90204293D01*
X143099265Y-90107082D01*
X142990966Y-90032307D01*
X142927384Y-89983794D01*
X142912890Y-89968234D01*
X142916154Y-89922456D01*
X142937640Y-89836185D01*
X142972407Y-89728938D01*
X143045349Y-89524625D01*
X143180160Y-89523507D01*
X143285895Y-89509762D01*
X143366147Y-89463497D01*
X143433099Y-89374120D01*
X143489308Y-89254750D01*
X143542429Y-89143107D01*
X143603637Y-89037477D01*
X143621885Y-89010805D01*
X143669060Y-88939695D01*
X143694217Y-88889416D01*
X143695500Y-88882612D01*
X143672925Y-88845890D01*
X143612798Y-88779650D01*
X143526516Y-88694820D01*
X143425475Y-88602333D01*
X143321075Y-88513119D01*
X143257737Y-88462770D01*
X143172952Y-88393190D01*
X143108718Y-88324807D01*
X143062230Y-88247614D01*
X143030687Y-88151604D01*
X143011285Y-88026770D01*
X143001222Y-87863105D01*
X142997695Y-87650602D01*
X142997496Y-87533577D01*
X142999920Y-87266008D01*
X143007936Y-87052372D01*
X143023427Y-86883209D01*
X143048276Y-86749061D01*
X143084363Y-86640469D01*
X143133572Y-86547973D01*
X143197784Y-86462116D01*
X143214555Y-86442674D01*
X143346250Y-86293059D01*
X143346767Y-85987967D01*
X143352494Y-85690836D01*
X143367993Y-85419832D01*
X143392308Y-85183518D01*
X143424479Y-84990454D01*
X143463548Y-84849200D01*
X143478072Y-84814831D01*
X143535909Y-84725004D01*
X143641475Y-84596983D01*
X143795272Y-84430206D01*
X143997798Y-84224112D01*
X144043085Y-84179222D01*
X144357018Y-83878447D01*
X144642819Y-83625546D01*
X144907781Y-83415690D01*
X145159191Y-83244049D01*
X145404342Y-83105796D01*
X145650524Y-82996102D01*
X145905026Y-82910136D01*
X145997375Y-82884772D01*
X146283911Y-82830456D01*
X146614610Y-82801765D01*
X146976146Y-82797350D01*
X147355197Y-82815865D01*
X147738438Y-82855960D01*
X148112545Y-82916288D01*
X148464193Y-82995500D01*
X148780059Y-83092249D01*
X149016633Y-83190239D01*
X149210467Y-83297066D01*
X149374942Y-83419825D01*
X149520398Y-83569482D01*
X149657170Y-83756998D01*
X149795598Y-83993338D01*
X149823783Y-84046272D01*
X149966870Y-84297969D01*
X150132088Y-84554129D01*
X150311775Y-84805262D01*
X150498267Y-85041878D01*
X150683902Y-85254488D01*
X150861017Y-85433604D01*
X151021948Y-85569735D01*
X151093250Y-85618288D01*
X151260988Y-85738487D01*
X151414069Y-85880200D01*
X151538677Y-86028692D01*
X151620998Y-86169226D01*
X151629413Y-86190233D01*
X151679313Y-86363826D01*
X151717274Y-86571854D01*
X151740942Y-86791514D01*
X151747962Y-87000002D01*
X151735981Y-87174514D01*
X151732961Y-87193200D01*
X151689749Y-87378971D01*
X151624898Y-87547912D01*
X151531264Y-87711695D01*
X151401702Y-87881995D01*
X151229065Y-88070484D01*
X151143219Y-88156675D01*
X150984557Y-88314588D01*
X150866472Y-88436903D01*
X150783138Y-88531368D01*
X150728732Y-88605736D01*
X150697428Y-88667757D01*
X150683403Y-88725182D01*
X150680710Y-88772139D01*
X150694581Y-88878016D01*
X150740714Y-88987455D01*
X150825244Y-89110996D01*
X150954307Y-89259180D01*
X150980088Y-89286500D01*
X151082407Y-89402587D01*
X151178415Y-89526776D01*
X151261209Y-89648107D01*
X151323885Y-89755619D01*
X151359538Y-89838352D01*
X151361264Y-89885348D01*
X151358981Y-89887960D01*
X151306532Y-89928165D01*
X151207795Y-89997292D01*
X151070262Y-90090497D01*
X150901425Y-90202934D01*
X150708774Y-90329761D01*
X150499800Y-90466132D01*
X150281995Y-90607203D01*
X150062850Y-90748131D01*
X149849855Y-90884070D01*
X149650503Y-91010177D01*
X149472284Y-91121607D01*
X149322689Y-91213516D01*
X149209210Y-91281059D01*
X149172375Y-91301964D01*
X148886589Y-91459446D01*
X148649090Y-91588679D01*
X148453149Y-91693118D01*
X148292034Y-91776218D01*
X148159012Y-91841431D01*
X148047353Y-91892212D01*
X147950325Y-91932016D01*
X147927781Y-91940575D01*
X147819338Y-91981980D01*
X147669305Y-92040467D01*
X147494935Y-92109253D01*
X147313482Y-92181556D01*
X147251500Y-92206434D01*
X147040908Y-92288306D01*
X146801176Y-92376997D01*
X146560808Y-92462201D01*
X146348305Y-92533609D01*
X146334741Y-92537975D01*
X146186013Y-92583376D01*
X145998727Y-92636959D01*
X145781402Y-92696600D01*
X145542557Y-92760178D01*
X145290711Y-92825570D01*
X145034383Y-92890653D01*
X144782092Y-92953306D01*
X144542357Y-93011406D01*
X144323697Y-93062831D01*
X144134631Y-93105457D01*
X143983678Y-93137164D01*
X143879356Y-93155828D01*
X143837974Y-93160000D01*
X143736252Y-93168724D01*
X143650395Y-93190971D01*
X143595303Y-93220847D01*
X143585879Y-93252461D01*
X143590249Y-93257948D01*
X143634376Y-93283109D01*
X143721480Y-93320107D01*
X143834007Y-93361583D01*
X143852461Y-93367894D01*
X144093147Y-93427870D01*
X144343443Y-93445196D01*
X144616580Y-93419856D01*
X144868908Y-93366715D01*
X145086172Y-93306604D01*
X145352232Y-93224781D01*
X145657603Y-93124743D01*
X145992801Y-93009991D01*
X146348341Y-92884024D01*
X146714740Y-92750340D01*
X147082513Y-92612440D01*
X147442175Y-92473821D01*
X147784242Y-92337984D01*
X148099230Y-92208427D01*
X148377654Y-92088650D01*
X148569125Y-92001549D01*
X148765850Y-91905349D01*
X148982123Y-91793304D01*
X149203855Y-91673270D01*
X149416959Y-91553103D01*
X149607344Y-91440661D01*
X149760923Y-91343801D01*
X149815762Y-91306335D01*
X149925458Y-91237577D01*
X150037611Y-91181967D01*
X150136752Y-91145633D01*
X150207417Y-91134706D01*
X150229271Y-91142436D01*
X150228580Y-91175733D01*
X150218450Y-91185288D01*
X150180323Y-91213094D01*
X150104550Y-91269149D01*
X150004335Y-91343669D01*
X149949495Y-91384567D01*
X149611967Y-91619450D01*
X149237005Y-91847341D01*
X148820251Y-92070322D01*
X148357344Y-92290476D01*
X147843925Y-92509884D01*
X147275634Y-92730628D01*
X146695875Y-92938315D01*
X146354090Y-93056035D01*
X146021091Y-93169810D01*
X145703183Y-93277543D01*
X145406668Y-93377142D01*
X145137851Y-93466512D01*
X144903035Y-93543559D01*
X144708523Y-93606189D01*
X144560617Y-93652307D01*
X144465623Y-93679819D01*
X144458299Y-93681714D01*
X144309080Y-93731591D01*
X144194388Y-93793972D01*
X144124695Y-93861979D01*
X144108250Y-93911659D01*
X144132760Y-93938963D01*
X144207853Y-93949415D01*
X144335873Y-93942842D01*
X144519168Y-93919071D01*
X144760081Y-93877927D01*
X144886125Y-93854045D01*
X145252916Y-93781020D01*
X145577008Y-93711754D01*
X145872175Y-93642365D01*
X146152191Y-93568966D01*
X146430831Y-93487675D01*
X146721870Y-93394606D01*
X147039082Y-93285875D01*
X147396241Y-93157597D01*
X147531101Y-93108149D01*
X147825868Y-92998290D01*
X148081364Y-92899509D01*
X148312703Y-92805188D01*
X148534998Y-92708708D01*
X148763361Y-92603451D01*
X149012905Y-92482800D01*
X149298743Y-92340135D01*
X149388478Y-92294766D01*
X149718724Y-92124827D01*
X150018166Y-91964382D01*
X150296307Y-91807303D01*
X150562651Y-91647458D01*
X150826703Y-91478717D01*
X151097965Y-91294950D01*
X151385942Y-91090025D01*
X151700139Y-90857813D01*
X152050058Y-90592183D01*
X152165538Y-90503429D01*
X152429953Y-90284414D01*
X152713825Y-90022021D01*
X153007965Y-89726708D01*
X153303186Y-89408930D01*
X153590300Y-89079143D01*
X153860117Y-88747805D01*
X154103450Y-88425372D01*
X154311111Y-88122299D01*
X154432303Y-87923826D01*
X154585163Y-87630572D01*
X154700194Y-87352532D01*
X154773945Y-87099158D01*
X154801413Y-86913187D01*
X154805123Y-86801853D01*
X154801129Y-86720430D01*
X154790320Y-86684513D01*
X154788363Y-86684002D01*
X154759725Y-86708584D01*
X154702586Y-86774735D01*
X154625288Y-86872302D01*
X154538125Y-86988468D01*
X154422658Y-87137030D01*
X154291287Y-87291908D01*
X154163522Y-87430662D01*
X154093625Y-87499733D01*
X154001880Y-87585959D01*
X153875171Y-87705673D01*
X153724448Y-87848499D01*
X153560658Y-88004057D01*
X153394753Y-88161970D01*
X153363375Y-88191879D01*
X153218621Y-88328161D01*
X153052352Y-88481806D01*
X152871291Y-88646870D01*
X152682167Y-88817412D01*
X152491703Y-88987487D01*
X152306625Y-89151154D01*
X152133659Y-89302469D01*
X151979530Y-89435488D01*
X151850965Y-89544270D01*
X151754688Y-89622872D01*
X151697425Y-89665350D01*
X151692579Y-89668259D01*
X151661515Y-89678392D01*
X151650130Y-89653086D01*
X151654320Y-89579948D01*
X151656554Y-89559487D01*
X151660870Y-89470548D01*
X151642479Y-89404004D01*
X151591348Y-89332172D01*
X151562009Y-89298582D01*
X151486741Y-89209341D01*
X151394636Y-89093155D01*
X151305461Y-88974968D01*
X151304347Y-88973444D01*
X151226801Y-88860426D01*
X151177073Y-88763481D01*
X151158017Y-88674310D01*
X151172487Y-88584619D01*
X151223336Y-88486109D01*
X151313420Y-88370484D01*
X151445593Y-88229448D01*
X151619252Y-88058054D01*
X151786631Y-87887064D01*
X151909893Y-87737102D01*
X151997435Y-87593504D01*
X152057660Y-87441605D01*
X152098966Y-87266739D01*
X152109876Y-87201505D01*
X152126951Y-86920795D01*
X152096751Y-86633274D01*
X152023141Y-86356463D01*
X151909985Y-86107885D01*
X151846912Y-86009510D01*
X151700120Y-85821368D01*
X151540905Y-85655473D01*
X151349186Y-85491567D01*
X151282007Y-85439508D01*
X151171558Y-85353038D01*
X151078633Y-85272387D01*
X150997241Y-85189009D01*
X150921391Y-85094360D01*
X150845093Y-84979894D01*
X150762354Y-84837063D01*
X150667185Y-84657324D01*
X150553595Y-84432129D01*
X150499944Y-84323942D01*
X150369056Y-84064295D01*
X150256496Y-83853807D01*
X150156109Y-83683045D01*
X150061740Y-83542577D01*
X149967236Y-83422971D01*
X149866443Y-83314793D01*
X149799956Y-83251049D01*
X149627069Y-83105509D01*
X149426445Y-82960218D01*
X149211803Y-82823201D01*
X148996862Y-82702481D01*
X148795340Y-82606084D01*
X148620955Y-82542033D01*
X148562916Y-82527481D01*
X148326526Y-82490087D01*
X148040748Y-82463664D01*
X147718772Y-82448402D01*
X147373791Y-82444494D01*
X147018993Y-82452132D01*
G37*
X147018993Y-82452132D02*
X146667571Y-82471507D01*
X146394250Y-82495958D01*
X146074950Y-82541813D01*
X145777329Y-82611017D01*
X145492868Y-82707884D01*
X145213049Y-82836725D01*
X144929353Y-83001853D01*
X144633263Y-83207582D01*
X144316259Y-83458223D01*
X144060625Y-83677419D01*
X143773139Y-83940987D01*
X143538844Y-84178859D01*
X143354668Y-84394777D01*
X143217537Y-84592481D01*
X143124378Y-84775710D01*
X143097578Y-84849394D01*
X143053691Y-84994682D01*
X143026997Y-85112168D01*
X143015562Y-85223440D01*
X143017452Y-85350086D01*
X143030732Y-85513694D01*
X143034567Y-85552580D01*
X143051828Y-85760326D01*
X143054092Y-85918673D01*
X143038247Y-86040603D01*
X143001180Y-86139094D01*
X142939779Y-86227127D01*
X142851144Y-86317484D01*
X142769676Y-86399442D01*
X142707832Y-86481031D01*
X142663829Y-86571656D01*
X142635881Y-86680724D01*
X142622204Y-86817642D01*
X142621012Y-86991815D01*
X142630521Y-87212650D01*
X142643432Y-87412138D01*
X142659264Y-87631634D01*
X142673807Y-87802196D01*
X142689828Y-87938260D01*
X142710097Y-88054265D01*
X142737382Y-88164644D01*
X142774450Y-88283836D01*
X142824070Y-88426277D01*
X142853693Y-88508625D01*
X142908575Y-88668663D01*
X142941090Y-88787581D01*
X142954753Y-88882245D01*
X142953077Y-88969521D01*
X142952004Y-88980379D01*
X142920588Y-89111477D01*
X142856538Y-89268352D01*
X142769867Y-89429734D01*
X142675114Y-89568594D01*
X142631929Y-89642794D01*
X142616000Y-89703531D01*
X142603065Y-89752771D01*
X142587010Y-89762750D01*
X142540070Y-89742930D01*
X142453795Y-89687891D01*
X142336607Y-89604263D01*
X142196930Y-89498674D01*
X142043188Y-89377754D01*
X141883803Y-89248133D01*
X141727200Y-89116439D01*
X141581800Y-88989303D01*
X141456029Y-88873354D01*
X141451793Y-88869300D01*
X141159932Y-88588866D01*
X140907936Y-88345310D01*
X140689281Y-88132148D01*
X140497440Y-87942896D01*
X140325890Y-87771070D01*
X140168106Y-87610187D01*
X140017562Y-87453762D01*
X139867734Y-87295312D01*
X139866391Y-87293882D01*
X139734501Y-87154950D01*
X139616812Y-87034117D01*
X139520316Y-86938303D01*
X139452002Y-86874431D01*
X139418861Y-86849422D01*
X139417515Y-86849382D01*
X139396450Y-86887939D01*
X139402445Y-86973244D01*
X139431994Y-87096386D01*
X139481595Y-87248454D01*
X139547743Y-87420534D01*
X139626932Y-87603716D01*
X139715660Y-87789086D01*
X139810420Y-87967735D01*
X139907710Y-88130748D01*
X139941718Y-88182471D01*
X140017347Y-88295187D01*
X140116212Y-88443909D01*
X140226915Y-88611423D01*
X140338057Y-88780514D01*
X140367916Y-88826125D01*
X140505090Y-89028690D01*
X140643758Y-89217032D01*
X140789604Y-89396610D01*
X140948314Y-89572886D01*
X141125570Y-89751318D01*
X141327057Y-89937368D01*
X141558459Y-90136495D01*
X141825459Y-90354159D01*
X142133742Y-90595821D01*
X142488992Y-90866942D01*
X142504875Y-90878942D01*
X142696091Y-91017111D01*
X142921571Y-91169613D01*
X143173712Y-91332126D01*
X143444908Y-91500327D01*
X143727556Y-91669892D01*
X144014051Y-91836500D01*
X144296788Y-91995826D01*
X144568162Y-92143549D01*
X144820569Y-92275344D01*
X145046404Y-92386890D01*
X145238063Y-92473863D01*
X145387942Y-92531940D01*
X145440393Y-92547668D01*
X145514988Y-92557793D01*
X145607537Y-92550219D01*
X145734008Y-92522867D01*
X145829331Y-92497085D01*
X145951708Y-92460083D01*
X146046809Y-92426709D01*
X146101003Y-92401976D01*
X146108500Y-92394377D01*
X146081106Y-92374887D01*
X146003638Y-92331389D01*
X145883172Y-92267556D01*
X145726783Y-92187062D01*
X145541547Y-92093581D01*
X145334539Y-91990788D01*
X145273123Y-91960584D01*
X144998504Y-91824388D01*
X144776802Y-91711081D01*
X144602889Y-91617807D01*
X144471634Y-91541713D01*
X144377908Y-91479944D01*
X144316580Y-91429646D01*
X144313514Y-91426626D01*
X144244573Y-91355862D01*
X144216876Y-91317529D01*
X144225987Y-91299946D01*
X144262443Y-91292144D01*
X144316248Y-91302952D01*
X144420222Y-91341414D01*
X144568629Y-91405071D01*
X144755735Y-91491462D01*
X144975802Y-91598127D01*
X144975989Y-91598220D01*
X145347628Y-91780622D01*
X145664612Y-91933359D01*
X145928142Y-92056972D01*
X146139419Y-92152000D01*
X146299645Y-92218985D01*
X146410019Y-92258468D01*
X146470605Y-92271000D01*
X146543621Y-92259983D01*
X146648721Y-92231534D01*
X146731937Y-92203160D01*
X146829735Y-92164719D01*
X146876351Y-92138538D01*
X146880736Y-92116484D01*
X146854163Y-92092110D01*
X146801365Y-92063486D01*
X146703867Y-92019236D01*
X146576493Y-91965842D01*
X146459723Y-91919618D01*
X146086773Y-91772426D01*
X145758017Y-91634294D01*
X145456550Y-91496977D01*
X145165466Y-91352235D01*
X144867862Y-91191824D01*
X144546832Y-91007502D01*
X144354236Y-90892994D01*
X144102842Y-90740986D01*
X143860391Y-90592286D01*
X143632845Y-90450721D01*
X143426168Y-90320114D01*
X143246320Y-90204293D01*
X143099265Y-90107082D01*
X142990966Y-90032307D01*
X142927384Y-89983794D01*
X142912890Y-89968234D01*
X142916154Y-89922456D01*
X142937640Y-89836185D01*
X142972407Y-89728938D01*
X143045349Y-89524625D01*
X143180160Y-89523507D01*
X143285895Y-89509762D01*
X143366147Y-89463497D01*
X143433099Y-89374120D01*
X143489308Y-89254750D01*
X143542429Y-89143107D01*
X143603637Y-89037477D01*
X143621885Y-89010805D01*
X143669060Y-88939695D01*
X143694217Y-88889416D01*
X143695500Y-88882612D01*
X143672925Y-88845890D01*
X143612798Y-88779650D01*
X143526516Y-88694820D01*
X143425475Y-88602333D01*
X143321075Y-88513119D01*
X143257737Y-88462770D01*
X143172952Y-88393190D01*
X143108718Y-88324807D01*
X143062230Y-88247614D01*
X143030687Y-88151604D01*
X143011285Y-88026770D01*
X143001222Y-87863105D01*
X142997695Y-87650602D01*
X142997496Y-87533577D01*
X142999920Y-87266008D01*
X143007936Y-87052372D01*
X143023427Y-86883209D01*
X143048276Y-86749061D01*
X143084363Y-86640469D01*
X143133572Y-86547973D01*
X143197784Y-86462116D01*
X143214555Y-86442674D01*
X143346250Y-86293059D01*
X143346767Y-85987967D01*
X143352494Y-85690836D01*
X143367993Y-85419832D01*
X143392308Y-85183518D01*
X143424479Y-84990454D01*
X143463548Y-84849200D01*
X143478072Y-84814831D01*
X143535909Y-84725004D01*
X143641475Y-84596983D01*
X143795272Y-84430206D01*
X143997798Y-84224112D01*
X144043085Y-84179222D01*
X144357018Y-83878447D01*
X144642819Y-83625546D01*
X144907781Y-83415690D01*
X145159191Y-83244049D01*
X145404342Y-83105796D01*
X145650524Y-82996102D01*
X145905026Y-82910136D01*
X145997375Y-82884772D01*
X146283911Y-82830456D01*
X146614610Y-82801765D01*
X146976146Y-82797350D01*
X147355197Y-82815865D01*
X147738438Y-82855960D01*
X148112545Y-82916288D01*
X148464193Y-82995500D01*
X148780059Y-83092249D01*
X149016633Y-83190239D01*
X149210467Y-83297066D01*
X149374942Y-83419825D01*
X149520398Y-83569482D01*
X149657170Y-83756998D01*
X149795598Y-83993338D01*
X149823783Y-84046272D01*
X149966870Y-84297969D01*
X150132088Y-84554129D01*
X150311775Y-84805262D01*
X150498267Y-85041878D01*
X150683902Y-85254488D01*
X150861017Y-85433604D01*
X151021948Y-85569735D01*
X151093250Y-85618288D01*
X151260988Y-85738487D01*
X151414069Y-85880200D01*
X151538677Y-86028692D01*
X151620998Y-86169226D01*
X151629413Y-86190233D01*
X151679313Y-86363826D01*
X151717274Y-86571854D01*
X151740942Y-86791514D01*
X151747962Y-87000002D01*
X151735981Y-87174514D01*
X151732961Y-87193200D01*
X151689749Y-87378971D01*
X151624898Y-87547912D01*
X151531264Y-87711695D01*
X151401702Y-87881995D01*
X151229065Y-88070484D01*
X151143219Y-88156675D01*
X150984557Y-88314588D01*
X150866472Y-88436903D01*
X150783138Y-88531368D01*
X150728732Y-88605736D01*
X150697428Y-88667757D01*
X150683403Y-88725182D01*
X150680710Y-88772139D01*
X150694581Y-88878016D01*
X150740714Y-88987455D01*
X150825244Y-89110996D01*
X150954307Y-89259180D01*
X150980088Y-89286500D01*
X151082407Y-89402587D01*
X151178415Y-89526776D01*
X151261209Y-89648107D01*
X151323885Y-89755619D01*
X151359538Y-89838352D01*
X151361264Y-89885348D01*
X151358981Y-89887960D01*
X151306532Y-89928165D01*
X151207795Y-89997292D01*
X151070262Y-90090497D01*
X150901425Y-90202934D01*
X150708774Y-90329761D01*
X150499800Y-90466132D01*
X150281995Y-90607203D01*
X150062850Y-90748131D01*
X149849855Y-90884070D01*
X149650503Y-91010177D01*
X149472284Y-91121607D01*
X149322689Y-91213516D01*
X149209210Y-91281059D01*
X149172375Y-91301964D01*
X148886589Y-91459446D01*
X148649090Y-91588679D01*
X148453149Y-91693118D01*
X148292034Y-91776218D01*
X148159012Y-91841431D01*
X148047353Y-91892212D01*
X147950325Y-91932016D01*
X147927781Y-91940575D01*
X147819338Y-91981980D01*
X147669305Y-92040467D01*
X147494935Y-92109253D01*
X147313482Y-92181556D01*
X147251500Y-92206434D01*
X147040908Y-92288306D01*
X146801176Y-92376997D01*
X146560808Y-92462201D01*
X146348305Y-92533609D01*
X146334741Y-92537975D01*
X146186013Y-92583376D01*
X145998727Y-92636959D01*
X145781402Y-92696600D01*
X145542557Y-92760178D01*
X145290711Y-92825570D01*
X145034383Y-92890653D01*
X144782092Y-92953306D01*
X144542357Y-93011406D01*
X144323697Y-93062831D01*
X144134631Y-93105457D01*
X143983678Y-93137164D01*
X143879356Y-93155828D01*
X143837974Y-93160000D01*
X143736252Y-93168724D01*
X143650395Y-93190971D01*
X143595303Y-93220847D01*
X143585879Y-93252461D01*
X143590249Y-93257948D01*
X143634376Y-93283109D01*
X143721480Y-93320107D01*
X143834007Y-93361583D01*
X143852461Y-93367894D01*
X144093147Y-93427870D01*
X144343443Y-93445196D01*
X144616580Y-93419856D01*
X144868908Y-93366715D01*
X145086172Y-93306604D01*
X145352232Y-93224781D01*
X145657603Y-93124743D01*
X145992801Y-93009991D01*
X146348341Y-92884024D01*
X146714740Y-92750340D01*
X147082513Y-92612440D01*
X147442175Y-92473821D01*
X147784242Y-92337984D01*
X148099230Y-92208427D01*
X148377654Y-92088650D01*
X148569125Y-92001549D01*
X148765850Y-91905349D01*
X148982123Y-91793304D01*
X149203855Y-91673270D01*
X149416959Y-91553103D01*
X149607344Y-91440661D01*
X149760923Y-91343801D01*
X149815762Y-91306335D01*
X149925458Y-91237577D01*
X150037611Y-91181967D01*
X150136752Y-91145633D01*
X150207417Y-91134706D01*
X150229271Y-91142436D01*
X150228580Y-91175733D01*
X150218450Y-91185288D01*
X150180323Y-91213094D01*
X150104550Y-91269149D01*
X150004335Y-91343669D01*
X149949495Y-91384567D01*
X149611967Y-91619450D01*
X149237005Y-91847341D01*
X148820251Y-92070322D01*
X148357344Y-92290476D01*
X147843925Y-92509884D01*
X147275634Y-92730628D01*
X146695875Y-92938315D01*
X146354090Y-93056035D01*
X146021091Y-93169810D01*
X145703183Y-93277543D01*
X145406668Y-93377142D01*
X145137851Y-93466512D01*
X144903035Y-93543559D01*
X144708523Y-93606189D01*
X144560617Y-93652307D01*
X144465623Y-93679819D01*
X144458299Y-93681714D01*
X144309080Y-93731591D01*
X144194388Y-93793972D01*
X144124695Y-93861979D01*
X144108250Y-93911659D01*
X144132760Y-93938963D01*
X144207853Y-93949415D01*
X144335873Y-93942842D01*
X144519168Y-93919071D01*
X144760081Y-93877927D01*
X144886125Y-93854045D01*
X145252916Y-93781020D01*
X145577008Y-93711754D01*
X145872175Y-93642365D01*
X146152191Y-93568966D01*
X146430831Y-93487675D01*
X146721870Y-93394606D01*
X147039082Y-93285875D01*
X147396241Y-93157597D01*
X147531101Y-93108149D01*
X147825868Y-92998290D01*
X148081364Y-92899509D01*
X148312703Y-92805188D01*
X148534998Y-92708708D01*
X148763361Y-92603451D01*
X149012905Y-92482800D01*
X149298743Y-92340135D01*
X149388478Y-92294766D01*
X149718724Y-92124827D01*
X150018166Y-91964382D01*
X150296307Y-91807303D01*
X150562651Y-91647458D01*
X150826703Y-91478717D01*
X151097965Y-91294950D01*
X151385942Y-91090025D01*
X151700139Y-90857813D01*
X152050058Y-90592183D01*
X152165538Y-90503429D01*
X152429953Y-90284414D01*
X152713825Y-90022021D01*
X153007965Y-89726708D01*
X153303186Y-89408930D01*
X153590300Y-89079143D01*
X153860117Y-88747805D01*
X154103450Y-88425372D01*
X154311111Y-88122299D01*
X154432303Y-87923826D01*
X154585163Y-87630572D01*
X154700194Y-87352532D01*
X154773945Y-87099158D01*
X154801413Y-86913187D01*
X154805123Y-86801853D01*
X154801129Y-86720430D01*
X154790320Y-86684513D01*
X154788363Y-86684002D01*
X154759725Y-86708584D01*
X154702586Y-86774735D01*
X154625288Y-86872302D01*
X154538125Y-86988468D01*
X154422658Y-87137030D01*
X154291287Y-87291908D01*
X154163522Y-87430662D01*
X154093625Y-87499733D01*
X154001880Y-87585959D01*
X153875171Y-87705673D01*
X153724448Y-87848499D01*
X153560658Y-88004057D01*
X153394753Y-88161970D01*
X153363375Y-88191879D01*
X153218621Y-88328161D01*
X153052352Y-88481806D01*
X152871291Y-88646870D01*
X152682167Y-88817412D01*
X152491703Y-88987487D01*
X152306625Y-89151154D01*
X152133659Y-89302469D01*
X151979530Y-89435488D01*
X151850965Y-89544270D01*
X151754688Y-89622872D01*
X151697425Y-89665350D01*
X151692579Y-89668259D01*
X151661515Y-89678392D01*
X151650130Y-89653086D01*
X151654320Y-89579948D01*
X151656554Y-89559487D01*
X151660870Y-89470548D01*
X151642479Y-89404004D01*
X151591348Y-89332172D01*
X151562009Y-89298582D01*
X151486741Y-89209341D01*
X151394636Y-89093155D01*
X151305461Y-88974968D01*
X151304347Y-88973444D01*
X151226801Y-88860426D01*
X151177073Y-88763481D01*
X151158017Y-88674310D01*
X151172487Y-88584619D01*
X151223336Y-88486109D01*
X151313420Y-88370484D01*
X151445593Y-88229448D01*
X151619252Y-88058054D01*
X151786631Y-87887064D01*
X151909893Y-87737102D01*
X151997435Y-87593504D01*
X152057660Y-87441605D01*
X152098966Y-87266739D01*
X152109876Y-87201505D01*
X152126951Y-86920795D01*
X152096751Y-86633274D01*
X152023141Y-86356463D01*
X151909985Y-86107885D01*
X151846912Y-86009510D01*
X151700120Y-85821368D01*
X151540905Y-85655473D01*
X151349186Y-85491567D01*
X151282007Y-85439508D01*
X151171558Y-85353038D01*
X151078633Y-85272387D01*
X150997241Y-85189009D01*
X150921391Y-85094360D01*
X150845093Y-84979894D01*
X150762354Y-84837063D01*
X150667185Y-84657324D01*
X150553595Y-84432129D01*
X150499944Y-84323942D01*
X150369056Y-84064295D01*
X150256496Y-83853807D01*
X150156109Y-83683045D01*
X150061740Y-83542577D01*
X149967236Y-83422971D01*
X149866443Y-83314793D01*
X149799956Y-83251049D01*
X149627069Y-83105509D01*
X149426445Y-82960218D01*
X149211803Y-82823201D01*
X148996862Y-82702481D01*
X148795340Y-82606084D01*
X148620955Y-82542033D01*
X148562916Y-82527481D01*
X148326526Y-82490087D01*
X148040748Y-82463664D01*
X147718772Y-82448402D01*
X147373791Y-82444494D01*
X147018993Y-82452132D01*
G36*
X153388610Y-93113034D02*
G01*
X153296000Y-93130493D01*
X153249784Y-93151670D01*
X153257084Y-93174191D01*
X153276427Y-93182988D01*
X153340125Y-93233859D01*
X153355908Y-93324547D01*
X153323912Y-93456077D01*
X153315957Y-93476974D01*
X153267711Y-93622493D01*
X153256775Y-93730139D01*
X153283863Y-93813929D01*
X153336262Y-93875891D01*
X153439953Y-93933025D01*
X153575979Y-93954173D01*
X153723374Y-93937861D01*
X153809450Y-93909090D01*
X153944790Y-93819638D01*
X154036989Y-93694206D01*
X154076843Y-93546153D01*
X154077750Y-93519650D01*
X154055241Y-93354446D01*
X153986886Y-93231130D01*
X153871443Y-93148773D01*
X153707672Y-93106442D01*
X153520490Y-93101666D01*
X153388610Y-93113034D01*
G37*
X153388610Y-93113034D02*
X153296000Y-93130493D01*
X153249784Y-93151670D01*
X153257084Y-93174191D01*
X153276427Y-93182988D01*
X153340125Y-93233859D01*
X153355908Y-93324547D01*
X153323912Y-93456077D01*
X153315957Y-93476974D01*
X153267711Y-93622493D01*
X153256775Y-93730139D01*
X153283863Y-93813929D01*
X153336262Y-93875891D01*
X153439953Y-93933025D01*
X153575979Y-93954173D01*
X153723374Y-93937861D01*
X153809450Y-93909090D01*
X153944790Y-93819638D01*
X154036989Y-93694206D01*
X154076843Y-93546153D01*
X154077750Y-93519650D01*
X154055241Y-93354446D01*
X153986886Y-93231130D01*
X153871443Y-93148773D01*
X153707672Y-93106442D01*
X153520490Y-93101666D01*
X153388610Y-93113034D01*
G36*
X141572976Y-93515940D02*
G01*
X141505517Y-93522119D01*
X141460227Y-93534238D01*
X141426796Y-93552921D01*
X141413718Y-93562950D01*
X141362373Y-93637892D01*
X141370061Y-93732467D01*
X141437001Y-93847557D01*
X141504054Y-93925098D01*
X141541827Y-93965054D01*
X141575386Y-93995938D01*
X141612806Y-94018535D01*
X141662164Y-94033628D01*
X141731536Y-94042002D01*
X141828998Y-94044440D01*
X141962626Y-94041727D01*
X142140495Y-94034647D01*
X142370683Y-94023984D01*
X142473125Y-94019175D01*
X142656780Y-94009323D01*
X142784738Y-93997835D01*
X142864790Y-93981801D01*
X142904727Y-93958310D01*
X142912340Y-93924455D01*
X142895418Y-93877324D01*
X142888707Y-93863975D01*
X142823482Y-93766760D01*
X142735741Y-93671124D01*
X142646074Y-93597808D01*
X142600125Y-93573241D01*
X142547956Y-93563905D01*
X142444516Y-93553377D01*
X142302000Y-93542617D01*
X142132601Y-93532589D01*
X142011459Y-93526815D01*
X141815637Y-93518912D01*
X141672913Y-93515079D01*
X141572976Y-93515940D01*
G37*
X141572976Y-93515940D02*
X141505517Y-93522119D01*
X141460227Y-93534238D01*
X141426796Y-93552921D01*
X141413718Y-93562950D01*
X141362373Y-93637892D01*
X141370061Y-93732467D01*
X141437001Y-93847557D01*
X141504054Y-93925098D01*
X141541827Y-93965054D01*
X141575386Y-93995938D01*
X141612806Y-94018535D01*
X141662164Y-94033628D01*
X141731536Y-94042002D01*
X141828998Y-94044440D01*
X141962626Y-94041727D01*
X142140495Y-94034647D01*
X142370683Y-94023984D01*
X142473125Y-94019175D01*
X142656780Y-94009323D01*
X142784738Y-93997835D01*
X142864790Y-93981801D01*
X142904727Y-93958310D01*
X142912340Y-93924455D01*
X142895418Y-93877324D01*
X142888707Y-93863975D01*
X142823482Y-93766760D01*
X142735741Y-93671124D01*
X142646074Y-93597808D01*
X142600125Y-93573241D01*
X142547956Y-93563905D01*
X142444516Y-93553377D01*
X142302000Y-93542617D01*
X142132601Y-93532589D01*
X142011459Y-93526815D01*
X141815637Y-93518912D01*
X141672913Y-93515079D01*
X141572976Y-93515940D01*
G36*
X152966500Y-93949825D02*
G01*
X152997622Y-94028633D01*
X153088480Y-94104552D01*
X153196830Y-94158914D01*
X153299484Y-94197161D01*
X153353461Y-94204121D01*
X153365227Y-94180003D01*
X153360541Y-94164187D01*
X153324942Y-94120961D01*
X153253452Y-94059788D01*
X153165009Y-93994755D01*
X153078550Y-93939950D01*
X153022063Y-93912394D01*
X152976741Y-93912238D01*
X152966500Y-93949825D01*
G37*
X152966500Y-93949825D02*
X152997622Y-94028633D01*
X153088480Y-94104552D01*
X153196830Y-94158914D01*
X153299484Y-94197161D01*
X153353461Y-94204121D01*
X153365227Y-94180003D01*
X153360541Y-94164187D01*
X153324942Y-94120961D01*
X153253452Y-94059788D01*
X153165009Y-93994755D01*
X153078550Y-93939950D01*
X153022063Y-93912394D01*
X152976741Y-93912238D01*
X152966500Y-93949825D01*
G36*
X140946395Y-93387037D02*
G01*
X140827053Y-93400992D01*
X140735897Y-93424901D01*
X140733793Y-93425783D01*
X140597182Y-93511156D01*
X140510183Y-93621956D01*
X140470021Y-93747720D01*
X140473923Y-93877986D01*
X140519114Y-94002291D01*
X140602821Y-94110173D01*
X140722270Y-94191170D01*
X140874687Y-94234819D01*
X140949539Y-94239500D01*
X141083088Y-94227626D01*
X141178752Y-94188180D01*
X141198844Y-94173695D01*
X141268799Y-94086273D01*
X141282500Y-94014599D01*
X141269699Y-93936797D01*
X141237372Y-93835735D01*
X141194634Y-93733663D01*
X141150601Y-93652833D01*
X141120064Y-93618096D01*
X141093251Y-93577905D01*
X141129080Y-93529630D01*
X141191874Y-93490984D01*
X141254113Y-93452345D01*
X141262581Y-93424673D01*
X141247436Y-93411279D01*
X141179198Y-93391542D01*
X141071314Y-93383674D01*
X140946395Y-93387037D01*
G37*
X140946395Y-93387037D02*
X140827053Y-93400992D01*
X140735897Y-93424901D01*
X140733793Y-93425783D01*
X140597182Y-93511156D01*
X140510183Y-93621956D01*
X140470021Y-93747720D01*
X140473923Y-93877986D01*
X140519114Y-94002291D01*
X140602821Y-94110173D01*
X140722270Y-94191170D01*
X140874687Y-94234819D01*
X140949539Y-94239500D01*
X141083088Y-94227626D01*
X141178752Y-94188180D01*
X141198844Y-94173695D01*
X141268799Y-94086273D01*
X141282500Y-94014599D01*
X141269699Y-93936797D01*
X141237372Y-93835735D01*
X141194634Y-93733663D01*
X141150601Y-93652833D01*
X141120064Y-93618096D01*
X141093251Y-93577905D01*
X141129080Y-93529630D01*
X141191874Y-93490984D01*
X141254113Y-93452345D01*
X141262581Y-93424673D01*
X141247436Y-93411279D01*
X141179198Y-93391542D01*
X141071314Y-93383674D01*
X140946395Y-93387037D01*
G36*
X141448961Y-94236689D02*
G01*
X141361827Y-94280385D01*
X141278791Y-94333820D01*
X141217602Y-94386835D01*
X141196006Y-94429274D01*
X141196108Y-94430000D01*
X141229578Y-94474604D01*
X141298427Y-94483079D01*
X141385506Y-94454970D01*
X141417934Y-94435861D01*
X141514132Y-94358056D01*
X141567077Y-94285419D01*
X141570179Y-94227692D01*
X141564530Y-94219141D01*
X141522444Y-94212888D01*
X141448961Y-94236689D01*
G37*
X141448961Y-94236689D02*
X141361827Y-94280385D01*
X141278791Y-94333820D01*
X141217602Y-94386835D01*
X141196006Y-94429274D01*
X141196108Y-94430000D01*
X141229578Y-94474604D01*
X141298427Y-94483079D01*
X141385506Y-94454970D01*
X141417934Y-94435861D01*
X141514132Y-94358056D01*
X141567077Y-94285419D01*
X141570179Y-94227692D01*
X141564530Y-94219141D01*
X141522444Y-94212888D01*
X141448961Y-94236689D01*
G36*
X152024438Y-92055818D02*
G01*
X151900047Y-92076486D01*
X151805684Y-92121413D01*
X151732001Y-92200443D01*
X151669650Y-92323420D01*
X151612498Y-92489592D01*
X151563175Y-92636970D01*
X151512976Y-92745670D01*
X151448794Y-92839324D01*
X151367858Y-92930687D01*
X151247935Y-93041842D01*
X151102859Y-93153025D01*
X150950339Y-93252595D01*
X150808083Y-93328914D01*
X150701749Y-93368523D01*
X150628444Y-93398086D01*
X150596449Y-93448651D01*
X150602306Y-93532548D01*
X150629697Y-93625461D01*
X150660331Y-93733106D01*
X150678421Y-93830955D01*
X150680500Y-93861687D01*
X150655846Y-93952824D01*
X150588777Y-94065430D01*
X150489638Y-94185634D01*
X150368773Y-94299567D01*
X150332329Y-94328546D01*
X150192365Y-94435300D01*
X149543659Y-94391084D01*
X149489303Y-94474042D01*
X149454353Y-94537536D01*
X149457599Y-94585766D01*
X149486523Y-94635714D01*
X149581005Y-94726611D01*
X149720006Y-94792183D01*
X149888792Y-94829938D01*
X150072630Y-94837386D01*
X150256787Y-94812036D01*
X150354800Y-94782497D01*
X150475711Y-94730463D01*
X150613411Y-94660949D01*
X150704050Y-94609303D01*
X150918028Y-94454844D01*
X151074213Y-94284445D01*
X151177745Y-94090618D01*
X151233767Y-93865872D01*
X151238125Y-93831390D01*
X151254105Y-93720800D01*
X151279803Y-93643405D01*
X151327795Y-93574745D01*
X151410654Y-93490365D01*
X151416184Y-93485058D01*
X151502253Y-93405134D01*
X151575200Y-93341922D01*
X151617333Y-93310380D01*
X151650414Y-93274361D01*
X151707179Y-93194896D01*
X151779737Y-93083636D01*
X151860199Y-92952228D01*
X151862171Y-92948907D01*
X151980768Y-92761271D01*
X152088169Y-92622261D01*
X152195557Y-92521077D01*
X152314118Y-92446920D01*
X152434688Y-92396117D01*
X152509784Y-92364558D01*
X152551029Y-92338137D01*
X152553750Y-92332758D01*
X152530036Y-92287736D01*
X152470262Y-92223759D01*
X152391482Y-92156675D01*
X152310750Y-92102332D01*
X152298919Y-92095945D01*
X152184255Y-92058536D01*
X152038783Y-92054718D01*
X152024438Y-92055818D01*
G37*
X152024438Y-92055818D02*
X151900047Y-92076486D01*
X151805684Y-92121413D01*
X151732001Y-92200443D01*
X151669650Y-92323420D01*
X151612498Y-92489592D01*
X151563175Y-92636970D01*
X151512976Y-92745670D01*
X151448794Y-92839324D01*
X151367858Y-92930687D01*
X151247935Y-93041842D01*
X151102859Y-93153025D01*
X150950339Y-93252595D01*
X150808083Y-93328914D01*
X150701749Y-93368523D01*
X150628444Y-93398086D01*
X150596449Y-93448651D01*
X150602306Y-93532548D01*
X150629697Y-93625461D01*
X150660331Y-93733106D01*
X150678421Y-93830955D01*
X150680500Y-93861687D01*
X150655846Y-93952824D01*
X150588777Y-94065430D01*
X150489638Y-94185634D01*
X150368773Y-94299567D01*
X150332329Y-94328546D01*
X150192365Y-94435300D01*
X149543659Y-94391084D01*
X149489303Y-94474042D01*
X149454353Y-94537536D01*
X149457599Y-94585766D01*
X149486523Y-94635714D01*
X149581005Y-94726611D01*
X149720006Y-94792183D01*
X149888792Y-94829938D01*
X150072630Y-94837386D01*
X150256787Y-94812036D01*
X150354800Y-94782497D01*
X150475711Y-94730463D01*
X150613411Y-94660949D01*
X150704050Y-94609303D01*
X150918028Y-94454844D01*
X151074213Y-94284445D01*
X151177745Y-94090618D01*
X151233767Y-93865872D01*
X151238125Y-93831390D01*
X151254105Y-93720800D01*
X151279803Y-93643405D01*
X151327795Y-93574745D01*
X151410654Y-93490365D01*
X151416184Y-93485058D01*
X151502253Y-93405134D01*
X151575200Y-93341922D01*
X151617333Y-93310380D01*
X151650414Y-93274361D01*
X151707179Y-93194896D01*
X151779737Y-93083636D01*
X151860199Y-92952228D01*
X151862171Y-92948907D01*
X151980768Y-92761271D01*
X152088169Y-92622261D01*
X152195557Y-92521077D01*
X152314118Y-92446920D01*
X152434688Y-92396117D01*
X152509784Y-92364558D01*
X152551029Y-92338137D01*
X152553750Y-92332758D01*
X152530036Y-92287736D01*
X152470262Y-92223759D01*
X152391482Y-92156675D01*
X152310750Y-92102332D01*
X152298919Y-92095945D01*
X152184255Y-92058536D01*
X152038783Y-92054718D01*
X152024438Y-92055818D01*
G36*
X142275676Y-92330873D02*
G01*
X142122702Y-92405174D01*
X142026998Y-92485791D01*
X141922240Y-92600141D01*
X142102433Y-92672421D01*
X142218435Y-92729841D01*
X142329247Y-92810235D01*
X142443302Y-92921907D01*
X142569035Y-93073158D01*
X142714879Y-93272289D01*
X142721704Y-93282014D01*
X142821067Y-93413081D01*
X142932156Y-93543075D01*
X143035072Y-93649100D01*
X143061075Y-93672549D01*
X143147644Y-93750560D01*
X143201324Y-93814854D01*
X143234611Y-93887837D01*
X143260000Y-93991916D01*
X143271101Y-94049164D01*
X143304708Y-94187269D01*
X143349567Y-94320861D01*
X143393855Y-94416954D01*
X143530875Y-94589033D01*
X143724101Y-94735412D01*
X143971035Y-94854607D01*
X144269182Y-94945130D01*
X144289143Y-94949730D01*
X144440788Y-94981076D01*
X144553625Y-94994955D01*
X144649602Y-94992356D01*
X144750671Y-94974264D01*
X144764198Y-94971096D01*
X144903694Y-94921910D01*
X145018144Y-94851543D01*
X145098074Y-94769374D01*
X145134009Y-94684778D01*
X145122229Y-94616723D01*
X145076788Y-94564744D01*
X145004919Y-94541728D01*
X144896005Y-94546574D01*
X144742888Y-94577341D01*
X144536522Y-94609096D01*
X144357608Y-94593260D01*
X144188392Y-94526834D01*
X144092845Y-94467524D01*
X143941833Y-94335061D01*
X143852304Y-94190041D01*
X143824740Y-94034245D01*
X143859623Y-93869455D01*
X143905733Y-93775407D01*
X143950486Y-93693998D01*
X143975405Y-93638540D01*
X143977170Y-93624574D01*
X143943111Y-93609713D01*
X143868367Y-93581038D01*
X143806625Y-93558365D01*
X143571666Y-93455954D01*
X143384075Y-93330955D01*
X143230926Y-93171481D01*
X143099291Y-92965645D01*
X143045351Y-92858375D01*
X142977015Y-92724763D01*
X142906190Y-92604292D01*
X142843848Y-92514939D01*
X142818698Y-92486996D01*
X142719159Y-92412422D01*
X142600637Y-92349431D01*
X142488381Y-92310118D01*
X142434458Y-92302927D01*
X142275676Y-92330873D01*
G37*
X142275676Y-92330873D02*
X142122702Y-92405174D01*
X142026998Y-92485791D01*
X141922240Y-92600141D01*
X142102433Y-92672421D01*
X142218435Y-92729841D01*
X142329247Y-92810235D01*
X142443302Y-92921907D01*
X142569035Y-93073158D01*
X142714879Y-93272289D01*
X142721704Y-93282014D01*
X142821067Y-93413081D01*
X142932156Y-93543075D01*
X143035072Y-93649100D01*
X143061075Y-93672549D01*
X143147644Y-93750560D01*
X143201324Y-93814854D01*
X143234611Y-93887837D01*
X143260000Y-93991916D01*
X143271101Y-94049164D01*
X143304708Y-94187269D01*
X143349567Y-94320861D01*
X143393855Y-94416954D01*
X143530875Y-94589033D01*
X143724101Y-94735412D01*
X143971035Y-94854607D01*
X144269182Y-94945130D01*
X144289143Y-94949730D01*
X144440788Y-94981076D01*
X144553625Y-94994955D01*
X144649602Y-94992356D01*
X144750671Y-94974264D01*
X144764198Y-94971096D01*
X144903694Y-94921910D01*
X145018144Y-94851543D01*
X145098074Y-94769374D01*
X145134009Y-94684778D01*
X145122229Y-94616723D01*
X145076788Y-94564744D01*
X145004919Y-94541728D01*
X144896005Y-94546574D01*
X144742888Y-94577341D01*
X144536522Y-94609096D01*
X144357608Y-94593260D01*
X144188392Y-94526834D01*
X144092845Y-94467524D01*
X143941833Y-94335061D01*
X143852304Y-94190041D01*
X143824740Y-94034245D01*
X143859623Y-93869455D01*
X143905733Y-93775407D01*
X143950486Y-93693998D01*
X143975405Y-93638540D01*
X143977170Y-93624574D01*
X143943111Y-93609713D01*
X143868367Y-93581038D01*
X143806625Y-93558365D01*
X143571666Y-93455954D01*
X143384075Y-93330955D01*
X143230926Y-93171481D01*
X143099291Y-92965645D01*
X143045351Y-92858375D01*
X142977015Y-92724763D01*
X142906190Y-92604292D01*
X142843848Y-92514939D01*
X142818698Y-92486996D01*
X142719159Y-92412422D01*
X142600637Y-92349431D01*
X142488381Y-92310118D01*
X142434458Y-92302927D01*
X142275676Y-92330873D01*
G36*
X147412365Y-48803974D02*
G01*
X147408900Y-48818800D01*
X147417938Y-48839231D01*
X147437187Y-48843693D01*
X147453350Y-48831500D01*
X147455006Y-48810198D01*
X147438490Y-48795308D01*
X147427201Y-48793400D01*
X147412365Y-48803974D01*
G37*
X147412365Y-48803974D02*
X147408900Y-48818800D01*
X147417938Y-48839231D01*
X147437187Y-48843693D01*
X147453350Y-48831500D01*
X147455006Y-48810198D01*
X147438490Y-48795308D01*
X147427201Y-48793400D01*
X147412365Y-48803974D01*
G36*
X146472737Y-47359145D02*
G01*
X146440198Y-47380921D01*
X146416137Y-47423458D01*
X146399038Y-47487327D01*
X146387386Y-47573101D01*
X146379665Y-47681350D01*
X146374361Y-47812646D01*
X146373428Y-47842684D01*
X146365545Y-48104818D01*
X146412866Y-48166534D01*
X146450155Y-48220725D01*
X146482449Y-48277882D01*
X146506436Y-48331237D01*
X146518805Y-48374021D01*
X146519776Y-48385080D01*
X146508368Y-48436791D01*
X146475874Y-48492526D01*
X146425495Y-48548876D01*
X146360433Y-48602430D01*
X146283889Y-48649779D01*
X146259909Y-48661906D01*
X146215301Y-48682318D01*
X146178210Y-48697392D01*
X146155615Y-48704330D01*
X146153688Y-48704500D01*
X146115867Y-48714691D01*
X146073896Y-48741223D01*
X146035591Y-48778028D01*
X146010255Y-48815849D01*
X145997444Y-48845784D01*
X145990048Y-48875222D01*
X145987215Y-48911546D01*
X145988091Y-48962140D01*
X145989622Y-48994486D01*
X146000193Y-49097403D01*
X146021014Y-49180735D01*
X146053633Y-49248761D01*
X146099599Y-49305758D01*
X146103854Y-49309926D01*
X146142006Y-49340890D01*
X146199991Y-49380214D01*
X146274429Y-49425949D01*
X146361941Y-49476147D01*
X146459144Y-49528859D01*
X146562658Y-49582137D01*
X146652078Y-49625931D01*
X146723843Y-49660888D01*
X146777799Y-49689824D01*
X146819320Y-49717092D01*
X146853781Y-49747049D01*
X146886557Y-49784048D01*
X146923022Y-49832444D01*
X146945026Y-49863277D01*
X146976201Y-49904830D01*
X147003882Y-49937309D01*
X147023681Y-49955737D01*
X147028591Y-49958089D01*
X147047173Y-49951722D01*
X147077487Y-49932425D01*
X147109395Y-49907329D01*
X147146492Y-49874795D01*
X147194353Y-49831757D01*
X147245286Y-49785167D01*
X147271100Y-49761219D01*
X147331227Y-49707529D01*
X147381267Y-49670217D01*
X147427705Y-49646414D01*
X147477026Y-49633248D01*
X147535716Y-49627849D01*
X147574000Y-49627151D01*
X147681950Y-49626823D01*
X147891500Y-49415776D01*
X147962773Y-49344543D01*
X148020532Y-49288443D01*
X148068712Y-49244155D01*
X148111250Y-49208354D01*
X148152081Y-49177719D01*
X148195140Y-49148925D01*
X148240996Y-49120669D01*
X148365110Y-49036873D01*
X148468548Y-48945569D01*
X148555903Y-48841843D01*
X148565193Y-48827017D01*
X148011638Y-48827017D01*
X148008449Y-48877715D01*
X147992532Y-48927011D01*
X147986669Y-48939450D01*
X147964172Y-48974142D01*
X147931694Y-49002295D01*
X147886160Y-49028350D01*
X147829879Y-49061110D01*
X147792291Y-49095916D01*
X147768284Y-49139912D01*
X147752745Y-49200242D01*
X147749491Y-49219302D01*
X147737117Y-49279241D01*
X147719878Y-49320718D01*
X147693372Y-49350669D01*
X147653200Y-49376028D01*
X147648490Y-49378462D01*
X147590893Y-49404190D01*
X147529691Y-49423346D01*
X147460452Y-49436581D01*
X147378741Y-49444546D01*
X147280125Y-49447892D01*
X147177871Y-49447563D01*
X146940491Y-49443997D01*
X146834971Y-49392346D01*
X146783292Y-49365765D01*
X146736382Y-49339376D01*
X146701920Y-49317578D01*
X146693678Y-49311407D01*
X146657905Y-49282118D01*
X146679068Y-49186984D01*
X146694290Y-49125865D01*
X146711086Y-49080426D01*
X146734285Y-49041156D01*
X146768715Y-48998542D01*
X146782707Y-48982853D01*
X146824508Y-48945578D01*
X146859810Y-48932570D01*
X146887812Y-48943341D01*
X146907710Y-48977406D01*
X146918703Y-49034277D01*
X146920513Y-49066450D01*
X146921831Y-49109784D01*
X146923312Y-49143543D01*
X146924345Y-49157556D01*
X146935939Y-49165461D01*
X146969231Y-49169696D01*
X147025839Y-49170443D01*
X147036932Y-49170256D01*
X147090197Y-49168876D01*
X147124335Y-49165971D01*
X147145613Y-49159514D01*
X147160297Y-49147476D01*
X147174656Y-49127828D01*
X147176510Y-49125077D01*
X147196455Y-49086273D01*
X147199552Y-49047592D01*
X147197877Y-49034694D01*
X147196190Y-48981912D01*
X147209493Y-48948315D01*
X147235501Y-48934470D01*
X147271928Y-48940941D01*
X147316487Y-48968296D01*
X147348579Y-48997390D01*
X147390125Y-49035712D01*
X147419227Y-49053360D01*
X147432607Y-49053907D01*
X147464285Y-49039361D01*
X147511073Y-49014660D01*
X147566741Y-48983426D01*
X147625060Y-48949281D01*
X147679799Y-48915847D01*
X147724730Y-48886746D01*
X147745819Y-48871798D01*
X147763444Y-48856900D01*
X147561300Y-48856900D01*
X147550586Y-48897943D01*
X147523039Y-48928141D01*
X147485554Y-48944745D01*
X147445026Y-48945006D01*
X147408348Y-48926178D01*
X147402402Y-48920236D01*
X147381109Y-48880957D01*
X147380436Y-48839485D01*
X147397530Y-48802444D01*
X147429535Y-48776460D01*
X147468019Y-48768000D01*
X147513999Y-48778709D01*
X147546698Y-48807615D01*
X147561045Y-48849886D01*
X147561300Y-48856900D01*
X147763444Y-48856900D01*
X147788042Y-48836109D01*
X147808758Y-48806707D01*
X147807319Y-48780462D01*
X147783079Y-48754243D01*
X147735393Y-48724917D01*
X147713111Y-48713374D01*
X147621026Y-48675397D01*
X147535602Y-48656867D01*
X147460081Y-48658331D01*
X147430369Y-48665601D01*
X147402176Y-48680336D01*
X147361740Y-48708361D01*
X147315055Y-48745281D01*
X147279317Y-48776373D01*
X147206263Y-48839166D01*
X147141587Y-48887644D01*
X147087469Y-48920430D01*
X147046089Y-48936142D01*
X147026309Y-48936363D01*
X147007414Y-48925316D01*
X146975201Y-48900336D01*
X146934443Y-48865321D01*
X146896718Y-48830643D01*
X146838139Y-48775626D01*
X146793315Y-48735449D01*
X146757803Y-48707229D01*
X146727163Y-48688084D01*
X146696954Y-48675130D01*
X146662734Y-48665486D01*
X146631838Y-48658704D01*
X146568010Y-48643621D01*
X146528010Y-48628047D01*
X146510407Y-48608824D01*
X146513770Y-48582789D01*
X146536667Y-48546783D01*
X146565345Y-48511862D01*
X146596191Y-48474947D01*
X146621031Y-48443419D01*
X146634421Y-48424205D01*
X146635063Y-48404505D01*
X146624059Y-48367249D01*
X146600862Y-48310830D01*
X146580083Y-48265455D01*
X146552076Y-48204783D01*
X146533434Y-48159851D01*
X146522235Y-48123648D01*
X146516556Y-48089161D01*
X146514475Y-48049375D01*
X146514182Y-48025050D01*
X146515024Y-47969888D01*
X146519820Y-47930186D01*
X146530741Y-47896065D01*
X146549959Y-47857647D01*
X146551650Y-47854579D01*
X146593937Y-47795179D01*
X146646980Y-47746179D01*
X146705494Y-47710777D01*
X146764193Y-47692176D01*
X146817612Y-47693529D01*
X146839264Y-47705139D01*
X146874439Y-47730834D01*
X146918486Y-47766960D01*
X146966751Y-47809861D01*
X146972637Y-47815321D01*
X147084115Y-47907556D01*
X147203016Y-47984651D01*
X147324955Y-48044402D01*
X147445547Y-48084605D01*
X147542250Y-48101623D01*
X147620311Y-48112255D01*
X147676944Y-48129416D01*
X147715967Y-48156824D01*
X147741199Y-48198201D01*
X147756455Y-48257266D01*
X147763844Y-48317554D01*
X147771208Y-48379596D01*
X147780920Y-48422353D01*
X147794570Y-48451931D01*
X147801211Y-48461097D01*
X147876856Y-48557980D01*
X147934707Y-48640401D01*
X147975780Y-48710973D01*
X148001086Y-48772308D01*
X148011638Y-48827017D01*
X148565193Y-48827017D01*
X148631765Y-48720781D01*
X148653569Y-48679156D01*
X148700516Y-48575594D01*
X148730034Y-48486344D01*
X148741936Y-48412364D01*
X148736034Y-48354611D01*
X148722580Y-48326253D01*
X148691733Y-48295224D01*
X148646120Y-48271869D01*
X148581640Y-48254429D01*
X148537245Y-48246809D01*
X148459796Y-48233663D01*
X148401668Y-48219296D01*
X148356791Y-48201763D01*
X148319095Y-48179121D01*
X148313771Y-48175228D01*
X148275417Y-48149362D01*
X148236180Y-48130097D01*
X148190896Y-48116126D01*
X148134396Y-48106148D01*
X148061517Y-48098858D01*
X147993455Y-48094397D01*
X147899531Y-48088061D01*
X147827625Y-48080599D01*
X147774356Y-48071221D01*
X147736345Y-48059134D01*
X147710211Y-48043544D01*
X147692732Y-48023904D01*
X147673952Y-47999920D01*
X147651013Y-47983076D01*
X147618615Y-47971479D01*
X147571458Y-47963238D01*
X147504241Y-47956459D01*
X147503702Y-47956414D01*
X147453850Y-47951055D01*
X147408527Y-47942866D01*
X147364906Y-47930249D01*
X147320160Y-47911604D01*
X147271461Y-47885334D01*
X147215983Y-47849838D01*
X147150898Y-47803518D01*
X147073379Y-47744775D01*
X146980598Y-47672011D01*
X146930858Y-47632468D01*
X146815631Y-47541678D01*
X146717975Y-47468221D01*
X146636372Y-47412668D01*
X146569309Y-47375590D01*
X146515269Y-47357558D01*
X146472737Y-47359145D01*
G37*
X146472737Y-47359145D02*
X146440198Y-47380921D01*
X146416137Y-47423458D01*
X146399038Y-47487327D01*
X146387386Y-47573101D01*
X146379665Y-47681350D01*
X146374361Y-47812646D01*
X146373428Y-47842684D01*
X146365545Y-48104818D01*
X146412866Y-48166534D01*
X146450155Y-48220725D01*
X146482449Y-48277882D01*
X146506436Y-48331237D01*
X146518805Y-48374021D01*
X146519776Y-48385080D01*
X146508368Y-48436791D01*
X146475874Y-48492526D01*
X146425495Y-48548876D01*
X146360433Y-48602430D01*
X146283889Y-48649779D01*
X146259909Y-48661906D01*
X146215301Y-48682318D01*
X146178210Y-48697392D01*
X146155615Y-48704330D01*
X146153688Y-48704500D01*
X146115867Y-48714691D01*
X146073896Y-48741223D01*
X146035591Y-48778028D01*
X146010255Y-48815849D01*
X145997444Y-48845784D01*
X145990048Y-48875222D01*
X145987215Y-48911546D01*
X145988091Y-48962140D01*
X145989622Y-48994486D01*
X146000193Y-49097403D01*
X146021014Y-49180735D01*
X146053633Y-49248761D01*
X146099599Y-49305758D01*
X146103854Y-49309926D01*
X146142006Y-49340890D01*
X146199991Y-49380214D01*
X146274429Y-49425949D01*
X146361941Y-49476147D01*
X146459144Y-49528859D01*
X146562658Y-49582137D01*
X146652078Y-49625931D01*
X146723843Y-49660888D01*
X146777799Y-49689824D01*
X146819320Y-49717092D01*
X146853781Y-49747049D01*
X146886557Y-49784048D01*
X146923022Y-49832444D01*
X146945026Y-49863277D01*
X146976201Y-49904830D01*
X147003882Y-49937309D01*
X147023681Y-49955737D01*
X147028591Y-49958089D01*
X147047173Y-49951722D01*
X147077487Y-49932425D01*
X147109395Y-49907329D01*
X147146492Y-49874795D01*
X147194353Y-49831757D01*
X147245286Y-49785167D01*
X147271100Y-49761219D01*
X147331227Y-49707529D01*
X147381267Y-49670217D01*
X147427705Y-49646414D01*
X147477026Y-49633248D01*
X147535716Y-49627849D01*
X147574000Y-49627151D01*
X147681950Y-49626823D01*
X147891500Y-49415776D01*
X147962773Y-49344543D01*
X148020532Y-49288443D01*
X148068712Y-49244155D01*
X148111250Y-49208354D01*
X148152081Y-49177719D01*
X148195140Y-49148925D01*
X148240996Y-49120669D01*
X148365110Y-49036873D01*
X148468548Y-48945569D01*
X148555903Y-48841843D01*
X148565193Y-48827017D01*
X148011638Y-48827017D01*
X148008449Y-48877715D01*
X147992532Y-48927011D01*
X147986669Y-48939450D01*
X147964172Y-48974142D01*
X147931694Y-49002295D01*
X147886160Y-49028350D01*
X147829879Y-49061110D01*
X147792291Y-49095916D01*
X147768284Y-49139912D01*
X147752745Y-49200242D01*
X147749491Y-49219302D01*
X147737117Y-49279241D01*
X147719878Y-49320718D01*
X147693372Y-49350669D01*
X147653200Y-49376028D01*
X147648490Y-49378462D01*
X147590893Y-49404190D01*
X147529691Y-49423346D01*
X147460452Y-49436581D01*
X147378741Y-49444546D01*
X147280125Y-49447892D01*
X147177871Y-49447563D01*
X146940491Y-49443997D01*
X146834971Y-49392346D01*
X146783292Y-49365765D01*
X146736382Y-49339376D01*
X146701920Y-49317578D01*
X146693678Y-49311407D01*
X146657905Y-49282118D01*
X146679068Y-49186984D01*
X146694290Y-49125865D01*
X146711086Y-49080426D01*
X146734285Y-49041156D01*
X146768715Y-48998542D01*
X146782707Y-48982853D01*
X146824508Y-48945578D01*
X146859810Y-48932570D01*
X146887812Y-48943341D01*
X146907710Y-48977406D01*
X146918703Y-49034277D01*
X146920513Y-49066450D01*
X146921831Y-49109784D01*
X146923312Y-49143543D01*
X146924345Y-49157556D01*
X146935939Y-49165461D01*
X146969231Y-49169696D01*
X147025839Y-49170443D01*
X147036932Y-49170256D01*
X147090197Y-49168876D01*
X147124335Y-49165971D01*
X147145613Y-49159514D01*
X147160297Y-49147476D01*
X147174656Y-49127828D01*
X147176510Y-49125077D01*
X147196455Y-49086273D01*
X147199552Y-49047592D01*
X147197877Y-49034694D01*
X147196190Y-48981912D01*
X147209493Y-48948315D01*
X147235501Y-48934470D01*
X147271928Y-48940941D01*
X147316487Y-48968296D01*
X147348579Y-48997390D01*
X147390125Y-49035712D01*
X147419227Y-49053360D01*
X147432607Y-49053907D01*
X147464285Y-49039361D01*
X147511073Y-49014660D01*
X147566741Y-48983426D01*
X147625060Y-48949281D01*
X147679799Y-48915847D01*
X147724730Y-48886746D01*
X147745819Y-48871798D01*
X147763444Y-48856900D01*
X147561300Y-48856900D01*
X147550586Y-48897943D01*
X147523039Y-48928141D01*
X147485554Y-48944745D01*
X147445026Y-48945006D01*
X147408348Y-48926178D01*
X147402402Y-48920236D01*
X147381109Y-48880957D01*
X147380436Y-48839485D01*
X147397530Y-48802444D01*
X147429535Y-48776460D01*
X147468019Y-48768000D01*
X147513999Y-48778709D01*
X147546698Y-48807615D01*
X147561045Y-48849886D01*
X147561300Y-48856900D01*
X147763444Y-48856900D01*
X147788042Y-48836109D01*
X147808758Y-48806707D01*
X147807319Y-48780462D01*
X147783079Y-48754243D01*
X147735393Y-48724917D01*
X147713111Y-48713374D01*
X147621026Y-48675397D01*
X147535602Y-48656867D01*
X147460081Y-48658331D01*
X147430369Y-48665601D01*
X147402176Y-48680336D01*
X147361740Y-48708361D01*
X147315055Y-48745281D01*
X147279317Y-48776373D01*
X147206263Y-48839166D01*
X147141587Y-48887644D01*
X147087469Y-48920430D01*
X147046089Y-48936142D01*
X147026309Y-48936363D01*
X147007414Y-48925316D01*
X146975201Y-48900336D01*
X146934443Y-48865321D01*
X146896718Y-48830643D01*
X146838139Y-48775626D01*
X146793315Y-48735449D01*
X146757803Y-48707229D01*
X146727163Y-48688084D01*
X146696954Y-48675130D01*
X146662734Y-48665486D01*
X146631838Y-48658704D01*
X146568010Y-48643621D01*
X146528010Y-48628047D01*
X146510407Y-48608824D01*
X146513770Y-48582789D01*
X146536667Y-48546783D01*
X146565345Y-48511862D01*
X146596191Y-48474947D01*
X146621031Y-48443419D01*
X146634421Y-48424205D01*
X146635063Y-48404505D01*
X146624059Y-48367249D01*
X146600862Y-48310830D01*
X146580083Y-48265455D01*
X146552076Y-48204783D01*
X146533434Y-48159851D01*
X146522235Y-48123648D01*
X146516556Y-48089161D01*
X146514475Y-48049375D01*
X146514182Y-48025050D01*
X146515024Y-47969888D01*
X146519820Y-47930186D01*
X146530741Y-47896065D01*
X146549959Y-47857647D01*
X146551650Y-47854579D01*
X146593937Y-47795179D01*
X146646980Y-47746179D01*
X146705494Y-47710777D01*
X146764193Y-47692176D01*
X146817612Y-47693529D01*
X146839264Y-47705139D01*
X146874439Y-47730834D01*
X146918486Y-47766960D01*
X146966751Y-47809861D01*
X146972637Y-47815321D01*
X147084115Y-47907556D01*
X147203016Y-47984651D01*
X147324955Y-48044402D01*
X147445547Y-48084605D01*
X147542250Y-48101623D01*
X147620311Y-48112255D01*
X147676944Y-48129416D01*
X147715967Y-48156824D01*
X147741199Y-48198201D01*
X147756455Y-48257266D01*
X147763844Y-48317554D01*
X147771208Y-48379596D01*
X147780920Y-48422353D01*
X147794570Y-48451931D01*
X147801211Y-48461097D01*
X147876856Y-48557980D01*
X147934707Y-48640401D01*
X147975780Y-48710973D01*
X148001086Y-48772308D01*
X148011638Y-48827017D01*
X148565193Y-48827017D01*
X148631765Y-48720781D01*
X148653569Y-48679156D01*
X148700516Y-48575594D01*
X148730034Y-48486344D01*
X148741936Y-48412364D01*
X148736034Y-48354611D01*
X148722580Y-48326253D01*
X148691733Y-48295224D01*
X148646120Y-48271869D01*
X148581640Y-48254429D01*
X148537245Y-48246809D01*
X148459796Y-48233663D01*
X148401668Y-48219296D01*
X148356791Y-48201763D01*
X148319095Y-48179121D01*
X148313771Y-48175228D01*
X148275417Y-48149362D01*
X148236180Y-48130097D01*
X148190896Y-48116126D01*
X148134396Y-48106148D01*
X148061517Y-48098858D01*
X147993455Y-48094397D01*
X147899531Y-48088061D01*
X147827625Y-48080599D01*
X147774356Y-48071221D01*
X147736345Y-48059134D01*
X147710211Y-48043544D01*
X147692732Y-48023904D01*
X147673952Y-47999920D01*
X147651013Y-47983076D01*
X147618615Y-47971479D01*
X147571458Y-47963238D01*
X147504241Y-47956459D01*
X147503702Y-47956414D01*
X147453850Y-47951055D01*
X147408527Y-47942866D01*
X147364906Y-47930249D01*
X147320160Y-47911604D01*
X147271461Y-47885334D01*
X147215983Y-47849838D01*
X147150898Y-47803518D01*
X147073379Y-47744775D01*
X146980598Y-47672011D01*
X146930858Y-47632468D01*
X146815631Y-47541678D01*
X146717975Y-47468221D01*
X146636372Y-47412668D01*
X146569309Y-47375590D01*
X146515269Y-47357558D01*
X146472737Y-47359145D01*
G36*
X147701612Y-50799704D02*
G01*
X147659949Y-50821543D01*
X147629669Y-50840661D01*
X147616005Y-50853652D01*
X147615805Y-50855563D01*
X147629587Y-50863938D01*
X147664265Y-50876404D01*
X147715840Y-50891998D01*
X147780317Y-50909756D01*
X147853698Y-50928714D01*
X147931987Y-50947909D01*
X148011186Y-50966377D01*
X148087299Y-50983153D01*
X148156330Y-50997275D01*
X148214280Y-51007779D01*
X148257154Y-51013700D01*
X148275460Y-51014624D01*
X148318325Y-51010544D01*
X148361634Y-51002733D01*
X148411394Y-50987893D01*
X148460017Y-50968301D01*
X148502777Y-50946609D01*
X148534949Y-50925469D01*
X148551808Y-50907531D01*
X148550535Y-50896753D01*
X148537031Y-50893502D01*
X148502376Y-50886956D01*
X148450505Y-50877810D01*
X148385352Y-50866754D01*
X148310853Y-50854481D01*
X148304250Y-50853410D01*
X148217045Y-50838879D01*
X148127396Y-50823250D01*
X148042618Y-50807846D01*
X147970027Y-50793989D01*
X147927244Y-50785250D01*
X147791537Y-50756201D01*
X147701612Y-50799704D01*
G37*
X147701612Y-50799704D02*
X147659949Y-50821543D01*
X147629669Y-50840661D01*
X147616005Y-50853652D01*
X147615805Y-50855563D01*
X147629587Y-50863938D01*
X147664265Y-50876404D01*
X147715840Y-50891998D01*
X147780317Y-50909756D01*
X147853698Y-50928714D01*
X147931987Y-50947909D01*
X148011186Y-50966377D01*
X148087299Y-50983153D01*
X148156330Y-50997275D01*
X148214280Y-51007779D01*
X148257154Y-51013700D01*
X148275460Y-51014624D01*
X148318325Y-51010544D01*
X148361634Y-51002733D01*
X148411394Y-50987893D01*
X148460017Y-50968301D01*
X148502777Y-50946609D01*
X148534949Y-50925469D01*
X148551808Y-50907531D01*
X148550535Y-50896753D01*
X148537031Y-50893502D01*
X148502376Y-50886956D01*
X148450505Y-50877810D01*
X148385352Y-50866754D01*
X148310853Y-50854481D01*
X148304250Y-50853410D01*
X148217045Y-50838879D01*
X148127396Y-50823250D01*
X148042618Y-50807846D01*
X147970027Y-50793989D01*
X147927244Y-50785250D01*
X147791537Y-50756201D01*
X147701612Y-50799704D01*
G36*
X149069969Y-50988378D02*
G01*
X149039260Y-50992252D01*
X149013830Y-50998913D01*
X148988649Y-51008900D01*
X148969851Y-51017516D01*
X148909478Y-51053915D01*
X148867147Y-51096803D01*
X148845908Y-51142710D01*
X148844000Y-51160735D01*
X148845732Y-51179809D01*
X148855137Y-51189614D01*
X148878530Y-51193218D01*
X148911842Y-51193700D01*
X148950831Y-51194248D01*
X149007743Y-51195745D01*
X149075127Y-51197965D01*
X149145534Y-51200684D01*
X149149967Y-51200870D01*
X149227190Y-51203339D01*
X149282987Y-51203112D01*
X149321209Y-51200007D01*
X149345705Y-51193840D01*
X149350992Y-51191345D01*
X149369850Y-51173871D01*
X149392993Y-51142563D01*
X149416908Y-51103764D01*
X149438079Y-51063820D01*
X149452992Y-51029073D01*
X149458132Y-51005870D01*
X149456440Y-51000999D01*
X149441213Y-50997670D01*
X149405098Y-50994395D01*
X149352605Y-50991449D01*
X149288244Y-50989106D01*
X149244050Y-50988071D01*
X149167336Y-50986827D01*
X149110985Y-50986749D01*
X149069969Y-50988378D01*
G37*
X149069969Y-50988378D02*
X149039260Y-50992252D01*
X149013830Y-50998913D01*
X148988649Y-51008900D01*
X148969851Y-51017516D01*
X148909478Y-51053915D01*
X148867147Y-51096803D01*
X148845908Y-51142710D01*
X148844000Y-51160735D01*
X148845732Y-51179809D01*
X148855137Y-51189614D01*
X148878530Y-51193218D01*
X148911842Y-51193700D01*
X148950831Y-51194248D01*
X149007743Y-51195745D01*
X149075127Y-51197965D01*
X149145534Y-51200684D01*
X149149967Y-51200870D01*
X149227190Y-51203339D01*
X149282987Y-51203112D01*
X149321209Y-51200007D01*
X149345705Y-51193840D01*
X149350992Y-51191345D01*
X149369850Y-51173871D01*
X149392993Y-51142563D01*
X149416908Y-51103764D01*
X149438079Y-51063820D01*
X149452992Y-51029073D01*
X149458132Y-51005870D01*
X149456440Y-51000999D01*
X149441213Y-50997670D01*
X149405098Y-50994395D01*
X149352605Y-50991449D01*
X149288244Y-50989106D01*
X149244050Y-50988071D01*
X149167336Y-50986827D01*
X149110985Y-50986749D01*
X149069969Y-50988378D01*
G36*
X147440768Y-50912697D02*
G01*
X147411960Y-50923208D01*
X147405475Y-50925928D01*
X147359004Y-50944787D01*
X147306946Y-50964864D01*
X147290348Y-50971015D01*
X147257902Y-50985091D01*
X147240280Y-50997267D01*
X147239548Y-51002607D01*
X147266311Y-51017071D01*
X147314840Y-51034438D01*
X147381755Y-51054006D01*
X147463679Y-51075074D01*
X147557234Y-51096942D01*
X147659041Y-51118908D01*
X147765722Y-51140271D01*
X147873899Y-51160330D01*
X147980194Y-51178384D01*
X148081229Y-51193731D01*
X148173625Y-51205670D01*
X148254005Y-51213501D01*
X148256625Y-51213697D01*
X148312555Y-51217262D01*
X148347709Y-51217677D01*
X148366565Y-51214551D01*
X148373596Y-51207491D01*
X148374100Y-51203419D01*
X148362358Y-51173854D01*
X148330222Y-51143366D01*
X148282331Y-51115340D01*
X148223323Y-51093162D01*
X148222913Y-51093045D01*
X148184498Y-51082732D01*
X148126658Y-51068091D01*
X148054734Y-51050430D01*
X147974068Y-51031060D01*
X147890001Y-51011290D01*
X147878800Y-51008689D01*
X147795047Y-50989074D01*
X147714319Y-50969806D01*
X147641861Y-50952166D01*
X147582922Y-50937432D01*
X147542746Y-50926884D01*
X147538825Y-50925788D01*
X147494620Y-50913998D01*
X147465128Y-50909631D01*
X147440768Y-50912697D01*
G37*
X147440768Y-50912697D02*
X147411960Y-50923208D01*
X147405475Y-50925928D01*
X147359004Y-50944787D01*
X147306946Y-50964864D01*
X147290348Y-50971015D01*
X147257902Y-50985091D01*
X147240280Y-50997267D01*
X147239548Y-51002607D01*
X147266311Y-51017071D01*
X147314840Y-51034438D01*
X147381755Y-51054006D01*
X147463679Y-51075074D01*
X147557234Y-51096942D01*
X147659041Y-51118908D01*
X147765722Y-51140271D01*
X147873899Y-51160330D01*
X147980194Y-51178384D01*
X148081229Y-51193731D01*
X148173625Y-51205670D01*
X148254005Y-51213501D01*
X148256625Y-51213697D01*
X148312555Y-51217262D01*
X148347709Y-51217677D01*
X148366565Y-51214551D01*
X148373596Y-51207491D01*
X148374100Y-51203419D01*
X148362358Y-51173854D01*
X148330222Y-51143366D01*
X148282331Y-51115340D01*
X148223323Y-51093162D01*
X148222913Y-51093045D01*
X148184498Y-51082732D01*
X148126658Y-51068091D01*
X148054734Y-51050430D01*
X147974068Y-51031060D01*
X147890001Y-51011290D01*
X147878800Y-51008689D01*
X147795047Y-50989074D01*
X147714319Y-50969806D01*
X147641861Y-50952166D01*
X147582922Y-50937432D01*
X147542746Y-50926884D01*
X147538825Y-50925788D01*
X147494620Y-50913998D01*
X147465128Y-50909631D01*
X147440768Y-50912697D01*
G36*
X147044065Y-46664818D02*
G01*
X147008850Y-46666182D01*
X146866123Y-46675546D01*
X146744416Y-46687210D01*
X146639390Y-46702090D01*
X146546702Y-46721105D01*
X146462013Y-46745170D01*
X146380980Y-46775205D01*
X146299262Y-46812126D01*
X146284950Y-46819173D01*
X146185049Y-46875541D01*
X146073910Y-46950234D01*
X145954837Y-47040753D01*
X145831136Y-47144597D01*
X145716848Y-47249027D01*
X145619169Y-47346035D01*
X145541692Y-47433523D01*
X145482781Y-47514948D01*
X145440802Y-47593766D01*
X145414121Y-47673434D01*
X145401104Y-47757409D01*
X145400117Y-47849147D01*
X145404627Y-47909433D01*
X145411532Y-47992531D01*
X145412437Y-48055870D01*
X145406099Y-48104642D01*
X145391272Y-48144038D01*
X145366711Y-48179252D01*
X145331258Y-48215393D01*
X145298671Y-48248177D01*
X145273933Y-48280812D01*
X145256332Y-48317062D01*
X145245153Y-48360689D01*
X145239682Y-48415457D01*
X145239205Y-48485126D01*
X145243009Y-48573460D01*
X145248173Y-48653255D01*
X145254506Y-48741053D01*
X145260323Y-48809278D01*
X145266732Y-48863704D01*
X145274839Y-48910106D01*
X145285753Y-48954257D01*
X145300580Y-49001934D01*
X145320428Y-49058911D01*
X145332278Y-49091850D01*
X145354230Y-49155865D01*
X145367236Y-49203432D01*
X145372701Y-49241298D01*
X145372031Y-49276208D01*
X145371602Y-49280551D01*
X145359036Y-49332991D01*
X145333416Y-49395741D01*
X145298747Y-49460293D01*
X145260846Y-49515837D01*
X145243572Y-49545517D01*
X145237200Y-49569812D01*
X145232207Y-49589511D01*
X145226013Y-49593500D01*
X145212122Y-49586426D01*
X145181912Y-49567050D01*
X145139512Y-49538136D01*
X145089051Y-49502448D01*
X145076258Y-49493225D01*
X145016179Y-49446736D01*
X144941408Y-49383981D01*
X144854467Y-49307369D01*
X144757879Y-49219309D01*
X144654167Y-49122210D01*
X144545854Y-49018481D01*
X144435464Y-48910533D01*
X144325518Y-48800774D01*
X144218540Y-48691613D01*
X144117053Y-48585460D01*
X144047223Y-48510533D01*
X144009508Y-48471248D01*
X143978034Y-48441628D01*
X143956587Y-48425040D01*
X143949228Y-48423356D01*
X143947727Y-48444304D01*
X143954709Y-48483559D01*
X143968647Y-48536084D01*
X143988012Y-48596843D01*
X144011278Y-48660798D01*
X144036917Y-48722912D01*
X144046398Y-48743777D01*
X144078686Y-48807694D01*
X144119355Y-48880876D01*
X144161959Y-48951964D01*
X144183954Y-48986164D01*
X144226818Y-49050975D01*
X144276057Y-49125919D01*
X144324304Y-49199765D01*
X144350548Y-49240164D01*
X144433818Y-49357361D01*
X144531098Y-49475416D01*
X144635146Y-49586127D01*
X144738722Y-49681288D01*
X144742988Y-49684850D01*
X144851323Y-49773500D01*
X144964647Y-49863653D01*
X145078804Y-49952163D01*
X145189640Y-50035882D01*
X145292999Y-50111662D01*
X145384725Y-50176356D01*
X145446750Y-50217893D01*
X145503245Y-50253143D01*
X145576974Y-50297131D01*
X145663203Y-50347213D01*
X145757195Y-50400741D01*
X145854216Y-50455069D01*
X145949532Y-50507552D01*
X146038407Y-50555542D01*
X146116106Y-50596395D01*
X146177895Y-50627463D01*
X146189829Y-50633168D01*
X146262265Y-50666845D01*
X146317425Y-50690288D01*
X146360860Y-50704399D01*
X146398122Y-50710082D01*
X146434763Y-50708237D01*
X146476335Y-50699768D01*
X146522533Y-50687234D01*
X146571483Y-50672433D01*
X146609524Y-50659083D01*
X146631201Y-50649190D01*
X146634200Y-50646150D01*
X146623253Y-50638332D01*
X146592296Y-50620875D01*
X146544160Y-50595253D01*
X146481674Y-50562944D01*
X146407667Y-50525423D01*
X146324970Y-50484166D01*
X146300825Y-50472236D01*
X146189499Y-50416727D01*
X146099537Y-50370440D01*
X146029071Y-50332332D01*
X145976233Y-50301361D01*
X145939154Y-50276485D01*
X145917920Y-50258653D01*
X145890470Y-50230514D01*
X145879598Y-50215236D01*
X145883468Y-50208192D01*
X145896715Y-50205258D01*
X145917314Y-50209544D01*
X145957620Y-50224527D01*
X146014885Y-50249024D01*
X146086364Y-50281853D01*
X146169310Y-50321832D01*
X146181195Y-50327692D01*
X146322613Y-50397219D01*
X146442731Y-50455424D01*
X146542715Y-50502832D01*
X146623733Y-50539972D01*
X146686951Y-50567368D01*
X146733536Y-50585549D01*
X146764654Y-50595040D01*
X146777377Y-50596800D01*
X146807583Y-50592373D01*
X146850355Y-50580946D01*
X146883575Y-50569664D01*
X146922694Y-50554287D01*
X146941341Y-50543815D01*
X146943095Y-50534993D01*
X146932465Y-50525244D01*
X146911346Y-50513794D01*
X146872347Y-50496094D01*
X146821397Y-50474736D01*
X146774689Y-50456247D01*
X146674034Y-50417177D01*
X146591884Y-50384520D01*
X146522904Y-50355931D01*
X146461756Y-50329066D01*
X146403104Y-50301580D01*
X146341611Y-50271129D01*
X146272250Y-50235530D01*
X146205304Y-50199800D01*
X146127887Y-50156815D01*
X146042694Y-50108222D01*
X145952422Y-50055668D01*
X145859766Y-50000800D01*
X145767422Y-49945264D01*
X145678085Y-49890708D01*
X145594451Y-49838779D01*
X145519216Y-49791124D01*
X145455076Y-49749389D01*
X145404725Y-49715222D01*
X145370861Y-49690270D01*
X145356177Y-49676180D01*
X145355956Y-49675693D01*
X145357262Y-49657382D01*
X145365856Y-49622874D01*
X145379763Y-49579975D01*
X145408940Y-49498250D01*
X145461955Y-49497781D01*
X145509228Y-49490886D01*
X145544457Y-49468583D01*
X145572255Y-49426992D01*
X145586659Y-49392853D01*
X145606753Y-49347485D01*
X145630671Y-49304815D01*
X145638947Y-49292722D01*
X145658145Y-49264378D01*
X145668445Y-49244266D01*
X145669000Y-49241444D01*
X145659970Y-49226756D01*
X145635919Y-49200260D01*
X145601407Y-49166328D01*
X145560990Y-49129333D01*
X145519230Y-49093647D01*
X145493895Y-49073508D01*
X145459981Y-49045676D01*
X145434287Y-49018322D01*
X145415692Y-48987445D01*
X145403075Y-48949041D01*
X145395314Y-48899108D01*
X145391289Y-48833642D01*
X145389878Y-48748640D01*
X145389799Y-48701830D01*
X145390768Y-48594803D01*
X145393975Y-48509348D01*
X145400171Y-48441683D01*
X145410111Y-48388024D01*
X145424546Y-48344587D01*
X145444229Y-48307589D01*
X145469914Y-48273246D01*
X145476622Y-48265469D01*
X145529300Y-48205623D01*
X145529507Y-48083586D01*
X145531807Y-47964247D01*
X145538037Y-47855606D01*
X145547816Y-47761038D01*
X145560768Y-47683921D01*
X145576512Y-47627628D01*
X145582158Y-47614399D01*
X145605765Y-47578020D01*
X145649017Y-47525771D01*
X145711815Y-47457764D01*
X145794060Y-47374110D01*
X145808163Y-47360125D01*
X145933794Y-47239649D01*
X146048225Y-47138355D01*
X146154371Y-47054311D01*
X146255151Y-46985583D01*
X146353482Y-46930240D01*
X146452280Y-46886349D01*
X146554463Y-46851977D01*
X146589750Y-46842308D01*
X146704365Y-46820582D01*
X146836644Y-46809106D01*
X146981259Y-46807340D01*
X147132879Y-46814746D01*
X147286176Y-46830784D01*
X147435818Y-46854915D01*
X147576478Y-46886600D01*
X147702824Y-46925299D01*
X147797454Y-46964495D01*
X147874987Y-47007226D01*
X147940777Y-47056330D01*
X147998959Y-47116192D01*
X148053668Y-47191199D01*
X148109039Y-47285735D01*
X148120313Y-47306908D01*
X148177548Y-47407587D01*
X148243636Y-47510051D01*
X148315510Y-47610504D01*
X148390107Y-47705151D01*
X148464361Y-47790195D01*
X148535207Y-47861841D01*
X148599580Y-47916294D01*
X148628100Y-47935715D01*
X148695103Y-47983733D01*
X148756328Y-48040395D01*
X148806230Y-48099789D01*
X148839263Y-48156003D01*
X148842682Y-48164493D01*
X148864162Y-48242063D01*
X148878195Y-48334253D01*
X148884404Y-48432494D01*
X148882416Y-48528218D01*
X148871856Y-48612857D01*
X148863772Y-48646548D01*
X148842902Y-48703543D01*
X148812661Y-48759779D01*
X148770308Y-48819040D01*
X148713103Y-48885112D01*
X148638306Y-48961779D01*
X148628705Y-48971200D01*
X148578576Y-49021610D01*
X148533554Y-49069478D01*
X148497597Y-49110406D01*
X148474663Y-49139997D01*
X148470171Y-49147381D01*
X148457519Y-49174857D01*
X148454606Y-49196880D01*
X148461459Y-49224528D01*
X148470405Y-49248777D01*
X148492892Y-49291000D01*
X148530203Y-49342672D01*
X148576890Y-49396446D01*
X148619869Y-49445268D01*
X148659789Y-49496537D01*
X148693980Y-49546061D01*
X148719769Y-49589650D01*
X148734485Y-49623112D01*
X148735455Y-49642257D01*
X148734393Y-49643512D01*
X148713184Y-49659730D01*
X148673468Y-49687514D01*
X148618247Y-49724922D01*
X148550524Y-49770012D01*
X148473301Y-49820843D01*
X148389582Y-49875472D01*
X148302369Y-49931958D01*
X148214665Y-49988359D01*
X148129472Y-50042732D01*
X148049794Y-50093137D01*
X147978634Y-50137631D01*
X147918993Y-50174273D01*
X147873875Y-50201119D01*
X147859750Y-50209134D01*
X147745256Y-50272256D01*
X147650074Y-50324063D01*
X147571514Y-50365934D01*
X147506889Y-50399251D01*
X147453511Y-50425391D01*
X147408690Y-50445736D01*
X147369738Y-50461665D01*
X147361913Y-50464630D01*
X147318536Y-50481192D01*
X147258522Y-50504587D01*
X147188774Y-50532101D01*
X147116193Y-50561022D01*
X147091400Y-50570973D01*
X147007163Y-50603722D01*
X146911271Y-50639199D01*
X146815123Y-50673280D01*
X146730122Y-50701843D01*
X146724697Y-50703590D01*
X146665205Y-50721750D01*
X146590291Y-50743183D01*
X146503361Y-50767040D01*
X146407823Y-50792471D01*
X146307085Y-50818628D01*
X146204554Y-50844661D01*
X146103637Y-50869722D01*
X146007743Y-50892962D01*
X145920279Y-50913532D01*
X145844653Y-50930583D01*
X145784271Y-50943265D01*
X145742543Y-50950731D01*
X145725990Y-50952400D01*
X145685301Y-50955889D01*
X145650958Y-50964788D01*
X145628922Y-50976738D01*
X145625152Y-50989384D01*
X145626900Y-50991579D01*
X145644551Y-51001643D01*
X145679392Y-51016442D01*
X145724403Y-51033033D01*
X145731785Y-51035557D01*
X145828812Y-51059652D01*
X145929823Y-51066448D01*
X146040049Y-51055943D01*
X146137398Y-51035330D01*
X146225537Y-51010959D01*
X146333160Y-50977882D01*
X146456452Y-50937509D01*
X146591598Y-50891245D01*
X146734782Y-50840499D01*
X146882188Y-50786677D01*
X147030002Y-50731188D01*
X147174407Y-50675438D01*
X147311588Y-50620836D01*
X147437730Y-50568788D01*
X147549017Y-50520702D01*
X147618450Y-50489019D01*
X147697140Y-50450539D01*
X147783649Y-50405721D01*
X147872342Y-50357708D01*
X147957584Y-50309641D01*
X148033738Y-50264664D01*
X148095169Y-50225920D01*
X148117105Y-50210934D01*
X148160984Y-50183431D01*
X148205845Y-50161186D01*
X148245501Y-50146653D01*
X148273767Y-50142282D01*
X148282509Y-50145374D01*
X148282232Y-50158693D01*
X148278180Y-50162515D01*
X148262930Y-50173637D01*
X148232620Y-50196059D01*
X148192534Y-50225867D01*
X148170598Y-50242226D01*
X148026601Y-50342108D01*
X147866756Y-50438262D01*
X147688914Y-50531789D01*
X147490927Y-50623786D01*
X147270647Y-50715353D01*
X147167600Y-50755223D01*
X147092704Y-50783067D01*
X147002271Y-50815787D01*
X146899758Y-50852205D01*
X146788617Y-50891148D01*
X146672304Y-50931439D01*
X146554273Y-50971902D01*
X146437979Y-51011362D01*
X146326876Y-51048643D01*
X146224418Y-51082569D01*
X146134060Y-51111966D01*
X146059257Y-51135656D01*
X146003463Y-51152464D01*
X145986500Y-51157196D01*
X145919572Y-51179535D01*
X145870079Y-51205314D01*
X145840907Y-51232717D01*
X145834100Y-51253063D01*
X145845551Y-51263175D01*
X145875909Y-51268168D01*
X145919189Y-51267961D01*
X145969402Y-51262472D01*
X146005550Y-51255423D01*
X146035240Y-51249086D01*
X146084406Y-51239292D01*
X146147534Y-51227109D01*
X146219108Y-51213608D01*
X146265900Y-51204935D01*
X146523153Y-51149180D01*
X146792903Y-51074660D01*
X147071877Y-50982524D01*
X147356803Y-50873919D01*
X147644410Y-50749993D01*
X147872450Y-50641474D01*
X148013920Y-50570369D01*
X148140518Y-50504477D01*
X148256114Y-50441340D01*
X148364577Y-50378504D01*
X148469778Y-50313514D01*
X148575586Y-50243912D01*
X148685869Y-50167245D01*
X148804498Y-50081057D01*
X148935342Y-49982892D01*
X149057016Y-49889771D01*
X149162781Y-49802165D01*
X149276330Y-49697208D01*
X149393986Y-49579083D01*
X149512075Y-49451972D01*
X149626920Y-49320057D01*
X149734847Y-49187522D01*
X149832180Y-49058548D01*
X149915245Y-48937319D01*
X149963722Y-48857930D01*
X150024865Y-48740628D01*
X150070878Y-48629413D01*
X150100378Y-48528063D01*
X150111365Y-48453675D01*
X150112850Y-48409141D01*
X150111252Y-48376572D01*
X150106928Y-48362205D01*
X150106146Y-48362000D01*
X150094649Y-48371820D01*
X150071759Y-48398222D01*
X150040849Y-48437120D01*
X150007097Y-48481969D01*
X149968068Y-48531553D01*
X149917890Y-48588859D01*
X149854724Y-48655804D01*
X149776734Y-48734308D01*
X149682083Y-48826288D01*
X149627395Y-48878443D01*
X149551569Y-48949813D01*
X149470094Y-49025488D01*
X149385328Y-49103363D01*
X149299633Y-49181334D01*
X149215367Y-49257298D01*
X149134890Y-49329150D01*
X149060563Y-49394786D01*
X148994744Y-49452104D01*
X148939794Y-49498997D01*
X148898072Y-49533364D01*
X148871938Y-49553099D01*
X148867832Y-49555662D01*
X148855319Y-49559760D01*
X148850797Y-49549514D01*
X148852565Y-49519965D01*
X148853293Y-49513337D01*
X148854898Y-49479867D01*
X148848175Y-49453530D01*
X148829442Y-49424558D01*
X148811563Y-49402625D01*
X148746520Y-49322626D01*
X148699380Y-49258132D01*
X148669177Y-49207643D01*
X148654949Y-49169656D01*
X148653500Y-49156420D01*
X148655898Y-49132914D01*
X148664627Y-49108605D01*
X148681988Y-49080451D01*
X148710284Y-49045412D01*
X148751818Y-49000446D01*
X148808891Y-48942513D01*
X148835217Y-48916381D01*
X148902047Y-48847182D01*
X148951529Y-48787258D01*
X148986888Y-48730994D01*
X149011352Y-48672771D01*
X149028147Y-48606974D01*
X149034751Y-48569002D01*
X149041581Y-48456718D01*
X149029501Y-48341709D01*
X149000057Y-48230985D01*
X148954794Y-48131554D01*
X148929565Y-48092204D01*
X148867806Y-48013155D01*
X148801357Y-47944483D01*
X148721539Y-47877415D01*
X148703240Y-47863447D01*
X148659349Y-47829389D01*
X148622368Y-47797488D01*
X148589916Y-47764346D01*
X148559609Y-47726568D01*
X148529066Y-47680758D01*
X148495904Y-47623517D01*
X148457741Y-47551451D01*
X148412194Y-47461162D01*
X148390778Y-47417976D01*
X148338423Y-47314118D01*
X148293399Y-47229923D01*
X148253244Y-47161618D01*
X148215496Y-47105431D01*
X148177695Y-47057588D01*
X148137378Y-47014317D01*
X148110783Y-46988819D01*
X148041628Y-46930603D01*
X147961378Y-46872487D01*
X147875522Y-46817680D01*
X147789545Y-46769392D01*
X147708936Y-46730833D01*
X147639182Y-46705213D01*
X147615967Y-46699392D01*
X147561220Y-46690725D01*
X147487231Y-46682738D01*
X147400154Y-46675771D01*
X147306143Y-46670158D01*
X147211355Y-46666237D01*
X147121944Y-46664345D01*
X147044065Y-46664818D01*
G37*
X147044065Y-46664818D02*
X147008850Y-46666182D01*
X146866123Y-46675546D01*
X146744416Y-46687210D01*
X146639390Y-46702090D01*
X146546702Y-46721105D01*
X146462013Y-46745170D01*
X146380980Y-46775205D01*
X146299262Y-46812126D01*
X146284950Y-46819173D01*
X146185049Y-46875541D01*
X146073910Y-46950234D01*
X145954837Y-47040753D01*
X145831136Y-47144597D01*
X145716848Y-47249027D01*
X145619169Y-47346035D01*
X145541692Y-47433523D01*
X145482781Y-47514948D01*
X145440802Y-47593766D01*
X145414121Y-47673434D01*
X145401104Y-47757409D01*
X145400117Y-47849147D01*
X145404627Y-47909433D01*
X145411532Y-47992531D01*
X145412437Y-48055870D01*
X145406099Y-48104642D01*
X145391272Y-48144038D01*
X145366711Y-48179252D01*
X145331258Y-48215393D01*
X145298671Y-48248177D01*
X145273933Y-48280812D01*
X145256332Y-48317062D01*
X145245153Y-48360689D01*
X145239682Y-48415457D01*
X145239205Y-48485126D01*
X145243009Y-48573460D01*
X145248173Y-48653255D01*
X145254506Y-48741053D01*
X145260323Y-48809278D01*
X145266732Y-48863704D01*
X145274839Y-48910106D01*
X145285753Y-48954257D01*
X145300580Y-49001934D01*
X145320428Y-49058911D01*
X145332278Y-49091850D01*
X145354230Y-49155865D01*
X145367236Y-49203432D01*
X145372701Y-49241298D01*
X145372031Y-49276208D01*
X145371602Y-49280551D01*
X145359036Y-49332991D01*
X145333416Y-49395741D01*
X145298747Y-49460293D01*
X145260846Y-49515837D01*
X145243572Y-49545517D01*
X145237200Y-49569812D01*
X145232207Y-49589511D01*
X145226013Y-49593500D01*
X145212122Y-49586426D01*
X145181912Y-49567050D01*
X145139512Y-49538136D01*
X145089051Y-49502448D01*
X145076258Y-49493225D01*
X145016179Y-49446736D01*
X144941408Y-49383981D01*
X144854467Y-49307369D01*
X144757879Y-49219309D01*
X144654167Y-49122210D01*
X144545854Y-49018481D01*
X144435464Y-48910533D01*
X144325518Y-48800774D01*
X144218540Y-48691613D01*
X144117053Y-48585460D01*
X144047223Y-48510533D01*
X144009508Y-48471248D01*
X143978034Y-48441628D01*
X143956587Y-48425040D01*
X143949228Y-48423356D01*
X143947727Y-48444304D01*
X143954709Y-48483559D01*
X143968647Y-48536084D01*
X143988012Y-48596843D01*
X144011278Y-48660798D01*
X144036917Y-48722912D01*
X144046398Y-48743777D01*
X144078686Y-48807694D01*
X144119355Y-48880876D01*
X144161959Y-48951964D01*
X144183954Y-48986164D01*
X144226818Y-49050975D01*
X144276057Y-49125919D01*
X144324304Y-49199765D01*
X144350548Y-49240164D01*
X144433818Y-49357361D01*
X144531098Y-49475416D01*
X144635146Y-49586127D01*
X144738722Y-49681288D01*
X144742988Y-49684850D01*
X144851323Y-49773500D01*
X144964647Y-49863653D01*
X145078804Y-49952163D01*
X145189640Y-50035882D01*
X145292999Y-50111662D01*
X145384725Y-50176356D01*
X145446750Y-50217893D01*
X145503245Y-50253143D01*
X145576974Y-50297131D01*
X145663203Y-50347213D01*
X145757195Y-50400741D01*
X145854216Y-50455069D01*
X145949532Y-50507552D01*
X146038407Y-50555542D01*
X146116106Y-50596395D01*
X146177895Y-50627463D01*
X146189829Y-50633168D01*
X146262265Y-50666845D01*
X146317425Y-50690288D01*
X146360860Y-50704399D01*
X146398122Y-50710082D01*
X146434763Y-50708237D01*
X146476335Y-50699768D01*
X146522533Y-50687234D01*
X146571483Y-50672433D01*
X146609524Y-50659083D01*
X146631201Y-50649190D01*
X146634200Y-50646150D01*
X146623253Y-50638332D01*
X146592296Y-50620875D01*
X146544160Y-50595253D01*
X146481674Y-50562944D01*
X146407667Y-50525423D01*
X146324970Y-50484166D01*
X146300825Y-50472236D01*
X146189499Y-50416727D01*
X146099537Y-50370440D01*
X146029071Y-50332332D01*
X145976233Y-50301361D01*
X145939154Y-50276485D01*
X145917920Y-50258653D01*
X145890470Y-50230514D01*
X145879598Y-50215236D01*
X145883468Y-50208192D01*
X145896715Y-50205258D01*
X145917314Y-50209544D01*
X145957620Y-50224527D01*
X146014885Y-50249024D01*
X146086364Y-50281853D01*
X146169310Y-50321832D01*
X146181195Y-50327692D01*
X146322613Y-50397219D01*
X146442731Y-50455424D01*
X146542715Y-50502832D01*
X146623733Y-50539972D01*
X146686951Y-50567368D01*
X146733536Y-50585549D01*
X146764654Y-50595040D01*
X146777377Y-50596800D01*
X146807583Y-50592373D01*
X146850355Y-50580946D01*
X146883575Y-50569664D01*
X146922694Y-50554287D01*
X146941341Y-50543815D01*
X146943095Y-50534993D01*
X146932465Y-50525244D01*
X146911346Y-50513794D01*
X146872347Y-50496094D01*
X146821397Y-50474736D01*
X146774689Y-50456247D01*
X146674034Y-50417177D01*
X146591884Y-50384520D01*
X146522904Y-50355931D01*
X146461756Y-50329066D01*
X146403104Y-50301580D01*
X146341611Y-50271129D01*
X146272250Y-50235530D01*
X146205304Y-50199800D01*
X146127887Y-50156815D01*
X146042694Y-50108222D01*
X145952422Y-50055668D01*
X145859766Y-50000800D01*
X145767422Y-49945264D01*
X145678085Y-49890708D01*
X145594451Y-49838779D01*
X145519216Y-49791124D01*
X145455076Y-49749389D01*
X145404725Y-49715222D01*
X145370861Y-49690270D01*
X145356177Y-49676180D01*
X145355956Y-49675693D01*
X145357262Y-49657382D01*
X145365856Y-49622874D01*
X145379763Y-49579975D01*
X145408940Y-49498250D01*
X145461955Y-49497781D01*
X145509228Y-49490886D01*
X145544457Y-49468583D01*
X145572255Y-49426992D01*
X145586659Y-49392853D01*
X145606753Y-49347485D01*
X145630671Y-49304815D01*
X145638947Y-49292722D01*
X145658145Y-49264378D01*
X145668445Y-49244266D01*
X145669000Y-49241444D01*
X145659970Y-49226756D01*
X145635919Y-49200260D01*
X145601407Y-49166328D01*
X145560990Y-49129333D01*
X145519230Y-49093647D01*
X145493895Y-49073508D01*
X145459981Y-49045676D01*
X145434287Y-49018322D01*
X145415692Y-48987445D01*
X145403075Y-48949041D01*
X145395314Y-48899108D01*
X145391289Y-48833642D01*
X145389878Y-48748640D01*
X145389799Y-48701830D01*
X145390768Y-48594803D01*
X145393975Y-48509348D01*
X145400171Y-48441683D01*
X145410111Y-48388024D01*
X145424546Y-48344587D01*
X145444229Y-48307589D01*
X145469914Y-48273246D01*
X145476622Y-48265469D01*
X145529300Y-48205623D01*
X145529507Y-48083586D01*
X145531807Y-47964247D01*
X145538037Y-47855606D01*
X145547816Y-47761038D01*
X145560768Y-47683921D01*
X145576512Y-47627628D01*
X145582158Y-47614399D01*
X145605765Y-47578020D01*
X145649017Y-47525771D01*
X145711815Y-47457764D01*
X145794060Y-47374110D01*
X145808163Y-47360125D01*
X145933794Y-47239649D01*
X146048225Y-47138355D01*
X146154371Y-47054311D01*
X146255151Y-46985583D01*
X146353482Y-46930240D01*
X146452280Y-46886349D01*
X146554463Y-46851977D01*
X146589750Y-46842308D01*
X146704365Y-46820582D01*
X146836644Y-46809106D01*
X146981259Y-46807340D01*
X147132879Y-46814746D01*
X147286176Y-46830784D01*
X147435818Y-46854915D01*
X147576478Y-46886600D01*
X147702824Y-46925299D01*
X147797454Y-46964495D01*
X147874987Y-47007226D01*
X147940777Y-47056330D01*
X147998959Y-47116192D01*
X148053668Y-47191199D01*
X148109039Y-47285735D01*
X148120313Y-47306908D01*
X148177548Y-47407587D01*
X148243636Y-47510051D01*
X148315510Y-47610504D01*
X148390107Y-47705151D01*
X148464361Y-47790195D01*
X148535207Y-47861841D01*
X148599580Y-47916294D01*
X148628100Y-47935715D01*
X148695103Y-47983733D01*
X148756328Y-48040395D01*
X148806230Y-48099789D01*
X148839263Y-48156003D01*
X148842682Y-48164493D01*
X148864162Y-48242063D01*
X148878195Y-48334253D01*
X148884404Y-48432494D01*
X148882416Y-48528218D01*
X148871856Y-48612857D01*
X148863772Y-48646548D01*
X148842902Y-48703543D01*
X148812661Y-48759779D01*
X148770308Y-48819040D01*
X148713103Y-48885112D01*
X148638306Y-48961779D01*
X148628705Y-48971200D01*
X148578576Y-49021610D01*
X148533554Y-49069478D01*
X148497597Y-49110406D01*
X148474663Y-49139997D01*
X148470171Y-49147381D01*
X148457519Y-49174857D01*
X148454606Y-49196880D01*
X148461459Y-49224528D01*
X148470405Y-49248777D01*
X148492892Y-49291000D01*
X148530203Y-49342672D01*
X148576890Y-49396446D01*
X148619869Y-49445268D01*
X148659789Y-49496537D01*
X148693980Y-49546061D01*
X148719769Y-49589650D01*
X148734485Y-49623112D01*
X148735455Y-49642257D01*
X148734393Y-49643512D01*
X148713184Y-49659730D01*
X148673468Y-49687514D01*
X148618247Y-49724922D01*
X148550524Y-49770012D01*
X148473301Y-49820843D01*
X148389582Y-49875472D01*
X148302369Y-49931958D01*
X148214665Y-49988359D01*
X148129472Y-50042732D01*
X148049794Y-50093137D01*
X147978634Y-50137631D01*
X147918993Y-50174273D01*
X147873875Y-50201119D01*
X147859750Y-50209134D01*
X147745256Y-50272256D01*
X147650074Y-50324063D01*
X147571514Y-50365934D01*
X147506889Y-50399251D01*
X147453511Y-50425391D01*
X147408690Y-50445736D01*
X147369738Y-50461665D01*
X147361913Y-50464630D01*
X147318536Y-50481192D01*
X147258522Y-50504587D01*
X147188774Y-50532101D01*
X147116193Y-50561022D01*
X147091400Y-50570973D01*
X147007163Y-50603722D01*
X146911271Y-50639199D01*
X146815123Y-50673280D01*
X146730122Y-50701843D01*
X146724697Y-50703590D01*
X146665205Y-50721750D01*
X146590291Y-50743183D01*
X146503361Y-50767040D01*
X146407823Y-50792471D01*
X146307085Y-50818628D01*
X146204554Y-50844661D01*
X146103637Y-50869722D01*
X146007743Y-50892962D01*
X145920279Y-50913532D01*
X145844653Y-50930583D01*
X145784271Y-50943265D01*
X145742543Y-50950731D01*
X145725990Y-50952400D01*
X145685301Y-50955889D01*
X145650958Y-50964788D01*
X145628922Y-50976738D01*
X145625152Y-50989384D01*
X145626900Y-50991579D01*
X145644551Y-51001643D01*
X145679392Y-51016442D01*
X145724403Y-51033033D01*
X145731785Y-51035557D01*
X145828812Y-51059652D01*
X145929823Y-51066448D01*
X146040049Y-51055943D01*
X146137398Y-51035330D01*
X146225537Y-51010959D01*
X146333160Y-50977882D01*
X146456452Y-50937509D01*
X146591598Y-50891245D01*
X146734782Y-50840499D01*
X146882188Y-50786677D01*
X147030002Y-50731188D01*
X147174407Y-50675438D01*
X147311588Y-50620836D01*
X147437730Y-50568788D01*
X147549017Y-50520702D01*
X147618450Y-50489019D01*
X147697140Y-50450539D01*
X147783649Y-50405721D01*
X147872342Y-50357708D01*
X147957584Y-50309641D01*
X148033738Y-50264664D01*
X148095169Y-50225920D01*
X148117105Y-50210934D01*
X148160984Y-50183431D01*
X148205845Y-50161186D01*
X148245501Y-50146653D01*
X148273767Y-50142282D01*
X148282509Y-50145374D01*
X148282232Y-50158693D01*
X148278180Y-50162515D01*
X148262930Y-50173637D01*
X148232620Y-50196059D01*
X148192534Y-50225867D01*
X148170598Y-50242226D01*
X148026601Y-50342108D01*
X147866756Y-50438262D01*
X147688914Y-50531789D01*
X147490927Y-50623786D01*
X147270647Y-50715353D01*
X147167600Y-50755223D01*
X147092704Y-50783067D01*
X147002271Y-50815787D01*
X146899758Y-50852205D01*
X146788617Y-50891148D01*
X146672304Y-50931439D01*
X146554273Y-50971902D01*
X146437979Y-51011362D01*
X146326876Y-51048643D01*
X146224418Y-51082569D01*
X146134060Y-51111966D01*
X146059257Y-51135656D01*
X146003463Y-51152464D01*
X145986500Y-51157196D01*
X145919572Y-51179535D01*
X145870079Y-51205314D01*
X145840907Y-51232717D01*
X145834100Y-51253063D01*
X145845551Y-51263175D01*
X145875909Y-51268168D01*
X145919189Y-51267961D01*
X145969402Y-51262472D01*
X146005550Y-51255423D01*
X146035240Y-51249086D01*
X146084406Y-51239292D01*
X146147534Y-51227109D01*
X146219108Y-51213608D01*
X146265900Y-51204935D01*
X146523153Y-51149180D01*
X146792903Y-51074660D01*
X147071877Y-50982524D01*
X147356803Y-50873919D01*
X147644410Y-50749993D01*
X147872450Y-50641474D01*
X148013920Y-50570369D01*
X148140518Y-50504477D01*
X148256114Y-50441340D01*
X148364577Y-50378504D01*
X148469778Y-50313514D01*
X148575586Y-50243912D01*
X148685869Y-50167245D01*
X148804498Y-50081057D01*
X148935342Y-49982892D01*
X149057016Y-49889771D01*
X149162781Y-49802165D01*
X149276330Y-49697208D01*
X149393986Y-49579083D01*
X149512075Y-49451972D01*
X149626920Y-49320057D01*
X149734847Y-49187522D01*
X149832180Y-49058548D01*
X149915245Y-48937319D01*
X149963722Y-48857930D01*
X150024865Y-48740628D01*
X150070878Y-48629413D01*
X150100378Y-48528063D01*
X150111365Y-48453675D01*
X150112850Y-48409141D01*
X150111252Y-48376572D01*
X150106928Y-48362205D01*
X150106146Y-48362000D01*
X150094649Y-48371820D01*
X150071759Y-48398222D01*
X150040849Y-48437120D01*
X150007097Y-48481969D01*
X149968068Y-48531553D01*
X149917890Y-48588859D01*
X149854724Y-48655804D01*
X149776734Y-48734308D01*
X149682083Y-48826288D01*
X149627395Y-48878443D01*
X149551569Y-48949813D01*
X149470094Y-49025488D01*
X149385328Y-49103363D01*
X149299633Y-49181334D01*
X149215367Y-49257298D01*
X149134890Y-49329150D01*
X149060563Y-49394786D01*
X148994744Y-49452104D01*
X148939794Y-49498997D01*
X148898072Y-49533364D01*
X148871938Y-49553099D01*
X148867832Y-49555662D01*
X148855319Y-49559760D01*
X148850797Y-49549514D01*
X148852565Y-49519965D01*
X148853293Y-49513337D01*
X148854898Y-49479867D01*
X148848175Y-49453530D01*
X148829442Y-49424558D01*
X148811563Y-49402625D01*
X148746520Y-49322626D01*
X148699380Y-49258132D01*
X148669177Y-49207643D01*
X148654949Y-49169656D01*
X148653500Y-49156420D01*
X148655898Y-49132914D01*
X148664627Y-49108605D01*
X148681988Y-49080451D01*
X148710284Y-49045412D01*
X148751818Y-49000446D01*
X148808891Y-48942513D01*
X148835217Y-48916381D01*
X148902047Y-48847182D01*
X148951529Y-48787258D01*
X148986888Y-48730994D01*
X149011352Y-48672771D01*
X149028147Y-48606974D01*
X149034751Y-48569002D01*
X149041581Y-48456718D01*
X149029501Y-48341709D01*
X149000057Y-48230985D01*
X148954794Y-48131554D01*
X148929565Y-48092204D01*
X148867806Y-48013155D01*
X148801357Y-47944483D01*
X148721539Y-47877415D01*
X148703240Y-47863447D01*
X148659349Y-47829389D01*
X148622368Y-47797488D01*
X148589916Y-47764346D01*
X148559609Y-47726568D01*
X148529066Y-47680758D01*
X148495904Y-47623517D01*
X148457741Y-47551451D01*
X148412194Y-47461162D01*
X148390778Y-47417976D01*
X148338423Y-47314118D01*
X148293399Y-47229923D01*
X148253244Y-47161618D01*
X148215496Y-47105431D01*
X148177695Y-47057588D01*
X148137378Y-47014317D01*
X148110783Y-46988819D01*
X148041628Y-46930603D01*
X147961378Y-46872487D01*
X147875522Y-46817680D01*
X147789545Y-46769392D01*
X147708936Y-46730833D01*
X147639182Y-46705213D01*
X147615967Y-46699392D01*
X147561220Y-46690725D01*
X147487231Y-46682738D01*
X147400154Y-46675771D01*
X147306143Y-46670158D01*
X147211355Y-46666237D01*
X147121944Y-46664345D01*
X147044065Y-46664818D01*
G36*
X149546244Y-50933613D02*
G01*
X149509200Y-50940597D01*
X149490714Y-50949068D01*
X149493634Y-50958076D01*
X149501371Y-50961595D01*
X149526850Y-50981943D01*
X149533163Y-51018218D01*
X149520365Y-51070831D01*
X149517183Y-51079189D01*
X149497847Y-51137858D01*
X149493597Y-51181560D01*
X149504632Y-51215910D01*
X149522873Y-51238727D01*
X149550372Y-51259477D01*
X149584371Y-51268306D01*
X149614948Y-51269402D01*
X149660982Y-51265455D01*
X149703312Y-51256158D01*
X149714580Y-51252036D01*
X149768716Y-51216255D01*
X149805596Y-51166082D01*
X149821537Y-51106861D01*
X149821900Y-51096260D01*
X149812897Y-51030178D01*
X149785555Y-50980852D01*
X149739378Y-50947909D01*
X149673869Y-50930977D01*
X149598996Y-50929066D01*
X149546244Y-50933613D01*
G37*
X149546244Y-50933613D02*
X149509200Y-50940597D01*
X149490714Y-50949068D01*
X149493634Y-50958076D01*
X149501371Y-50961595D01*
X149526850Y-50981943D01*
X149533163Y-51018218D01*
X149520365Y-51070831D01*
X149517183Y-51079189D01*
X149497847Y-51137858D01*
X149493597Y-51181560D01*
X149504632Y-51215910D01*
X149522873Y-51238727D01*
X149550372Y-51259477D01*
X149584371Y-51268306D01*
X149614948Y-51269402D01*
X149660982Y-51265455D01*
X149703312Y-51256158D01*
X149714580Y-51252036D01*
X149768716Y-51216255D01*
X149805596Y-51166082D01*
X149821537Y-51106861D01*
X149821900Y-51096260D01*
X149812897Y-51030178D01*
X149785555Y-50980852D01*
X149739378Y-50947909D01*
X149673869Y-50930977D01*
X149598996Y-50929066D01*
X149546244Y-50933613D01*
G36*
X144819991Y-51094776D02*
G01*
X144793007Y-51097247D01*
X144774891Y-51102095D01*
X144761519Y-51109568D01*
X144756287Y-51113580D01*
X144735750Y-51143556D01*
X144738825Y-51181387D01*
X144765601Y-51227422D01*
X144792422Y-51258439D01*
X144807531Y-51274421D01*
X144820955Y-51286775D01*
X144835923Y-51295814D01*
X144855666Y-51301851D01*
X144883415Y-51305200D01*
X144922400Y-51306176D01*
X144975851Y-51305091D01*
X145046998Y-51302259D01*
X145139073Y-51297993D01*
X145180050Y-51296070D01*
X145253512Y-51292129D01*
X145304695Y-51287534D01*
X145336716Y-51281120D01*
X145352691Y-51271724D01*
X145355736Y-51258182D01*
X145348968Y-51239329D01*
X145346283Y-51233990D01*
X145320193Y-51195104D01*
X145285097Y-51156849D01*
X145249230Y-51127523D01*
X145230850Y-51117696D01*
X145209983Y-51113962D01*
X145168607Y-51109750D01*
X145111600Y-51105447D01*
X145043841Y-51101435D01*
X144995384Y-51099126D01*
X144917055Y-51095964D01*
X144859966Y-51094431D01*
X144819991Y-51094776D01*
G37*
X144819991Y-51094776D02*
X144793007Y-51097247D01*
X144774891Y-51102095D01*
X144761519Y-51109568D01*
X144756287Y-51113580D01*
X144735750Y-51143556D01*
X144738825Y-51181387D01*
X144765601Y-51227422D01*
X144792422Y-51258439D01*
X144807531Y-51274421D01*
X144820955Y-51286775D01*
X144835923Y-51295814D01*
X144855666Y-51301851D01*
X144883415Y-51305200D01*
X144922400Y-51306176D01*
X144975851Y-51305091D01*
X145046998Y-51302259D01*
X145139073Y-51297993D01*
X145180050Y-51296070D01*
X145253512Y-51292129D01*
X145304695Y-51287534D01*
X145336716Y-51281120D01*
X145352691Y-51271724D01*
X145355736Y-51258182D01*
X145348968Y-51239329D01*
X145346283Y-51233990D01*
X145320193Y-51195104D01*
X145285097Y-51156849D01*
X145249230Y-51127523D01*
X145230850Y-51117696D01*
X145209983Y-51113962D01*
X145168607Y-51109750D01*
X145111600Y-51105447D01*
X145043841Y-51101435D01*
X144995384Y-51099126D01*
X144917055Y-51095964D01*
X144859966Y-51094431D01*
X144819991Y-51094776D01*
G36*
X149377400Y-51268330D02*
G01*
X149389849Y-51299853D01*
X149426192Y-51330221D01*
X149469532Y-51351965D01*
X149510280Y-51367192D01*
X149531701Y-51369964D01*
X149536603Y-51360283D01*
X149534224Y-51352008D01*
X149519395Y-51333809D01*
X149490018Y-51308975D01*
X149453781Y-51283142D01*
X149418377Y-51261946D01*
X149399625Y-51253386D01*
X149381501Y-51253287D01*
X149377400Y-51268330D01*
G37*
X149377400Y-51268330D02*
X149389849Y-51299853D01*
X149426192Y-51330221D01*
X149469532Y-51351965D01*
X149510280Y-51367192D01*
X149531701Y-51369964D01*
X149536603Y-51360283D01*
X149534224Y-51352008D01*
X149519395Y-51333809D01*
X149490018Y-51308975D01*
X149453781Y-51283142D01*
X149418377Y-51261946D01*
X149399625Y-51253386D01*
X149381501Y-51253287D01*
X149377400Y-51268330D01*
G36*
X144569358Y-51043215D02*
G01*
X144521621Y-51048797D01*
X144485159Y-51058360D01*
X144484318Y-51058713D01*
X144429673Y-51092862D01*
X144394873Y-51137182D01*
X144378809Y-51187488D01*
X144380369Y-51239594D01*
X144398446Y-51289316D01*
X144431929Y-51332469D01*
X144479708Y-51364868D01*
X144540675Y-51382327D01*
X144570616Y-51384200D01*
X144622829Y-51379738D01*
X144660704Y-51364587D01*
X144671760Y-51356759D01*
X144693706Y-51335969D01*
X144702132Y-51313408D01*
X144700854Y-51278053D01*
X144700406Y-51273977D01*
X144688901Y-51227539D01*
X144667918Y-51179965D01*
X144660884Y-51168339D01*
X144641310Y-51137548D01*
X144629344Y-51116390D01*
X144627600Y-51111748D01*
X144637674Y-51102370D01*
X144662432Y-51087491D01*
X144667550Y-51084793D01*
X144692446Y-51069338D01*
X144695833Y-51058269D01*
X144689775Y-51052911D01*
X144662479Y-51045017D01*
X144619326Y-51041869D01*
X144569358Y-51043215D01*
G37*
X144569358Y-51043215D02*
X144521621Y-51048797D01*
X144485159Y-51058360D01*
X144484318Y-51058713D01*
X144429673Y-51092862D01*
X144394873Y-51137182D01*
X144378809Y-51187488D01*
X144380369Y-51239594D01*
X144398446Y-51289316D01*
X144431929Y-51332469D01*
X144479708Y-51364868D01*
X144540675Y-51382327D01*
X144570616Y-51384200D01*
X144622829Y-51379738D01*
X144660704Y-51364587D01*
X144671760Y-51356759D01*
X144693706Y-51335969D01*
X144702132Y-51313408D01*
X144700854Y-51278053D01*
X144700406Y-51273977D01*
X144688901Y-51227539D01*
X144667918Y-51179965D01*
X144660884Y-51168339D01*
X144641310Y-51137548D01*
X144629344Y-51116390D01*
X144627600Y-51111748D01*
X144637674Y-51102370D01*
X144662432Y-51087491D01*
X144667550Y-51084793D01*
X144692446Y-51069338D01*
X144695833Y-51058269D01*
X144689775Y-51052911D01*
X144662479Y-51045017D01*
X144619326Y-51041869D01*
X144569358Y-51043215D01*
G36*
X144799218Y-51372235D02*
G01*
X144767897Y-51384218D01*
X144732004Y-51403494D01*
X144698820Y-51425748D01*
X144675629Y-51446666D01*
X144669244Y-51460400D01*
X144682624Y-51478260D01*
X144710185Y-51481596D01*
X144745166Y-51470255D01*
X144758475Y-51462415D01*
X144794002Y-51433852D01*
X144817246Y-51405585D01*
X144824914Y-51382566D01*
X144818684Y-51371860D01*
X144799218Y-51372235D01*
G37*
X144799218Y-51372235D02*
X144767897Y-51384218D01*
X144732004Y-51403494D01*
X144698820Y-51425748D01*
X144675629Y-51446666D01*
X144669244Y-51460400D01*
X144682624Y-51478260D01*
X144710185Y-51481596D01*
X144745166Y-51470255D01*
X144758475Y-51462415D01*
X144794002Y-51433852D01*
X144817246Y-51405585D01*
X144824914Y-51382566D01*
X144818684Y-51371860D01*
X144799218Y-51372235D01*
G36*
X149005229Y-50510347D02*
G01*
X149002106Y-50510600D01*
X148951826Y-50518796D01*
X148913801Y-50536460D01*
X148884235Y-50567555D01*
X148859332Y-50616044D01*
X148835800Y-50684236D01*
X148816070Y-50743188D01*
X148795991Y-50786668D01*
X148770318Y-50824129D01*
X148737943Y-50860675D01*
X148689974Y-50905136D01*
X148631944Y-50949610D01*
X148570936Y-50989438D01*
X148514033Y-51019965D01*
X148471500Y-51035809D01*
X148442178Y-51047634D01*
X148429380Y-51067860D01*
X148431723Y-51101419D01*
X148442679Y-51138584D01*
X148454933Y-51181642D01*
X148462169Y-51220782D01*
X148463000Y-51233075D01*
X148453139Y-51269529D01*
X148426311Y-51314572D01*
X148386655Y-51362653D01*
X148338310Y-51408227D01*
X148323732Y-51419818D01*
X148267746Y-51462520D01*
X148138005Y-51453677D01*
X148008264Y-51444833D01*
X147986522Y-51478016D01*
X147972542Y-51503414D01*
X147973840Y-51522706D01*
X147985409Y-51542685D01*
X148025166Y-51582006D01*
X148084644Y-51607875D01*
X148164974Y-51620755D01*
X148177250Y-51621513D01*
X148246757Y-51621127D01*
X148304700Y-51610673D01*
X148331068Y-51601980D01*
X148447754Y-51548996D01*
X148541406Y-51485394D01*
X148612100Y-51411092D01*
X148659913Y-51326006D01*
X148684924Y-51230053D01*
X148686061Y-51220863D01*
X148692452Y-51176669D01*
X148702741Y-51145726D01*
X148721958Y-51118254D01*
X148755134Y-51084477D01*
X148757274Y-51082423D01*
X148791767Y-51050411D01*
X148821080Y-51025050D01*
X148838075Y-51012361D01*
X148851853Y-50997608D01*
X148874648Y-50965810D01*
X148902984Y-50922040D01*
X148926141Y-50883798D01*
X148959350Y-50830115D01*
X148992850Y-50780584D01*
X149021882Y-50742034D01*
X149036045Y-50726154D01*
X149068289Y-50699969D01*
X149109556Y-50673360D01*
X149151677Y-50650889D01*
X149186486Y-50637115D01*
X149199462Y-50634900D01*
X149212655Y-50628086D01*
X149208449Y-50610450D01*
X149189919Y-50586198D01*
X149160143Y-50559537D01*
X149128970Y-50538521D01*
X149088226Y-50517856D01*
X149051662Y-50509496D01*
X149005229Y-50510347D01*
G37*
X149005229Y-50510347D02*
X149002106Y-50510600D01*
X148951826Y-50518796D01*
X148913801Y-50536460D01*
X148884235Y-50567555D01*
X148859332Y-50616044D01*
X148835800Y-50684236D01*
X148816070Y-50743188D01*
X148795991Y-50786668D01*
X148770318Y-50824129D01*
X148737943Y-50860675D01*
X148689974Y-50905136D01*
X148631944Y-50949610D01*
X148570936Y-50989438D01*
X148514033Y-51019965D01*
X148471500Y-51035809D01*
X148442178Y-51047634D01*
X148429380Y-51067860D01*
X148431723Y-51101419D01*
X148442679Y-51138584D01*
X148454933Y-51181642D01*
X148462169Y-51220782D01*
X148463000Y-51233075D01*
X148453139Y-51269529D01*
X148426311Y-51314572D01*
X148386655Y-51362653D01*
X148338310Y-51408227D01*
X148323732Y-51419818D01*
X148267746Y-51462520D01*
X148138005Y-51453677D01*
X148008264Y-51444833D01*
X147986522Y-51478016D01*
X147972542Y-51503414D01*
X147973840Y-51522706D01*
X147985409Y-51542685D01*
X148025166Y-51582006D01*
X148084644Y-51607875D01*
X148164974Y-51620755D01*
X148177250Y-51621513D01*
X148246757Y-51621127D01*
X148304700Y-51610673D01*
X148331068Y-51601980D01*
X148447754Y-51548996D01*
X148541406Y-51485394D01*
X148612100Y-51411092D01*
X148659913Y-51326006D01*
X148684924Y-51230053D01*
X148686061Y-51220863D01*
X148692452Y-51176669D01*
X148702741Y-51145726D01*
X148721958Y-51118254D01*
X148755134Y-51084477D01*
X148757274Y-51082423D01*
X148791767Y-51050411D01*
X148821080Y-51025050D01*
X148838075Y-51012361D01*
X148851853Y-50997608D01*
X148874648Y-50965810D01*
X148902984Y-50922040D01*
X148926141Y-50883798D01*
X148959350Y-50830115D01*
X148992850Y-50780584D01*
X149021882Y-50742034D01*
X149036045Y-50726154D01*
X149068289Y-50699969D01*
X149109556Y-50673360D01*
X149151677Y-50650889D01*
X149186486Y-50637115D01*
X149199462Y-50634900D01*
X149212655Y-50628086D01*
X149208449Y-50610450D01*
X149189919Y-50586198D01*
X149160143Y-50559537D01*
X149128970Y-50538521D01*
X149088226Y-50517856D01*
X149051662Y-50509496D01*
X149005229Y-50510347D01*
G36*
X145101071Y-50620749D02*
G01*
X145039881Y-50650469D01*
X145001600Y-50682716D01*
X144959696Y-50728456D01*
X145031773Y-50757368D01*
X145078174Y-50780336D01*
X145122499Y-50812494D01*
X145168121Y-50857162D01*
X145218414Y-50917663D01*
X145276752Y-50997315D01*
X145279482Y-51001205D01*
X145319227Y-51053632D01*
X145363663Y-51105630D01*
X145404829Y-51148040D01*
X145415230Y-51157419D01*
X145449858Y-51188624D01*
X145471330Y-51214341D01*
X145484645Y-51243535D01*
X145494800Y-51285166D01*
X145499241Y-51308065D01*
X145528146Y-51409714D01*
X145572653Y-51491357D01*
X145621126Y-51543688D01*
X145675691Y-51580836D01*
X145747383Y-51616608D01*
X145828025Y-51647439D01*
X145909438Y-51669765D01*
X145911329Y-51670166D01*
X145970655Y-51681575D01*
X146014339Y-51686525D01*
X146051217Y-51685335D01*
X146090126Y-51678323D01*
X146096479Y-51676838D01*
X146152278Y-51657164D01*
X146198058Y-51629017D01*
X146230030Y-51596149D01*
X146244404Y-51562311D01*
X146239692Y-51535089D01*
X146221516Y-51514297D01*
X146192768Y-51505091D01*
X146149202Y-51507029D01*
X146087956Y-51519336D01*
X146005409Y-51532038D01*
X145933844Y-51525704D01*
X145866157Y-51499133D01*
X145827938Y-51475409D01*
X145767534Y-51422424D01*
X145731722Y-51364416D01*
X145720696Y-51302098D01*
X145734649Y-51236182D01*
X145753093Y-51198562D01*
X145770995Y-51165999D01*
X145780962Y-51143816D01*
X145781668Y-51138229D01*
X145768045Y-51132285D01*
X145738147Y-51120815D01*
X145713450Y-51111746D01*
X145619467Y-51070781D01*
X145544430Y-51020782D01*
X145483171Y-50956992D01*
X145430517Y-50874658D01*
X145408941Y-50831750D01*
X145381606Y-50778305D01*
X145353276Y-50730116D01*
X145328339Y-50694375D01*
X145318280Y-50683198D01*
X145278464Y-50653369D01*
X145231055Y-50628172D01*
X145186153Y-50612447D01*
X145164583Y-50609570D01*
X145101071Y-50620749D01*
G37*
X145101071Y-50620749D02*
X145039881Y-50650469D01*
X145001600Y-50682716D01*
X144959696Y-50728456D01*
X145031773Y-50757368D01*
X145078174Y-50780336D01*
X145122499Y-50812494D01*
X145168121Y-50857162D01*
X145218414Y-50917663D01*
X145276752Y-50997315D01*
X145279482Y-51001205D01*
X145319227Y-51053632D01*
X145363663Y-51105630D01*
X145404829Y-51148040D01*
X145415230Y-51157419D01*
X145449858Y-51188624D01*
X145471330Y-51214341D01*
X145484645Y-51243535D01*
X145494800Y-51285166D01*
X145499241Y-51308065D01*
X145528146Y-51409714D01*
X145572653Y-51491357D01*
X145621126Y-51543688D01*
X145675691Y-51580836D01*
X145747383Y-51616608D01*
X145828025Y-51647439D01*
X145909438Y-51669765D01*
X145911329Y-51670166D01*
X145970655Y-51681575D01*
X146014339Y-51686525D01*
X146051217Y-51685335D01*
X146090126Y-51678323D01*
X146096479Y-51676838D01*
X146152278Y-51657164D01*
X146198058Y-51629017D01*
X146230030Y-51596149D01*
X146244404Y-51562311D01*
X146239692Y-51535089D01*
X146221516Y-51514297D01*
X146192768Y-51505091D01*
X146149202Y-51507029D01*
X146087956Y-51519336D01*
X146005409Y-51532038D01*
X145933844Y-51525704D01*
X145866157Y-51499133D01*
X145827938Y-51475409D01*
X145767534Y-51422424D01*
X145731722Y-51364416D01*
X145720696Y-51302098D01*
X145734649Y-51236182D01*
X145753093Y-51198562D01*
X145770995Y-51165999D01*
X145780962Y-51143816D01*
X145781668Y-51138229D01*
X145768045Y-51132285D01*
X145738147Y-51120815D01*
X145713450Y-51111746D01*
X145619467Y-51070781D01*
X145544430Y-51020782D01*
X145483171Y-50956992D01*
X145430517Y-50874658D01*
X145408941Y-50831750D01*
X145381606Y-50778305D01*
X145353276Y-50730116D01*
X145328339Y-50694375D01*
X145318280Y-50683198D01*
X145278464Y-50653369D01*
X145231055Y-50628172D01*
X145186153Y-50612447D01*
X145164583Y-50609570D01*
X145101071Y-50620749D01*
D13*
X126588000Y-85588000D02*
G75*
G03*
X126588000Y-85588000I-6100000J0D01*
G01*
X175238000Y-69418000D02*
X175238000Y-64218000D01*
X182918000Y-69418000D02*
X175238000Y-69418000D01*
X185518000Y-64218000D02*
X175238000Y-64218000D01*
X182918000Y-69418000D02*
X182918000Y-66818000D01*
X182918000Y-66818000D02*
X185518000Y-66818000D01*
X185518000Y-66818000D02*
X185518000Y-64218000D01*
X184188000Y-69418000D02*
X185518000Y-69418000D01*
X185518000Y-69418000D02*
X185518000Y-68088000D01*
X143688000Y-59216800D02*
X150688000Y-59216800D01*
X143688000Y-54016800D02*
X150688000Y-54016800D01*
X150688000Y-54016800D02*
X150688000Y-55016800D01*
D12*
X168890380Y-87254666D02*
X169604666Y-87254666D01*
X169747523Y-87207047D01*
X169842761Y-87111809D01*
X169890380Y-86968952D01*
X169890380Y-86873714D01*
X168985619Y-87683238D02*
X168938000Y-87730857D01*
X168890380Y-87826095D01*
X168890380Y-88064190D01*
X168938000Y-88159428D01*
X168985619Y-88207047D01*
X169080857Y-88254666D01*
X169176095Y-88254666D01*
X169318952Y-88207047D01*
X169890380Y-87635619D01*
X169890380Y-88254666D01*
X157761333Y-43867761D02*
X157618476Y-43915380D01*
X157380380Y-43915380D01*
X157285142Y-43867761D01*
X157237523Y-43820142D01*
X157189904Y-43724904D01*
X157189904Y-43629666D01*
X157237523Y-43534428D01*
X157285142Y-43486809D01*
X157380380Y-43439190D01*
X157570857Y-43391571D01*
X157666095Y-43343952D01*
X157713714Y-43296333D01*
X157761333Y-43201095D01*
X157761333Y-43105857D01*
X157713714Y-43010619D01*
X157666095Y-42963000D01*
X157570857Y-42915380D01*
X157332761Y-42915380D01*
X157189904Y-42963000D01*
X156856571Y-42915380D02*
X156618476Y-43915380D01*
X156428000Y-43201095D01*
X156237523Y-43915380D01*
X155999428Y-42915380D01*
X155094666Y-43915380D02*
X155666095Y-43915380D01*
X155380380Y-43915380D02*
X155380380Y-42915380D01*
X155475619Y-43058238D01*
X155570857Y-43153476D01*
X155666095Y-43201095D01*
X139291333Y-43867761D02*
X139148476Y-43915380D01*
X138910380Y-43915380D01*
X138815142Y-43867761D01*
X138767523Y-43820142D01*
X138719904Y-43724904D01*
X138719904Y-43629666D01*
X138767523Y-43534428D01*
X138815142Y-43486809D01*
X138910380Y-43439190D01*
X139100857Y-43391571D01*
X139196095Y-43343952D01*
X139243714Y-43296333D01*
X139291333Y-43201095D01*
X139291333Y-43105857D01*
X139243714Y-43010619D01*
X139196095Y-42963000D01*
X139100857Y-42915380D01*
X138862761Y-42915380D01*
X138719904Y-42963000D01*
X138386571Y-42915380D02*
X138148476Y-43915380D01*
X137958000Y-43201095D01*
X137767523Y-43915380D01*
X137529428Y-42915380D01*
X137196095Y-43010619D02*
X137148476Y-42963000D01*
X137053238Y-42915380D01*
X136815142Y-42915380D01*
X136719904Y-42963000D01*
X136672285Y-43010619D01*
X136624666Y-43105857D01*
X136624666Y-43201095D01*
X136672285Y-43343952D01*
X137243714Y-43915380D01*
X136624666Y-43915380D01*
X175949904Y-51040380D02*
X175949904Y-51849904D01*
X175997523Y-51945142D01*
X176045142Y-51992761D01*
X176140380Y-52040380D01*
X176330857Y-52040380D01*
X176426095Y-51992761D01*
X176473714Y-51945142D01*
X176521333Y-51849904D01*
X176521333Y-51040380D01*
X177521333Y-52040380D02*
X176949904Y-52040380D01*
X177235619Y-52040380D02*
X177235619Y-51040380D01*
X177140380Y-51183238D01*
X177045142Y-51278476D01*
X176949904Y-51326095D01*
X178140380Y-51040380D02*
X178235619Y-51040380D01*
X178330857Y-51088000D01*
X178378476Y-51135619D01*
X178426095Y-51230857D01*
X178473714Y-51421333D01*
X178473714Y-51659428D01*
X178426095Y-51849904D01*
X178378476Y-51945142D01*
X178330857Y-51992761D01*
X178235619Y-52040380D01*
X178140380Y-52040380D01*
X178045142Y-51992761D01*
X177997523Y-51945142D01*
X177949904Y-51849904D01*
X177902285Y-51659428D01*
X177902285Y-51421333D01*
X177949904Y-51230857D01*
X177997523Y-51135619D01*
X178045142Y-51088000D01*
X178140380Y-51040380D01*
X175349904Y-62688000D02*
X175445142Y-62640380D01*
X175588000Y-62640380D01*
X175730857Y-62688000D01*
X175826095Y-62783238D01*
X175873714Y-62878476D01*
X175921333Y-63068952D01*
X175921333Y-63211809D01*
X175873714Y-63402285D01*
X175826095Y-63497523D01*
X175730857Y-63592761D01*
X175588000Y-63640380D01*
X175492761Y-63640380D01*
X175349904Y-63592761D01*
X175302285Y-63545142D01*
X175302285Y-63211809D01*
X175492761Y-63211809D01*
X174873714Y-63640380D02*
X174873714Y-62640380D01*
X174302285Y-63640380D01*
X174302285Y-62640380D01*
X173826095Y-63640380D02*
X173826095Y-62640380D01*
X173588000Y-62640380D01*
X173445142Y-62688000D01*
X173349904Y-62783238D01*
X173302285Y-62878476D01*
X173254666Y-63068952D01*
X173254666Y-63211809D01*
X173302285Y-63402285D01*
X173349904Y-63497523D01*
X173445142Y-63592761D01*
X173588000Y-63640380D01*
X173826095Y-63640380D01*
X181021333Y-62540380D02*
X180688000Y-63540380D01*
X180354666Y-62540380D01*
X179449904Y-63445142D02*
X179497523Y-63492761D01*
X179640380Y-63540380D01*
X179735619Y-63540380D01*
X179878476Y-63492761D01*
X179973714Y-63397523D01*
X180021333Y-63302285D01*
X180068952Y-63111809D01*
X180068952Y-62968952D01*
X180021333Y-62778476D01*
X179973714Y-62683238D01*
X179878476Y-62588000D01*
X179735619Y-62540380D01*
X179640380Y-62540380D01*
X179497523Y-62588000D01*
X179449904Y-62635619D01*
X178449904Y-63445142D02*
X178497523Y-63492761D01*
X178640380Y-63540380D01*
X178735619Y-63540380D01*
X178878476Y-63492761D01*
X178973714Y-63397523D01*
X179021333Y-63302285D01*
X179068952Y-63111809D01*
X179068952Y-62968952D01*
X179021333Y-62778476D01*
X178973714Y-62683238D01*
X178878476Y-62588000D01*
X178735619Y-62540380D01*
X178640380Y-62540380D01*
X178497523Y-62588000D01*
X178449904Y-62635619D01*
X175349904Y-62688000D02*
X175445142Y-62640380D01*
X175588000Y-62640380D01*
X175730857Y-62688000D01*
X175826095Y-62783238D01*
X175873714Y-62878476D01*
X175921333Y-63068952D01*
X175921333Y-63211809D01*
X175873714Y-63402285D01*
X175826095Y-63497523D01*
X175730857Y-63592761D01*
X175588000Y-63640380D01*
X175492761Y-63640380D01*
X175349904Y-63592761D01*
X175302285Y-63545142D01*
X175302285Y-63211809D01*
X175492761Y-63211809D01*
X174873714Y-63640380D02*
X174873714Y-62640380D01*
X174302285Y-63640380D01*
X174302285Y-62640380D01*
X173826095Y-63640380D02*
X173826095Y-62640380D01*
X173588000Y-62640380D01*
X173445142Y-62688000D01*
X173349904Y-62783238D01*
X173302285Y-62878476D01*
X173254666Y-63068952D01*
X173254666Y-63211809D01*
X173302285Y-63402285D01*
X173349904Y-63497523D01*
X173445142Y-63592761D01*
X173588000Y-63640380D01*
X173826095Y-63640380D01*
X181021333Y-62540380D02*
X180688000Y-63540380D01*
X180354666Y-62540380D01*
X179449904Y-63445142D02*
X179497523Y-63492761D01*
X179640380Y-63540380D01*
X179735619Y-63540380D01*
X179878476Y-63492761D01*
X179973714Y-63397523D01*
X180021333Y-63302285D01*
X180068952Y-63111809D01*
X180068952Y-62968952D01*
X180021333Y-62778476D01*
X179973714Y-62683238D01*
X179878476Y-62588000D01*
X179735619Y-62540380D01*
X179640380Y-62540380D01*
X179497523Y-62588000D01*
X179449904Y-62635619D01*
X178449904Y-63445142D02*
X178497523Y-63492761D01*
X178640380Y-63540380D01*
X178735619Y-63540380D01*
X178878476Y-63492761D01*
X178973714Y-63397523D01*
X179021333Y-63302285D01*
X179068952Y-63111809D01*
X179068952Y-62968952D01*
X179021333Y-62778476D01*
X178973714Y-62683238D01*
X178878476Y-62588000D01*
X178735619Y-62540380D01*
X178640380Y-62540380D01*
X178497523Y-62588000D01*
X178449904Y-62635619D01*
X177473714Y-63640380D02*
X177473714Y-62640380D01*
X177473714Y-63116571D02*
X176902285Y-63116571D01*
X176902285Y-63640380D02*
X176902285Y-62640380D01*
X166021333Y-51140380D02*
X165688000Y-52140380D01*
X165354666Y-51140380D01*
X115949904Y-51040380D02*
X115949904Y-51849904D01*
X115997523Y-51945142D01*
X116045142Y-51992761D01*
X116140380Y-52040380D01*
X116330857Y-52040380D01*
X116426095Y-51992761D01*
X116473714Y-51945142D01*
X116521333Y-51849904D01*
X116521333Y-51040380D01*
X117521333Y-52040380D02*
X116949904Y-52040380D01*
X117235619Y-52040380D02*
X117235619Y-51040380D01*
X117140380Y-51183238D01*
X117045142Y-51278476D01*
X116949904Y-51326095D01*
X118473714Y-52040380D02*
X117902285Y-52040380D01*
X118188000Y-52040380D02*
X118188000Y-51040380D01*
X118092761Y-51183238D01*
X117997523Y-51278476D01*
X117902285Y-51326095D01*
X120549904Y-39488000D02*
X120645142Y-39440380D01*
X120788000Y-39440380D01*
X120930857Y-39488000D01*
X121026095Y-39583238D01*
X121073714Y-39678476D01*
X121121333Y-39868952D01*
X121121333Y-40011809D01*
X121073714Y-40202285D01*
X121026095Y-40297523D01*
X120930857Y-40392761D01*
X120788000Y-40440380D01*
X120692761Y-40440380D01*
X120549904Y-40392761D01*
X120502285Y-40345142D01*
X120502285Y-40011809D01*
X120692761Y-40011809D01*
X120073714Y-40440380D02*
X120073714Y-39440380D01*
X119502285Y-40440380D01*
X119502285Y-39440380D01*
X119026095Y-40440380D02*
X119026095Y-39440380D01*
X118788000Y-39440380D01*
X118645142Y-39488000D01*
X118549904Y-39583238D01*
X118502285Y-39678476D01*
X118454666Y-39868952D01*
X118454666Y-40011809D01*
X118502285Y-40202285D01*
X118549904Y-40297523D01*
X118645142Y-40392761D01*
X118788000Y-40440380D01*
X119026095Y-40440380D01*
X116021333Y-39540380D02*
X115688000Y-40540380D01*
X115354666Y-39540380D01*
X114449904Y-40445142D02*
X114497523Y-40492761D01*
X114640380Y-40540380D01*
X114735619Y-40540380D01*
X114878476Y-40492761D01*
X114973714Y-40397523D01*
X115021333Y-40302285D01*
X115068952Y-40111809D01*
X115068952Y-39968952D01*
X115021333Y-39778476D01*
X114973714Y-39683238D01*
X114878476Y-39588000D01*
X114735619Y-39540380D01*
X114640380Y-39540380D01*
X114497523Y-39588000D01*
X114449904Y-39635619D01*
X113449904Y-40445142D02*
X113497523Y-40492761D01*
X113640380Y-40540380D01*
X113735619Y-40540380D01*
X113878476Y-40492761D01*
X113973714Y-40397523D01*
X114021333Y-40302285D01*
X114068952Y-40111809D01*
X114068952Y-39968952D01*
X114021333Y-39778476D01*
X113973714Y-39683238D01*
X113878476Y-39588000D01*
X113735619Y-39540380D01*
X113640380Y-39540380D01*
X113497523Y-39588000D01*
X113449904Y-39635619D01*
X120549904Y-39488000D02*
X120645142Y-39440380D01*
X120788000Y-39440380D01*
X120930857Y-39488000D01*
X121026095Y-39583238D01*
X121073714Y-39678476D01*
X121121333Y-39868952D01*
X121121333Y-40011809D01*
X121073714Y-40202285D01*
X121026095Y-40297523D01*
X120930857Y-40392761D01*
X120788000Y-40440380D01*
X120692761Y-40440380D01*
X120549904Y-40392761D01*
X120502285Y-40345142D01*
X120502285Y-40011809D01*
X120692761Y-40011809D01*
X120073714Y-40440380D02*
X120073714Y-39440380D01*
X119502285Y-40440380D01*
X119502285Y-39440380D01*
X119026095Y-40440380D02*
X119026095Y-39440380D01*
X118788000Y-39440380D01*
X118645142Y-39488000D01*
X118549904Y-39583238D01*
X118502285Y-39678476D01*
X118454666Y-39868952D01*
X118454666Y-40011809D01*
X118502285Y-40202285D01*
X118549904Y-40297523D01*
X118645142Y-40392761D01*
X118788000Y-40440380D01*
X119026095Y-40440380D01*
X116021333Y-39540380D02*
X115688000Y-40540380D01*
X115354666Y-39540380D01*
X114449904Y-40445142D02*
X114497523Y-40492761D01*
X114640380Y-40540380D01*
X114735619Y-40540380D01*
X114878476Y-40492761D01*
X114973714Y-40397523D01*
X115021333Y-40302285D01*
X115068952Y-40111809D01*
X115068952Y-39968952D01*
X115021333Y-39778476D01*
X114973714Y-39683238D01*
X114878476Y-39588000D01*
X114735619Y-39540380D01*
X114640380Y-39540380D01*
X114497523Y-39588000D01*
X114449904Y-39635619D01*
X113449904Y-40445142D02*
X113497523Y-40492761D01*
X113640380Y-40540380D01*
X113735619Y-40540380D01*
X113878476Y-40492761D01*
X113973714Y-40397523D01*
X114021333Y-40302285D01*
X114068952Y-40111809D01*
X114068952Y-39968952D01*
X114021333Y-39778476D01*
X113973714Y-39683238D01*
X113878476Y-39588000D01*
X113735619Y-39540380D01*
X113640380Y-39540380D01*
X113497523Y-39588000D01*
X113449904Y-39635619D01*
X117473714Y-40440380D02*
X117473714Y-39440380D01*
X117473714Y-39916571D02*
X116902285Y-39916571D01*
X116902285Y-40440380D02*
X116902285Y-39440380D01*
X129021333Y-50940380D02*
X128688000Y-51940380D01*
X128354666Y-50940380D01*
X143475142Y-55945142D02*
X143522761Y-55897523D01*
X143570380Y-55754666D01*
X143570380Y-55659428D01*
X143522761Y-55516571D01*
X143427523Y-55421333D01*
X143332285Y-55373714D01*
X143141809Y-55326095D01*
X142998952Y-55326095D01*
X142808476Y-55373714D01*
X142713238Y-55421333D01*
X142618000Y-55516571D01*
X142570380Y-55659428D01*
X142570380Y-55754666D01*
X142618000Y-55897523D01*
X142665619Y-55945142D01*
X143570380Y-56897523D02*
X143570380Y-56326095D01*
X143570380Y-56611809D02*
X142570380Y-56611809D01*
X142713238Y-56516571D01*
X142808476Y-56421333D01*
X142856095Y-56326095D01*
X142570380Y-57802285D02*
X142570380Y-57326095D01*
X143046571Y-57278476D01*
X142998952Y-57326095D01*
X142951333Y-57421333D01*
X142951333Y-57659428D01*
X142998952Y-57754666D01*
X143046571Y-57802285D01*
X143141809Y-57849904D01*
X143379904Y-57849904D01*
X143475142Y-57802285D01*
X143522761Y-57754666D01*
X143570380Y-57659428D01*
X143570380Y-57421333D01*
X143522761Y-57326095D01*
X143475142Y-57278476D01*
X145140380Y-65587642D02*
X144664190Y-65254309D01*
X145140380Y-65016214D02*
X144140380Y-65016214D01*
X144140380Y-65397166D01*
X144188000Y-65492404D01*
X144235619Y-65540023D01*
X144330857Y-65587642D01*
X144473714Y-65587642D01*
X144568952Y-65540023D01*
X144616571Y-65492404D01*
X144664190Y-65397166D01*
X144664190Y-65016214D01*
X145140380Y-66540023D02*
X145140380Y-65968595D01*
X145140380Y-66254309D02*
X144140380Y-66254309D01*
X144283238Y-66159071D01*
X144378476Y-66063833D01*
X144426095Y-65968595D01*
X144140380Y-67397166D02*
X144140380Y-67206690D01*
X144188000Y-67111452D01*
X144235619Y-67063833D01*
X144378476Y-66968595D01*
X144568952Y-66920976D01*
X144949904Y-66920976D01*
X145045142Y-66968595D01*
X145092761Y-67016214D01*
X145140380Y-67111452D01*
X145140380Y-67301928D01*
X145092761Y-67397166D01*
X145045142Y-67444785D01*
X144949904Y-67492404D01*
X144711809Y-67492404D01*
X144616571Y-67444785D01*
X144568952Y-67397166D01*
X144521333Y-67301928D01*
X144521333Y-67111452D01*
X144568952Y-67016214D01*
X144616571Y-66968595D01*
X144711809Y-66920976D01*
X147140380Y-65587642D02*
X146664190Y-65254309D01*
X147140380Y-65016214D02*
X146140380Y-65016214D01*
X146140380Y-65397166D01*
X146188000Y-65492404D01*
X146235619Y-65540023D01*
X146330857Y-65587642D01*
X146473714Y-65587642D01*
X146568952Y-65540023D01*
X146616571Y-65492404D01*
X146664190Y-65397166D01*
X146664190Y-65016214D01*
X147140380Y-66540023D02*
X147140380Y-65968595D01*
X147140380Y-66254309D02*
X146140380Y-66254309D01*
X146283238Y-66159071D01*
X146378476Y-66063833D01*
X146426095Y-65968595D01*
X146140380Y-67444785D02*
X146140380Y-66968595D01*
X146616571Y-66920976D01*
X146568952Y-66968595D01*
X146521333Y-67063833D01*
X146521333Y-67301928D01*
X146568952Y-67397166D01*
X146616571Y-67444785D01*
X146711809Y-67492404D01*
X146949904Y-67492404D01*
X147045142Y-67444785D01*
X147092761Y-67397166D01*
X147140380Y-67301928D01*
X147140380Y-67063833D01*
X147092761Y-66968595D01*
X147045142Y-66920976D01*
X149203880Y-65587642D02*
X148727690Y-65254309D01*
X149203880Y-65016214D02*
X148203880Y-65016214D01*
X148203880Y-65397166D01*
X148251500Y-65492404D01*
X148299119Y-65540023D01*
X148394357Y-65587642D01*
X148537214Y-65587642D01*
X148632452Y-65540023D01*
X148680071Y-65492404D01*
X148727690Y-65397166D01*
X148727690Y-65016214D01*
X149203880Y-66540023D02*
X149203880Y-65968595D01*
X149203880Y-66254309D02*
X148203880Y-66254309D01*
X148346738Y-66159071D01*
X148441976Y-66063833D01*
X148489595Y-65968595D01*
X148537214Y-67397166D02*
X149203880Y-67397166D01*
X148156261Y-67159071D02*
X148870547Y-66920976D01*
X148870547Y-67540023D01*
X151140380Y-65587642D02*
X150664190Y-65254309D01*
X151140380Y-65016214D02*
X150140380Y-65016214D01*
X150140380Y-65397166D01*
X150188000Y-65492404D01*
X150235619Y-65540023D01*
X150330857Y-65587642D01*
X150473714Y-65587642D01*
X150568952Y-65540023D01*
X150616571Y-65492404D01*
X150664190Y-65397166D01*
X150664190Y-65016214D01*
X151140380Y-66540023D02*
X151140380Y-65968595D01*
X151140380Y-66254309D02*
X150140380Y-66254309D01*
X150283238Y-66159071D01*
X150378476Y-66063833D01*
X150426095Y-65968595D01*
X150140380Y-66873357D02*
X150140380Y-67492404D01*
X150521333Y-67159071D01*
X150521333Y-67301928D01*
X150568952Y-67397166D01*
X150616571Y-67444785D01*
X150711809Y-67492404D01*
X150949904Y-67492404D01*
X151045142Y-67444785D01*
X151092761Y-67397166D01*
X151140380Y-67301928D01*
X151140380Y-67016214D01*
X151092761Y-66920976D01*
X151045142Y-66873357D01*
X120416571Y-84707047D02*
X120464190Y-84849904D01*
X120511809Y-84897523D01*
X120607047Y-84945142D01*
X120749904Y-84945142D01*
X120845142Y-84897523D01*
X120892761Y-84849904D01*
X120940380Y-84754666D01*
X120940380Y-84373714D01*
X119940380Y-84373714D01*
X119940380Y-84707047D01*
X119988000Y-84802285D01*
X120035619Y-84849904D01*
X120130857Y-84897523D01*
X120226095Y-84897523D01*
X120321333Y-84849904D01*
X120368952Y-84802285D01*
X120416571Y-84707047D01*
X120416571Y-84373714D01*
X119940380Y-85278476D02*
X119940380Y-85945142D01*
X120940380Y-85278476D01*
X120940380Y-85945142D01*
X120940380Y-86849904D02*
X120940380Y-86278476D01*
X120940380Y-86564190D02*
X119940380Y-86564190D01*
X120083238Y-86468952D01*
X120178476Y-86373714D01*
X120226095Y-86278476D01*
X117058952Y-88199428D02*
X116297047Y-88199428D01*
X116678000Y-88580380D02*
X116678000Y-87818476D01*
X185970380Y-66484666D02*
X186684666Y-66484666D01*
X186827523Y-66437047D01*
X186922761Y-66341809D01*
X186970380Y-66198952D01*
X186970380Y-66103714D01*
X185970380Y-67437047D02*
X185970380Y-66960857D01*
X186446571Y-66913238D01*
X186398952Y-66960857D01*
X186351333Y-67056095D01*
X186351333Y-67294190D01*
X186398952Y-67389428D01*
X186446571Y-67437047D01*
X186541809Y-67484666D01*
X186779904Y-67484666D01*
X186875142Y-67437047D01*
X186922761Y-67389428D01*
X186970380Y-67294190D01*
X186970380Y-67056095D01*
X186922761Y-66960857D01*
X186875142Y-66913238D01*
X148426095Y-56040380D02*
X148426095Y-56849904D01*
X148378476Y-56945142D01*
X148330857Y-56992761D01*
X148235619Y-57040380D01*
X148045142Y-57040380D01*
X147949904Y-56992761D01*
X147902285Y-56945142D01*
X147854666Y-56849904D01*
X147854666Y-56040380D01*
X146854666Y-57040380D02*
X147426095Y-57040380D01*
X147140380Y-57040380D02*
X147140380Y-56040380D01*
X147235619Y-56183238D01*
X147330857Y-56278476D01*
X147426095Y-56326095D01*
X146473714Y-56135619D02*
X146426095Y-56088000D01*
X146330857Y-56040380D01*
X146092761Y-56040380D01*
X145997523Y-56088000D01*
X145949904Y-56135619D01*
X145902285Y-56230857D01*
X145902285Y-56326095D01*
X145949904Y-56468952D01*
X146521333Y-57040380D01*
X145902285Y-57040380D01*
M02*
