%TF.GenerationSoftware,KiCad,Pcbnew,5.0.2-bee76a0~70~ubuntu18.04.1*%
%TF.CreationDate,2019-01-10T22:11:30+01:00*%
%TF.ProjectId,esp32_radio,65737033-325f-4726-9164-696f2e6b6963,V0.1*%
%TF.SameCoordinates,Original*%
%TF.FileFunction,Soldermask,Bot*%
%TF.FilePolarity,Negative*%
%FSLAX46Y46*%
G04 Gerber Fmt 4.6, Leading zero omitted, Abs format (unit mm)*
G04 Created by KiCad (PCBNEW 5.0.2-bee76a0~70~ubuntu18.04.1) date jeu. 10 janv. 2019 22:11:30 CET*
%MOMM*%
%LPD*%
G01*
G04 APERTURE LIST*
%ADD10C,0.150000*%
%ADD11C,0.100000*%
G04 APERTURE END LIST*
D10*
X107188000Y-109088000D02*
G75*
G03X112188000Y-114088000I5000000J0D01*
G01*
X182188000Y-114088000D02*
G75*
G03X187188000Y-109088000I0J5000000D01*
G01*
X187188000Y-44088000D02*
G75*
G03X182188000Y-39088000I-5000000J0D01*
G01*
X112188000Y-39088000D02*
G75*
G03X107188000Y-44088000I0J-5000000D01*
G01*
X182188000Y-39088000D02*
X112188000Y-39088000D01*
X187188000Y-109088000D02*
X187188000Y-44088000D01*
X112188000Y-114088000D02*
X182188000Y-114088000D01*
X107188000Y-44088000D02*
X107188000Y-109088000D01*
D11*
G36*
X140494507Y-111077582D02*
X140685740Y-111156793D01*
X140856687Y-111271016D01*
X140857849Y-111271793D01*
X141004207Y-111418151D01*
X141004209Y-111418154D01*
X141119207Y-111590260D01*
X141198418Y-111781493D01*
X141238800Y-111984505D01*
X141238800Y-112191495D01*
X141198418Y-112394507D01*
X141119207Y-112585740D01*
X141094994Y-112621977D01*
X141004207Y-112757849D01*
X140857849Y-112904207D01*
X140857846Y-112904209D01*
X140685740Y-113019207D01*
X140494507Y-113098418D01*
X140291495Y-113138800D01*
X140084505Y-113138800D01*
X139881493Y-113098418D01*
X139690260Y-113019207D01*
X139518154Y-112904209D01*
X139518151Y-112904207D01*
X139371793Y-112757849D01*
X139281006Y-112621977D01*
X139256793Y-112585740D01*
X139177582Y-112394507D01*
X139137200Y-112191495D01*
X139137200Y-111984505D01*
X139177582Y-111781493D01*
X139256793Y-111590260D01*
X139371791Y-111418154D01*
X139371793Y-111418151D01*
X139518151Y-111271793D01*
X139519313Y-111271016D01*
X139690260Y-111156793D01*
X139881493Y-111077582D01*
X140084505Y-111037200D01*
X140291495Y-111037200D01*
X140494507Y-111077582D01*
X140494507Y-111077582D01*
G37*
G36*
X133994507Y-111077582D02*
X134185740Y-111156793D01*
X134356687Y-111271016D01*
X134357849Y-111271793D01*
X134504207Y-111418151D01*
X134504209Y-111418154D01*
X134619207Y-111590260D01*
X134698418Y-111781493D01*
X134738800Y-111984505D01*
X134738800Y-112191495D01*
X134698418Y-112394507D01*
X134619207Y-112585740D01*
X134594994Y-112621977D01*
X134504207Y-112757849D01*
X134357849Y-112904207D01*
X134357846Y-112904209D01*
X134185740Y-113019207D01*
X133994507Y-113098418D01*
X133791495Y-113138800D01*
X133584505Y-113138800D01*
X133381493Y-113098418D01*
X133190260Y-113019207D01*
X133018154Y-112904209D01*
X133018151Y-112904207D01*
X132871793Y-112757849D01*
X132781006Y-112621977D01*
X132756793Y-112585740D01*
X132677582Y-112394507D01*
X132637200Y-112191495D01*
X132637200Y-111984505D01*
X132677582Y-111781493D01*
X132756793Y-111590260D01*
X132871791Y-111418154D01*
X132871793Y-111418151D01*
X133018151Y-111271793D01*
X133019313Y-111271016D01*
X133190260Y-111156793D01*
X133381493Y-111077582D01*
X133584505Y-111037200D01*
X133791495Y-111037200D01*
X133994507Y-111077582D01*
X133994507Y-111077582D01*
G37*
G36*
X120271294Y-110970217D02*
X120280976Y-110971170D01*
X120332888Y-110986918D01*
X120384801Y-111002665D01*
X120480489Y-111053811D01*
X120564359Y-111122641D01*
X120633189Y-111206511D01*
X120684335Y-111302198D01*
X120715830Y-111406024D01*
X120723800Y-111486943D01*
X120723800Y-112541057D01*
X120715830Y-112621976D01*
X120684335Y-112725802D01*
X120633189Y-112821489D01*
X120564359Y-112905359D01*
X120480489Y-112974189D01*
X120480487Y-112974190D01*
X120480486Y-112974191D01*
X120439738Y-112995971D01*
X120384802Y-113025335D01*
X120332889Y-113041082D01*
X120280977Y-113056830D01*
X120271295Y-113057783D01*
X120173000Y-113067465D01*
X120074706Y-113057783D01*
X120065024Y-113056830D01*
X120013112Y-113041082D01*
X119961199Y-113025335D01*
X119906263Y-112995971D01*
X119865515Y-112974191D01*
X119865514Y-112974190D01*
X119865512Y-112974189D01*
X119781642Y-112905359D01*
X119712812Y-112821489D01*
X119661666Y-112725802D01*
X119630171Y-112621976D01*
X119622201Y-112541057D01*
X119622200Y-111486944D01*
X119630170Y-111406025D01*
X119630171Y-111406023D01*
X119661665Y-111302200D01*
X119661665Y-111302199D01*
X119712811Y-111206511D01*
X119781641Y-111122641D01*
X119865511Y-111053811D01*
X119961198Y-111002665D01*
X120013111Y-110986918D01*
X120065023Y-110971170D01*
X120074705Y-110970217D01*
X120173000Y-110960535D01*
X120271294Y-110970217D01*
X120271294Y-110970217D01*
G37*
G36*
X114621294Y-110970217D02*
X114630976Y-110971170D01*
X114682888Y-110986918D01*
X114734801Y-111002665D01*
X114830489Y-111053811D01*
X114914359Y-111122641D01*
X114983189Y-111206511D01*
X115034335Y-111302198D01*
X115065830Y-111406024D01*
X115073800Y-111486943D01*
X115073800Y-112541057D01*
X115065830Y-112621976D01*
X115034335Y-112725802D01*
X114983189Y-112821489D01*
X114914359Y-112905359D01*
X114830489Y-112974189D01*
X114830487Y-112974190D01*
X114830486Y-112974191D01*
X114789738Y-112995971D01*
X114734802Y-113025335D01*
X114682889Y-113041082D01*
X114630977Y-113056830D01*
X114621295Y-113057783D01*
X114523000Y-113067465D01*
X114424706Y-113057783D01*
X114415024Y-113056830D01*
X114363112Y-113041082D01*
X114311199Y-113025335D01*
X114256263Y-112995971D01*
X114215515Y-112974191D01*
X114215514Y-112974190D01*
X114215512Y-112974189D01*
X114131642Y-112905359D01*
X114062812Y-112821489D01*
X114011666Y-112725802D01*
X113980171Y-112621976D01*
X113972201Y-112541057D01*
X113972200Y-111486944D01*
X113980170Y-111406025D01*
X113980171Y-111406023D01*
X114011665Y-111302200D01*
X114011665Y-111302199D01*
X114062811Y-111206511D01*
X114131641Y-111122641D01*
X114215511Y-111053811D01*
X114311198Y-111002665D01*
X114363111Y-110986918D01*
X114415023Y-110971170D01*
X114424705Y-110970217D01*
X114523000Y-110960535D01*
X114621294Y-110970217D01*
X114621294Y-110970217D01*
G37*
G36*
X184697786Y-107894507D02*
X184844534Y-107923697D01*
X185254154Y-108093367D01*
X185622802Y-108339689D01*
X185936311Y-108653198D01*
X186182633Y-109021846D01*
X186352303Y-109431466D01*
X186352303Y-109431467D01*
X186431957Y-109831910D01*
X186438800Y-109866316D01*
X186438800Y-110309684D01*
X186352303Y-110744534D01*
X186182633Y-111154154D01*
X185936311Y-111522802D01*
X185622802Y-111836311D01*
X185254154Y-112082633D01*
X184844534Y-112252303D01*
X184699584Y-112281135D01*
X184409686Y-112338800D01*
X183966314Y-112338800D01*
X183676416Y-112281135D01*
X183531466Y-112252303D01*
X183121846Y-112082633D01*
X182753198Y-111836311D01*
X182439689Y-111522802D01*
X182193367Y-111154154D01*
X182023697Y-110744534D01*
X181937200Y-110309684D01*
X181937200Y-109866316D01*
X181944044Y-109831910D01*
X182023697Y-109431467D01*
X182023697Y-109431466D01*
X182193367Y-109021846D01*
X182439689Y-108653198D01*
X182753198Y-108339689D01*
X183121846Y-108093367D01*
X183531466Y-107923697D01*
X183678214Y-107894507D01*
X183966314Y-107837200D01*
X184409686Y-107837200D01*
X184697786Y-107894507D01*
X184697786Y-107894507D01*
G37*
G36*
X110697786Y-107894507D02*
X110844534Y-107923697D01*
X111254154Y-108093367D01*
X111622802Y-108339689D01*
X111936311Y-108653198D01*
X112182633Y-109021846D01*
X112352303Y-109431466D01*
X112352303Y-109431467D01*
X112431957Y-109831910D01*
X112438800Y-109866316D01*
X112438800Y-110309684D01*
X112352303Y-110744534D01*
X112182633Y-111154154D01*
X111936311Y-111522802D01*
X111622802Y-111836311D01*
X111254154Y-112082633D01*
X110844534Y-112252303D01*
X110699584Y-112281135D01*
X110409686Y-112338800D01*
X109966314Y-112338800D01*
X109676416Y-112281135D01*
X109531466Y-112252303D01*
X109121846Y-112082633D01*
X108753198Y-111836311D01*
X108439689Y-111522802D01*
X108193367Y-111154154D01*
X108023697Y-110744534D01*
X107937200Y-110309684D01*
X107937200Y-109866316D01*
X107944044Y-109831910D01*
X108023697Y-109431467D01*
X108023697Y-109431466D01*
X108193367Y-109021846D01*
X108439689Y-108653198D01*
X108753198Y-108339689D01*
X109121846Y-108093367D01*
X109531466Y-107923697D01*
X109678214Y-107894507D01*
X109966314Y-107837200D01*
X110409686Y-107837200D01*
X110697786Y-107894507D01*
X110697786Y-107894507D01*
G37*
G36*
X119443032Y-109550720D02*
X119502325Y-109575280D01*
X119555686Y-109610935D01*
X119601065Y-109656314D01*
X119636720Y-109709675D01*
X119661280Y-109768968D01*
X119673800Y-109831910D01*
X119673800Y-109896090D01*
X119661280Y-109959032D01*
X119636720Y-110018325D01*
X119601065Y-110071686D01*
X119555686Y-110117065D01*
X119502325Y-110152720D01*
X119443032Y-110177280D01*
X119380090Y-110189800D01*
X119315910Y-110189800D01*
X119252968Y-110177280D01*
X119193675Y-110152720D01*
X119140314Y-110117065D01*
X119094935Y-110071686D01*
X119059280Y-110018325D01*
X119034720Y-109959032D01*
X119022200Y-109896090D01*
X119022200Y-109831910D01*
X119034720Y-109768968D01*
X119059280Y-109709675D01*
X119094935Y-109656314D01*
X119140314Y-109610935D01*
X119193675Y-109575280D01*
X119252968Y-109550720D01*
X119315910Y-109538200D01*
X119380090Y-109538200D01*
X119443032Y-109550720D01*
X119443032Y-109550720D01*
G37*
G36*
X115443032Y-109550720D02*
X115502325Y-109575280D01*
X115555686Y-109610935D01*
X115601065Y-109656314D01*
X115636720Y-109709675D01*
X115661280Y-109768968D01*
X115673800Y-109831910D01*
X115673800Y-109896090D01*
X115661280Y-109959032D01*
X115636720Y-110018325D01*
X115601065Y-110071686D01*
X115555686Y-110117065D01*
X115502325Y-110152720D01*
X115443032Y-110177280D01*
X115380090Y-110189800D01*
X115315910Y-110189800D01*
X115252968Y-110177280D01*
X115193675Y-110152720D01*
X115140314Y-110117065D01*
X115094935Y-110071686D01*
X115059280Y-110018325D01*
X115034720Y-109959032D01*
X115022200Y-109896090D01*
X115022200Y-109831910D01*
X115034720Y-109768968D01*
X115059280Y-109709675D01*
X115094935Y-109656314D01*
X115140314Y-109610935D01*
X115193675Y-109575280D01*
X115252968Y-109550720D01*
X115315910Y-109538200D01*
X115380090Y-109538200D01*
X115443032Y-109550720D01*
X115443032Y-109550720D01*
G37*
G36*
X129315578Y-106946617D02*
X129438254Y-106983831D01*
X129438257Y-106983832D01*
X129551313Y-107044261D01*
X129650411Y-107125589D01*
X129731739Y-107224686D01*
X129792168Y-107337742D01*
X129792168Y-107337743D01*
X129792169Y-107337745D01*
X129829383Y-107460421D01*
X129838800Y-107556037D01*
X129838800Y-108119963D01*
X129829383Y-108215579D01*
X129816561Y-108257846D01*
X129792168Y-108338258D01*
X129731739Y-108451314D01*
X129650411Y-108550411D01*
X129551314Y-108631739D01*
X129438258Y-108692168D01*
X129438255Y-108692169D01*
X129315579Y-108729383D01*
X129188000Y-108741948D01*
X129060422Y-108729383D01*
X128937746Y-108692169D01*
X128937743Y-108692168D01*
X128824687Y-108631739D01*
X128725592Y-108550413D01*
X128644259Y-108451310D01*
X128583832Y-108338258D01*
X128559439Y-108257846D01*
X128546617Y-108215579D01*
X128537200Y-108119963D01*
X128537200Y-107556038D01*
X128546617Y-107460422D01*
X128583831Y-107337746D01*
X128583832Y-107337743D01*
X128644261Y-107224687D01*
X128725589Y-107125589D01*
X128824686Y-107044261D01*
X128937742Y-106983832D01*
X128937745Y-106983831D01*
X129060421Y-106946617D01*
X129188000Y-106934052D01*
X129315578Y-106946617D01*
X129315578Y-106946617D01*
G37*
G36*
X127838800Y-108738800D02*
X126537200Y-108738800D01*
X126537200Y-106937200D01*
X127838800Y-106937200D01*
X127838800Y-108738800D01*
X127838800Y-108738800D01*
G37*
G36*
X133994507Y-106577582D02*
X134185740Y-106656793D01*
X134356687Y-106771016D01*
X134357849Y-106771793D01*
X134504207Y-106918151D01*
X134504209Y-106918154D01*
X134619207Y-107090260D01*
X134698418Y-107281493D01*
X134738800Y-107484505D01*
X134738800Y-107691495D01*
X134698418Y-107894507D01*
X134619207Y-108085740D01*
X134596338Y-108119965D01*
X134504207Y-108257849D01*
X134357849Y-108404207D01*
X134357846Y-108404209D01*
X134185740Y-108519207D01*
X133994507Y-108598418D01*
X133791495Y-108638800D01*
X133584505Y-108638800D01*
X133381493Y-108598418D01*
X133190260Y-108519207D01*
X133018154Y-108404209D01*
X133018151Y-108404207D01*
X132871793Y-108257849D01*
X132779662Y-108119965D01*
X132756793Y-108085740D01*
X132677582Y-107894507D01*
X132637200Y-107691495D01*
X132637200Y-107484505D01*
X132677582Y-107281493D01*
X132756793Y-107090260D01*
X132871791Y-106918154D01*
X132871793Y-106918151D01*
X133018151Y-106771793D01*
X133019313Y-106771016D01*
X133190260Y-106656793D01*
X133381493Y-106577582D01*
X133584505Y-106537200D01*
X133791495Y-106537200D01*
X133994507Y-106577582D01*
X133994507Y-106577582D01*
G37*
G36*
X140494507Y-106577582D02*
X140685740Y-106656793D01*
X140856687Y-106771016D01*
X140857849Y-106771793D01*
X141004207Y-106918151D01*
X141004209Y-106918154D01*
X141119207Y-107090260D01*
X141198418Y-107281493D01*
X141238800Y-107484505D01*
X141238800Y-107691495D01*
X141198418Y-107894507D01*
X141119207Y-108085740D01*
X141096338Y-108119965D01*
X141004207Y-108257849D01*
X140857849Y-108404207D01*
X140857846Y-108404209D01*
X140685740Y-108519207D01*
X140494507Y-108598418D01*
X140291495Y-108638800D01*
X140084505Y-108638800D01*
X139881493Y-108598418D01*
X139690260Y-108519207D01*
X139518154Y-108404209D01*
X139518151Y-108404207D01*
X139371793Y-108257849D01*
X139279662Y-108119965D01*
X139256793Y-108085740D01*
X139177582Y-107894507D01*
X139137200Y-107691495D01*
X139137200Y-107484505D01*
X139177582Y-107281493D01*
X139256793Y-107090260D01*
X139371791Y-106918154D01*
X139371793Y-106918151D01*
X139518151Y-106771793D01*
X139519313Y-106771016D01*
X139690260Y-106656793D01*
X139881493Y-106577582D01*
X140084505Y-106537200D01*
X140291495Y-106537200D01*
X140494507Y-106577582D01*
X140494507Y-106577582D01*
G37*
G36*
X164238800Y-99338800D02*
X160137200Y-99338800D01*
X160137200Y-98837200D01*
X164238800Y-98837200D01*
X164238800Y-99338800D01*
X164238800Y-99338800D01*
G37*
G36*
X164238800Y-98538800D02*
X160137200Y-98538800D01*
X160137200Y-98037200D01*
X164238800Y-98037200D01*
X164238800Y-98538800D01*
X164238800Y-98538800D01*
G37*
G36*
X164238800Y-97738800D02*
X160137200Y-97738800D01*
X160137200Y-97237200D01*
X164238800Y-97237200D01*
X164238800Y-97738800D01*
X164238800Y-97738800D01*
G37*
G36*
X164238800Y-96938800D02*
X160137200Y-96938800D01*
X160137200Y-96437200D01*
X164238800Y-96437200D01*
X164238800Y-96938800D01*
X164238800Y-96938800D01*
G37*
G36*
X164238800Y-96138800D02*
X160137200Y-96138800D01*
X160137200Y-95637200D01*
X164238800Y-95637200D01*
X164238800Y-96138800D01*
X164238800Y-96138800D01*
G37*
G36*
X164238800Y-95338800D02*
X160137200Y-95338800D01*
X160137200Y-94837200D01*
X164238800Y-94837200D01*
X164238800Y-95338800D01*
X164238800Y-95338800D01*
G37*
G36*
X164238800Y-94538800D02*
X160137200Y-94538800D01*
X160137200Y-94037200D01*
X164238800Y-94037200D01*
X164238800Y-94538800D01*
X164238800Y-94538800D01*
G37*
G36*
X164238800Y-93738800D02*
X160137200Y-93738800D01*
X160137200Y-93237200D01*
X164238800Y-93237200D01*
X164238800Y-93738800D01*
X164238800Y-93738800D01*
G37*
G36*
X164238800Y-92938800D02*
X160137200Y-92938800D01*
X160137200Y-92437200D01*
X164238800Y-92437200D01*
X164238800Y-92938800D01*
X164238800Y-92938800D01*
G37*
G36*
X164238800Y-92138800D02*
X160137200Y-92138800D01*
X160137200Y-91637200D01*
X164238800Y-91637200D01*
X164238800Y-92138800D01*
X164238800Y-92138800D01*
G37*
G36*
X164238800Y-91338800D02*
X160137200Y-91338800D01*
X160137200Y-90837200D01*
X164238800Y-90837200D01*
X164238800Y-91338800D01*
X164238800Y-91338800D01*
G37*
G36*
X164238800Y-90538800D02*
X160137200Y-90538800D01*
X160137200Y-90037200D01*
X164238800Y-90037200D01*
X164238800Y-90538800D01*
X164238800Y-90538800D01*
G37*
G36*
X164238800Y-89738800D02*
X160137200Y-89738800D01*
X160137200Y-89237200D01*
X164238800Y-89237200D01*
X164238800Y-89738800D01*
X164238800Y-89738800D01*
G37*
G36*
X164238800Y-88938800D02*
X160137200Y-88938800D01*
X160137200Y-88437200D01*
X164238800Y-88437200D01*
X164238800Y-88938800D01*
X164238800Y-88938800D01*
G37*
G36*
X164238800Y-88138800D02*
X160137200Y-88138800D01*
X160137200Y-87637200D01*
X164238800Y-87637200D01*
X164238800Y-88138800D01*
X164238800Y-88138800D01*
G37*
G36*
X164238800Y-87338800D02*
X160137200Y-87338800D01*
X160137200Y-86837200D01*
X164238800Y-86837200D01*
X164238800Y-87338800D01*
X164238800Y-87338800D01*
G37*
G36*
X164238800Y-86538800D02*
X160137200Y-86538800D01*
X160137200Y-86037200D01*
X164238800Y-86037200D01*
X164238800Y-86538800D01*
X164238800Y-86538800D01*
G37*
G36*
X164238800Y-85738800D02*
X160137200Y-85738800D01*
X160137200Y-85237200D01*
X164238800Y-85237200D01*
X164238800Y-85738800D01*
X164238800Y-85738800D01*
G37*
G36*
X112238800Y-81138800D02*
X110137200Y-81138800D01*
X110137200Y-79037200D01*
X112238800Y-79037200D01*
X112238800Y-81138800D01*
X112238800Y-81138800D01*
G37*
G36*
X142880800Y-79940800D02*
X141255200Y-79940800D01*
X141255200Y-78315200D01*
X142880800Y-78315200D01*
X142880800Y-79940800D01*
X142880800Y-79940800D01*
G37*
G36*
X144845085Y-78346435D02*
X144993004Y-78407705D01*
X145126133Y-78496659D01*
X145239341Y-78609867D01*
X145328295Y-78742996D01*
X145389565Y-78890915D01*
X145420800Y-79047945D01*
X145420800Y-79208055D01*
X145389565Y-79365085D01*
X145328295Y-79513004D01*
X145239341Y-79646133D01*
X145126133Y-79759341D01*
X144993004Y-79848295D01*
X144845085Y-79909565D01*
X144688055Y-79940800D01*
X144527945Y-79940800D01*
X144370915Y-79909565D01*
X144222996Y-79848295D01*
X144089867Y-79759341D01*
X143976659Y-79646133D01*
X143887705Y-79513004D01*
X143826435Y-79365085D01*
X143795200Y-79208055D01*
X143795200Y-79047945D01*
X143826435Y-78890915D01*
X143887705Y-78742996D01*
X143976659Y-78609867D01*
X144089867Y-78496659D01*
X144222996Y-78407705D01*
X144370915Y-78346435D01*
X144527945Y-78315200D01*
X144688055Y-78315200D01*
X144845085Y-78346435D01*
X144845085Y-78346435D01*
G37*
G36*
X147385085Y-78346435D02*
X147533004Y-78407705D01*
X147666133Y-78496659D01*
X147779341Y-78609867D01*
X147868295Y-78742996D01*
X147929565Y-78890915D01*
X147960800Y-79047945D01*
X147960800Y-79208055D01*
X147929565Y-79365085D01*
X147868295Y-79513004D01*
X147779341Y-79646133D01*
X147666133Y-79759341D01*
X147533004Y-79848295D01*
X147385085Y-79909565D01*
X147228055Y-79940800D01*
X147067945Y-79940800D01*
X146910915Y-79909565D01*
X146762996Y-79848295D01*
X146629867Y-79759341D01*
X146516659Y-79646133D01*
X146427705Y-79513004D01*
X146366435Y-79365085D01*
X146335200Y-79208055D01*
X146335200Y-79047945D01*
X146366435Y-78890915D01*
X146427705Y-78742996D01*
X146516659Y-78609867D01*
X146629867Y-78496659D01*
X146762996Y-78407705D01*
X146910915Y-78346435D01*
X147067945Y-78315200D01*
X147228055Y-78315200D01*
X147385085Y-78346435D01*
X147385085Y-78346435D01*
G37*
G36*
X149925085Y-78346435D02*
X150073004Y-78407705D01*
X150206133Y-78496659D01*
X150319341Y-78609867D01*
X150408295Y-78742996D01*
X150469565Y-78890915D01*
X150500800Y-79047945D01*
X150500800Y-79208055D01*
X150469565Y-79365085D01*
X150408295Y-79513004D01*
X150319341Y-79646133D01*
X150206133Y-79759341D01*
X150073004Y-79848295D01*
X149925085Y-79909565D01*
X149768055Y-79940800D01*
X149607945Y-79940800D01*
X149450915Y-79909565D01*
X149302996Y-79848295D01*
X149169867Y-79759341D01*
X149056659Y-79646133D01*
X148967705Y-79513004D01*
X148906435Y-79365085D01*
X148875200Y-79208055D01*
X148875200Y-79047945D01*
X148906435Y-78890915D01*
X148967705Y-78742996D01*
X149056659Y-78609867D01*
X149169867Y-78496659D01*
X149302996Y-78407705D01*
X149450915Y-78346435D01*
X149607945Y-78315200D01*
X149768055Y-78315200D01*
X149925085Y-78346435D01*
X149925085Y-78346435D01*
G37*
G36*
X144845085Y-75806435D02*
X144993004Y-75867705D01*
X145126133Y-75956659D01*
X145239341Y-76069867D01*
X145328295Y-76202996D01*
X145389565Y-76350915D01*
X145420800Y-76507945D01*
X145420800Y-76668055D01*
X145389565Y-76825085D01*
X145328295Y-76973004D01*
X145239341Y-77106133D01*
X145126133Y-77219341D01*
X144993004Y-77308295D01*
X144845085Y-77369565D01*
X144688055Y-77400800D01*
X144527945Y-77400800D01*
X144370915Y-77369565D01*
X144222996Y-77308295D01*
X144089867Y-77219341D01*
X143976659Y-77106133D01*
X143887705Y-76973004D01*
X143826435Y-76825085D01*
X143795200Y-76668055D01*
X143795200Y-76507945D01*
X143826435Y-76350915D01*
X143887705Y-76202996D01*
X143976659Y-76069867D01*
X144089867Y-75956659D01*
X144222996Y-75867705D01*
X144370915Y-75806435D01*
X144527945Y-75775200D01*
X144688055Y-75775200D01*
X144845085Y-75806435D01*
X144845085Y-75806435D01*
G37*
G36*
X149925085Y-75806435D02*
X150073004Y-75867705D01*
X150206133Y-75956659D01*
X150319341Y-76069867D01*
X150408295Y-76202996D01*
X150469565Y-76350915D01*
X150500800Y-76507945D01*
X150500800Y-76668055D01*
X150469565Y-76825085D01*
X150408295Y-76973004D01*
X150319341Y-77106133D01*
X150206133Y-77219341D01*
X150073004Y-77308295D01*
X149925085Y-77369565D01*
X149768055Y-77400800D01*
X149607945Y-77400800D01*
X149450915Y-77369565D01*
X149302996Y-77308295D01*
X149169867Y-77219341D01*
X149056659Y-77106133D01*
X148967705Y-76973004D01*
X148906435Y-76825085D01*
X148875200Y-76668055D01*
X148875200Y-76507945D01*
X148906435Y-76350915D01*
X148967705Y-76202996D01*
X149056659Y-76069867D01*
X149169867Y-75956659D01*
X149302996Y-75867705D01*
X149450915Y-75806435D01*
X149607945Y-75775200D01*
X149768055Y-75775200D01*
X149925085Y-75806435D01*
X149925085Y-75806435D01*
G37*
G36*
X147385085Y-75806435D02*
X147533004Y-75867705D01*
X147666133Y-75956659D01*
X147779341Y-76069867D01*
X147868295Y-76202996D01*
X147929565Y-76350915D01*
X147960800Y-76507945D01*
X147960800Y-76668055D01*
X147929565Y-76825085D01*
X147868295Y-76973004D01*
X147779341Y-77106133D01*
X147666133Y-77219341D01*
X147533004Y-77308295D01*
X147385085Y-77369565D01*
X147228055Y-77400800D01*
X147067945Y-77400800D01*
X146910915Y-77369565D01*
X146762996Y-77308295D01*
X146629867Y-77219341D01*
X146516659Y-77106133D01*
X146427705Y-76973004D01*
X146366435Y-76825085D01*
X146335200Y-76668055D01*
X146335200Y-76507945D01*
X146366435Y-76350915D01*
X146427705Y-76202996D01*
X146516659Y-76069867D01*
X146629867Y-75956659D01*
X146762996Y-75867705D01*
X146910915Y-75806435D01*
X147067945Y-75775200D01*
X147228055Y-75775200D01*
X147385085Y-75806435D01*
X147385085Y-75806435D01*
G37*
G36*
X142305085Y-75806435D02*
X142453004Y-75867705D01*
X142586133Y-75956659D01*
X142699341Y-76069867D01*
X142788295Y-76202996D01*
X142849565Y-76350915D01*
X142880800Y-76507945D01*
X142880800Y-76668055D01*
X142849565Y-76825085D01*
X142788295Y-76973004D01*
X142699341Y-77106133D01*
X142586133Y-77219341D01*
X142453004Y-77308295D01*
X142305085Y-77369565D01*
X142148055Y-77400800D01*
X141987945Y-77400800D01*
X141830915Y-77369565D01*
X141682996Y-77308295D01*
X141549867Y-77219341D01*
X141436659Y-77106133D01*
X141347705Y-76973004D01*
X141286435Y-76825085D01*
X141255200Y-76668055D01*
X141255200Y-76507945D01*
X141286435Y-76350915D01*
X141347705Y-76202996D01*
X141436659Y-76069867D01*
X141549867Y-75956659D01*
X141682996Y-75867705D01*
X141830915Y-75806435D01*
X141987945Y-75775200D01*
X142148055Y-75775200D01*
X142305085Y-75806435D01*
X142305085Y-75806435D01*
G37*
G36*
X111494507Y-71477582D02*
X111685740Y-71556793D01*
X111856687Y-71671016D01*
X111857849Y-71671793D01*
X112004207Y-71818151D01*
X112004209Y-71818154D01*
X112119207Y-71990260D01*
X112198418Y-72181493D01*
X112238800Y-72384505D01*
X112238800Y-72591495D01*
X112198418Y-72794507D01*
X112119207Y-72985740D01*
X112004984Y-73156687D01*
X112004207Y-73157849D01*
X111857849Y-73304207D01*
X111857846Y-73304209D01*
X111685740Y-73419207D01*
X111494507Y-73498418D01*
X111291495Y-73538800D01*
X111084505Y-73538800D01*
X110881493Y-73498418D01*
X110690260Y-73419207D01*
X110518154Y-73304209D01*
X110518151Y-73304207D01*
X110371793Y-73157849D01*
X110371016Y-73156687D01*
X110256793Y-72985740D01*
X110177582Y-72794507D01*
X110137200Y-72591495D01*
X110137200Y-72384505D01*
X110177582Y-72181493D01*
X110256793Y-71990260D01*
X110371791Y-71818154D01*
X110371793Y-71818151D01*
X110518151Y-71671793D01*
X110519313Y-71671016D01*
X110690260Y-71556793D01*
X110881493Y-71477582D01*
X111084505Y-71437200D01*
X111291495Y-71437200D01*
X111494507Y-71477582D01*
X111494507Y-71477582D01*
G37*
G36*
X179196362Y-67191545D02*
X179284588Y-67200234D01*
X179397789Y-67234573D01*
X179454390Y-67251743D01*
X179592980Y-67325822D01*
X179610879Y-67335389D01*
X179646609Y-67364712D01*
X179748044Y-67447956D01*
X179831288Y-67549391D01*
X179860611Y-67585121D01*
X179860612Y-67585123D01*
X179944257Y-67741610D01*
X179951227Y-67764588D01*
X179995766Y-67911412D01*
X180013158Y-68088000D01*
X179995766Y-68264588D01*
X179972704Y-68340611D01*
X179944257Y-68434390D01*
X179915174Y-68488800D01*
X179860611Y-68590879D01*
X179831288Y-68626609D01*
X179748044Y-68728044D01*
X179646609Y-68811288D01*
X179610879Y-68840611D01*
X179610877Y-68840612D01*
X179454390Y-68924257D01*
X179397789Y-68941427D01*
X179284588Y-68975766D01*
X179196362Y-68984455D01*
X179152250Y-68988800D01*
X179063750Y-68988800D01*
X179019638Y-68984455D01*
X178931412Y-68975766D01*
X178818211Y-68941427D01*
X178761610Y-68924257D01*
X178605123Y-68840612D01*
X178605121Y-68840611D01*
X178569391Y-68811288D01*
X178467956Y-68728044D01*
X178384712Y-68626609D01*
X178355389Y-68590879D01*
X178300826Y-68488800D01*
X178271743Y-68434390D01*
X178243296Y-68340611D01*
X178220234Y-68264588D01*
X178202842Y-68088000D01*
X178220234Y-67911412D01*
X178264773Y-67764588D01*
X178271743Y-67741610D01*
X178355388Y-67585123D01*
X178355389Y-67585121D01*
X178384712Y-67549391D01*
X178467956Y-67447956D01*
X178569391Y-67364712D01*
X178605121Y-67335389D01*
X178623020Y-67325822D01*
X178761610Y-67251743D01*
X178818211Y-67234573D01*
X178931412Y-67200234D01*
X179019638Y-67191545D01*
X179063750Y-67187200D01*
X179152250Y-67187200D01*
X179196362Y-67191545D01*
X179196362Y-67191545D01*
G37*
G36*
X181736362Y-67191545D02*
X181824588Y-67200234D01*
X181937789Y-67234573D01*
X181994390Y-67251743D01*
X182132980Y-67325822D01*
X182150879Y-67335389D01*
X182186609Y-67364712D01*
X182288044Y-67447956D01*
X182371288Y-67549391D01*
X182400611Y-67585121D01*
X182400612Y-67585123D01*
X182484257Y-67741610D01*
X182491227Y-67764588D01*
X182535766Y-67911412D01*
X182553158Y-68088000D01*
X182535766Y-68264588D01*
X182512704Y-68340611D01*
X182484257Y-68434390D01*
X182455174Y-68488800D01*
X182400611Y-68590879D01*
X182371288Y-68626609D01*
X182288044Y-68728044D01*
X182186609Y-68811288D01*
X182150879Y-68840611D01*
X182150877Y-68840612D01*
X181994390Y-68924257D01*
X181937789Y-68941427D01*
X181824588Y-68975766D01*
X181736362Y-68984455D01*
X181692250Y-68988800D01*
X181603750Y-68988800D01*
X181559638Y-68984455D01*
X181471412Y-68975766D01*
X181358211Y-68941427D01*
X181301610Y-68924257D01*
X181145123Y-68840612D01*
X181145121Y-68840611D01*
X181109391Y-68811288D01*
X181007956Y-68728044D01*
X180924712Y-68626609D01*
X180895389Y-68590879D01*
X180840826Y-68488800D01*
X180811743Y-68434390D01*
X180783296Y-68340611D01*
X180760234Y-68264588D01*
X180742842Y-68088000D01*
X180760234Y-67911412D01*
X180804773Y-67764588D01*
X180811743Y-67741610D01*
X180895388Y-67585123D01*
X180895389Y-67585121D01*
X180924712Y-67549391D01*
X181007956Y-67447956D01*
X181109391Y-67364712D01*
X181145121Y-67335389D01*
X181163020Y-67325822D01*
X181301610Y-67251743D01*
X181358211Y-67234573D01*
X181471412Y-67200234D01*
X181559638Y-67191545D01*
X181603750Y-67187200D01*
X181692250Y-67187200D01*
X181736362Y-67191545D01*
X181736362Y-67191545D01*
G37*
G36*
X185088800Y-68988800D02*
X183287200Y-68988800D01*
X183287200Y-67187200D01*
X185088800Y-67187200D01*
X185088800Y-68988800D01*
X185088800Y-68988800D01*
G37*
G36*
X176656362Y-67191545D02*
X176744588Y-67200234D01*
X176857789Y-67234573D01*
X176914390Y-67251743D01*
X177052980Y-67325822D01*
X177070879Y-67335389D01*
X177106609Y-67364712D01*
X177208044Y-67447956D01*
X177291288Y-67549391D01*
X177320611Y-67585121D01*
X177320612Y-67585123D01*
X177404257Y-67741610D01*
X177411227Y-67764588D01*
X177455766Y-67911412D01*
X177473158Y-68088000D01*
X177455766Y-68264588D01*
X177432704Y-68340611D01*
X177404257Y-68434390D01*
X177375174Y-68488800D01*
X177320611Y-68590879D01*
X177291288Y-68626609D01*
X177208044Y-68728044D01*
X177106609Y-68811288D01*
X177070879Y-68840611D01*
X177070877Y-68840612D01*
X176914390Y-68924257D01*
X176857789Y-68941427D01*
X176744588Y-68975766D01*
X176656362Y-68984455D01*
X176612250Y-68988800D01*
X176523750Y-68988800D01*
X176479638Y-68984455D01*
X176391412Y-68975766D01*
X176278211Y-68941427D01*
X176221610Y-68924257D01*
X176065123Y-68840612D01*
X176065121Y-68840611D01*
X176029391Y-68811288D01*
X175927956Y-68728044D01*
X175844712Y-68626609D01*
X175815389Y-68590879D01*
X175760826Y-68488800D01*
X175731743Y-68434390D01*
X175703296Y-68340611D01*
X175680234Y-68264588D01*
X175662842Y-68088000D01*
X175680234Y-67911412D01*
X175724773Y-67764588D01*
X175731743Y-67741610D01*
X175815388Y-67585123D01*
X175815389Y-67585121D01*
X175844712Y-67549391D01*
X175927956Y-67447956D01*
X176029391Y-67364712D01*
X176065121Y-67335389D01*
X176083020Y-67325822D01*
X176221610Y-67251743D01*
X176278211Y-67234573D01*
X176391412Y-67200234D01*
X176479638Y-67191545D01*
X176523750Y-67187200D01*
X176612250Y-67187200D01*
X176656362Y-67191545D01*
X176656362Y-67191545D01*
G37*
G36*
X153776362Y-66691545D02*
X153864588Y-66700234D01*
X153977789Y-66734573D01*
X154034390Y-66751743D01*
X154172980Y-66825822D01*
X154190879Y-66835389D01*
X154197243Y-66840612D01*
X154328044Y-66947956D01*
X154411288Y-67049391D01*
X154440611Y-67085121D01*
X154440612Y-67085123D01*
X154524257Y-67241610D01*
X154524257Y-67241611D01*
X154575766Y-67411412D01*
X154593158Y-67588000D01*
X154575766Y-67764588D01*
X154541427Y-67877789D01*
X154524257Y-67934390D01*
X154450178Y-68072980D01*
X154440611Y-68090879D01*
X154411288Y-68126609D01*
X154328044Y-68228044D01*
X154226609Y-68311288D01*
X154190879Y-68340611D01*
X154190877Y-68340612D01*
X154034390Y-68424257D01*
X153977789Y-68441427D01*
X153864588Y-68475766D01*
X153776362Y-68484455D01*
X153732250Y-68488800D01*
X153643750Y-68488800D01*
X153599638Y-68484455D01*
X153511412Y-68475766D01*
X153398211Y-68441427D01*
X153341610Y-68424257D01*
X153185123Y-68340612D01*
X153185121Y-68340611D01*
X153149391Y-68311288D01*
X153047956Y-68228044D01*
X152964712Y-68126609D01*
X152935389Y-68090879D01*
X152925822Y-68072980D01*
X152851743Y-67934390D01*
X152834573Y-67877789D01*
X152800234Y-67764588D01*
X152782842Y-67588000D01*
X152800234Y-67411412D01*
X152851743Y-67241611D01*
X152851743Y-67241610D01*
X152935388Y-67085123D01*
X152935389Y-67085121D01*
X152964712Y-67049391D01*
X153047956Y-66947956D01*
X153178757Y-66840612D01*
X153185121Y-66835389D01*
X153203020Y-66825822D01*
X153341610Y-66751743D01*
X153398211Y-66734573D01*
X153511412Y-66700234D01*
X153599638Y-66691545D01*
X153643750Y-66687200D01*
X153732250Y-66687200D01*
X153776362Y-66691545D01*
X153776362Y-66691545D01*
G37*
G36*
X151236362Y-66691545D02*
X151324588Y-66700234D01*
X151437789Y-66734573D01*
X151494390Y-66751743D01*
X151632980Y-66825822D01*
X151650879Y-66835389D01*
X151657243Y-66840612D01*
X151788044Y-66947956D01*
X151871288Y-67049391D01*
X151900611Y-67085121D01*
X151900612Y-67085123D01*
X151984257Y-67241610D01*
X151984257Y-67241611D01*
X152035766Y-67411412D01*
X152053158Y-67588000D01*
X152035766Y-67764588D01*
X152001427Y-67877789D01*
X151984257Y-67934390D01*
X151910178Y-68072980D01*
X151900611Y-68090879D01*
X151871288Y-68126609D01*
X151788044Y-68228044D01*
X151686609Y-68311288D01*
X151650879Y-68340611D01*
X151650877Y-68340612D01*
X151494390Y-68424257D01*
X151437789Y-68441427D01*
X151324588Y-68475766D01*
X151236362Y-68484455D01*
X151192250Y-68488800D01*
X151103750Y-68488800D01*
X151059638Y-68484455D01*
X150971412Y-68475766D01*
X150858211Y-68441427D01*
X150801610Y-68424257D01*
X150645123Y-68340612D01*
X150645121Y-68340611D01*
X150609391Y-68311288D01*
X150507956Y-68228044D01*
X150424712Y-68126609D01*
X150395389Y-68090879D01*
X150385822Y-68072980D01*
X150311743Y-67934390D01*
X150294573Y-67877789D01*
X150260234Y-67764588D01*
X150242842Y-67588000D01*
X150260234Y-67411412D01*
X150311743Y-67241611D01*
X150311743Y-67241610D01*
X150395388Y-67085123D01*
X150395389Y-67085121D01*
X150424712Y-67049391D01*
X150507956Y-66947956D01*
X150638757Y-66840612D01*
X150645121Y-66835389D01*
X150663020Y-66825822D01*
X150801610Y-66751743D01*
X150858211Y-66734573D01*
X150971412Y-66700234D01*
X151059638Y-66691545D01*
X151103750Y-66687200D01*
X151192250Y-66687200D01*
X151236362Y-66691545D01*
X151236362Y-66691545D01*
G37*
G36*
X146156362Y-66691545D02*
X146244588Y-66700234D01*
X146357789Y-66734573D01*
X146414390Y-66751743D01*
X146552980Y-66825822D01*
X146570879Y-66835389D01*
X146577243Y-66840612D01*
X146708044Y-66947956D01*
X146791288Y-67049391D01*
X146820611Y-67085121D01*
X146820612Y-67085123D01*
X146904257Y-67241610D01*
X146904257Y-67241611D01*
X146955766Y-67411412D01*
X146973158Y-67588000D01*
X146955766Y-67764588D01*
X146921427Y-67877789D01*
X146904257Y-67934390D01*
X146830178Y-68072980D01*
X146820611Y-68090879D01*
X146791288Y-68126609D01*
X146708044Y-68228044D01*
X146606609Y-68311288D01*
X146570879Y-68340611D01*
X146570877Y-68340612D01*
X146414390Y-68424257D01*
X146357789Y-68441427D01*
X146244588Y-68475766D01*
X146156362Y-68484455D01*
X146112250Y-68488800D01*
X146023750Y-68488800D01*
X145979638Y-68484455D01*
X145891412Y-68475766D01*
X145778211Y-68441427D01*
X145721610Y-68424257D01*
X145565123Y-68340612D01*
X145565121Y-68340611D01*
X145529391Y-68311288D01*
X145427956Y-68228044D01*
X145344712Y-68126609D01*
X145315389Y-68090879D01*
X145305822Y-68072980D01*
X145231743Y-67934390D01*
X145214573Y-67877789D01*
X145180234Y-67764588D01*
X145162842Y-67588000D01*
X145180234Y-67411412D01*
X145231743Y-67241611D01*
X145231743Y-67241610D01*
X145315388Y-67085123D01*
X145315389Y-67085121D01*
X145344712Y-67049391D01*
X145427956Y-66947956D01*
X145558757Y-66840612D01*
X145565121Y-66835389D01*
X145583020Y-66825822D01*
X145721610Y-66751743D01*
X145778211Y-66734573D01*
X145891412Y-66700234D01*
X145979638Y-66691545D01*
X146023750Y-66687200D01*
X146112250Y-66687200D01*
X146156362Y-66691545D01*
X146156362Y-66691545D01*
G37*
G36*
X143616362Y-66691545D02*
X143704588Y-66700234D01*
X143817789Y-66734573D01*
X143874390Y-66751743D01*
X144012980Y-66825822D01*
X144030879Y-66835389D01*
X144037243Y-66840612D01*
X144168044Y-66947956D01*
X144251288Y-67049391D01*
X144280611Y-67085121D01*
X144280612Y-67085123D01*
X144364257Y-67241610D01*
X144364257Y-67241611D01*
X144415766Y-67411412D01*
X144433158Y-67588000D01*
X144415766Y-67764588D01*
X144381427Y-67877789D01*
X144364257Y-67934390D01*
X144290178Y-68072980D01*
X144280611Y-68090879D01*
X144251288Y-68126609D01*
X144168044Y-68228044D01*
X144066609Y-68311288D01*
X144030879Y-68340611D01*
X144030877Y-68340612D01*
X143874390Y-68424257D01*
X143817789Y-68441427D01*
X143704588Y-68475766D01*
X143616362Y-68484455D01*
X143572250Y-68488800D01*
X143483750Y-68488800D01*
X143439638Y-68484455D01*
X143351412Y-68475766D01*
X143238211Y-68441427D01*
X143181610Y-68424257D01*
X143025123Y-68340612D01*
X143025121Y-68340611D01*
X142989391Y-68311288D01*
X142887956Y-68228044D01*
X142804712Y-68126609D01*
X142775389Y-68090879D01*
X142765822Y-68072980D01*
X142691743Y-67934390D01*
X142674573Y-67877789D01*
X142640234Y-67764588D01*
X142622842Y-67588000D01*
X142640234Y-67411412D01*
X142691743Y-67241611D01*
X142691743Y-67241610D01*
X142775388Y-67085123D01*
X142775389Y-67085121D01*
X142804712Y-67049391D01*
X142887956Y-66947956D01*
X143018757Y-66840612D01*
X143025121Y-66835389D01*
X143043020Y-66825822D01*
X143181610Y-66751743D01*
X143238211Y-66734573D01*
X143351412Y-66700234D01*
X143439638Y-66691545D01*
X143483750Y-66687200D01*
X143572250Y-66687200D01*
X143616362Y-66691545D01*
X143616362Y-66691545D01*
G37*
G36*
X148696362Y-66691545D02*
X148784588Y-66700234D01*
X148897789Y-66734573D01*
X148954390Y-66751743D01*
X149092980Y-66825822D01*
X149110879Y-66835389D01*
X149117243Y-66840612D01*
X149248044Y-66947956D01*
X149331288Y-67049391D01*
X149360611Y-67085121D01*
X149360612Y-67085123D01*
X149444257Y-67241610D01*
X149444257Y-67241611D01*
X149495766Y-67411412D01*
X149513158Y-67588000D01*
X149495766Y-67764588D01*
X149461427Y-67877789D01*
X149444257Y-67934390D01*
X149370178Y-68072980D01*
X149360611Y-68090879D01*
X149331288Y-68126609D01*
X149248044Y-68228044D01*
X149146609Y-68311288D01*
X149110879Y-68340611D01*
X149110877Y-68340612D01*
X148954390Y-68424257D01*
X148897789Y-68441427D01*
X148784588Y-68475766D01*
X148696362Y-68484455D01*
X148652250Y-68488800D01*
X148563750Y-68488800D01*
X148519638Y-68484455D01*
X148431412Y-68475766D01*
X148318211Y-68441427D01*
X148261610Y-68424257D01*
X148105123Y-68340612D01*
X148105121Y-68340611D01*
X148069391Y-68311288D01*
X147967956Y-68228044D01*
X147884712Y-68126609D01*
X147855389Y-68090879D01*
X147845822Y-68072980D01*
X147771743Y-67934390D01*
X147754573Y-67877789D01*
X147720234Y-67764588D01*
X147702842Y-67588000D01*
X147720234Y-67411412D01*
X147771743Y-67241611D01*
X147771743Y-67241610D01*
X147855388Y-67085123D01*
X147855389Y-67085121D01*
X147884712Y-67049391D01*
X147967956Y-66947956D01*
X148098757Y-66840612D01*
X148105121Y-66835389D01*
X148123020Y-66825822D01*
X148261610Y-66751743D01*
X148318211Y-66734573D01*
X148431412Y-66700234D01*
X148519638Y-66691545D01*
X148563750Y-66687200D01*
X148652250Y-66687200D01*
X148696362Y-66691545D01*
X148696362Y-66691545D01*
G37*
G36*
X141888800Y-68488800D02*
X140087200Y-68488800D01*
X140087200Y-66687200D01*
X141888800Y-66687200D01*
X141888800Y-68488800D01*
X141888800Y-68488800D01*
G37*
G36*
X126316362Y-65191545D02*
X126404588Y-65200234D01*
X126517789Y-65234573D01*
X126574390Y-65251743D01*
X126712980Y-65325822D01*
X126730879Y-65335389D01*
X126766609Y-65364712D01*
X126868044Y-65447956D01*
X126950146Y-65548000D01*
X126980611Y-65585121D01*
X126980612Y-65585123D01*
X127064257Y-65741610D01*
X127064257Y-65741611D01*
X127115766Y-65911412D01*
X127133158Y-66088000D01*
X127115766Y-66264588D01*
X127104838Y-66300611D01*
X127064257Y-66434390D01*
X126990178Y-66572980D01*
X126980611Y-66590879D01*
X126951288Y-66626609D01*
X126868044Y-66728044D01*
X126766609Y-66811288D01*
X126730879Y-66840611D01*
X126730877Y-66840612D01*
X126574390Y-66924257D01*
X126517789Y-66941427D01*
X126404588Y-66975766D01*
X126316362Y-66984455D01*
X126272250Y-66988800D01*
X126183750Y-66988800D01*
X126139638Y-66984455D01*
X126051412Y-66975766D01*
X125938211Y-66941427D01*
X125881610Y-66924257D01*
X125725123Y-66840612D01*
X125725121Y-66840611D01*
X125689391Y-66811288D01*
X125587956Y-66728044D01*
X125504712Y-66626609D01*
X125475389Y-66590879D01*
X125465822Y-66572980D01*
X125391743Y-66434390D01*
X125351162Y-66300611D01*
X125340234Y-66264588D01*
X125322842Y-66088000D01*
X125340234Y-65911412D01*
X125391743Y-65741611D01*
X125391743Y-65741610D01*
X125475388Y-65585123D01*
X125475389Y-65585121D01*
X125505854Y-65548000D01*
X125587956Y-65447956D01*
X125689391Y-65364712D01*
X125725121Y-65335389D01*
X125743020Y-65325822D01*
X125881610Y-65251743D01*
X125938211Y-65234573D01*
X126051412Y-65200234D01*
X126139638Y-65191545D01*
X126183750Y-65187200D01*
X126272250Y-65187200D01*
X126316362Y-65191545D01*
X126316362Y-65191545D01*
G37*
G36*
X124588800Y-66988800D02*
X122787200Y-66988800D01*
X122787200Y-65187200D01*
X124588800Y-65187200D01*
X124588800Y-66988800D01*
X124588800Y-66988800D01*
G37*
G36*
X181736362Y-64651545D02*
X181824588Y-64660234D01*
X181937789Y-64694573D01*
X181994390Y-64711743D01*
X182132980Y-64785822D01*
X182150879Y-64795389D01*
X182186609Y-64824712D01*
X182288044Y-64907956D01*
X182371288Y-65009391D01*
X182400611Y-65045121D01*
X182400612Y-65045123D01*
X182484257Y-65201610D01*
X182491227Y-65224588D01*
X182535766Y-65371412D01*
X182553158Y-65548000D01*
X182535766Y-65724588D01*
X182530602Y-65741610D01*
X182484257Y-65894390D01*
X182455174Y-65948800D01*
X182400611Y-66050879D01*
X182371288Y-66086609D01*
X182288044Y-66188044D01*
X182194773Y-66264588D01*
X182150879Y-66300611D01*
X182150877Y-66300612D01*
X181994390Y-66384257D01*
X181937789Y-66401427D01*
X181824588Y-66435766D01*
X181736362Y-66444455D01*
X181692250Y-66448800D01*
X181603750Y-66448800D01*
X181559638Y-66444455D01*
X181471412Y-66435766D01*
X181358211Y-66401427D01*
X181301610Y-66384257D01*
X181145123Y-66300612D01*
X181145121Y-66300611D01*
X181101227Y-66264588D01*
X181007956Y-66188044D01*
X180924712Y-66086609D01*
X180895389Y-66050879D01*
X180840826Y-65948800D01*
X180811743Y-65894390D01*
X180765398Y-65741610D01*
X180760234Y-65724588D01*
X180742842Y-65548000D01*
X180760234Y-65371412D01*
X180804773Y-65224588D01*
X180811743Y-65201610D01*
X180895388Y-65045123D01*
X180895389Y-65045121D01*
X180924712Y-65009391D01*
X181007956Y-64907956D01*
X181109391Y-64824712D01*
X181145121Y-64795389D01*
X181163020Y-64785822D01*
X181301610Y-64711743D01*
X181358211Y-64694573D01*
X181471412Y-64660234D01*
X181559638Y-64651545D01*
X181603750Y-64647200D01*
X181692250Y-64647200D01*
X181736362Y-64651545D01*
X181736362Y-64651545D01*
G37*
G36*
X179196362Y-64651545D02*
X179284588Y-64660234D01*
X179397789Y-64694573D01*
X179454390Y-64711743D01*
X179592980Y-64785822D01*
X179610879Y-64795389D01*
X179646609Y-64824712D01*
X179748044Y-64907956D01*
X179831288Y-65009391D01*
X179860611Y-65045121D01*
X179860612Y-65045123D01*
X179944257Y-65201610D01*
X179951227Y-65224588D01*
X179995766Y-65371412D01*
X180013158Y-65548000D01*
X179995766Y-65724588D01*
X179990602Y-65741610D01*
X179944257Y-65894390D01*
X179915174Y-65948800D01*
X179860611Y-66050879D01*
X179831288Y-66086609D01*
X179748044Y-66188044D01*
X179654773Y-66264588D01*
X179610879Y-66300611D01*
X179610877Y-66300612D01*
X179454390Y-66384257D01*
X179397789Y-66401427D01*
X179284588Y-66435766D01*
X179196362Y-66444455D01*
X179152250Y-66448800D01*
X179063750Y-66448800D01*
X179019638Y-66444455D01*
X178931412Y-66435766D01*
X178818211Y-66401427D01*
X178761610Y-66384257D01*
X178605123Y-66300612D01*
X178605121Y-66300611D01*
X178561227Y-66264588D01*
X178467956Y-66188044D01*
X178384712Y-66086609D01*
X178355389Y-66050879D01*
X178300826Y-65948800D01*
X178271743Y-65894390D01*
X178225398Y-65741610D01*
X178220234Y-65724588D01*
X178202842Y-65548000D01*
X178220234Y-65371412D01*
X178264773Y-65224588D01*
X178271743Y-65201610D01*
X178355388Y-65045123D01*
X178355389Y-65045121D01*
X178384712Y-65009391D01*
X178467956Y-64907956D01*
X178569391Y-64824712D01*
X178605121Y-64795389D01*
X178623020Y-64785822D01*
X178761610Y-64711743D01*
X178818211Y-64694573D01*
X178931412Y-64660234D01*
X179019638Y-64651545D01*
X179063750Y-64647200D01*
X179152250Y-64647200D01*
X179196362Y-64651545D01*
X179196362Y-64651545D01*
G37*
G36*
X184276362Y-64651545D02*
X184364588Y-64660234D01*
X184477789Y-64694573D01*
X184534390Y-64711743D01*
X184672980Y-64785822D01*
X184690879Y-64795389D01*
X184726609Y-64824712D01*
X184828044Y-64907956D01*
X184911288Y-65009391D01*
X184940611Y-65045121D01*
X184940612Y-65045123D01*
X185024257Y-65201610D01*
X185031227Y-65224588D01*
X185075766Y-65371412D01*
X185093158Y-65548000D01*
X185075766Y-65724588D01*
X185070602Y-65741610D01*
X185024257Y-65894390D01*
X184995174Y-65948800D01*
X184940611Y-66050879D01*
X184911288Y-66086609D01*
X184828044Y-66188044D01*
X184734773Y-66264588D01*
X184690879Y-66300611D01*
X184690877Y-66300612D01*
X184534390Y-66384257D01*
X184477789Y-66401427D01*
X184364588Y-66435766D01*
X184276362Y-66444455D01*
X184232250Y-66448800D01*
X184143750Y-66448800D01*
X184099638Y-66444455D01*
X184011412Y-66435766D01*
X183898211Y-66401427D01*
X183841610Y-66384257D01*
X183685123Y-66300612D01*
X183685121Y-66300611D01*
X183641227Y-66264588D01*
X183547956Y-66188044D01*
X183464712Y-66086609D01*
X183435389Y-66050879D01*
X183380826Y-65948800D01*
X183351743Y-65894390D01*
X183305398Y-65741610D01*
X183300234Y-65724588D01*
X183282842Y-65548000D01*
X183300234Y-65371412D01*
X183344773Y-65224588D01*
X183351743Y-65201610D01*
X183435388Y-65045123D01*
X183435389Y-65045121D01*
X183464712Y-65009391D01*
X183547956Y-64907956D01*
X183649391Y-64824712D01*
X183685121Y-64795389D01*
X183703020Y-64785822D01*
X183841610Y-64711743D01*
X183898211Y-64694573D01*
X184011412Y-64660234D01*
X184099638Y-64651545D01*
X184143750Y-64647200D01*
X184232250Y-64647200D01*
X184276362Y-64651545D01*
X184276362Y-64651545D01*
G37*
G36*
X176656362Y-64651545D02*
X176744588Y-64660234D01*
X176857789Y-64694573D01*
X176914390Y-64711743D01*
X177052980Y-64785822D01*
X177070879Y-64795389D01*
X177106609Y-64824712D01*
X177208044Y-64907956D01*
X177291288Y-65009391D01*
X177320611Y-65045121D01*
X177320612Y-65045123D01*
X177404257Y-65201610D01*
X177411227Y-65224588D01*
X177455766Y-65371412D01*
X177473158Y-65548000D01*
X177455766Y-65724588D01*
X177450602Y-65741610D01*
X177404257Y-65894390D01*
X177375174Y-65948800D01*
X177320611Y-66050879D01*
X177291288Y-66086609D01*
X177208044Y-66188044D01*
X177114773Y-66264588D01*
X177070879Y-66300611D01*
X177070877Y-66300612D01*
X176914390Y-66384257D01*
X176857789Y-66401427D01*
X176744588Y-66435766D01*
X176656362Y-66444455D01*
X176612250Y-66448800D01*
X176523750Y-66448800D01*
X176479638Y-66444455D01*
X176391412Y-66435766D01*
X176278211Y-66401427D01*
X176221610Y-66384257D01*
X176065123Y-66300612D01*
X176065121Y-66300611D01*
X176021227Y-66264588D01*
X175927956Y-66188044D01*
X175844712Y-66086609D01*
X175815389Y-66050879D01*
X175760826Y-65948800D01*
X175731743Y-65894390D01*
X175685398Y-65741610D01*
X175680234Y-65724588D01*
X175662842Y-65548000D01*
X175680234Y-65371412D01*
X175724773Y-65224588D01*
X175731743Y-65201610D01*
X175815388Y-65045123D01*
X175815389Y-65045121D01*
X175844712Y-65009391D01*
X175927956Y-64907956D01*
X176029391Y-64824712D01*
X176065121Y-64795389D01*
X176083020Y-64785822D01*
X176221610Y-64711743D01*
X176278211Y-64694573D01*
X176391412Y-64660234D01*
X176479638Y-64651545D01*
X176523750Y-64647200D01*
X176612250Y-64647200D01*
X176656362Y-64651545D01*
X176656362Y-64651545D01*
G37*
G36*
X141076362Y-64151545D02*
X141164588Y-64160234D01*
X141277789Y-64194573D01*
X141334390Y-64211743D01*
X141472980Y-64285822D01*
X141490879Y-64295389D01*
X141526609Y-64324712D01*
X141628044Y-64407956D01*
X141711288Y-64509391D01*
X141740611Y-64545121D01*
X141740612Y-64545123D01*
X141824257Y-64701610D01*
X141824257Y-64701611D01*
X141875766Y-64871412D01*
X141893158Y-65048000D01*
X141875766Y-65224588D01*
X141842155Y-65335388D01*
X141824257Y-65394390D01*
X141750178Y-65532980D01*
X141740611Y-65550879D01*
X141712509Y-65585121D01*
X141628044Y-65688044D01*
X141526609Y-65771288D01*
X141490879Y-65800611D01*
X141490877Y-65800612D01*
X141334390Y-65884257D01*
X141277789Y-65901427D01*
X141164588Y-65935766D01*
X141076362Y-65944455D01*
X141032250Y-65948800D01*
X140943750Y-65948800D01*
X140899638Y-65944455D01*
X140811412Y-65935766D01*
X140698211Y-65901427D01*
X140641610Y-65884257D01*
X140485123Y-65800612D01*
X140485121Y-65800611D01*
X140449391Y-65771288D01*
X140347956Y-65688044D01*
X140263491Y-65585121D01*
X140235389Y-65550879D01*
X140225822Y-65532980D01*
X140151743Y-65394390D01*
X140133845Y-65335388D01*
X140100234Y-65224588D01*
X140082842Y-65048000D01*
X140100234Y-64871412D01*
X140151743Y-64701611D01*
X140151743Y-64701610D01*
X140235388Y-64545123D01*
X140235389Y-64545121D01*
X140264712Y-64509391D01*
X140347956Y-64407956D01*
X140449391Y-64324712D01*
X140485121Y-64295389D01*
X140503020Y-64285822D01*
X140641610Y-64211743D01*
X140698211Y-64194573D01*
X140811412Y-64160234D01*
X140899638Y-64151545D01*
X140943750Y-64147200D01*
X141032250Y-64147200D01*
X141076362Y-64151545D01*
X141076362Y-64151545D01*
G37*
G36*
X153776362Y-64151545D02*
X153864588Y-64160234D01*
X153977789Y-64194573D01*
X154034390Y-64211743D01*
X154172980Y-64285822D01*
X154190879Y-64295389D01*
X154226609Y-64324712D01*
X154328044Y-64407956D01*
X154411288Y-64509391D01*
X154440611Y-64545121D01*
X154440612Y-64545123D01*
X154524257Y-64701610D01*
X154524257Y-64701611D01*
X154575766Y-64871412D01*
X154593158Y-65048000D01*
X154575766Y-65224588D01*
X154542155Y-65335388D01*
X154524257Y-65394390D01*
X154450178Y-65532980D01*
X154440611Y-65550879D01*
X154412509Y-65585121D01*
X154328044Y-65688044D01*
X154226609Y-65771288D01*
X154190879Y-65800611D01*
X154190877Y-65800612D01*
X154034390Y-65884257D01*
X153977789Y-65901427D01*
X153864588Y-65935766D01*
X153776362Y-65944455D01*
X153732250Y-65948800D01*
X153643750Y-65948800D01*
X153599638Y-65944455D01*
X153511412Y-65935766D01*
X153398211Y-65901427D01*
X153341610Y-65884257D01*
X153185123Y-65800612D01*
X153185121Y-65800611D01*
X153149391Y-65771288D01*
X153047956Y-65688044D01*
X152963491Y-65585121D01*
X152935389Y-65550879D01*
X152925822Y-65532980D01*
X152851743Y-65394390D01*
X152833845Y-65335388D01*
X152800234Y-65224588D01*
X152782842Y-65048000D01*
X152800234Y-64871412D01*
X152851743Y-64701611D01*
X152851743Y-64701610D01*
X152935388Y-64545123D01*
X152935389Y-64545121D01*
X152964712Y-64509391D01*
X153047956Y-64407956D01*
X153149391Y-64324712D01*
X153185121Y-64295389D01*
X153203020Y-64285822D01*
X153341610Y-64211743D01*
X153398211Y-64194573D01*
X153511412Y-64160234D01*
X153599638Y-64151545D01*
X153643750Y-64147200D01*
X153732250Y-64147200D01*
X153776362Y-64151545D01*
X153776362Y-64151545D01*
G37*
G36*
X151236362Y-64151545D02*
X151324588Y-64160234D01*
X151437789Y-64194573D01*
X151494390Y-64211743D01*
X151632980Y-64285822D01*
X151650879Y-64295389D01*
X151686609Y-64324712D01*
X151788044Y-64407956D01*
X151871288Y-64509391D01*
X151900611Y-64545121D01*
X151900612Y-64545123D01*
X151984257Y-64701610D01*
X151984257Y-64701611D01*
X152035766Y-64871412D01*
X152053158Y-65048000D01*
X152035766Y-65224588D01*
X152002155Y-65335388D01*
X151984257Y-65394390D01*
X151910178Y-65532980D01*
X151900611Y-65550879D01*
X151872509Y-65585121D01*
X151788044Y-65688044D01*
X151686609Y-65771288D01*
X151650879Y-65800611D01*
X151650877Y-65800612D01*
X151494390Y-65884257D01*
X151437789Y-65901427D01*
X151324588Y-65935766D01*
X151236362Y-65944455D01*
X151192250Y-65948800D01*
X151103750Y-65948800D01*
X151059638Y-65944455D01*
X150971412Y-65935766D01*
X150858211Y-65901427D01*
X150801610Y-65884257D01*
X150645123Y-65800612D01*
X150645121Y-65800611D01*
X150609391Y-65771288D01*
X150507956Y-65688044D01*
X150423491Y-65585121D01*
X150395389Y-65550879D01*
X150385822Y-65532980D01*
X150311743Y-65394390D01*
X150293845Y-65335388D01*
X150260234Y-65224588D01*
X150242842Y-65048000D01*
X150260234Y-64871412D01*
X150311743Y-64701611D01*
X150311743Y-64701610D01*
X150395388Y-64545123D01*
X150395389Y-64545121D01*
X150424712Y-64509391D01*
X150507956Y-64407956D01*
X150609391Y-64324712D01*
X150645121Y-64295389D01*
X150663020Y-64285822D01*
X150801610Y-64211743D01*
X150858211Y-64194573D01*
X150971412Y-64160234D01*
X151059638Y-64151545D01*
X151103750Y-64147200D01*
X151192250Y-64147200D01*
X151236362Y-64151545D01*
X151236362Y-64151545D01*
G37*
G36*
X143616362Y-64151545D02*
X143704588Y-64160234D01*
X143817789Y-64194573D01*
X143874390Y-64211743D01*
X144012980Y-64285822D01*
X144030879Y-64295389D01*
X144066609Y-64324712D01*
X144168044Y-64407956D01*
X144251288Y-64509391D01*
X144280611Y-64545121D01*
X144280612Y-64545123D01*
X144364257Y-64701610D01*
X144364257Y-64701611D01*
X144415766Y-64871412D01*
X144433158Y-65048000D01*
X144415766Y-65224588D01*
X144382155Y-65335388D01*
X144364257Y-65394390D01*
X144290178Y-65532980D01*
X144280611Y-65550879D01*
X144252509Y-65585121D01*
X144168044Y-65688044D01*
X144066609Y-65771288D01*
X144030879Y-65800611D01*
X144030877Y-65800612D01*
X143874390Y-65884257D01*
X143817789Y-65901427D01*
X143704588Y-65935766D01*
X143616362Y-65944455D01*
X143572250Y-65948800D01*
X143483750Y-65948800D01*
X143439638Y-65944455D01*
X143351412Y-65935766D01*
X143238211Y-65901427D01*
X143181610Y-65884257D01*
X143025123Y-65800612D01*
X143025121Y-65800611D01*
X142989391Y-65771288D01*
X142887956Y-65688044D01*
X142803491Y-65585121D01*
X142775389Y-65550879D01*
X142765822Y-65532980D01*
X142691743Y-65394390D01*
X142673845Y-65335388D01*
X142640234Y-65224588D01*
X142622842Y-65048000D01*
X142640234Y-64871412D01*
X142691743Y-64701611D01*
X142691743Y-64701610D01*
X142775388Y-64545123D01*
X142775389Y-64545121D01*
X142804712Y-64509391D01*
X142887956Y-64407956D01*
X142989391Y-64324712D01*
X143025121Y-64295389D01*
X143043020Y-64285822D01*
X143181610Y-64211743D01*
X143238211Y-64194573D01*
X143351412Y-64160234D01*
X143439638Y-64151545D01*
X143483750Y-64147200D01*
X143572250Y-64147200D01*
X143616362Y-64151545D01*
X143616362Y-64151545D01*
G37*
G36*
X146156362Y-64151545D02*
X146244588Y-64160234D01*
X146357789Y-64194573D01*
X146414390Y-64211743D01*
X146552980Y-64285822D01*
X146570879Y-64295389D01*
X146606609Y-64324712D01*
X146708044Y-64407956D01*
X146791288Y-64509391D01*
X146820611Y-64545121D01*
X146820612Y-64545123D01*
X146904257Y-64701610D01*
X146904257Y-64701611D01*
X146955766Y-64871412D01*
X146973158Y-65048000D01*
X146955766Y-65224588D01*
X146922155Y-65335388D01*
X146904257Y-65394390D01*
X146830178Y-65532980D01*
X146820611Y-65550879D01*
X146792509Y-65585121D01*
X146708044Y-65688044D01*
X146606609Y-65771288D01*
X146570879Y-65800611D01*
X146570877Y-65800612D01*
X146414390Y-65884257D01*
X146357789Y-65901427D01*
X146244588Y-65935766D01*
X146156362Y-65944455D01*
X146112250Y-65948800D01*
X146023750Y-65948800D01*
X145979638Y-65944455D01*
X145891412Y-65935766D01*
X145778211Y-65901427D01*
X145721610Y-65884257D01*
X145565123Y-65800612D01*
X145565121Y-65800611D01*
X145529391Y-65771288D01*
X145427956Y-65688044D01*
X145343491Y-65585121D01*
X145315389Y-65550879D01*
X145305822Y-65532980D01*
X145231743Y-65394390D01*
X145213845Y-65335388D01*
X145180234Y-65224588D01*
X145162842Y-65048000D01*
X145180234Y-64871412D01*
X145231743Y-64701611D01*
X145231743Y-64701610D01*
X145315388Y-64545123D01*
X145315389Y-64545121D01*
X145344712Y-64509391D01*
X145427956Y-64407956D01*
X145529391Y-64324712D01*
X145565121Y-64295389D01*
X145583020Y-64285822D01*
X145721610Y-64211743D01*
X145778211Y-64194573D01*
X145891412Y-64160234D01*
X145979638Y-64151545D01*
X146023750Y-64147200D01*
X146112250Y-64147200D01*
X146156362Y-64151545D01*
X146156362Y-64151545D01*
G37*
G36*
X148696362Y-64151545D02*
X148784588Y-64160234D01*
X148897789Y-64194573D01*
X148954390Y-64211743D01*
X149092980Y-64285822D01*
X149110879Y-64295389D01*
X149146609Y-64324712D01*
X149248044Y-64407956D01*
X149331288Y-64509391D01*
X149360611Y-64545121D01*
X149360612Y-64545123D01*
X149444257Y-64701610D01*
X149444257Y-64701611D01*
X149495766Y-64871412D01*
X149513158Y-65048000D01*
X149495766Y-65224588D01*
X149462155Y-65335388D01*
X149444257Y-65394390D01*
X149370178Y-65532980D01*
X149360611Y-65550879D01*
X149332509Y-65585121D01*
X149248044Y-65688044D01*
X149146609Y-65771288D01*
X149110879Y-65800611D01*
X149110877Y-65800612D01*
X148954390Y-65884257D01*
X148897789Y-65901427D01*
X148784588Y-65935766D01*
X148696362Y-65944455D01*
X148652250Y-65948800D01*
X148563750Y-65948800D01*
X148519638Y-65944455D01*
X148431412Y-65935766D01*
X148318211Y-65901427D01*
X148261610Y-65884257D01*
X148105123Y-65800612D01*
X148105121Y-65800611D01*
X148069391Y-65771288D01*
X147967956Y-65688044D01*
X147883491Y-65585121D01*
X147855389Y-65550879D01*
X147845822Y-65532980D01*
X147771743Y-65394390D01*
X147753845Y-65335388D01*
X147720234Y-65224588D01*
X147702842Y-65048000D01*
X147720234Y-64871412D01*
X147771743Y-64701611D01*
X147771743Y-64701610D01*
X147855388Y-64545123D01*
X147855389Y-64545121D01*
X147884712Y-64509391D01*
X147967956Y-64407956D01*
X148069391Y-64324712D01*
X148105121Y-64295389D01*
X148123020Y-64285822D01*
X148261610Y-64211743D01*
X148318211Y-64194573D01*
X148431412Y-64160234D01*
X148519638Y-64151545D01*
X148563750Y-64147200D01*
X148652250Y-64147200D01*
X148696362Y-64151545D01*
X148696362Y-64151545D01*
G37*
G36*
X177371345Y-60416258D02*
X177462129Y-60434316D01*
X177633162Y-60505160D01*
X177638129Y-60508479D01*
X177787090Y-60608012D01*
X177917988Y-60738910D01*
X177917990Y-60738913D01*
X178020840Y-60892838D01*
X178091684Y-61063871D01*
X178127800Y-61245438D01*
X178127800Y-61430562D01*
X178091684Y-61612129D01*
X178020840Y-61783162D01*
X178020839Y-61783163D01*
X177917988Y-61937090D01*
X177787090Y-62067988D01*
X177787087Y-62067990D01*
X177633162Y-62170840D01*
X177462129Y-62241684D01*
X177371345Y-62259742D01*
X177280564Y-62277800D01*
X177095436Y-62277800D01*
X177004655Y-62259742D01*
X176913871Y-62241684D01*
X176742838Y-62170840D01*
X176588913Y-62067990D01*
X176588910Y-62067988D01*
X176458012Y-61937090D01*
X176355161Y-61783163D01*
X176355160Y-61783162D01*
X176284316Y-61612129D01*
X176248200Y-61430562D01*
X176248200Y-61245438D01*
X176284316Y-61063871D01*
X176355160Y-60892838D01*
X176458010Y-60738913D01*
X176458012Y-60738910D01*
X176588910Y-60608012D01*
X176737871Y-60508479D01*
X176742838Y-60505160D01*
X176913871Y-60434316D01*
X177004655Y-60416258D01*
X177095436Y-60398200D01*
X177280564Y-60398200D01*
X177371345Y-60416258D01*
X177371345Y-60416258D01*
G37*
G36*
X174871345Y-60416258D02*
X174962129Y-60434316D01*
X175133162Y-60505160D01*
X175138129Y-60508479D01*
X175287090Y-60608012D01*
X175417988Y-60738910D01*
X175417990Y-60738913D01*
X175520840Y-60892838D01*
X175591684Y-61063871D01*
X175627800Y-61245438D01*
X175627800Y-61430562D01*
X175591684Y-61612129D01*
X175520840Y-61783162D01*
X175520839Y-61783163D01*
X175417988Y-61937090D01*
X175287090Y-62067988D01*
X175287087Y-62067990D01*
X175133162Y-62170840D01*
X174962129Y-62241684D01*
X174871345Y-62259742D01*
X174780564Y-62277800D01*
X174595436Y-62277800D01*
X174504655Y-62259742D01*
X174413871Y-62241684D01*
X174242838Y-62170840D01*
X174088913Y-62067990D01*
X174088910Y-62067988D01*
X173958012Y-61937090D01*
X173855161Y-61783163D01*
X173855160Y-61783162D01*
X173784316Y-61612129D01*
X173748200Y-61430562D01*
X173748200Y-61245438D01*
X173784316Y-61063871D01*
X173855160Y-60892838D01*
X173958010Y-60738913D01*
X173958012Y-60738910D01*
X174088910Y-60608012D01*
X174237871Y-60508479D01*
X174242838Y-60505160D01*
X174413871Y-60434316D01*
X174504655Y-60416258D01*
X174595436Y-60398200D01*
X174780564Y-60398200D01*
X174871345Y-60416258D01*
X174871345Y-60416258D01*
G37*
G36*
X179871345Y-60416258D02*
X179962129Y-60434316D01*
X180133162Y-60505160D01*
X180138129Y-60508479D01*
X180287090Y-60608012D01*
X180417988Y-60738910D01*
X180417990Y-60738913D01*
X180520840Y-60892838D01*
X180591684Y-61063871D01*
X180627800Y-61245438D01*
X180627800Y-61430562D01*
X180591684Y-61612129D01*
X180520840Y-61783162D01*
X180520839Y-61783163D01*
X180417988Y-61937090D01*
X180287090Y-62067988D01*
X180287087Y-62067990D01*
X180133162Y-62170840D01*
X179962129Y-62241684D01*
X179871345Y-62259742D01*
X179780564Y-62277800D01*
X179595436Y-62277800D01*
X179504655Y-62259742D01*
X179413871Y-62241684D01*
X179242838Y-62170840D01*
X179088913Y-62067990D01*
X179088910Y-62067988D01*
X178958012Y-61937090D01*
X178855161Y-61783163D01*
X178855160Y-61783162D01*
X178784316Y-61612129D01*
X178748200Y-61430562D01*
X178748200Y-61245438D01*
X178784316Y-61063871D01*
X178855160Y-60892838D01*
X178958010Y-60738913D01*
X178958012Y-60738910D01*
X179088910Y-60608012D01*
X179237871Y-60508479D01*
X179242838Y-60505160D01*
X179413871Y-60434316D01*
X179504655Y-60416258D01*
X179595436Y-60398200D01*
X179780564Y-60398200D01*
X179871345Y-60416258D01*
X179871345Y-60416258D01*
G37*
G36*
X184223263Y-58067957D02*
X184463634Y-58167522D01*
X184679961Y-58312067D01*
X184863933Y-58496039D01*
X185008478Y-58712366D01*
X185108043Y-58952737D01*
X185158800Y-59207913D01*
X185158800Y-59468087D01*
X185108043Y-59723263D01*
X185008478Y-59963634D01*
X184863933Y-60179961D01*
X184679961Y-60363933D01*
X184463634Y-60508478D01*
X184463633Y-60508479D01*
X184463632Y-60508479D01*
X184223263Y-60608043D01*
X183968089Y-60658800D01*
X183707911Y-60658800D01*
X183452737Y-60608043D01*
X183212368Y-60508479D01*
X183212367Y-60508479D01*
X183212366Y-60508478D01*
X182996039Y-60363933D01*
X182812067Y-60179961D01*
X182667522Y-59963634D01*
X182567957Y-59723263D01*
X182517200Y-59468087D01*
X182517200Y-59207913D01*
X182567957Y-58952737D01*
X182667522Y-58712366D01*
X182812067Y-58496039D01*
X182996039Y-58312067D01*
X183212366Y-58167522D01*
X183452737Y-58067957D01*
X183707911Y-58017200D01*
X183968089Y-58017200D01*
X184223263Y-58067957D01*
X184223263Y-58067957D01*
G37*
G36*
X170923263Y-58067957D02*
X171163634Y-58167522D01*
X171379961Y-58312067D01*
X171563933Y-58496039D01*
X171708478Y-58712366D01*
X171808043Y-58952737D01*
X171858800Y-59207913D01*
X171858800Y-59468087D01*
X171808043Y-59723263D01*
X171708478Y-59963634D01*
X171563933Y-60179961D01*
X171379961Y-60363933D01*
X171163634Y-60508478D01*
X171163633Y-60508479D01*
X171163632Y-60508479D01*
X170923263Y-60608043D01*
X170668089Y-60658800D01*
X170407911Y-60658800D01*
X170152737Y-60608043D01*
X169912368Y-60508479D01*
X169912367Y-60508479D01*
X169912366Y-60508478D01*
X169696039Y-60363933D01*
X169512067Y-60179961D01*
X169367522Y-59963634D01*
X169267957Y-59723263D01*
X169217200Y-59468087D01*
X169217200Y-59207913D01*
X169267957Y-58952737D01*
X169367522Y-58712366D01*
X169512067Y-58496039D01*
X169696039Y-58312067D01*
X169912366Y-58167522D01*
X170152737Y-58067957D01*
X170407911Y-58017200D01*
X170668089Y-58017200D01*
X170923263Y-58067957D01*
X170923263Y-58067957D01*
G37*
G36*
X124223263Y-58067957D02*
X124463634Y-58167522D01*
X124679961Y-58312067D01*
X124863933Y-58496039D01*
X125008478Y-58712366D01*
X125108043Y-58952737D01*
X125158800Y-59207913D01*
X125158800Y-59468087D01*
X125108043Y-59723263D01*
X125008478Y-59963634D01*
X124863933Y-60179961D01*
X124679961Y-60363933D01*
X124463634Y-60508478D01*
X124463633Y-60508479D01*
X124463632Y-60508479D01*
X124223263Y-60608043D01*
X123968089Y-60658800D01*
X123707911Y-60658800D01*
X123452737Y-60608043D01*
X123212368Y-60508479D01*
X123212367Y-60508479D01*
X123212366Y-60508478D01*
X122996039Y-60363933D01*
X122812067Y-60179961D01*
X122667522Y-59963634D01*
X122567957Y-59723263D01*
X122517200Y-59468087D01*
X122517200Y-59207913D01*
X122567957Y-58952737D01*
X122667522Y-58712366D01*
X122812067Y-58496039D01*
X122996039Y-58312067D01*
X123212366Y-58167522D01*
X123452737Y-58067957D01*
X123707911Y-58017200D01*
X123968089Y-58017200D01*
X124223263Y-58067957D01*
X124223263Y-58067957D01*
G37*
G36*
X110923263Y-58067957D02*
X111163634Y-58167522D01*
X111379961Y-58312067D01*
X111563933Y-58496039D01*
X111708478Y-58712366D01*
X111808043Y-58952737D01*
X111858800Y-59207913D01*
X111858800Y-59468087D01*
X111808043Y-59723263D01*
X111708478Y-59963634D01*
X111563933Y-60179961D01*
X111379961Y-60363933D01*
X111163634Y-60508478D01*
X111163633Y-60508479D01*
X111163632Y-60508479D01*
X110923263Y-60608043D01*
X110668089Y-60658800D01*
X110407911Y-60658800D01*
X110152737Y-60608043D01*
X109912368Y-60508479D01*
X109912367Y-60508479D01*
X109912366Y-60508478D01*
X109696039Y-60363933D01*
X109512067Y-60179961D01*
X109367522Y-59963634D01*
X109267957Y-59723263D01*
X109217200Y-59468087D01*
X109217200Y-59207913D01*
X109267957Y-58952737D01*
X109367522Y-58712366D01*
X109512067Y-58496039D01*
X109696039Y-58312067D01*
X109912366Y-58167522D01*
X110152737Y-58067957D01*
X110407911Y-58017200D01*
X110668089Y-58017200D01*
X110923263Y-58067957D01*
X110923263Y-58067957D01*
G37*
G36*
X150538800Y-58767600D02*
X148837200Y-58767600D01*
X148837200Y-57666000D01*
X150538800Y-57666000D01*
X150538800Y-58767600D01*
X150538800Y-58767600D01*
G37*
G36*
X145538800Y-58767600D02*
X143837200Y-58767600D01*
X143837200Y-57666000D01*
X145538800Y-57666000D01*
X145538800Y-58767600D01*
X145538800Y-58767600D01*
G37*
G36*
X142067468Y-56891283D02*
X142101434Y-56901586D01*
X142132732Y-56918316D01*
X142160168Y-56940832D01*
X142182684Y-56968268D01*
X142199414Y-56999566D01*
X142209717Y-57033532D01*
X142213800Y-57074990D01*
X142213800Y-57676010D01*
X142209717Y-57717468D01*
X142199414Y-57751434D01*
X142182684Y-57782732D01*
X142160168Y-57810168D01*
X142132732Y-57832684D01*
X142101434Y-57849414D01*
X142067468Y-57859717D01*
X142026010Y-57863800D01*
X141349990Y-57863800D01*
X141308532Y-57859717D01*
X141274566Y-57849414D01*
X141243268Y-57832684D01*
X141215832Y-57810168D01*
X141193316Y-57782732D01*
X141176586Y-57751434D01*
X141166283Y-57717468D01*
X141162200Y-57676010D01*
X141162200Y-57074990D01*
X141166283Y-57033532D01*
X141176586Y-56999566D01*
X141193316Y-56968268D01*
X141215832Y-56940832D01*
X141243268Y-56918316D01*
X141274566Y-56901586D01*
X141308532Y-56891283D01*
X141349990Y-56887200D01*
X142026010Y-56887200D01*
X142067468Y-56891283D01*
X142067468Y-56891283D01*
G37*
G36*
X142067468Y-55316283D02*
X142101434Y-55326586D01*
X142132732Y-55343316D01*
X142160168Y-55365832D01*
X142182684Y-55393268D01*
X142199414Y-55424566D01*
X142209717Y-55458532D01*
X142213800Y-55499990D01*
X142213800Y-56101010D01*
X142209717Y-56142468D01*
X142199414Y-56176434D01*
X142182684Y-56207732D01*
X142160168Y-56235168D01*
X142132732Y-56257684D01*
X142101434Y-56274414D01*
X142067468Y-56284717D01*
X142026010Y-56288800D01*
X141349990Y-56288800D01*
X141308532Y-56284717D01*
X141274566Y-56274414D01*
X141243268Y-56257684D01*
X141215832Y-56235168D01*
X141193316Y-56207732D01*
X141176586Y-56176434D01*
X141166283Y-56142468D01*
X141162200Y-56101010D01*
X141162200Y-55499990D01*
X141166283Y-55458532D01*
X141176586Y-55424566D01*
X141193316Y-55393268D01*
X141215832Y-55365832D01*
X141243268Y-55343316D01*
X141274566Y-55326586D01*
X141308532Y-55316283D01*
X141349990Y-55312200D01*
X142026010Y-55312200D01*
X142067468Y-55316283D01*
X142067468Y-55316283D01*
G37*
G36*
X150538800Y-55567600D02*
X148837200Y-55567600D01*
X148837200Y-54466000D01*
X150538800Y-54466000D01*
X150538800Y-55567600D01*
X150538800Y-55567600D01*
G37*
G36*
X145538800Y-55567600D02*
X143837200Y-55567600D01*
X143837200Y-54466000D01*
X145538800Y-54466000D01*
X145538800Y-55567600D01*
X145538800Y-55567600D01*
G37*
G36*
X167621346Y-53166258D02*
X167712129Y-53184316D01*
X167883162Y-53255160D01*
X167883163Y-53255161D01*
X168037090Y-53358012D01*
X168167988Y-53488910D01*
X168167990Y-53488913D01*
X168270840Y-53642838D01*
X168341684Y-53813871D01*
X168377800Y-53995438D01*
X168377800Y-54180562D01*
X168341684Y-54362129D01*
X168270840Y-54533162D01*
X168270839Y-54533163D01*
X168167988Y-54687090D01*
X168037090Y-54817988D01*
X168037087Y-54817990D01*
X167883162Y-54920840D01*
X167712129Y-54991684D01*
X167621346Y-55009742D01*
X167530564Y-55027800D01*
X167345436Y-55027800D01*
X167254654Y-55009742D01*
X167163871Y-54991684D01*
X166992838Y-54920840D01*
X166838913Y-54817990D01*
X166838910Y-54817988D01*
X166708012Y-54687090D01*
X166605161Y-54533163D01*
X166605160Y-54533162D01*
X166534316Y-54362129D01*
X166498200Y-54180562D01*
X166498200Y-53995438D01*
X166534316Y-53813871D01*
X166605160Y-53642838D01*
X166708010Y-53488913D01*
X166708012Y-53488910D01*
X166838910Y-53358012D01*
X166992837Y-53255161D01*
X166992838Y-53255160D01*
X167163871Y-53184316D01*
X167254654Y-53166258D01*
X167345436Y-53148200D01*
X167530564Y-53148200D01*
X167621346Y-53166258D01*
X167621346Y-53166258D01*
G37*
G36*
X127121346Y-53166258D02*
X127212129Y-53184316D01*
X127383162Y-53255160D01*
X127383163Y-53255161D01*
X127537090Y-53358012D01*
X127667988Y-53488910D01*
X127667990Y-53488913D01*
X127770840Y-53642838D01*
X127841684Y-53813871D01*
X127877800Y-53995438D01*
X127877800Y-54180562D01*
X127841684Y-54362129D01*
X127770840Y-54533162D01*
X127770839Y-54533163D01*
X127667988Y-54687090D01*
X127537090Y-54817988D01*
X127537087Y-54817990D01*
X127383162Y-54920840D01*
X127212129Y-54991684D01*
X127121346Y-55009742D01*
X127030564Y-55027800D01*
X126845436Y-55027800D01*
X126754654Y-55009742D01*
X126663871Y-54991684D01*
X126492838Y-54920840D01*
X126338913Y-54817990D01*
X126338910Y-54817988D01*
X126208012Y-54687090D01*
X126105161Y-54533163D01*
X126105160Y-54533162D01*
X126034316Y-54362129D01*
X125998200Y-54180562D01*
X125998200Y-53995438D01*
X126034316Y-53813871D01*
X126105160Y-53642838D01*
X126208010Y-53488913D01*
X126208012Y-53488910D01*
X126338910Y-53358012D01*
X126492837Y-53255161D01*
X126492838Y-53255160D01*
X126663871Y-53184316D01*
X126754654Y-53166258D01*
X126845436Y-53148200D01*
X127030564Y-53148200D01*
X127121346Y-53166258D01*
X127121346Y-53166258D01*
G37*
G36*
X167621346Y-50686334D02*
X167712129Y-50704392D01*
X167883162Y-50775236D01*
X168035009Y-50876697D01*
X168037090Y-50878088D01*
X168167988Y-51008986D01*
X168167990Y-51008989D01*
X168270840Y-51162914D01*
X168341684Y-51333947D01*
X168377800Y-51515514D01*
X168377800Y-51700638D01*
X168341684Y-51882205D01*
X168270840Y-52053238D01*
X168270839Y-52053239D01*
X168167988Y-52207166D01*
X168037090Y-52338064D01*
X168037087Y-52338066D01*
X167883162Y-52440916D01*
X167712129Y-52511760D01*
X167621345Y-52529818D01*
X167530564Y-52547876D01*
X167345436Y-52547876D01*
X167254655Y-52529818D01*
X167163871Y-52511760D01*
X166992838Y-52440916D01*
X166838913Y-52338066D01*
X166838910Y-52338064D01*
X166708012Y-52207166D01*
X166605161Y-52053239D01*
X166605160Y-52053238D01*
X166534316Y-51882205D01*
X166498200Y-51700638D01*
X166498200Y-51515514D01*
X166534316Y-51333947D01*
X166605160Y-51162914D01*
X166708010Y-51008989D01*
X166708012Y-51008986D01*
X166838910Y-50878088D01*
X166840991Y-50876697D01*
X166992838Y-50775236D01*
X167163871Y-50704392D01*
X167254655Y-50686334D01*
X167345436Y-50668276D01*
X167530564Y-50668276D01*
X167621346Y-50686334D01*
X167621346Y-50686334D01*
G37*
G36*
X127121346Y-50646182D02*
X127212129Y-50664240D01*
X127383162Y-50735084D01*
X127383163Y-50735085D01*
X127537090Y-50837936D01*
X127667988Y-50968834D01*
X127667990Y-50968837D01*
X127770840Y-51122762D01*
X127841684Y-51293795D01*
X127877800Y-51475362D01*
X127877800Y-51660486D01*
X127841684Y-51842053D01*
X127770840Y-52013086D01*
X127770839Y-52013087D01*
X127667988Y-52167014D01*
X127537090Y-52297912D01*
X127537087Y-52297914D01*
X127383162Y-52400764D01*
X127212129Y-52471608D01*
X127121345Y-52489666D01*
X127030564Y-52507724D01*
X126845436Y-52507724D01*
X126754655Y-52489666D01*
X126663871Y-52471608D01*
X126492838Y-52400764D01*
X126338913Y-52297914D01*
X126338910Y-52297912D01*
X126208012Y-52167014D01*
X126105161Y-52013087D01*
X126105160Y-52013086D01*
X126034316Y-51842053D01*
X125998200Y-51660486D01*
X125998200Y-51475362D01*
X126034316Y-51293795D01*
X126105160Y-51122762D01*
X126208010Y-50968837D01*
X126208012Y-50968834D01*
X126338910Y-50837936D01*
X126492837Y-50735085D01*
X126492838Y-50735084D01*
X126663871Y-50664240D01*
X126754655Y-50646182D01*
X126845436Y-50628124D01*
X127030564Y-50628124D01*
X127121346Y-50646182D01*
X127121346Y-50646182D01*
G37*
G36*
X167621345Y-48166258D02*
X167712129Y-48184316D01*
X167883162Y-48255160D01*
X167883163Y-48255161D01*
X168037090Y-48358012D01*
X168167988Y-48488910D01*
X168167990Y-48488913D01*
X168270840Y-48642838D01*
X168341684Y-48813871D01*
X168377800Y-48995438D01*
X168377800Y-49180562D01*
X168341684Y-49362129D01*
X168270840Y-49533162D01*
X168270839Y-49533163D01*
X168167988Y-49687090D01*
X168037090Y-49817988D01*
X168037087Y-49817990D01*
X167883162Y-49920840D01*
X167712129Y-49991684D01*
X167621346Y-50009742D01*
X167530564Y-50027800D01*
X167345436Y-50027800D01*
X167254655Y-50009742D01*
X167163871Y-49991684D01*
X166992838Y-49920840D01*
X166838913Y-49817990D01*
X166838910Y-49817988D01*
X166708012Y-49687090D01*
X166605161Y-49533163D01*
X166605160Y-49533162D01*
X166534316Y-49362129D01*
X166498200Y-49180562D01*
X166498200Y-48995438D01*
X166534316Y-48813871D01*
X166605160Y-48642838D01*
X166708010Y-48488913D01*
X166708012Y-48488910D01*
X166838910Y-48358012D01*
X166992837Y-48255161D01*
X166992838Y-48255160D01*
X167163871Y-48184316D01*
X167254655Y-48166258D01*
X167345436Y-48148200D01*
X167530564Y-48148200D01*
X167621345Y-48166258D01*
X167621345Y-48166258D01*
G37*
G36*
X127121345Y-48166258D02*
X127212129Y-48184316D01*
X127383162Y-48255160D01*
X127383163Y-48255161D01*
X127537090Y-48358012D01*
X127667988Y-48488910D01*
X127667990Y-48488913D01*
X127770840Y-48642838D01*
X127841684Y-48813871D01*
X127877800Y-48995438D01*
X127877800Y-49180562D01*
X127841684Y-49362129D01*
X127770840Y-49533162D01*
X127770839Y-49533163D01*
X127667988Y-49687090D01*
X127537090Y-49817988D01*
X127537087Y-49817990D01*
X127383162Y-49920840D01*
X127212129Y-49991684D01*
X127121346Y-50009742D01*
X127030564Y-50027800D01*
X126845436Y-50027800D01*
X126754655Y-50009742D01*
X126663871Y-49991684D01*
X126492838Y-49920840D01*
X126338913Y-49817990D01*
X126338910Y-49817988D01*
X126208012Y-49687090D01*
X126105161Y-49533163D01*
X126105160Y-49533162D01*
X126034316Y-49362129D01*
X125998200Y-49180562D01*
X125998200Y-48995438D01*
X126034316Y-48813871D01*
X126105160Y-48642838D01*
X126208010Y-48488913D01*
X126208012Y-48488910D01*
X126338910Y-48358012D01*
X126492837Y-48255161D01*
X126492838Y-48255160D01*
X126663871Y-48184316D01*
X126754655Y-48166258D01*
X126845436Y-48148200D01*
X127030564Y-48148200D01*
X127121345Y-48166258D01*
X127121345Y-48166258D01*
G37*
G36*
X164699584Y-40894865D02*
X164844534Y-40923697D01*
X165254154Y-41093367D01*
X165622802Y-41339689D01*
X165936311Y-41653198D01*
X166182633Y-42021846D01*
X166352303Y-42431466D01*
X166379453Y-42567957D01*
X166428010Y-42812067D01*
X166438800Y-42866316D01*
X166438800Y-43309684D01*
X166352303Y-43744534D01*
X166182633Y-44154154D01*
X165936311Y-44522802D01*
X165622802Y-44836311D01*
X165254154Y-45082633D01*
X164844534Y-45252303D01*
X164699584Y-45281135D01*
X164409686Y-45338800D01*
X163966314Y-45338800D01*
X163676416Y-45281135D01*
X163531466Y-45252303D01*
X163121846Y-45082633D01*
X162753198Y-44836311D01*
X162439689Y-44522802D01*
X162193367Y-44154154D01*
X162023697Y-43744534D01*
X161937200Y-43309684D01*
X161937200Y-42866316D01*
X161947991Y-42812067D01*
X161996547Y-42567957D01*
X162023697Y-42431466D01*
X162193367Y-42021846D01*
X162439689Y-41653198D01*
X162753198Y-41339689D01*
X163121846Y-41093367D01*
X163531466Y-40923697D01*
X163676416Y-40894865D01*
X163966314Y-40837200D01*
X164409686Y-40837200D01*
X164699584Y-40894865D01*
X164699584Y-40894865D01*
G37*
G36*
X130699584Y-40894865D02*
X130844534Y-40923697D01*
X131254154Y-41093367D01*
X131622802Y-41339689D01*
X131936311Y-41653198D01*
X132182633Y-42021846D01*
X132352303Y-42431466D01*
X132379453Y-42567957D01*
X132428010Y-42812067D01*
X132438800Y-42866316D01*
X132438800Y-43309684D01*
X132352303Y-43744534D01*
X132182633Y-44154154D01*
X131936311Y-44522802D01*
X131622802Y-44836311D01*
X131254154Y-45082633D01*
X130844534Y-45252303D01*
X130699584Y-45281135D01*
X130409686Y-45338800D01*
X129966314Y-45338800D01*
X129676416Y-45281135D01*
X129531466Y-45252303D01*
X129121846Y-45082633D01*
X128753198Y-44836311D01*
X128439689Y-44522802D01*
X128193367Y-44154154D01*
X128023697Y-43744534D01*
X127937200Y-43309684D01*
X127937200Y-42866316D01*
X127947991Y-42812067D01*
X127996547Y-42567957D01*
X128023697Y-42431466D01*
X128193367Y-42021846D01*
X128439689Y-41653198D01*
X128753198Y-41339689D01*
X129121846Y-41093367D01*
X129531466Y-40923697D01*
X129676416Y-40894865D01*
X129966314Y-40837200D01*
X130409686Y-40837200D01*
X130699584Y-40894865D01*
X130699584Y-40894865D01*
G37*
G36*
X170923263Y-42567957D02*
X171163634Y-42667522D01*
X171379961Y-42812067D01*
X171563933Y-42996039D01*
X171708478Y-43212366D01*
X171708479Y-43212368D01*
X171808043Y-43452737D01*
X171858800Y-43707911D01*
X171858800Y-43968089D01*
X171808043Y-44223263D01*
X171708478Y-44463634D01*
X171563933Y-44679961D01*
X171379961Y-44863933D01*
X171163634Y-45008478D01*
X171163633Y-45008479D01*
X171163632Y-45008479D01*
X170923263Y-45108043D01*
X170668089Y-45158800D01*
X170407911Y-45158800D01*
X170152737Y-45108043D01*
X169912368Y-45008479D01*
X169912367Y-45008479D01*
X169912366Y-45008478D01*
X169696039Y-44863933D01*
X169512067Y-44679961D01*
X169367522Y-44463634D01*
X169267957Y-44223263D01*
X169217200Y-43968089D01*
X169217200Y-43707911D01*
X169267957Y-43452737D01*
X169367521Y-43212368D01*
X169367522Y-43212366D01*
X169512067Y-42996039D01*
X169696039Y-42812067D01*
X169912366Y-42667522D01*
X170152737Y-42567957D01*
X170407911Y-42517200D01*
X170668089Y-42517200D01*
X170923263Y-42567957D01*
X170923263Y-42567957D01*
G37*
G36*
X110923263Y-42567957D02*
X111163634Y-42667522D01*
X111379961Y-42812067D01*
X111563933Y-42996039D01*
X111708478Y-43212366D01*
X111708479Y-43212368D01*
X111808043Y-43452737D01*
X111858800Y-43707911D01*
X111858800Y-43968089D01*
X111808043Y-44223263D01*
X111708478Y-44463634D01*
X111563933Y-44679961D01*
X111379961Y-44863933D01*
X111163634Y-45008478D01*
X111163633Y-45008479D01*
X111163632Y-45008479D01*
X110923263Y-45108043D01*
X110668089Y-45158800D01*
X110407911Y-45158800D01*
X110152737Y-45108043D01*
X109912368Y-45008479D01*
X109912367Y-45008479D01*
X109912366Y-45008478D01*
X109696039Y-44863933D01*
X109512067Y-44679961D01*
X109367522Y-44463634D01*
X109267957Y-44223263D01*
X109217200Y-43968089D01*
X109217200Y-43707911D01*
X109267957Y-43452737D01*
X109367521Y-43212368D01*
X109367522Y-43212366D01*
X109512067Y-42996039D01*
X109696039Y-42812067D01*
X109912366Y-42667522D01*
X110152737Y-42567957D01*
X110407911Y-42517200D01*
X110668089Y-42517200D01*
X110923263Y-42567957D01*
X110923263Y-42567957D01*
G37*
G36*
X124223263Y-42567957D02*
X124463634Y-42667522D01*
X124679961Y-42812067D01*
X124863933Y-42996039D01*
X125008478Y-43212366D01*
X125008479Y-43212368D01*
X125108043Y-43452737D01*
X125158800Y-43707911D01*
X125158800Y-43968089D01*
X125108043Y-44223263D01*
X125008478Y-44463634D01*
X124863933Y-44679961D01*
X124679961Y-44863933D01*
X124463634Y-45008478D01*
X124463633Y-45008479D01*
X124463632Y-45008479D01*
X124223263Y-45108043D01*
X123968089Y-45158800D01*
X123707911Y-45158800D01*
X123452737Y-45108043D01*
X123212368Y-45008479D01*
X123212367Y-45008479D01*
X123212366Y-45008478D01*
X122996039Y-44863933D01*
X122812067Y-44679961D01*
X122667522Y-44463634D01*
X122567957Y-44223263D01*
X122517200Y-43968089D01*
X122517200Y-43707911D01*
X122567957Y-43452737D01*
X122667521Y-43212368D01*
X122667522Y-43212366D01*
X122812067Y-42996039D01*
X122996039Y-42812067D01*
X123212366Y-42667522D01*
X123452737Y-42567957D01*
X123707911Y-42517200D01*
X123968089Y-42517200D01*
X124223263Y-42567957D01*
X124223263Y-42567957D01*
G37*
G36*
X184223263Y-42567957D02*
X184463634Y-42667522D01*
X184679961Y-42812067D01*
X184863933Y-42996039D01*
X185008478Y-43212366D01*
X185008479Y-43212368D01*
X185108043Y-43452737D01*
X185158800Y-43707911D01*
X185158800Y-43968089D01*
X185108043Y-44223263D01*
X185008478Y-44463634D01*
X184863933Y-44679961D01*
X184679961Y-44863933D01*
X184463634Y-45008478D01*
X184463633Y-45008479D01*
X184463632Y-45008479D01*
X184223263Y-45108043D01*
X183968089Y-45158800D01*
X183707911Y-45158800D01*
X183452737Y-45108043D01*
X183212368Y-45008479D01*
X183212367Y-45008479D01*
X183212366Y-45008478D01*
X182996039Y-44863933D01*
X182812067Y-44679961D01*
X182667522Y-44463634D01*
X182567957Y-44223263D01*
X182517200Y-43968089D01*
X182517200Y-43707911D01*
X182567957Y-43452737D01*
X182667521Y-43212368D01*
X182667522Y-43212366D01*
X182812067Y-42996039D01*
X182996039Y-42812067D01*
X183212366Y-42667522D01*
X183452737Y-42567957D01*
X183707911Y-42517200D01*
X183968089Y-42517200D01*
X184223263Y-42567957D01*
X184223263Y-42567957D01*
G37*
G36*
X150540800Y-43670800D02*
X148915200Y-43670800D01*
X148915200Y-39505200D01*
X150540800Y-39505200D01*
X150540800Y-43670800D01*
X150540800Y-43670800D01*
G37*
G36*
X145460800Y-43670800D02*
X143835200Y-43670800D01*
X143835200Y-39505200D01*
X145460800Y-39505200D01*
X145460800Y-43670800D01*
X145460800Y-43670800D01*
G37*
G36*
X114871345Y-40916258D02*
X114962129Y-40934316D01*
X115133162Y-41005160D01*
X115133163Y-41005161D01*
X115287090Y-41108012D01*
X115417988Y-41238910D01*
X115417990Y-41238913D01*
X115520840Y-41392838D01*
X115591684Y-41563871D01*
X115627800Y-41745438D01*
X115627800Y-41930562D01*
X115591684Y-42112129D01*
X115520840Y-42283162D01*
X115520839Y-42283163D01*
X115417988Y-42437090D01*
X115287090Y-42567988D01*
X115287087Y-42567990D01*
X115133162Y-42670840D01*
X114962129Y-42741684D01*
X114871345Y-42759742D01*
X114780564Y-42777800D01*
X114595436Y-42777800D01*
X114504655Y-42759742D01*
X114413871Y-42741684D01*
X114242838Y-42670840D01*
X114088913Y-42567990D01*
X114088910Y-42567988D01*
X113958012Y-42437090D01*
X113855161Y-42283163D01*
X113855160Y-42283162D01*
X113784316Y-42112129D01*
X113748200Y-41930562D01*
X113748200Y-41745438D01*
X113784316Y-41563871D01*
X113855160Y-41392838D01*
X113958010Y-41238913D01*
X113958012Y-41238910D01*
X114088910Y-41108012D01*
X114242837Y-41005161D01*
X114242838Y-41005160D01*
X114413871Y-40934316D01*
X114504655Y-40916258D01*
X114595436Y-40898200D01*
X114780564Y-40898200D01*
X114871345Y-40916258D01*
X114871345Y-40916258D01*
G37*
G36*
X117371345Y-40916258D02*
X117462129Y-40934316D01*
X117633162Y-41005160D01*
X117633163Y-41005161D01*
X117787090Y-41108012D01*
X117917988Y-41238910D01*
X117917990Y-41238913D01*
X118020840Y-41392838D01*
X118091684Y-41563871D01*
X118127800Y-41745438D01*
X118127800Y-41930562D01*
X118091684Y-42112129D01*
X118020840Y-42283162D01*
X118020839Y-42283163D01*
X117917988Y-42437090D01*
X117787090Y-42567988D01*
X117787087Y-42567990D01*
X117633162Y-42670840D01*
X117462129Y-42741684D01*
X117371345Y-42759742D01*
X117280564Y-42777800D01*
X117095436Y-42777800D01*
X117004655Y-42759742D01*
X116913871Y-42741684D01*
X116742838Y-42670840D01*
X116588913Y-42567990D01*
X116588910Y-42567988D01*
X116458012Y-42437090D01*
X116355161Y-42283163D01*
X116355160Y-42283162D01*
X116284316Y-42112129D01*
X116248200Y-41930562D01*
X116248200Y-41745438D01*
X116284316Y-41563871D01*
X116355160Y-41392838D01*
X116458010Y-41238913D01*
X116458012Y-41238910D01*
X116588910Y-41108012D01*
X116742837Y-41005161D01*
X116742838Y-41005160D01*
X116913871Y-40934316D01*
X117004655Y-40916258D01*
X117095436Y-40898200D01*
X117280564Y-40898200D01*
X117371345Y-40916258D01*
X117371345Y-40916258D01*
G37*
G36*
X119871345Y-40916258D02*
X119962129Y-40934316D01*
X120133162Y-41005160D01*
X120133163Y-41005161D01*
X120287090Y-41108012D01*
X120417988Y-41238910D01*
X120417990Y-41238913D01*
X120520840Y-41392838D01*
X120591684Y-41563871D01*
X120627800Y-41745438D01*
X120627800Y-41930562D01*
X120591684Y-42112129D01*
X120520840Y-42283162D01*
X120520839Y-42283163D01*
X120417988Y-42437090D01*
X120287090Y-42567988D01*
X120287087Y-42567990D01*
X120133162Y-42670840D01*
X119962129Y-42741684D01*
X119871345Y-42759742D01*
X119780564Y-42777800D01*
X119595436Y-42777800D01*
X119504655Y-42759742D01*
X119413871Y-42741684D01*
X119242838Y-42670840D01*
X119088913Y-42567990D01*
X119088910Y-42567988D01*
X118958012Y-42437090D01*
X118855161Y-42283163D01*
X118855160Y-42283162D01*
X118784316Y-42112129D01*
X118748200Y-41930562D01*
X118748200Y-41745438D01*
X118784316Y-41563871D01*
X118855160Y-41392838D01*
X118958010Y-41238913D01*
X118958012Y-41238910D01*
X119088910Y-41108012D01*
X119242837Y-41005161D01*
X119242838Y-41005160D01*
X119413871Y-40934316D01*
X119504655Y-40916258D01*
X119595436Y-40898200D01*
X119780564Y-40898200D01*
X119871345Y-40916258D01*
X119871345Y-40916258D01*
G37*
M02*
