M48
; DRILL file {KiCad 5.1.6-c6e7f7d~86~ubuntu20.04.1} date Sat May 16 11:05:43 2020
; FORMAT={-:-/ absolute / inch / decimal}
; #@! TF.CreationDate,2020-05-16T11:05:43+02:00
; #@! TF.GenerationSoftware,Kicad,Pcbnew,5.1.6-c6e7f7d~86~ubuntu20.04.1
; #@! TF.FileFunction,Plated,1,2,PTH
FMAT,2
INCH
T1C0.0130
T2C0.0177
T3C0.0217
T4C0.0295
T5C0.0300
T6C0.0390
T7C0.0394
T8C0.0472
T9C0.0512
T10C0.0866
%
G90
G05
T1
X4.4956Y-4.098
X4.4956Y-4.1373
X4.4956Y-4.1767
X4.53Y-4.0073
X4.5842Y-4.0881
X4.7Y-4.0001
X4.7023Y-3.6747
X4.7515Y-4.1176
X4.7712Y-3.6747
X4.8598Y-3.7043
X4.8696Y-3.7731
X5.0665Y-4.1373
X5.1129Y-3.9405
X5.1129Y-3.9897
X5.1775Y-3.9995
X5.1846Y-2.9169
X5.1964Y-4.2869
X5.3224Y-3.9208
X5.3224Y-3.9538
X5.3814Y-3.8125
X5.395Y-4.345
X5.4405Y-3.6255
X5.4602Y-4.0608
X5.4798Y-3.2515
X5.4798Y-3.5468
X5.5094Y-4.0139
X5.5197Y-3.9564
X5.5389Y-4.0684
X5.598Y-3.5468
X5.598Y-3.9798
X5.6176Y-2.7003
X5.6964Y-2.751
X5.7161Y-3.7239
X5.7161Y-4.0586
X5.7259Y-3.5861
X5.7388Y-4.1095
X5.7397Y-4.1531
X5.7456Y-3.5566
X5.7517Y-3.6452
X5.7751Y-2.751
X5.8539Y-2.751
X5.9326Y-2.751
X5.972Y-3.6846
X6.0507Y-2.7003
X6.1491Y-3.3302
X6.157Y-3.594
X6.1885Y-3.6846
X6.2082Y-3.3598
X6.2316Y-3.2712
X6.2476Y-2.9562
X6.2574Y-3.4385
X6.2833Y-3.4644
X6.3066Y-3.4877
X6.3929Y-3.5369
X6.405Y-3.5861
X6.4247Y-1.9523
X6.4641Y-3.4877
X6.4838Y-3.7928
X6.4838Y-3.8617
X6.4936Y-3.5172
X6.4937Y-3.5503
X6.4958Y-3.5856
X6.5507Y-4.1137
X6.6161Y-3.0984
X6.6255Y-4.22
X6.6294Y-3.783
X6.6295Y-3.9305
X6.6413Y-3.7436
X6.6529Y-3.96
X6.67Y-3.99
X6.6767Y-4.22
X6.6767Y-4.22
X6.6846Y-3.5231
X6.6993Y-4.39
X6.703Y-3.99
X6.7279Y-4.2161
X6.7778Y-4.1865
X6.7869Y-3.4917
X6.8381Y-4.2161
X6.842Y-3.6334
X6.8578Y-3.0507
X6.8578Y-4.285
X6.8614Y-4.2395
X6.8676Y-4.1865
X6.9365Y-4.0586
X6.9956Y-3.6649
X7.035Y-3.5816
X7.0625Y-3.1216
X7.1334Y-3.842
X7.2023Y-3.9011
T3
X4.6563Y-4.3254
X4.8137Y-4.3254
T4
X5.0353Y-4.392
X5.114Y-4.392
T5
X5.9578Y-3.8176
X5.9578Y-3.8669
X5.9578Y-3.9161
X5.9578Y-3.9653
X6.007Y-3.8176
X6.007Y-3.8669
X6.007Y-3.9161
X6.007Y-3.9653
X6.0562Y-3.8176
X6.0562Y-3.8669
X6.0562Y-3.9161
X6.0562Y-3.9653
X6.1054Y-3.8176
X6.1054Y-3.8669
X6.1054Y-3.9161
X6.1054Y-3.9653
T6
X6.07Y-1.645
X6.2472Y-1.645
X5.3428Y-1.645
X5.52Y-1.645
T7
X6.9515Y-2.5806
X6.9515Y-2.6806
X7.0515Y-2.5806
X7.0515Y-2.6806
X7.1515Y-2.5806
X7.1515Y-2.6806
X7.2515Y-2.5806
X7.2515Y-2.6806
X4.594Y-3.3696
X4.8932Y-3.3696
T8
X6.592Y-1.9326
X6.592Y-2.0318
X6.592Y-2.1294
X6.8775Y-2.4149
X6.9759Y-2.4149
X7.0743Y-2.4149
X4.5153Y-1.6472
X4.6137Y-1.6472
X4.7121Y-1.6472
X4.9976Y-1.9326
X4.9976Y-2.0302
X4.9976Y-2.1294
T9
X6.0204Y-1.743
X6.2964Y-1.743
X5.2932Y-1.743
X5.5692Y-1.743
T10
X5.1255Y-1.6964
X6.4641Y-1.6964
X4.3381Y-4.3342
X7.2515Y-4.3342
T2
G00X4.6238Y-4.3883
M15
G01X4.6238Y-4.4317
M16
G05
G00X4.8462Y-4.3883
M15
G01X4.8462Y-4.4317
M16
G05
T0
M30
