G04 #@! TF.FileFunction,Legend,Top*
%FSLAX46Y46*%
G04 Gerber Fmt 4.6, Leading zero omitted, Abs format (unit mm)*
G04 Created by KiCad (PCBNEW 4.0.7-e2-6376~61~ubuntu18.04.1) date Sat Jun  2 02:29:43 2018*
%MOMM*%
%LPD*%
G01*
G04 APERTURE LIST*
%ADD10C,0.100000*%
%ADD11C,0.120000*%
%ADD12C,0.150000*%
%ADD13C,0.381000*%
%ADD14C,0.500000*%
%ADD15C,0.010000*%
%ADD16C,0.304800*%
G04 APERTURE END LIST*
D10*
D11*
X120588000Y-95338000D02*
X120588000Y-96338000D01*
X122288000Y-96338000D02*
X122288000Y-95338000D01*
X187648000Y-94988000D02*
X187748000Y-95488000D01*
X187348000Y-93688000D02*
X187648000Y-94988000D01*
X187148000Y-92188000D02*
X187348000Y-93688000D01*
X187048000Y-90888000D02*
X187148000Y-92188000D01*
X187048000Y-89088000D02*
X187048000Y-90888000D01*
X187148000Y-87788000D02*
X187048000Y-89088000D01*
X187248000Y-86988000D02*
X187148000Y-87788000D01*
X187548000Y-85288000D02*
X187248000Y-86988000D01*
X187748000Y-84488000D02*
X187548000Y-85288000D01*
X188348000Y-84988000D02*
X188348000Y-94988000D01*
X187848000Y-95488000D02*
G75*
G03X188348000Y-94988000I0J500000D01*
G01*
X186848000Y-84488000D02*
X187848000Y-84488000D01*
X186848000Y-95488000D02*
X187848000Y-95488000D01*
X186848000Y-83078000D02*
X186848000Y-96898000D01*
X172928000Y-96898000D02*
X172928000Y-83078000D01*
X175628000Y-96898000D02*
X172928000Y-96898000D01*
X188348000Y-84988000D02*
G75*
G03X187848000Y-84488000I-500000J0D01*
G01*
X186848000Y-96898000D02*
X186448000Y-96898000D01*
X183928000Y-96898000D02*
X178148000Y-96898000D01*
X175628000Y-83078000D02*
X172928000Y-83078000D01*
X183928000Y-83078000D02*
X178148000Y-83078000D01*
X186848000Y-83078000D02*
X186448000Y-83078000D01*
D12*
X130338000Y-95538000D02*
X130338000Y-96063000D01*
X126038000Y-99838000D02*
X126038000Y-99313000D01*
X130338000Y-99838000D02*
X130338000Y-99313000D01*
X126038000Y-95538000D02*
X126563000Y-95538000D01*
X126038000Y-99838000D02*
X126563000Y-99838000D01*
X130338000Y-99838000D02*
X129813000Y-99838000D01*
X130338000Y-95538000D02*
X129813000Y-95538000D01*
X121588000Y-76213000D02*
X122088000Y-76213000D01*
X124838000Y-79463000D02*
X124338000Y-79463000D01*
X124838000Y-76213000D02*
X124338000Y-76213000D01*
X121588000Y-79463000D02*
X121588000Y-78963000D01*
X124838000Y-79463000D02*
X124838000Y-78963000D01*
X124838000Y-76213000D02*
X124838000Y-76713000D01*
X121588000Y-76213000D02*
X121588000Y-76713000D01*
D11*
X113188000Y-97438000D02*
X114188000Y-97438000D01*
X114188000Y-95738000D02*
X113188000Y-95738000D01*
X118338000Y-95338000D02*
X118338000Y-96338000D01*
X120038000Y-96338000D02*
X120038000Y-95338000D01*
X122688000Y-95338000D02*
X122688000Y-96338000D01*
X124388000Y-96338000D02*
X124388000Y-95338000D01*
X115688000Y-105938000D02*
X116688000Y-105938000D01*
X116688000Y-104238000D02*
X115688000Y-104238000D01*
X127188000Y-79938000D02*
X128188000Y-79938000D01*
X128188000Y-78238000D02*
X127188000Y-78238000D01*
X129038000Y-73588000D02*
X129038000Y-72588000D01*
X127338000Y-72588000D02*
X127338000Y-73588000D01*
X127188000Y-77438000D02*
X128188000Y-77438000D01*
X128188000Y-75738000D02*
X127188000Y-75738000D01*
X121538000Y-73588000D02*
X121538000Y-72588000D01*
X119838000Y-72588000D02*
X119838000Y-73588000D01*
X174038000Y-100038000D02*
X174038000Y-101038000D01*
X175738000Y-101038000D02*
X175738000Y-100038000D01*
X176538000Y-100038000D02*
X176538000Y-101038000D01*
X178238000Y-101038000D02*
X178238000Y-100038000D01*
X168638000Y-110388000D02*
X167638000Y-110388000D01*
X167638000Y-112088000D02*
X168638000Y-112088000D01*
X111438000Y-97088000D02*
X109438000Y-97088000D01*
X109438000Y-97088000D02*
X109438000Y-100988000D01*
X111438000Y-97088000D02*
X111438000Y-100988000D01*
X114488000Y-103538000D02*
X114488000Y-102138000D01*
X114488000Y-102138000D02*
X111688000Y-102138000D01*
X114488000Y-103538000D02*
X111688000Y-103538000D01*
D13*
X143438960Y-32837700D02*
X150937040Y-32837700D01*
X150937040Y-33587000D02*
X143438960Y-33587000D01*
X143438960Y-34338840D02*
X150937040Y-34338840D01*
X150937040Y-35837440D02*
X143438960Y-35837440D01*
X143438960Y-35088140D02*
X150937040Y-35088140D01*
X150688120Y-32088400D02*
X143687880Y-32088400D01*
X143687880Y-32088400D02*
X143687880Y-32588780D01*
X151188500Y-38588260D02*
X151188500Y-39088640D01*
X143187500Y-38588260D02*
X143187500Y-39088640D01*
X143187500Y-38837180D02*
X151188500Y-38837180D01*
X151188500Y-38588260D02*
X143187500Y-38588260D01*
X145189020Y-39088640D02*
X145189020Y-43089140D01*
X145189020Y-43089140D02*
X144188260Y-43089140D01*
X144188260Y-43089140D02*
X144188260Y-39088640D01*
X147688380Y-39088640D02*
X147688380Y-43089140D01*
X147688380Y-43089140D02*
X146687620Y-43089140D01*
X146687620Y-43089140D02*
X146687620Y-39088640D01*
X150187740Y-39088640D02*
X150187740Y-43089140D01*
X150187740Y-43089140D02*
X149186980Y-43089140D01*
X149186980Y-43089140D02*
X149186980Y-39088640D01*
X150688120Y-32088400D02*
X150688120Y-39088640D01*
X151188500Y-39088640D02*
X143187500Y-39088640D01*
X143687880Y-39088640D02*
X143687880Y-32588780D01*
D11*
X115558000Y-85978000D02*
X118098000Y-85978000D01*
X118098000Y-84198000D02*
X115558000Y-84198000D01*
X118098000Y-84198000D02*
X118098000Y-85978000D01*
X115558000Y-85978000D02*
X115558000Y-84198000D01*
X122308000Y-73688000D02*
X122308000Y-72488000D01*
X124068000Y-72488000D02*
X124068000Y-73688000D01*
X124808000Y-73688000D02*
X124808000Y-72488000D01*
X126568000Y-72488000D02*
X126568000Y-73688000D01*
X127558000Y-67418000D02*
X127558000Y-64758000D01*
X124958000Y-67418000D02*
X127558000Y-67418000D01*
X124958000Y-64758000D02*
X127558000Y-64758000D01*
X124958000Y-67418000D02*
X124958000Y-64758000D01*
X123688000Y-67418000D02*
X122358000Y-67418000D01*
X122358000Y-67418000D02*
X122358000Y-66088000D01*
X114448000Y-101418000D02*
X114448000Y-100488000D01*
X114448000Y-98258000D02*
X114448000Y-99188000D01*
X114448000Y-98258000D02*
X112288000Y-98258000D01*
X114448000Y-101418000D02*
X112988000Y-101418000D01*
X134198000Y-102268000D02*
X134198000Y-101338000D01*
X134198000Y-99108000D02*
X134198000Y-100038000D01*
X134198000Y-99108000D02*
X132038000Y-99108000D01*
X134198000Y-102268000D02*
X132738000Y-102268000D01*
X134198000Y-98518000D02*
X134198000Y-97588000D01*
X134198000Y-95358000D02*
X134198000Y-96288000D01*
X134198000Y-95358000D02*
X132038000Y-95358000D01*
X134198000Y-98518000D02*
X132738000Y-98518000D01*
X114928000Y-66508000D02*
X114928000Y-67438000D01*
X114928000Y-69668000D02*
X114928000Y-68738000D01*
X114928000Y-69668000D02*
X117088000Y-69668000D01*
X114928000Y-66508000D02*
X116388000Y-66508000D01*
X112788000Y-105968000D02*
X111588000Y-105968000D01*
X111588000Y-104208000D02*
X112788000Y-104208000D01*
X115808000Y-100438000D02*
X115808000Y-99238000D01*
X117568000Y-99238000D02*
X117568000Y-100438000D01*
X116138000Y-101958000D02*
X117338000Y-101958000D01*
X117338000Y-103718000D02*
X116138000Y-103718000D01*
X132838000Y-93058000D02*
X134038000Y-93058000D01*
X134038000Y-94818000D02*
X132838000Y-94818000D01*
X132838000Y-90808000D02*
X134038000Y-90808000D01*
X134038000Y-92568000D02*
X132838000Y-92568000D01*
X122558000Y-100438000D02*
X122558000Y-99238000D01*
X124318000Y-99238000D02*
X124318000Y-100438000D01*
X165458000Y-93588000D02*
X165458000Y-92388000D01*
X167218000Y-92388000D02*
X167218000Y-93588000D01*
X111308000Y-85688000D02*
X111308000Y-84488000D01*
X113068000Y-84488000D02*
X113068000Y-85688000D01*
X128288000Y-82468000D02*
X127088000Y-82468000D01*
X127088000Y-80708000D02*
X128288000Y-80708000D01*
X180768000Y-99938000D02*
X180768000Y-101138000D01*
X179008000Y-101138000D02*
X179008000Y-99938000D01*
X181490000Y-101138000D02*
X181490000Y-99938000D01*
X183250000Y-99938000D02*
X183250000Y-101138000D01*
X184008000Y-101138000D02*
X184008000Y-99938000D01*
X185768000Y-99938000D02*
X185768000Y-101138000D01*
X119038000Y-101448000D02*
X120838000Y-101448000D01*
X120838000Y-98228000D02*
X118388000Y-98228000D01*
X120058000Y-105148000D02*
X121818000Y-105148000D01*
X121818000Y-102078000D02*
X119388000Y-102078000D01*
D12*
X185663000Y-72663000D02*
X185638000Y-72663000D01*
X185663000Y-76813000D02*
X185558000Y-76813000D01*
X175513000Y-76813000D02*
X175618000Y-76813000D01*
X175513000Y-72663000D02*
X175618000Y-72663000D01*
X185663000Y-72663000D02*
X185663000Y-76813000D01*
X175513000Y-72663000D02*
X175513000Y-76813000D01*
X185638000Y-72663000D02*
X185638000Y-71288000D01*
D11*
X128438000Y-100588000D02*
X127438000Y-100588000D01*
X127438000Y-102288000D02*
X128438000Y-102288000D01*
D12*
X165838000Y-103488000D02*
X165838000Y-107888000D01*
X171363000Y-101913000D02*
X171363000Y-107888000D01*
X143388000Y-88324000D02*
X143388000Y-82482000D01*
X161388000Y-82482000D02*
X161388000Y-88324000D01*
X143388000Y-82482000D02*
X161388000Y-82482000D01*
D14*
X162577981Y-107712000D02*
G75*
G03X162577981Y-107712000I-283981J0D01*
G01*
D12*
X143388000Y-107858000D02*
X161388000Y-107858000D01*
X161388000Y-113858000D02*
X161388000Y-88358000D01*
X143388000Y-113858000D02*
X143388000Y-88358000D01*
X143388000Y-88358000D02*
X161388000Y-88358000D01*
X143388000Y-113858000D02*
X161388000Y-113858000D01*
D15*
G36*
X167152929Y-78585149D02*
X167214119Y-78614869D01*
X167252400Y-78647116D01*
X167294304Y-78692856D01*
X167222227Y-78721768D01*
X167175826Y-78744736D01*
X167131501Y-78776894D01*
X167085879Y-78821562D01*
X167035586Y-78882063D01*
X166977248Y-78961715D01*
X166974518Y-78965605D01*
X166934773Y-79018032D01*
X166890337Y-79070030D01*
X166849171Y-79112440D01*
X166838770Y-79121819D01*
X166804142Y-79153024D01*
X166782670Y-79178741D01*
X166769355Y-79207935D01*
X166759200Y-79249566D01*
X166754759Y-79272465D01*
X166725854Y-79374114D01*
X166681347Y-79455757D01*
X166632874Y-79508088D01*
X166578309Y-79545236D01*
X166506617Y-79581008D01*
X166425975Y-79611839D01*
X166344562Y-79634165D01*
X166342671Y-79634566D01*
X166283345Y-79645975D01*
X166239661Y-79650925D01*
X166202783Y-79649735D01*
X166163874Y-79642723D01*
X166157521Y-79641238D01*
X166101722Y-79621564D01*
X166055942Y-79593417D01*
X166023970Y-79560549D01*
X166009596Y-79526711D01*
X166014308Y-79499489D01*
X166032484Y-79478697D01*
X166061232Y-79469491D01*
X166104798Y-79471429D01*
X166166044Y-79483736D01*
X166248591Y-79496438D01*
X166320156Y-79490104D01*
X166387843Y-79463533D01*
X166426062Y-79439809D01*
X166486466Y-79386824D01*
X166522278Y-79328816D01*
X166533304Y-79266498D01*
X166519351Y-79200582D01*
X166500907Y-79162962D01*
X166483005Y-79130399D01*
X166473038Y-79108216D01*
X166472332Y-79102629D01*
X166485955Y-79096685D01*
X166515853Y-79085215D01*
X166540550Y-79076146D01*
X166634533Y-79035181D01*
X166709570Y-78985182D01*
X166770829Y-78921392D01*
X166823483Y-78839058D01*
X166845059Y-78796150D01*
X166872394Y-78742705D01*
X166900724Y-78694516D01*
X166925661Y-78658775D01*
X166935720Y-78647598D01*
X166975536Y-78617769D01*
X167022945Y-78592572D01*
X167067847Y-78576847D01*
X167089417Y-78573970D01*
X167152929Y-78585149D01*
X167152929Y-78585149D01*
G37*
X167152929Y-78585149D02*
X167214119Y-78614869D01*
X167252400Y-78647116D01*
X167294304Y-78692856D01*
X167222227Y-78721768D01*
X167175826Y-78744736D01*
X167131501Y-78776894D01*
X167085879Y-78821562D01*
X167035586Y-78882063D01*
X166977248Y-78961715D01*
X166974518Y-78965605D01*
X166934773Y-79018032D01*
X166890337Y-79070030D01*
X166849171Y-79112440D01*
X166838770Y-79121819D01*
X166804142Y-79153024D01*
X166782670Y-79178741D01*
X166769355Y-79207935D01*
X166759200Y-79249566D01*
X166754759Y-79272465D01*
X166725854Y-79374114D01*
X166681347Y-79455757D01*
X166632874Y-79508088D01*
X166578309Y-79545236D01*
X166506617Y-79581008D01*
X166425975Y-79611839D01*
X166344562Y-79634165D01*
X166342671Y-79634566D01*
X166283345Y-79645975D01*
X166239661Y-79650925D01*
X166202783Y-79649735D01*
X166163874Y-79642723D01*
X166157521Y-79641238D01*
X166101722Y-79621564D01*
X166055942Y-79593417D01*
X166023970Y-79560549D01*
X166009596Y-79526711D01*
X166014308Y-79499489D01*
X166032484Y-79478697D01*
X166061232Y-79469491D01*
X166104798Y-79471429D01*
X166166044Y-79483736D01*
X166248591Y-79496438D01*
X166320156Y-79490104D01*
X166387843Y-79463533D01*
X166426062Y-79439809D01*
X166486466Y-79386824D01*
X166522278Y-79328816D01*
X166533304Y-79266498D01*
X166519351Y-79200582D01*
X166500907Y-79162962D01*
X166483005Y-79130399D01*
X166473038Y-79108216D01*
X166472332Y-79102629D01*
X166485955Y-79096685D01*
X166515853Y-79085215D01*
X166540550Y-79076146D01*
X166634533Y-79035181D01*
X166709570Y-78985182D01*
X166770829Y-78921392D01*
X166823483Y-78839058D01*
X166845059Y-78796150D01*
X166872394Y-78742705D01*
X166900724Y-78694516D01*
X166925661Y-78658775D01*
X166935720Y-78647598D01*
X166975536Y-78617769D01*
X167022945Y-78592572D01*
X167067847Y-78576847D01*
X167089417Y-78573970D01*
X167152929Y-78585149D01*
G36*
X163248771Y-78474747D02*
X163251894Y-78475000D01*
X163302174Y-78483196D01*
X163340199Y-78500860D01*
X163369765Y-78531955D01*
X163394668Y-78580444D01*
X163418200Y-78648636D01*
X163437930Y-78707588D01*
X163458009Y-78751068D01*
X163483682Y-78788529D01*
X163516057Y-78825075D01*
X163564026Y-78869536D01*
X163622056Y-78914010D01*
X163683064Y-78953838D01*
X163739967Y-78984365D01*
X163782500Y-79000209D01*
X163811822Y-79012034D01*
X163824620Y-79032260D01*
X163822277Y-79065819D01*
X163811321Y-79102984D01*
X163799067Y-79146042D01*
X163791831Y-79185182D01*
X163791000Y-79197475D01*
X163800861Y-79233929D01*
X163827689Y-79278972D01*
X163867345Y-79327053D01*
X163915690Y-79372627D01*
X163930268Y-79384218D01*
X163986254Y-79426920D01*
X164115995Y-79418077D01*
X164245736Y-79409233D01*
X164267478Y-79442416D01*
X164281458Y-79467814D01*
X164280160Y-79487106D01*
X164268591Y-79507085D01*
X164228834Y-79546406D01*
X164169356Y-79572275D01*
X164089026Y-79585155D01*
X164076750Y-79585913D01*
X164007243Y-79585527D01*
X163949300Y-79575073D01*
X163922932Y-79566380D01*
X163806246Y-79513396D01*
X163712594Y-79449794D01*
X163641900Y-79375492D01*
X163594087Y-79290406D01*
X163569076Y-79194453D01*
X163567939Y-79185263D01*
X163561548Y-79141069D01*
X163551259Y-79110126D01*
X163532042Y-79082654D01*
X163498866Y-79048877D01*
X163496726Y-79046823D01*
X163462233Y-79014811D01*
X163432920Y-78989450D01*
X163415925Y-78976761D01*
X163402147Y-78962008D01*
X163379352Y-78930210D01*
X163351016Y-78886440D01*
X163327859Y-78848198D01*
X163294650Y-78794515D01*
X163261150Y-78744984D01*
X163232118Y-78706434D01*
X163217955Y-78690554D01*
X163185711Y-78664369D01*
X163144444Y-78637760D01*
X163102323Y-78615289D01*
X163067514Y-78601515D01*
X163054538Y-78599300D01*
X163041345Y-78592486D01*
X163045551Y-78574850D01*
X163064081Y-78550598D01*
X163093857Y-78523937D01*
X163125030Y-78502921D01*
X163165774Y-78482256D01*
X163202338Y-78473896D01*
X163248771Y-78474747D01*
X163248771Y-78474747D01*
G37*
X163248771Y-78474747D02*
X163251894Y-78475000D01*
X163302174Y-78483196D01*
X163340199Y-78500860D01*
X163369765Y-78531955D01*
X163394668Y-78580444D01*
X163418200Y-78648636D01*
X163437930Y-78707588D01*
X163458009Y-78751068D01*
X163483682Y-78788529D01*
X163516057Y-78825075D01*
X163564026Y-78869536D01*
X163622056Y-78914010D01*
X163683064Y-78953838D01*
X163739967Y-78984365D01*
X163782500Y-79000209D01*
X163811822Y-79012034D01*
X163824620Y-79032260D01*
X163822277Y-79065819D01*
X163811321Y-79102984D01*
X163799067Y-79146042D01*
X163791831Y-79185182D01*
X163791000Y-79197475D01*
X163800861Y-79233929D01*
X163827689Y-79278972D01*
X163867345Y-79327053D01*
X163915690Y-79372627D01*
X163930268Y-79384218D01*
X163986254Y-79426920D01*
X164115995Y-79418077D01*
X164245736Y-79409233D01*
X164267478Y-79442416D01*
X164281458Y-79467814D01*
X164280160Y-79487106D01*
X164268591Y-79507085D01*
X164228834Y-79546406D01*
X164169356Y-79572275D01*
X164089026Y-79585155D01*
X164076750Y-79585913D01*
X164007243Y-79585527D01*
X163949300Y-79575073D01*
X163922932Y-79566380D01*
X163806246Y-79513396D01*
X163712594Y-79449794D01*
X163641900Y-79375492D01*
X163594087Y-79290406D01*
X163569076Y-79194453D01*
X163567939Y-79185263D01*
X163561548Y-79141069D01*
X163551259Y-79110126D01*
X163532042Y-79082654D01*
X163498866Y-79048877D01*
X163496726Y-79046823D01*
X163462233Y-79014811D01*
X163432920Y-78989450D01*
X163415925Y-78976761D01*
X163402147Y-78962008D01*
X163379352Y-78930210D01*
X163351016Y-78886440D01*
X163327859Y-78848198D01*
X163294650Y-78794515D01*
X163261150Y-78744984D01*
X163232118Y-78706434D01*
X163217955Y-78690554D01*
X163185711Y-78664369D01*
X163144444Y-78637760D01*
X163102323Y-78615289D01*
X163067514Y-78601515D01*
X163054538Y-78599300D01*
X163041345Y-78592486D01*
X163045551Y-78574850D01*
X163064081Y-78550598D01*
X163093857Y-78523937D01*
X163125030Y-78502921D01*
X163165774Y-78482256D01*
X163202338Y-78473896D01*
X163248771Y-78474747D01*
G36*
X167454782Y-79336635D02*
X167486103Y-79348618D01*
X167521996Y-79367894D01*
X167555180Y-79390148D01*
X167578371Y-79411066D01*
X167584756Y-79424800D01*
X167571376Y-79442660D01*
X167543815Y-79445996D01*
X167508834Y-79434655D01*
X167495525Y-79426815D01*
X167459998Y-79398252D01*
X167436754Y-79369985D01*
X167429086Y-79346966D01*
X167435316Y-79336260D01*
X167454782Y-79336635D01*
X167454782Y-79336635D01*
G37*
X167454782Y-79336635D02*
X167486103Y-79348618D01*
X167521996Y-79367894D01*
X167555180Y-79390148D01*
X167578371Y-79411066D01*
X167584756Y-79424800D01*
X167571376Y-79442660D01*
X167543815Y-79445996D01*
X167508834Y-79434655D01*
X167495525Y-79426815D01*
X167459998Y-79398252D01*
X167436754Y-79369985D01*
X167429086Y-79346966D01*
X167435316Y-79336260D01*
X167454782Y-79336635D01*
G36*
X167684642Y-79007615D02*
X167732379Y-79013197D01*
X167768841Y-79022760D01*
X167769682Y-79023113D01*
X167824327Y-79057262D01*
X167859127Y-79101582D01*
X167875191Y-79151888D01*
X167873631Y-79203994D01*
X167855554Y-79253716D01*
X167822071Y-79296869D01*
X167774292Y-79329268D01*
X167713325Y-79346727D01*
X167683384Y-79348600D01*
X167631171Y-79344138D01*
X167593296Y-79328987D01*
X167582240Y-79321159D01*
X167560294Y-79300369D01*
X167551868Y-79277808D01*
X167553146Y-79242453D01*
X167553594Y-79238377D01*
X167565099Y-79191939D01*
X167586082Y-79144365D01*
X167593116Y-79132739D01*
X167612690Y-79101948D01*
X167624656Y-79080790D01*
X167626400Y-79076148D01*
X167616326Y-79066770D01*
X167591568Y-79051891D01*
X167586450Y-79049193D01*
X167561554Y-79033738D01*
X167558167Y-79022669D01*
X167564225Y-79017311D01*
X167591521Y-79009417D01*
X167634674Y-79006269D01*
X167684642Y-79007615D01*
X167684642Y-79007615D01*
G37*
X167684642Y-79007615D02*
X167732379Y-79013197D01*
X167768841Y-79022760D01*
X167769682Y-79023113D01*
X167824327Y-79057262D01*
X167859127Y-79101582D01*
X167875191Y-79151888D01*
X167873631Y-79203994D01*
X167855554Y-79253716D01*
X167822071Y-79296869D01*
X167774292Y-79329268D01*
X167713325Y-79346727D01*
X167683384Y-79348600D01*
X167631171Y-79344138D01*
X167593296Y-79328987D01*
X167582240Y-79321159D01*
X167560294Y-79300369D01*
X167551868Y-79277808D01*
X167553146Y-79242453D01*
X167553594Y-79238377D01*
X167565099Y-79191939D01*
X167586082Y-79144365D01*
X167593116Y-79132739D01*
X167612690Y-79101948D01*
X167624656Y-79080790D01*
X167626400Y-79076148D01*
X167616326Y-79066770D01*
X167591568Y-79051891D01*
X167586450Y-79049193D01*
X167561554Y-79033738D01*
X167558167Y-79022669D01*
X167564225Y-79017311D01*
X167591521Y-79009417D01*
X167634674Y-79006269D01*
X167684642Y-79007615D01*
G36*
X162876600Y-79232730D02*
X162864151Y-79264253D01*
X162827808Y-79294621D01*
X162784468Y-79316365D01*
X162743720Y-79331592D01*
X162722299Y-79334364D01*
X162717397Y-79324683D01*
X162719776Y-79316408D01*
X162734605Y-79298209D01*
X162763982Y-79273375D01*
X162800219Y-79247542D01*
X162835623Y-79226346D01*
X162854375Y-79217786D01*
X162872499Y-79217687D01*
X162876600Y-79232730D01*
X162876600Y-79232730D01*
G37*
X162876600Y-79232730D02*
X162864151Y-79264253D01*
X162827808Y-79294621D01*
X162784468Y-79316365D01*
X162743720Y-79331592D01*
X162722299Y-79334364D01*
X162717397Y-79324683D01*
X162719776Y-79316408D01*
X162734605Y-79298209D01*
X162763982Y-79273375D01*
X162800219Y-79247542D01*
X162835623Y-79226346D01*
X162854375Y-79217786D01*
X162872499Y-79217687D01*
X162876600Y-79232730D01*
G36*
X167434009Y-79059176D02*
X167460993Y-79061647D01*
X167479109Y-79066495D01*
X167492481Y-79073968D01*
X167497713Y-79077980D01*
X167518250Y-79107956D01*
X167515175Y-79145787D01*
X167488399Y-79191822D01*
X167461578Y-79222839D01*
X167446469Y-79238821D01*
X167433045Y-79251175D01*
X167418077Y-79260214D01*
X167398334Y-79266251D01*
X167370585Y-79269600D01*
X167331600Y-79270576D01*
X167278149Y-79269491D01*
X167207002Y-79266659D01*
X167114927Y-79262393D01*
X167073950Y-79260470D01*
X167000488Y-79256529D01*
X166949305Y-79251934D01*
X166917284Y-79245520D01*
X166901309Y-79236124D01*
X166898264Y-79222582D01*
X166905032Y-79203729D01*
X166907717Y-79198390D01*
X166933807Y-79159504D01*
X166968903Y-79121249D01*
X167004770Y-79091923D01*
X167023150Y-79082096D01*
X167044017Y-79078362D01*
X167085393Y-79074150D01*
X167142400Y-79069847D01*
X167210159Y-79065835D01*
X167258616Y-79063526D01*
X167336945Y-79060364D01*
X167394034Y-79058831D01*
X167434009Y-79059176D01*
X167434009Y-79059176D01*
G37*
X167434009Y-79059176D02*
X167460993Y-79061647D01*
X167479109Y-79066495D01*
X167492481Y-79073968D01*
X167497713Y-79077980D01*
X167518250Y-79107956D01*
X167515175Y-79145787D01*
X167488399Y-79191822D01*
X167461578Y-79222839D01*
X167446469Y-79238821D01*
X167433045Y-79251175D01*
X167418077Y-79260214D01*
X167398334Y-79266251D01*
X167370585Y-79269600D01*
X167331600Y-79270576D01*
X167278149Y-79269491D01*
X167207002Y-79266659D01*
X167114927Y-79262393D01*
X167073950Y-79260470D01*
X167000488Y-79256529D01*
X166949305Y-79251934D01*
X166917284Y-79245520D01*
X166901309Y-79236124D01*
X166898264Y-79222582D01*
X166905032Y-79203729D01*
X166907717Y-79198390D01*
X166933807Y-79159504D01*
X166968903Y-79121249D01*
X167004770Y-79091923D01*
X167023150Y-79082096D01*
X167044017Y-79078362D01*
X167085393Y-79074150D01*
X167142400Y-79069847D01*
X167210159Y-79065835D01*
X167258616Y-79063526D01*
X167336945Y-79060364D01*
X167394034Y-79058831D01*
X167434009Y-79059176D01*
G36*
X162707756Y-78898013D02*
X162744800Y-78904997D01*
X162763286Y-78913468D01*
X162760366Y-78922476D01*
X162752629Y-78925995D01*
X162727150Y-78946343D01*
X162720837Y-78982618D01*
X162733635Y-79035231D01*
X162736817Y-79043589D01*
X162756153Y-79102258D01*
X162760403Y-79145960D01*
X162749368Y-79180310D01*
X162731127Y-79203127D01*
X162703628Y-79223877D01*
X162669629Y-79232706D01*
X162639052Y-79233802D01*
X162593018Y-79229855D01*
X162550688Y-79220558D01*
X162539420Y-79216436D01*
X162485284Y-79180655D01*
X162448404Y-79130482D01*
X162432463Y-79071261D01*
X162432100Y-79060660D01*
X162441103Y-78994578D01*
X162468445Y-78945252D01*
X162514622Y-78912309D01*
X162580131Y-78895377D01*
X162655004Y-78893466D01*
X162707756Y-78898013D01*
X162707756Y-78898013D01*
G37*
X162707756Y-78898013D02*
X162744800Y-78904997D01*
X162763286Y-78913468D01*
X162760366Y-78922476D01*
X162752629Y-78925995D01*
X162727150Y-78946343D01*
X162720837Y-78982618D01*
X162733635Y-79035231D01*
X162736817Y-79043589D01*
X162756153Y-79102258D01*
X162760403Y-79145960D01*
X162749368Y-79180310D01*
X162731127Y-79203127D01*
X162703628Y-79223877D01*
X162669629Y-79232706D01*
X162639052Y-79233802D01*
X162593018Y-79229855D01*
X162550688Y-79220558D01*
X162539420Y-79216436D01*
X162485284Y-79180655D01*
X162448404Y-79130482D01*
X162432463Y-79071261D01*
X162432100Y-79060660D01*
X162441103Y-78994578D01*
X162468445Y-78945252D01*
X162514622Y-78912309D01*
X162580131Y-78895377D01*
X162655004Y-78893466D01*
X162707756Y-78898013D01*
G36*
X165209935Y-74629218D02*
X165245150Y-74630582D01*
X165387877Y-74639946D01*
X165509584Y-74651610D01*
X165614610Y-74666490D01*
X165707298Y-74685505D01*
X165791987Y-74709570D01*
X165873020Y-74739605D01*
X165954738Y-74776526D01*
X165969050Y-74783573D01*
X166068951Y-74839941D01*
X166180090Y-74914634D01*
X166299163Y-75005153D01*
X166422864Y-75108997D01*
X166537152Y-75213427D01*
X166634831Y-75310435D01*
X166712308Y-75397923D01*
X166771219Y-75479348D01*
X166813198Y-75558166D01*
X166839879Y-75637834D01*
X166852896Y-75721809D01*
X166853883Y-75813547D01*
X166849373Y-75873833D01*
X166842468Y-75956931D01*
X166841563Y-76020270D01*
X166847901Y-76069042D01*
X166862728Y-76108438D01*
X166887289Y-76143652D01*
X166922742Y-76179793D01*
X166955329Y-76212577D01*
X166980067Y-76245212D01*
X166997668Y-76281462D01*
X167008847Y-76325089D01*
X167014318Y-76379857D01*
X167014795Y-76449526D01*
X167010991Y-76537860D01*
X167005827Y-76617655D01*
X166999494Y-76705453D01*
X166993677Y-76773678D01*
X166987268Y-76828104D01*
X166979161Y-76874506D01*
X166968247Y-76918657D01*
X166953420Y-76966334D01*
X166933572Y-77023311D01*
X166921722Y-77056250D01*
X166899770Y-77120265D01*
X166886764Y-77167832D01*
X166881299Y-77205698D01*
X166881969Y-77240608D01*
X166882398Y-77244951D01*
X166894964Y-77297391D01*
X166920584Y-77360141D01*
X166955253Y-77424693D01*
X166993154Y-77480237D01*
X167010428Y-77509917D01*
X167016800Y-77534212D01*
X167021793Y-77553911D01*
X167027987Y-77557900D01*
X167041878Y-77550826D01*
X167072088Y-77531450D01*
X167114488Y-77502536D01*
X167164949Y-77466848D01*
X167177742Y-77457625D01*
X167237821Y-77411136D01*
X167312592Y-77348381D01*
X167399533Y-77271769D01*
X167496121Y-77183709D01*
X167599833Y-77086610D01*
X167708146Y-76982881D01*
X167818536Y-76874933D01*
X167928482Y-76765174D01*
X168035460Y-76656013D01*
X168136947Y-76549860D01*
X168206777Y-76474933D01*
X168244492Y-76435648D01*
X168275966Y-76406028D01*
X168297413Y-76389440D01*
X168304772Y-76387756D01*
X168306273Y-76408704D01*
X168299291Y-76447959D01*
X168285353Y-76500484D01*
X168265988Y-76561243D01*
X168242722Y-76625198D01*
X168217083Y-76687312D01*
X168207602Y-76708177D01*
X168175314Y-76772094D01*
X168134645Y-76845276D01*
X168092041Y-76916364D01*
X168070046Y-76950564D01*
X168027182Y-77015375D01*
X167977943Y-77090319D01*
X167929696Y-77164165D01*
X167903452Y-77204564D01*
X167820182Y-77321761D01*
X167722902Y-77439816D01*
X167618854Y-77550527D01*
X167515278Y-77645688D01*
X167511012Y-77649250D01*
X167402677Y-77737900D01*
X167289353Y-77828053D01*
X167175196Y-77916563D01*
X167064360Y-78000282D01*
X166961001Y-78076062D01*
X166869275Y-78140756D01*
X166807250Y-78182293D01*
X166750755Y-78217543D01*
X166677026Y-78261531D01*
X166590797Y-78311613D01*
X166496805Y-78365141D01*
X166399784Y-78419469D01*
X166304468Y-78471952D01*
X166215593Y-78519942D01*
X166137894Y-78560795D01*
X166076105Y-78591863D01*
X166064171Y-78597568D01*
X165991735Y-78631245D01*
X165936575Y-78654688D01*
X165893140Y-78668799D01*
X165855878Y-78674482D01*
X165819237Y-78672637D01*
X165777665Y-78664168D01*
X165731467Y-78651634D01*
X165682517Y-78636833D01*
X165644476Y-78623483D01*
X165622799Y-78613590D01*
X165619800Y-78610550D01*
X165630747Y-78602732D01*
X165661704Y-78585275D01*
X165709840Y-78559653D01*
X165772326Y-78527344D01*
X165846333Y-78489823D01*
X165929030Y-78448566D01*
X165953175Y-78436636D01*
X166064501Y-78381127D01*
X166154463Y-78334840D01*
X166224929Y-78296732D01*
X166277767Y-78265761D01*
X166314846Y-78240885D01*
X166336080Y-78223053D01*
X166363530Y-78194914D01*
X166374402Y-78179636D01*
X166370532Y-78172592D01*
X166357285Y-78169658D01*
X166336686Y-78173944D01*
X166296380Y-78188927D01*
X166239115Y-78213424D01*
X166167636Y-78246253D01*
X166084690Y-78286232D01*
X166072805Y-78292092D01*
X165931387Y-78361619D01*
X165811269Y-78419824D01*
X165711285Y-78467232D01*
X165630267Y-78504372D01*
X165567049Y-78531768D01*
X165520464Y-78549949D01*
X165489346Y-78559440D01*
X165476623Y-78561200D01*
X165446417Y-78556773D01*
X165403645Y-78545346D01*
X165370425Y-78534064D01*
X165331306Y-78518687D01*
X165312659Y-78508215D01*
X165310905Y-78499393D01*
X165321535Y-78489644D01*
X165342654Y-78478194D01*
X165381653Y-78460494D01*
X165432603Y-78439136D01*
X165479311Y-78420647D01*
X165579966Y-78381577D01*
X165662116Y-78348920D01*
X165731096Y-78320331D01*
X165792244Y-78293466D01*
X165850896Y-78265980D01*
X165912389Y-78235529D01*
X165981750Y-78199930D01*
X166048696Y-78164200D01*
X166126113Y-78121215D01*
X166211306Y-78072622D01*
X166301578Y-78020068D01*
X166394234Y-77965200D01*
X166486578Y-77909664D01*
X166575915Y-77855108D01*
X166659549Y-77803179D01*
X166734784Y-77755524D01*
X166798924Y-77713789D01*
X166849275Y-77679622D01*
X166883139Y-77654670D01*
X166897823Y-77640580D01*
X166898044Y-77640093D01*
X166896738Y-77621782D01*
X166888144Y-77587274D01*
X166874237Y-77544375D01*
X166845060Y-77462650D01*
X166792045Y-77462181D01*
X166744772Y-77455286D01*
X166709543Y-77432983D01*
X166681745Y-77391392D01*
X166667341Y-77357253D01*
X166647247Y-77311885D01*
X166623329Y-77269215D01*
X166615053Y-77257122D01*
X166595855Y-77228778D01*
X166585555Y-77208666D01*
X166585000Y-77205844D01*
X166594030Y-77191156D01*
X166618081Y-77164660D01*
X166652593Y-77130728D01*
X166693010Y-77093733D01*
X166734770Y-77058047D01*
X166760105Y-77037908D01*
X166794019Y-77010076D01*
X166819713Y-76982722D01*
X166838308Y-76951845D01*
X166850925Y-76913441D01*
X166858686Y-76863508D01*
X166862711Y-76798042D01*
X166864122Y-76713040D01*
X166864201Y-76666230D01*
X166863232Y-76559203D01*
X166860025Y-76473748D01*
X166853829Y-76406083D01*
X166843889Y-76352424D01*
X166829454Y-76308987D01*
X166809771Y-76271989D01*
X166784086Y-76237646D01*
X166777378Y-76229869D01*
X166724700Y-76170023D01*
X166724493Y-76047986D01*
X166722193Y-75928647D01*
X166715963Y-75820006D01*
X166706184Y-75725438D01*
X166693232Y-75648321D01*
X166677488Y-75592028D01*
X166671842Y-75578799D01*
X166648235Y-75542420D01*
X166604983Y-75490171D01*
X166542185Y-75422164D01*
X166459940Y-75338510D01*
X166445837Y-75324525D01*
X166320206Y-75204049D01*
X166205775Y-75102755D01*
X166099629Y-75018711D01*
X165998849Y-74949983D01*
X165900518Y-74894640D01*
X165801720Y-74850749D01*
X165699537Y-74816377D01*
X165664250Y-74806708D01*
X165549635Y-74784982D01*
X165417356Y-74773506D01*
X165272741Y-74771740D01*
X165121121Y-74779146D01*
X164967824Y-74795184D01*
X164818182Y-74819315D01*
X164677522Y-74851000D01*
X164551176Y-74889699D01*
X164456546Y-74928895D01*
X164379013Y-74971626D01*
X164313223Y-75020730D01*
X164255041Y-75080592D01*
X164200332Y-75155599D01*
X164144961Y-75250135D01*
X164133687Y-75271308D01*
X164076452Y-75371987D01*
X164010364Y-75474451D01*
X163938490Y-75574904D01*
X163863893Y-75669551D01*
X163789639Y-75754595D01*
X163718793Y-75826241D01*
X163654420Y-75880694D01*
X163625900Y-75900115D01*
X163558897Y-75948133D01*
X163497672Y-76004795D01*
X163447770Y-76064189D01*
X163414737Y-76120403D01*
X163411318Y-76128893D01*
X163389838Y-76206463D01*
X163375805Y-76298653D01*
X163369596Y-76396894D01*
X163371584Y-76492618D01*
X163382144Y-76577257D01*
X163390228Y-76610948D01*
X163411098Y-76667943D01*
X163441339Y-76724179D01*
X163483692Y-76783440D01*
X163540897Y-76849512D01*
X163615694Y-76926179D01*
X163625295Y-76935600D01*
X163675424Y-76986010D01*
X163720446Y-77033878D01*
X163756403Y-77074806D01*
X163779337Y-77104397D01*
X163783829Y-77111781D01*
X163796481Y-77139257D01*
X163799394Y-77161280D01*
X163792541Y-77188928D01*
X163783595Y-77213177D01*
X163761108Y-77255400D01*
X163723797Y-77307072D01*
X163677110Y-77360846D01*
X163634131Y-77409668D01*
X163594211Y-77460937D01*
X163560020Y-77510461D01*
X163534231Y-77554050D01*
X163519515Y-77587512D01*
X163518545Y-77606657D01*
X163519607Y-77607912D01*
X163540816Y-77624130D01*
X163580532Y-77651914D01*
X163635753Y-77689322D01*
X163703476Y-77734412D01*
X163780699Y-77785243D01*
X163864418Y-77839872D01*
X163951631Y-77896358D01*
X164039335Y-77952759D01*
X164124528Y-78007132D01*
X164204206Y-78057537D01*
X164275366Y-78102031D01*
X164335007Y-78138673D01*
X164380125Y-78165519D01*
X164394250Y-78173534D01*
X164508744Y-78236656D01*
X164603926Y-78288463D01*
X164682486Y-78330334D01*
X164747111Y-78363651D01*
X164800489Y-78389791D01*
X164845310Y-78410136D01*
X164884262Y-78426065D01*
X164892087Y-78429030D01*
X164935464Y-78445592D01*
X164995478Y-78468987D01*
X165065226Y-78496501D01*
X165137807Y-78525422D01*
X165162600Y-78535373D01*
X165246837Y-78568122D01*
X165342729Y-78603599D01*
X165438877Y-78637680D01*
X165523878Y-78666243D01*
X165529303Y-78667990D01*
X165588795Y-78686150D01*
X165663709Y-78707583D01*
X165750639Y-78731440D01*
X165846177Y-78756871D01*
X165946915Y-78783028D01*
X166049446Y-78809061D01*
X166150363Y-78834122D01*
X166246257Y-78857362D01*
X166333721Y-78877932D01*
X166409347Y-78894983D01*
X166469729Y-78907665D01*
X166511457Y-78915131D01*
X166528010Y-78916800D01*
X166568699Y-78920289D01*
X166603042Y-78929188D01*
X166625078Y-78941138D01*
X166628848Y-78953784D01*
X166627100Y-78955979D01*
X166609449Y-78966043D01*
X166574608Y-78980842D01*
X166529597Y-78997433D01*
X166522215Y-78999957D01*
X166425188Y-79024052D01*
X166324177Y-79030848D01*
X166213951Y-79020343D01*
X166116602Y-78999730D01*
X166028463Y-78975359D01*
X165920840Y-78942282D01*
X165797548Y-78901909D01*
X165662402Y-78855645D01*
X165519218Y-78804899D01*
X165371812Y-78751077D01*
X165223998Y-78695588D01*
X165079593Y-78639838D01*
X164942412Y-78585236D01*
X164816270Y-78533188D01*
X164704983Y-78485102D01*
X164635550Y-78453419D01*
X164556860Y-78414939D01*
X164470351Y-78370121D01*
X164381658Y-78322108D01*
X164296416Y-78274041D01*
X164220262Y-78229064D01*
X164158831Y-78190320D01*
X164136895Y-78175334D01*
X164093016Y-78147831D01*
X164048155Y-78125586D01*
X164008499Y-78111053D01*
X163980233Y-78106682D01*
X163971491Y-78109774D01*
X163971768Y-78123093D01*
X163975820Y-78126915D01*
X163991070Y-78138037D01*
X164021380Y-78160459D01*
X164061466Y-78190267D01*
X164083402Y-78206626D01*
X164227399Y-78306508D01*
X164387244Y-78402662D01*
X164565086Y-78496189D01*
X164763073Y-78588186D01*
X164983353Y-78679753D01*
X165086400Y-78719623D01*
X165161296Y-78747467D01*
X165251729Y-78780187D01*
X165354242Y-78816605D01*
X165465383Y-78855548D01*
X165581696Y-78895839D01*
X165699727Y-78936302D01*
X165816021Y-78975762D01*
X165927124Y-79013043D01*
X166029582Y-79046969D01*
X166119940Y-79076366D01*
X166194743Y-79100056D01*
X166250537Y-79116864D01*
X166267500Y-79121596D01*
X166334428Y-79143935D01*
X166383921Y-79169714D01*
X166413093Y-79197117D01*
X166419900Y-79217463D01*
X166408449Y-79227575D01*
X166378091Y-79232568D01*
X166334811Y-79232361D01*
X166284598Y-79226872D01*
X166248450Y-79219823D01*
X166218760Y-79213486D01*
X166169594Y-79203692D01*
X166106466Y-79191509D01*
X166034892Y-79178008D01*
X165988100Y-79169335D01*
X165730847Y-79113580D01*
X165461097Y-79039060D01*
X165182123Y-78946924D01*
X164897197Y-78838319D01*
X164609590Y-78714393D01*
X164381550Y-78605874D01*
X164240080Y-78534769D01*
X164113482Y-78468877D01*
X163997886Y-78405740D01*
X163889423Y-78342904D01*
X163784222Y-78277914D01*
X163678414Y-78208312D01*
X163568131Y-78131645D01*
X163449502Y-78045457D01*
X163318658Y-77947292D01*
X163196984Y-77854171D01*
X163091219Y-77766565D01*
X162977670Y-77661608D01*
X162860014Y-77543483D01*
X162741925Y-77416372D01*
X162627080Y-77284457D01*
X162519153Y-77151922D01*
X162421820Y-77022948D01*
X162338755Y-76901719D01*
X162290278Y-76822330D01*
X162229135Y-76705028D01*
X162183122Y-76593813D01*
X162153622Y-76492463D01*
X162142635Y-76418075D01*
X162141150Y-76373541D01*
X162142748Y-76340972D01*
X162147072Y-76326605D01*
X162147854Y-76326400D01*
X162159351Y-76336220D01*
X162182241Y-76362622D01*
X162213151Y-76401520D01*
X162246903Y-76446369D01*
X162285932Y-76495953D01*
X162336110Y-76553259D01*
X162399276Y-76620204D01*
X162477266Y-76698708D01*
X162571917Y-76790688D01*
X162626605Y-76842843D01*
X162702431Y-76914213D01*
X162783906Y-76989888D01*
X162868672Y-77067763D01*
X162954367Y-77145734D01*
X163038633Y-77221698D01*
X163119110Y-77293550D01*
X163193437Y-77359186D01*
X163259256Y-77416504D01*
X163314206Y-77463397D01*
X163355928Y-77497764D01*
X163382062Y-77517499D01*
X163386168Y-77520062D01*
X163398681Y-77524160D01*
X163403203Y-77513914D01*
X163401435Y-77484365D01*
X163400707Y-77477737D01*
X163399102Y-77444267D01*
X163405825Y-77417930D01*
X163424558Y-77388958D01*
X163442437Y-77367025D01*
X163507480Y-77287026D01*
X163554620Y-77222532D01*
X163584823Y-77172043D01*
X163599051Y-77134056D01*
X163600500Y-77120820D01*
X163598102Y-77097314D01*
X163589373Y-77073005D01*
X163572012Y-77044851D01*
X163543716Y-77009812D01*
X163502182Y-76964846D01*
X163445109Y-76906913D01*
X163418783Y-76880781D01*
X163351953Y-76811582D01*
X163302471Y-76751658D01*
X163267112Y-76695394D01*
X163242648Y-76637171D01*
X163225853Y-76571374D01*
X163219249Y-76533402D01*
X163212419Y-76421118D01*
X163224499Y-76306109D01*
X163253943Y-76195385D01*
X163299206Y-76095954D01*
X163324435Y-76056604D01*
X163386194Y-75977555D01*
X163452643Y-75908883D01*
X163532461Y-75841815D01*
X163550760Y-75827847D01*
X163594651Y-75793789D01*
X163631632Y-75761888D01*
X163664084Y-75728746D01*
X163694391Y-75690968D01*
X163724934Y-75645158D01*
X163758096Y-75587917D01*
X163796259Y-75515851D01*
X163841806Y-75425562D01*
X163863222Y-75382376D01*
X163915577Y-75278518D01*
X163960601Y-75194323D01*
X164000756Y-75126018D01*
X164038504Y-75069831D01*
X164076305Y-75021988D01*
X164116622Y-74978717D01*
X164143217Y-74953219D01*
X164212372Y-74895003D01*
X164292622Y-74836887D01*
X164378478Y-74782080D01*
X164464455Y-74733792D01*
X164545064Y-74695233D01*
X164614818Y-74669613D01*
X164638033Y-74663792D01*
X164692780Y-74655125D01*
X164766769Y-74647138D01*
X164853846Y-74640171D01*
X164947857Y-74634558D01*
X165042645Y-74630637D01*
X165132056Y-74628745D01*
X165209935Y-74629218D01*
X165209935Y-74629218D01*
G37*
X165209935Y-74629218D02*
X165245150Y-74630582D01*
X165387877Y-74639946D01*
X165509584Y-74651610D01*
X165614610Y-74666490D01*
X165707298Y-74685505D01*
X165791987Y-74709570D01*
X165873020Y-74739605D01*
X165954738Y-74776526D01*
X165969050Y-74783573D01*
X166068951Y-74839941D01*
X166180090Y-74914634D01*
X166299163Y-75005153D01*
X166422864Y-75108997D01*
X166537152Y-75213427D01*
X166634831Y-75310435D01*
X166712308Y-75397923D01*
X166771219Y-75479348D01*
X166813198Y-75558166D01*
X166839879Y-75637834D01*
X166852896Y-75721809D01*
X166853883Y-75813547D01*
X166849373Y-75873833D01*
X166842468Y-75956931D01*
X166841563Y-76020270D01*
X166847901Y-76069042D01*
X166862728Y-76108438D01*
X166887289Y-76143652D01*
X166922742Y-76179793D01*
X166955329Y-76212577D01*
X166980067Y-76245212D01*
X166997668Y-76281462D01*
X167008847Y-76325089D01*
X167014318Y-76379857D01*
X167014795Y-76449526D01*
X167010991Y-76537860D01*
X167005827Y-76617655D01*
X166999494Y-76705453D01*
X166993677Y-76773678D01*
X166987268Y-76828104D01*
X166979161Y-76874506D01*
X166968247Y-76918657D01*
X166953420Y-76966334D01*
X166933572Y-77023311D01*
X166921722Y-77056250D01*
X166899770Y-77120265D01*
X166886764Y-77167832D01*
X166881299Y-77205698D01*
X166881969Y-77240608D01*
X166882398Y-77244951D01*
X166894964Y-77297391D01*
X166920584Y-77360141D01*
X166955253Y-77424693D01*
X166993154Y-77480237D01*
X167010428Y-77509917D01*
X167016800Y-77534212D01*
X167021793Y-77553911D01*
X167027987Y-77557900D01*
X167041878Y-77550826D01*
X167072088Y-77531450D01*
X167114488Y-77502536D01*
X167164949Y-77466848D01*
X167177742Y-77457625D01*
X167237821Y-77411136D01*
X167312592Y-77348381D01*
X167399533Y-77271769D01*
X167496121Y-77183709D01*
X167599833Y-77086610D01*
X167708146Y-76982881D01*
X167818536Y-76874933D01*
X167928482Y-76765174D01*
X168035460Y-76656013D01*
X168136947Y-76549860D01*
X168206777Y-76474933D01*
X168244492Y-76435648D01*
X168275966Y-76406028D01*
X168297413Y-76389440D01*
X168304772Y-76387756D01*
X168306273Y-76408704D01*
X168299291Y-76447959D01*
X168285353Y-76500484D01*
X168265988Y-76561243D01*
X168242722Y-76625198D01*
X168217083Y-76687312D01*
X168207602Y-76708177D01*
X168175314Y-76772094D01*
X168134645Y-76845276D01*
X168092041Y-76916364D01*
X168070046Y-76950564D01*
X168027182Y-77015375D01*
X167977943Y-77090319D01*
X167929696Y-77164165D01*
X167903452Y-77204564D01*
X167820182Y-77321761D01*
X167722902Y-77439816D01*
X167618854Y-77550527D01*
X167515278Y-77645688D01*
X167511012Y-77649250D01*
X167402677Y-77737900D01*
X167289353Y-77828053D01*
X167175196Y-77916563D01*
X167064360Y-78000282D01*
X166961001Y-78076062D01*
X166869275Y-78140756D01*
X166807250Y-78182293D01*
X166750755Y-78217543D01*
X166677026Y-78261531D01*
X166590797Y-78311613D01*
X166496805Y-78365141D01*
X166399784Y-78419469D01*
X166304468Y-78471952D01*
X166215593Y-78519942D01*
X166137894Y-78560795D01*
X166076105Y-78591863D01*
X166064171Y-78597568D01*
X165991735Y-78631245D01*
X165936575Y-78654688D01*
X165893140Y-78668799D01*
X165855878Y-78674482D01*
X165819237Y-78672637D01*
X165777665Y-78664168D01*
X165731467Y-78651634D01*
X165682517Y-78636833D01*
X165644476Y-78623483D01*
X165622799Y-78613590D01*
X165619800Y-78610550D01*
X165630747Y-78602732D01*
X165661704Y-78585275D01*
X165709840Y-78559653D01*
X165772326Y-78527344D01*
X165846333Y-78489823D01*
X165929030Y-78448566D01*
X165953175Y-78436636D01*
X166064501Y-78381127D01*
X166154463Y-78334840D01*
X166224929Y-78296732D01*
X166277767Y-78265761D01*
X166314846Y-78240885D01*
X166336080Y-78223053D01*
X166363530Y-78194914D01*
X166374402Y-78179636D01*
X166370532Y-78172592D01*
X166357285Y-78169658D01*
X166336686Y-78173944D01*
X166296380Y-78188927D01*
X166239115Y-78213424D01*
X166167636Y-78246253D01*
X166084690Y-78286232D01*
X166072805Y-78292092D01*
X165931387Y-78361619D01*
X165811269Y-78419824D01*
X165711285Y-78467232D01*
X165630267Y-78504372D01*
X165567049Y-78531768D01*
X165520464Y-78549949D01*
X165489346Y-78559440D01*
X165476623Y-78561200D01*
X165446417Y-78556773D01*
X165403645Y-78545346D01*
X165370425Y-78534064D01*
X165331306Y-78518687D01*
X165312659Y-78508215D01*
X165310905Y-78499393D01*
X165321535Y-78489644D01*
X165342654Y-78478194D01*
X165381653Y-78460494D01*
X165432603Y-78439136D01*
X165479311Y-78420647D01*
X165579966Y-78381577D01*
X165662116Y-78348920D01*
X165731096Y-78320331D01*
X165792244Y-78293466D01*
X165850896Y-78265980D01*
X165912389Y-78235529D01*
X165981750Y-78199930D01*
X166048696Y-78164200D01*
X166126113Y-78121215D01*
X166211306Y-78072622D01*
X166301578Y-78020068D01*
X166394234Y-77965200D01*
X166486578Y-77909664D01*
X166575915Y-77855108D01*
X166659549Y-77803179D01*
X166734784Y-77755524D01*
X166798924Y-77713789D01*
X166849275Y-77679622D01*
X166883139Y-77654670D01*
X166897823Y-77640580D01*
X166898044Y-77640093D01*
X166896738Y-77621782D01*
X166888144Y-77587274D01*
X166874237Y-77544375D01*
X166845060Y-77462650D01*
X166792045Y-77462181D01*
X166744772Y-77455286D01*
X166709543Y-77432983D01*
X166681745Y-77391392D01*
X166667341Y-77357253D01*
X166647247Y-77311885D01*
X166623329Y-77269215D01*
X166615053Y-77257122D01*
X166595855Y-77228778D01*
X166585555Y-77208666D01*
X166585000Y-77205844D01*
X166594030Y-77191156D01*
X166618081Y-77164660D01*
X166652593Y-77130728D01*
X166693010Y-77093733D01*
X166734770Y-77058047D01*
X166760105Y-77037908D01*
X166794019Y-77010076D01*
X166819713Y-76982722D01*
X166838308Y-76951845D01*
X166850925Y-76913441D01*
X166858686Y-76863508D01*
X166862711Y-76798042D01*
X166864122Y-76713040D01*
X166864201Y-76666230D01*
X166863232Y-76559203D01*
X166860025Y-76473748D01*
X166853829Y-76406083D01*
X166843889Y-76352424D01*
X166829454Y-76308987D01*
X166809771Y-76271989D01*
X166784086Y-76237646D01*
X166777378Y-76229869D01*
X166724700Y-76170023D01*
X166724493Y-76047986D01*
X166722193Y-75928647D01*
X166715963Y-75820006D01*
X166706184Y-75725438D01*
X166693232Y-75648321D01*
X166677488Y-75592028D01*
X166671842Y-75578799D01*
X166648235Y-75542420D01*
X166604983Y-75490171D01*
X166542185Y-75422164D01*
X166459940Y-75338510D01*
X166445837Y-75324525D01*
X166320206Y-75204049D01*
X166205775Y-75102755D01*
X166099629Y-75018711D01*
X165998849Y-74949983D01*
X165900518Y-74894640D01*
X165801720Y-74850749D01*
X165699537Y-74816377D01*
X165664250Y-74806708D01*
X165549635Y-74784982D01*
X165417356Y-74773506D01*
X165272741Y-74771740D01*
X165121121Y-74779146D01*
X164967824Y-74795184D01*
X164818182Y-74819315D01*
X164677522Y-74851000D01*
X164551176Y-74889699D01*
X164456546Y-74928895D01*
X164379013Y-74971626D01*
X164313223Y-75020730D01*
X164255041Y-75080592D01*
X164200332Y-75155599D01*
X164144961Y-75250135D01*
X164133687Y-75271308D01*
X164076452Y-75371987D01*
X164010364Y-75474451D01*
X163938490Y-75574904D01*
X163863893Y-75669551D01*
X163789639Y-75754595D01*
X163718793Y-75826241D01*
X163654420Y-75880694D01*
X163625900Y-75900115D01*
X163558897Y-75948133D01*
X163497672Y-76004795D01*
X163447770Y-76064189D01*
X163414737Y-76120403D01*
X163411318Y-76128893D01*
X163389838Y-76206463D01*
X163375805Y-76298653D01*
X163369596Y-76396894D01*
X163371584Y-76492618D01*
X163382144Y-76577257D01*
X163390228Y-76610948D01*
X163411098Y-76667943D01*
X163441339Y-76724179D01*
X163483692Y-76783440D01*
X163540897Y-76849512D01*
X163615694Y-76926179D01*
X163625295Y-76935600D01*
X163675424Y-76986010D01*
X163720446Y-77033878D01*
X163756403Y-77074806D01*
X163779337Y-77104397D01*
X163783829Y-77111781D01*
X163796481Y-77139257D01*
X163799394Y-77161280D01*
X163792541Y-77188928D01*
X163783595Y-77213177D01*
X163761108Y-77255400D01*
X163723797Y-77307072D01*
X163677110Y-77360846D01*
X163634131Y-77409668D01*
X163594211Y-77460937D01*
X163560020Y-77510461D01*
X163534231Y-77554050D01*
X163519515Y-77587512D01*
X163518545Y-77606657D01*
X163519607Y-77607912D01*
X163540816Y-77624130D01*
X163580532Y-77651914D01*
X163635753Y-77689322D01*
X163703476Y-77734412D01*
X163780699Y-77785243D01*
X163864418Y-77839872D01*
X163951631Y-77896358D01*
X164039335Y-77952759D01*
X164124528Y-78007132D01*
X164204206Y-78057537D01*
X164275366Y-78102031D01*
X164335007Y-78138673D01*
X164380125Y-78165519D01*
X164394250Y-78173534D01*
X164508744Y-78236656D01*
X164603926Y-78288463D01*
X164682486Y-78330334D01*
X164747111Y-78363651D01*
X164800489Y-78389791D01*
X164845310Y-78410136D01*
X164884262Y-78426065D01*
X164892087Y-78429030D01*
X164935464Y-78445592D01*
X164995478Y-78468987D01*
X165065226Y-78496501D01*
X165137807Y-78525422D01*
X165162600Y-78535373D01*
X165246837Y-78568122D01*
X165342729Y-78603599D01*
X165438877Y-78637680D01*
X165523878Y-78666243D01*
X165529303Y-78667990D01*
X165588795Y-78686150D01*
X165663709Y-78707583D01*
X165750639Y-78731440D01*
X165846177Y-78756871D01*
X165946915Y-78783028D01*
X166049446Y-78809061D01*
X166150363Y-78834122D01*
X166246257Y-78857362D01*
X166333721Y-78877932D01*
X166409347Y-78894983D01*
X166469729Y-78907665D01*
X166511457Y-78915131D01*
X166528010Y-78916800D01*
X166568699Y-78920289D01*
X166603042Y-78929188D01*
X166625078Y-78941138D01*
X166628848Y-78953784D01*
X166627100Y-78955979D01*
X166609449Y-78966043D01*
X166574608Y-78980842D01*
X166529597Y-78997433D01*
X166522215Y-78999957D01*
X166425188Y-79024052D01*
X166324177Y-79030848D01*
X166213951Y-79020343D01*
X166116602Y-78999730D01*
X166028463Y-78975359D01*
X165920840Y-78942282D01*
X165797548Y-78901909D01*
X165662402Y-78855645D01*
X165519218Y-78804899D01*
X165371812Y-78751077D01*
X165223998Y-78695588D01*
X165079593Y-78639838D01*
X164942412Y-78585236D01*
X164816270Y-78533188D01*
X164704983Y-78485102D01*
X164635550Y-78453419D01*
X164556860Y-78414939D01*
X164470351Y-78370121D01*
X164381658Y-78322108D01*
X164296416Y-78274041D01*
X164220262Y-78229064D01*
X164158831Y-78190320D01*
X164136895Y-78175334D01*
X164093016Y-78147831D01*
X164048155Y-78125586D01*
X164008499Y-78111053D01*
X163980233Y-78106682D01*
X163971491Y-78109774D01*
X163971768Y-78123093D01*
X163975820Y-78126915D01*
X163991070Y-78138037D01*
X164021380Y-78160459D01*
X164061466Y-78190267D01*
X164083402Y-78206626D01*
X164227399Y-78306508D01*
X164387244Y-78402662D01*
X164565086Y-78496189D01*
X164763073Y-78588186D01*
X164983353Y-78679753D01*
X165086400Y-78719623D01*
X165161296Y-78747467D01*
X165251729Y-78780187D01*
X165354242Y-78816605D01*
X165465383Y-78855548D01*
X165581696Y-78895839D01*
X165699727Y-78936302D01*
X165816021Y-78975762D01*
X165927124Y-79013043D01*
X166029582Y-79046969D01*
X166119940Y-79076366D01*
X166194743Y-79100056D01*
X166250537Y-79116864D01*
X166267500Y-79121596D01*
X166334428Y-79143935D01*
X166383921Y-79169714D01*
X166413093Y-79197117D01*
X166419900Y-79217463D01*
X166408449Y-79227575D01*
X166378091Y-79232568D01*
X166334811Y-79232361D01*
X166284598Y-79226872D01*
X166248450Y-79219823D01*
X166218760Y-79213486D01*
X166169594Y-79203692D01*
X166106466Y-79191509D01*
X166034892Y-79178008D01*
X165988100Y-79169335D01*
X165730847Y-79113580D01*
X165461097Y-79039060D01*
X165182123Y-78946924D01*
X164897197Y-78838319D01*
X164609590Y-78714393D01*
X164381550Y-78605874D01*
X164240080Y-78534769D01*
X164113482Y-78468877D01*
X163997886Y-78405740D01*
X163889423Y-78342904D01*
X163784222Y-78277914D01*
X163678414Y-78208312D01*
X163568131Y-78131645D01*
X163449502Y-78045457D01*
X163318658Y-77947292D01*
X163196984Y-77854171D01*
X163091219Y-77766565D01*
X162977670Y-77661608D01*
X162860014Y-77543483D01*
X162741925Y-77416372D01*
X162627080Y-77284457D01*
X162519153Y-77151922D01*
X162421820Y-77022948D01*
X162338755Y-76901719D01*
X162290278Y-76822330D01*
X162229135Y-76705028D01*
X162183122Y-76593813D01*
X162153622Y-76492463D01*
X162142635Y-76418075D01*
X162141150Y-76373541D01*
X162142748Y-76340972D01*
X162147072Y-76326605D01*
X162147854Y-76326400D01*
X162159351Y-76336220D01*
X162182241Y-76362622D01*
X162213151Y-76401520D01*
X162246903Y-76446369D01*
X162285932Y-76495953D01*
X162336110Y-76553259D01*
X162399276Y-76620204D01*
X162477266Y-76698708D01*
X162571917Y-76790688D01*
X162626605Y-76842843D01*
X162702431Y-76914213D01*
X162783906Y-76989888D01*
X162868672Y-77067763D01*
X162954367Y-77145734D01*
X163038633Y-77221698D01*
X163119110Y-77293550D01*
X163193437Y-77359186D01*
X163259256Y-77416504D01*
X163314206Y-77463397D01*
X163355928Y-77497764D01*
X163382062Y-77517499D01*
X163386168Y-77520062D01*
X163398681Y-77524160D01*
X163403203Y-77513914D01*
X163401435Y-77484365D01*
X163400707Y-77477737D01*
X163399102Y-77444267D01*
X163405825Y-77417930D01*
X163424558Y-77388958D01*
X163442437Y-77367025D01*
X163507480Y-77287026D01*
X163554620Y-77222532D01*
X163584823Y-77172043D01*
X163599051Y-77134056D01*
X163600500Y-77120820D01*
X163598102Y-77097314D01*
X163589373Y-77073005D01*
X163572012Y-77044851D01*
X163543716Y-77009812D01*
X163502182Y-76964846D01*
X163445109Y-76906913D01*
X163418783Y-76880781D01*
X163351953Y-76811582D01*
X163302471Y-76751658D01*
X163267112Y-76695394D01*
X163242648Y-76637171D01*
X163225853Y-76571374D01*
X163219249Y-76533402D01*
X163212419Y-76421118D01*
X163224499Y-76306109D01*
X163253943Y-76195385D01*
X163299206Y-76095954D01*
X163324435Y-76056604D01*
X163386194Y-75977555D01*
X163452643Y-75908883D01*
X163532461Y-75841815D01*
X163550760Y-75827847D01*
X163594651Y-75793789D01*
X163631632Y-75761888D01*
X163664084Y-75728746D01*
X163694391Y-75690968D01*
X163724934Y-75645158D01*
X163758096Y-75587917D01*
X163796259Y-75515851D01*
X163841806Y-75425562D01*
X163863222Y-75382376D01*
X163915577Y-75278518D01*
X163960601Y-75194323D01*
X164000756Y-75126018D01*
X164038504Y-75069831D01*
X164076305Y-75021988D01*
X164116622Y-74978717D01*
X164143217Y-74953219D01*
X164212372Y-74895003D01*
X164292622Y-74836887D01*
X164378478Y-74782080D01*
X164464455Y-74733792D01*
X164545064Y-74695233D01*
X164614818Y-74669613D01*
X164638033Y-74663792D01*
X164692780Y-74655125D01*
X164766769Y-74647138D01*
X164853846Y-74640171D01*
X164947857Y-74634558D01*
X165042645Y-74630637D01*
X165132056Y-74628745D01*
X165209935Y-74629218D01*
G36*
X164813232Y-78877097D02*
X164842040Y-78887608D01*
X164848525Y-78890328D01*
X164894996Y-78909187D01*
X164947054Y-78929264D01*
X164963652Y-78935415D01*
X164996098Y-78949491D01*
X165013720Y-78961667D01*
X165014452Y-78967007D01*
X164987689Y-78981471D01*
X164939160Y-78998838D01*
X164872245Y-79018406D01*
X164790321Y-79039474D01*
X164696766Y-79061342D01*
X164594959Y-79083308D01*
X164488278Y-79104671D01*
X164380101Y-79124730D01*
X164273806Y-79142784D01*
X164172771Y-79158131D01*
X164080375Y-79170070D01*
X163999995Y-79177901D01*
X163997375Y-79178097D01*
X163941445Y-79181662D01*
X163906291Y-79182077D01*
X163887435Y-79178951D01*
X163880404Y-79171891D01*
X163879900Y-79167819D01*
X163891642Y-79138254D01*
X163923778Y-79107766D01*
X163971669Y-79079740D01*
X164030677Y-79057562D01*
X164031087Y-79057445D01*
X164069502Y-79047132D01*
X164127342Y-79032491D01*
X164199266Y-79014830D01*
X164279932Y-78995460D01*
X164363999Y-78975690D01*
X164375200Y-78973089D01*
X164458953Y-78953474D01*
X164539681Y-78934206D01*
X164612139Y-78916566D01*
X164671078Y-78901832D01*
X164711254Y-78891284D01*
X164715175Y-78890188D01*
X164759380Y-78878398D01*
X164788872Y-78874031D01*
X164813232Y-78877097D01*
X164813232Y-78877097D01*
G37*
X164813232Y-78877097D02*
X164842040Y-78887608D01*
X164848525Y-78890328D01*
X164894996Y-78909187D01*
X164947054Y-78929264D01*
X164963652Y-78935415D01*
X164996098Y-78949491D01*
X165013720Y-78961667D01*
X165014452Y-78967007D01*
X164987689Y-78981471D01*
X164939160Y-78998838D01*
X164872245Y-79018406D01*
X164790321Y-79039474D01*
X164696766Y-79061342D01*
X164594959Y-79083308D01*
X164488278Y-79104671D01*
X164380101Y-79124730D01*
X164273806Y-79142784D01*
X164172771Y-79158131D01*
X164080375Y-79170070D01*
X163999995Y-79177901D01*
X163997375Y-79178097D01*
X163941445Y-79181662D01*
X163906291Y-79182077D01*
X163887435Y-79178951D01*
X163880404Y-79171891D01*
X163879900Y-79167819D01*
X163891642Y-79138254D01*
X163923778Y-79107766D01*
X163971669Y-79079740D01*
X164030677Y-79057562D01*
X164031087Y-79057445D01*
X164069502Y-79047132D01*
X164127342Y-79032491D01*
X164199266Y-79014830D01*
X164279932Y-78995460D01*
X164363999Y-78975690D01*
X164375200Y-78973089D01*
X164458953Y-78953474D01*
X164539681Y-78934206D01*
X164612139Y-78916566D01*
X164671078Y-78901832D01*
X164711254Y-78891284D01*
X164715175Y-78890188D01*
X164759380Y-78878398D01*
X164788872Y-78874031D01*
X164813232Y-78877097D01*
G36*
X163184031Y-78952778D02*
X163214740Y-78956652D01*
X163240170Y-78963313D01*
X163265351Y-78973300D01*
X163284149Y-78981916D01*
X163344522Y-79018315D01*
X163386853Y-79061203D01*
X163408092Y-79107110D01*
X163410000Y-79125135D01*
X163408268Y-79144209D01*
X163398863Y-79154014D01*
X163375470Y-79157618D01*
X163342158Y-79158100D01*
X163303169Y-79158648D01*
X163246257Y-79160145D01*
X163178873Y-79162365D01*
X163108466Y-79165084D01*
X163104033Y-79165270D01*
X163026810Y-79167739D01*
X162971013Y-79167512D01*
X162932791Y-79164407D01*
X162908295Y-79158240D01*
X162903008Y-79155745D01*
X162884150Y-79138271D01*
X162861007Y-79106963D01*
X162837092Y-79068164D01*
X162815921Y-79028220D01*
X162801008Y-78993473D01*
X162795868Y-78970270D01*
X162797560Y-78965399D01*
X162812787Y-78962070D01*
X162848902Y-78958795D01*
X162901395Y-78955849D01*
X162965756Y-78953506D01*
X163009950Y-78952471D01*
X163086664Y-78951227D01*
X163143015Y-78951149D01*
X163184031Y-78952778D01*
X163184031Y-78952778D01*
G37*
X163184031Y-78952778D02*
X163214740Y-78956652D01*
X163240170Y-78963313D01*
X163265351Y-78973300D01*
X163284149Y-78981916D01*
X163344522Y-79018315D01*
X163386853Y-79061203D01*
X163408092Y-79107110D01*
X163410000Y-79125135D01*
X163408268Y-79144209D01*
X163398863Y-79154014D01*
X163375470Y-79157618D01*
X163342158Y-79158100D01*
X163303169Y-79158648D01*
X163246257Y-79160145D01*
X163178873Y-79162365D01*
X163108466Y-79165084D01*
X163104033Y-79165270D01*
X163026810Y-79167739D01*
X162971013Y-79167512D01*
X162932791Y-79164407D01*
X162908295Y-79158240D01*
X162903008Y-79155745D01*
X162884150Y-79138271D01*
X162861007Y-79106963D01*
X162837092Y-79068164D01*
X162815921Y-79028220D01*
X162801008Y-78993473D01*
X162795868Y-78970270D01*
X162797560Y-78965399D01*
X162812787Y-78962070D01*
X162848902Y-78958795D01*
X162901395Y-78955849D01*
X162965756Y-78953506D01*
X163009950Y-78952471D01*
X163086664Y-78951227D01*
X163143015Y-78951149D01*
X163184031Y-78952778D01*
G36*
X164552388Y-78764104D02*
X164594051Y-78785943D01*
X164624331Y-78805061D01*
X164637995Y-78818052D01*
X164638195Y-78819963D01*
X164624413Y-78828338D01*
X164589735Y-78840804D01*
X164538160Y-78856398D01*
X164473683Y-78874156D01*
X164400302Y-78893114D01*
X164322013Y-78912309D01*
X164242814Y-78930777D01*
X164166701Y-78947553D01*
X164097670Y-78961675D01*
X164039720Y-78972179D01*
X163996846Y-78978100D01*
X163978540Y-78979024D01*
X163935675Y-78974944D01*
X163892366Y-78967133D01*
X163842606Y-78952293D01*
X163793983Y-78932701D01*
X163751223Y-78911009D01*
X163719051Y-78889869D01*
X163702192Y-78871931D01*
X163703465Y-78861153D01*
X163716969Y-78857902D01*
X163751624Y-78851356D01*
X163803495Y-78842210D01*
X163868648Y-78831154D01*
X163943147Y-78818881D01*
X163949750Y-78817810D01*
X164036955Y-78803279D01*
X164126604Y-78787650D01*
X164211382Y-78772246D01*
X164283973Y-78758389D01*
X164326756Y-78749650D01*
X164462463Y-78720601D01*
X164552388Y-78764104D01*
X164552388Y-78764104D01*
G37*
X164552388Y-78764104D02*
X164594051Y-78785943D01*
X164624331Y-78805061D01*
X164637995Y-78818052D01*
X164638195Y-78819963D01*
X164624413Y-78828338D01*
X164589735Y-78840804D01*
X164538160Y-78856398D01*
X164473683Y-78874156D01*
X164400302Y-78893114D01*
X164322013Y-78912309D01*
X164242814Y-78930777D01*
X164166701Y-78947553D01*
X164097670Y-78961675D01*
X164039720Y-78972179D01*
X163996846Y-78978100D01*
X163978540Y-78979024D01*
X163935675Y-78974944D01*
X163892366Y-78967133D01*
X163842606Y-78952293D01*
X163793983Y-78932701D01*
X163751223Y-78911009D01*
X163719051Y-78889869D01*
X163702192Y-78871931D01*
X163703465Y-78861153D01*
X163716969Y-78857902D01*
X163751624Y-78851356D01*
X163803495Y-78842210D01*
X163868648Y-78831154D01*
X163943147Y-78818881D01*
X163949750Y-78817810D01*
X164036955Y-78803279D01*
X164126604Y-78787650D01*
X164211382Y-78772246D01*
X164283973Y-78758389D01*
X164326756Y-78749650D01*
X164462463Y-78720601D01*
X164552388Y-78764104D01*
G36*
X165781263Y-75323545D02*
X165813802Y-75345321D01*
X165837863Y-75387858D01*
X165854962Y-75451727D01*
X165866614Y-75537501D01*
X165874335Y-75645750D01*
X165879639Y-75777046D01*
X165880572Y-75807084D01*
X165888455Y-76069218D01*
X165841134Y-76130934D01*
X165803845Y-76185125D01*
X165771551Y-76242282D01*
X165747564Y-76295637D01*
X165735195Y-76338421D01*
X165734224Y-76349480D01*
X165745632Y-76401191D01*
X165778126Y-76456926D01*
X165828505Y-76513276D01*
X165893567Y-76566830D01*
X165970111Y-76614179D01*
X165994091Y-76626306D01*
X166038699Y-76646718D01*
X166075790Y-76661792D01*
X166098385Y-76668730D01*
X166100312Y-76668900D01*
X166138133Y-76679091D01*
X166180104Y-76705623D01*
X166218409Y-76742428D01*
X166243745Y-76780249D01*
X166256556Y-76810184D01*
X166263952Y-76839622D01*
X166266785Y-76875946D01*
X166265909Y-76926540D01*
X166264378Y-76958886D01*
X166253807Y-77061803D01*
X166232986Y-77145135D01*
X166200367Y-77213161D01*
X166154401Y-77270158D01*
X166150146Y-77274326D01*
X166111994Y-77305290D01*
X166054009Y-77344614D01*
X165979571Y-77390349D01*
X165892059Y-77440547D01*
X165794856Y-77493259D01*
X165691342Y-77546537D01*
X165601922Y-77590331D01*
X165530157Y-77625288D01*
X165476201Y-77654224D01*
X165434680Y-77681492D01*
X165400219Y-77711449D01*
X165367443Y-77748448D01*
X165330978Y-77796844D01*
X165308974Y-77827677D01*
X165277799Y-77869230D01*
X165250118Y-77901709D01*
X165230319Y-77920137D01*
X165225409Y-77922489D01*
X165206827Y-77916122D01*
X165176513Y-77896825D01*
X165144605Y-77871729D01*
X165107508Y-77839195D01*
X165059647Y-77796157D01*
X165008714Y-77749567D01*
X164982900Y-77725619D01*
X164922773Y-77671929D01*
X164872733Y-77634617D01*
X164826295Y-77610814D01*
X164776974Y-77597648D01*
X164718284Y-77592249D01*
X164680000Y-77591551D01*
X164572050Y-77591223D01*
X164362500Y-77380176D01*
X164291227Y-77308943D01*
X164233468Y-77252843D01*
X164185288Y-77208555D01*
X164142750Y-77172754D01*
X164101919Y-77142119D01*
X164058860Y-77113325D01*
X164013004Y-77085069D01*
X163888890Y-77001273D01*
X163785452Y-76909969D01*
X163698097Y-76806243D01*
X163688807Y-76791417D01*
X164242362Y-76791417D01*
X164245551Y-76842115D01*
X164261468Y-76891411D01*
X164267331Y-76903850D01*
X164289828Y-76938542D01*
X164322306Y-76966695D01*
X164367840Y-76992750D01*
X164424121Y-77025510D01*
X164461709Y-77060316D01*
X164485716Y-77104312D01*
X164501255Y-77164642D01*
X164504509Y-77183702D01*
X164516883Y-77243641D01*
X164534122Y-77285118D01*
X164560628Y-77315069D01*
X164600800Y-77340428D01*
X164605510Y-77342862D01*
X164663107Y-77368590D01*
X164724309Y-77387746D01*
X164793548Y-77400981D01*
X164875259Y-77408946D01*
X164973875Y-77412292D01*
X165076129Y-77411963D01*
X165313509Y-77408397D01*
X165419029Y-77356746D01*
X165470708Y-77330165D01*
X165517618Y-77303776D01*
X165552080Y-77281978D01*
X165560322Y-77275807D01*
X165596095Y-77246518D01*
X165574932Y-77151384D01*
X165559710Y-77090265D01*
X165542914Y-77044826D01*
X165519715Y-77005556D01*
X165485285Y-76962942D01*
X165471293Y-76947253D01*
X165429492Y-76909978D01*
X165394190Y-76896970D01*
X165366188Y-76907741D01*
X165346290Y-76941806D01*
X165335297Y-76998677D01*
X165333487Y-77030850D01*
X165332169Y-77074184D01*
X165330688Y-77107943D01*
X165329655Y-77121956D01*
X165318061Y-77129861D01*
X165284769Y-77134096D01*
X165228161Y-77134843D01*
X165217068Y-77134656D01*
X165163803Y-77133276D01*
X165129665Y-77130371D01*
X165108387Y-77123914D01*
X165093703Y-77111876D01*
X165079344Y-77092228D01*
X165077490Y-77089477D01*
X165057545Y-77050673D01*
X165054448Y-77011992D01*
X165056123Y-76999094D01*
X165057810Y-76946312D01*
X165044507Y-76912715D01*
X165018499Y-76898870D01*
X164982072Y-76905341D01*
X164937513Y-76932696D01*
X164905421Y-76961790D01*
X164863875Y-77000112D01*
X164834773Y-77017760D01*
X164821393Y-77018307D01*
X164789715Y-77003761D01*
X164742927Y-76979060D01*
X164687259Y-76947826D01*
X164628940Y-76913681D01*
X164574201Y-76880247D01*
X164529270Y-76851146D01*
X164508181Y-76836198D01*
X164490556Y-76821300D01*
X164692700Y-76821300D01*
X164703414Y-76862343D01*
X164730961Y-76892541D01*
X164768446Y-76909145D01*
X164808974Y-76909406D01*
X164845652Y-76890578D01*
X164851598Y-76884636D01*
X164872891Y-76845357D01*
X164873564Y-76803885D01*
X164856470Y-76766844D01*
X164824465Y-76740860D01*
X164785981Y-76732400D01*
X164740001Y-76743109D01*
X164707302Y-76772015D01*
X164692955Y-76814286D01*
X164692700Y-76821300D01*
X164490556Y-76821300D01*
X164465958Y-76800509D01*
X164445242Y-76771107D01*
X164446681Y-76744862D01*
X164470921Y-76718643D01*
X164518607Y-76689317D01*
X164540889Y-76677774D01*
X164632974Y-76639797D01*
X164718398Y-76621267D01*
X164793919Y-76622731D01*
X164823631Y-76630001D01*
X164851824Y-76644736D01*
X164892260Y-76672761D01*
X164938945Y-76709681D01*
X164974683Y-76740773D01*
X165047737Y-76803566D01*
X165112413Y-76852044D01*
X165166531Y-76884830D01*
X165207911Y-76900542D01*
X165227691Y-76900763D01*
X165246586Y-76889716D01*
X165278799Y-76864736D01*
X165319557Y-76829721D01*
X165357282Y-76795043D01*
X165415861Y-76740026D01*
X165460685Y-76699849D01*
X165496197Y-76671629D01*
X165526837Y-76652484D01*
X165557046Y-76639530D01*
X165591266Y-76629886D01*
X165622162Y-76623104D01*
X165685990Y-76608021D01*
X165725990Y-76592447D01*
X165743593Y-76573224D01*
X165740230Y-76547189D01*
X165717333Y-76511183D01*
X165688655Y-76476262D01*
X165657809Y-76439347D01*
X165632969Y-76407819D01*
X165619579Y-76388605D01*
X165618937Y-76368905D01*
X165629941Y-76331649D01*
X165653138Y-76275230D01*
X165673917Y-76229855D01*
X165701924Y-76169183D01*
X165720566Y-76124251D01*
X165731765Y-76088048D01*
X165737444Y-76053561D01*
X165739525Y-76013775D01*
X165739818Y-75989450D01*
X165738976Y-75934288D01*
X165734180Y-75894586D01*
X165723259Y-75860465D01*
X165704041Y-75822047D01*
X165702350Y-75818979D01*
X165660063Y-75759579D01*
X165607020Y-75710579D01*
X165548506Y-75675177D01*
X165489807Y-75656576D01*
X165436388Y-75657929D01*
X165414736Y-75669539D01*
X165379561Y-75695234D01*
X165335514Y-75731360D01*
X165287249Y-75774261D01*
X165281363Y-75779721D01*
X165169885Y-75871956D01*
X165050984Y-75949051D01*
X164929045Y-76008802D01*
X164808453Y-76049005D01*
X164711750Y-76066023D01*
X164633689Y-76076655D01*
X164577056Y-76093816D01*
X164538033Y-76121224D01*
X164512801Y-76162601D01*
X164497545Y-76221666D01*
X164490156Y-76281954D01*
X164482792Y-76343996D01*
X164473080Y-76386753D01*
X164459430Y-76416331D01*
X164452789Y-76425497D01*
X164377144Y-76522380D01*
X164319293Y-76604801D01*
X164278220Y-76675373D01*
X164252914Y-76736708D01*
X164242362Y-76791417D01*
X163688807Y-76791417D01*
X163622235Y-76685181D01*
X163600431Y-76643556D01*
X163553484Y-76539994D01*
X163523966Y-76450744D01*
X163512064Y-76376764D01*
X163517966Y-76319011D01*
X163531420Y-76290653D01*
X163562267Y-76259624D01*
X163607880Y-76236269D01*
X163672360Y-76218829D01*
X163716755Y-76211209D01*
X163794204Y-76198063D01*
X163852332Y-76183696D01*
X163897209Y-76166163D01*
X163934905Y-76143521D01*
X163940229Y-76139628D01*
X163978583Y-76113762D01*
X164017820Y-76094497D01*
X164063104Y-76080526D01*
X164119604Y-76070548D01*
X164192483Y-76063258D01*
X164260545Y-76058797D01*
X164354469Y-76052461D01*
X164426375Y-76044999D01*
X164479644Y-76035621D01*
X164517655Y-76023534D01*
X164543789Y-76007944D01*
X164561268Y-75988304D01*
X164580048Y-75964320D01*
X164602987Y-75947476D01*
X164635385Y-75935879D01*
X164682542Y-75927638D01*
X164749759Y-75920859D01*
X164750298Y-75920814D01*
X164800150Y-75915455D01*
X164845473Y-75907266D01*
X164889094Y-75894649D01*
X164933840Y-75876004D01*
X164982539Y-75849734D01*
X165038017Y-75814238D01*
X165103102Y-75767918D01*
X165180621Y-75709175D01*
X165273402Y-75636411D01*
X165323142Y-75596868D01*
X165438369Y-75506078D01*
X165536025Y-75432621D01*
X165617628Y-75377068D01*
X165684691Y-75339990D01*
X165738731Y-75321958D01*
X165781263Y-75323545D01*
X165781263Y-75323545D01*
G37*
X165781263Y-75323545D02*
X165813802Y-75345321D01*
X165837863Y-75387858D01*
X165854962Y-75451727D01*
X165866614Y-75537501D01*
X165874335Y-75645750D01*
X165879639Y-75777046D01*
X165880572Y-75807084D01*
X165888455Y-76069218D01*
X165841134Y-76130934D01*
X165803845Y-76185125D01*
X165771551Y-76242282D01*
X165747564Y-76295637D01*
X165735195Y-76338421D01*
X165734224Y-76349480D01*
X165745632Y-76401191D01*
X165778126Y-76456926D01*
X165828505Y-76513276D01*
X165893567Y-76566830D01*
X165970111Y-76614179D01*
X165994091Y-76626306D01*
X166038699Y-76646718D01*
X166075790Y-76661792D01*
X166098385Y-76668730D01*
X166100312Y-76668900D01*
X166138133Y-76679091D01*
X166180104Y-76705623D01*
X166218409Y-76742428D01*
X166243745Y-76780249D01*
X166256556Y-76810184D01*
X166263952Y-76839622D01*
X166266785Y-76875946D01*
X166265909Y-76926540D01*
X166264378Y-76958886D01*
X166253807Y-77061803D01*
X166232986Y-77145135D01*
X166200367Y-77213161D01*
X166154401Y-77270158D01*
X166150146Y-77274326D01*
X166111994Y-77305290D01*
X166054009Y-77344614D01*
X165979571Y-77390349D01*
X165892059Y-77440547D01*
X165794856Y-77493259D01*
X165691342Y-77546537D01*
X165601922Y-77590331D01*
X165530157Y-77625288D01*
X165476201Y-77654224D01*
X165434680Y-77681492D01*
X165400219Y-77711449D01*
X165367443Y-77748448D01*
X165330978Y-77796844D01*
X165308974Y-77827677D01*
X165277799Y-77869230D01*
X165250118Y-77901709D01*
X165230319Y-77920137D01*
X165225409Y-77922489D01*
X165206827Y-77916122D01*
X165176513Y-77896825D01*
X165144605Y-77871729D01*
X165107508Y-77839195D01*
X165059647Y-77796157D01*
X165008714Y-77749567D01*
X164982900Y-77725619D01*
X164922773Y-77671929D01*
X164872733Y-77634617D01*
X164826295Y-77610814D01*
X164776974Y-77597648D01*
X164718284Y-77592249D01*
X164680000Y-77591551D01*
X164572050Y-77591223D01*
X164362500Y-77380176D01*
X164291227Y-77308943D01*
X164233468Y-77252843D01*
X164185288Y-77208555D01*
X164142750Y-77172754D01*
X164101919Y-77142119D01*
X164058860Y-77113325D01*
X164013004Y-77085069D01*
X163888890Y-77001273D01*
X163785452Y-76909969D01*
X163698097Y-76806243D01*
X163688807Y-76791417D01*
X164242362Y-76791417D01*
X164245551Y-76842115D01*
X164261468Y-76891411D01*
X164267331Y-76903850D01*
X164289828Y-76938542D01*
X164322306Y-76966695D01*
X164367840Y-76992750D01*
X164424121Y-77025510D01*
X164461709Y-77060316D01*
X164485716Y-77104312D01*
X164501255Y-77164642D01*
X164504509Y-77183702D01*
X164516883Y-77243641D01*
X164534122Y-77285118D01*
X164560628Y-77315069D01*
X164600800Y-77340428D01*
X164605510Y-77342862D01*
X164663107Y-77368590D01*
X164724309Y-77387746D01*
X164793548Y-77400981D01*
X164875259Y-77408946D01*
X164973875Y-77412292D01*
X165076129Y-77411963D01*
X165313509Y-77408397D01*
X165419029Y-77356746D01*
X165470708Y-77330165D01*
X165517618Y-77303776D01*
X165552080Y-77281978D01*
X165560322Y-77275807D01*
X165596095Y-77246518D01*
X165574932Y-77151384D01*
X165559710Y-77090265D01*
X165542914Y-77044826D01*
X165519715Y-77005556D01*
X165485285Y-76962942D01*
X165471293Y-76947253D01*
X165429492Y-76909978D01*
X165394190Y-76896970D01*
X165366188Y-76907741D01*
X165346290Y-76941806D01*
X165335297Y-76998677D01*
X165333487Y-77030850D01*
X165332169Y-77074184D01*
X165330688Y-77107943D01*
X165329655Y-77121956D01*
X165318061Y-77129861D01*
X165284769Y-77134096D01*
X165228161Y-77134843D01*
X165217068Y-77134656D01*
X165163803Y-77133276D01*
X165129665Y-77130371D01*
X165108387Y-77123914D01*
X165093703Y-77111876D01*
X165079344Y-77092228D01*
X165077490Y-77089477D01*
X165057545Y-77050673D01*
X165054448Y-77011992D01*
X165056123Y-76999094D01*
X165057810Y-76946312D01*
X165044507Y-76912715D01*
X165018499Y-76898870D01*
X164982072Y-76905341D01*
X164937513Y-76932696D01*
X164905421Y-76961790D01*
X164863875Y-77000112D01*
X164834773Y-77017760D01*
X164821393Y-77018307D01*
X164789715Y-77003761D01*
X164742927Y-76979060D01*
X164687259Y-76947826D01*
X164628940Y-76913681D01*
X164574201Y-76880247D01*
X164529270Y-76851146D01*
X164508181Y-76836198D01*
X164490556Y-76821300D01*
X164692700Y-76821300D01*
X164703414Y-76862343D01*
X164730961Y-76892541D01*
X164768446Y-76909145D01*
X164808974Y-76909406D01*
X164845652Y-76890578D01*
X164851598Y-76884636D01*
X164872891Y-76845357D01*
X164873564Y-76803885D01*
X164856470Y-76766844D01*
X164824465Y-76740860D01*
X164785981Y-76732400D01*
X164740001Y-76743109D01*
X164707302Y-76772015D01*
X164692955Y-76814286D01*
X164692700Y-76821300D01*
X164490556Y-76821300D01*
X164465958Y-76800509D01*
X164445242Y-76771107D01*
X164446681Y-76744862D01*
X164470921Y-76718643D01*
X164518607Y-76689317D01*
X164540889Y-76677774D01*
X164632974Y-76639797D01*
X164718398Y-76621267D01*
X164793919Y-76622731D01*
X164823631Y-76630001D01*
X164851824Y-76644736D01*
X164892260Y-76672761D01*
X164938945Y-76709681D01*
X164974683Y-76740773D01*
X165047737Y-76803566D01*
X165112413Y-76852044D01*
X165166531Y-76884830D01*
X165207911Y-76900542D01*
X165227691Y-76900763D01*
X165246586Y-76889716D01*
X165278799Y-76864736D01*
X165319557Y-76829721D01*
X165357282Y-76795043D01*
X165415861Y-76740026D01*
X165460685Y-76699849D01*
X165496197Y-76671629D01*
X165526837Y-76652484D01*
X165557046Y-76639530D01*
X165591266Y-76629886D01*
X165622162Y-76623104D01*
X165685990Y-76608021D01*
X165725990Y-76592447D01*
X165743593Y-76573224D01*
X165740230Y-76547189D01*
X165717333Y-76511183D01*
X165688655Y-76476262D01*
X165657809Y-76439347D01*
X165632969Y-76407819D01*
X165619579Y-76388605D01*
X165618937Y-76368905D01*
X165629941Y-76331649D01*
X165653138Y-76275230D01*
X165673917Y-76229855D01*
X165701924Y-76169183D01*
X165720566Y-76124251D01*
X165731765Y-76088048D01*
X165737444Y-76053561D01*
X165739525Y-76013775D01*
X165739818Y-75989450D01*
X165738976Y-75934288D01*
X165734180Y-75894586D01*
X165723259Y-75860465D01*
X165704041Y-75822047D01*
X165702350Y-75818979D01*
X165660063Y-75759579D01*
X165607020Y-75710579D01*
X165548506Y-75675177D01*
X165489807Y-75656576D01*
X165436388Y-75657929D01*
X165414736Y-75669539D01*
X165379561Y-75695234D01*
X165335514Y-75731360D01*
X165287249Y-75774261D01*
X165281363Y-75779721D01*
X165169885Y-75871956D01*
X165050984Y-75949051D01*
X164929045Y-76008802D01*
X164808453Y-76049005D01*
X164711750Y-76066023D01*
X164633689Y-76076655D01*
X164577056Y-76093816D01*
X164538033Y-76121224D01*
X164512801Y-76162601D01*
X164497545Y-76221666D01*
X164490156Y-76281954D01*
X164482792Y-76343996D01*
X164473080Y-76386753D01*
X164459430Y-76416331D01*
X164452789Y-76425497D01*
X164377144Y-76522380D01*
X164319293Y-76604801D01*
X164278220Y-76675373D01*
X164252914Y-76736708D01*
X164242362Y-76791417D01*
X163688807Y-76791417D01*
X163622235Y-76685181D01*
X163600431Y-76643556D01*
X163553484Y-76539994D01*
X163523966Y-76450744D01*
X163512064Y-76376764D01*
X163517966Y-76319011D01*
X163531420Y-76290653D01*
X163562267Y-76259624D01*
X163607880Y-76236269D01*
X163672360Y-76218829D01*
X163716755Y-76211209D01*
X163794204Y-76198063D01*
X163852332Y-76183696D01*
X163897209Y-76166163D01*
X163934905Y-76143521D01*
X163940229Y-76139628D01*
X163978583Y-76113762D01*
X164017820Y-76094497D01*
X164063104Y-76080526D01*
X164119604Y-76070548D01*
X164192483Y-76063258D01*
X164260545Y-76058797D01*
X164354469Y-76052461D01*
X164426375Y-76044999D01*
X164479644Y-76035621D01*
X164517655Y-76023534D01*
X164543789Y-76007944D01*
X164561268Y-75988304D01*
X164580048Y-75964320D01*
X164602987Y-75947476D01*
X164635385Y-75935879D01*
X164682542Y-75927638D01*
X164749759Y-75920859D01*
X164750298Y-75920814D01*
X164800150Y-75915455D01*
X164845473Y-75907266D01*
X164889094Y-75894649D01*
X164933840Y-75876004D01*
X164982539Y-75849734D01*
X165038017Y-75814238D01*
X165103102Y-75767918D01*
X165180621Y-75709175D01*
X165273402Y-75636411D01*
X165323142Y-75596868D01*
X165438369Y-75506078D01*
X165536025Y-75432621D01*
X165617628Y-75377068D01*
X165684691Y-75339990D01*
X165738731Y-75321958D01*
X165781263Y-75323545D01*
G36*
X164841635Y-76768374D02*
X164845100Y-76783200D01*
X164836062Y-76803631D01*
X164816813Y-76808093D01*
X164800650Y-76795900D01*
X164798994Y-76774598D01*
X164815510Y-76759708D01*
X164826799Y-76757800D01*
X164841635Y-76768374D01*
X164841635Y-76768374D01*
G37*
X164841635Y-76768374D02*
X164845100Y-76783200D01*
X164836062Y-76803631D01*
X164816813Y-76808093D01*
X164800650Y-76795900D01*
X164798994Y-76774598D01*
X164815510Y-76759708D01*
X164826799Y-76757800D01*
X164841635Y-76768374D01*
D11*
X164338000Y-98588000D02*
X164338000Y-99588000D01*
X166038000Y-99588000D02*
X166038000Y-98588000D01*
X174998000Y-102782000D02*
X173998000Y-102782000D01*
X173998000Y-104482000D02*
X174998000Y-104482000D01*
X174998000Y-105068000D02*
X173998000Y-105068000D01*
X173998000Y-106768000D02*
X174998000Y-106768000D01*
X139238000Y-103368000D02*
X138038000Y-103368000D01*
X138038000Y-101608000D02*
X139238000Y-101608000D01*
X139938000Y-107088000D02*
X139938000Y-109988000D01*
X139488000Y-106638000D02*
X139938000Y-107088000D01*
X136238000Y-105838000D02*
X138238000Y-105838000D01*
X134538000Y-107088000D02*
X134988000Y-106638000D01*
X134538000Y-109988000D02*
X134538000Y-107088000D01*
X134988000Y-110438000D02*
X134538000Y-109988000D01*
X138238000Y-111238000D02*
X136238000Y-111238000D01*
X139938000Y-109988000D02*
X139488000Y-110438000D01*
X155018000Y-68918000D02*
X155018000Y-63718000D01*
X142258000Y-68918000D02*
X155018000Y-68918000D01*
X139658000Y-63718000D02*
X155018000Y-63718000D01*
X142258000Y-68918000D02*
X142258000Y-66318000D01*
X142258000Y-66318000D02*
X139658000Y-66318000D01*
X139658000Y-66318000D02*
X139658000Y-63718000D01*
X140988000Y-68918000D02*
X139658000Y-68918000D01*
X139658000Y-68918000D02*
X139658000Y-67588000D01*
D12*
X164688000Y-72588000D02*
X130688000Y-72588000D01*
X164688000Y-46588000D02*
X164688000Y-72588000D01*
X130688000Y-46588000D02*
X164688000Y-46588000D01*
X130688000Y-72588000D02*
X130688000Y-46588000D01*
D11*
X127688000Y-114188000D02*
X127688000Y-109838000D01*
X127688000Y-109838000D02*
X128688000Y-109838000D01*
X128688000Y-109838000D02*
X128688000Y-114188000D01*
X126388000Y-107988000D02*
X126038000Y-107988000D01*
X126038000Y-107988000D02*
X126038000Y-106388000D01*
X126038000Y-106388000D02*
X125138000Y-106388000D01*
X125138000Y-106388000D02*
X125138000Y-114188000D01*
X125138000Y-114188000D02*
X131238000Y-114188000D01*
X131238000Y-114188000D02*
X131238000Y-106388000D01*
X131238000Y-106388000D02*
X130338000Y-106388000D01*
X130338000Y-106388000D02*
X130338000Y-107988000D01*
X130338000Y-107988000D02*
X129988000Y-107988000D01*
X125138000Y-107988000D02*
X126038000Y-107988000D01*
X131238000Y-107988000D02*
X130338000Y-107988000D01*
X125888000Y-110338000D02*
X125888000Y-111938000D01*
X125888000Y-111938000D02*
X126888000Y-111938000D01*
X126888000Y-111938000D02*
X126888000Y-110338000D01*
X126888000Y-110338000D02*
X125888000Y-110338000D01*
X130488000Y-110338000D02*
X130488000Y-111938000D01*
X130488000Y-111938000D02*
X129488000Y-111938000D01*
X129488000Y-111938000D02*
X129488000Y-110338000D01*
X129488000Y-110338000D02*
X130488000Y-110338000D01*
X126888000Y-111938000D02*
X126888000Y-114188000D01*
X126388000Y-111938000D02*
X126388000Y-114188000D01*
X126388000Y-107988000D02*
X126388000Y-106788000D01*
X140544000Y-80398000D02*
X140544000Y-75064000D01*
X140544000Y-75064000D02*
X151212000Y-75064000D01*
X151212000Y-75064000D02*
X151212000Y-80398000D01*
X151212000Y-80398000D02*
X151212000Y-80398000D01*
X141052000Y-77858000D02*
X143338000Y-77858000D01*
X143338000Y-77858000D02*
X143338000Y-80144000D01*
X143338000Y-80144000D02*
X143338000Y-80144000D01*
X139968000Y-80728000D02*
X139968000Y-80728000D01*
X151212000Y-80398000D02*
X140544000Y-80398000D01*
X140544000Y-80398000D02*
X140544000Y-80398000D01*
D12*
X113788000Y-109688000D02*
X113788000Y-111088000D01*
X113788000Y-113488000D02*
X113788000Y-113638000D01*
X113788000Y-113638000D02*
X114088000Y-113638000D01*
X114088000Y-113638000D02*
X114088000Y-114088000D01*
X121788000Y-114088000D02*
X121788000Y-113638000D01*
X121788000Y-113638000D02*
X122088000Y-113638000D01*
X122088000Y-113638000D02*
X122088000Y-113488000D01*
X122088000Y-111088000D02*
X122088000Y-109688000D01*
X116863000Y-107513000D02*
X116138000Y-107513000D01*
X116138000Y-107513000D02*
X116138000Y-107938000D01*
X116138000Y-107938000D02*
X115413000Y-107938000D01*
X119738000Y-107938000D02*
X120463000Y-107938000D01*
X121271334Y-93695143D02*
X121223715Y-93742762D01*
X121080858Y-93790381D01*
X120985620Y-93790381D01*
X120842762Y-93742762D01*
X120747524Y-93647524D01*
X120699905Y-93552286D01*
X120652286Y-93361810D01*
X120652286Y-93218952D01*
X120699905Y-93028476D01*
X120747524Y-92933238D01*
X120842762Y-92838000D01*
X120985620Y-92790381D01*
X121080858Y-92790381D01*
X121223715Y-92838000D01*
X121271334Y-92885619D01*
X121604667Y-92790381D02*
X122223715Y-92790381D01*
X121890381Y-93171333D01*
X122033239Y-93171333D01*
X122128477Y-93218952D01*
X122176096Y-93266571D01*
X122223715Y-93361810D01*
X122223715Y-93599905D01*
X122176096Y-93695143D01*
X122128477Y-93742762D01*
X122033239Y-93790381D01*
X121747524Y-93790381D01*
X121652286Y-93742762D01*
X121604667Y-93695143D01*
X188480381Y-90321333D02*
X189194667Y-90321333D01*
X189337524Y-90368953D01*
X189432762Y-90464191D01*
X189480381Y-90607048D01*
X189480381Y-90702286D01*
X188480381Y-89368952D02*
X188480381Y-89845143D01*
X188956571Y-89892762D01*
X188908952Y-89845143D01*
X188861333Y-89749905D01*
X188861333Y-89511809D01*
X188908952Y-89416571D01*
X188956571Y-89368952D01*
X189051810Y-89321333D01*
X189289905Y-89321333D01*
X189385143Y-89368952D01*
X189432762Y-89416571D01*
X189480381Y-89511809D01*
X189480381Y-89749905D01*
X189432762Y-89845143D01*
X189385143Y-89892762D01*
X125676095Y-93690381D02*
X125676095Y-94499905D01*
X125723714Y-94595143D01*
X125771333Y-94642762D01*
X125866571Y-94690381D01*
X126057048Y-94690381D01*
X126152286Y-94642762D01*
X126199905Y-94595143D01*
X126247524Y-94499905D01*
X126247524Y-93690381D01*
X126866571Y-94118952D02*
X126771333Y-94071333D01*
X126723714Y-94023714D01*
X126676095Y-93928476D01*
X126676095Y-93880857D01*
X126723714Y-93785619D01*
X126771333Y-93738000D01*
X126866571Y-93690381D01*
X127057048Y-93690381D01*
X127152286Y-93738000D01*
X127199905Y-93785619D01*
X127247524Y-93880857D01*
X127247524Y-93928476D01*
X127199905Y-94023714D01*
X127152286Y-94071333D01*
X127057048Y-94118952D01*
X126866571Y-94118952D01*
X126771333Y-94166571D01*
X126723714Y-94214190D01*
X126676095Y-94309429D01*
X126676095Y-94499905D01*
X126723714Y-94595143D01*
X126771333Y-94642762D01*
X126866571Y-94690381D01*
X127057048Y-94690381D01*
X127152286Y-94642762D01*
X127199905Y-94595143D01*
X127247524Y-94499905D01*
X127247524Y-94309429D01*
X127199905Y-94214190D01*
X127152286Y-94166571D01*
X127057048Y-94118952D01*
X119815381Y-78599905D02*
X120624905Y-78599905D01*
X120720143Y-78552286D01*
X120767762Y-78504667D01*
X120815381Y-78409429D01*
X120815381Y-78218952D01*
X120767762Y-78123714D01*
X120720143Y-78076095D01*
X120624905Y-78028476D01*
X119815381Y-78028476D01*
X119815381Y-77647524D02*
X119815381Y-76980857D01*
X120815381Y-77409429D01*
X113471334Y-95295143D02*
X113423715Y-95342762D01*
X113280858Y-95390381D01*
X113185620Y-95390381D01*
X113042762Y-95342762D01*
X112947524Y-95247524D01*
X112899905Y-95152286D01*
X112852286Y-94961810D01*
X112852286Y-94818952D01*
X112899905Y-94628476D01*
X112947524Y-94533238D01*
X113042762Y-94438000D01*
X113185620Y-94390381D01*
X113280858Y-94390381D01*
X113423715Y-94438000D01*
X113471334Y-94485619D01*
X114423715Y-95390381D02*
X113852286Y-95390381D01*
X114138000Y-95390381D02*
X114138000Y-94390381D01*
X114042762Y-94533238D01*
X113947524Y-94628476D01*
X113852286Y-94676095D01*
X119021334Y-93695143D02*
X118973715Y-93742762D01*
X118830858Y-93790381D01*
X118735620Y-93790381D01*
X118592762Y-93742762D01*
X118497524Y-93647524D01*
X118449905Y-93552286D01*
X118402286Y-93361810D01*
X118402286Y-93218952D01*
X118449905Y-93028476D01*
X118497524Y-92933238D01*
X118592762Y-92838000D01*
X118735620Y-92790381D01*
X118830858Y-92790381D01*
X118973715Y-92838000D01*
X119021334Y-92885619D01*
X119402286Y-92885619D02*
X119449905Y-92838000D01*
X119545143Y-92790381D01*
X119783239Y-92790381D01*
X119878477Y-92838000D01*
X119926096Y-92885619D01*
X119973715Y-92980857D01*
X119973715Y-93076095D01*
X119926096Y-93218952D01*
X119354667Y-93790381D01*
X119973715Y-93790381D01*
X123321334Y-93695143D02*
X123273715Y-93742762D01*
X123130858Y-93790381D01*
X123035620Y-93790381D01*
X122892762Y-93742762D01*
X122797524Y-93647524D01*
X122749905Y-93552286D01*
X122702286Y-93361810D01*
X122702286Y-93218952D01*
X122749905Y-93028476D01*
X122797524Y-92933238D01*
X122892762Y-92838000D01*
X123035620Y-92790381D01*
X123130858Y-92790381D01*
X123273715Y-92838000D01*
X123321334Y-92885619D01*
X124178477Y-93123714D02*
X124178477Y-93790381D01*
X123940381Y-92742762D02*
X123702286Y-93457048D01*
X124321334Y-93457048D01*
X116021334Y-107145143D02*
X115973715Y-107192762D01*
X115830858Y-107240381D01*
X115735620Y-107240381D01*
X115592762Y-107192762D01*
X115497524Y-107097524D01*
X115449905Y-107002286D01*
X115402286Y-106811810D01*
X115402286Y-106668952D01*
X115449905Y-106478476D01*
X115497524Y-106383238D01*
X115592762Y-106288000D01*
X115735620Y-106240381D01*
X115830858Y-106240381D01*
X115973715Y-106288000D01*
X116021334Y-106335619D01*
X116926096Y-106240381D02*
X116449905Y-106240381D01*
X116402286Y-106716571D01*
X116449905Y-106668952D01*
X116545143Y-106621333D01*
X116783239Y-106621333D01*
X116878477Y-106668952D01*
X116926096Y-106716571D01*
X116973715Y-106811810D01*
X116973715Y-107049905D01*
X116926096Y-107145143D01*
X116878477Y-107192762D01*
X116783239Y-107240381D01*
X116545143Y-107240381D01*
X116449905Y-107192762D01*
X116402286Y-107145143D01*
X130521334Y-79445143D02*
X130473715Y-79492762D01*
X130330858Y-79540381D01*
X130235620Y-79540381D01*
X130092762Y-79492762D01*
X129997524Y-79397524D01*
X129949905Y-79302286D01*
X129902286Y-79111810D01*
X129902286Y-78968952D01*
X129949905Y-78778476D01*
X129997524Y-78683238D01*
X130092762Y-78588000D01*
X130235620Y-78540381D01*
X130330858Y-78540381D01*
X130473715Y-78588000D01*
X130521334Y-78635619D01*
X130854667Y-78540381D02*
X131521334Y-78540381D01*
X131092762Y-79540381D01*
X128545143Y-70254666D02*
X128592762Y-70302285D01*
X128640381Y-70445142D01*
X128640381Y-70540380D01*
X128592762Y-70683238D01*
X128497524Y-70778476D01*
X128402286Y-70826095D01*
X128211810Y-70873714D01*
X128068952Y-70873714D01*
X127878476Y-70826095D01*
X127783238Y-70778476D01*
X127688000Y-70683238D01*
X127640381Y-70540380D01*
X127640381Y-70445142D01*
X127688000Y-70302285D01*
X127735619Y-70254666D01*
X128068952Y-69683238D02*
X128021333Y-69778476D01*
X127973714Y-69826095D01*
X127878476Y-69873714D01*
X127830857Y-69873714D01*
X127735619Y-69826095D01*
X127688000Y-69778476D01*
X127640381Y-69683238D01*
X127640381Y-69492761D01*
X127688000Y-69397523D01*
X127735619Y-69349904D01*
X127830857Y-69302285D01*
X127878476Y-69302285D01*
X127973714Y-69349904D01*
X128021333Y-69397523D01*
X128068952Y-69492761D01*
X128068952Y-69683238D01*
X128116571Y-69778476D01*
X128164190Y-69826095D01*
X128259429Y-69873714D01*
X128449905Y-69873714D01*
X128545143Y-69826095D01*
X128592762Y-69778476D01*
X128640381Y-69683238D01*
X128640381Y-69492761D01*
X128592762Y-69397523D01*
X128545143Y-69349904D01*
X128449905Y-69302285D01*
X128259429Y-69302285D01*
X128164190Y-69349904D01*
X128116571Y-69397523D01*
X128068952Y-69492761D01*
X130521334Y-76945143D02*
X130473715Y-76992762D01*
X130330858Y-77040381D01*
X130235620Y-77040381D01*
X130092762Y-76992762D01*
X129997524Y-76897524D01*
X129949905Y-76802286D01*
X129902286Y-76611810D01*
X129902286Y-76468952D01*
X129949905Y-76278476D01*
X129997524Y-76183238D01*
X130092762Y-76088000D01*
X130235620Y-76040381D01*
X130330858Y-76040381D01*
X130473715Y-76088000D01*
X130521334Y-76135619D01*
X130997524Y-77040381D02*
X131188000Y-77040381D01*
X131283239Y-76992762D01*
X131330858Y-76945143D01*
X131426096Y-76802286D01*
X131473715Y-76611810D01*
X131473715Y-76230857D01*
X131426096Y-76135619D01*
X131378477Y-76088000D01*
X131283239Y-76040381D01*
X131092762Y-76040381D01*
X130997524Y-76088000D01*
X130949905Y-76135619D01*
X130902286Y-76230857D01*
X130902286Y-76468952D01*
X130949905Y-76564190D01*
X130997524Y-76611810D01*
X131092762Y-76659429D01*
X131283239Y-76659429D01*
X131378477Y-76611810D01*
X131426096Y-76564190D01*
X131473715Y-76468952D01*
X121045143Y-70230857D02*
X121092762Y-70278476D01*
X121140381Y-70421333D01*
X121140381Y-70516571D01*
X121092762Y-70659429D01*
X120997524Y-70754667D01*
X120902286Y-70802286D01*
X120711810Y-70849905D01*
X120568952Y-70849905D01*
X120378476Y-70802286D01*
X120283238Y-70754667D01*
X120188000Y-70659429D01*
X120140381Y-70516571D01*
X120140381Y-70421333D01*
X120188000Y-70278476D01*
X120235619Y-70230857D01*
X121140381Y-69278476D02*
X121140381Y-69849905D01*
X121140381Y-69564191D02*
X120140381Y-69564191D01*
X120283238Y-69659429D01*
X120378476Y-69754667D01*
X120426095Y-69849905D01*
X120140381Y-68659429D02*
X120140381Y-68564190D01*
X120188000Y-68468952D01*
X120235619Y-68421333D01*
X120330857Y-68373714D01*
X120521333Y-68326095D01*
X120759429Y-68326095D01*
X120949905Y-68373714D01*
X121045143Y-68421333D01*
X121092762Y-68468952D01*
X121140381Y-68564190D01*
X121140381Y-68659429D01*
X121092762Y-68754667D01*
X121045143Y-68802286D01*
X120949905Y-68849905D01*
X120759429Y-68897524D01*
X120521333Y-68897524D01*
X120330857Y-68849905D01*
X120235619Y-68802286D01*
X120188000Y-68754667D01*
X120140381Y-68659429D01*
X173585143Y-101480857D02*
X173632762Y-101528476D01*
X173680381Y-101671333D01*
X173680381Y-101766571D01*
X173632762Y-101909429D01*
X173537524Y-102004667D01*
X173442286Y-102052286D01*
X173251810Y-102099905D01*
X173108952Y-102099905D01*
X172918476Y-102052286D01*
X172823238Y-102004667D01*
X172728000Y-101909429D01*
X172680381Y-101766571D01*
X172680381Y-101671333D01*
X172728000Y-101528476D01*
X172775619Y-101480857D01*
X173680381Y-100528476D02*
X173680381Y-101099905D01*
X173680381Y-100814191D02*
X172680381Y-100814191D01*
X172823238Y-100909429D01*
X172918476Y-101004667D01*
X172966095Y-101099905D01*
X173680381Y-99576095D02*
X173680381Y-100147524D01*
X173680381Y-99861810D02*
X172680381Y-99861810D01*
X172823238Y-99957048D01*
X172918476Y-100052286D01*
X172966095Y-100147524D01*
X177745143Y-104680857D02*
X177792762Y-104728476D01*
X177840381Y-104871333D01*
X177840381Y-104966571D01*
X177792762Y-105109429D01*
X177697524Y-105204667D01*
X177602286Y-105252286D01*
X177411810Y-105299905D01*
X177268952Y-105299905D01*
X177078476Y-105252286D01*
X176983238Y-105204667D01*
X176888000Y-105109429D01*
X176840381Y-104966571D01*
X176840381Y-104871333D01*
X176888000Y-104728476D01*
X176935619Y-104680857D01*
X177840381Y-103728476D02*
X177840381Y-104299905D01*
X177840381Y-104014191D02*
X176840381Y-104014191D01*
X176983238Y-104109429D01*
X177078476Y-104204667D01*
X177126095Y-104299905D01*
X176935619Y-103347524D02*
X176888000Y-103299905D01*
X176840381Y-103204667D01*
X176840381Y-102966571D01*
X176888000Y-102871333D01*
X176935619Y-102823714D01*
X177030857Y-102776095D01*
X177126095Y-102776095D01*
X177268952Y-102823714D01*
X177840381Y-103395143D01*
X177840381Y-102776095D01*
X167495143Y-113345143D02*
X167447524Y-113392762D01*
X167304667Y-113440381D01*
X167209429Y-113440381D01*
X167066571Y-113392762D01*
X166971333Y-113297524D01*
X166923714Y-113202286D01*
X166876095Y-113011810D01*
X166876095Y-112868952D01*
X166923714Y-112678476D01*
X166971333Y-112583238D01*
X167066571Y-112488000D01*
X167209429Y-112440381D01*
X167304667Y-112440381D01*
X167447524Y-112488000D01*
X167495143Y-112535619D01*
X168447524Y-113440381D02*
X167876095Y-113440381D01*
X168161809Y-113440381D02*
X168161809Y-112440381D01*
X168066571Y-112583238D01*
X167971333Y-112678476D01*
X167876095Y-112726095D01*
X168780857Y-112440381D02*
X169399905Y-112440381D01*
X169066571Y-112821333D01*
X169209429Y-112821333D01*
X169304667Y-112868952D01*
X169352286Y-112916571D01*
X169399905Y-113011810D01*
X169399905Y-113249905D01*
X169352286Y-113345143D01*
X169304667Y-113392762D01*
X169209429Y-113440381D01*
X168923714Y-113440381D01*
X168828476Y-113392762D01*
X168780857Y-113345143D01*
X109749905Y-99740381D02*
X109749905Y-98740381D01*
X109988000Y-98740381D01*
X110130858Y-98788000D01*
X110226096Y-98883238D01*
X110273715Y-98978476D01*
X110321334Y-99168952D01*
X110321334Y-99311810D01*
X110273715Y-99502286D01*
X110226096Y-99597524D01*
X110130858Y-99692762D01*
X109988000Y-99740381D01*
X109749905Y-99740381D01*
X111273715Y-99740381D02*
X110702286Y-99740381D01*
X110988000Y-99740381D02*
X110988000Y-98740381D01*
X110892762Y-98883238D01*
X110797524Y-98978476D01*
X110702286Y-99026095D01*
X108899905Y-103240381D02*
X108899905Y-102240381D01*
X109138000Y-102240381D01*
X109280858Y-102288000D01*
X109376096Y-102383238D01*
X109423715Y-102478476D01*
X109471334Y-102668952D01*
X109471334Y-102811810D01*
X109423715Y-103002286D01*
X109376096Y-103097524D01*
X109280858Y-103192762D01*
X109138000Y-103240381D01*
X108899905Y-103240381D01*
X109852286Y-102335619D02*
X109899905Y-102288000D01*
X109995143Y-102240381D01*
X110233239Y-102240381D01*
X110328477Y-102288000D01*
X110376096Y-102335619D01*
X110423715Y-102430857D01*
X110423715Y-102526095D01*
X110376096Y-102668952D01*
X109804667Y-103240381D01*
X110423715Y-103240381D01*
D16*
X151680000Y-40753429D02*
X151680000Y-41842000D01*
X151607428Y-42059714D01*
X151462285Y-42204857D01*
X151244571Y-42277429D01*
X151099428Y-42277429D01*
X153204000Y-42277429D02*
X152333143Y-42277429D01*
X152768571Y-42277429D02*
X152768571Y-40753429D01*
X152623428Y-40971143D01*
X152478286Y-41116286D01*
X152333143Y-41188857D01*
D12*
X116494667Y-82760381D02*
X116494667Y-83474667D01*
X116447047Y-83617524D01*
X116351809Y-83712762D01*
X116208952Y-83760381D01*
X116113714Y-83760381D01*
X116875619Y-82760381D02*
X117494667Y-82760381D01*
X117161333Y-83141333D01*
X117304191Y-83141333D01*
X117399429Y-83188952D01*
X117447048Y-83236571D01*
X117494667Y-83331810D01*
X117494667Y-83569905D01*
X117447048Y-83665143D01*
X117399429Y-83712762D01*
X117304191Y-83760381D01*
X117018476Y-83760381D01*
X116923238Y-83712762D01*
X116875619Y-83665143D01*
X123640381Y-70254666D02*
X123640381Y-70730857D01*
X122640381Y-70730857D01*
X123640381Y-69397523D02*
X123640381Y-69968952D01*
X123640381Y-69683238D02*
X122640381Y-69683238D01*
X122783238Y-69778476D01*
X122878476Y-69873714D01*
X122926095Y-69968952D01*
X126140381Y-70254666D02*
X126140381Y-70730857D01*
X125140381Y-70730857D01*
X125235619Y-69968952D02*
X125188000Y-69921333D01*
X125140381Y-69826095D01*
X125140381Y-69587999D01*
X125188000Y-69492761D01*
X125235619Y-69445142D01*
X125330857Y-69397523D01*
X125426095Y-69397523D01*
X125568952Y-69445142D01*
X126140381Y-70016571D01*
X126140381Y-69397523D01*
X121810381Y-66730857D02*
X121810381Y-67207048D01*
X120810381Y-67207048D01*
X121762762Y-66445143D02*
X121810381Y-66302286D01*
X121810381Y-66064190D01*
X121762762Y-65968952D01*
X121715143Y-65921333D01*
X121619905Y-65873714D01*
X121524667Y-65873714D01*
X121429429Y-65921333D01*
X121381810Y-65968952D01*
X121334190Y-66064190D01*
X121286571Y-66254667D01*
X121238952Y-66349905D01*
X121191333Y-66397524D01*
X121096095Y-66445143D01*
X121000857Y-66445143D01*
X120905619Y-66397524D01*
X120858000Y-66349905D01*
X120810381Y-66254667D01*
X120810381Y-66016571D01*
X120858000Y-65873714D01*
X121810381Y-64921333D02*
X121810381Y-65492762D01*
X121810381Y-65207048D02*
X120810381Y-65207048D01*
X120953238Y-65302286D01*
X121048476Y-65397524D01*
X121096095Y-65492762D01*
X113342762Y-100335619D02*
X113247524Y-100288000D01*
X113152286Y-100192762D01*
X113009429Y-100049905D01*
X112914190Y-100002286D01*
X112818952Y-100002286D01*
X112866571Y-100240381D02*
X112771333Y-100192762D01*
X112676095Y-100097524D01*
X112628476Y-99907048D01*
X112628476Y-99573714D01*
X112676095Y-99383238D01*
X112771333Y-99288000D01*
X112866571Y-99240381D01*
X113057048Y-99240381D01*
X113152286Y-99288000D01*
X113247524Y-99383238D01*
X113295143Y-99573714D01*
X113295143Y-99907048D01*
X113247524Y-100097524D01*
X113152286Y-100192762D01*
X113057048Y-100240381D01*
X112866571Y-100240381D01*
X114247524Y-100240381D02*
X113676095Y-100240381D01*
X113961809Y-100240381D02*
X113961809Y-99240381D01*
X113866571Y-99383238D01*
X113771333Y-99478476D01*
X113676095Y-99526095D01*
X136092762Y-101235619D02*
X135997524Y-101188000D01*
X135902286Y-101092762D01*
X135759429Y-100949905D01*
X135664190Y-100902286D01*
X135568952Y-100902286D01*
X135616571Y-101140381D02*
X135521333Y-101092762D01*
X135426095Y-100997524D01*
X135378476Y-100807048D01*
X135378476Y-100473714D01*
X135426095Y-100283238D01*
X135521333Y-100188000D01*
X135616571Y-100140381D01*
X135807048Y-100140381D01*
X135902286Y-100188000D01*
X135997524Y-100283238D01*
X136045143Y-100473714D01*
X136045143Y-100807048D01*
X135997524Y-100997524D01*
X135902286Y-101092762D01*
X135807048Y-101140381D01*
X135616571Y-101140381D01*
X136426095Y-100235619D02*
X136473714Y-100188000D01*
X136568952Y-100140381D01*
X136807048Y-100140381D01*
X136902286Y-100188000D01*
X136949905Y-100235619D01*
X136997524Y-100330857D01*
X136997524Y-100426095D01*
X136949905Y-100568952D01*
X136378476Y-101140381D01*
X136997524Y-101140381D01*
X136092762Y-97485619D02*
X135997524Y-97438000D01*
X135902286Y-97342762D01*
X135759429Y-97199905D01*
X135664190Y-97152286D01*
X135568952Y-97152286D01*
X135616571Y-97390381D02*
X135521333Y-97342762D01*
X135426095Y-97247524D01*
X135378476Y-97057048D01*
X135378476Y-96723714D01*
X135426095Y-96533238D01*
X135521333Y-96438000D01*
X135616571Y-96390381D01*
X135807048Y-96390381D01*
X135902286Y-96438000D01*
X135997524Y-96533238D01*
X136045143Y-96723714D01*
X136045143Y-97057048D01*
X135997524Y-97247524D01*
X135902286Y-97342762D01*
X135807048Y-97390381D01*
X135616571Y-97390381D01*
X136378476Y-96390381D02*
X136997524Y-96390381D01*
X136664190Y-96771333D01*
X136807048Y-96771333D01*
X136902286Y-96818952D01*
X136949905Y-96866571D01*
X136997524Y-96961810D01*
X136997524Y-97199905D01*
X136949905Y-97295143D01*
X136902286Y-97342762D01*
X136807048Y-97390381D01*
X136521333Y-97390381D01*
X136426095Y-97342762D01*
X136378476Y-97295143D01*
X115592762Y-71135619D02*
X115497524Y-71088000D01*
X115402286Y-70992762D01*
X115259429Y-70849905D01*
X115164190Y-70802286D01*
X115068952Y-70802286D01*
X115116571Y-71040381D02*
X115021333Y-70992762D01*
X114926095Y-70897524D01*
X114878476Y-70707048D01*
X114878476Y-70373714D01*
X114926095Y-70183238D01*
X115021333Y-70088000D01*
X115116571Y-70040381D01*
X115307048Y-70040381D01*
X115402286Y-70088000D01*
X115497524Y-70183238D01*
X115545143Y-70373714D01*
X115545143Y-70707048D01*
X115497524Y-70897524D01*
X115402286Y-70992762D01*
X115307048Y-71040381D01*
X115116571Y-71040381D01*
X116402286Y-70373714D02*
X116402286Y-71040381D01*
X116164190Y-69992762D02*
X115926095Y-70707048D01*
X116545143Y-70707048D01*
X109521334Y-105640381D02*
X109188000Y-105164190D01*
X108949905Y-105640381D02*
X108949905Y-104640381D01*
X109330858Y-104640381D01*
X109426096Y-104688000D01*
X109473715Y-104735619D01*
X109521334Y-104830857D01*
X109521334Y-104973714D01*
X109473715Y-105068952D01*
X109426096Y-105116571D01*
X109330858Y-105164190D01*
X108949905Y-105164190D01*
X110473715Y-105640381D02*
X109902286Y-105640381D01*
X110188000Y-105640381D02*
X110188000Y-104640381D01*
X110092762Y-104783238D01*
X109997524Y-104878476D01*
X109902286Y-104926095D01*
X116521334Y-98040381D02*
X116188000Y-97564190D01*
X115949905Y-98040381D02*
X115949905Y-97040381D01*
X116330858Y-97040381D01*
X116426096Y-97088000D01*
X116473715Y-97135619D01*
X116521334Y-97230857D01*
X116521334Y-97373714D01*
X116473715Y-97468952D01*
X116426096Y-97516571D01*
X116330858Y-97564190D01*
X115949905Y-97564190D01*
X116902286Y-97135619D02*
X116949905Y-97088000D01*
X117045143Y-97040381D01*
X117283239Y-97040381D01*
X117378477Y-97088000D01*
X117426096Y-97135619D01*
X117473715Y-97230857D01*
X117473715Y-97326095D01*
X117426096Y-97468952D01*
X116854667Y-98040381D01*
X117473715Y-98040381D01*
X116521334Y-103390381D02*
X116188000Y-102914190D01*
X115949905Y-103390381D02*
X115949905Y-102390381D01*
X116330858Y-102390381D01*
X116426096Y-102438000D01*
X116473715Y-102485619D01*
X116521334Y-102580857D01*
X116521334Y-102723714D01*
X116473715Y-102818952D01*
X116426096Y-102866571D01*
X116330858Y-102914190D01*
X115949905Y-102914190D01*
X116854667Y-102390381D02*
X117473715Y-102390381D01*
X117140381Y-102771333D01*
X117283239Y-102771333D01*
X117378477Y-102818952D01*
X117426096Y-102866571D01*
X117473715Y-102961810D01*
X117473715Y-103199905D01*
X117426096Y-103295143D01*
X117378477Y-103342762D01*
X117283239Y-103390381D01*
X116997524Y-103390381D01*
X116902286Y-103342762D01*
X116854667Y-103295143D01*
X130521334Y-94390381D02*
X130188000Y-93914190D01*
X129949905Y-94390381D02*
X129949905Y-93390381D01*
X130330858Y-93390381D01*
X130426096Y-93438000D01*
X130473715Y-93485619D01*
X130521334Y-93580857D01*
X130521334Y-93723714D01*
X130473715Y-93818952D01*
X130426096Y-93866571D01*
X130330858Y-93914190D01*
X129949905Y-93914190D01*
X131378477Y-93723714D02*
X131378477Y-94390381D01*
X131140381Y-93342762D02*
X130902286Y-94057048D01*
X131521334Y-94057048D01*
X130521334Y-92140381D02*
X130188000Y-91664190D01*
X129949905Y-92140381D02*
X129949905Y-91140381D01*
X130330858Y-91140381D01*
X130426096Y-91188000D01*
X130473715Y-91235619D01*
X130521334Y-91330857D01*
X130521334Y-91473714D01*
X130473715Y-91568952D01*
X130426096Y-91616571D01*
X130330858Y-91664190D01*
X129949905Y-91664190D01*
X131426096Y-91140381D02*
X130949905Y-91140381D01*
X130902286Y-91616571D01*
X130949905Y-91568952D01*
X131045143Y-91521333D01*
X131283239Y-91521333D01*
X131378477Y-91568952D01*
X131426096Y-91616571D01*
X131473715Y-91711810D01*
X131473715Y-91949905D01*
X131426096Y-92045143D01*
X131378477Y-92092762D01*
X131283239Y-92140381D01*
X131045143Y-92140381D01*
X130949905Y-92092762D01*
X130902286Y-92045143D01*
X124121334Y-102640381D02*
X123788000Y-102164190D01*
X123549905Y-102640381D02*
X123549905Y-101640381D01*
X123930858Y-101640381D01*
X124026096Y-101688000D01*
X124073715Y-101735619D01*
X124121334Y-101830857D01*
X124121334Y-101973714D01*
X124073715Y-102068952D01*
X124026096Y-102116571D01*
X123930858Y-102164190D01*
X123549905Y-102164190D01*
X124978477Y-101640381D02*
X124788000Y-101640381D01*
X124692762Y-101688000D01*
X124645143Y-101735619D01*
X124549905Y-101878476D01*
X124502286Y-102068952D01*
X124502286Y-102449905D01*
X124549905Y-102545143D01*
X124597524Y-102592762D01*
X124692762Y-102640381D01*
X124883239Y-102640381D01*
X124978477Y-102592762D01*
X125026096Y-102545143D01*
X125073715Y-102449905D01*
X125073715Y-102211810D01*
X125026096Y-102116571D01*
X124978477Y-102068952D01*
X124883239Y-102021333D01*
X124692762Y-102021333D01*
X124597524Y-102068952D01*
X124549905Y-102116571D01*
X124502286Y-102211810D01*
X168071334Y-93390381D02*
X167738000Y-92914190D01*
X167499905Y-93390381D02*
X167499905Y-92390381D01*
X167880858Y-92390381D01*
X167976096Y-92438000D01*
X168023715Y-92485619D01*
X168071334Y-92580857D01*
X168071334Y-92723714D01*
X168023715Y-92818952D01*
X167976096Y-92866571D01*
X167880858Y-92914190D01*
X167499905Y-92914190D01*
X168404667Y-92390381D02*
X169071334Y-92390381D01*
X168642762Y-93390381D01*
X114290381Y-85254666D02*
X113814190Y-85588000D01*
X114290381Y-85826095D02*
X113290381Y-85826095D01*
X113290381Y-85445142D01*
X113338000Y-85349904D01*
X113385619Y-85302285D01*
X113480857Y-85254666D01*
X113623714Y-85254666D01*
X113718952Y-85302285D01*
X113766571Y-85349904D01*
X113814190Y-85445142D01*
X113814190Y-85826095D01*
X113718952Y-84683238D02*
X113671333Y-84778476D01*
X113623714Y-84826095D01*
X113528476Y-84873714D01*
X113480857Y-84873714D01*
X113385619Y-84826095D01*
X113338000Y-84778476D01*
X113290381Y-84683238D01*
X113290381Y-84492761D01*
X113338000Y-84397523D01*
X113385619Y-84349904D01*
X113480857Y-84302285D01*
X113528476Y-84302285D01*
X113623714Y-84349904D01*
X113671333Y-84397523D01*
X113718952Y-84492761D01*
X113718952Y-84683238D01*
X113766571Y-84778476D01*
X113814190Y-84826095D01*
X113909429Y-84873714D01*
X114099905Y-84873714D01*
X114195143Y-84826095D01*
X114242762Y-84778476D01*
X114290381Y-84683238D01*
X114290381Y-84492761D01*
X114242762Y-84397523D01*
X114195143Y-84349904D01*
X114099905Y-84302285D01*
X113909429Y-84302285D01*
X113814190Y-84349904D01*
X113766571Y-84397523D01*
X113718952Y-84492761D01*
X130521334Y-82040381D02*
X130188000Y-81564190D01*
X129949905Y-82040381D02*
X129949905Y-81040381D01*
X130330858Y-81040381D01*
X130426096Y-81088000D01*
X130473715Y-81135619D01*
X130521334Y-81230857D01*
X130521334Y-81373714D01*
X130473715Y-81468952D01*
X130426096Y-81516571D01*
X130330858Y-81564190D01*
X129949905Y-81564190D01*
X130997524Y-82040381D02*
X131188000Y-82040381D01*
X131283239Y-81992762D01*
X131330858Y-81945143D01*
X131426096Y-81802286D01*
X131473715Y-81611810D01*
X131473715Y-81230857D01*
X131426096Y-81135619D01*
X131378477Y-81088000D01*
X131283239Y-81040381D01*
X131092762Y-81040381D01*
X130997524Y-81088000D01*
X130949905Y-81135619D01*
X130902286Y-81230857D01*
X130902286Y-81468952D01*
X130949905Y-81564190D01*
X130997524Y-81611810D01*
X131092762Y-81659429D01*
X131283239Y-81659429D01*
X131378477Y-81611810D01*
X131426096Y-81564190D01*
X131473715Y-81468952D01*
X180340381Y-104670857D02*
X179864190Y-105004191D01*
X180340381Y-105242286D02*
X179340381Y-105242286D01*
X179340381Y-104861333D01*
X179388000Y-104766095D01*
X179435619Y-104718476D01*
X179530857Y-104670857D01*
X179673714Y-104670857D01*
X179768952Y-104718476D01*
X179816571Y-104766095D01*
X179864190Y-104861333D01*
X179864190Y-105242286D01*
X180340381Y-103718476D02*
X180340381Y-104289905D01*
X180340381Y-104004191D02*
X179340381Y-104004191D01*
X179483238Y-104099429D01*
X179578476Y-104194667D01*
X179626095Y-104289905D01*
X179340381Y-103099429D02*
X179340381Y-103004190D01*
X179388000Y-102908952D01*
X179435619Y-102861333D01*
X179530857Y-102813714D01*
X179721333Y-102766095D01*
X179959429Y-102766095D01*
X180149905Y-102813714D01*
X180245143Y-102861333D01*
X180292762Y-102908952D01*
X180340381Y-103004190D01*
X180340381Y-103099429D01*
X180292762Y-103194667D01*
X180245143Y-103242286D01*
X180149905Y-103289905D01*
X179959429Y-103337524D01*
X179721333Y-103337524D01*
X179530857Y-103289905D01*
X179435619Y-103242286D01*
X179388000Y-103194667D01*
X179340381Y-103099429D01*
X182822381Y-104736857D02*
X182346190Y-105070191D01*
X182822381Y-105308286D02*
X181822381Y-105308286D01*
X181822381Y-104927333D01*
X181870000Y-104832095D01*
X181917619Y-104784476D01*
X182012857Y-104736857D01*
X182155714Y-104736857D01*
X182250952Y-104784476D01*
X182298571Y-104832095D01*
X182346190Y-104927333D01*
X182346190Y-105308286D01*
X182822381Y-103784476D02*
X182822381Y-104355905D01*
X182822381Y-104070191D02*
X181822381Y-104070191D01*
X181965238Y-104165429D01*
X182060476Y-104260667D01*
X182108095Y-104355905D01*
X182822381Y-102832095D02*
X182822381Y-103403524D01*
X182822381Y-103117810D02*
X181822381Y-103117810D01*
X181965238Y-103213048D01*
X182060476Y-103308286D01*
X182108095Y-103403524D01*
X185340381Y-104736857D02*
X184864190Y-105070191D01*
X185340381Y-105308286D02*
X184340381Y-105308286D01*
X184340381Y-104927333D01*
X184388000Y-104832095D01*
X184435619Y-104784476D01*
X184530857Y-104736857D01*
X184673714Y-104736857D01*
X184768952Y-104784476D01*
X184816571Y-104832095D01*
X184864190Y-104927333D01*
X184864190Y-105308286D01*
X185340381Y-103784476D02*
X185340381Y-104355905D01*
X185340381Y-104070191D02*
X184340381Y-104070191D01*
X184483238Y-104165429D01*
X184578476Y-104260667D01*
X184626095Y-104355905D01*
X184435619Y-103403524D02*
X184388000Y-103355905D01*
X184340381Y-103260667D01*
X184340381Y-103022571D01*
X184388000Y-102927333D01*
X184435619Y-102879714D01*
X184530857Y-102832095D01*
X184626095Y-102832095D01*
X184768952Y-102879714D01*
X185340381Y-103451143D01*
X185340381Y-102832095D01*
X119426095Y-99290381D02*
X119426095Y-100099905D01*
X119473714Y-100195143D01*
X119521333Y-100242762D01*
X119616571Y-100290381D01*
X119807048Y-100290381D01*
X119902286Y-100242762D01*
X119949905Y-100195143D01*
X119997524Y-100099905D01*
X119997524Y-99290381D01*
X120426095Y-99385619D02*
X120473714Y-99338000D01*
X120568952Y-99290381D01*
X120807048Y-99290381D01*
X120902286Y-99338000D01*
X120949905Y-99385619D01*
X120997524Y-99480857D01*
X120997524Y-99576095D01*
X120949905Y-99718952D01*
X120378476Y-100290381D01*
X120997524Y-100290381D01*
X120176095Y-103040381D02*
X120176095Y-103849905D01*
X120223714Y-103945143D01*
X120271333Y-103992762D01*
X120366571Y-104040381D01*
X120557048Y-104040381D01*
X120652286Y-103992762D01*
X120699905Y-103945143D01*
X120747524Y-103849905D01*
X120747524Y-103040381D01*
X121699905Y-103040381D02*
X121223714Y-103040381D01*
X121176095Y-103516571D01*
X121223714Y-103468952D01*
X121318952Y-103421333D01*
X121557048Y-103421333D01*
X121652286Y-103468952D01*
X121699905Y-103516571D01*
X121747524Y-103611810D01*
X121747524Y-103849905D01*
X121699905Y-103945143D01*
X121652286Y-103992762D01*
X121557048Y-104040381D01*
X121318952Y-104040381D01*
X121223714Y-103992762D01*
X121176095Y-103945143D01*
X175449905Y-79040381D02*
X175449905Y-79849905D01*
X175497524Y-79945143D01*
X175545143Y-79992762D01*
X175640381Y-80040381D01*
X175830858Y-80040381D01*
X175926096Y-79992762D01*
X175973715Y-79945143D01*
X176021334Y-79849905D01*
X176021334Y-79040381D01*
X177021334Y-80040381D02*
X176449905Y-80040381D01*
X176735619Y-80040381D02*
X176735619Y-79040381D01*
X176640381Y-79183238D01*
X176545143Y-79278476D01*
X176449905Y-79326095D01*
X177640381Y-79040381D02*
X177735620Y-79040381D01*
X177830858Y-79088000D01*
X177878477Y-79135619D01*
X177926096Y-79230857D01*
X177973715Y-79421333D01*
X177973715Y-79659429D01*
X177926096Y-79849905D01*
X177878477Y-79945143D01*
X177830858Y-79992762D01*
X177735620Y-80040381D01*
X177640381Y-80040381D01*
X177545143Y-79992762D01*
X177497524Y-79945143D01*
X177449905Y-79849905D01*
X177402286Y-79659429D01*
X177402286Y-79421333D01*
X177449905Y-79230857D01*
X177497524Y-79135619D01*
X177545143Y-79088000D01*
X177640381Y-79040381D01*
X173826096Y-58588000D02*
X173730858Y-58540381D01*
X173588001Y-58540381D01*
X173445143Y-58588000D01*
X173349905Y-58683238D01*
X173302286Y-58778476D01*
X173254667Y-58968952D01*
X173254667Y-59111810D01*
X173302286Y-59302286D01*
X173349905Y-59397524D01*
X173445143Y-59492762D01*
X173588001Y-59540381D01*
X173683239Y-59540381D01*
X173826096Y-59492762D01*
X173873715Y-59445143D01*
X173873715Y-59111810D01*
X173683239Y-59111810D01*
X174302286Y-59540381D02*
X174302286Y-58540381D01*
X174873715Y-59540381D01*
X174873715Y-58540381D01*
X175349905Y-59540381D02*
X175349905Y-58540381D01*
X175588000Y-58540381D01*
X175730858Y-58588000D01*
X175826096Y-58683238D01*
X175873715Y-58778476D01*
X175921334Y-58968952D01*
X175921334Y-59111810D01*
X175873715Y-59302286D01*
X175826096Y-59397524D01*
X175730858Y-59492762D01*
X175588000Y-59540381D01*
X175349905Y-59540381D01*
X178354667Y-58540381D02*
X178688000Y-59540381D01*
X179021334Y-58540381D01*
X179926096Y-59445143D02*
X179878477Y-59492762D01*
X179735620Y-59540381D01*
X179640382Y-59540381D01*
X179497524Y-59492762D01*
X179402286Y-59397524D01*
X179354667Y-59302286D01*
X179307048Y-59111810D01*
X179307048Y-58968952D01*
X179354667Y-58778476D01*
X179402286Y-58683238D01*
X179497524Y-58588000D01*
X179640382Y-58540381D01*
X179735620Y-58540381D01*
X179878477Y-58588000D01*
X179926096Y-58635619D01*
X180926096Y-59445143D02*
X180878477Y-59492762D01*
X180735620Y-59540381D01*
X180640382Y-59540381D01*
X180497524Y-59492762D01*
X180402286Y-59397524D01*
X180354667Y-59302286D01*
X180307048Y-59111810D01*
X180307048Y-58968952D01*
X180354667Y-58778476D01*
X180402286Y-58683238D01*
X180497524Y-58588000D01*
X180640382Y-58540381D01*
X180735620Y-58540381D01*
X180878477Y-58588000D01*
X180926096Y-58635619D01*
X169426096Y-53588000D02*
X169330858Y-53540381D01*
X169188001Y-53540381D01*
X169045143Y-53588000D01*
X168949905Y-53683238D01*
X168902286Y-53778476D01*
X168854667Y-53968952D01*
X168854667Y-54111810D01*
X168902286Y-54302286D01*
X168949905Y-54397524D01*
X169045143Y-54492762D01*
X169188001Y-54540381D01*
X169283239Y-54540381D01*
X169426096Y-54492762D01*
X169473715Y-54445143D01*
X169473715Y-54111810D01*
X169283239Y-54111810D01*
X169902286Y-54540381D02*
X169902286Y-53540381D01*
X170473715Y-54540381D01*
X170473715Y-53540381D01*
X170949905Y-54540381D02*
X170949905Y-53540381D01*
X171188000Y-53540381D01*
X171330858Y-53588000D01*
X171426096Y-53683238D01*
X171473715Y-53778476D01*
X171521334Y-53968952D01*
X171521334Y-54111810D01*
X171473715Y-54302286D01*
X171426096Y-54397524D01*
X171330858Y-54492762D01*
X171188000Y-54540381D01*
X170949905Y-54540381D01*
X168854667Y-48540381D02*
X169188000Y-49540381D01*
X169521334Y-48540381D01*
X170426096Y-49445143D02*
X170378477Y-49492762D01*
X170235620Y-49540381D01*
X170140382Y-49540381D01*
X169997524Y-49492762D01*
X169902286Y-49397524D01*
X169854667Y-49302286D01*
X169807048Y-49111810D01*
X169807048Y-48968952D01*
X169854667Y-48778476D01*
X169902286Y-48683238D01*
X169997524Y-48588000D01*
X170140382Y-48540381D01*
X170235620Y-48540381D01*
X170378477Y-48588000D01*
X170426096Y-48635619D01*
X171426096Y-49445143D02*
X171378477Y-49492762D01*
X171235620Y-49540381D01*
X171140382Y-49540381D01*
X170997524Y-49492762D01*
X170902286Y-49397524D01*
X170854667Y-49302286D01*
X170807048Y-49111810D01*
X170807048Y-48968952D01*
X170854667Y-48778476D01*
X170902286Y-48683238D01*
X170997524Y-48588000D01*
X171140382Y-48540381D01*
X171235620Y-48540381D01*
X171378477Y-48588000D01*
X171426096Y-48635619D01*
X176902286Y-59540381D02*
X176902286Y-58540381D01*
X176902286Y-59016571D02*
X177473715Y-59016571D01*
X177473715Y-59540381D02*
X177473715Y-58540381D01*
X168854667Y-51140381D02*
X169188000Y-52140381D01*
X169521334Y-51140381D01*
X119026096Y-43588000D02*
X118930858Y-43540381D01*
X118788001Y-43540381D01*
X118645143Y-43588000D01*
X118549905Y-43683238D01*
X118502286Y-43778476D01*
X118454667Y-43968952D01*
X118454667Y-44111810D01*
X118502286Y-44302286D01*
X118549905Y-44397524D01*
X118645143Y-44492762D01*
X118788001Y-44540381D01*
X118883239Y-44540381D01*
X119026096Y-44492762D01*
X119073715Y-44445143D01*
X119073715Y-44111810D01*
X118883239Y-44111810D01*
X119502286Y-44540381D02*
X119502286Y-43540381D01*
X120073715Y-44540381D01*
X120073715Y-43540381D01*
X120549905Y-44540381D02*
X120549905Y-43540381D01*
X120788000Y-43540381D01*
X120930858Y-43588000D01*
X121026096Y-43683238D01*
X121073715Y-43778476D01*
X121121334Y-43968952D01*
X121121334Y-44111810D01*
X121073715Y-44302286D01*
X121026096Y-44397524D01*
X120930858Y-44492762D01*
X120788000Y-44540381D01*
X120549905Y-44540381D01*
X113354667Y-43540381D02*
X113688000Y-44540381D01*
X114021334Y-43540381D01*
X114926096Y-44445143D02*
X114878477Y-44492762D01*
X114735620Y-44540381D01*
X114640382Y-44540381D01*
X114497524Y-44492762D01*
X114402286Y-44397524D01*
X114354667Y-44302286D01*
X114307048Y-44111810D01*
X114307048Y-43968952D01*
X114354667Y-43778476D01*
X114402286Y-43683238D01*
X114497524Y-43588000D01*
X114640382Y-43540381D01*
X114735620Y-43540381D01*
X114878477Y-43588000D01*
X114926096Y-43635619D01*
X115926096Y-44445143D02*
X115878477Y-44492762D01*
X115735620Y-44540381D01*
X115640382Y-44540381D01*
X115497524Y-44492762D01*
X115402286Y-44397524D01*
X115354667Y-44302286D01*
X115307048Y-44111810D01*
X115307048Y-43968952D01*
X115354667Y-43778476D01*
X115402286Y-43683238D01*
X115497524Y-43588000D01*
X115640382Y-43540381D01*
X115735620Y-43540381D01*
X115878477Y-43588000D01*
X115926096Y-43635619D01*
X123426096Y-48588000D02*
X123330858Y-48540381D01*
X123188001Y-48540381D01*
X123045143Y-48588000D01*
X122949905Y-48683238D01*
X122902286Y-48778476D01*
X122854667Y-48968952D01*
X122854667Y-49111810D01*
X122902286Y-49302286D01*
X122949905Y-49397524D01*
X123045143Y-49492762D01*
X123188001Y-49540381D01*
X123283239Y-49540381D01*
X123426096Y-49492762D01*
X123473715Y-49445143D01*
X123473715Y-49111810D01*
X123283239Y-49111810D01*
X123902286Y-49540381D02*
X123902286Y-48540381D01*
X124473715Y-49540381D01*
X124473715Y-48540381D01*
X124949905Y-49540381D02*
X124949905Y-48540381D01*
X125188000Y-48540381D01*
X125330858Y-48588000D01*
X125426096Y-48683238D01*
X125473715Y-48778476D01*
X125521334Y-48968952D01*
X125521334Y-49111810D01*
X125473715Y-49302286D01*
X125426096Y-49397524D01*
X125330858Y-49492762D01*
X125188000Y-49540381D01*
X124949905Y-49540381D01*
X122854667Y-53540381D02*
X123188000Y-54540381D01*
X123521334Y-53540381D01*
X124426096Y-54445143D02*
X124378477Y-54492762D01*
X124235620Y-54540381D01*
X124140382Y-54540381D01*
X123997524Y-54492762D01*
X123902286Y-54397524D01*
X123854667Y-54302286D01*
X123807048Y-54111810D01*
X123807048Y-53968952D01*
X123854667Y-53778476D01*
X123902286Y-53683238D01*
X123997524Y-53588000D01*
X124140382Y-53540381D01*
X124235620Y-53540381D01*
X124378477Y-53588000D01*
X124426096Y-53635619D01*
X125426096Y-54445143D02*
X125378477Y-54492762D01*
X125235620Y-54540381D01*
X125140382Y-54540381D01*
X124997524Y-54492762D01*
X124902286Y-54397524D01*
X124854667Y-54302286D01*
X124807048Y-54111810D01*
X124807048Y-53968952D01*
X124854667Y-53778476D01*
X124902286Y-53683238D01*
X124997524Y-53588000D01*
X125140382Y-53540381D01*
X125235620Y-53540381D01*
X125378477Y-53588000D01*
X125426096Y-53635619D01*
X116902286Y-44540381D02*
X116902286Y-43540381D01*
X116902286Y-44016571D02*
X117473715Y-44016571D01*
X117473715Y-44540381D02*
X117473715Y-43540381D01*
X122854667Y-50940381D02*
X123188000Y-51940381D01*
X123521334Y-50940381D01*
X127295143Y-103545143D02*
X127247524Y-103592762D01*
X127104667Y-103640381D01*
X127009429Y-103640381D01*
X126866571Y-103592762D01*
X126771333Y-103497524D01*
X126723714Y-103402286D01*
X126676095Y-103211810D01*
X126676095Y-103068952D01*
X126723714Y-102878476D01*
X126771333Y-102783238D01*
X126866571Y-102688000D01*
X127009429Y-102640381D01*
X127104667Y-102640381D01*
X127247524Y-102688000D01*
X127295143Y-102735619D01*
X128247524Y-103640381D02*
X127676095Y-103640381D01*
X127961809Y-103640381D02*
X127961809Y-102640381D01*
X127866571Y-102783238D01*
X127771333Y-102878476D01*
X127676095Y-102926095D01*
X129104667Y-102973714D02*
X129104667Y-103640381D01*
X128866571Y-102592762D02*
X128628476Y-103307048D01*
X129247524Y-103307048D01*
X166370095Y-105116381D02*
X166370095Y-105925905D01*
X166417714Y-106021143D01*
X166465333Y-106068762D01*
X166560571Y-106116381D01*
X166751048Y-106116381D01*
X166846286Y-106068762D01*
X166893905Y-106021143D01*
X166941524Y-105925905D01*
X166941524Y-105116381D01*
X167465333Y-106116381D02*
X167655809Y-106116381D01*
X167751048Y-106068762D01*
X167798667Y-106021143D01*
X167893905Y-105878286D01*
X167941524Y-105687810D01*
X167941524Y-105306857D01*
X167893905Y-105211619D01*
X167846286Y-105164000D01*
X167751048Y-105116381D01*
X167560571Y-105116381D01*
X167465333Y-105164000D01*
X167417714Y-105211619D01*
X167370095Y-105306857D01*
X167370095Y-105544952D01*
X167417714Y-105640190D01*
X167465333Y-105687810D01*
X167560571Y-105735429D01*
X167751048Y-105735429D01*
X167846286Y-105687810D01*
X167893905Y-105640190D01*
X167941524Y-105544952D01*
X157682381Y-105849905D02*
X158491905Y-105849905D01*
X158587143Y-105802286D01*
X158634762Y-105754667D01*
X158682381Y-105659429D01*
X158682381Y-105468952D01*
X158634762Y-105373714D01*
X158587143Y-105326095D01*
X158491905Y-105278476D01*
X157682381Y-105278476D01*
X157682381Y-104897524D02*
X157682381Y-104278476D01*
X158063333Y-104611810D01*
X158063333Y-104468952D01*
X158110952Y-104373714D01*
X158158571Y-104326095D01*
X158253810Y-104278476D01*
X158491905Y-104278476D01*
X158587143Y-104326095D01*
X158634762Y-104373714D01*
X158682381Y-104468952D01*
X158682381Y-104754667D01*
X158634762Y-104849905D01*
X158587143Y-104897524D01*
X145458571Y-106790430D02*
X145458571Y-106457096D01*
X145982381Y-106314239D02*
X145982381Y-106790430D01*
X144982381Y-106790430D01*
X144982381Y-106314239D01*
X145934762Y-105933287D02*
X145982381Y-105838049D01*
X145982381Y-105647573D01*
X145934762Y-105552334D01*
X145839524Y-105504715D01*
X145791905Y-105504715D01*
X145696667Y-105552334D01*
X145649048Y-105647573D01*
X145649048Y-105790430D01*
X145601429Y-105885668D01*
X145506190Y-105933287D01*
X145458571Y-105933287D01*
X145363333Y-105885668D01*
X145315714Y-105790430D01*
X145315714Y-105647573D01*
X145363333Y-105552334D01*
X145315714Y-105076144D02*
X146315714Y-105076144D01*
X145363333Y-105076144D02*
X145315714Y-104980906D01*
X145315714Y-104790429D01*
X145363333Y-104695191D01*
X145410952Y-104647572D01*
X145506190Y-104599953D01*
X145791905Y-104599953D01*
X145887143Y-104647572D01*
X145934762Y-104695191D01*
X145982381Y-104790429D01*
X145982381Y-104980906D01*
X145934762Y-105076144D01*
X145982381Y-104171382D02*
X145315714Y-104171382D01*
X145506190Y-104171382D02*
X145410952Y-104123763D01*
X145363333Y-104076144D01*
X145315714Y-103980906D01*
X145315714Y-103885667D01*
X145934762Y-103171381D02*
X145982381Y-103266619D01*
X145982381Y-103457096D01*
X145934762Y-103552334D01*
X145839524Y-103599953D01*
X145458571Y-103599953D01*
X145363333Y-103552334D01*
X145315714Y-103457096D01*
X145315714Y-103266619D01*
X145363333Y-103171381D01*
X145458571Y-103123762D01*
X145553810Y-103123762D01*
X145649048Y-103599953D01*
X145934762Y-102742810D02*
X145982381Y-102647572D01*
X145982381Y-102457096D01*
X145934762Y-102361857D01*
X145839524Y-102314238D01*
X145791905Y-102314238D01*
X145696667Y-102361857D01*
X145649048Y-102457096D01*
X145649048Y-102599953D01*
X145601429Y-102695191D01*
X145506190Y-102742810D01*
X145458571Y-102742810D01*
X145363333Y-102695191D01*
X145315714Y-102599953D01*
X145315714Y-102457096D01*
X145363333Y-102361857D01*
X145934762Y-101933286D02*
X145982381Y-101838048D01*
X145982381Y-101647572D01*
X145934762Y-101552333D01*
X145839524Y-101504714D01*
X145791905Y-101504714D01*
X145696667Y-101552333D01*
X145649048Y-101647572D01*
X145649048Y-101790429D01*
X145601429Y-101885667D01*
X145506190Y-101933286D01*
X145458571Y-101933286D01*
X145363333Y-101885667D01*
X145315714Y-101790429D01*
X145315714Y-101647572D01*
X145363333Y-101552333D01*
X145982381Y-101076143D02*
X145315714Y-101076143D01*
X144982381Y-101076143D02*
X145030000Y-101123762D01*
X145077619Y-101076143D01*
X145030000Y-101028524D01*
X144982381Y-101076143D01*
X145077619Y-101076143D01*
X145315714Y-100742810D02*
X145315714Y-100361858D01*
X145982381Y-100599953D02*
X145125238Y-100599953D01*
X145030000Y-100552334D01*
X144982381Y-100457096D01*
X144982381Y-100361858D01*
X145934762Y-99314238D02*
X145982381Y-99171381D01*
X145982381Y-98933285D01*
X145934762Y-98838047D01*
X145887143Y-98790428D01*
X145791905Y-98742809D01*
X145696667Y-98742809D01*
X145601429Y-98790428D01*
X145553810Y-98838047D01*
X145506190Y-98933285D01*
X145458571Y-99123762D01*
X145410952Y-99219000D01*
X145363333Y-99266619D01*
X145268095Y-99314238D01*
X145172857Y-99314238D01*
X145077619Y-99266619D01*
X145030000Y-99219000D01*
X144982381Y-99123762D01*
X144982381Y-98885666D01*
X145030000Y-98742809D01*
X145315714Y-98409476D02*
X145982381Y-98171381D01*
X145315714Y-97933285D02*
X145982381Y-98171381D01*
X146220476Y-98266619D01*
X146268095Y-98314238D01*
X146315714Y-98409476D01*
X145934762Y-97599952D02*
X145982381Y-97504714D01*
X145982381Y-97314238D01*
X145934762Y-97218999D01*
X145839524Y-97171380D01*
X145791905Y-97171380D01*
X145696667Y-97218999D01*
X145649048Y-97314238D01*
X145649048Y-97457095D01*
X145601429Y-97552333D01*
X145506190Y-97599952D01*
X145458571Y-97599952D01*
X145363333Y-97552333D01*
X145315714Y-97457095D01*
X145315714Y-97314238D01*
X145363333Y-97218999D01*
X145315714Y-96885666D02*
X145315714Y-96504714D01*
X144982381Y-96742809D02*
X145839524Y-96742809D01*
X145934762Y-96695190D01*
X145982381Y-96599952D01*
X145982381Y-96504714D01*
X145934762Y-95790427D02*
X145982381Y-95885665D01*
X145982381Y-96076142D01*
X145934762Y-96171380D01*
X145839524Y-96218999D01*
X145458571Y-96218999D01*
X145363333Y-96171380D01*
X145315714Y-96076142D01*
X145315714Y-95885665D01*
X145363333Y-95790427D01*
X145458571Y-95742808D01*
X145553810Y-95742808D01*
X145649048Y-96218999D01*
X145982381Y-95314237D02*
X145315714Y-95314237D01*
X145410952Y-95314237D02*
X145363333Y-95266618D01*
X145315714Y-95171380D01*
X145315714Y-95028522D01*
X145363333Y-94933284D01*
X145458571Y-94885665D01*
X145982381Y-94885665D01*
X145458571Y-94885665D02*
X145363333Y-94838046D01*
X145315714Y-94742808D01*
X145315714Y-94599951D01*
X145363333Y-94504713D01*
X145458571Y-94457094D01*
X145982381Y-94457094D01*
X145934762Y-94028523D02*
X145982381Y-93933285D01*
X145982381Y-93742809D01*
X145934762Y-93647570D01*
X145839524Y-93599951D01*
X145791905Y-93599951D01*
X145696667Y-93647570D01*
X145649048Y-93742809D01*
X145649048Y-93885666D01*
X145601429Y-93980904D01*
X145506190Y-94028523D01*
X145458571Y-94028523D01*
X145363333Y-93980904D01*
X145315714Y-93885666D01*
X145315714Y-93742809D01*
X145363333Y-93647570D01*
X147109571Y-106814381D02*
X147109571Y-106481047D01*
X147633381Y-106338190D02*
X147633381Y-106814381D01*
X146633381Y-106814381D01*
X146633381Y-106338190D01*
X147585762Y-105957238D02*
X147633381Y-105814381D01*
X147633381Y-105576285D01*
X147585762Y-105481047D01*
X147538143Y-105433428D01*
X147442905Y-105385809D01*
X147347667Y-105385809D01*
X147252429Y-105433428D01*
X147204810Y-105481047D01*
X147157190Y-105576285D01*
X147109571Y-105766762D01*
X147061952Y-105862000D01*
X147014333Y-105909619D01*
X146919095Y-105957238D01*
X146823857Y-105957238D01*
X146728619Y-105909619D01*
X146681000Y-105862000D01*
X146633381Y-105766762D01*
X146633381Y-105528666D01*
X146681000Y-105385809D01*
X147633381Y-104957238D02*
X146633381Y-104957238D01*
X146633381Y-104576285D01*
X146681000Y-104481047D01*
X146728619Y-104433428D01*
X146823857Y-104385809D01*
X146966714Y-104385809D01*
X147061952Y-104433428D01*
X147109571Y-104481047D01*
X147157190Y-104576285D01*
X147157190Y-104957238D01*
X146633381Y-104052476D02*
X146633381Y-103433428D01*
X147014333Y-103766762D01*
X147014333Y-103623904D01*
X147061952Y-103528666D01*
X147109571Y-103481047D01*
X147204810Y-103433428D01*
X147442905Y-103433428D01*
X147538143Y-103481047D01*
X147585762Y-103528666D01*
X147633381Y-103623904D01*
X147633381Y-103909619D01*
X147585762Y-104004857D01*
X147538143Y-104052476D01*
X146728619Y-103052476D02*
X146681000Y-103004857D01*
X146633381Y-102909619D01*
X146633381Y-102671523D01*
X146681000Y-102576285D01*
X146728619Y-102528666D01*
X146823857Y-102481047D01*
X146919095Y-102481047D01*
X147061952Y-102528666D01*
X147633381Y-103100095D01*
X147633381Y-102481047D01*
X147252429Y-102052476D02*
X147252429Y-101290571D01*
X146633381Y-100909619D02*
X147633381Y-100671524D01*
X146919095Y-100481047D01*
X147633381Y-100290571D01*
X146633381Y-100052476D01*
X147633381Y-99100095D02*
X147157190Y-99433429D01*
X147633381Y-99671524D02*
X146633381Y-99671524D01*
X146633381Y-99290571D01*
X146681000Y-99195333D01*
X146728619Y-99147714D01*
X146823857Y-99100095D01*
X146966714Y-99100095D01*
X147061952Y-99147714D01*
X147109571Y-99195333D01*
X147157190Y-99290571D01*
X147157190Y-99671524D01*
X146633381Y-98481048D02*
X146633381Y-98290571D01*
X146681000Y-98195333D01*
X146776238Y-98100095D01*
X146966714Y-98052476D01*
X147300048Y-98052476D01*
X147490524Y-98100095D01*
X147585762Y-98195333D01*
X147633381Y-98290571D01*
X147633381Y-98481048D01*
X147585762Y-98576286D01*
X147490524Y-98671524D01*
X147300048Y-98719143D01*
X146966714Y-98719143D01*
X146776238Y-98671524D01*
X146681000Y-98576286D01*
X146633381Y-98481048D01*
X146633381Y-97433429D02*
X146633381Y-97242952D01*
X146681000Y-97147714D01*
X146776238Y-97052476D01*
X146966714Y-97004857D01*
X147300048Y-97004857D01*
X147490524Y-97052476D01*
X147585762Y-97147714D01*
X147633381Y-97242952D01*
X147633381Y-97433429D01*
X147585762Y-97528667D01*
X147490524Y-97623905D01*
X147300048Y-97671524D01*
X146966714Y-97671524D01*
X146776238Y-97623905D01*
X146681000Y-97528667D01*
X146633381Y-97433429D01*
X147633381Y-96576286D02*
X146633381Y-96576286D01*
X147347667Y-96242952D01*
X146633381Y-95909619D01*
X147633381Y-95909619D01*
X164045143Y-99730857D02*
X164092762Y-99778476D01*
X164140381Y-99921333D01*
X164140381Y-100016571D01*
X164092762Y-100159429D01*
X163997524Y-100254667D01*
X163902286Y-100302286D01*
X163711810Y-100349905D01*
X163568952Y-100349905D01*
X163378476Y-100302286D01*
X163283238Y-100254667D01*
X163188000Y-100159429D01*
X163140381Y-100016571D01*
X163140381Y-99921333D01*
X163188000Y-99778476D01*
X163235619Y-99730857D01*
X164140381Y-98778476D02*
X164140381Y-99349905D01*
X164140381Y-99064191D02*
X163140381Y-99064191D01*
X163283238Y-99159429D01*
X163378476Y-99254667D01*
X163426095Y-99349905D01*
X163140381Y-97873714D02*
X163140381Y-98349905D01*
X163616571Y-98397524D01*
X163568952Y-98349905D01*
X163521333Y-98254667D01*
X163521333Y-98016571D01*
X163568952Y-97921333D01*
X163616571Y-97873714D01*
X163711810Y-97826095D01*
X163949905Y-97826095D01*
X164045143Y-97873714D01*
X164092762Y-97921333D01*
X164140381Y-98016571D01*
X164140381Y-98254667D01*
X164092762Y-98349905D01*
X164045143Y-98397524D01*
X175760143Y-108180143D02*
X175712524Y-108227762D01*
X175569667Y-108275381D01*
X175474429Y-108275381D01*
X175331571Y-108227762D01*
X175236333Y-108132524D01*
X175188714Y-108037286D01*
X175141095Y-107846810D01*
X175141095Y-107703952D01*
X175188714Y-107513476D01*
X175236333Y-107418238D01*
X175331571Y-107323000D01*
X175474429Y-107275381D01*
X175569667Y-107275381D01*
X175712524Y-107323000D01*
X175760143Y-107370619D01*
X176712524Y-108275381D02*
X176141095Y-108275381D01*
X176426809Y-108275381D02*
X176426809Y-107275381D01*
X176331571Y-107418238D01*
X176236333Y-107513476D01*
X176141095Y-107561095D01*
X177569667Y-107275381D02*
X177379190Y-107275381D01*
X177283952Y-107323000D01*
X177236333Y-107370619D01*
X177141095Y-107513476D01*
X177093476Y-107703952D01*
X177093476Y-108084905D01*
X177141095Y-108180143D01*
X177188714Y-108227762D01*
X177283952Y-108275381D01*
X177474429Y-108275381D01*
X177569667Y-108227762D01*
X177617286Y-108180143D01*
X177664905Y-108084905D01*
X177664905Y-107846810D01*
X177617286Y-107751571D01*
X177569667Y-107703952D01*
X177474429Y-107656333D01*
X177283952Y-107656333D01*
X177188714Y-107703952D01*
X177141095Y-107751571D01*
X177093476Y-107846810D01*
X175760143Y-109450143D02*
X175712524Y-109497762D01*
X175569667Y-109545381D01*
X175474429Y-109545381D01*
X175331571Y-109497762D01*
X175236333Y-109402524D01*
X175188714Y-109307286D01*
X175141095Y-109116810D01*
X175141095Y-108973952D01*
X175188714Y-108783476D01*
X175236333Y-108688238D01*
X175331571Y-108593000D01*
X175474429Y-108545381D01*
X175569667Y-108545381D01*
X175712524Y-108593000D01*
X175760143Y-108640619D01*
X176712524Y-109545381D02*
X176141095Y-109545381D01*
X176426809Y-109545381D02*
X176426809Y-108545381D01*
X176331571Y-108688238D01*
X176236333Y-108783476D01*
X176141095Y-108831095D01*
X177045857Y-108545381D02*
X177712524Y-108545381D01*
X177283952Y-109545381D01*
X137995143Y-101290381D02*
X137661809Y-100814190D01*
X137423714Y-101290381D02*
X137423714Y-100290381D01*
X137804667Y-100290381D01*
X137899905Y-100338000D01*
X137947524Y-100385619D01*
X137995143Y-100480857D01*
X137995143Y-100623714D01*
X137947524Y-100718952D01*
X137899905Y-100766571D01*
X137804667Y-100814190D01*
X137423714Y-100814190D01*
X138947524Y-101290381D02*
X138376095Y-101290381D01*
X138661809Y-101290381D02*
X138661809Y-100290381D01*
X138566571Y-100433238D01*
X138471333Y-100528476D01*
X138376095Y-100576095D01*
X139280857Y-100290381D02*
X139899905Y-100290381D01*
X139566571Y-100671333D01*
X139709429Y-100671333D01*
X139804667Y-100718952D01*
X139852286Y-100766571D01*
X139899905Y-100861810D01*
X139899905Y-101099905D01*
X139852286Y-101195143D01*
X139804667Y-101242762D01*
X139709429Y-101290381D01*
X139423714Y-101290381D01*
X139328476Y-101242762D01*
X139280857Y-101195143D01*
X141242762Y-109871333D02*
X141290381Y-109728476D01*
X141290381Y-109490380D01*
X141242762Y-109395142D01*
X141195143Y-109347523D01*
X141099905Y-109299904D01*
X141004667Y-109299904D01*
X140909429Y-109347523D01*
X140861810Y-109395142D01*
X140814190Y-109490380D01*
X140766571Y-109680857D01*
X140718952Y-109776095D01*
X140671333Y-109823714D01*
X140576095Y-109871333D01*
X140480857Y-109871333D01*
X140385619Y-109823714D01*
X140338000Y-109776095D01*
X140290381Y-109680857D01*
X140290381Y-109442761D01*
X140338000Y-109299904D01*
X140290381Y-108966571D02*
X141290381Y-108728476D01*
X140576095Y-108537999D01*
X141290381Y-108347523D01*
X140290381Y-108109428D01*
X141290381Y-107204666D02*
X141290381Y-107776095D01*
X141290381Y-107490381D02*
X140290381Y-107490381D01*
X140433238Y-107585619D01*
X140528476Y-107680857D01*
X140576095Y-107776095D01*
X138110381Y-67556095D02*
X138919905Y-67556095D01*
X139015143Y-67508476D01*
X139062762Y-67460857D01*
X139110381Y-67365619D01*
X139110381Y-67175142D01*
X139062762Y-67079904D01*
X139015143Y-67032285D01*
X138919905Y-66984666D01*
X138110381Y-66984666D01*
X139110381Y-65984666D02*
X139110381Y-66556095D01*
X139110381Y-66270381D02*
X138110381Y-66270381D01*
X138253238Y-66365619D01*
X138348476Y-66460857D01*
X138396095Y-66556095D01*
X138110381Y-65651333D02*
X138110381Y-65032285D01*
X138491333Y-65365619D01*
X138491333Y-65222761D01*
X138538952Y-65127523D01*
X138586571Y-65079904D01*
X138681810Y-65032285D01*
X138919905Y-65032285D01*
X139015143Y-65079904D01*
X139062762Y-65127523D01*
X139110381Y-65222761D01*
X139110381Y-65508476D01*
X139062762Y-65603714D01*
X139015143Y-65651333D01*
X132140381Y-71349905D02*
X132949905Y-71349905D01*
X133045143Y-71302286D01*
X133092762Y-71254667D01*
X133140381Y-71159429D01*
X133140381Y-70968952D01*
X133092762Y-70873714D01*
X133045143Y-70826095D01*
X132949905Y-70778476D01*
X132140381Y-70778476D01*
X133140381Y-69778476D02*
X133140381Y-70349905D01*
X133140381Y-70064191D02*
X132140381Y-70064191D01*
X132283238Y-70159429D01*
X132378476Y-70254667D01*
X132426095Y-70349905D01*
X133140381Y-52421333D02*
X132664190Y-52754667D01*
X133140381Y-52992762D02*
X132140381Y-52992762D01*
X132140381Y-52611809D01*
X132188000Y-52516571D01*
X132235619Y-52468952D01*
X132330857Y-52421333D01*
X132473714Y-52421333D01*
X132568952Y-52468952D01*
X132616571Y-52516571D01*
X132664190Y-52611809D01*
X132664190Y-52992762D01*
X132616571Y-51659428D02*
X132616571Y-51992762D01*
X133140381Y-51992762D02*
X132140381Y-51992762D01*
X132140381Y-51516571D01*
X132473714Y-50707047D02*
X133140381Y-50707047D01*
X132092762Y-50945143D02*
X132807048Y-51183238D01*
X132807048Y-50564190D01*
X133140381Y-50183238D02*
X132140381Y-50183238D01*
X133140381Y-49707048D02*
X132140381Y-49707048D01*
X133140381Y-49135619D01*
X132140381Y-49135619D01*
X133140381Y-48135619D02*
X133140381Y-48707048D01*
X133140381Y-48421334D02*
X132140381Y-48421334D01*
X132283238Y-48516572D01*
X132378476Y-48611810D01*
X132426095Y-48707048D01*
X127902286Y-105316571D02*
X128045143Y-105364190D01*
X128092762Y-105411810D01*
X128140381Y-105507048D01*
X128140381Y-105649905D01*
X128092762Y-105745143D01*
X128045143Y-105792762D01*
X127949905Y-105840381D01*
X127568952Y-105840381D01*
X127568952Y-104840381D01*
X127902286Y-104840381D01*
X127997524Y-104888000D01*
X128045143Y-104935619D01*
X128092762Y-105030857D01*
X128092762Y-105126095D01*
X128045143Y-105221333D01*
X127997524Y-105268952D01*
X127902286Y-105316571D01*
X127568952Y-105316571D01*
X128426095Y-104840381D02*
X128997524Y-104840381D01*
X128711809Y-105840381D02*
X128711809Y-104840381D01*
X129854667Y-105840381D02*
X129283238Y-105840381D01*
X129568952Y-105840381D02*
X129568952Y-104840381D01*
X129473714Y-104983238D01*
X129378476Y-105078476D01*
X129283238Y-105126095D01*
X138520381Y-79889905D02*
X139329905Y-79889905D01*
X139425143Y-79842286D01*
X139472762Y-79794667D01*
X139520381Y-79699429D01*
X139520381Y-79508952D01*
X139472762Y-79413714D01*
X139425143Y-79366095D01*
X139329905Y-79318476D01*
X138520381Y-79318476D01*
X138853714Y-78413714D02*
X139520381Y-78413714D01*
X138472762Y-78651810D02*
X139187048Y-78889905D01*
X139187048Y-78270857D01*
X117604667Y-106290381D02*
X117604667Y-107004667D01*
X117557047Y-107147524D01*
X117461809Y-107242762D01*
X117318952Y-107290381D01*
X117223714Y-107290381D01*
X118509429Y-106623714D02*
X118509429Y-107290381D01*
X118271333Y-106242762D02*
X118033238Y-106957048D01*
X118652286Y-106957048D01*
M02*
