%TF.GenerationSoftware,KiCad,Pcbnew,4.0.7-e2-6376~61~ubuntu18.04.1*%
%TF.CreationDate,2018-06-03T07:13:52+02:00*%
%TF.ProjectId,esp32_radio,65737033325F726164696F2E6B696361,V0.1*%
%TF.FileFunction,Paste,Top*%
%FSLAX46Y46*%
G04 Gerber Fmt 4.6, Leading zero omitted, Abs format (unit mm)*
G04 Created by KiCad (PCBNEW 4.0.7-e2-6376~61~ubuntu18.04.1) date Sun Jun  3 07:13:52 2018*
%MOMM*%
%LPD*%
G01*
G04 APERTURE LIST*
%ADD10C,0.100000*%
%ADD11C,0.150000*%
%ADD12R,1.250000X1.000000*%
%ADD13R,2.000000X1.450000*%
%ADD14R,1.500000X0.800000*%
%ADD15R,0.850000X0.300000*%
%ADD16R,0.300000X0.850000*%
%ADD17R,0.780000X0.780000*%
%ADD18O,0.300000X0.750000*%
%ADD19O,0.750000X0.300000*%
%ADD20R,0.540000X0.540000*%
%ADD21R,1.000000X1.250000*%
%ADD22R,1.200000X0.900000*%
%ADD23R,1.200000X1.200000*%
%ADD24R,1.524000X4.064000*%
%ADD25R,0.970000X1.270000*%
%ADD26R,1.300000X0.700000*%
%ADD27R,0.900000X0.800000*%
%ADD28R,0.700000X1.300000*%
%ADD29R,1.060000X0.650000*%
%ADD30R,1.220000X0.650000*%
%ADD31R,0.600000X1.500000*%
%ADD32R,0.450000X1.500000*%
%ADD33O,2.500000X0.900000*%
%ADD34O,0.900000X2.500000*%
%ADD35R,6.000000X6.000000*%
%ADD36R,1.100000X1.800000*%
%ADD37R,1.270000X2.540000*%
%ADD38R,0.450000X1.300000*%
G04 APERTURE END LIST*
D10*
D11*
X107188000Y-109088000D02*
G75*
G03X112188000Y-114088000I5000000J0D01*
G01*
X182188000Y-114088000D02*
G75*
G03X187188000Y-109088000I0J5000000D01*
G01*
X187188000Y-44088000D02*
G75*
G03X182188000Y-39088000I-5000000J0D01*
G01*
X112188000Y-39088000D02*
G75*
G03X107188000Y-44088000I0J-5000000D01*
G01*
X182188000Y-39088000D02*
X112188000Y-39088000D01*
X187188000Y-109088000D02*
X187188000Y-44088000D01*
X112188000Y-114088000D02*
X182188000Y-114088000D01*
X107188000Y-44088000D02*
X107188000Y-109088000D01*
D12*
X121438000Y-96838000D03*
X121438000Y-94838000D03*
D13*
X185188000Y-96863000D03*
X185188000Y-83113000D03*
X176888000Y-83113000D03*
X176888000Y-96863000D03*
D14*
X182588000Y-94488000D03*
X182588000Y-93388000D03*
X182588000Y-92288000D03*
X182588000Y-91188000D03*
X182588000Y-90088000D03*
X182588000Y-88988000D03*
X182588000Y-87888000D03*
X182588000Y-86788000D03*
D15*
X126238000Y-96438000D03*
X126238000Y-96938000D03*
X126238000Y-97438000D03*
X126238000Y-97938000D03*
X126238000Y-98438000D03*
X126238000Y-98938000D03*
D16*
X126938000Y-99638000D03*
X127438000Y-99638000D03*
X127938000Y-99638000D03*
X128438000Y-99638000D03*
X128938000Y-99638000D03*
X129438000Y-99638000D03*
D15*
X130138000Y-98938000D03*
X130138000Y-98438000D03*
X130138000Y-97938000D03*
X130138000Y-97438000D03*
X130138000Y-96938000D03*
X130138000Y-96438000D03*
D16*
X129438000Y-95738000D03*
X128938000Y-95738000D03*
X128438000Y-95738000D03*
X127938000Y-95738000D03*
X127438000Y-95738000D03*
X126938000Y-95738000D03*
D17*
X128838000Y-98338000D03*
X128838000Y-97038000D03*
X127538000Y-98338000D03*
X127538000Y-97038000D03*
D18*
X122463000Y-79313000D03*
X122963000Y-79313000D03*
X123463000Y-79313000D03*
X123963000Y-79313000D03*
D19*
X124688000Y-78588000D03*
X124688000Y-78088000D03*
X124688000Y-77588000D03*
X124688000Y-77088000D03*
D18*
X123963000Y-76363000D03*
X123463000Y-76363000D03*
X122963000Y-76363000D03*
X122463000Y-76363000D03*
D19*
X121738000Y-77088000D03*
X121738000Y-77588000D03*
X121738000Y-78088000D03*
X121738000Y-78588000D03*
D20*
X123663000Y-77388000D03*
X122763000Y-77388000D03*
X123663000Y-78288000D03*
X122763000Y-78288000D03*
D21*
X114688000Y-96588000D03*
X112688000Y-96588000D03*
D12*
X119188000Y-96838000D03*
X119188000Y-94838000D03*
X123538000Y-96838000D03*
X123538000Y-94838000D03*
D21*
X117188000Y-105088000D03*
X115188000Y-105088000D03*
X128688000Y-79088000D03*
X126688000Y-79088000D03*
D12*
X128188000Y-72088000D03*
X128188000Y-74088000D03*
D21*
X128688000Y-76588000D03*
X126688000Y-76588000D03*
D12*
X120688000Y-72088000D03*
X120688000Y-74088000D03*
X174888000Y-101538000D03*
X174888000Y-99538000D03*
X177388000Y-101538000D03*
X177388000Y-99538000D03*
D21*
X167138000Y-111238000D03*
X169138000Y-111238000D03*
D22*
X110438000Y-97688000D03*
X110438000Y-100988000D03*
D23*
X111588000Y-102838000D03*
X113788000Y-102838000D03*
D24*
X147188000Y-41588000D03*
X149728000Y-41588000D03*
X144648000Y-41588000D03*
D25*
X116188000Y-85088000D03*
X117468000Y-85088000D03*
D26*
X123188000Y-72138000D03*
X123188000Y-74038000D03*
X125688000Y-72138000D03*
X125688000Y-74038000D03*
D27*
X112688000Y-98888000D03*
X112688000Y-100788000D03*
X114688000Y-99838000D03*
X132438000Y-99738000D03*
X132438000Y-101638000D03*
X134438000Y-100688000D03*
X132438000Y-95988000D03*
X132438000Y-97888000D03*
X134438000Y-96938000D03*
X116688000Y-69038000D03*
X116688000Y-67138000D03*
X114688000Y-68088000D03*
D28*
X111238000Y-105088000D03*
X113138000Y-105088000D03*
D26*
X116688000Y-98888000D03*
X116688000Y-100788000D03*
D28*
X117688000Y-102838000D03*
X115788000Y-102838000D03*
X134388000Y-93938000D03*
X132488000Y-93938000D03*
X134388000Y-91688000D03*
X132488000Y-91688000D03*
D26*
X123438000Y-98888000D03*
X123438000Y-100788000D03*
X166338000Y-92038000D03*
X166338000Y-93938000D03*
X112188000Y-84138000D03*
X112188000Y-86038000D03*
D28*
X126738000Y-81588000D03*
X128638000Y-81588000D03*
D26*
X179888000Y-101488000D03*
X179888000Y-99588000D03*
X182370000Y-99588000D03*
X182370000Y-101488000D03*
X184888000Y-99588000D03*
X184888000Y-101488000D03*
D29*
X118838000Y-98888000D03*
X118838000Y-99838000D03*
X118838000Y-100788000D03*
X121038000Y-100788000D03*
X121038000Y-98888000D03*
D30*
X119628000Y-102638000D03*
X119628000Y-103588000D03*
X119628000Y-104538000D03*
X122248000Y-104538000D03*
X122248000Y-102638000D03*
D31*
X185033000Y-72038000D03*
X183763000Y-72038000D03*
X182493000Y-72038000D03*
X181223000Y-72038000D03*
X179953000Y-72038000D03*
X178683000Y-72038000D03*
X177413000Y-72038000D03*
X176143000Y-72038000D03*
X176143000Y-77438000D03*
X177413000Y-77438000D03*
X178683000Y-77438000D03*
X179953000Y-77438000D03*
X181223000Y-77438000D03*
X182493000Y-77438000D03*
X183763000Y-77438000D03*
X185033000Y-77438000D03*
D21*
X126938000Y-101438000D03*
X128938000Y-101438000D03*
D32*
X170838000Y-102738000D03*
X170188000Y-102738000D03*
X169538000Y-102738000D03*
X168888000Y-102738000D03*
X168238000Y-102738000D03*
X167588000Y-102738000D03*
X166938000Y-102738000D03*
X166288000Y-102738000D03*
X166288000Y-108638000D03*
X166938000Y-108638000D03*
X167588000Y-108638000D03*
X168238000Y-108638000D03*
X168888000Y-108638000D03*
X169538000Y-108638000D03*
X170188000Y-108638000D03*
X170838000Y-108638000D03*
D33*
X143388000Y-106358000D03*
X143388000Y-105088000D03*
X143388000Y-103818000D03*
X143388000Y-102548000D03*
X143388000Y-101278000D03*
X143388000Y-100008000D03*
X143388000Y-98738000D03*
X143388000Y-97468000D03*
X143388000Y-96198000D03*
X143388000Y-94928000D03*
X143388000Y-93658000D03*
X143388000Y-92388000D03*
X143388000Y-91118000D03*
D34*
X146673000Y-88358000D03*
X147943000Y-88358000D03*
X149213000Y-88358000D03*
X150483000Y-88358000D03*
X151753000Y-88358000D03*
X153023000Y-88358000D03*
X154293000Y-88358000D03*
X155563000Y-88358000D03*
X156833000Y-88358000D03*
X158103000Y-88358000D03*
D33*
X161388000Y-89848000D03*
X161388000Y-91118000D03*
X161388000Y-92388000D03*
X161388000Y-93658000D03*
X161388000Y-94928000D03*
X161388000Y-96198000D03*
X161388000Y-97468000D03*
X161388000Y-98738000D03*
X161388000Y-100008000D03*
X161388000Y-101278000D03*
X161388000Y-102548000D03*
X161388000Y-103818000D03*
X161388000Y-105088000D03*
X161388000Y-106358000D03*
D35*
X152688000Y-98658000D03*
D33*
X143388000Y-89848000D03*
X143498000Y-88578000D03*
X143498000Y-87308000D03*
X143498000Y-86038000D03*
X143498000Y-84768000D03*
X143498000Y-83498000D03*
X161388000Y-88578000D03*
X161388000Y-87308000D03*
X161388000Y-86038000D03*
X161388000Y-84768000D03*
X161278000Y-83498000D03*
D12*
X165188000Y-100088000D03*
X165188000Y-98088000D03*
D21*
X173498000Y-103632000D03*
X175498000Y-103632000D03*
X173498000Y-105918000D03*
X175498000Y-105918000D03*
D28*
X137688000Y-102488000D03*
X139588000Y-102488000D03*
D36*
X139088000Y-105438000D03*
X139088000Y-111638000D03*
X135388000Y-105438000D03*
X135388000Y-111638000D03*
D37*
X136688000Y-72588000D03*
X138688000Y-72588000D03*
X140688000Y-72588000D03*
X142688000Y-72588000D03*
X144688000Y-72588000D03*
X146688000Y-72588000D03*
X148688000Y-72588000D03*
X150688000Y-72588000D03*
X152688000Y-72588000D03*
X154688000Y-72588000D03*
X156688000Y-72588000D03*
X158688000Y-72588000D03*
X158688000Y-46588000D03*
X138688000Y-46588000D03*
X156688000Y-46588000D03*
X136688000Y-46588000D03*
X145188000Y-46588000D03*
X147188000Y-46588000D03*
X149188000Y-46588000D03*
X160688000Y-72588000D03*
D38*
X116638000Y-108438000D03*
X117288000Y-108438000D03*
X117938000Y-108438000D03*
X118588000Y-108438000D03*
X119238000Y-108438000D03*
D28*
X168082000Y-88392000D03*
X166182000Y-88392000D03*
X172908000Y-110998000D03*
X171008000Y-110998000D03*
D26*
X179832000Y-105344000D03*
X179832000Y-103444000D03*
X168656000Y-77536000D03*
X168656000Y-79436000D03*
X166624000Y-77536000D03*
X166624000Y-79436000D03*
X164338000Y-77536000D03*
X164338000Y-79436000D03*
X162052000Y-77536000D03*
X162052000Y-79436000D03*
X159766000Y-77536000D03*
X159766000Y-79436000D03*
M02*
