%TF.GenerationSoftware,KiCad,Pcbnew,4.0.7-e2-6376~61~ubuntu18.04.1*%
%TF.CreationDate,2018-06-03T07:13:52+02:00*%
%TF.ProjectId,esp32_radio,65737033325F726164696F2E6B696361,V0.1*%
%TF.FileFunction,Paste,Bot*%
%FSLAX46Y46*%
G04 Gerber Fmt 4.6, Leading zero omitted, Abs format (unit mm)*
G04 Created by KiCad (PCBNEW 4.0.7-e2-6376~61~ubuntu18.04.1) date Sun Jun  3 07:13:52 2018*
%MOMM*%
%LPD*%
G01*
G04 APERTURE LIST*
%ADD10C,0.100000*%
%ADD11C,0.150000*%
%ADD12R,4.000000X0.400000*%
%ADD13R,1.250000X1.000000*%
%ADD14R,1.524000X4.064000*%
%ADD15R,1.600000X1.000000*%
G04 APERTURE END LIST*
D10*
D11*
X107188000Y-109088000D02*
G75*
G03X112188000Y-114088000I5000000J0D01*
G01*
X182188000Y-114088000D02*
G75*
G03X187188000Y-109088000I0J5000000D01*
G01*
X187188000Y-44088000D02*
G75*
G03X182188000Y-39088000I-5000000J0D01*
G01*
X112188000Y-39088000D02*
G75*
G03X107188000Y-44088000I0J-5000000D01*
G01*
X182188000Y-39088000D02*
X112188000Y-39088000D01*
X187188000Y-109088000D02*
X187188000Y-44088000D01*
X112188000Y-114088000D02*
X182188000Y-114088000D01*
X107188000Y-44088000D02*
X107188000Y-109088000D01*
D12*
X162188000Y-85488000D03*
X162188000Y-86288000D03*
X162188000Y-87088000D03*
X162188000Y-87888000D03*
X162188000Y-88688000D03*
X162188000Y-89488000D03*
X162188000Y-90288000D03*
X162188000Y-91088000D03*
X162188000Y-91888000D03*
X162188000Y-92688000D03*
X162188000Y-93488000D03*
X162188000Y-94288000D03*
X162188000Y-95088000D03*
X162188000Y-95888000D03*
X162188000Y-96688000D03*
X162188000Y-97488000D03*
X162188000Y-98288000D03*
X162188000Y-99088000D03*
D13*
X141688000Y-57588000D03*
X141688000Y-55588000D03*
D14*
X149728000Y-41588000D03*
X144648000Y-41588000D03*
D15*
X149688000Y-55016800D03*
X149688000Y-58216800D03*
X144688000Y-55016800D03*
X144688000Y-58216800D03*
M02*
