G04 #@! TF.FileFunction,Legend,Bot*
%FSLAX46Y46*%
G04 Gerber Fmt 4.6, Leading zero omitted, Abs format (unit mm)*
G04 Created by KiCad (PCBNEW 4.0.7-e2-6376~61~ubuntu18.04.1) date Sat Jun  2 02:29:43 2018*
%MOMM*%
%LPD*%
G01*
G04 APERTURE LIST*
%ADD10C,0.100000*%
%ADD11C,0.300000*%
%ADD12C,0.150000*%
%ADD13C,0.120000*%
%ADD14C,0.010000*%
%ADD15C,0.125000*%
G04 APERTURE END LIST*
D10*
D11*
X141795142Y-60895143D02*
X141580856Y-60966571D01*
X141223713Y-60966571D01*
X141080856Y-60895143D01*
X141009427Y-60823714D01*
X140937999Y-60680857D01*
X140937999Y-60538000D01*
X141009427Y-60395143D01*
X141080856Y-60323714D01*
X141223713Y-60252286D01*
X141509427Y-60180857D01*
X141652285Y-60109429D01*
X141723713Y-60038000D01*
X141795142Y-59895143D01*
X141795142Y-59752286D01*
X141723713Y-59609429D01*
X141652285Y-59538000D01*
X141509427Y-59466571D01*
X141152285Y-59466571D01*
X140937999Y-59538000D01*
X140295142Y-59966571D02*
X140295142Y-61466571D01*
X140295142Y-60038000D02*
X140152285Y-59966571D01*
X139866571Y-59966571D01*
X139723714Y-60038000D01*
X139652285Y-60109429D01*
X139580856Y-60252286D01*
X139580856Y-60680857D01*
X139652285Y-60823714D01*
X139723714Y-60895143D01*
X139866571Y-60966571D01*
X140152285Y-60966571D01*
X140295142Y-60895143D01*
X138366571Y-60895143D02*
X138509428Y-60966571D01*
X138795142Y-60966571D01*
X138937999Y-60895143D01*
X139009428Y-60752286D01*
X139009428Y-60180857D01*
X138937999Y-60038000D01*
X138795142Y-59966571D01*
X138509428Y-59966571D01*
X138366571Y-60038000D01*
X138295142Y-60180857D01*
X138295142Y-60323714D01*
X139009428Y-60466571D01*
X137009428Y-60895143D02*
X137152285Y-60966571D01*
X137437999Y-60966571D01*
X137580857Y-60895143D01*
X137652285Y-60823714D01*
X137723714Y-60680857D01*
X137723714Y-60252286D01*
X137652285Y-60109429D01*
X137580857Y-60038000D01*
X137437999Y-59966571D01*
X137152285Y-59966571D01*
X137009428Y-60038000D01*
X136580857Y-59966571D02*
X136009428Y-59966571D01*
X136366571Y-59466571D02*
X136366571Y-60752286D01*
X136295143Y-60895143D01*
X136152285Y-60966571D01*
X136009428Y-60966571D01*
X135509428Y-60966571D02*
X135509428Y-59966571D01*
X135509428Y-60252286D02*
X135438000Y-60109429D01*
X135366571Y-60038000D01*
X135223714Y-59966571D01*
X135080857Y-59966571D01*
X134009429Y-60895143D02*
X134152286Y-60966571D01*
X134438000Y-60966571D01*
X134580857Y-60895143D01*
X134652286Y-60752286D01*
X134652286Y-60180857D01*
X134580857Y-60038000D01*
X134438000Y-59966571D01*
X134152286Y-59966571D01*
X134009429Y-60038000D01*
X133938000Y-60180857D01*
X133938000Y-60323714D01*
X134652286Y-60466571D01*
X133295143Y-60395143D02*
X132152286Y-60395143D01*
X131652286Y-59466571D02*
X130795143Y-59466571D01*
X131223714Y-60966571D02*
X131223714Y-59466571D01*
X130438000Y-60966571D02*
X129652286Y-59966571D01*
X130438000Y-59966571D02*
X129652286Y-60966571D01*
X155366571Y-63516571D02*
X155366571Y-62016571D01*
X154866571Y-63088000D01*
X154366571Y-62016571D01*
X154366571Y-63516571D01*
X153009428Y-62516571D02*
X153009428Y-63516571D01*
X153652285Y-62516571D02*
X153652285Y-63302286D01*
X153580857Y-63445143D01*
X153437999Y-63516571D01*
X153223714Y-63516571D01*
X153080857Y-63445143D01*
X153009428Y-63373714D01*
X152080856Y-63516571D02*
X152223714Y-63445143D01*
X152295142Y-63302286D01*
X152295142Y-62016571D01*
X151723714Y-62516571D02*
X151152285Y-62516571D01*
X151509428Y-62016571D02*
X151509428Y-63302286D01*
X151438000Y-63445143D01*
X151295142Y-63516571D01*
X151152285Y-63516571D01*
X150652285Y-63516571D02*
X150652285Y-62516571D01*
X150652285Y-62016571D02*
X150723714Y-62088000D01*
X150652285Y-62159429D01*
X150580857Y-62088000D01*
X150652285Y-62016571D01*
X150652285Y-62159429D01*
X149937999Y-62516571D02*
X149937999Y-64016571D01*
X149937999Y-62588000D02*
X149795142Y-62516571D01*
X149509428Y-62516571D01*
X149366571Y-62588000D01*
X149295142Y-62659429D01*
X149223713Y-62802286D01*
X149223713Y-63230857D01*
X149295142Y-63373714D01*
X149366571Y-63445143D01*
X149509428Y-63516571D01*
X149795142Y-63516571D01*
X149937999Y-63445143D01*
X148580856Y-63516571D02*
X148580856Y-62516571D01*
X148580856Y-62802286D02*
X148509428Y-62659429D01*
X148437999Y-62588000D01*
X148295142Y-62516571D01*
X148152285Y-62516571D01*
X147437999Y-63516571D02*
X147580857Y-63445143D01*
X147652285Y-63373714D01*
X147723714Y-63230857D01*
X147723714Y-62802286D01*
X147652285Y-62659429D01*
X147580857Y-62588000D01*
X147437999Y-62516571D01*
X147223714Y-62516571D01*
X147080857Y-62588000D01*
X147009428Y-62659429D01*
X146937999Y-62802286D01*
X146937999Y-63230857D01*
X147009428Y-63373714D01*
X147080857Y-63445143D01*
X147223714Y-63516571D01*
X147437999Y-63516571D01*
X145652285Y-63445143D02*
X145795142Y-63516571D01*
X146080856Y-63516571D01*
X146223714Y-63445143D01*
X146295142Y-63373714D01*
X146366571Y-63230857D01*
X146366571Y-62802286D01*
X146295142Y-62659429D01*
X146223714Y-62588000D01*
X146080856Y-62516571D01*
X145795142Y-62516571D01*
X145652285Y-62588000D01*
X144795142Y-63516571D02*
X144938000Y-63445143D01*
X145009428Y-63373714D01*
X145080857Y-63230857D01*
X145080857Y-62802286D01*
X145009428Y-62659429D01*
X144938000Y-62588000D01*
X144795142Y-62516571D01*
X144580857Y-62516571D01*
X144438000Y-62588000D01*
X144366571Y-62659429D01*
X144295142Y-62802286D01*
X144295142Y-63230857D01*
X144366571Y-63373714D01*
X144438000Y-63445143D01*
X144580857Y-63516571D01*
X144795142Y-63516571D01*
X143437999Y-63516571D02*
X143580857Y-63445143D01*
X143652285Y-63302286D01*
X143652285Y-62016571D01*
X141938000Y-62016571D02*
X141080857Y-62016571D01*
X141509428Y-63516571D02*
X141509428Y-62016571D01*
X140580857Y-63516571D02*
X140580857Y-62516571D01*
X140580857Y-62802286D02*
X140509429Y-62659429D01*
X140438000Y-62588000D01*
X140295143Y-62516571D01*
X140152286Y-62516571D01*
X139009429Y-63516571D02*
X139009429Y-62730857D01*
X139080858Y-62588000D01*
X139223715Y-62516571D01*
X139509429Y-62516571D01*
X139652286Y-62588000D01*
X139009429Y-63445143D02*
X139152286Y-63516571D01*
X139509429Y-63516571D01*
X139652286Y-63445143D01*
X139723715Y-63302286D01*
X139723715Y-63159429D01*
X139652286Y-63016571D01*
X139509429Y-62945143D01*
X139152286Y-62945143D01*
X139009429Y-62873714D01*
X138295143Y-62516571D02*
X138295143Y-63516571D01*
X138295143Y-62659429D02*
X138223715Y-62588000D01*
X138080857Y-62516571D01*
X137866572Y-62516571D01*
X137723715Y-62588000D01*
X137652286Y-62730857D01*
X137652286Y-63516571D01*
X137009429Y-63445143D02*
X136866572Y-63516571D01*
X136580857Y-63516571D01*
X136438000Y-63445143D01*
X136366572Y-63302286D01*
X136366572Y-63230857D01*
X136438000Y-63088000D01*
X136580857Y-63016571D01*
X136795143Y-63016571D01*
X136938000Y-62945143D01*
X137009429Y-62802286D01*
X137009429Y-62730857D01*
X136938000Y-62588000D01*
X136795143Y-62516571D01*
X136580857Y-62516571D01*
X136438000Y-62588000D01*
X135723714Y-63516571D02*
X135723714Y-62516571D01*
X135723714Y-62659429D02*
X135652286Y-62588000D01*
X135509428Y-62516571D01*
X135295143Y-62516571D01*
X135152286Y-62588000D01*
X135080857Y-62730857D01*
X135080857Y-63516571D01*
X135080857Y-62730857D02*
X135009428Y-62588000D01*
X134866571Y-62516571D01*
X134652286Y-62516571D01*
X134509428Y-62588000D01*
X134438000Y-62730857D01*
X134438000Y-63516571D01*
X133723714Y-63516571D02*
X133723714Y-62516571D01*
X133723714Y-62016571D02*
X133795143Y-62088000D01*
X133723714Y-62159429D01*
X133652286Y-62088000D01*
X133723714Y-62016571D01*
X133723714Y-62159429D01*
X133223714Y-62516571D02*
X132652285Y-62516571D01*
X133009428Y-62016571D02*
X133009428Y-63302286D01*
X132938000Y-63445143D01*
X132795142Y-63516571D01*
X132652285Y-63516571D01*
X132366571Y-62516571D02*
X131795142Y-62516571D01*
X132152285Y-62016571D02*
X132152285Y-63302286D01*
X132080857Y-63445143D01*
X131937999Y-63516571D01*
X131795142Y-63516571D01*
X130723714Y-63445143D02*
X130866571Y-63516571D01*
X131152285Y-63516571D01*
X131295142Y-63445143D01*
X131366571Y-63302286D01*
X131366571Y-62730857D01*
X131295142Y-62588000D01*
X131152285Y-62516571D01*
X130866571Y-62516571D01*
X130723714Y-62588000D01*
X130652285Y-62730857D01*
X130652285Y-62873714D01*
X131366571Y-63016571D01*
X130009428Y-63516571D02*
X130009428Y-62516571D01*
X130009428Y-62802286D02*
X129938000Y-62659429D01*
X129866571Y-62588000D01*
X129723714Y-62516571D01*
X129580857Y-62516571D01*
X138937999Y-66066571D02*
X138937999Y-64566571D01*
X138366571Y-64566571D01*
X138223713Y-64638000D01*
X138152285Y-64709429D01*
X138080856Y-64852286D01*
X138080856Y-65066571D01*
X138152285Y-65209429D01*
X138223713Y-65280857D01*
X138366571Y-65352286D01*
X138937999Y-65352286D01*
X137437999Y-66066571D02*
X137437999Y-65066571D01*
X137437999Y-65352286D02*
X137366571Y-65209429D01*
X137295142Y-65138000D01*
X137152285Y-65066571D01*
X137009428Y-65066571D01*
X136295142Y-66066571D02*
X136438000Y-65995143D01*
X136509428Y-65923714D01*
X136580857Y-65780857D01*
X136580857Y-65352286D01*
X136509428Y-65209429D01*
X136438000Y-65138000D01*
X136295142Y-65066571D01*
X136080857Y-65066571D01*
X135938000Y-65138000D01*
X135866571Y-65209429D01*
X135795142Y-65352286D01*
X135795142Y-65780857D01*
X135866571Y-65923714D01*
X135938000Y-65995143D01*
X136080857Y-66066571D01*
X136295142Y-66066571D01*
X135366571Y-65066571D02*
X134795142Y-65066571D01*
X135152285Y-64566571D02*
X135152285Y-65852286D01*
X135080857Y-65995143D01*
X134937999Y-66066571D01*
X134795142Y-66066571D01*
X134080856Y-66066571D02*
X134223714Y-65995143D01*
X134295142Y-65923714D01*
X134366571Y-65780857D01*
X134366571Y-65352286D01*
X134295142Y-65209429D01*
X134223714Y-65138000D01*
X134080856Y-65066571D01*
X133866571Y-65066571D01*
X133723714Y-65138000D01*
X133652285Y-65209429D01*
X133580856Y-65352286D01*
X133580856Y-65780857D01*
X133652285Y-65923714D01*
X133723714Y-65995143D01*
X133866571Y-66066571D01*
X134080856Y-66066571D01*
X132009428Y-64566571D02*
X131509428Y-66066571D01*
X131009428Y-64566571D01*
X129866571Y-65066571D02*
X129866571Y-66066571D01*
X130223714Y-64495143D02*
X130580857Y-65566571D01*
X129652285Y-65566571D01*
D12*
X171678000Y-73268000D02*
X122718000Y-73268000D01*
X171678000Y-109988000D02*
X171678000Y-73268000D01*
X122718000Y-109988000D02*
X171678000Y-109988000D01*
X122718000Y-73268000D02*
X122718000Y-109988000D01*
X179948000Y-112988000D02*
X119688000Y-112988000D01*
X179948000Y-70268000D02*
X179948000Y-112988000D01*
X119688000Y-70628000D02*
X119688000Y-113348000D01*
X179948000Y-70268000D02*
X119688000Y-70268000D01*
D13*
X117288000Y-76288000D02*
G75*
G03X117288000Y-76288000I-6100000J0D01*
G01*
X142538000Y-56088000D02*
X142538000Y-57088000D01*
X140838000Y-57088000D02*
X140838000Y-56088000D01*
X175238000Y-69418000D02*
X175238000Y-64218000D01*
X182918000Y-69418000D02*
X175238000Y-69418000D01*
X185518000Y-64218000D02*
X175238000Y-64218000D01*
X182918000Y-69418000D02*
X182918000Y-66818000D01*
X182918000Y-66818000D02*
X185518000Y-66818000D01*
X185518000Y-66818000D02*
X185518000Y-64218000D01*
X184188000Y-69418000D02*
X185518000Y-69418000D01*
X185518000Y-69418000D02*
X185518000Y-68088000D01*
X143688000Y-59216800D02*
X150688000Y-59216800D01*
X143688000Y-54016800D02*
X150688000Y-54016800D01*
X150688000Y-54016800D02*
X150688000Y-55016800D01*
D12*
X178458000Y-51588000D02*
G75*
G03X178458000Y-51588000I-1270000J0D01*
G01*
X177188000Y-50318000D02*
X177188000Y-52858000D01*
X178458000Y-51588000D02*
X175918000Y-51588000D01*
X183838000Y-43838000D02*
X170538000Y-43838000D01*
X170538000Y-58988000D02*
X170538000Y-44188000D01*
X183838000Y-44188000D02*
X183838000Y-58988000D01*
X183838000Y-59338000D02*
X170538000Y-59338000D01*
X118458000Y-51588000D02*
G75*
G03X118458000Y-51588000I-1270000J0D01*
G01*
X117188000Y-52858000D02*
X117188000Y-50318000D01*
X115918000Y-51588000D02*
X118458000Y-51588000D01*
X110538000Y-59338000D02*
X123838000Y-59338000D01*
X123838000Y-44188000D02*
X123838000Y-58988000D01*
X110538000Y-58988000D02*
X110538000Y-44188000D01*
X110538000Y-43838000D02*
X123838000Y-43838000D01*
D14*
G36*
X111223071Y-102085149D02*
X111161881Y-102114869D01*
X111123600Y-102147116D01*
X111081696Y-102192856D01*
X111153773Y-102221768D01*
X111200174Y-102244736D01*
X111244499Y-102276894D01*
X111290121Y-102321562D01*
X111340414Y-102382063D01*
X111398752Y-102461715D01*
X111401482Y-102465605D01*
X111441227Y-102518032D01*
X111485663Y-102570030D01*
X111526829Y-102612440D01*
X111537230Y-102621819D01*
X111571858Y-102653024D01*
X111593330Y-102678741D01*
X111606645Y-102707935D01*
X111616800Y-102749566D01*
X111621241Y-102772465D01*
X111650146Y-102874114D01*
X111694653Y-102955757D01*
X111743126Y-103008088D01*
X111797691Y-103045236D01*
X111869383Y-103081008D01*
X111950025Y-103111839D01*
X112031438Y-103134165D01*
X112033329Y-103134566D01*
X112092655Y-103145975D01*
X112136339Y-103150925D01*
X112173217Y-103149735D01*
X112212126Y-103142723D01*
X112218479Y-103141238D01*
X112274278Y-103121564D01*
X112320058Y-103093417D01*
X112352030Y-103060549D01*
X112366404Y-103026711D01*
X112361692Y-102999489D01*
X112343516Y-102978697D01*
X112314768Y-102969491D01*
X112271202Y-102971429D01*
X112209956Y-102983736D01*
X112127409Y-102996438D01*
X112055844Y-102990104D01*
X111988157Y-102963533D01*
X111949938Y-102939809D01*
X111889534Y-102886824D01*
X111853722Y-102828816D01*
X111842696Y-102766498D01*
X111856649Y-102700582D01*
X111875093Y-102662962D01*
X111892995Y-102630399D01*
X111902962Y-102608216D01*
X111903668Y-102602629D01*
X111890045Y-102596685D01*
X111860147Y-102585215D01*
X111835450Y-102576146D01*
X111741467Y-102535181D01*
X111666430Y-102485182D01*
X111605171Y-102421392D01*
X111552517Y-102339058D01*
X111530941Y-102296150D01*
X111503606Y-102242705D01*
X111475276Y-102194516D01*
X111450339Y-102158775D01*
X111440280Y-102147598D01*
X111400464Y-102117769D01*
X111353055Y-102092572D01*
X111308153Y-102076847D01*
X111286583Y-102073970D01*
X111223071Y-102085149D01*
X111223071Y-102085149D01*
G37*
X111223071Y-102085149D02*
X111161881Y-102114869D01*
X111123600Y-102147116D01*
X111081696Y-102192856D01*
X111153773Y-102221768D01*
X111200174Y-102244736D01*
X111244499Y-102276894D01*
X111290121Y-102321562D01*
X111340414Y-102382063D01*
X111398752Y-102461715D01*
X111401482Y-102465605D01*
X111441227Y-102518032D01*
X111485663Y-102570030D01*
X111526829Y-102612440D01*
X111537230Y-102621819D01*
X111571858Y-102653024D01*
X111593330Y-102678741D01*
X111606645Y-102707935D01*
X111616800Y-102749566D01*
X111621241Y-102772465D01*
X111650146Y-102874114D01*
X111694653Y-102955757D01*
X111743126Y-103008088D01*
X111797691Y-103045236D01*
X111869383Y-103081008D01*
X111950025Y-103111839D01*
X112031438Y-103134165D01*
X112033329Y-103134566D01*
X112092655Y-103145975D01*
X112136339Y-103150925D01*
X112173217Y-103149735D01*
X112212126Y-103142723D01*
X112218479Y-103141238D01*
X112274278Y-103121564D01*
X112320058Y-103093417D01*
X112352030Y-103060549D01*
X112366404Y-103026711D01*
X112361692Y-102999489D01*
X112343516Y-102978697D01*
X112314768Y-102969491D01*
X112271202Y-102971429D01*
X112209956Y-102983736D01*
X112127409Y-102996438D01*
X112055844Y-102990104D01*
X111988157Y-102963533D01*
X111949938Y-102939809D01*
X111889534Y-102886824D01*
X111853722Y-102828816D01*
X111842696Y-102766498D01*
X111856649Y-102700582D01*
X111875093Y-102662962D01*
X111892995Y-102630399D01*
X111902962Y-102608216D01*
X111903668Y-102602629D01*
X111890045Y-102596685D01*
X111860147Y-102585215D01*
X111835450Y-102576146D01*
X111741467Y-102535181D01*
X111666430Y-102485182D01*
X111605171Y-102421392D01*
X111552517Y-102339058D01*
X111530941Y-102296150D01*
X111503606Y-102242705D01*
X111475276Y-102194516D01*
X111450339Y-102158775D01*
X111440280Y-102147598D01*
X111400464Y-102117769D01*
X111353055Y-102092572D01*
X111308153Y-102076847D01*
X111286583Y-102073970D01*
X111223071Y-102085149D01*
G36*
X115127229Y-101974747D02*
X115124106Y-101975000D01*
X115073826Y-101983196D01*
X115035801Y-102000860D01*
X115006235Y-102031955D01*
X114981332Y-102080444D01*
X114957800Y-102148636D01*
X114938070Y-102207588D01*
X114917991Y-102251068D01*
X114892318Y-102288529D01*
X114859943Y-102325075D01*
X114811974Y-102369536D01*
X114753944Y-102414010D01*
X114692936Y-102453838D01*
X114636033Y-102484365D01*
X114593500Y-102500209D01*
X114564178Y-102512034D01*
X114551380Y-102532260D01*
X114553723Y-102565819D01*
X114564679Y-102602984D01*
X114576933Y-102646042D01*
X114584169Y-102685182D01*
X114585000Y-102697475D01*
X114575139Y-102733929D01*
X114548311Y-102778972D01*
X114508655Y-102827053D01*
X114460310Y-102872627D01*
X114445732Y-102884218D01*
X114389746Y-102926920D01*
X114260005Y-102918077D01*
X114130264Y-102909233D01*
X114108522Y-102942416D01*
X114094542Y-102967814D01*
X114095840Y-102987106D01*
X114107409Y-103007085D01*
X114147166Y-103046406D01*
X114206644Y-103072275D01*
X114286974Y-103085155D01*
X114299250Y-103085913D01*
X114368757Y-103085527D01*
X114426700Y-103075073D01*
X114453068Y-103066380D01*
X114569754Y-103013396D01*
X114663406Y-102949794D01*
X114734100Y-102875492D01*
X114781913Y-102790406D01*
X114806924Y-102694453D01*
X114808061Y-102685263D01*
X114814452Y-102641069D01*
X114824741Y-102610126D01*
X114843958Y-102582654D01*
X114877134Y-102548877D01*
X114879274Y-102546823D01*
X114913767Y-102514811D01*
X114943080Y-102489450D01*
X114960075Y-102476761D01*
X114973853Y-102462008D01*
X114996648Y-102430210D01*
X115024984Y-102386440D01*
X115048141Y-102348198D01*
X115081350Y-102294515D01*
X115114850Y-102244984D01*
X115143882Y-102206434D01*
X115158045Y-102190554D01*
X115190289Y-102164369D01*
X115231556Y-102137760D01*
X115273677Y-102115289D01*
X115308486Y-102101515D01*
X115321462Y-102099300D01*
X115334655Y-102092486D01*
X115330449Y-102074850D01*
X115311919Y-102050598D01*
X115282143Y-102023937D01*
X115250970Y-102002921D01*
X115210226Y-101982256D01*
X115173662Y-101973896D01*
X115127229Y-101974747D01*
X115127229Y-101974747D01*
G37*
X115127229Y-101974747D02*
X115124106Y-101975000D01*
X115073826Y-101983196D01*
X115035801Y-102000860D01*
X115006235Y-102031955D01*
X114981332Y-102080444D01*
X114957800Y-102148636D01*
X114938070Y-102207588D01*
X114917991Y-102251068D01*
X114892318Y-102288529D01*
X114859943Y-102325075D01*
X114811974Y-102369536D01*
X114753944Y-102414010D01*
X114692936Y-102453838D01*
X114636033Y-102484365D01*
X114593500Y-102500209D01*
X114564178Y-102512034D01*
X114551380Y-102532260D01*
X114553723Y-102565819D01*
X114564679Y-102602984D01*
X114576933Y-102646042D01*
X114584169Y-102685182D01*
X114585000Y-102697475D01*
X114575139Y-102733929D01*
X114548311Y-102778972D01*
X114508655Y-102827053D01*
X114460310Y-102872627D01*
X114445732Y-102884218D01*
X114389746Y-102926920D01*
X114260005Y-102918077D01*
X114130264Y-102909233D01*
X114108522Y-102942416D01*
X114094542Y-102967814D01*
X114095840Y-102987106D01*
X114107409Y-103007085D01*
X114147166Y-103046406D01*
X114206644Y-103072275D01*
X114286974Y-103085155D01*
X114299250Y-103085913D01*
X114368757Y-103085527D01*
X114426700Y-103075073D01*
X114453068Y-103066380D01*
X114569754Y-103013396D01*
X114663406Y-102949794D01*
X114734100Y-102875492D01*
X114781913Y-102790406D01*
X114806924Y-102694453D01*
X114808061Y-102685263D01*
X114814452Y-102641069D01*
X114824741Y-102610126D01*
X114843958Y-102582654D01*
X114877134Y-102548877D01*
X114879274Y-102546823D01*
X114913767Y-102514811D01*
X114943080Y-102489450D01*
X114960075Y-102476761D01*
X114973853Y-102462008D01*
X114996648Y-102430210D01*
X115024984Y-102386440D01*
X115048141Y-102348198D01*
X115081350Y-102294515D01*
X115114850Y-102244984D01*
X115143882Y-102206434D01*
X115158045Y-102190554D01*
X115190289Y-102164369D01*
X115231556Y-102137760D01*
X115273677Y-102115289D01*
X115308486Y-102101515D01*
X115321462Y-102099300D01*
X115334655Y-102092486D01*
X115330449Y-102074850D01*
X115311919Y-102050598D01*
X115282143Y-102023937D01*
X115250970Y-102002921D01*
X115210226Y-101982256D01*
X115173662Y-101973896D01*
X115127229Y-101974747D01*
G36*
X110921218Y-102836635D02*
X110889897Y-102848618D01*
X110854004Y-102867894D01*
X110820820Y-102890148D01*
X110797629Y-102911066D01*
X110791244Y-102924800D01*
X110804624Y-102942660D01*
X110832185Y-102945996D01*
X110867166Y-102934655D01*
X110880475Y-102926815D01*
X110916002Y-102898252D01*
X110939246Y-102869985D01*
X110946914Y-102846966D01*
X110940684Y-102836260D01*
X110921218Y-102836635D01*
X110921218Y-102836635D01*
G37*
X110921218Y-102836635D02*
X110889897Y-102848618D01*
X110854004Y-102867894D01*
X110820820Y-102890148D01*
X110797629Y-102911066D01*
X110791244Y-102924800D01*
X110804624Y-102942660D01*
X110832185Y-102945996D01*
X110867166Y-102934655D01*
X110880475Y-102926815D01*
X110916002Y-102898252D01*
X110939246Y-102869985D01*
X110946914Y-102846966D01*
X110940684Y-102836260D01*
X110921218Y-102836635D01*
G36*
X110691358Y-102507615D02*
X110643621Y-102513197D01*
X110607159Y-102522760D01*
X110606318Y-102523113D01*
X110551673Y-102557262D01*
X110516873Y-102601582D01*
X110500809Y-102651888D01*
X110502369Y-102703994D01*
X110520446Y-102753716D01*
X110553929Y-102796869D01*
X110601708Y-102829268D01*
X110662675Y-102846727D01*
X110692616Y-102848600D01*
X110744829Y-102844138D01*
X110782704Y-102828987D01*
X110793760Y-102821159D01*
X110815706Y-102800369D01*
X110824132Y-102777808D01*
X110822854Y-102742453D01*
X110822406Y-102738377D01*
X110810901Y-102691939D01*
X110789918Y-102644365D01*
X110782884Y-102632739D01*
X110763310Y-102601948D01*
X110751344Y-102580790D01*
X110749600Y-102576148D01*
X110759674Y-102566770D01*
X110784432Y-102551891D01*
X110789550Y-102549193D01*
X110814446Y-102533738D01*
X110817833Y-102522669D01*
X110811775Y-102517311D01*
X110784479Y-102509417D01*
X110741326Y-102506269D01*
X110691358Y-102507615D01*
X110691358Y-102507615D01*
G37*
X110691358Y-102507615D02*
X110643621Y-102513197D01*
X110607159Y-102522760D01*
X110606318Y-102523113D01*
X110551673Y-102557262D01*
X110516873Y-102601582D01*
X110500809Y-102651888D01*
X110502369Y-102703994D01*
X110520446Y-102753716D01*
X110553929Y-102796869D01*
X110601708Y-102829268D01*
X110662675Y-102846727D01*
X110692616Y-102848600D01*
X110744829Y-102844138D01*
X110782704Y-102828987D01*
X110793760Y-102821159D01*
X110815706Y-102800369D01*
X110824132Y-102777808D01*
X110822854Y-102742453D01*
X110822406Y-102738377D01*
X110810901Y-102691939D01*
X110789918Y-102644365D01*
X110782884Y-102632739D01*
X110763310Y-102601948D01*
X110751344Y-102580790D01*
X110749600Y-102576148D01*
X110759674Y-102566770D01*
X110784432Y-102551891D01*
X110789550Y-102549193D01*
X110814446Y-102533738D01*
X110817833Y-102522669D01*
X110811775Y-102517311D01*
X110784479Y-102509417D01*
X110741326Y-102506269D01*
X110691358Y-102507615D01*
G36*
X115499400Y-102732730D02*
X115511849Y-102764253D01*
X115548192Y-102794621D01*
X115591532Y-102816365D01*
X115632280Y-102831592D01*
X115653701Y-102834364D01*
X115658603Y-102824683D01*
X115656224Y-102816408D01*
X115641395Y-102798209D01*
X115612018Y-102773375D01*
X115575781Y-102747542D01*
X115540377Y-102726346D01*
X115521625Y-102717786D01*
X115503501Y-102717687D01*
X115499400Y-102732730D01*
X115499400Y-102732730D01*
G37*
X115499400Y-102732730D02*
X115511849Y-102764253D01*
X115548192Y-102794621D01*
X115591532Y-102816365D01*
X115632280Y-102831592D01*
X115653701Y-102834364D01*
X115658603Y-102824683D01*
X115656224Y-102816408D01*
X115641395Y-102798209D01*
X115612018Y-102773375D01*
X115575781Y-102747542D01*
X115540377Y-102726346D01*
X115521625Y-102717786D01*
X115503501Y-102717687D01*
X115499400Y-102732730D01*
G36*
X110941991Y-102559176D02*
X110915007Y-102561647D01*
X110896891Y-102566495D01*
X110883519Y-102573968D01*
X110878287Y-102577980D01*
X110857750Y-102607956D01*
X110860825Y-102645787D01*
X110887601Y-102691822D01*
X110914422Y-102722839D01*
X110929531Y-102738821D01*
X110942955Y-102751175D01*
X110957923Y-102760214D01*
X110977666Y-102766251D01*
X111005415Y-102769600D01*
X111044400Y-102770576D01*
X111097851Y-102769491D01*
X111168998Y-102766659D01*
X111261073Y-102762393D01*
X111302050Y-102760470D01*
X111375512Y-102756529D01*
X111426695Y-102751934D01*
X111458716Y-102745520D01*
X111474691Y-102736124D01*
X111477736Y-102722582D01*
X111470968Y-102703729D01*
X111468283Y-102698390D01*
X111442193Y-102659504D01*
X111407097Y-102621249D01*
X111371230Y-102591923D01*
X111352850Y-102582096D01*
X111331983Y-102578362D01*
X111290607Y-102574150D01*
X111233600Y-102569847D01*
X111165841Y-102565835D01*
X111117384Y-102563526D01*
X111039055Y-102560364D01*
X110981966Y-102558831D01*
X110941991Y-102559176D01*
X110941991Y-102559176D01*
G37*
X110941991Y-102559176D02*
X110915007Y-102561647D01*
X110896891Y-102566495D01*
X110883519Y-102573968D01*
X110878287Y-102577980D01*
X110857750Y-102607956D01*
X110860825Y-102645787D01*
X110887601Y-102691822D01*
X110914422Y-102722839D01*
X110929531Y-102738821D01*
X110942955Y-102751175D01*
X110957923Y-102760214D01*
X110977666Y-102766251D01*
X111005415Y-102769600D01*
X111044400Y-102770576D01*
X111097851Y-102769491D01*
X111168998Y-102766659D01*
X111261073Y-102762393D01*
X111302050Y-102760470D01*
X111375512Y-102756529D01*
X111426695Y-102751934D01*
X111458716Y-102745520D01*
X111474691Y-102736124D01*
X111477736Y-102722582D01*
X111470968Y-102703729D01*
X111468283Y-102698390D01*
X111442193Y-102659504D01*
X111407097Y-102621249D01*
X111371230Y-102591923D01*
X111352850Y-102582096D01*
X111331983Y-102578362D01*
X111290607Y-102574150D01*
X111233600Y-102569847D01*
X111165841Y-102565835D01*
X111117384Y-102563526D01*
X111039055Y-102560364D01*
X110981966Y-102558831D01*
X110941991Y-102559176D01*
G36*
X115668244Y-102398013D02*
X115631200Y-102404997D01*
X115612714Y-102413468D01*
X115615634Y-102422476D01*
X115623371Y-102425995D01*
X115648850Y-102446343D01*
X115655163Y-102482618D01*
X115642365Y-102535231D01*
X115639183Y-102543589D01*
X115619847Y-102602258D01*
X115615597Y-102645960D01*
X115626632Y-102680310D01*
X115644873Y-102703127D01*
X115672372Y-102723877D01*
X115706371Y-102732706D01*
X115736948Y-102733802D01*
X115782982Y-102729855D01*
X115825312Y-102720558D01*
X115836580Y-102716436D01*
X115890716Y-102680655D01*
X115927596Y-102630482D01*
X115943537Y-102571261D01*
X115943900Y-102560660D01*
X115934897Y-102494578D01*
X115907555Y-102445252D01*
X115861378Y-102412309D01*
X115795869Y-102395377D01*
X115720996Y-102393466D01*
X115668244Y-102398013D01*
X115668244Y-102398013D01*
G37*
X115668244Y-102398013D02*
X115631200Y-102404997D01*
X115612714Y-102413468D01*
X115615634Y-102422476D01*
X115623371Y-102425995D01*
X115648850Y-102446343D01*
X115655163Y-102482618D01*
X115642365Y-102535231D01*
X115639183Y-102543589D01*
X115619847Y-102602258D01*
X115615597Y-102645960D01*
X115626632Y-102680310D01*
X115644873Y-102703127D01*
X115672372Y-102723877D01*
X115706371Y-102732706D01*
X115736948Y-102733802D01*
X115782982Y-102729855D01*
X115825312Y-102720558D01*
X115836580Y-102716436D01*
X115890716Y-102680655D01*
X115927596Y-102630482D01*
X115943537Y-102571261D01*
X115943900Y-102560660D01*
X115934897Y-102494578D01*
X115907555Y-102445252D01*
X115861378Y-102412309D01*
X115795869Y-102395377D01*
X115720996Y-102393466D01*
X115668244Y-102398013D01*
G36*
X113166065Y-98129218D02*
X113130850Y-98130582D01*
X112988123Y-98139946D01*
X112866416Y-98151610D01*
X112761390Y-98166490D01*
X112668702Y-98185505D01*
X112584013Y-98209570D01*
X112502980Y-98239605D01*
X112421262Y-98276526D01*
X112406950Y-98283573D01*
X112307049Y-98339941D01*
X112195910Y-98414634D01*
X112076837Y-98505153D01*
X111953136Y-98608997D01*
X111838848Y-98713427D01*
X111741169Y-98810435D01*
X111663692Y-98897923D01*
X111604781Y-98979348D01*
X111562802Y-99058166D01*
X111536121Y-99137834D01*
X111523104Y-99221809D01*
X111522117Y-99313547D01*
X111526627Y-99373833D01*
X111533532Y-99456931D01*
X111534437Y-99520270D01*
X111528099Y-99569042D01*
X111513272Y-99608438D01*
X111488711Y-99643652D01*
X111453258Y-99679793D01*
X111420671Y-99712577D01*
X111395933Y-99745212D01*
X111378332Y-99781462D01*
X111367153Y-99825089D01*
X111361682Y-99879857D01*
X111361205Y-99949526D01*
X111365009Y-100037860D01*
X111370173Y-100117655D01*
X111376506Y-100205453D01*
X111382323Y-100273678D01*
X111388732Y-100328104D01*
X111396839Y-100374506D01*
X111407753Y-100418657D01*
X111422580Y-100466334D01*
X111442428Y-100523311D01*
X111454278Y-100556250D01*
X111476230Y-100620265D01*
X111489236Y-100667832D01*
X111494701Y-100705698D01*
X111494031Y-100740608D01*
X111493602Y-100744951D01*
X111481036Y-100797391D01*
X111455416Y-100860141D01*
X111420747Y-100924693D01*
X111382846Y-100980237D01*
X111365572Y-101009917D01*
X111359200Y-101034212D01*
X111354207Y-101053911D01*
X111348013Y-101057900D01*
X111334122Y-101050826D01*
X111303912Y-101031450D01*
X111261512Y-101002536D01*
X111211051Y-100966848D01*
X111198258Y-100957625D01*
X111138179Y-100911136D01*
X111063408Y-100848381D01*
X110976467Y-100771769D01*
X110879879Y-100683709D01*
X110776167Y-100586610D01*
X110667854Y-100482881D01*
X110557464Y-100374933D01*
X110447518Y-100265174D01*
X110340540Y-100156013D01*
X110239053Y-100049860D01*
X110169223Y-99974933D01*
X110131508Y-99935648D01*
X110100034Y-99906028D01*
X110078587Y-99889440D01*
X110071228Y-99887756D01*
X110069727Y-99908704D01*
X110076709Y-99947959D01*
X110090647Y-100000484D01*
X110110012Y-100061243D01*
X110133278Y-100125198D01*
X110158917Y-100187312D01*
X110168398Y-100208177D01*
X110200686Y-100272094D01*
X110241355Y-100345276D01*
X110283959Y-100416364D01*
X110305954Y-100450564D01*
X110348818Y-100515375D01*
X110398057Y-100590319D01*
X110446304Y-100664165D01*
X110472548Y-100704564D01*
X110555818Y-100821761D01*
X110653098Y-100939816D01*
X110757146Y-101050527D01*
X110860722Y-101145688D01*
X110864988Y-101149250D01*
X110973323Y-101237900D01*
X111086647Y-101328053D01*
X111200804Y-101416563D01*
X111311640Y-101500282D01*
X111414999Y-101576062D01*
X111506725Y-101640756D01*
X111568750Y-101682293D01*
X111625245Y-101717543D01*
X111698974Y-101761531D01*
X111785203Y-101811613D01*
X111879195Y-101865141D01*
X111976216Y-101919469D01*
X112071532Y-101971952D01*
X112160407Y-102019942D01*
X112238106Y-102060795D01*
X112299895Y-102091863D01*
X112311829Y-102097568D01*
X112384265Y-102131245D01*
X112439425Y-102154688D01*
X112482860Y-102168799D01*
X112520122Y-102174482D01*
X112556763Y-102172637D01*
X112598335Y-102164168D01*
X112644533Y-102151634D01*
X112693483Y-102136833D01*
X112731524Y-102123483D01*
X112753201Y-102113590D01*
X112756200Y-102110550D01*
X112745253Y-102102732D01*
X112714296Y-102085275D01*
X112666160Y-102059653D01*
X112603674Y-102027344D01*
X112529667Y-101989823D01*
X112446970Y-101948566D01*
X112422825Y-101936636D01*
X112311499Y-101881127D01*
X112221537Y-101834840D01*
X112151071Y-101796732D01*
X112098233Y-101765761D01*
X112061154Y-101740885D01*
X112039920Y-101723053D01*
X112012470Y-101694914D01*
X112001598Y-101679636D01*
X112005468Y-101672592D01*
X112018715Y-101669658D01*
X112039314Y-101673944D01*
X112079620Y-101688927D01*
X112136885Y-101713424D01*
X112208364Y-101746253D01*
X112291310Y-101786232D01*
X112303195Y-101792092D01*
X112444613Y-101861619D01*
X112564731Y-101919824D01*
X112664715Y-101967232D01*
X112745733Y-102004372D01*
X112808951Y-102031768D01*
X112855536Y-102049949D01*
X112886654Y-102059440D01*
X112899377Y-102061200D01*
X112929583Y-102056773D01*
X112972355Y-102045346D01*
X113005575Y-102034064D01*
X113044694Y-102018687D01*
X113063341Y-102008215D01*
X113065095Y-101999393D01*
X113054465Y-101989644D01*
X113033346Y-101978194D01*
X112994347Y-101960494D01*
X112943397Y-101939136D01*
X112896689Y-101920647D01*
X112796034Y-101881577D01*
X112713884Y-101848920D01*
X112644904Y-101820331D01*
X112583756Y-101793466D01*
X112525104Y-101765980D01*
X112463611Y-101735529D01*
X112394250Y-101699930D01*
X112327304Y-101664200D01*
X112249887Y-101621215D01*
X112164694Y-101572622D01*
X112074422Y-101520068D01*
X111981766Y-101465200D01*
X111889422Y-101409664D01*
X111800085Y-101355108D01*
X111716451Y-101303179D01*
X111641216Y-101255524D01*
X111577076Y-101213789D01*
X111526725Y-101179622D01*
X111492861Y-101154670D01*
X111478177Y-101140580D01*
X111477956Y-101140093D01*
X111479262Y-101121782D01*
X111487856Y-101087274D01*
X111501763Y-101044375D01*
X111530940Y-100962650D01*
X111583955Y-100962181D01*
X111631228Y-100955286D01*
X111666457Y-100932983D01*
X111694255Y-100891392D01*
X111708659Y-100857253D01*
X111728753Y-100811885D01*
X111752671Y-100769215D01*
X111760947Y-100757122D01*
X111780145Y-100728778D01*
X111790445Y-100708666D01*
X111791000Y-100705844D01*
X111781970Y-100691156D01*
X111757919Y-100664660D01*
X111723407Y-100630728D01*
X111682990Y-100593733D01*
X111641230Y-100558047D01*
X111615895Y-100537908D01*
X111581981Y-100510076D01*
X111556287Y-100482722D01*
X111537692Y-100451845D01*
X111525075Y-100413441D01*
X111517314Y-100363508D01*
X111513289Y-100298042D01*
X111511878Y-100213040D01*
X111511799Y-100166230D01*
X111512768Y-100059203D01*
X111515975Y-99973748D01*
X111522171Y-99906083D01*
X111532111Y-99852424D01*
X111546546Y-99808987D01*
X111566229Y-99771989D01*
X111591914Y-99737646D01*
X111598622Y-99729869D01*
X111651300Y-99670023D01*
X111651507Y-99547986D01*
X111653807Y-99428647D01*
X111660037Y-99320006D01*
X111669816Y-99225438D01*
X111682768Y-99148321D01*
X111698512Y-99092028D01*
X111704158Y-99078799D01*
X111727765Y-99042420D01*
X111771017Y-98990171D01*
X111833815Y-98922164D01*
X111916060Y-98838510D01*
X111930163Y-98824525D01*
X112055794Y-98704049D01*
X112170225Y-98602755D01*
X112276371Y-98518711D01*
X112377151Y-98449983D01*
X112475482Y-98394640D01*
X112574280Y-98350749D01*
X112676463Y-98316377D01*
X112711750Y-98306708D01*
X112826365Y-98284982D01*
X112958644Y-98273506D01*
X113103259Y-98271740D01*
X113254879Y-98279146D01*
X113408176Y-98295184D01*
X113557818Y-98319315D01*
X113698478Y-98351000D01*
X113824824Y-98389699D01*
X113919454Y-98428895D01*
X113996987Y-98471626D01*
X114062777Y-98520730D01*
X114120959Y-98580592D01*
X114175668Y-98655599D01*
X114231039Y-98750135D01*
X114242313Y-98771308D01*
X114299548Y-98871987D01*
X114365636Y-98974451D01*
X114437510Y-99074904D01*
X114512107Y-99169551D01*
X114586361Y-99254595D01*
X114657207Y-99326241D01*
X114721580Y-99380694D01*
X114750100Y-99400115D01*
X114817103Y-99448133D01*
X114878328Y-99504795D01*
X114928230Y-99564189D01*
X114961263Y-99620403D01*
X114964682Y-99628893D01*
X114986162Y-99706463D01*
X115000195Y-99798653D01*
X115006404Y-99896894D01*
X115004416Y-99992618D01*
X114993856Y-100077257D01*
X114985772Y-100110948D01*
X114964902Y-100167943D01*
X114934661Y-100224179D01*
X114892308Y-100283440D01*
X114835103Y-100349512D01*
X114760306Y-100426179D01*
X114750705Y-100435600D01*
X114700576Y-100486010D01*
X114655554Y-100533878D01*
X114619597Y-100574806D01*
X114596663Y-100604397D01*
X114592171Y-100611781D01*
X114579519Y-100639257D01*
X114576606Y-100661280D01*
X114583459Y-100688928D01*
X114592405Y-100713177D01*
X114614892Y-100755400D01*
X114652203Y-100807072D01*
X114698890Y-100860846D01*
X114741869Y-100909668D01*
X114781789Y-100960937D01*
X114815980Y-101010461D01*
X114841769Y-101054050D01*
X114856485Y-101087512D01*
X114857455Y-101106657D01*
X114856393Y-101107912D01*
X114835184Y-101124130D01*
X114795468Y-101151914D01*
X114740247Y-101189322D01*
X114672524Y-101234412D01*
X114595301Y-101285243D01*
X114511582Y-101339872D01*
X114424369Y-101396358D01*
X114336665Y-101452759D01*
X114251472Y-101507132D01*
X114171794Y-101557537D01*
X114100634Y-101602031D01*
X114040993Y-101638673D01*
X113995875Y-101665519D01*
X113981750Y-101673534D01*
X113867256Y-101736656D01*
X113772074Y-101788463D01*
X113693514Y-101830334D01*
X113628889Y-101863651D01*
X113575511Y-101889791D01*
X113530690Y-101910136D01*
X113491738Y-101926065D01*
X113483913Y-101929030D01*
X113440536Y-101945592D01*
X113380522Y-101968987D01*
X113310774Y-101996501D01*
X113238193Y-102025422D01*
X113213400Y-102035373D01*
X113129163Y-102068122D01*
X113033271Y-102103599D01*
X112937123Y-102137680D01*
X112852122Y-102166243D01*
X112846697Y-102167990D01*
X112787205Y-102186150D01*
X112712291Y-102207583D01*
X112625361Y-102231440D01*
X112529823Y-102256871D01*
X112429085Y-102283028D01*
X112326554Y-102309061D01*
X112225637Y-102334122D01*
X112129743Y-102357362D01*
X112042279Y-102377932D01*
X111966653Y-102394983D01*
X111906271Y-102407665D01*
X111864543Y-102415131D01*
X111847990Y-102416800D01*
X111807301Y-102420289D01*
X111772958Y-102429188D01*
X111750922Y-102441138D01*
X111747152Y-102453784D01*
X111748900Y-102455979D01*
X111766551Y-102466043D01*
X111801392Y-102480842D01*
X111846403Y-102497433D01*
X111853785Y-102499957D01*
X111950812Y-102524052D01*
X112051823Y-102530848D01*
X112162049Y-102520343D01*
X112259398Y-102499730D01*
X112347537Y-102475359D01*
X112455160Y-102442282D01*
X112578452Y-102401909D01*
X112713598Y-102355645D01*
X112856782Y-102304899D01*
X113004188Y-102251077D01*
X113152002Y-102195588D01*
X113296407Y-102139838D01*
X113433588Y-102085236D01*
X113559730Y-102033188D01*
X113671017Y-101985102D01*
X113740450Y-101953419D01*
X113819140Y-101914939D01*
X113905649Y-101870121D01*
X113994342Y-101822108D01*
X114079584Y-101774041D01*
X114155738Y-101729064D01*
X114217169Y-101690320D01*
X114239105Y-101675334D01*
X114282984Y-101647831D01*
X114327845Y-101625586D01*
X114367501Y-101611053D01*
X114395767Y-101606682D01*
X114404509Y-101609774D01*
X114404232Y-101623093D01*
X114400180Y-101626915D01*
X114384930Y-101638037D01*
X114354620Y-101660459D01*
X114314534Y-101690267D01*
X114292598Y-101706626D01*
X114148601Y-101806508D01*
X113988756Y-101902662D01*
X113810914Y-101996189D01*
X113612927Y-102088186D01*
X113392647Y-102179753D01*
X113289600Y-102219623D01*
X113214704Y-102247467D01*
X113124271Y-102280187D01*
X113021758Y-102316605D01*
X112910617Y-102355548D01*
X112794304Y-102395839D01*
X112676273Y-102436302D01*
X112559979Y-102475762D01*
X112448876Y-102513043D01*
X112346418Y-102546969D01*
X112256060Y-102576366D01*
X112181257Y-102600056D01*
X112125463Y-102616864D01*
X112108500Y-102621596D01*
X112041572Y-102643935D01*
X111992079Y-102669714D01*
X111962907Y-102697117D01*
X111956100Y-102717463D01*
X111967551Y-102727575D01*
X111997909Y-102732568D01*
X112041189Y-102732361D01*
X112091402Y-102726872D01*
X112127550Y-102719823D01*
X112157240Y-102713486D01*
X112206406Y-102703692D01*
X112269534Y-102691509D01*
X112341108Y-102678008D01*
X112387900Y-102669335D01*
X112645153Y-102613580D01*
X112914903Y-102539060D01*
X113193877Y-102446924D01*
X113478803Y-102338319D01*
X113766410Y-102214393D01*
X113994450Y-102105874D01*
X114135920Y-102034769D01*
X114262518Y-101968877D01*
X114378114Y-101905740D01*
X114486577Y-101842904D01*
X114591778Y-101777914D01*
X114697586Y-101708312D01*
X114807869Y-101631645D01*
X114926498Y-101545457D01*
X115057342Y-101447292D01*
X115179016Y-101354171D01*
X115284781Y-101266565D01*
X115398330Y-101161608D01*
X115515986Y-101043483D01*
X115634075Y-100916372D01*
X115748920Y-100784457D01*
X115856847Y-100651922D01*
X115954180Y-100522948D01*
X116037245Y-100401719D01*
X116085722Y-100322330D01*
X116146865Y-100205028D01*
X116192878Y-100093813D01*
X116222378Y-99992463D01*
X116233365Y-99918075D01*
X116234850Y-99873541D01*
X116233252Y-99840972D01*
X116228928Y-99826605D01*
X116228146Y-99826400D01*
X116216649Y-99836220D01*
X116193759Y-99862622D01*
X116162849Y-99901520D01*
X116129097Y-99946369D01*
X116090068Y-99995953D01*
X116039890Y-100053259D01*
X115976724Y-100120204D01*
X115898734Y-100198708D01*
X115804083Y-100290688D01*
X115749395Y-100342843D01*
X115673569Y-100414213D01*
X115592094Y-100489888D01*
X115507328Y-100567763D01*
X115421633Y-100645734D01*
X115337367Y-100721698D01*
X115256890Y-100793550D01*
X115182563Y-100859186D01*
X115116744Y-100916504D01*
X115061794Y-100963397D01*
X115020072Y-100997764D01*
X114993938Y-101017499D01*
X114989832Y-101020062D01*
X114977319Y-101024160D01*
X114972797Y-101013914D01*
X114974565Y-100984365D01*
X114975293Y-100977737D01*
X114976898Y-100944267D01*
X114970175Y-100917930D01*
X114951442Y-100888958D01*
X114933563Y-100867025D01*
X114868520Y-100787026D01*
X114821380Y-100722532D01*
X114791177Y-100672043D01*
X114776949Y-100634056D01*
X114775500Y-100620820D01*
X114777898Y-100597314D01*
X114786627Y-100573005D01*
X114803988Y-100544851D01*
X114832284Y-100509812D01*
X114873818Y-100464846D01*
X114930891Y-100406913D01*
X114957217Y-100380781D01*
X115024047Y-100311582D01*
X115073529Y-100251658D01*
X115108888Y-100195394D01*
X115133352Y-100137171D01*
X115150147Y-100071374D01*
X115156751Y-100033402D01*
X115163581Y-99921118D01*
X115151501Y-99806109D01*
X115122057Y-99695385D01*
X115076794Y-99595954D01*
X115051565Y-99556604D01*
X114989806Y-99477555D01*
X114923357Y-99408883D01*
X114843539Y-99341815D01*
X114825240Y-99327847D01*
X114781349Y-99293789D01*
X114744368Y-99261888D01*
X114711916Y-99228746D01*
X114681609Y-99190968D01*
X114651066Y-99145158D01*
X114617904Y-99087917D01*
X114579741Y-99015851D01*
X114534194Y-98925562D01*
X114512778Y-98882376D01*
X114460423Y-98778518D01*
X114415399Y-98694323D01*
X114375244Y-98626018D01*
X114337496Y-98569831D01*
X114299695Y-98521988D01*
X114259378Y-98478717D01*
X114232783Y-98453219D01*
X114163628Y-98395003D01*
X114083378Y-98336887D01*
X113997522Y-98282080D01*
X113911545Y-98233792D01*
X113830936Y-98195233D01*
X113761182Y-98169613D01*
X113737967Y-98163792D01*
X113683220Y-98155125D01*
X113609231Y-98147138D01*
X113522154Y-98140171D01*
X113428143Y-98134558D01*
X113333355Y-98130637D01*
X113243944Y-98128745D01*
X113166065Y-98129218D01*
X113166065Y-98129218D01*
G37*
X113166065Y-98129218D02*
X113130850Y-98130582D01*
X112988123Y-98139946D01*
X112866416Y-98151610D01*
X112761390Y-98166490D01*
X112668702Y-98185505D01*
X112584013Y-98209570D01*
X112502980Y-98239605D01*
X112421262Y-98276526D01*
X112406950Y-98283573D01*
X112307049Y-98339941D01*
X112195910Y-98414634D01*
X112076837Y-98505153D01*
X111953136Y-98608997D01*
X111838848Y-98713427D01*
X111741169Y-98810435D01*
X111663692Y-98897923D01*
X111604781Y-98979348D01*
X111562802Y-99058166D01*
X111536121Y-99137834D01*
X111523104Y-99221809D01*
X111522117Y-99313547D01*
X111526627Y-99373833D01*
X111533532Y-99456931D01*
X111534437Y-99520270D01*
X111528099Y-99569042D01*
X111513272Y-99608438D01*
X111488711Y-99643652D01*
X111453258Y-99679793D01*
X111420671Y-99712577D01*
X111395933Y-99745212D01*
X111378332Y-99781462D01*
X111367153Y-99825089D01*
X111361682Y-99879857D01*
X111361205Y-99949526D01*
X111365009Y-100037860D01*
X111370173Y-100117655D01*
X111376506Y-100205453D01*
X111382323Y-100273678D01*
X111388732Y-100328104D01*
X111396839Y-100374506D01*
X111407753Y-100418657D01*
X111422580Y-100466334D01*
X111442428Y-100523311D01*
X111454278Y-100556250D01*
X111476230Y-100620265D01*
X111489236Y-100667832D01*
X111494701Y-100705698D01*
X111494031Y-100740608D01*
X111493602Y-100744951D01*
X111481036Y-100797391D01*
X111455416Y-100860141D01*
X111420747Y-100924693D01*
X111382846Y-100980237D01*
X111365572Y-101009917D01*
X111359200Y-101034212D01*
X111354207Y-101053911D01*
X111348013Y-101057900D01*
X111334122Y-101050826D01*
X111303912Y-101031450D01*
X111261512Y-101002536D01*
X111211051Y-100966848D01*
X111198258Y-100957625D01*
X111138179Y-100911136D01*
X111063408Y-100848381D01*
X110976467Y-100771769D01*
X110879879Y-100683709D01*
X110776167Y-100586610D01*
X110667854Y-100482881D01*
X110557464Y-100374933D01*
X110447518Y-100265174D01*
X110340540Y-100156013D01*
X110239053Y-100049860D01*
X110169223Y-99974933D01*
X110131508Y-99935648D01*
X110100034Y-99906028D01*
X110078587Y-99889440D01*
X110071228Y-99887756D01*
X110069727Y-99908704D01*
X110076709Y-99947959D01*
X110090647Y-100000484D01*
X110110012Y-100061243D01*
X110133278Y-100125198D01*
X110158917Y-100187312D01*
X110168398Y-100208177D01*
X110200686Y-100272094D01*
X110241355Y-100345276D01*
X110283959Y-100416364D01*
X110305954Y-100450564D01*
X110348818Y-100515375D01*
X110398057Y-100590319D01*
X110446304Y-100664165D01*
X110472548Y-100704564D01*
X110555818Y-100821761D01*
X110653098Y-100939816D01*
X110757146Y-101050527D01*
X110860722Y-101145688D01*
X110864988Y-101149250D01*
X110973323Y-101237900D01*
X111086647Y-101328053D01*
X111200804Y-101416563D01*
X111311640Y-101500282D01*
X111414999Y-101576062D01*
X111506725Y-101640756D01*
X111568750Y-101682293D01*
X111625245Y-101717543D01*
X111698974Y-101761531D01*
X111785203Y-101811613D01*
X111879195Y-101865141D01*
X111976216Y-101919469D01*
X112071532Y-101971952D01*
X112160407Y-102019942D01*
X112238106Y-102060795D01*
X112299895Y-102091863D01*
X112311829Y-102097568D01*
X112384265Y-102131245D01*
X112439425Y-102154688D01*
X112482860Y-102168799D01*
X112520122Y-102174482D01*
X112556763Y-102172637D01*
X112598335Y-102164168D01*
X112644533Y-102151634D01*
X112693483Y-102136833D01*
X112731524Y-102123483D01*
X112753201Y-102113590D01*
X112756200Y-102110550D01*
X112745253Y-102102732D01*
X112714296Y-102085275D01*
X112666160Y-102059653D01*
X112603674Y-102027344D01*
X112529667Y-101989823D01*
X112446970Y-101948566D01*
X112422825Y-101936636D01*
X112311499Y-101881127D01*
X112221537Y-101834840D01*
X112151071Y-101796732D01*
X112098233Y-101765761D01*
X112061154Y-101740885D01*
X112039920Y-101723053D01*
X112012470Y-101694914D01*
X112001598Y-101679636D01*
X112005468Y-101672592D01*
X112018715Y-101669658D01*
X112039314Y-101673944D01*
X112079620Y-101688927D01*
X112136885Y-101713424D01*
X112208364Y-101746253D01*
X112291310Y-101786232D01*
X112303195Y-101792092D01*
X112444613Y-101861619D01*
X112564731Y-101919824D01*
X112664715Y-101967232D01*
X112745733Y-102004372D01*
X112808951Y-102031768D01*
X112855536Y-102049949D01*
X112886654Y-102059440D01*
X112899377Y-102061200D01*
X112929583Y-102056773D01*
X112972355Y-102045346D01*
X113005575Y-102034064D01*
X113044694Y-102018687D01*
X113063341Y-102008215D01*
X113065095Y-101999393D01*
X113054465Y-101989644D01*
X113033346Y-101978194D01*
X112994347Y-101960494D01*
X112943397Y-101939136D01*
X112896689Y-101920647D01*
X112796034Y-101881577D01*
X112713884Y-101848920D01*
X112644904Y-101820331D01*
X112583756Y-101793466D01*
X112525104Y-101765980D01*
X112463611Y-101735529D01*
X112394250Y-101699930D01*
X112327304Y-101664200D01*
X112249887Y-101621215D01*
X112164694Y-101572622D01*
X112074422Y-101520068D01*
X111981766Y-101465200D01*
X111889422Y-101409664D01*
X111800085Y-101355108D01*
X111716451Y-101303179D01*
X111641216Y-101255524D01*
X111577076Y-101213789D01*
X111526725Y-101179622D01*
X111492861Y-101154670D01*
X111478177Y-101140580D01*
X111477956Y-101140093D01*
X111479262Y-101121782D01*
X111487856Y-101087274D01*
X111501763Y-101044375D01*
X111530940Y-100962650D01*
X111583955Y-100962181D01*
X111631228Y-100955286D01*
X111666457Y-100932983D01*
X111694255Y-100891392D01*
X111708659Y-100857253D01*
X111728753Y-100811885D01*
X111752671Y-100769215D01*
X111760947Y-100757122D01*
X111780145Y-100728778D01*
X111790445Y-100708666D01*
X111791000Y-100705844D01*
X111781970Y-100691156D01*
X111757919Y-100664660D01*
X111723407Y-100630728D01*
X111682990Y-100593733D01*
X111641230Y-100558047D01*
X111615895Y-100537908D01*
X111581981Y-100510076D01*
X111556287Y-100482722D01*
X111537692Y-100451845D01*
X111525075Y-100413441D01*
X111517314Y-100363508D01*
X111513289Y-100298042D01*
X111511878Y-100213040D01*
X111511799Y-100166230D01*
X111512768Y-100059203D01*
X111515975Y-99973748D01*
X111522171Y-99906083D01*
X111532111Y-99852424D01*
X111546546Y-99808987D01*
X111566229Y-99771989D01*
X111591914Y-99737646D01*
X111598622Y-99729869D01*
X111651300Y-99670023D01*
X111651507Y-99547986D01*
X111653807Y-99428647D01*
X111660037Y-99320006D01*
X111669816Y-99225438D01*
X111682768Y-99148321D01*
X111698512Y-99092028D01*
X111704158Y-99078799D01*
X111727765Y-99042420D01*
X111771017Y-98990171D01*
X111833815Y-98922164D01*
X111916060Y-98838510D01*
X111930163Y-98824525D01*
X112055794Y-98704049D01*
X112170225Y-98602755D01*
X112276371Y-98518711D01*
X112377151Y-98449983D01*
X112475482Y-98394640D01*
X112574280Y-98350749D01*
X112676463Y-98316377D01*
X112711750Y-98306708D01*
X112826365Y-98284982D01*
X112958644Y-98273506D01*
X113103259Y-98271740D01*
X113254879Y-98279146D01*
X113408176Y-98295184D01*
X113557818Y-98319315D01*
X113698478Y-98351000D01*
X113824824Y-98389699D01*
X113919454Y-98428895D01*
X113996987Y-98471626D01*
X114062777Y-98520730D01*
X114120959Y-98580592D01*
X114175668Y-98655599D01*
X114231039Y-98750135D01*
X114242313Y-98771308D01*
X114299548Y-98871987D01*
X114365636Y-98974451D01*
X114437510Y-99074904D01*
X114512107Y-99169551D01*
X114586361Y-99254595D01*
X114657207Y-99326241D01*
X114721580Y-99380694D01*
X114750100Y-99400115D01*
X114817103Y-99448133D01*
X114878328Y-99504795D01*
X114928230Y-99564189D01*
X114961263Y-99620403D01*
X114964682Y-99628893D01*
X114986162Y-99706463D01*
X115000195Y-99798653D01*
X115006404Y-99896894D01*
X115004416Y-99992618D01*
X114993856Y-100077257D01*
X114985772Y-100110948D01*
X114964902Y-100167943D01*
X114934661Y-100224179D01*
X114892308Y-100283440D01*
X114835103Y-100349512D01*
X114760306Y-100426179D01*
X114750705Y-100435600D01*
X114700576Y-100486010D01*
X114655554Y-100533878D01*
X114619597Y-100574806D01*
X114596663Y-100604397D01*
X114592171Y-100611781D01*
X114579519Y-100639257D01*
X114576606Y-100661280D01*
X114583459Y-100688928D01*
X114592405Y-100713177D01*
X114614892Y-100755400D01*
X114652203Y-100807072D01*
X114698890Y-100860846D01*
X114741869Y-100909668D01*
X114781789Y-100960937D01*
X114815980Y-101010461D01*
X114841769Y-101054050D01*
X114856485Y-101087512D01*
X114857455Y-101106657D01*
X114856393Y-101107912D01*
X114835184Y-101124130D01*
X114795468Y-101151914D01*
X114740247Y-101189322D01*
X114672524Y-101234412D01*
X114595301Y-101285243D01*
X114511582Y-101339872D01*
X114424369Y-101396358D01*
X114336665Y-101452759D01*
X114251472Y-101507132D01*
X114171794Y-101557537D01*
X114100634Y-101602031D01*
X114040993Y-101638673D01*
X113995875Y-101665519D01*
X113981750Y-101673534D01*
X113867256Y-101736656D01*
X113772074Y-101788463D01*
X113693514Y-101830334D01*
X113628889Y-101863651D01*
X113575511Y-101889791D01*
X113530690Y-101910136D01*
X113491738Y-101926065D01*
X113483913Y-101929030D01*
X113440536Y-101945592D01*
X113380522Y-101968987D01*
X113310774Y-101996501D01*
X113238193Y-102025422D01*
X113213400Y-102035373D01*
X113129163Y-102068122D01*
X113033271Y-102103599D01*
X112937123Y-102137680D01*
X112852122Y-102166243D01*
X112846697Y-102167990D01*
X112787205Y-102186150D01*
X112712291Y-102207583D01*
X112625361Y-102231440D01*
X112529823Y-102256871D01*
X112429085Y-102283028D01*
X112326554Y-102309061D01*
X112225637Y-102334122D01*
X112129743Y-102357362D01*
X112042279Y-102377932D01*
X111966653Y-102394983D01*
X111906271Y-102407665D01*
X111864543Y-102415131D01*
X111847990Y-102416800D01*
X111807301Y-102420289D01*
X111772958Y-102429188D01*
X111750922Y-102441138D01*
X111747152Y-102453784D01*
X111748900Y-102455979D01*
X111766551Y-102466043D01*
X111801392Y-102480842D01*
X111846403Y-102497433D01*
X111853785Y-102499957D01*
X111950812Y-102524052D01*
X112051823Y-102530848D01*
X112162049Y-102520343D01*
X112259398Y-102499730D01*
X112347537Y-102475359D01*
X112455160Y-102442282D01*
X112578452Y-102401909D01*
X112713598Y-102355645D01*
X112856782Y-102304899D01*
X113004188Y-102251077D01*
X113152002Y-102195588D01*
X113296407Y-102139838D01*
X113433588Y-102085236D01*
X113559730Y-102033188D01*
X113671017Y-101985102D01*
X113740450Y-101953419D01*
X113819140Y-101914939D01*
X113905649Y-101870121D01*
X113994342Y-101822108D01*
X114079584Y-101774041D01*
X114155738Y-101729064D01*
X114217169Y-101690320D01*
X114239105Y-101675334D01*
X114282984Y-101647831D01*
X114327845Y-101625586D01*
X114367501Y-101611053D01*
X114395767Y-101606682D01*
X114404509Y-101609774D01*
X114404232Y-101623093D01*
X114400180Y-101626915D01*
X114384930Y-101638037D01*
X114354620Y-101660459D01*
X114314534Y-101690267D01*
X114292598Y-101706626D01*
X114148601Y-101806508D01*
X113988756Y-101902662D01*
X113810914Y-101996189D01*
X113612927Y-102088186D01*
X113392647Y-102179753D01*
X113289600Y-102219623D01*
X113214704Y-102247467D01*
X113124271Y-102280187D01*
X113021758Y-102316605D01*
X112910617Y-102355548D01*
X112794304Y-102395839D01*
X112676273Y-102436302D01*
X112559979Y-102475762D01*
X112448876Y-102513043D01*
X112346418Y-102546969D01*
X112256060Y-102576366D01*
X112181257Y-102600056D01*
X112125463Y-102616864D01*
X112108500Y-102621596D01*
X112041572Y-102643935D01*
X111992079Y-102669714D01*
X111962907Y-102697117D01*
X111956100Y-102717463D01*
X111967551Y-102727575D01*
X111997909Y-102732568D01*
X112041189Y-102732361D01*
X112091402Y-102726872D01*
X112127550Y-102719823D01*
X112157240Y-102713486D01*
X112206406Y-102703692D01*
X112269534Y-102691509D01*
X112341108Y-102678008D01*
X112387900Y-102669335D01*
X112645153Y-102613580D01*
X112914903Y-102539060D01*
X113193877Y-102446924D01*
X113478803Y-102338319D01*
X113766410Y-102214393D01*
X113994450Y-102105874D01*
X114135920Y-102034769D01*
X114262518Y-101968877D01*
X114378114Y-101905740D01*
X114486577Y-101842904D01*
X114591778Y-101777914D01*
X114697586Y-101708312D01*
X114807869Y-101631645D01*
X114926498Y-101545457D01*
X115057342Y-101447292D01*
X115179016Y-101354171D01*
X115284781Y-101266565D01*
X115398330Y-101161608D01*
X115515986Y-101043483D01*
X115634075Y-100916372D01*
X115748920Y-100784457D01*
X115856847Y-100651922D01*
X115954180Y-100522948D01*
X116037245Y-100401719D01*
X116085722Y-100322330D01*
X116146865Y-100205028D01*
X116192878Y-100093813D01*
X116222378Y-99992463D01*
X116233365Y-99918075D01*
X116234850Y-99873541D01*
X116233252Y-99840972D01*
X116228928Y-99826605D01*
X116228146Y-99826400D01*
X116216649Y-99836220D01*
X116193759Y-99862622D01*
X116162849Y-99901520D01*
X116129097Y-99946369D01*
X116090068Y-99995953D01*
X116039890Y-100053259D01*
X115976724Y-100120204D01*
X115898734Y-100198708D01*
X115804083Y-100290688D01*
X115749395Y-100342843D01*
X115673569Y-100414213D01*
X115592094Y-100489888D01*
X115507328Y-100567763D01*
X115421633Y-100645734D01*
X115337367Y-100721698D01*
X115256890Y-100793550D01*
X115182563Y-100859186D01*
X115116744Y-100916504D01*
X115061794Y-100963397D01*
X115020072Y-100997764D01*
X114993938Y-101017499D01*
X114989832Y-101020062D01*
X114977319Y-101024160D01*
X114972797Y-101013914D01*
X114974565Y-100984365D01*
X114975293Y-100977737D01*
X114976898Y-100944267D01*
X114970175Y-100917930D01*
X114951442Y-100888958D01*
X114933563Y-100867025D01*
X114868520Y-100787026D01*
X114821380Y-100722532D01*
X114791177Y-100672043D01*
X114776949Y-100634056D01*
X114775500Y-100620820D01*
X114777898Y-100597314D01*
X114786627Y-100573005D01*
X114803988Y-100544851D01*
X114832284Y-100509812D01*
X114873818Y-100464846D01*
X114930891Y-100406913D01*
X114957217Y-100380781D01*
X115024047Y-100311582D01*
X115073529Y-100251658D01*
X115108888Y-100195394D01*
X115133352Y-100137171D01*
X115150147Y-100071374D01*
X115156751Y-100033402D01*
X115163581Y-99921118D01*
X115151501Y-99806109D01*
X115122057Y-99695385D01*
X115076794Y-99595954D01*
X115051565Y-99556604D01*
X114989806Y-99477555D01*
X114923357Y-99408883D01*
X114843539Y-99341815D01*
X114825240Y-99327847D01*
X114781349Y-99293789D01*
X114744368Y-99261888D01*
X114711916Y-99228746D01*
X114681609Y-99190968D01*
X114651066Y-99145158D01*
X114617904Y-99087917D01*
X114579741Y-99015851D01*
X114534194Y-98925562D01*
X114512778Y-98882376D01*
X114460423Y-98778518D01*
X114415399Y-98694323D01*
X114375244Y-98626018D01*
X114337496Y-98569831D01*
X114299695Y-98521988D01*
X114259378Y-98478717D01*
X114232783Y-98453219D01*
X114163628Y-98395003D01*
X114083378Y-98336887D01*
X113997522Y-98282080D01*
X113911545Y-98233792D01*
X113830936Y-98195233D01*
X113761182Y-98169613D01*
X113737967Y-98163792D01*
X113683220Y-98155125D01*
X113609231Y-98147138D01*
X113522154Y-98140171D01*
X113428143Y-98134558D01*
X113333355Y-98130637D01*
X113243944Y-98128745D01*
X113166065Y-98129218D01*
G36*
X113562768Y-102377097D02*
X113533960Y-102387608D01*
X113527475Y-102390328D01*
X113481004Y-102409187D01*
X113428946Y-102429264D01*
X113412348Y-102435415D01*
X113379902Y-102449491D01*
X113362280Y-102461667D01*
X113361548Y-102467007D01*
X113388311Y-102481471D01*
X113436840Y-102498838D01*
X113503755Y-102518406D01*
X113585679Y-102539474D01*
X113679234Y-102561342D01*
X113781041Y-102583308D01*
X113887722Y-102604671D01*
X113995899Y-102624730D01*
X114102194Y-102642784D01*
X114203229Y-102658131D01*
X114295625Y-102670070D01*
X114376005Y-102677901D01*
X114378625Y-102678097D01*
X114434555Y-102681662D01*
X114469709Y-102682077D01*
X114488565Y-102678951D01*
X114495596Y-102671891D01*
X114496100Y-102667819D01*
X114484358Y-102638254D01*
X114452222Y-102607766D01*
X114404331Y-102579740D01*
X114345323Y-102557562D01*
X114344913Y-102557445D01*
X114306498Y-102547132D01*
X114248658Y-102532491D01*
X114176734Y-102514830D01*
X114096068Y-102495460D01*
X114012001Y-102475690D01*
X114000800Y-102473089D01*
X113917047Y-102453474D01*
X113836319Y-102434206D01*
X113763861Y-102416566D01*
X113704922Y-102401832D01*
X113664746Y-102391284D01*
X113660825Y-102390188D01*
X113616620Y-102378398D01*
X113587128Y-102374031D01*
X113562768Y-102377097D01*
X113562768Y-102377097D01*
G37*
X113562768Y-102377097D02*
X113533960Y-102387608D01*
X113527475Y-102390328D01*
X113481004Y-102409187D01*
X113428946Y-102429264D01*
X113412348Y-102435415D01*
X113379902Y-102449491D01*
X113362280Y-102461667D01*
X113361548Y-102467007D01*
X113388311Y-102481471D01*
X113436840Y-102498838D01*
X113503755Y-102518406D01*
X113585679Y-102539474D01*
X113679234Y-102561342D01*
X113781041Y-102583308D01*
X113887722Y-102604671D01*
X113995899Y-102624730D01*
X114102194Y-102642784D01*
X114203229Y-102658131D01*
X114295625Y-102670070D01*
X114376005Y-102677901D01*
X114378625Y-102678097D01*
X114434555Y-102681662D01*
X114469709Y-102682077D01*
X114488565Y-102678951D01*
X114495596Y-102671891D01*
X114496100Y-102667819D01*
X114484358Y-102638254D01*
X114452222Y-102607766D01*
X114404331Y-102579740D01*
X114345323Y-102557562D01*
X114344913Y-102557445D01*
X114306498Y-102547132D01*
X114248658Y-102532491D01*
X114176734Y-102514830D01*
X114096068Y-102495460D01*
X114012001Y-102475690D01*
X114000800Y-102473089D01*
X113917047Y-102453474D01*
X113836319Y-102434206D01*
X113763861Y-102416566D01*
X113704922Y-102401832D01*
X113664746Y-102391284D01*
X113660825Y-102390188D01*
X113616620Y-102378398D01*
X113587128Y-102374031D01*
X113562768Y-102377097D01*
G36*
X115191969Y-102452778D02*
X115161260Y-102456652D01*
X115135830Y-102463313D01*
X115110649Y-102473300D01*
X115091851Y-102481916D01*
X115031478Y-102518315D01*
X114989147Y-102561203D01*
X114967908Y-102607110D01*
X114966000Y-102625135D01*
X114967732Y-102644209D01*
X114977137Y-102654014D01*
X115000530Y-102657618D01*
X115033842Y-102658100D01*
X115072831Y-102658648D01*
X115129743Y-102660145D01*
X115197127Y-102662365D01*
X115267534Y-102665084D01*
X115271967Y-102665270D01*
X115349190Y-102667739D01*
X115404987Y-102667512D01*
X115443209Y-102664407D01*
X115467705Y-102658240D01*
X115472992Y-102655745D01*
X115491850Y-102638271D01*
X115514993Y-102606963D01*
X115538908Y-102568164D01*
X115560079Y-102528220D01*
X115574992Y-102493473D01*
X115580132Y-102470270D01*
X115578440Y-102465399D01*
X115563213Y-102462070D01*
X115527098Y-102458795D01*
X115474605Y-102455849D01*
X115410244Y-102453506D01*
X115366050Y-102452471D01*
X115289336Y-102451227D01*
X115232985Y-102451149D01*
X115191969Y-102452778D01*
X115191969Y-102452778D01*
G37*
X115191969Y-102452778D02*
X115161260Y-102456652D01*
X115135830Y-102463313D01*
X115110649Y-102473300D01*
X115091851Y-102481916D01*
X115031478Y-102518315D01*
X114989147Y-102561203D01*
X114967908Y-102607110D01*
X114966000Y-102625135D01*
X114967732Y-102644209D01*
X114977137Y-102654014D01*
X115000530Y-102657618D01*
X115033842Y-102658100D01*
X115072831Y-102658648D01*
X115129743Y-102660145D01*
X115197127Y-102662365D01*
X115267534Y-102665084D01*
X115271967Y-102665270D01*
X115349190Y-102667739D01*
X115404987Y-102667512D01*
X115443209Y-102664407D01*
X115467705Y-102658240D01*
X115472992Y-102655745D01*
X115491850Y-102638271D01*
X115514993Y-102606963D01*
X115538908Y-102568164D01*
X115560079Y-102528220D01*
X115574992Y-102493473D01*
X115580132Y-102470270D01*
X115578440Y-102465399D01*
X115563213Y-102462070D01*
X115527098Y-102458795D01*
X115474605Y-102455849D01*
X115410244Y-102453506D01*
X115366050Y-102452471D01*
X115289336Y-102451227D01*
X115232985Y-102451149D01*
X115191969Y-102452778D01*
G36*
X113823612Y-102264104D02*
X113781949Y-102285943D01*
X113751669Y-102305061D01*
X113738005Y-102318052D01*
X113737805Y-102319963D01*
X113751587Y-102328338D01*
X113786265Y-102340804D01*
X113837840Y-102356398D01*
X113902317Y-102374156D01*
X113975698Y-102393114D01*
X114053987Y-102412309D01*
X114133186Y-102430777D01*
X114209299Y-102447553D01*
X114278330Y-102461675D01*
X114336280Y-102472179D01*
X114379154Y-102478100D01*
X114397460Y-102479024D01*
X114440325Y-102474944D01*
X114483634Y-102467133D01*
X114533394Y-102452293D01*
X114582017Y-102432701D01*
X114624777Y-102411009D01*
X114656949Y-102389869D01*
X114673808Y-102371931D01*
X114672535Y-102361153D01*
X114659031Y-102357902D01*
X114624376Y-102351356D01*
X114572505Y-102342210D01*
X114507352Y-102331154D01*
X114432853Y-102318881D01*
X114426250Y-102317810D01*
X114339045Y-102303279D01*
X114249396Y-102287650D01*
X114164618Y-102272246D01*
X114092027Y-102258389D01*
X114049244Y-102249650D01*
X113913537Y-102220601D01*
X113823612Y-102264104D01*
X113823612Y-102264104D01*
G37*
X113823612Y-102264104D02*
X113781949Y-102285943D01*
X113751669Y-102305061D01*
X113738005Y-102318052D01*
X113737805Y-102319963D01*
X113751587Y-102328338D01*
X113786265Y-102340804D01*
X113837840Y-102356398D01*
X113902317Y-102374156D01*
X113975698Y-102393114D01*
X114053987Y-102412309D01*
X114133186Y-102430777D01*
X114209299Y-102447553D01*
X114278330Y-102461675D01*
X114336280Y-102472179D01*
X114379154Y-102478100D01*
X114397460Y-102479024D01*
X114440325Y-102474944D01*
X114483634Y-102467133D01*
X114533394Y-102452293D01*
X114582017Y-102432701D01*
X114624777Y-102411009D01*
X114656949Y-102389869D01*
X114673808Y-102371931D01*
X114672535Y-102361153D01*
X114659031Y-102357902D01*
X114624376Y-102351356D01*
X114572505Y-102342210D01*
X114507352Y-102331154D01*
X114432853Y-102318881D01*
X114426250Y-102317810D01*
X114339045Y-102303279D01*
X114249396Y-102287650D01*
X114164618Y-102272246D01*
X114092027Y-102258389D01*
X114049244Y-102249650D01*
X113913537Y-102220601D01*
X113823612Y-102264104D01*
G36*
X112594737Y-98823545D02*
X112562198Y-98845321D01*
X112538137Y-98887858D01*
X112521038Y-98951727D01*
X112509386Y-99037501D01*
X112501665Y-99145750D01*
X112496361Y-99277046D01*
X112495428Y-99307084D01*
X112487545Y-99569218D01*
X112534866Y-99630934D01*
X112572155Y-99685125D01*
X112604449Y-99742282D01*
X112628436Y-99795637D01*
X112640805Y-99838421D01*
X112641776Y-99849480D01*
X112630368Y-99901191D01*
X112597874Y-99956926D01*
X112547495Y-100013276D01*
X112482433Y-100066830D01*
X112405889Y-100114179D01*
X112381909Y-100126306D01*
X112337301Y-100146718D01*
X112300210Y-100161792D01*
X112277615Y-100168730D01*
X112275688Y-100168900D01*
X112237867Y-100179091D01*
X112195896Y-100205623D01*
X112157591Y-100242428D01*
X112132255Y-100280249D01*
X112119444Y-100310184D01*
X112112048Y-100339622D01*
X112109215Y-100375946D01*
X112110091Y-100426540D01*
X112111622Y-100458886D01*
X112122193Y-100561803D01*
X112143014Y-100645135D01*
X112175633Y-100713161D01*
X112221599Y-100770158D01*
X112225854Y-100774326D01*
X112264006Y-100805290D01*
X112321991Y-100844614D01*
X112396429Y-100890349D01*
X112483941Y-100940547D01*
X112581144Y-100993259D01*
X112684658Y-101046537D01*
X112774078Y-101090331D01*
X112845843Y-101125288D01*
X112899799Y-101154224D01*
X112941320Y-101181492D01*
X112975781Y-101211449D01*
X113008557Y-101248448D01*
X113045022Y-101296844D01*
X113067026Y-101327677D01*
X113098201Y-101369230D01*
X113125882Y-101401709D01*
X113145681Y-101420137D01*
X113150591Y-101422489D01*
X113169173Y-101416122D01*
X113199487Y-101396825D01*
X113231395Y-101371729D01*
X113268492Y-101339195D01*
X113316353Y-101296157D01*
X113367286Y-101249567D01*
X113393100Y-101225619D01*
X113453227Y-101171929D01*
X113503267Y-101134617D01*
X113549705Y-101110814D01*
X113599026Y-101097648D01*
X113657716Y-101092249D01*
X113696000Y-101091551D01*
X113803950Y-101091223D01*
X114013500Y-100880176D01*
X114084773Y-100808943D01*
X114142532Y-100752843D01*
X114190712Y-100708555D01*
X114233250Y-100672754D01*
X114274081Y-100642119D01*
X114317140Y-100613325D01*
X114362996Y-100585069D01*
X114487110Y-100501273D01*
X114590548Y-100409969D01*
X114677903Y-100306243D01*
X114687193Y-100291417D01*
X114133638Y-100291417D01*
X114130449Y-100342115D01*
X114114532Y-100391411D01*
X114108669Y-100403850D01*
X114086172Y-100438542D01*
X114053694Y-100466695D01*
X114008160Y-100492750D01*
X113951879Y-100525510D01*
X113914291Y-100560316D01*
X113890284Y-100604312D01*
X113874745Y-100664642D01*
X113871491Y-100683702D01*
X113859117Y-100743641D01*
X113841878Y-100785118D01*
X113815372Y-100815069D01*
X113775200Y-100840428D01*
X113770490Y-100842862D01*
X113712893Y-100868590D01*
X113651691Y-100887746D01*
X113582452Y-100900981D01*
X113500741Y-100908946D01*
X113402125Y-100912292D01*
X113299871Y-100911963D01*
X113062491Y-100908397D01*
X112956971Y-100856746D01*
X112905292Y-100830165D01*
X112858382Y-100803776D01*
X112823920Y-100781978D01*
X112815678Y-100775807D01*
X112779905Y-100746518D01*
X112801068Y-100651384D01*
X112816290Y-100590265D01*
X112833086Y-100544826D01*
X112856285Y-100505556D01*
X112890715Y-100462942D01*
X112904707Y-100447253D01*
X112946508Y-100409978D01*
X112981810Y-100396970D01*
X113009812Y-100407741D01*
X113029710Y-100441806D01*
X113040703Y-100498677D01*
X113042513Y-100530850D01*
X113043831Y-100574184D01*
X113045312Y-100607943D01*
X113046345Y-100621956D01*
X113057939Y-100629861D01*
X113091231Y-100634096D01*
X113147839Y-100634843D01*
X113158932Y-100634656D01*
X113212197Y-100633276D01*
X113246335Y-100630371D01*
X113267613Y-100623914D01*
X113282297Y-100611876D01*
X113296656Y-100592228D01*
X113298510Y-100589477D01*
X113318455Y-100550673D01*
X113321552Y-100511992D01*
X113319877Y-100499094D01*
X113318190Y-100446312D01*
X113331493Y-100412715D01*
X113357501Y-100398870D01*
X113393928Y-100405341D01*
X113438487Y-100432696D01*
X113470579Y-100461790D01*
X113512125Y-100500112D01*
X113541227Y-100517760D01*
X113554607Y-100518307D01*
X113586285Y-100503761D01*
X113633073Y-100479060D01*
X113688741Y-100447826D01*
X113747060Y-100413681D01*
X113801799Y-100380247D01*
X113846730Y-100351146D01*
X113867819Y-100336198D01*
X113885444Y-100321300D01*
X113683300Y-100321300D01*
X113672586Y-100362343D01*
X113645039Y-100392541D01*
X113607554Y-100409145D01*
X113567026Y-100409406D01*
X113530348Y-100390578D01*
X113524402Y-100384636D01*
X113503109Y-100345357D01*
X113502436Y-100303885D01*
X113519530Y-100266844D01*
X113551535Y-100240860D01*
X113590019Y-100232400D01*
X113635999Y-100243109D01*
X113668698Y-100272015D01*
X113683045Y-100314286D01*
X113683300Y-100321300D01*
X113885444Y-100321300D01*
X113910042Y-100300509D01*
X113930758Y-100271107D01*
X113929319Y-100244862D01*
X113905079Y-100218643D01*
X113857393Y-100189317D01*
X113835111Y-100177774D01*
X113743026Y-100139797D01*
X113657602Y-100121267D01*
X113582081Y-100122731D01*
X113552369Y-100130001D01*
X113524176Y-100144736D01*
X113483740Y-100172761D01*
X113437055Y-100209681D01*
X113401317Y-100240773D01*
X113328263Y-100303566D01*
X113263587Y-100352044D01*
X113209469Y-100384830D01*
X113168089Y-100400542D01*
X113148309Y-100400763D01*
X113129414Y-100389716D01*
X113097201Y-100364736D01*
X113056443Y-100329721D01*
X113018718Y-100295043D01*
X112960139Y-100240026D01*
X112915315Y-100199849D01*
X112879803Y-100171629D01*
X112849163Y-100152484D01*
X112818954Y-100139530D01*
X112784734Y-100129886D01*
X112753838Y-100123104D01*
X112690010Y-100108021D01*
X112650010Y-100092447D01*
X112632407Y-100073224D01*
X112635770Y-100047189D01*
X112658667Y-100011183D01*
X112687345Y-99976262D01*
X112718191Y-99939347D01*
X112743031Y-99907819D01*
X112756421Y-99888605D01*
X112757063Y-99868905D01*
X112746059Y-99831649D01*
X112722862Y-99775230D01*
X112702083Y-99729855D01*
X112674076Y-99669183D01*
X112655434Y-99624251D01*
X112644235Y-99588048D01*
X112638556Y-99553561D01*
X112636475Y-99513775D01*
X112636182Y-99489450D01*
X112637024Y-99434288D01*
X112641820Y-99394586D01*
X112652741Y-99360465D01*
X112671959Y-99322047D01*
X112673650Y-99318979D01*
X112715937Y-99259579D01*
X112768980Y-99210579D01*
X112827494Y-99175177D01*
X112886193Y-99156576D01*
X112939612Y-99157929D01*
X112961264Y-99169539D01*
X112996439Y-99195234D01*
X113040486Y-99231360D01*
X113088751Y-99274261D01*
X113094637Y-99279721D01*
X113206115Y-99371956D01*
X113325016Y-99449051D01*
X113446955Y-99508802D01*
X113567547Y-99549005D01*
X113664250Y-99566023D01*
X113742311Y-99576655D01*
X113798944Y-99593816D01*
X113837967Y-99621224D01*
X113863199Y-99662601D01*
X113878455Y-99721666D01*
X113885844Y-99781954D01*
X113893208Y-99843996D01*
X113902920Y-99886753D01*
X113916570Y-99916331D01*
X113923211Y-99925497D01*
X113998856Y-100022380D01*
X114056707Y-100104801D01*
X114097780Y-100175373D01*
X114123086Y-100236708D01*
X114133638Y-100291417D01*
X114687193Y-100291417D01*
X114753765Y-100185181D01*
X114775569Y-100143556D01*
X114822516Y-100039994D01*
X114852034Y-99950744D01*
X114863936Y-99876764D01*
X114858034Y-99819011D01*
X114844580Y-99790653D01*
X114813733Y-99759624D01*
X114768120Y-99736269D01*
X114703640Y-99718829D01*
X114659245Y-99711209D01*
X114581796Y-99698063D01*
X114523668Y-99683696D01*
X114478791Y-99666163D01*
X114441095Y-99643521D01*
X114435771Y-99639628D01*
X114397417Y-99613762D01*
X114358180Y-99594497D01*
X114312896Y-99580526D01*
X114256396Y-99570548D01*
X114183517Y-99563258D01*
X114115455Y-99558797D01*
X114021531Y-99552461D01*
X113949625Y-99544999D01*
X113896356Y-99535621D01*
X113858345Y-99523534D01*
X113832211Y-99507944D01*
X113814732Y-99488304D01*
X113795952Y-99464320D01*
X113773013Y-99447476D01*
X113740615Y-99435879D01*
X113693458Y-99427638D01*
X113626241Y-99420859D01*
X113625702Y-99420814D01*
X113575850Y-99415455D01*
X113530527Y-99407266D01*
X113486906Y-99394649D01*
X113442160Y-99376004D01*
X113393461Y-99349734D01*
X113337983Y-99314238D01*
X113272898Y-99267918D01*
X113195379Y-99209175D01*
X113102598Y-99136411D01*
X113052858Y-99096868D01*
X112937631Y-99006078D01*
X112839975Y-98932621D01*
X112758372Y-98877068D01*
X112691309Y-98839990D01*
X112637269Y-98821958D01*
X112594737Y-98823545D01*
X112594737Y-98823545D01*
G37*
X112594737Y-98823545D02*
X112562198Y-98845321D01*
X112538137Y-98887858D01*
X112521038Y-98951727D01*
X112509386Y-99037501D01*
X112501665Y-99145750D01*
X112496361Y-99277046D01*
X112495428Y-99307084D01*
X112487545Y-99569218D01*
X112534866Y-99630934D01*
X112572155Y-99685125D01*
X112604449Y-99742282D01*
X112628436Y-99795637D01*
X112640805Y-99838421D01*
X112641776Y-99849480D01*
X112630368Y-99901191D01*
X112597874Y-99956926D01*
X112547495Y-100013276D01*
X112482433Y-100066830D01*
X112405889Y-100114179D01*
X112381909Y-100126306D01*
X112337301Y-100146718D01*
X112300210Y-100161792D01*
X112277615Y-100168730D01*
X112275688Y-100168900D01*
X112237867Y-100179091D01*
X112195896Y-100205623D01*
X112157591Y-100242428D01*
X112132255Y-100280249D01*
X112119444Y-100310184D01*
X112112048Y-100339622D01*
X112109215Y-100375946D01*
X112110091Y-100426540D01*
X112111622Y-100458886D01*
X112122193Y-100561803D01*
X112143014Y-100645135D01*
X112175633Y-100713161D01*
X112221599Y-100770158D01*
X112225854Y-100774326D01*
X112264006Y-100805290D01*
X112321991Y-100844614D01*
X112396429Y-100890349D01*
X112483941Y-100940547D01*
X112581144Y-100993259D01*
X112684658Y-101046537D01*
X112774078Y-101090331D01*
X112845843Y-101125288D01*
X112899799Y-101154224D01*
X112941320Y-101181492D01*
X112975781Y-101211449D01*
X113008557Y-101248448D01*
X113045022Y-101296844D01*
X113067026Y-101327677D01*
X113098201Y-101369230D01*
X113125882Y-101401709D01*
X113145681Y-101420137D01*
X113150591Y-101422489D01*
X113169173Y-101416122D01*
X113199487Y-101396825D01*
X113231395Y-101371729D01*
X113268492Y-101339195D01*
X113316353Y-101296157D01*
X113367286Y-101249567D01*
X113393100Y-101225619D01*
X113453227Y-101171929D01*
X113503267Y-101134617D01*
X113549705Y-101110814D01*
X113599026Y-101097648D01*
X113657716Y-101092249D01*
X113696000Y-101091551D01*
X113803950Y-101091223D01*
X114013500Y-100880176D01*
X114084773Y-100808943D01*
X114142532Y-100752843D01*
X114190712Y-100708555D01*
X114233250Y-100672754D01*
X114274081Y-100642119D01*
X114317140Y-100613325D01*
X114362996Y-100585069D01*
X114487110Y-100501273D01*
X114590548Y-100409969D01*
X114677903Y-100306243D01*
X114687193Y-100291417D01*
X114133638Y-100291417D01*
X114130449Y-100342115D01*
X114114532Y-100391411D01*
X114108669Y-100403850D01*
X114086172Y-100438542D01*
X114053694Y-100466695D01*
X114008160Y-100492750D01*
X113951879Y-100525510D01*
X113914291Y-100560316D01*
X113890284Y-100604312D01*
X113874745Y-100664642D01*
X113871491Y-100683702D01*
X113859117Y-100743641D01*
X113841878Y-100785118D01*
X113815372Y-100815069D01*
X113775200Y-100840428D01*
X113770490Y-100842862D01*
X113712893Y-100868590D01*
X113651691Y-100887746D01*
X113582452Y-100900981D01*
X113500741Y-100908946D01*
X113402125Y-100912292D01*
X113299871Y-100911963D01*
X113062491Y-100908397D01*
X112956971Y-100856746D01*
X112905292Y-100830165D01*
X112858382Y-100803776D01*
X112823920Y-100781978D01*
X112815678Y-100775807D01*
X112779905Y-100746518D01*
X112801068Y-100651384D01*
X112816290Y-100590265D01*
X112833086Y-100544826D01*
X112856285Y-100505556D01*
X112890715Y-100462942D01*
X112904707Y-100447253D01*
X112946508Y-100409978D01*
X112981810Y-100396970D01*
X113009812Y-100407741D01*
X113029710Y-100441806D01*
X113040703Y-100498677D01*
X113042513Y-100530850D01*
X113043831Y-100574184D01*
X113045312Y-100607943D01*
X113046345Y-100621956D01*
X113057939Y-100629861D01*
X113091231Y-100634096D01*
X113147839Y-100634843D01*
X113158932Y-100634656D01*
X113212197Y-100633276D01*
X113246335Y-100630371D01*
X113267613Y-100623914D01*
X113282297Y-100611876D01*
X113296656Y-100592228D01*
X113298510Y-100589477D01*
X113318455Y-100550673D01*
X113321552Y-100511992D01*
X113319877Y-100499094D01*
X113318190Y-100446312D01*
X113331493Y-100412715D01*
X113357501Y-100398870D01*
X113393928Y-100405341D01*
X113438487Y-100432696D01*
X113470579Y-100461790D01*
X113512125Y-100500112D01*
X113541227Y-100517760D01*
X113554607Y-100518307D01*
X113586285Y-100503761D01*
X113633073Y-100479060D01*
X113688741Y-100447826D01*
X113747060Y-100413681D01*
X113801799Y-100380247D01*
X113846730Y-100351146D01*
X113867819Y-100336198D01*
X113885444Y-100321300D01*
X113683300Y-100321300D01*
X113672586Y-100362343D01*
X113645039Y-100392541D01*
X113607554Y-100409145D01*
X113567026Y-100409406D01*
X113530348Y-100390578D01*
X113524402Y-100384636D01*
X113503109Y-100345357D01*
X113502436Y-100303885D01*
X113519530Y-100266844D01*
X113551535Y-100240860D01*
X113590019Y-100232400D01*
X113635999Y-100243109D01*
X113668698Y-100272015D01*
X113683045Y-100314286D01*
X113683300Y-100321300D01*
X113885444Y-100321300D01*
X113910042Y-100300509D01*
X113930758Y-100271107D01*
X113929319Y-100244862D01*
X113905079Y-100218643D01*
X113857393Y-100189317D01*
X113835111Y-100177774D01*
X113743026Y-100139797D01*
X113657602Y-100121267D01*
X113582081Y-100122731D01*
X113552369Y-100130001D01*
X113524176Y-100144736D01*
X113483740Y-100172761D01*
X113437055Y-100209681D01*
X113401317Y-100240773D01*
X113328263Y-100303566D01*
X113263587Y-100352044D01*
X113209469Y-100384830D01*
X113168089Y-100400542D01*
X113148309Y-100400763D01*
X113129414Y-100389716D01*
X113097201Y-100364736D01*
X113056443Y-100329721D01*
X113018718Y-100295043D01*
X112960139Y-100240026D01*
X112915315Y-100199849D01*
X112879803Y-100171629D01*
X112849163Y-100152484D01*
X112818954Y-100139530D01*
X112784734Y-100129886D01*
X112753838Y-100123104D01*
X112690010Y-100108021D01*
X112650010Y-100092447D01*
X112632407Y-100073224D01*
X112635770Y-100047189D01*
X112658667Y-100011183D01*
X112687345Y-99976262D01*
X112718191Y-99939347D01*
X112743031Y-99907819D01*
X112756421Y-99888605D01*
X112757063Y-99868905D01*
X112746059Y-99831649D01*
X112722862Y-99775230D01*
X112702083Y-99729855D01*
X112674076Y-99669183D01*
X112655434Y-99624251D01*
X112644235Y-99588048D01*
X112638556Y-99553561D01*
X112636475Y-99513775D01*
X112636182Y-99489450D01*
X112637024Y-99434288D01*
X112641820Y-99394586D01*
X112652741Y-99360465D01*
X112671959Y-99322047D01*
X112673650Y-99318979D01*
X112715937Y-99259579D01*
X112768980Y-99210579D01*
X112827494Y-99175177D01*
X112886193Y-99156576D01*
X112939612Y-99157929D01*
X112961264Y-99169539D01*
X112996439Y-99195234D01*
X113040486Y-99231360D01*
X113088751Y-99274261D01*
X113094637Y-99279721D01*
X113206115Y-99371956D01*
X113325016Y-99449051D01*
X113446955Y-99508802D01*
X113567547Y-99549005D01*
X113664250Y-99566023D01*
X113742311Y-99576655D01*
X113798944Y-99593816D01*
X113837967Y-99621224D01*
X113863199Y-99662601D01*
X113878455Y-99721666D01*
X113885844Y-99781954D01*
X113893208Y-99843996D01*
X113902920Y-99886753D01*
X113916570Y-99916331D01*
X113923211Y-99925497D01*
X113998856Y-100022380D01*
X114056707Y-100104801D01*
X114097780Y-100175373D01*
X114123086Y-100236708D01*
X114133638Y-100291417D01*
X114687193Y-100291417D01*
X114753765Y-100185181D01*
X114775569Y-100143556D01*
X114822516Y-100039994D01*
X114852034Y-99950744D01*
X114863936Y-99876764D01*
X114858034Y-99819011D01*
X114844580Y-99790653D01*
X114813733Y-99759624D01*
X114768120Y-99736269D01*
X114703640Y-99718829D01*
X114659245Y-99711209D01*
X114581796Y-99698063D01*
X114523668Y-99683696D01*
X114478791Y-99666163D01*
X114441095Y-99643521D01*
X114435771Y-99639628D01*
X114397417Y-99613762D01*
X114358180Y-99594497D01*
X114312896Y-99580526D01*
X114256396Y-99570548D01*
X114183517Y-99563258D01*
X114115455Y-99558797D01*
X114021531Y-99552461D01*
X113949625Y-99544999D01*
X113896356Y-99535621D01*
X113858345Y-99523534D01*
X113832211Y-99507944D01*
X113814732Y-99488304D01*
X113795952Y-99464320D01*
X113773013Y-99447476D01*
X113740615Y-99435879D01*
X113693458Y-99427638D01*
X113626241Y-99420859D01*
X113625702Y-99420814D01*
X113575850Y-99415455D01*
X113530527Y-99407266D01*
X113486906Y-99394649D01*
X113442160Y-99376004D01*
X113393461Y-99349734D01*
X113337983Y-99314238D01*
X113272898Y-99267918D01*
X113195379Y-99209175D01*
X113102598Y-99136411D01*
X113052858Y-99096868D01*
X112937631Y-99006078D01*
X112839975Y-98932621D01*
X112758372Y-98877068D01*
X112691309Y-98839990D01*
X112637269Y-98821958D01*
X112594737Y-98823545D01*
G36*
X113534365Y-100268374D02*
X113530900Y-100283200D01*
X113539938Y-100303631D01*
X113559187Y-100308093D01*
X113575350Y-100295900D01*
X113577006Y-100274598D01*
X113560490Y-100259708D01*
X113549201Y-100257800D01*
X113534365Y-100268374D01*
X113534365Y-100268374D01*
G37*
X113534365Y-100268374D02*
X113530900Y-100283200D01*
X113539938Y-100303631D01*
X113559187Y-100308093D01*
X113575350Y-100295900D01*
X113577006Y-100274598D01*
X113560490Y-100259708D01*
X113549201Y-100257800D01*
X113534365Y-100268374D01*
G36*
X143275676Y-94830873D02*
X143122702Y-94905174D01*
X143026998Y-94985791D01*
X142922240Y-95100141D01*
X143102433Y-95172421D01*
X143218435Y-95229841D01*
X143329247Y-95310235D01*
X143443302Y-95421907D01*
X143569035Y-95573158D01*
X143714879Y-95772289D01*
X143721704Y-95782014D01*
X143821067Y-95913081D01*
X143932156Y-96043075D01*
X144035072Y-96149100D01*
X144061075Y-96172549D01*
X144147644Y-96250560D01*
X144201324Y-96314854D01*
X144234611Y-96387837D01*
X144260000Y-96491916D01*
X144271101Y-96549164D01*
X144304708Y-96687269D01*
X144349567Y-96820861D01*
X144393855Y-96916954D01*
X144530875Y-97089033D01*
X144724101Y-97235412D01*
X144971035Y-97354607D01*
X145269182Y-97445130D01*
X145289143Y-97449730D01*
X145440788Y-97481076D01*
X145553625Y-97494955D01*
X145649602Y-97492356D01*
X145750671Y-97474264D01*
X145764198Y-97471096D01*
X145903694Y-97421910D01*
X146018144Y-97351543D01*
X146098074Y-97269374D01*
X146134009Y-97184778D01*
X146122229Y-97116723D01*
X146076788Y-97064744D01*
X146004919Y-97041728D01*
X145896005Y-97046574D01*
X145742888Y-97077341D01*
X145536522Y-97109096D01*
X145357608Y-97093260D01*
X145188392Y-97026834D01*
X145092845Y-96967524D01*
X144941833Y-96835061D01*
X144852304Y-96690041D01*
X144824740Y-96534245D01*
X144859623Y-96369455D01*
X144905733Y-96275407D01*
X144950486Y-96193998D01*
X144975405Y-96138540D01*
X144977170Y-96124574D01*
X144943111Y-96109713D01*
X144868367Y-96081038D01*
X144806625Y-96058365D01*
X144571666Y-95955954D01*
X144384075Y-95830955D01*
X144230926Y-95671481D01*
X144099291Y-95465645D01*
X144045351Y-95358375D01*
X143977015Y-95224763D01*
X143906190Y-95104292D01*
X143843848Y-95014939D01*
X143818698Y-94986996D01*
X143719159Y-94912422D01*
X143600637Y-94849431D01*
X143488381Y-94810118D01*
X143434458Y-94802927D01*
X143275676Y-94830873D01*
X143275676Y-94830873D01*
G37*
X143275676Y-94830873D02*
X143122702Y-94905174D01*
X143026998Y-94985791D01*
X142922240Y-95100141D01*
X143102433Y-95172421D01*
X143218435Y-95229841D01*
X143329247Y-95310235D01*
X143443302Y-95421907D01*
X143569035Y-95573158D01*
X143714879Y-95772289D01*
X143721704Y-95782014D01*
X143821067Y-95913081D01*
X143932156Y-96043075D01*
X144035072Y-96149100D01*
X144061075Y-96172549D01*
X144147644Y-96250560D01*
X144201324Y-96314854D01*
X144234611Y-96387837D01*
X144260000Y-96491916D01*
X144271101Y-96549164D01*
X144304708Y-96687269D01*
X144349567Y-96820861D01*
X144393855Y-96916954D01*
X144530875Y-97089033D01*
X144724101Y-97235412D01*
X144971035Y-97354607D01*
X145269182Y-97445130D01*
X145289143Y-97449730D01*
X145440788Y-97481076D01*
X145553625Y-97494955D01*
X145649602Y-97492356D01*
X145750671Y-97474264D01*
X145764198Y-97471096D01*
X145903694Y-97421910D01*
X146018144Y-97351543D01*
X146098074Y-97269374D01*
X146134009Y-97184778D01*
X146122229Y-97116723D01*
X146076788Y-97064744D01*
X146004919Y-97041728D01*
X145896005Y-97046574D01*
X145742888Y-97077341D01*
X145536522Y-97109096D01*
X145357608Y-97093260D01*
X145188392Y-97026834D01*
X145092845Y-96967524D01*
X144941833Y-96835061D01*
X144852304Y-96690041D01*
X144824740Y-96534245D01*
X144859623Y-96369455D01*
X144905733Y-96275407D01*
X144950486Y-96193998D01*
X144975405Y-96138540D01*
X144977170Y-96124574D01*
X144943111Y-96109713D01*
X144868367Y-96081038D01*
X144806625Y-96058365D01*
X144571666Y-95955954D01*
X144384075Y-95830955D01*
X144230926Y-95671481D01*
X144099291Y-95465645D01*
X144045351Y-95358375D01*
X143977015Y-95224763D01*
X143906190Y-95104292D01*
X143843848Y-95014939D01*
X143818698Y-94986996D01*
X143719159Y-94912422D01*
X143600637Y-94849431D01*
X143488381Y-94810118D01*
X143434458Y-94802927D01*
X143275676Y-94830873D01*
G36*
X153024438Y-94555818D02*
X152900047Y-94576486D01*
X152805684Y-94621413D01*
X152732001Y-94700443D01*
X152669650Y-94823420D01*
X152612498Y-94989592D01*
X152563175Y-95136970D01*
X152512976Y-95245670D01*
X152448794Y-95339324D01*
X152367858Y-95430687D01*
X152247935Y-95541842D01*
X152102859Y-95653025D01*
X151950339Y-95752595D01*
X151808083Y-95828914D01*
X151701749Y-95868523D01*
X151628444Y-95898086D01*
X151596449Y-95948651D01*
X151602306Y-96032548D01*
X151629697Y-96125461D01*
X151660331Y-96233106D01*
X151678421Y-96330955D01*
X151680500Y-96361687D01*
X151655846Y-96452824D01*
X151588777Y-96565430D01*
X151489638Y-96685634D01*
X151368773Y-96799567D01*
X151332329Y-96828546D01*
X151192365Y-96935300D01*
X150543659Y-96891084D01*
X150489303Y-96974042D01*
X150454353Y-97037536D01*
X150457599Y-97085766D01*
X150486523Y-97135714D01*
X150581005Y-97226611D01*
X150720006Y-97292183D01*
X150888792Y-97329938D01*
X151072630Y-97337386D01*
X151256787Y-97312036D01*
X151354800Y-97282497D01*
X151475711Y-97230463D01*
X151613411Y-97160949D01*
X151704050Y-97109303D01*
X151918028Y-96954844D01*
X152074213Y-96784445D01*
X152177745Y-96590618D01*
X152233767Y-96365872D01*
X152238125Y-96331390D01*
X152254105Y-96220800D01*
X152279803Y-96143405D01*
X152327795Y-96074745D01*
X152410654Y-95990365D01*
X152416184Y-95985058D01*
X152502253Y-95905134D01*
X152575200Y-95841922D01*
X152617333Y-95810380D01*
X152650414Y-95774361D01*
X152707179Y-95694896D01*
X152779737Y-95583636D01*
X152860199Y-95452228D01*
X152862171Y-95448907D01*
X152980768Y-95261271D01*
X153088169Y-95122261D01*
X153195557Y-95021077D01*
X153314118Y-94946920D01*
X153434688Y-94896117D01*
X153509784Y-94864558D01*
X153551029Y-94838137D01*
X153553750Y-94832758D01*
X153530036Y-94787736D01*
X153470262Y-94723759D01*
X153391482Y-94656675D01*
X153310750Y-94602332D01*
X153298919Y-94595945D01*
X153184255Y-94558536D01*
X153038783Y-94554718D01*
X153024438Y-94555818D01*
X153024438Y-94555818D01*
G37*
X153024438Y-94555818D02*
X152900047Y-94576486D01*
X152805684Y-94621413D01*
X152732001Y-94700443D01*
X152669650Y-94823420D01*
X152612498Y-94989592D01*
X152563175Y-95136970D01*
X152512976Y-95245670D01*
X152448794Y-95339324D01*
X152367858Y-95430687D01*
X152247935Y-95541842D01*
X152102859Y-95653025D01*
X151950339Y-95752595D01*
X151808083Y-95828914D01*
X151701749Y-95868523D01*
X151628444Y-95898086D01*
X151596449Y-95948651D01*
X151602306Y-96032548D01*
X151629697Y-96125461D01*
X151660331Y-96233106D01*
X151678421Y-96330955D01*
X151680500Y-96361687D01*
X151655846Y-96452824D01*
X151588777Y-96565430D01*
X151489638Y-96685634D01*
X151368773Y-96799567D01*
X151332329Y-96828546D01*
X151192365Y-96935300D01*
X150543659Y-96891084D01*
X150489303Y-96974042D01*
X150454353Y-97037536D01*
X150457599Y-97085766D01*
X150486523Y-97135714D01*
X150581005Y-97226611D01*
X150720006Y-97292183D01*
X150888792Y-97329938D01*
X151072630Y-97337386D01*
X151256787Y-97312036D01*
X151354800Y-97282497D01*
X151475711Y-97230463D01*
X151613411Y-97160949D01*
X151704050Y-97109303D01*
X151918028Y-96954844D01*
X152074213Y-96784445D01*
X152177745Y-96590618D01*
X152233767Y-96365872D01*
X152238125Y-96331390D01*
X152254105Y-96220800D01*
X152279803Y-96143405D01*
X152327795Y-96074745D01*
X152410654Y-95990365D01*
X152416184Y-95985058D01*
X152502253Y-95905134D01*
X152575200Y-95841922D01*
X152617333Y-95810380D01*
X152650414Y-95774361D01*
X152707179Y-95694896D01*
X152779737Y-95583636D01*
X152860199Y-95452228D01*
X152862171Y-95448907D01*
X152980768Y-95261271D01*
X153088169Y-95122261D01*
X153195557Y-95021077D01*
X153314118Y-94946920D01*
X153434688Y-94896117D01*
X153509784Y-94864558D01*
X153551029Y-94838137D01*
X153553750Y-94832758D01*
X153530036Y-94787736D01*
X153470262Y-94723759D01*
X153391482Y-94656675D01*
X153310750Y-94602332D01*
X153298919Y-94595945D01*
X153184255Y-94558536D01*
X153038783Y-94554718D01*
X153024438Y-94555818D01*
G36*
X142448961Y-96736689D02*
X142361827Y-96780385D01*
X142278791Y-96833820D01*
X142217602Y-96886835D01*
X142196006Y-96929274D01*
X142196108Y-96930000D01*
X142229578Y-96974604D01*
X142298427Y-96983079D01*
X142385506Y-96954970D01*
X142417934Y-96935861D01*
X142514132Y-96858056D01*
X142567077Y-96785419D01*
X142570179Y-96727692D01*
X142564530Y-96719141D01*
X142522444Y-96712888D01*
X142448961Y-96736689D01*
X142448961Y-96736689D01*
G37*
X142448961Y-96736689D02*
X142361827Y-96780385D01*
X142278791Y-96833820D01*
X142217602Y-96886835D01*
X142196006Y-96929274D01*
X142196108Y-96930000D01*
X142229578Y-96974604D01*
X142298427Y-96983079D01*
X142385506Y-96954970D01*
X142417934Y-96935861D01*
X142514132Y-96858056D01*
X142567077Y-96785419D01*
X142570179Y-96727692D01*
X142564530Y-96719141D01*
X142522444Y-96712888D01*
X142448961Y-96736689D01*
G36*
X141946395Y-95887037D02*
X141827053Y-95900992D01*
X141735897Y-95924901D01*
X141733793Y-95925783D01*
X141597182Y-96011156D01*
X141510183Y-96121956D01*
X141470021Y-96247720D01*
X141473923Y-96377986D01*
X141519114Y-96502291D01*
X141602821Y-96610173D01*
X141722270Y-96691170D01*
X141874687Y-96734819D01*
X141949539Y-96739500D01*
X142083088Y-96727626D01*
X142178752Y-96688180D01*
X142198844Y-96673695D01*
X142268799Y-96586273D01*
X142282500Y-96514599D01*
X142269699Y-96436797D01*
X142237372Y-96335735D01*
X142194634Y-96233663D01*
X142150601Y-96152833D01*
X142120064Y-96118096D01*
X142093251Y-96077905D01*
X142129080Y-96029630D01*
X142191874Y-95990984D01*
X142254113Y-95952345D01*
X142262581Y-95924673D01*
X142247436Y-95911279D01*
X142179198Y-95891542D01*
X142071314Y-95883674D01*
X141946395Y-95887037D01*
X141946395Y-95887037D01*
G37*
X141946395Y-95887037D02*
X141827053Y-95900992D01*
X141735897Y-95924901D01*
X141733793Y-95925783D01*
X141597182Y-96011156D01*
X141510183Y-96121956D01*
X141470021Y-96247720D01*
X141473923Y-96377986D01*
X141519114Y-96502291D01*
X141602821Y-96610173D01*
X141722270Y-96691170D01*
X141874687Y-96734819D01*
X141949539Y-96739500D01*
X142083088Y-96727626D01*
X142178752Y-96688180D01*
X142198844Y-96673695D01*
X142268799Y-96586273D01*
X142282500Y-96514599D01*
X142269699Y-96436797D01*
X142237372Y-96335735D01*
X142194634Y-96233663D01*
X142150601Y-96152833D01*
X142120064Y-96118096D01*
X142093251Y-96077905D01*
X142129080Y-96029630D01*
X142191874Y-95990984D01*
X142254113Y-95952345D01*
X142262581Y-95924673D01*
X142247436Y-95911279D01*
X142179198Y-95891542D01*
X142071314Y-95883674D01*
X141946395Y-95887037D01*
G36*
X153966500Y-96449825D02*
X153997622Y-96528633D01*
X154088480Y-96604552D01*
X154196830Y-96658914D01*
X154299484Y-96697161D01*
X154353461Y-96704121D01*
X154365227Y-96680003D01*
X154360541Y-96664187D01*
X154324942Y-96620961D01*
X154253452Y-96559788D01*
X154165009Y-96494755D01*
X154078550Y-96439950D01*
X154022063Y-96412394D01*
X153976741Y-96412238D01*
X153966500Y-96449825D01*
X153966500Y-96449825D01*
G37*
X153966500Y-96449825D02*
X153997622Y-96528633D01*
X154088480Y-96604552D01*
X154196830Y-96658914D01*
X154299484Y-96697161D01*
X154353461Y-96704121D01*
X154365227Y-96680003D01*
X154360541Y-96664187D01*
X154324942Y-96620961D01*
X154253452Y-96559788D01*
X154165009Y-96494755D01*
X154078550Y-96439950D01*
X154022063Y-96412394D01*
X153976741Y-96412238D01*
X153966500Y-96449825D01*
G36*
X142572976Y-96015940D02*
X142505517Y-96022119D01*
X142460227Y-96034238D01*
X142426796Y-96052921D01*
X142413718Y-96062950D01*
X142362373Y-96137892D01*
X142370061Y-96232467D01*
X142437001Y-96347557D01*
X142504054Y-96425098D01*
X142541827Y-96465054D01*
X142575386Y-96495938D01*
X142612806Y-96518535D01*
X142662164Y-96533628D01*
X142731536Y-96542002D01*
X142828998Y-96544440D01*
X142962626Y-96541727D01*
X143140495Y-96534647D01*
X143370683Y-96523984D01*
X143473125Y-96519175D01*
X143656780Y-96509323D01*
X143784738Y-96497835D01*
X143864790Y-96481801D01*
X143904727Y-96458310D01*
X143912340Y-96424455D01*
X143895418Y-96377324D01*
X143888707Y-96363975D01*
X143823482Y-96266760D01*
X143735741Y-96171124D01*
X143646074Y-96097808D01*
X143600125Y-96073241D01*
X143547956Y-96063905D01*
X143444516Y-96053377D01*
X143302000Y-96042617D01*
X143132601Y-96032589D01*
X143011459Y-96026815D01*
X142815637Y-96018912D01*
X142672913Y-96015079D01*
X142572976Y-96015940D01*
X142572976Y-96015940D01*
G37*
X142572976Y-96015940D02*
X142505517Y-96022119D01*
X142460227Y-96034238D01*
X142426796Y-96052921D01*
X142413718Y-96062950D01*
X142362373Y-96137892D01*
X142370061Y-96232467D01*
X142437001Y-96347557D01*
X142504054Y-96425098D01*
X142541827Y-96465054D01*
X142575386Y-96495938D01*
X142612806Y-96518535D01*
X142662164Y-96533628D01*
X142731536Y-96542002D01*
X142828998Y-96544440D01*
X142962626Y-96541727D01*
X143140495Y-96534647D01*
X143370683Y-96523984D01*
X143473125Y-96519175D01*
X143656780Y-96509323D01*
X143784738Y-96497835D01*
X143864790Y-96481801D01*
X143904727Y-96458310D01*
X143912340Y-96424455D01*
X143895418Y-96377324D01*
X143888707Y-96363975D01*
X143823482Y-96266760D01*
X143735741Y-96171124D01*
X143646074Y-96097808D01*
X143600125Y-96073241D01*
X143547956Y-96063905D01*
X143444516Y-96053377D01*
X143302000Y-96042617D01*
X143132601Y-96032589D01*
X143011459Y-96026815D01*
X142815637Y-96018912D01*
X142672913Y-96015079D01*
X142572976Y-96015940D01*
G36*
X154388610Y-95613034D02*
X154296000Y-95630493D01*
X154249784Y-95651670D01*
X154257084Y-95674191D01*
X154276427Y-95682988D01*
X154340125Y-95733859D01*
X154355908Y-95824547D01*
X154323912Y-95956077D01*
X154315957Y-95976974D01*
X154267711Y-96122493D01*
X154256775Y-96230139D01*
X154283863Y-96313929D01*
X154336262Y-96375891D01*
X154439953Y-96433025D01*
X154575979Y-96454173D01*
X154723374Y-96437861D01*
X154809450Y-96409090D01*
X154944790Y-96319638D01*
X155036989Y-96194206D01*
X155076843Y-96046153D01*
X155077750Y-96019650D01*
X155055241Y-95854446D01*
X154986886Y-95731130D01*
X154871443Y-95648773D01*
X154707672Y-95606442D01*
X154520490Y-95601666D01*
X154388610Y-95613034D01*
X154388610Y-95613034D01*
G37*
X154388610Y-95613034D02*
X154296000Y-95630493D01*
X154249784Y-95651670D01*
X154257084Y-95674191D01*
X154276427Y-95682988D01*
X154340125Y-95733859D01*
X154355908Y-95824547D01*
X154323912Y-95956077D01*
X154315957Y-95976974D01*
X154267711Y-96122493D01*
X154256775Y-96230139D01*
X154283863Y-96313929D01*
X154336262Y-96375891D01*
X154439953Y-96433025D01*
X154575979Y-96454173D01*
X154723374Y-96437861D01*
X154809450Y-96409090D01*
X154944790Y-96319638D01*
X155036989Y-96194206D01*
X155076843Y-96046153D01*
X155077750Y-96019650D01*
X155055241Y-95854446D01*
X154986886Y-95731130D01*
X154871443Y-95648773D01*
X154707672Y-95606442D01*
X154520490Y-95601666D01*
X154388610Y-95613034D01*
G36*
X148018993Y-84952132D02*
X147667571Y-84971507D01*
X147394250Y-84995958D01*
X147074950Y-85041813D01*
X146777329Y-85111017D01*
X146492868Y-85207884D01*
X146213049Y-85336725D01*
X145929353Y-85501853D01*
X145633263Y-85707582D01*
X145316259Y-85958223D01*
X145060625Y-86177419D01*
X144773139Y-86440987D01*
X144538844Y-86678859D01*
X144354668Y-86894777D01*
X144217537Y-87092481D01*
X144124378Y-87275710D01*
X144097578Y-87349394D01*
X144053691Y-87494682D01*
X144026997Y-87612168D01*
X144015562Y-87723440D01*
X144017452Y-87850086D01*
X144030732Y-88013694D01*
X144034567Y-88052580D01*
X144051828Y-88260326D01*
X144054092Y-88418673D01*
X144038247Y-88540603D01*
X144001180Y-88639094D01*
X143939779Y-88727127D01*
X143851144Y-88817484D01*
X143769676Y-88899442D01*
X143707832Y-88981031D01*
X143663829Y-89071656D01*
X143635881Y-89180724D01*
X143622204Y-89317642D01*
X143621012Y-89491815D01*
X143630521Y-89712650D01*
X143643432Y-89912138D01*
X143659264Y-90131634D01*
X143673807Y-90302196D01*
X143689828Y-90438260D01*
X143710097Y-90554265D01*
X143737382Y-90664644D01*
X143774450Y-90783836D01*
X143824070Y-90926277D01*
X143853693Y-91008625D01*
X143908575Y-91168663D01*
X143941090Y-91287581D01*
X143954753Y-91382245D01*
X143953077Y-91469521D01*
X143952004Y-91480379D01*
X143920588Y-91611477D01*
X143856538Y-91768352D01*
X143769867Y-91929734D01*
X143675114Y-92068594D01*
X143631929Y-92142794D01*
X143616000Y-92203531D01*
X143603065Y-92252771D01*
X143587010Y-92262750D01*
X143540070Y-92242930D01*
X143453795Y-92187891D01*
X143336607Y-92104263D01*
X143196930Y-91998674D01*
X143043188Y-91877754D01*
X142883803Y-91748133D01*
X142727200Y-91616439D01*
X142581800Y-91489303D01*
X142456029Y-91373354D01*
X142451793Y-91369300D01*
X142159932Y-91088866D01*
X141907936Y-90845310D01*
X141689281Y-90632148D01*
X141497440Y-90442896D01*
X141325890Y-90271070D01*
X141168106Y-90110187D01*
X141017562Y-89953762D01*
X140867734Y-89795312D01*
X140866391Y-89793882D01*
X140734501Y-89654950D01*
X140616812Y-89534117D01*
X140520316Y-89438303D01*
X140452002Y-89374431D01*
X140418861Y-89349422D01*
X140417515Y-89349382D01*
X140396450Y-89387939D01*
X140402445Y-89473244D01*
X140431994Y-89596386D01*
X140481595Y-89748454D01*
X140547743Y-89920534D01*
X140626932Y-90103716D01*
X140715660Y-90289086D01*
X140810420Y-90467735D01*
X140907710Y-90630748D01*
X140941718Y-90682471D01*
X141017347Y-90795187D01*
X141116212Y-90943909D01*
X141226915Y-91111423D01*
X141338057Y-91280514D01*
X141367916Y-91326125D01*
X141505090Y-91528690D01*
X141643758Y-91717032D01*
X141789604Y-91896610D01*
X141948314Y-92072886D01*
X142125570Y-92251318D01*
X142327057Y-92437368D01*
X142558459Y-92636495D01*
X142825459Y-92854159D01*
X143133742Y-93095821D01*
X143488992Y-93366942D01*
X143504875Y-93378942D01*
X143696091Y-93517111D01*
X143921571Y-93669613D01*
X144173712Y-93832126D01*
X144444908Y-94000327D01*
X144727556Y-94169892D01*
X145014051Y-94336500D01*
X145296788Y-94495826D01*
X145568162Y-94643549D01*
X145820569Y-94775344D01*
X146046404Y-94886890D01*
X146238063Y-94973863D01*
X146387942Y-95031940D01*
X146440393Y-95047668D01*
X146514988Y-95057793D01*
X146607537Y-95050219D01*
X146734008Y-95022867D01*
X146829331Y-94997085D01*
X146951708Y-94960083D01*
X147046809Y-94926709D01*
X147101003Y-94901976D01*
X147108500Y-94894377D01*
X147081106Y-94874887D01*
X147003638Y-94831389D01*
X146883172Y-94767556D01*
X146726783Y-94687062D01*
X146541547Y-94593581D01*
X146334539Y-94490788D01*
X146273123Y-94460584D01*
X145998504Y-94324388D01*
X145776802Y-94211081D01*
X145602889Y-94117807D01*
X145471634Y-94041713D01*
X145377908Y-93979944D01*
X145316580Y-93929646D01*
X145313514Y-93926626D01*
X145244573Y-93855862D01*
X145216876Y-93817529D01*
X145225987Y-93799946D01*
X145262443Y-93792144D01*
X145316248Y-93802952D01*
X145420222Y-93841414D01*
X145568629Y-93905071D01*
X145755735Y-93991462D01*
X145975802Y-94098127D01*
X145975989Y-94098220D01*
X146347628Y-94280622D01*
X146664612Y-94433359D01*
X146928142Y-94556972D01*
X147139419Y-94652000D01*
X147299645Y-94718985D01*
X147410019Y-94758468D01*
X147470605Y-94771000D01*
X147543621Y-94759983D01*
X147648721Y-94731534D01*
X147731937Y-94703160D01*
X147829735Y-94664719D01*
X147876351Y-94638538D01*
X147880736Y-94616484D01*
X147854163Y-94592110D01*
X147801365Y-94563486D01*
X147703867Y-94519236D01*
X147576493Y-94465842D01*
X147459723Y-94419618D01*
X147086773Y-94272426D01*
X146758017Y-94134294D01*
X146456550Y-93996977D01*
X146165466Y-93852235D01*
X145867862Y-93691824D01*
X145546832Y-93507502D01*
X145354236Y-93392994D01*
X145102842Y-93240986D01*
X144860391Y-93092286D01*
X144632845Y-92950721D01*
X144426168Y-92820114D01*
X144246320Y-92704293D01*
X144099265Y-92607082D01*
X143990966Y-92532307D01*
X143927384Y-92483794D01*
X143912890Y-92468234D01*
X143916154Y-92422456D01*
X143937640Y-92336185D01*
X143972407Y-92228938D01*
X144045349Y-92024625D01*
X144180160Y-92023507D01*
X144285895Y-92009762D01*
X144366147Y-91963497D01*
X144433099Y-91874120D01*
X144489308Y-91754750D01*
X144542429Y-91643107D01*
X144603637Y-91537477D01*
X144621885Y-91510805D01*
X144669060Y-91439695D01*
X144694217Y-91389416D01*
X144695500Y-91382612D01*
X144672925Y-91345890D01*
X144612798Y-91279650D01*
X144526516Y-91194820D01*
X144425475Y-91102333D01*
X144321075Y-91013119D01*
X144257737Y-90962770D01*
X144172952Y-90893190D01*
X144108718Y-90824807D01*
X144062230Y-90747614D01*
X144030687Y-90651604D01*
X144011285Y-90526770D01*
X144001222Y-90363105D01*
X143997695Y-90150602D01*
X143997496Y-90033577D01*
X143999920Y-89766008D01*
X144007936Y-89552372D01*
X144023427Y-89383209D01*
X144048276Y-89249061D01*
X144084363Y-89140469D01*
X144133572Y-89047973D01*
X144197784Y-88962116D01*
X144214555Y-88942674D01*
X144346250Y-88793059D01*
X144346767Y-88487967D01*
X144352494Y-88190836D01*
X144367993Y-87919832D01*
X144392308Y-87683518D01*
X144424479Y-87490454D01*
X144463548Y-87349200D01*
X144478072Y-87314831D01*
X144535909Y-87225004D01*
X144641475Y-87096983D01*
X144795272Y-86930206D01*
X144997798Y-86724112D01*
X145043085Y-86679222D01*
X145357018Y-86378447D01*
X145642819Y-86125546D01*
X145907781Y-85915690D01*
X146159191Y-85744049D01*
X146404342Y-85605796D01*
X146650524Y-85496102D01*
X146905026Y-85410136D01*
X146997375Y-85384772D01*
X147283911Y-85330456D01*
X147614610Y-85301765D01*
X147976146Y-85297350D01*
X148355197Y-85315865D01*
X148738438Y-85355960D01*
X149112545Y-85416288D01*
X149464193Y-85495500D01*
X149780059Y-85592249D01*
X150016633Y-85690239D01*
X150210467Y-85797066D01*
X150374942Y-85919825D01*
X150520398Y-86069482D01*
X150657170Y-86256998D01*
X150795598Y-86493338D01*
X150823783Y-86546272D01*
X150966870Y-86797969D01*
X151132088Y-87054129D01*
X151311775Y-87305262D01*
X151498267Y-87541878D01*
X151683902Y-87754488D01*
X151861017Y-87933604D01*
X152021948Y-88069735D01*
X152093250Y-88118288D01*
X152260988Y-88238487D01*
X152414069Y-88380200D01*
X152538677Y-88528692D01*
X152620998Y-88669226D01*
X152629413Y-88690233D01*
X152679313Y-88863826D01*
X152717274Y-89071854D01*
X152740942Y-89291514D01*
X152747962Y-89500002D01*
X152735981Y-89674514D01*
X152732961Y-89693200D01*
X152689749Y-89878971D01*
X152624898Y-90047912D01*
X152531264Y-90211695D01*
X152401702Y-90381995D01*
X152229065Y-90570484D01*
X152143219Y-90656675D01*
X151984557Y-90814588D01*
X151866472Y-90936903D01*
X151783138Y-91031368D01*
X151728732Y-91105736D01*
X151697428Y-91167757D01*
X151683403Y-91225182D01*
X151680710Y-91272139D01*
X151694581Y-91378016D01*
X151740714Y-91487455D01*
X151825244Y-91610996D01*
X151954307Y-91759180D01*
X151980088Y-91786500D01*
X152082407Y-91902587D01*
X152178415Y-92026776D01*
X152261209Y-92148107D01*
X152323885Y-92255619D01*
X152359538Y-92338352D01*
X152361264Y-92385348D01*
X152358981Y-92387960D01*
X152306532Y-92428165D01*
X152207795Y-92497292D01*
X152070262Y-92590497D01*
X151901425Y-92702934D01*
X151708774Y-92829761D01*
X151499800Y-92966132D01*
X151281995Y-93107203D01*
X151062850Y-93248131D01*
X150849855Y-93384070D01*
X150650503Y-93510177D01*
X150472284Y-93621607D01*
X150322689Y-93713516D01*
X150209210Y-93781059D01*
X150172375Y-93801964D01*
X149886589Y-93959446D01*
X149649090Y-94088679D01*
X149453149Y-94193118D01*
X149292034Y-94276218D01*
X149159012Y-94341431D01*
X149047353Y-94392212D01*
X148950325Y-94432016D01*
X148927781Y-94440575D01*
X148819338Y-94481980D01*
X148669305Y-94540467D01*
X148494935Y-94609253D01*
X148313482Y-94681556D01*
X148251500Y-94706434D01*
X148040908Y-94788306D01*
X147801176Y-94876997D01*
X147560808Y-94962201D01*
X147348305Y-95033609D01*
X147334741Y-95037975D01*
X147186013Y-95083376D01*
X146998727Y-95136959D01*
X146781402Y-95196600D01*
X146542557Y-95260178D01*
X146290711Y-95325570D01*
X146034383Y-95390653D01*
X145782092Y-95453306D01*
X145542357Y-95511406D01*
X145323697Y-95562831D01*
X145134631Y-95605457D01*
X144983678Y-95637164D01*
X144879356Y-95655828D01*
X144837974Y-95660000D01*
X144736252Y-95668724D01*
X144650395Y-95690971D01*
X144595303Y-95720847D01*
X144585879Y-95752461D01*
X144590249Y-95757948D01*
X144634376Y-95783109D01*
X144721480Y-95820107D01*
X144834007Y-95861583D01*
X144852461Y-95867894D01*
X145093147Y-95927870D01*
X145343443Y-95945196D01*
X145616580Y-95919856D01*
X145868908Y-95866715D01*
X146086172Y-95806604D01*
X146352232Y-95724781D01*
X146657603Y-95624743D01*
X146992801Y-95509991D01*
X147348341Y-95384024D01*
X147714740Y-95250340D01*
X148082513Y-95112440D01*
X148442175Y-94973821D01*
X148784242Y-94837984D01*
X149099230Y-94708427D01*
X149377654Y-94588650D01*
X149569125Y-94501549D01*
X149765850Y-94405349D01*
X149982123Y-94293304D01*
X150203855Y-94173270D01*
X150416959Y-94053103D01*
X150607344Y-93940661D01*
X150760923Y-93843801D01*
X150815762Y-93806335D01*
X150925458Y-93737577D01*
X151037611Y-93681967D01*
X151136752Y-93645633D01*
X151207417Y-93634706D01*
X151229271Y-93642436D01*
X151228580Y-93675733D01*
X151218450Y-93685288D01*
X151180323Y-93713094D01*
X151104550Y-93769149D01*
X151004335Y-93843669D01*
X150949495Y-93884567D01*
X150611967Y-94119450D01*
X150237005Y-94347341D01*
X149820251Y-94570322D01*
X149357344Y-94790476D01*
X148843925Y-95009884D01*
X148275634Y-95230628D01*
X147695875Y-95438315D01*
X147354090Y-95556035D01*
X147021091Y-95669810D01*
X146703183Y-95777543D01*
X146406668Y-95877142D01*
X146137851Y-95966512D01*
X145903035Y-96043559D01*
X145708523Y-96106189D01*
X145560617Y-96152307D01*
X145465623Y-96179819D01*
X145458299Y-96181714D01*
X145309080Y-96231591D01*
X145194388Y-96293972D01*
X145124695Y-96361979D01*
X145108250Y-96411659D01*
X145132760Y-96438963D01*
X145207853Y-96449415D01*
X145335873Y-96442842D01*
X145519168Y-96419071D01*
X145760081Y-96377927D01*
X145886125Y-96354045D01*
X146252916Y-96281020D01*
X146577008Y-96211754D01*
X146872175Y-96142365D01*
X147152191Y-96068966D01*
X147430831Y-95987675D01*
X147721870Y-95894606D01*
X148039082Y-95785875D01*
X148396241Y-95657597D01*
X148531101Y-95608149D01*
X148825868Y-95498290D01*
X149081364Y-95399509D01*
X149312703Y-95305188D01*
X149534998Y-95208708D01*
X149763361Y-95103451D01*
X150012905Y-94982800D01*
X150298743Y-94840135D01*
X150388478Y-94794766D01*
X150718724Y-94624827D01*
X151018166Y-94464382D01*
X151296307Y-94307303D01*
X151562651Y-94147458D01*
X151826703Y-93978717D01*
X152097965Y-93794950D01*
X152385942Y-93590025D01*
X152700139Y-93357813D01*
X153050058Y-93092183D01*
X153165538Y-93003429D01*
X153429953Y-92784414D01*
X153713825Y-92522021D01*
X154007965Y-92226708D01*
X154303186Y-91908930D01*
X154590300Y-91579143D01*
X154860117Y-91247805D01*
X155103450Y-90925372D01*
X155311111Y-90622299D01*
X155432303Y-90423826D01*
X155585163Y-90130572D01*
X155700194Y-89852532D01*
X155773945Y-89599158D01*
X155801413Y-89413187D01*
X155805123Y-89301853D01*
X155801129Y-89220430D01*
X155790320Y-89184513D01*
X155788363Y-89184002D01*
X155759725Y-89208584D01*
X155702586Y-89274735D01*
X155625288Y-89372302D01*
X155538125Y-89488468D01*
X155422658Y-89637030D01*
X155291287Y-89791908D01*
X155163522Y-89930662D01*
X155093625Y-89999733D01*
X155001880Y-90085959D01*
X154875171Y-90205673D01*
X154724448Y-90348499D01*
X154560658Y-90504057D01*
X154394753Y-90661970D01*
X154363375Y-90691879D01*
X154218621Y-90828161D01*
X154052352Y-90981806D01*
X153871291Y-91146870D01*
X153682167Y-91317412D01*
X153491703Y-91487487D01*
X153306625Y-91651154D01*
X153133659Y-91802469D01*
X152979530Y-91935488D01*
X152850965Y-92044270D01*
X152754688Y-92122872D01*
X152697425Y-92165350D01*
X152692579Y-92168259D01*
X152661515Y-92178392D01*
X152650130Y-92153086D01*
X152654320Y-92079948D01*
X152656554Y-92059487D01*
X152660870Y-91970548D01*
X152642479Y-91904004D01*
X152591348Y-91832172D01*
X152562009Y-91798582D01*
X152486741Y-91709341D01*
X152394636Y-91593155D01*
X152305461Y-91474968D01*
X152304347Y-91473444D01*
X152226801Y-91360426D01*
X152177073Y-91263481D01*
X152158017Y-91174310D01*
X152172487Y-91084619D01*
X152223336Y-90986109D01*
X152313420Y-90870484D01*
X152445593Y-90729448D01*
X152619252Y-90558054D01*
X152786631Y-90387064D01*
X152909893Y-90237102D01*
X152997435Y-90093504D01*
X153057660Y-89941605D01*
X153098966Y-89766739D01*
X153109876Y-89701505D01*
X153126951Y-89420795D01*
X153096751Y-89133274D01*
X153023141Y-88856463D01*
X152909985Y-88607885D01*
X152846912Y-88509510D01*
X152700120Y-88321368D01*
X152540905Y-88155473D01*
X152349186Y-87991567D01*
X152282007Y-87939508D01*
X152171558Y-87853038D01*
X152078633Y-87772387D01*
X151997241Y-87689009D01*
X151921391Y-87594360D01*
X151845093Y-87479894D01*
X151762354Y-87337063D01*
X151667185Y-87157324D01*
X151553595Y-86932129D01*
X151499944Y-86823942D01*
X151369056Y-86564295D01*
X151256496Y-86353807D01*
X151156109Y-86183045D01*
X151061740Y-86042577D01*
X150967236Y-85922971D01*
X150866443Y-85814793D01*
X150799956Y-85751049D01*
X150627069Y-85605509D01*
X150426445Y-85460218D01*
X150211803Y-85323201D01*
X149996862Y-85202481D01*
X149795340Y-85106084D01*
X149620955Y-85042033D01*
X149562916Y-85027481D01*
X149326526Y-84990087D01*
X149040748Y-84963664D01*
X148718772Y-84948402D01*
X148373791Y-84944494D01*
X148018993Y-84952132D01*
X148018993Y-84952132D01*
G37*
X148018993Y-84952132D02*
X147667571Y-84971507D01*
X147394250Y-84995958D01*
X147074950Y-85041813D01*
X146777329Y-85111017D01*
X146492868Y-85207884D01*
X146213049Y-85336725D01*
X145929353Y-85501853D01*
X145633263Y-85707582D01*
X145316259Y-85958223D01*
X145060625Y-86177419D01*
X144773139Y-86440987D01*
X144538844Y-86678859D01*
X144354668Y-86894777D01*
X144217537Y-87092481D01*
X144124378Y-87275710D01*
X144097578Y-87349394D01*
X144053691Y-87494682D01*
X144026997Y-87612168D01*
X144015562Y-87723440D01*
X144017452Y-87850086D01*
X144030732Y-88013694D01*
X144034567Y-88052580D01*
X144051828Y-88260326D01*
X144054092Y-88418673D01*
X144038247Y-88540603D01*
X144001180Y-88639094D01*
X143939779Y-88727127D01*
X143851144Y-88817484D01*
X143769676Y-88899442D01*
X143707832Y-88981031D01*
X143663829Y-89071656D01*
X143635881Y-89180724D01*
X143622204Y-89317642D01*
X143621012Y-89491815D01*
X143630521Y-89712650D01*
X143643432Y-89912138D01*
X143659264Y-90131634D01*
X143673807Y-90302196D01*
X143689828Y-90438260D01*
X143710097Y-90554265D01*
X143737382Y-90664644D01*
X143774450Y-90783836D01*
X143824070Y-90926277D01*
X143853693Y-91008625D01*
X143908575Y-91168663D01*
X143941090Y-91287581D01*
X143954753Y-91382245D01*
X143953077Y-91469521D01*
X143952004Y-91480379D01*
X143920588Y-91611477D01*
X143856538Y-91768352D01*
X143769867Y-91929734D01*
X143675114Y-92068594D01*
X143631929Y-92142794D01*
X143616000Y-92203531D01*
X143603065Y-92252771D01*
X143587010Y-92262750D01*
X143540070Y-92242930D01*
X143453795Y-92187891D01*
X143336607Y-92104263D01*
X143196930Y-91998674D01*
X143043188Y-91877754D01*
X142883803Y-91748133D01*
X142727200Y-91616439D01*
X142581800Y-91489303D01*
X142456029Y-91373354D01*
X142451793Y-91369300D01*
X142159932Y-91088866D01*
X141907936Y-90845310D01*
X141689281Y-90632148D01*
X141497440Y-90442896D01*
X141325890Y-90271070D01*
X141168106Y-90110187D01*
X141017562Y-89953762D01*
X140867734Y-89795312D01*
X140866391Y-89793882D01*
X140734501Y-89654950D01*
X140616812Y-89534117D01*
X140520316Y-89438303D01*
X140452002Y-89374431D01*
X140418861Y-89349422D01*
X140417515Y-89349382D01*
X140396450Y-89387939D01*
X140402445Y-89473244D01*
X140431994Y-89596386D01*
X140481595Y-89748454D01*
X140547743Y-89920534D01*
X140626932Y-90103716D01*
X140715660Y-90289086D01*
X140810420Y-90467735D01*
X140907710Y-90630748D01*
X140941718Y-90682471D01*
X141017347Y-90795187D01*
X141116212Y-90943909D01*
X141226915Y-91111423D01*
X141338057Y-91280514D01*
X141367916Y-91326125D01*
X141505090Y-91528690D01*
X141643758Y-91717032D01*
X141789604Y-91896610D01*
X141948314Y-92072886D01*
X142125570Y-92251318D01*
X142327057Y-92437368D01*
X142558459Y-92636495D01*
X142825459Y-92854159D01*
X143133742Y-93095821D01*
X143488992Y-93366942D01*
X143504875Y-93378942D01*
X143696091Y-93517111D01*
X143921571Y-93669613D01*
X144173712Y-93832126D01*
X144444908Y-94000327D01*
X144727556Y-94169892D01*
X145014051Y-94336500D01*
X145296788Y-94495826D01*
X145568162Y-94643549D01*
X145820569Y-94775344D01*
X146046404Y-94886890D01*
X146238063Y-94973863D01*
X146387942Y-95031940D01*
X146440393Y-95047668D01*
X146514988Y-95057793D01*
X146607537Y-95050219D01*
X146734008Y-95022867D01*
X146829331Y-94997085D01*
X146951708Y-94960083D01*
X147046809Y-94926709D01*
X147101003Y-94901976D01*
X147108500Y-94894377D01*
X147081106Y-94874887D01*
X147003638Y-94831389D01*
X146883172Y-94767556D01*
X146726783Y-94687062D01*
X146541547Y-94593581D01*
X146334539Y-94490788D01*
X146273123Y-94460584D01*
X145998504Y-94324388D01*
X145776802Y-94211081D01*
X145602889Y-94117807D01*
X145471634Y-94041713D01*
X145377908Y-93979944D01*
X145316580Y-93929646D01*
X145313514Y-93926626D01*
X145244573Y-93855862D01*
X145216876Y-93817529D01*
X145225987Y-93799946D01*
X145262443Y-93792144D01*
X145316248Y-93802952D01*
X145420222Y-93841414D01*
X145568629Y-93905071D01*
X145755735Y-93991462D01*
X145975802Y-94098127D01*
X145975989Y-94098220D01*
X146347628Y-94280622D01*
X146664612Y-94433359D01*
X146928142Y-94556972D01*
X147139419Y-94652000D01*
X147299645Y-94718985D01*
X147410019Y-94758468D01*
X147470605Y-94771000D01*
X147543621Y-94759983D01*
X147648721Y-94731534D01*
X147731937Y-94703160D01*
X147829735Y-94664719D01*
X147876351Y-94638538D01*
X147880736Y-94616484D01*
X147854163Y-94592110D01*
X147801365Y-94563486D01*
X147703867Y-94519236D01*
X147576493Y-94465842D01*
X147459723Y-94419618D01*
X147086773Y-94272426D01*
X146758017Y-94134294D01*
X146456550Y-93996977D01*
X146165466Y-93852235D01*
X145867862Y-93691824D01*
X145546832Y-93507502D01*
X145354236Y-93392994D01*
X145102842Y-93240986D01*
X144860391Y-93092286D01*
X144632845Y-92950721D01*
X144426168Y-92820114D01*
X144246320Y-92704293D01*
X144099265Y-92607082D01*
X143990966Y-92532307D01*
X143927384Y-92483794D01*
X143912890Y-92468234D01*
X143916154Y-92422456D01*
X143937640Y-92336185D01*
X143972407Y-92228938D01*
X144045349Y-92024625D01*
X144180160Y-92023507D01*
X144285895Y-92009762D01*
X144366147Y-91963497D01*
X144433099Y-91874120D01*
X144489308Y-91754750D01*
X144542429Y-91643107D01*
X144603637Y-91537477D01*
X144621885Y-91510805D01*
X144669060Y-91439695D01*
X144694217Y-91389416D01*
X144695500Y-91382612D01*
X144672925Y-91345890D01*
X144612798Y-91279650D01*
X144526516Y-91194820D01*
X144425475Y-91102333D01*
X144321075Y-91013119D01*
X144257737Y-90962770D01*
X144172952Y-90893190D01*
X144108718Y-90824807D01*
X144062230Y-90747614D01*
X144030687Y-90651604D01*
X144011285Y-90526770D01*
X144001222Y-90363105D01*
X143997695Y-90150602D01*
X143997496Y-90033577D01*
X143999920Y-89766008D01*
X144007936Y-89552372D01*
X144023427Y-89383209D01*
X144048276Y-89249061D01*
X144084363Y-89140469D01*
X144133572Y-89047973D01*
X144197784Y-88962116D01*
X144214555Y-88942674D01*
X144346250Y-88793059D01*
X144346767Y-88487967D01*
X144352494Y-88190836D01*
X144367993Y-87919832D01*
X144392308Y-87683518D01*
X144424479Y-87490454D01*
X144463548Y-87349200D01*
X144478072Y-87314831D01*
X144535909Y-87225004D01*
X144641475Y-87096983D01*
X144795272Y-86930206D01*
X144997798Y-86724112D01*
X145043085Y-86679222D01*
X145357018Y-86378447D01*
X145642819Y-86125546D01*
X145907781Y-85915690D01*
X146159191Y-85744049D01*
X146404342Y-85605796D01*
X146650524Y-85496102D01*
X146905026Y-85410136D01*
X146997375Y-85384772D01*
X147283911Y-85330456D01*
X147614610Y-85301765D01*
X147976146Y-85297350D01*
X148355197Y-85315865D01*
X148738438Y-85355960D01*
X149112545Y-85416288D01*
X149464193Y-85495500D01*
X149780059Y-85592249D01*
X150016633Y-85690239D01*
X150210467Y-85797066D01*
X150374942Y-85919825D01*
X150520398Y-86069482D01*
X150657170Y-86256998D01*
X150795598Y-86493338D01*
X150823783Y-86546272D01*
X150966870Y-86797969D01*
X151132088Y-87054129D01*
X151311775Y-87305262D01*
X151498267Y-87541878D01*
X151683902Y-87754488D01*
X151861017Y-87933604D01*
X152021948Y-88069735D01*
X152093250Y-88118288D01*
X152260988Y-88238487D01*
X152414069Y-88380200D01*
X152538677Y-88528692D01*
X152620998Y-88669226D01*
X152629413Y-88690233D01*
X152679313Y-88863826D01*
X152717274Y-89071854D01*
X152740942Y-89291514D01*
X152747962Y-89500002D01*
X152735981Y-89674514D01*
X152732961Y-89693200D01*
X152689749Y-89878971D01*
X152624898Y-90047912D01*
X152531264Y-90211695D01*
X152401702Y-90381995D01*
X152229065Y-90570484D01*
X152143219Y-90656675D01*
X151984557Y-90814588D01*
X151866472Y-90936903D01*
X151783138Y-91031368D01*
X151728732Y-91105736D01*
X151697428Y-91167757D01*
X151683403Y-91225182D01*
X151680710Y-91272139D01*
X151694581Y-91378016D01*
X151740714Y-91487455D01*
X151825244Y-91610996D01*
X151954307Y-91759180D01*
X151980088Y-91786500D01*
X152082407Y-91902587D01*
X152178415Y-92026776D01*
X152261209Y-92148107D01*
X152323885Y-92255619D01*
X152359538Y-92338352D01*
X152361264Y-92385348D01*
X152358981Y-92387960D01*
X152306532Y-92428165D01*
X152207795Y-92497292D01*
X152070262Y-92590497D01*
X151901425Y-92702934D01*
X151708774Y-92829761D01*
X151499800Y-92966132D01*
X151281995Y-93107203D01*
X151062850Y-93248131D01*
X150849855Y-93384070D01*
X150650503Y-93510177D01*
X150472284Y-93621607D01*
X150322689Y-93713516D01*
X150209210Y-93781059D01*
X150172375Y-93801964D01*
X149886589Y-93959446D01*
X149649090Y-94088679D01*
X149453149Y-94193118D01*
X149292034Y-94276218D01*
X149159012Y-94341431D01*
X149047353Y-94392212D01*
X148950325Y-94432016D01*
X148927781Y-94440575D01*
X148819338Y-94481980D01*
X148669305Y-94540467D01*
X148494935Y-94609253D01*
X148313482Y-94681556D01*
X148251500Y-94706434D01*
X148040908Y-94788306D01*
X147801176Y-94876997D01*
X147560808Y-94962201D01*
X147348305Y-95033609D01*
X147334741Y-95037975D01*
X147186013Y-95083376D01*
X146998727Y-95136959D01*
X146781402Y-95196600D01*
X146542557Y-95260178D01*
X146290711Y-95325570D01*
X146034383Y-95390653D01*
X145782092Y-95453306D01*
X145542357Y-95511406D01*
X145323697Y-95562831D01*
X145134631Y-95605457D01*
X144983678Y-95637164D01*
X144879356Y-95655828D01*
X144837974Y-95660000D01*
X144736252Y-95668724D01*
X144650395Y-95690971D01*
X144595303Y-95720847D01*
X144585879Y-95752461D01*
X144590249Y-95757948D01*
X144634376Y-95783109D01*
X144721480Y-95820107D01*
X144834007Y-95861583D01*
X144852461Y-95867894D01*
X145093147Y-95927870D01*
X145343443Y-95945196D01*
X145616580Y-95919856D01*
X145868908Y-95866715D01*
X146086172Y-95806604D01*
X146352232Y-95724781D01*
X146657603Y-95624743D01*
X146992801Y-95509991D01*
X147348341Y-95384024D01*
X147714740Y-95250340D01*
X148082513Y-95112440D01*
X148442175Y-94973821D01*
X148784242Y-94837984D01*
X149099230Y-94708427D01*
X149377654Y-94588650D01*
X149569125Y-94501549D01*
X149765850Y-94405349D01*
X149982123Y-94293304D01*
X150203855Y-94173270D01*
X150416959Y-94053103D01*
X150607344Y-93940661D01*
X150760923Y-93843801D01*
X150815762Y-93806335D01*
X150925458Y-93737577D01*
X151037611Y-93681967D01*
X151136752Y-93645633D01*
X151207417Y-93634706D01*
X151229271Y-93642436D01*
X151228580Y-93675733D01*
X151218450Y-93685288D01*
X151180323Y-93713094D01*
X151104550Y-93769149D01*
X151004335Y-93843669D01*
X150949495Y-93884567D01*
X150611967Y-94119450D01*
X150237005Y-94347341D01*
X149820251Y-94570322D01*
X149357344Y-94790476D01*
X148843925Y-95009884D01*
X148275634Y-95230628D01*
X147695875Y-95438315D01*
X147354090Y-95556035D01*
X147021091Y-95669810D01*
X146703183Y-95777543D01*
X146406668Y-95877142D01*
X146137851Y-95966512D01*
X145903035Y-96043559D01*
X145708523Y-96106189D01*
X145560617Y-96152307D01*
X145465623Y-96179819D01*
X145458299Y-96181714D01*
X145309080Y-96231591D01*
X145194388Y-96293972D01*
X145124695Y-96361979D01*
X145108250Y-96411659D01*
X145132760Y-96438963D01*
X145207853Y-96449415D01*
X145335873Y-96442842D01*
X145519168Y-96419071D01*
X145760081Y-96377927D01*
X145886125Y-96354045D01*
X146252916Y-96281020D01*
X146577008Y-96211754D01*
X146872175Y-96142365D01*
X147152191Y-96068966D01*
X147430831Y-95987675D01*
X147721870Y-95894606D01*
X148039082Y-95785875D01*
X148396241Y-95657597D01*
X148531101Y-95608149D01*
X148825868Y-95498290D01*
X149081364Y-95399509D01*
X149312703Y-95305188D01*
X149534998Y-95208708D01*
X149763361Y-95103451D01*
X150012905Y-94982800D01*
X150298743Y-94840135D01*
X150388478Y-94794766D01*
X150718724Y-94624827D01*
X151018166Y-94464382D01*
X151296307Y-94307303D01*
X151562651Y-94147458D01*
X151826703Y-93978717D01*
X152097965Y-93794950D01*
X152385942Y-93590025D01*
X152700139Y-93357813D01*
X153050058Y-93092183D01*
X153165538Y-93003429D01*
X153429953Y-92784414D01*
X153713825Y-92522021D01*
X154007965Y-92226708D01*
X154303186Y-91908930D01*
X154590300Y-91579143D01*
X154860117Y-91247805D01*
X155103450Y-90925372D01*
X155311111Y-90622299D01*
X155432303Y-90423826D01*
X155585163Y-90130572D01*
X155700194Y-89852532D01*
X155773945Y-89599158D01*
X155801413Y-89413187D01*
X155805123Y-89301853D01*
X155801129Y-89220430D01*
X155790320Y-89184513D01*
X155788363Y-89184002D01*
X155759725Y-89208584D01*
X155702586Y-89274735D01*
X155625288Y-89372302D01*
X155538125Y-89488468D01*
X155422658Y-89637030D01*
X155291287Y-89791908D01*
X155163522Y-89930662D01*
X155093625Y-89999733D01*
X155001880Y-90085959D01*
X154875171Y-90205673D01*
X154724448Y-90348499D01*
X154560658Y-90504057D01*
X154394753Y-90661970D01*
X154363375Y-90691879D01*
X154218621Y-90828161D01*
X154052352Y-90981806D01*
X153871291Y-91146870D01*
X153682167Y-91317412D01*
X153491703Y-91487487D01*
X153306625Y-91651154D01*
X153133659Y-91802469D01*
X152979530Y-91935488D01*
X152850965Y-92044270D01*
X152754688Y-92122872D01*
X152697425Y-92165350D01*
X152692579Y-92168259D01*
X152661515Y-92178392D01*
X152650130Y-92153086D01*
X152654320Y-92079948D01*
X152656554Y-92059487D01*
X152660870Y-91970548D01*
X152642479Y-91904004D01*
X152591348Y-91832172D01*
X152562009Y-91798582D01*
X152486741Y-91709341D01*
X152394636Y-91593155D01*
X152305461Y-91474968D01*
X152304347Y-91473444D01*
X152226801Y-91360426D01*
X152177073Y-91263481D01*
X152158017Y-91174310D01*
X152172487Y-91084619D01*
X152223336Y-90986109D01*
X152313420Y-90870484D01*
X152445593Y-90729448D01*
X152619252Y-90558054D01*
X152786631Y-90387064D01*
X152909893Y-90237102D01*
X152997435Y-90093504D01*
X153057660Y-89941605D01*
X153098966Y-89766739D01*
X153109876Y-89701505D01*
X153126951Y-89420795D01*
X153096751Y-89133274D01*
X153023141Y-88856463D01*
X152909985Y-88607885D01*
X152846912Y-88509510D01*
X152700120Y-88321368D01*
X152540905Y-88155473D01*
X152349186Y-87991567D01*
X152282007Y-87939508D01*
X152171558Y-87853038D01*
X152078633Y-87772387D01*
X151997241Y-87689009D01*
X151921391Y-87594360D01*
X151845093Y-87479894D01*
X151762354Y-87337063D01*
X151667185Y-87157324D01*
X151553595Y-86932129D01*
X151499944Y-86823942D01*
X151369056Y-86564295D01*
X151256496Y-86353807D01*
X151156109Y-86183045D01*
X151061740Y-86042577D01*
X150967236Y-85922971D01*
X150866443Y-85814793D01*
X150799956Y-85751049D01*
X150627069Y-85605509D01*
X150426445Y-85460218D01*
X150211803Y-85323201D01*
X149996862Y-85202481D01*
X149795340Y-85106084D01*
X149620955Y-85042033D01*
X149562916Y-85027481D01*
X149326526Y-84990087D01*
X149040748Y-84963664D01*
X148718772Y-84948402D01*
X148373791Y-84944494D01*
X148018993Y-84952132D01*
G36*
X149124920Y-95560744D02*
X149052899Y-95587020D01*
X149036687Y-95593820D01*
X148920510Y-95640968D01*
X148790364Y-95691162D01*
X148748868Y-95706538D01*
X148667755Y-95741729D01*
X148623700Y-95772169D01*
X148621868Y-95785517D01*
X148689664Y-95822343D01*
X148811951Y-95866267D01*
X148980340Y-95915553D01*
X149186441Y-95968463D01*
X149421862Y-96023260D01*
X149678215Y-96078205D01*
X149947109Y-96131561D01*
X150220153Y-96181591D01*
X150488957Y-96226558D01*
X150745131Y-96264723D01*
X150980286Y-96294349D01*
X151164563Y-96312086D01*
X151304293Y-96321560D01*
X151392127Y-96322994D01*
X151439271Y-96315449D01*
X151456930Y-96297991D01*
X151458250Y-96287549D01*
X151428894Y-96213637D01*
X151348553Y-96137415D01*
X151228826Y-96067350D01*
X151081306Y-96011906D01*
X151080282Y-96011612D01*
X150984244Y-95985830D01*
X150839643Y-95949227D01*
X150659833Y-95905077D01*
X150458168Y-95856652D01*
X150248001Y-95807226D01*
X150220000Y-95800724D01*
X150010617Y-95751685D01*
X149808796Y-95703516D01*
X149627653Y-95659415D01*
X149480304Y-95622581D01*
X149379864Y-95596212D01*
X149370062Y-95593472D01*
X149259550Y-95563995D01*
X149185820Y-95553077D01*
X149124920Y-95560744D01*
X149124920Y-95560744D01*
G37*
X149124920Y-95560744D02*
X149052899Y-95587020D01*
X149036687Y-95593820D01*
X148920510Y-95640968D01*
X148790364Y-95691162D01*
X148748868Y-95706538D01*
X148667755Y-95741729D01*
X148623700Y-95772169D01*
X148621868Y-95785517D01*
X148689664Y-95822343D01*
X148811951Y-95866267D01*
X148980340Y-95915553D01*
X149186441Y-95968463D01*
X149421862Y-96023260D01*
X149678215Y-96078205D01*
X149947109Y-96131561D01*
X150220153Y-96181591D01*
X150488957Y-96226558D01*
X150745131Y-96264723D01*
X150980286Y-96294349D01*
X151164563Y-96312086D01*
X151304293Y-96321560D01*
X151392127Y-96322994D01*
X151439271Y-96315449D01*
X151456930Y-96297991D01*
X151458250Y-96287549D01*
X151428894Y-96213637D01*
X151348553Y-96137415D01*
X151228826Y-96067350D01*
X151081306Y-96011906D01*
X151080282Y-96011612D01*
X150984244Y-95985830D01*
X150839643Y-95949227D01*
X150659833Y-95905077D01*
X150458168Y-95856652D01*
X150248001Y-95807226D01*
X150220000Y-95800724D01*
X150010617Y-95751685D01*
X149808796Y-95703516D01*
X149627653Y-95659415D01*
X149480304Y-95622581D01*
X149379864Y-95596212D01*
X149370062Y-95593472D01*
X149259550Y-95563995D01*
X149185820Y-95553077D01*
X149124920Y-95560744D01*
G36*
X153197922Y-95749945D02*
X153121150Y-95759631D01*
X153057574Y-95776283D01*
X152994622Y-95801250D01*
X152947626Y-95822791D01*
X152796695Y-95913787D01*
X152690867Y-96021009D01*
X152637769Y-96135777D01*
X152633000Y-96180838D01*
X152637329Y-96228523D01*
X152660841Y-96253035D01*
X152719324Y-96262046D01*
X152802605Y-96263250D01*
X152900078Y-96264621D01*
X153042357Y-96268363D01*
X153210818Y-96273913D01*
X153386834Y-96280711D01*
X153397918Y-96281175D01*
X153590974Y-96287349D01*
X153730467Y-96286781D01*
X153826021Y-96279017D01*
X153887262Y-96263601D01*
X153900479Y-96257363D01*
X153947624Y-96213678D01*
X154005483Y-96135408D01*
X154065269Y-96038411D01*
X154118197Y-95938550D01*
X154155479Y-95851684D01*
X154168328Y-95793676D01*
X154164098Y-95781498D01*
X154126032Y-95773176D01*
X154035744Y-95764989D01*
X153904511Y-95757624D01*
X153743610Y-95751766D01*
X153633125Y-95749179D01*
X153441339Y-95746069D01*
X153300461Y-95745874D01*
X153197922Y-95749945D01*
X153197922Y-95749945D01*
G37*
X153197922Y-95749945D02*
X153121150Y-95759631D01*
X153057574Y-95776283D01*
X152994622Y-95801250D01*
X152947626Y-95822791D01*
X152796695Y-95913787D01*
X152690867Y-96021009D01*
X152637769Y-96135777D01*
X152633000Y-96180838D01*
X152637329Y-96228523D01*
X152660841Y-96253035D01*
X152719324Y-96262046D01*
X152802605Y-96263250D01*
X152900078Y-96264621D01*
X153042357Y-96268363D01*
X153210818Y-96273913D01*
X153386834Y-96280711D01*
X153397918Y-96281175D01*
X153590974Y-96287349D01*
X153730467Y-96286781D01*
X153826021Y-96279017D01*
X153887262Y-96263601D01*
X153900479Y-96257363D01*
X153947624Y-96213678D01*
X154005483Y-96135408D01*
X154065269Y-96038411D01*
X154118197Y-95938550D01*
X154155479Y-95851684D01*
X154168328Y-95793676D01*
X154164098Y-95781498D01*
X154126032Y-95773176D01*
X154035744Y-95764989D01*
X153904511Y-95757624D01*
X153743610Y-95751766D01*
X153633125Y-95749179D01*
X153441339Y-95746069D01*
X153300461Y-95745874D01*
X153197922Y-95749945D01*
G36*
X149776207Y-95278658D02*
X149672302Y-95333282D01*
X149596949Y-95381297D01*
X149563237Y-95414103D01*
X149562834Y-95418874D01*
X149597058Y-95439198D01*
X149683509Y-95469861D01*
X149812207Y-95508456D01*
X149973172Y-95552575D01*
X150156422Y-95599811D01*
X150351977Y-95647755D01*
X150549858Y-95694002D01*
X150740083Y-95736142D01*
X150912672Y-95771769D01*
X151057644Y-95798475D01*
X151165020Y-95813853D01*
X151211649Y-95816607D01*
X151308840Y-95806456D01*
X151424656Y-95783744D01*
X151458250Y-95775130D01*
X151588627Y-95732319D01*
X151709943Y-95680431D01*
X151810867Y-95625990D01*
X151880064Y-95575517D01*
X151906202Y-95535533D01*
X151899337Y-95521310D01*
X151865770Y-95513360D01*
X151778642Y-95496714D01*
X151647048Y-95472996D01*
X151480084Y-95443832D01*
X151286843Y-95410846D01*
X151188375Y-95394291D01*
X150967480Y-95356751D01*
X150751418Y-95318974D01*
X150553742Y-95283410D01*
X150388006Y-95252506D01*
X150267762Y-95228711D01*
X150245037Y-95223863D01*
X150000199Y-95170297D01*
X149776207Y-95278658D01*
X149776207Y-95278658D01*
G37*
X149776207Y-95278658D02*
X149672302Y-95333282D01*
X149596949Y-95381297D01*
X149563237Y-95414103D01*
X149562834Y-95418874D01*
X149597058Y-95439198D01*
X149683509Y-95469861D01*
X149812207Y-95508456D01*
X149973172Y-95552575D01*
X150156422Y-95599811D01*
X150351977Y-95647755D01*
X150549858Y-95694002D01*
X150740083Y-95736142D01*
X150912672Y-95771769D01*
X151057644Y-95798475D01*
X151165020Y-95813853D01*
X151211649Y-95816607D01*
X151308840Y-95806456D01*
X151424656Y-95783744D01*
X151458250Y-95775130D01*
X151588627Y-95732319D01*
X151709943Y-95680431D01*
X151810867Y-95625990D01*
X151880064Y-95575517D01*
X151906202Y-95535533D01*
X151899337Y-95521310D01*
X151865770Y-95513360D01*
X151778642Y-95496714D01*
X151647048Y-95472996D01*
X151480084Y-95443832D01*
X151286843Y-95410846D01*
X151188375Y-95394291D01*
X150967480Y-95356751D01*
X150751418Y-95318974D01*
X150553742Y-95283410D01*
X150388006Y-95252506D01*
X150267762Y-95228711D01*
X150245037Y-95223863D01*
X150000199Y-95170297D01*
X149776207Y-95278658D01*
G36*
X146696722Y-86684858D02*
X146636513Y-86718270D01*
X146587497Y-86780591D01*
X146548307Y-86877114D01*
X146517573Y-87013136D01*
X146493927Y-87193949D01*
X146476000Y-87424849D01*
X146462425Y-87711129D01*
X146456569Y-87885710D01*
X146436862Y-88541045D01*
X146555163Y-88695335D01*
X146648387Y-88830812D01*
X146729122Y-88973706D01*
X146789090Y-89107093D01*
X146820012Y-89214052D01*
X146822440Y-89241701D01*
X146793920Y-89370978D01*
X146712684Y-89510316D01*
X146586737Y-89651191D01*
X146424082Y-89785077D01*
X146232721Y-89903447D01*
X146172771Y-89933766D01*
X146061252Y-89984795D01*
X145968523Y-90022482D01*
X145912037Y-90039827D01*
X145907219Y-90040250D01*
X145812666Y-90065729D01*
X145707740Y-90132058D01*
X145611976Y-90224071D01*
X145548636Y-90318623D01*
X145516609Y-90393460D01*
X145498119Y-90467055D01*
X145491036Y-90557865D01*
X145493226Y-90684351D01*
X145497053Y-90765216D01*
X145523483Y-91022509D01*
X145575534Y-91230839D01*
X145657081Y-91400902D01*
X145771997Y-91543397D01*
X145782634Y-91553816D01*
X145877983Y-91631200D01*
X146022940Y-91729505D01*
X146209083Y-91843876D01*
X146427987Y-91969455D01*
X146671229Y-92101386D01*
X146930385Y-92234813D01*
X147153195Y-92344008D01*
X147334158Y-92432536D01*
X147470945Y-92506955D01*
X147577537Y-92578662D01*
X147667910Y-92659049D01*
X147756045Y-92759514D01*
X147855918Y-92891449D01*
X147900650Y-92953312D01*
X147978208Y-93055605D01*
X148045442Y-93134130D01*
X148091943Y-93177148D01*
X148103235Y-93181800D01*
X148145178Y-93161536D01*
X148217838Y-93110363D01*
X148296487Y-93046862D01*
X148389217Y-92965738D01*
X148508851Y-92858317D01*
X148636168Y-92741945D01*
X148700748Y-92682047D01*
X148851066Y-92547823D01*
X148976166Y-92454544D01*
X149092262Y-92395035D01*
X149215565Y-92362120D01*
X149362289Y-92348623D01*
X149458000Y-92346879D01*
X149727875Y-92346059D01*
X150251750Y-91818441D01*
X150429932Y-91640357D01*
X150574329Y-91500109D01*
X150694780Y-91389388D01*
X150801124Y-91299887D01*
X150903201Y-91223298D01*
X151010849Y-91151312D01*
X151125488Y-91080673D01*
X151435773Y-90871184D01*
X151694370Y-90642923D01*
X151912756Y-90383607D01*
X151935981Y-90346544D01*
X150552094Y-90346544D01*
X150544121Y-90473287D01*
X150504329Y-90596529D01*
X150489672Y-90627625D01*
X150432573Y-90715196D01*
X150349352Y-90787346D01*
X150237350Y-90852489D01*
X150096555Y-90935276D01*
X150003139Y-91021016D01*
X149943922Y-91128078D01*
X149905724Y-91274834D01*
X149896726Y-91327257D01*
X149865792Y-91477103D01*
X149822694Y-91580796D01*
X149756430Y-91655673D01*
X149655998Y-91719071D01*
X149644225Y-91725155D01*
X149500231Y-91789476D01*
X149347228Y-91837366D01*
X149174130Y-91870454D01*
X148969853Y-91890366D01*
X148723312Y-91898731D01*
X148467677Y-91897909D01*
X147874228Y-91888993D01*
X147610427Y-91759865D01*
X147481229Y-91693413D01*
X147363953Y-91627440D01*
X147277800Y-91572946D01*
X147257194Y-91557517D01*
X147167762Y-91484297D01*
X147220669Y-91246461D01*
X147258725Y-91093664D01*
X147300715Y-90980067D01*
X147358712Y-90881890D01*
X147444786Y-90775357D01*
X147479766Y-90736134D01*
X147584269Y-90642947D01*
X147672525Y-90610426D01*
X147742529Y-90637354D01*
X147792274Y-90722515D01*
X147819756Y-90864693D01*
X147824281Y-90945125D01*
X147827576Y-91053460D01*
X147831278Y-91137858D01*
X147833861Y-91172891D01*
X147862848Y-91192652D01*
X147946078Y-91203240D01*
X148087596Y-91205109D01*
X148115329Y-91204641D01*
X148248493Y-91201190D01*
X148333838Y-91193928D01*
X148387031Y-91177786D01*
X148423742Y-91147690D01*
X148459639Y-91098571D01*
X148464275Y-91091692D01*
X148514137Y-90994682D01*
X148521880Y-90897980D01*
X148517691Y-90865736D01*
X148513473Y-90733780D01*
X148546732Y-90649788D01*
X148611753Y-90615175D01*
X148702819Y-90631354D01*
X148814217Y-90699740D01*
X148894446Y-90772475D01*
X148998311Y-90868282D01*
X149071066Y-90912401D01*
X149104516Y-90913769D01*
X149183712Y-90877404D01*
X149300683Y-90815652D01*
X149439853Y-90737567D01*
X149585649Y-90652204D01*
X149722498Y-90568619D01*
X149834825Y-90495867D01*
X149887547Y-90458497D01*
X149984801Y-90376292D01*
X149422820Y-90376292D01*
X149418671Y-90475143D01*
X149369133Y-90569469D01*
X149283375Y-90638327D01*
X149185193Y-90657929D01*
X149081498Y-90618401D01*
X149032021Y-90578445D01*
X148976521Y-90488182D01*
X148971628Y-90388300D01*
X149010208Y-90295609D01*
X149085129Y-90226916D01*
X149189257Y-90199030D01*
X149193046Y-90199000D01*
X149306998Y-90223579D01*
X149384593Y-90287557D01*
X149422820Y-90376292D01*
X149984801Y-90376292D01*
X149993105Y-90369273D01*
X150044894Y-90295769D01*
X150041297Y-90230156D01*
X149980698Y-90164607D01*
X149861481Y-90091293D01*
X149805776Y-90062435D01*
X149581156Y-89969481D01*
X149371376Y-89922239D01*
X149186148Y-89922383D01*
X149103798Y-89941395D01*
X149035584Y-89977239D01*
X148936013Y-90046174D01*
X148819708Y-90137492D01*
X148726166Y-90217921D01*
X148539872Y-90376340D01*
X148376325Y-90498192D01*
X148240565Y-90580295D01*
X148137632Y-90619467D01*
X148089256Y-90620035D01*
X148044295Y-90593185D01*
X147964019Y-90530826D01*
X147858809Y-90441537D01*
X147739047Y-90333900D01*
X147706595Y-90303769D01*
X147567931Y-90175393D01*
X147462464Y-90083375D01*
X147377556Y-90020126D01*
X147300570Y-89978057D01*
X147218867Y-89949579D01*
X147119811Y-89927102D01*
X147060735Y-89915911D01*
X146916185Y-89881039D01*
X146828905Y-89838991D01*
X146792781Y-89786437D01*
X146791000Y-89769079D01*
X146810516Y-89725824D01*
X146861764Y-89651397D01*
X146933799Y-89561645D01*
X146936362Y-89558655D01*
X147013476Y-89466369D01*
X147075577Y-89387548D01*
X147109052Y-89339514D01*
X147110656Y-89290264D01*
X147083148Y-89197124D01*
X147025153Y-89056075D01*
X146973206Y-88942639D01*
X146903189Y-88790958D01*
X146856585Y-88678629D01*
X146828588Y-88588122D01*
X146814390Y-88501902D01*
X146809188Y-88402439D01*
X146808453Y-88341625D01*
X146810559Y-88203721D01*
X146822549Y-88104466D01*
X146849852Y-88019163D01*
X146897897Y-87923118D01*
X146902125Y-87915448D01*
X147007842Y-87766949D01*
X147140449Y-87644447D01*
X147286734Y-87555944D01*
X147433483Y-87509441D01*
X147567028Y-87512824D01*
X147621158Y-87541847D01*
X147709098Y-87606086D01*
X147819215Y-87696401D01*
X147939878Y-87803654D01*
X147954593Y-87817303D01*
X148233287Y-88047891D01*
X148530538Y-88240628D01*
X148835386Y-88390005D01*
X149136867Y-88490512D01*
X149378625Y-88533058D01*
X149573776Y-88559638D01*
X149715359Y-88602540D01*
X149812918Y-88671062D01*
X149875996Y-88774504D01*
X149914137Y-88922167D01*
X149932610Y-89072886D01*
X149951020Y-89227990D01*
X149975300Y-89334883D01*
X150009425Y-89408827D01*
X150026028Y-89431743D01*
X150215138Y-89673951D01*
X150359768Y-89880004D01*
X150462449Y-90056434D01*
X150525714Y-90209770D01*
X150552094Y-90346544D01*
X151935981Y-90346544D01*
X152102411Y-90080953D01*
X152156921Y-89976892D01*
X152274289Y-89717987D01*
X152348084Y-89494862D01*
X152377838Y-89309911D01*
X152363084Y-89165528D01*
X152329448Y-89094633D01*
X152253617Y-89017967D01*
X152141997Y-88960296D01*
X151984366Y-88917372D01*
X151848878Y-88894879D01*
X151666689Y-88865501D01*
X151530280Y-88831779D01*
X151421950Y-88787862D01*
X151323997Y-88727899D01*
X151307426Y-88715925D01*
X151210654Y-88651544D01*
X151112014Y-88603624D01*
X150998495Y-88568901D01*
X150857090Y-88544111D01*
X150674791Y-88525988D01*
X150506636Y-88514993D01*
X150271826Y-88499152D01*
X150092061Y-88480499D01*
X149958890Y-88457054D01*
X149863861Y-88426835D01*
X149798526Y-88387861D01*
X149754829Y-88338760D01*
X149707879Y-88278801D01*
X149650533Y-88236691D01*
X149569538Y-88207699D01*
X149451644Y-88187096D01*
X149283602Y-88170149D01*
X149282254Y-88170035D01*
X149154306Y-88156111D01*
X149037976Y-88134589D01*
X148925972Y-88101366D01*
X148811000Y-88052343D01*
X148685769Y-87983420D01*
X148542985Y-87890495D01*
X148375355Y-87769469D01*
X148175587Y-87616240D01*
X147936388Y-87426708D01*
X147880233Y-87381726D01*
X147630962Y-87183840D01*
X147423718Y-87024395D01*
X147252904Y-86899831D01*
X147112921Y-86806585D01*
X146998173Y-86741098D01*
X146903062Y-86699807D01*
X146821991Y-86679152D01*
X146769492Y-86675060D01*
X146696722Y-86684858D01*
X146696722Y-86684858D01*
G37*
X146696722Y-86684858D02*
X146636513Y-86718270D01*
X146587497Y-86780591D01*
X146548307Y-86877114D01*
X146517573Y-87013136D01*
X146493927Y-87193949D01*
X146476000Y-87424849D01*
X146462425Y-87711129D01*
X146456569Y-87885710D01*
X146436862Y-88541045D01*
X146555163Y-88695335D01*
X146648387Y-88830812D01*
X146729122Y-88973706D01*
X146789090Y-89107093D01*
X146820012Y-89214052D01*
X146822440Y-89241701D01*
X146793920Y-89370978D01*
X146712684Y-89510316D01*
X146586737Y-89651191D01*
X146424082Y-89785077D01*
X146232721Y-89903447D01*
X146172771Y-89933766D01*
X146061252Y-89984795D01*
X145968523Y-90022482D01*
X145912037Y-90039827D01*
X145907219Y-90040250D01*
X145812666Y-90065729D01*
X145707740Y-90132058D01*
X145611976Y-90224071D01*
X145548636Y-90318623D01*
X145516609Y-90393460D01*
X145498119Y-90467055D01*
X145491036Y-90557865D01*
X145493226Y-90684351D01*
X145497053Y-90765216D01*
X145523483Y-91022509D01*
X145575534Y-91230839D01*
X145657081Y-91400902D01*
X145771997Y-91543397D01*
X145782634Y-91553816D01*
X145877983Y-91631200D01*
X146022940Y-91729505D01*
X146209083Y-91843876D01*
X146427987Y-91969455D01*
X146671229Y-92101386D01*
X146930385Y-92234813D01*
X147153195Y-92344008D01*
X147334158Y-92432536D01*
X147470945Y-92506955D01*
X147577537Y-92578662D01*
X147667910Y-92659049D01*
X147756045Y-92759514D01*
X147855918Y-92891449D01*
X147900650Y-92953312D01*
X147978208Y-93055605D01*
X148045442Y-93134130D01*
X148091943Y-93177148D01*
X148103235Y-93181800D01*
X148145178Y-93161536D01*
X148217838Y-93110363D01*
X148296487Y-93046862D01*
X148389217Y-92965738D01*
X148508851Y-92858317D01*
X148636168Y-92741945D01*
X148700748Y-92682047D01*
X148851066Y-92547823D01*
X148976166Y-92454544D01*
X149092262Y-92395035D01*
X149215565Y-92362120D01*
X149362289Y-92348623D01*
X149458000Y-92346879D01*
X149727875Y-92346059D01*
X150251750Y-91818441D01*
X150429932Y-91640357D01*
X150574329Y-91500109D01*
X150694780Y-91389388D01*
X150801124Y-91299887D01*
X150903201Y-91223298D01*
X151010849Y-91151312D01*
X151125488Y-91080673D01*
X151435773Y-90871184D01*
X151694370Y-90642923D01*
X151912756Y-90383607D01*
X151935981Y-90346544D01*
X150552094Y-90346544D01*
X150544121Y-90473287D01*
X150504329Y-90596529D01*
X150489672Y-90627625D01*
X150432573Y-90715196D01*
X150349352Y-90787346D01*
X150237350Y-90852489D01*
X150096555Y-90935276D01*
X150003139Y-91021016D01*
X149943922Y-91128078D01*
X149905724Y-91274834D01*
X149896726Y-91327257D01*
X149865792Y-91477103D01*
X149822694Y-91580796D01*
X149756430Y-91655673D01*
X149655998Y-91719071D01*
X149644225Y-91725155D01*
X149500231Y-91789476D01*
X149347228Y-91837366D01*
X149174130Y-91870454D01*
X148969853Y-91890366D01*
X148723312Y-91898731D01*
X148467677Y-91897909D01*
X147874228Y-91888993D01*
X147610427Y-91759865D01*
X147481229Y-91693413D01*
X147363953Y-91627440D01*
X147277800Y-91572946D01*
X147257194Y-91557517D01*
X147167762Y-91484297D01*
X147220669Y-91246461D01*
X147258725Y-91093664D01*
X147300715Y-90980067D01*
X147358712Y-90881890D01*
X147444786Y-90775357D01*
X147479766Y-90736134D01*
X147584269Y-90642947D01*
X147672525Y-90610426D01*
X147742529Y-90637354D01*
X147792274Y-90722515D01*
X147819756Y-90864693D01*
X147824281Y-90945125D01*
X147827576Y-91053460D01*
X147831278Y-91137858D01*
X147833861Y-91172891D01*
X147862848Y-91192652D01*
X147946078Y-91203240D01*
X148087596Y-91205109D01*
X148115329Y-91204641D01*
X148248493Y-91201190D01*
X148333838Y-91193928D01*
X148387031Y-91177786D01*
X148423742Y-91147690D01*
X148459639Y-91098571D01*
X148464275Y-91091692D01*
X148514137Y-90994682D01*
X148521880Y-90897980D01*
X148517691Y-90865736D01*
X148513473Y-90733780D01*
X148546732Y-90649788D01*
X148611753Y-90615175D01*
X148702819Y-90631354D01*
X148814217Y-90699740D01*
X148894446Y-90772475D01*
X148998311Y-90868282D01*
X149071066Y-90912401D01*
X149104516Y-90913769D01*
X149183712Y-90877404D01*
X149300683Y-90815652D01*
X149439853Y-90737567D01*
X149585649Y-90652204D01*
X149722498Y-90568619D01*
X149834825Y-90495867D01*
X149887547Y-90458497D01*
X149984801Y-90376292D01*
X149422820Y-90376292D01*
X149418671Y-90475143D01*
X149369133Y-90569469D01*
X149283375Y-90638327D01*
X149185193Y-90657929D01*
X149081498Y-90618401D01*
X149032021Y-90578445D01*
X148976521Y-90488182D01*
X148971628Y-90388300D01*
X149010208Y-90295609D01*
X149085129Y-90226916D01*
X149189257Y-90199030D01*
X149193046Y-90199000D01*
X149306998Y-90223579D01*
X149384593Y-90287557D01*
X149422820Y-90376292D01*
X149984801Y-90376292D01*
X149993105Y-90369273D01*
X150044894Y-90295769D01*
X150041297Y-90230156D01*
X149980698Y-90164607D01*
X149861481Y-90091293D01*
X149805776Y-90062435D01*
X149581156Y-89969481D01*
X149371376Y-89922239D01*
X149186148Y-89922383D01*
X149103798Y-89941395D01*
X149035584Y-89977239D01*
X148936013Y-90046174D01*
X148819708Y-90137492D01*
X148726166Y-90217921D01*
X148539872Y-90376340D01*
X148376325Y-90498192D01*
X148240565Y-90580295D01*
X148137632Y-90619467D01*
X148089256Y-90620035D01*
X148044295Y-90593185D01*
X147964019Y-90530826D01*
X147858809Y-90441537D01*
X147739047Y-90333900D01*
X147706595Y-90303769D01*
X147567931Y-90175393D01*
X147462464Y-90083375D01*
X147377556Y-90020126D01*
X147300570Y-89978057D01*
X147218867Y-89949579D01*
X147119811Y-89927102D01*
X147060735Y-89915911D01*
X146916185Y-89881039D01*
X146828905Y-89838991D01*
X146792781Y-89786437D01*
X146791000Y-89769079D01*
X146810516Y-89725824D01*
X146861764Y-89651397D01*
X146933799Y-89561645D01*
X146936362Y-89558655D01*
X147013476Y-89466369D01*
X147075577Y-89387548D01*
X147109052Y-89339514D01*
X147110656Y-89290264D01*
X147083148Y-89197124D01*
X147025153Y-89056075D01*
X146973206Y-88942639D01*
X146903189Y-88790958D01*
X146856585Y-88678629D01*
X146828588Y-88588122D01*
X146814390Y-88501902D01*
X146809188Y-88402439D01*
X146808453Y-88341625D01*
X146810559Y-88203721D01*
X146822549Y-88104466D01*
X146849852Y-88019163D01*
X146897897Y-87923118D01*
X146902125Y-87915448D01*
X147007842Y-87766949D01*
X147140449Y-87644447D01*
X147286734Y-87555944D01*
X147433483Y-87509441D01*
X147567028Y-87512824D01*
X147621158Y-87541847D01*
X147709098Y-87606086D01*
X147819215Y-87696401D01*
X147939878Y-87803654D01*
X147954593Y-87817303D01*
X148233287Y-88047891D01*
X148530538Y-88240628D01*
X148835386Y-88390005D01*
X149136867Y-88490512D01*
X149378625Y-88533058D01*
X149573776Y-88559638D01*
X149715359Y-88602540D01*
X149812918Y-88671062D01*
X149875996Y-88774504D01*
X149914137Y-88922167D01*
X149932610Y-89072886D01*
X149951020Y-89227990D01*
X149975300Y-89334883D01*
X150009425Y-89408827D01*
X150026028Y-89431743D01*
X150215138Y-89673951D01*
X150359768Y-89880004D01*
X150462449Y-90056434D01*
X150525714Y-90209770D01*
X150552094Y-90346544D01*
X151935981Y-90346544D01*
X152102411Y-90080953D01*
X152156921Y-89976892D01*
X152274289Y-89717987D01*
X152348084Y-89494862D01*
X152377838Y-89309911D01*
X152363084Y-89165528D01*
X152329448Y-89094633D01*
X152253617Y-89017967D01*
X152141997Y-88960296D01*
X151984366Y-88917372D01*
X151848878Y-88894879D01*
X151666689Y-88865501D01*
X151530280Y-88831779D01*
X151421950Y-88787862D01*
X151323997Y-88727899D01*
X151307426Y-88715925D01*
X151210654Y-88651544D01*
X151112014Y-88603624D01*
X150998495Y-88568901D01*
X150857090Y-88544111D01*
X150674791Y-88525988D01*
X150506636Y-88514993D01*
X150271826Y-88499152D01*
X150092061Y-88480499D01*
X149958890Y-88457054D01*
X149863861Y-88426835D01*
X149798526Y-88387861D01*
X149754829Y-88338760D01*
X149707879Y-88278801D01*
X149650533Y-88236691D01*
X149569538Y-88207699D01*
X149451644Y-88187096D01*
X149283602Y-88170149D01*
X149282254Y-88170035D01*
X149154306Y-88156111D01*
X149037976Y-88134589D01*
X148925972Y-88101366D01*
X148811000Y-88052343D01*
X148685769Y-87983420D01*
X148542985Y-87890495D01*
X148375355Y-87769469D01*
X148175587Y-87616240D01*
X147936388Y-87426708D01*
X147880233Y-87381726D01*
X147630962Y-87183840D01*
X147423718Y-87024395D01*
X147252904Y-86899831D01*
X147112921Y-86806585D01*
X146998173Y-86741098D01*
X146903062Y-86699807D01*
X146821991Y-86679152D01*
X146769492Y-86675060D01*
X146696722Y-86684858D01*
G36*
X149053911Y-90288935D02*
X149045250Y-90326000D01*
X149067845Y-90377077D01*
X149115966Y-90388234D01*
X149156375Y-90357750D01*
X149160513Y-90304495D01*
X149119225Y-90267272D01*
X149091002Y-90262500D01*
X149053911Y-90288935D01*
X149053911Y-90288935D01*
G37*
X149053911Y-90288935D02*
X149045250Y-90326000D01*
X149067845Y-90377077D01*
X149115966Y-90388234D01*
X149156375Y-90357750D01*
X149160513Y-90304495D01*
X149119225Y-90267272D01*
X149091002Y-90262500D01*
X149053911Y-90288935D01*
D12*
X177400381Y-73294667D02*
X178114667Y-73294667D01*
X178257524Y-73247047D01*
X178352762Y-73151809D01*
X178400381Y-73008952D01*
X178400381Y-72913714D01*
X177495619Y-73723238D02*
X177448000Y-73770857D01*
X177400381Y-73866095D01*
X177400381Y-74104191D01*
X177448000Y-74199429D01*
X177495619Y-74247048D01*
X177590857Y-74294667D01*
X177686095Y-74294667D01*
X177828952Y-74247048D01*
X178400381Y-73675619D01*
X178400381Y-74294667D01*
X162138476Y-101080381D02*
X162709905Y-101080381D01*
X162424191Y-101080381D02*
X162424191Y-100080381D01*
X162519429Y-100223238D01*
X162614667Y-100318476D01*
X162709905Y-100366095D01*
X161567048Y-100508952D02*
X161662286Y-100461333D01*
X161709905Y-100413714D01*
X161757524Y-100318476D01*
X161757524Y-100270857D01*
X161709905Y-100175619D01*
X161662286Y-100128000D01*
X161567048Y-100080381D01*
X161376571Y-100080381D01*
X161281333Y-100128000D01*
X161233714Y-100175619D01*
X161186095Y-100270857D01*
X161186095Y-100318476D01*
X161233714Y-100413714D01*
X161281333Y-100461333D01*
X161376571Y-100508952D01*
X161567048Y-100508952D01*
X161662286Y-100556571D01*
X161709905Y-100604190D01*
X161757524Y-100699429D01*
X161757524Y-100889905D01*
X161709905Y-100985143D01*
X161662286Y-101032762D01*
X161567048Y-101080381D01*
X161376571Y-101080381D01*
X161281333Y-101032762D01*
X161233714Y-100985143D01*
X161186095Y-100889905D01*
X161186095Y-100699429D01*
X161233714Y-100604190D01*
X161281333Y-100556571D01*
X161376571Y-100508952D01*
X161662285Y-84770381D02*
X162233714Y-84770381D01*
X161948000Y-84770381D02*
X161948000Y-83770381D01*
X162043238Y-83913238D01*
X162138476Y-84008476D01*
X162233714Y-84056095D01*
X112068952Y-76216571D02*
X111926095Y-76264190D01*
X111878476Y-76311810D01*
X111830857Y-76407048D01*
X111830857Y-76549905D01*
X111878476Y-76645143D01*
X111926095Y-76692762D01*
X112021333Y-76740381D01*
X112402286Y-76740381D01*
X112402286Y-75740381D01*
X112068952Y-75740381D01*
X111973714Y-75788000D01*
X111926095Y-75835619D01*
X111878476Y-75930857D01*
X111878476Y-76026095D01*
X111926095Y-76121333D01*
X111973714Y-76168952D01*
X112068952Y-76216571D01*
X112402286Y-76216571D01*
X111497524Y-75740381D02*
X110830857Y-75740381D01*
X111497524Y-76740381D01*
X110830857Y-76740381D01*
X109926095Y-76740381D02*
X110497524Y-76740381D01*
X110211810Y-76740381D02*
X110211810Y-75740381D01*
X110307048Y-75883238D01*
X110402286Y-75978476D01*
X110497524Y-76026095D01*
X113799429Y-79717048D02*
X113799429Y-80478953D01*
X114180381Y-80098001D02*
X113418476Y-80098001D01*
D15*
X141866571Y-56504667D02*
X141890381Y-56480857D01*
X141914190Y-56409429D01*
X141914190Y-56361810D01*
X141890381Y-56290381D01*
X141842762Y-56242762D01*
X141795143Y-56218953D01*
X141699905Y-56195143D01*
X141628476Y-56195143D01*
X141533238Y-56218953D01*
X141485619Y-56242762D01*
X141438000Y-56290381D01*
X141414190Y-56361810D01*
X141414190Y-56409429D01*
X141438000Y-56480857D01*
X141461810Y-56504667D01*
X141414190Y-56933238D02*
X141414190Y-56838000D01*
X141438000Y-56790381D01*
X141461810Y-56766572D01*
X141533238Y-56718953D01*
X141628476Y-56695143D01*
X141818952Y-56695143D01*
X141866571Y-56718953D01*
X141890381Y-56742762D01*
X141914190Y-56790381D01*
X141914190Y-56885619D01*
X141890381Y-56933238D01*
X141866571Y-56957048D01*
X141818952Y-56980857D01*
X141699905Y-56980857D01*
X141652286Y-56957048D01*
X141628476Y-56933238D01*
X141604667Y-56885619D01*
X141604667Y-56790381D01*
X141628476Y-56742762D01*
X141652286Y-56718953D01*
X141699905Y-56695143D01*
D12*
X185970381Y-66484667D02*
X186684667Y-66484667D01*
X186827524Y-66437047D01*
X186922762Y-66341809D01*
X186970381Y-66198952D01*
X186970381Y-66103714D01*
X185970381Y-66865619D02*
X185970381Y-67532286D01*
X186970381Y-67103714D01*
X147949905Y-56040381D02*
X147949905Y-56849905D01*
X147902286Y-56945143D01*
X147854667Y-56992762D01*
X147759429Y-57040381D01*
X147568952Y-57040381D01*
X147473714Y-56992762D01*
X147426095Y-56945143D01*
X147378476Y-56849905D01*
X147378476Y-56040381D01*
X146473714Y-56040381D02*
X146664191Y-56040381D01*
X146759429Y-56088000D01*
X146807048Y-56135619D01*
X146902286Y-56278476D01*
X146949905Y-56468952D01*
X146949905Y-56849905D01*
X146902286Y-56945143D01*
X146854667Y-56992762D01*
X146759429Y-57040381D01*
X146568952Y-57040381D01*
X146473714Y-56992762D01*
X146426095Y-56945143D01*
X146378476Y-56849905D01*
X146378476Y-56611810D01*
X146426095Y-56516571D01*
X146473714Y-56468952D01*
X146568952Y-56421333D01*
X146759429Y-56421333D01*
X146854667Y-56468952D01*
X146902286Y-56516571D01*
X146949905Y-56611810D01*
X174926095Y-45540381D02*
X174926095Y-46349905D01*
X174878476Y-46445143D01*
X174830857Y-46492762D01*
X174735619Y-46540381D01*
X174545142Y-46540381D01*
X174449904Y-46492762D01*
X174402285Y-46445143D01*
X174354666Y-46349905D01*
X174354666Y-45540381D01*
X173354666Y-46540381D02*
X173926095Y-46540381D01*
X173640381Y-46540381D02*
X173640381Y-45540381D01*
X173735619Y-45683238D01*
X173830857Y-45778476D01*
X173926095Y-45826095D01*
X172402285Y-46540381D02*
X172973714Y-46540381D01*
X172688000Y-46540381D02*
X172688000Y-45540381D01*
X172783238Y-45683238D01*
X172878476Y-45778476D01*
X172973714Y-45826095D01*
X114426095Y-45540381D02*
X114426095Y-46349905D01*
X114378476Y-46445143D01*
X114330857Y-46492762D01*
X114235619Y-46540381D01*
X114045142Y-46540381D01*
X113949904Y-46492762D01*
X113902285Y-46445143D01*
X113854666Y-46349905D01*
X113854666Y-45540381D01*
X112854666Y-46540381D02*
X113426095Y-46540381D01*
X113140381Y-46540381D02*
X113140381Y-45540381D01*
X113235619Y-45683238D01*
X113330857Y-45778476D01*
X113426095Y-45826095D01*
X112473714Y-45635619D02*
X112426095Y-45588000D01*
X112330857Y-45540381D01*
X112092761Y-45540381D01*
X111997523Y-45588000D01*
X111949904Y-45635619D01*
X111902285Y-45730857D01*
X111902285Y-45826095D01*
X111949904Y-45968952D01*
X112521333Y-46540381D01*
X111902285Y-46540381D01*
M02*
