G04 #@! TF.FileFunction,Copper,L2,Bot,Signal*
%FSLAX46Y46*%
G04 Gerber Fmt 4.6, Leading zero omitted, Abs format (unit mm)*
G04 Created by KiCad (PCBNEW 4.0.7-e2-6376~60~ubuntu17.10.1) date Wed Apr 25 03:23:06 2018*
%MOMM*%
%LPD*%
G01*
G04 APERTURE LIST*
%ADD10C,0.100000*%
%ADD11C,0.150000*%
%ADD12R,2.000000X2.000000*%
%ADD13C,2.000000*%
%ADD14R,1.250000X1.000000*%
%ADD15R,1.524000X4.064000*%
%ADD16O,1.450000X2.000000*%
%ADD17O,1.150000X1.800000*%
%ADD18R,1.700000X1.700000*%
%ADD19O,1.700000X1.700000*%
%ADD20R,1.524000X1.524000*%
%ADD21C,1.524000*%
%ADD22R,1.600000X1.000000*%
%ADD23C,1.778000*%
%ADD24C,2.540000*%
%ADD25R,4.000000X0.400000*%
%ADD26C,0.685800*%
%ADD27C,0.200000*%
%ADD28C,0.500000*%
%ADD29C,0.254000*%
G04 APERTURE END LIST*
D10*
D11*
X120188000Y-59588000D03*
X119188000Y-59588000D03*
X118188000Y-59588000D03*
X117188000Y-59588000D03*
X116188000Y-59588000D03*
X115188000Y-59588000D03*
X114188000Y-59588000D03*
X120188000Y-58588000D03*
X119188000Y-58588000D03*
X118188000Y-58588000D03*
X117188000Y-58588000D03*
X116188000Y-58588000D03*
X115188000Y-58588000D03*
X114188000Y-58588000D03*
X120188000Y-57588000D03*
X119188000Y-57588000D03*
X118188000Y-57588000D03*
X117188000Y-57588000D03*
X116188000Y-57588000D03*
X115188000Y-57588000D03*
X114188000Y-57588000D03*
X120188000Y-56588000D03*
X119188000Y-56588000D03*
X118188000Y-56588000D03*
X117188000Y-56588000D03*
X116188000Y-56588000D03*
X115188000Y-56588000D03*
X114188000Y-56588000D03*
X120188000Y-55588000D03*
X119188000Y-55588000D03*
X118188000Y-55588000D03*
X117188000Y-55588000D03*
X116188000Y-55588000D03*
X115188000Y-55588000D03*
X114188000Y-55588000D03*
X120188000Y-54588000D03*
X119188000Y-54588000D03*
X118188000Y-54588000D03*
X117188000Y-54588000D03*
X116188000Y-54588000D03*
X115188000Y-54588000D03*
X114188000Y-54588000D03*
X183188000Y-51588000D03*
X182188000Y-51588000D03*
X181188000Y-51588000D03*
X180188000Y-51588000D03*
X179188000Y-51588000D03*
X178188000Y-51588000D03*
X177188000Y-51588000D03*
X176188000Y-51588000D03*
X155688000Y-64588000D03*
X154688000Y-64588000D03*
X153688000Y-64588000D03*
X152688000Y-64588000D03*
X151688000Y-64588000D03*
X150688000Y-64588000D03*
X143688000Y-88588000D03*
X142688000Y-88588000D03*
X141688000Y-88588000D03*
X140688000Y-88588000D03*
X183188000Y-50588000D03*
X182188000Y-50588000D03*
X181188000Y-50588000D03*
X180188000Y-50588000D03*
X179188000Y-50588000D03*
X178188000Y-50588000D03*
X177188000Y-50588000D03*
X176188000Y-50588000D03*
X155688000Y-63588000D03*
X154688000Y-63588000D03*
X153688000Y-63588000D03*
X152688000Y-63588000D03*
X151688000Y-63588000D03*
X150688000Y-63588000D03*
X143688000Y-87588000D03*
X142688000Y-87588000D03*
X141688000Y-87588000D03*
X140688000Y-87588000D03*
X183188000Y-49588000D03*
X182188000Y-49588000D03*
X181188000Y-49588000D03*
X180188000Y-49588000D03*
X179188000Y-49588000D03*
X178188000Y-49588000D03*
X177188000Y-49588000D03*
X176188000Y-49588000D03*
X155688000Y-62588000D03*
X154688000Y-62588000D03*
X153688000Y-62588000D03*
X152688000Y-62588000D03*
X151688000Y-62588000D03*
X150688000Y-62588000D03*
X143688000Y-86588000D03*
X142688000Y-86588000D03*
X141688000Y-86588000D03*
X140688000Y-86588000D03*
X183188000Y-48588000D03*
X182188000Y-48588000D03*
X181188000Y-48588000D03*
X180188000Y-48588000D03*
X179188000Y-48588000D03*
X178188000Y-48588000D03*
X177188000Y-48588000D03*
X176188000Y-48588000D03*
X155688000Y-61588000D03*
X154688000Y-61588000D03*
X153688000Y-61588000D03*
X152688000Y-61588000D03*
X151688000Y-61588000D03*
X150688000Y-61588000D03*
X143688000Y-85588000D03*
X142688000Y-85588000D03*
X141688000Y-85588000D03*
D12*
X111188000Y-80088000D03*
D13*
X111188000Y-72488000D03*
D14*
X139688000Y-57588000D03*
X139688000Y-55588000D03*
D15*
X149728000Y-41588000D03*
X144648000Y-41588000D03*
D16*
X114213000Y-108488000D03*
X121663000Y-108488000D03*
D17*
X114063000Y-112288000D03*
X121813000Y-112288000D03*
D18*
X184188000Y-68088000D03*
D19*
X184188000Y-65548000D03*
X181648000Y-68088000D03*
X181648000Y-65548000D03*
X179108000Y-68088000D03*
X179108000Y-65548000D03*
X176568000Y-68088000D03*
X176568000Y-65548000D03*
D18*
X123688000Y-66088000D03*
D19*
X126228000Y-66088000D03*
D20*
X142068000Y-79128000D03*
D21*
X142068000Y-76588000D03*
X144608000Y-79128000D03*
X144608000Y-76588000D03*
X147148000Y-79128000D03*
X147148000Y-76588000D03*
X149688000Y-79128000D03*
X149688000Y-76588000D03*
D22*
X149688000Y-55016800D03*
X149688000Y-58216800D03*
X144688000Y-55016800D03*
X144688000Y-58216800D03*
D23*
X179688000Y-61338000D03*
X177188000Y-61338000D03*
X174688000Y-61338000D03*
D24*
X183838000Y-43838000D03*
X183838000Y-59338000D03*
X170538000Y-59338000D03*
X170538000Y-43838000D03*
D23*
X167438000Y-49088000D03*
X167438000Y-51608076D03*
X167438000Y-54088000D03*
X114688000Y-41838000D03*
X117188000Y-41838000D03*
X119688000Y-41838000D03*
D24*
X110538000Y-59338000D03*
X110538000Y-43838000D03*
X123838000Y-43838000D03*
X123838000Y-59338000D03*
D23*
X126938000Y-54088000D03*
X126938000Y-51567924D03*
X126938000Y-49088000D03*
D25*
X162188000Y-85488000D03*
X162188000Y-86288000D03*
X162188000Y-87088000D03*
X162188000Y-87888000D03*
X162188000Y-88688000D03*
X162188000Y-89488000D03*
X162188000Y-90288000D03*
X162188000Y-91088000D03*
X162188000Y-91888000D03*
X162188000Y-92688000D03*
X162188000Y-93488000D03*
X162188000Y-94288000D03*
X162188000Y-95088000D03*
X162188000Y-95888000D03*
X162188000Y-96688000D03*
X162188000Y-97488000D03*
X162188000Y-98288000D03*
X162188000Y-99088000D03*
D11*
X140688000Y-85588000D03*
D26*
X124688000Y-80088000D03*
X120188000Y-91588000D03*
X122188000Y-91588000D03*
X164620622Y-93129169D03*
X152688000Y-94588000D03*
X162188000Y-74588000D03*
X159688000Y-76088000D03*
X159188000Y-77588000D03*
X154188000Y-87088000D03*
X176188000Y-74588000D03*
X173818239Y-74698663D03*
X173818239Y-74698663D03*
X172207576Y-73088000D03*
X180188000Y-95588000D03*
X180188000Y-92088000D03*
X175688000Y-100088000D03*
X142788000Y-107388000D03*
X146188000Y-111088000D03*
X131188000Y-101088000D03*
X130688000Y-105088000D03*
X127688000Y-76588000D03*
X127688000Y-79088000D03*
X144910986Y-97310986D03*
X153267860Y-98167860D03*
X120938854Y-101266174D03*
X119188000Y-97088000D03*
X159188000Y-91588000D03*
X158317502Y-85172300D03*
X139188000Y-107088000D03*
X139188000Y-109088000D03*
X179188000Y-88088000D03*
X181188000Y-80088000D03*
X170188000Y-76088000D03*
X162688000Y-73588000D03*
X170188000Y-73588000D03*
X160606799Y-55919201D03*
X156783299Y-90917043D03*
X136458000Y-74588000D03*
X149688000Y-92588000D03*
X156188000Y-87088000D03*
X143188000Y-112088000D03*
X132188000Y-104088000D03*
X118688000Y-86088000D03*
X149688000Y-112088000D03*
X165751115Y-92582722D03*
X155470027Y-93410123D03*
X157688000Y-80492690D03*
X158267052Y-87167052D03*
X155097946Y-96836157D03*
X151095295Y-100467690D03*
X158188000Y-75588000D03*
X159688000Y-90088000D03*
X176574432Y-98147540D03*
X177188000Y-92088000D03*
X170688000Y-102588000D03*
X163188000Y-106088000D03*
X158688000Y-107588000D03*
X155688000Y-107088000D03*
X159688000Y-93088000D03*
X169267052Y-86508948D03*
X166188000Y-106088000D03*
X166163645Y-93356669D03*
X156188000Y-93842690D03*
X159599939Y-87385721D03*
X156188000Y-96588000D03*
X151688000Y-101088000D03*
X159689842Y-89247945D03*
X165188000Y-87088000D03*
X157615015Y-84715013D03*
X152688000Y-75183310D03*
X167688000Y-103088000D03*
X161688000Y-106588000D03*
X167188000Y-88206952D03*
X167188000Y-95088000D03*
X144688000Y-74588000D03*
X155688000Y-74588000D03*
X168188000Y-82588000D03*
X159188000Y-69588000D03*
X147688000Y-75183310D03*
X154188000Y-78088000D03*
X168188000Y-86588000D03*
X171188000Y-86588000D03*
X156688000Y-70588000D03*
X153188000Y-81588000D03*
X158188000Y-74588000D03*
X153188000Y-80088000D03*
X152188000Y-90588000D03*
X153688000Y-100088000D03*
X162188000Y-108588000D03*
X162587152Y-110656447D03*
X146688000Y-105088000D03*
X163280705Y-110185720D03*
X145935847Y-104492690D03*
X159188000Y-78588000D03*
X173188000Y-94088000D03*
X148188000Y-59588000D03*
X148688000Y-82088000D03*
X152188000Y-87588000D03*
X158282575Y-94285711D03*
X159693536Y-94859041D03*
X167688000Y-92088000D03*
X121688000Y-81088000D03*
X168188000Y-88088000D03*
X120688000Y-77588000D03*
X150188000Y-109088000D03*
X155188000Y-108088000D03*
X158693486Y-97333310D03*
X158032548Y-100270759D03*
X158317529Y-99416143D03*
X158188000Y-98588000D03*
D27*
X124688000Y-80088000D02*
X126688000Y-80088000D01*
X126688000Y-80088000D02*
X127688000Y-79088000D01*
D28*
X122188000Y-91588000D02*
X120188000Y-91588000D01*
X164590401Y-93112322D02*
X164620622Y-93129169D01*
X164620622Y-93129169D02*
X164590401Y-91366079D01*
X164459911Y-91235589D02*
X162335589Y-91235589D01*
X164214723Y-93488000D02*
X164590401Y-93112322D01*
X162335589Y-91235589D02*
X162188000Y-91088000D01*
X164590401Y-91366079D02*
X164459911Y-91235589D01*
X162188000Y-93488000D02*
X164214723Y-93488000D01*
X157481818Y-94588000D02*
X152688000Y-94588000D01*
X162188000Y-95888000D02*
X159668480Y-95888000D01*
X159668480Y-95888000D02*
X158811492Y-95031012D01*
X158811492Y-95031012D02*
X157924830Y-95031012D01*
X157924830Y-95031012D02*
X157481818Y-94588000D01*
X162188000Y-95888000D02*
X162188000Y-95088000D01*
X162188000Y-94288000D02*
X162188000Y-95088000D01*
X162188000Y-93488000D02*
X162188000Y-94288000D01*
X159188000Y-77588000D02*
X159188000Y-76588000D01*
X159188000Y-76588000D02*
X159688000Y-76088000D01*
X157688000Y-83588000D02*
X154188000Y-87088000D01*
X158488000Y-83588000D02*
X157688000Y-83588000D01*
X160388000Y-85488000D02*
X158488000Y-83588000D01*
X162188000Y-85488000D02*
X160388000Y-85488000D01*
X173818239Y-74698663D02*
X176077337Y-74698663D01*
X176077337Y-74698663D02*
X176188000Y-74588000D01*
X172207576Y-73088000D02*
X173475340Y-74355764D01*
X172188000Y-73088000D02*
X172207576Y-73088000D01*
X173475340Y-74355764D02*
X173818239Y-74698663D01*
X180188000Y-95588000D02*
X180188000Y-92088000D01*
X175688000Y-100088000D02*
X180188000Y-95588000D01*
X146188000Y-111088000D02*
X142788000Y-107688000D01*
X142788000Y-107688000D02*
X142788000Y-107388000D01*
X131188000Y-104588000D02*
X131188000Y-101088000D01*
X130688000Y-105088000D02*
X131188000Y-104588000D01*
X127688000Y-79088000D02*
X127688000Y-76588000D01*
D27*
X145253885Y-97653885D02*
X144910986Y-97310986D01*
X153267860Y-98167860D02*
X145767860Y-98167860D01*
X145767860Y-98167860D02*
X145253885Y-97653885D01*
D28*
X120595955Y-100923275D02*
X120938854Y-101266174D01*
X119188000Y-99515320D02*
X120595955Y-100923275D01*
X119188000Y-97088000D02*
X119188000Y-99515320D01*
X162188000Y-91888000D02*
X159488000Y-91888000D01*
X159488000Y-91888000D02*
X159188000Y-91588000D01*
X158660401Y-85515199D02*
X158317502Y-85172300D01*
X159433202Y-86288000D02*
X158660401Y-85515199D01*
X162188000Y-86288000D02*
X159433202Y-86288000D01*
X139188000Y-109088000D02*
X139188000Y-107088000D01*
X181188000Y-80088000D02*
X181188000Y-86088000D01*
X181188000Y-86088000D02*
X179188000Y-88088000D01*
X170188000Y-76088000D02*
X177188000Y-76088000D01*
X177188000Y-76088000D02*
X181188000Y-80088000D01*
X170188000Y-73588000D02*
X170188000Y-76088000D01*
X170188000Y-73588000D02*
X162688000Y-73588000D01*
X156188000Y-87088000D02*
X156783299Y-87683299D01*
X156358948Y-90917052D02*
X156783290Y-90917052D01*
X156783299Y-90432110D02*
X156783299Y-90917043D01*
X149688000Y-92588000D02*
X154688000Y-92588000D01*
X154688000Y-92588000D02*
X156358948Y-90917052D01*
X156783299Y-87683299D02*
X156783299Y-90432110D01*
X156783290Y-90917052D02*
X156783299Y-90917043D01*
X142068000Y-76588000D02*
X144608000Y-79128000D01*
X142068000Y-76588000D02*
X138458000Y-76588000D01*
X138458000Y-76588000D02*
X136458000Y-74588000D01*
X167438000Y-49088000D02*
X179688000Y-61338000D01*
X144688000Y-58216800D02*
X145988000Y-58216800D01*
X145988000Y-58216800D02*
X148285599Y-55919201D01*
X160606799Y-55919201D02*
X166549001Y-49976999D01*
X148285599Y-55919201D02*
X160606799Y-55919201D01*
X166549001Y-49976999D02*
X167438000Y-49088000D01*
X126938000Y-54088000D02*
X136188000Y-54088000D01*
X136188000Y-54088000D02*
X138563000Y-56463000D01*
X138563000Y-56463000D02*
X138563000Y-56588000D01*
X139563000Y-57588000D02*
X139688000Y-57588000D01*
X138563000Y-56588000D02*
X139563000Y-57588000D01*
X144688000Y-58216800D02*
X140316800Y-58216800D01*
X140316800Y-58216800D02*
X139688000Y-57588000D01*
X140188000Y-112088000D02*
X143188000Y-112088000D01*
X132188000Y-104088000D02*
X140188000Y-112088000D01*
D27*
X119172933Y-86088000D02*
X118688000Y-86088000D01*
X149688000Y-112088000D02*
X123688000Y-86088000D01*
X123688000Y-86088000D02*
X119172933Y-86088000D01*
X165751115Y-92097789D02*
X165751115Y-92582722D01*
X164388000Y-90688000D02*
X164622838Y-90688000D01*
X164622838Y-90688000D02*
X165751115Y-91816277D01*
X165751115Y-91816277D02*
X165751115Y-92097789D01*
X163988000Y-90288000D02*
X164388000Y-90688000D01*
X162188000Y-90288000D02*
X163988000Y-90288000D01*
X157378610Y-91501540D02*
X155812926Y-93067224D01*
X158267052Y-87167052D02*
X157378610Y-88055494D01*
X157378610Y-88055494D02*
X157378610Y-91501540D01*
X155812926Y-93067224D02*
X155470027Y-93410123D01*
X158188000Y-75588000D02*
X158188000Y-79992690D01*
X158030899Y-80149791D02*
X157688000Y-80492690D01*
X158188000Y-79992690D02*
X158030899Y-80149791D01*
X154755047Y-97522569D02*
X154755047Y-97179056D01*
X151095295Y-100467690D02*
X151809926Y-100467690D01*
X151809926Y-100467690D02*
X154755047Y-97522569D01*
X154755047Y-97179056D02*
X155097946Y-96836157D01*
X159888000Y-90288000D02*
X159688000Y-90088000D01*
X162188000Y-90288000D02*
X159888000Y-90288000D01*
X176917331Y-97804641D02*
X176574432Y-98147540D01*
X177188000Y-92088000D02*
X177188000Y-97533972D01*
X177188000Y-97533972D02*
X176917331Y-97804641D01*
X163188000Y-106088000D02*
X165497389Y-103778611D01*
X165497389Y-103778611D02*
X169497389Y-103778611D01*
X169497389Y-103778611D02*
X170688000Y-102588000D01*
X155688000Y-107088000D02*
X156188000Y-107588000D01*
X156188000Y-107588000D02*
X158688000Y-107588000D01*
X162188000Y-92688000D02*
X160388000Y-92688000D01*
X159988000Y-93088000D02*
X159688000Y-93088000D01*
X160388000Y-92688000D02*
X159988000Y-93088000D01*
X169609951Y-86851847D02*
X169267052Y-86508948D01*
X171283302Y-88525198D02*
X169609951Y-86851847D01*
X166188000Y-106088000D02*
X168069048Y-106088000D01*
X171283302Y-102873746D02*
X171283302Y-88525198D01*
X168069048Y-106088000D02*
X171283302Y-102873746D01*
X163988000Y-89488000D02*
X166346417Y-91846417D01*
X166346417Y-91846417D02*
X166346417Y-93173897D01*
X166346417Y-93173897D02*
X166163645Y-93356669D01*
X159599939Y-87385721D02*
X157731020Y-89254640D01*
X157731020Y-89254640D02*
X157731020Y-92299670D01*
X156530899Y-93499791D02*
X156188000Y-93842690D01*
X157731020Y-92299670D02*
X156530899Y-93499791D01*
X151688000Y-101088000D02*
X156188000Y-96588000D01*
X159929897Y-89488000D02*
X159689842Y-89247945D01*
X162188000Y-89488000D02*
X159929897Y-89488000D01*
X163988000Y-89488000D02*
X165188000Y-88288000D01*
X165188000Y-88288000D02*
X165188000Y-87088000D01*
X162188000Y-89488000D02*
X163988000Y-89488000D01*
X161890411Y-86790411D02*
X159009363Y-86790411D01*
X157615015Y-85199946D02*
X157615015Y-84715013D01*
X157615015Y-85396063D02*
X157615015Y-85199946D01*
X159009363Y-86790411D02*
X157615015Y-85396063D01*
X162188000Y-87088000D02*
X161890411Y-86790411D01*
X148162401Y-78113599D02*
X149757711Y-78113599D01*
X147148000Y-79128000D02*
X148162401Y-78113599D01*
X149757711Y-78113599D02*
X152345101Y-75526209D01*
X152345101Y-75526209D02*
X152688000Y-75183310D01*
X161688000Y-106588000D02*
X165188000Y-103088000D01*
X165188000Y-103088000D02*
X167203067Y-103088000D01*
X167203067Y-103088000D02*
X167688000Y-103088000D01*
X167188000Y-95088000D02*
X166845101Y-94745101D01*
X166845101Y-94745101D02*
X166845101Y-88549851D01*
X166845101Y-88549851D02*
X167188000Y-88206952D01*
X163988000Y-87088000D02*
X162188000Y-87088000D01*
X164583302Y-86492698D02*
X163988000Y-87088000D01*
X165473746Y-86492698D02*
X164583302Y-86492698D01*
X167188000Y-88206952D02*
X165473746Y-86492698D01*
X155688000Y-74588000D02*
X144688000Y-74588000D01*
X159188000Y-69588000D02*
X159188000Y-73588000D01*
X159188000Y-73588000D02*
X168188000Y-82588000D01*
X146012690Y-75183310D02*
X147203067Y-75183310D01*
X144608000Y-76588000D02*
X146012690Y-75183310D01*
X147203067Y-75183310D02*
X147688000Y-75183310D01*
X162688000Y-81088000D02*
X157188000Y-81088000D01*
X157188000Y-81088000D02*
X154188000Y-78088000D01*
X168188000Y-86588000D02*
X162688000Y-81088000D01*
X156688000Y-70588000D02*
X156688000Y-72088000D01*
X156688000Y-72088000D02*
X171188000Y-86588000D01*
X153185590Y-82075343D02*
X153188000Y-82072933D01*
X152188000Y-90588000D02*
X153185590Y-89590410D01*
X153185590Y-89590410D02*
X153185590Y-82075343D01*
X153188000Y-82072933D02*
X153188000Y-81588000D01*
X153188000Y-80088000D02*
X153188000Y-78206952D01*
X153188000Y-78206952D02*
X156806952Y-74588000D01*
X156806952Y-74588000D02*
X157703067Y-74588000D01*
X157703067Y-74588000D02*
X158188000Y-74588000D01*
X162188000Y-108588000D02*
X153688000Y-100088000D01*
X162244253Y-110313548D02*
X162587152Y-110656447D01*
X159283302Y-107352597D02*
X162244253Y-110313548D01*
X159283302Y-107302254D02*
X159283302Y-107352597D01*
X157069048Y-105088000D02*
X159283302Y-107302254D01*
X146688000Y-105088000D02*
X157069048Y-105088000D01*
X162795772Y-109992690D02*
X163280705Y-109992690D01*
X163280705Y-109992690D02*
X163280705Y-110185720D01*
X162711644Y-109992690D02*
X162795772Y-109992690D01*
X157211644Y-104492690D02*
X162711644Y-109992690D01*
X145935847Y-104492690D02*
X157211644Y-104492690D01*
X173188000Y-89588000D02*
X162188000Y-78588000D01*
X162188000Y-78588000D02*
X159188000Y-78588000D01*
X173188000Y-94088000D02*
X173188000Y-89588000D01*
X148188000Y-59588000D02*
X149559200Y-58216800D01*
X149559200Y-58216800D02*
X149688000Y-58216800D01*
X152188000Y-87588000D02*
X148688000Y-84088000D01*
X148688000Y-84088000D02*
X148688000Y-82088000D01*
X158282575Y-93800778D02*
X158282575Y-94285711D01*
X158240288Y-93758491D02*
X158282575Y-93800778D01*
X158240288Y-89318069D02*
X158240288Y-93758491D01*
X162188000Y-87888000D02*
X159988000Y-87888000D01*
X159894977Y-87981023D02*
X159577334Y-87981023D01*
X159577334Y-87981023D02*
X158240288Y-89318069D01*
X159988000Y-87888000D02*
X159894977Y-87981023D01*
X159092699Y-92373747D02*
X159092699Y-94258204D01*
X160077875Y-88688000D02*
X159723308Y-88333433D01*
X158592698Y-89464043D02*
X158592698Y-91873746D01*
X159723308Y-88333433D02*
X158592698Y-89464043D01*
X158592698Y-91873746D02*
X159092699Y-92373747D01*
X162188000Y-88688000D02*
X160077875Y-88688000D01*
X159092699Y-94258204D02*
X159693536Y-94859041D01*
X168030899Y-95899423D02*
X168030899Y-92430899D01*
X157465057Y-101088000D02*
X162842322Y-101088000D01*
X156783302Y-100406245D02*
X157465057Y-101088000D01*
X168030899Y-92430899D02*
X167688000Y-92088000D01*
X156473746Y-95992698D02*
X156783302Y-96302254D01*
X156783302Y-96302254D02*
X156783302Y-100406245D01*
X136592698Y-95992698D02*
X156473746Y-95992698D01*
X162842322Y-101088000D02*
X168030899Y-95899423D01*
X121688000Y-81088000D02*
X136592698Y-95992698D01*
X153973746Y-81492698D02*
X156594314Y-81492698D01*
X167845101Y-87745101D02*
X168188000Y-88088000D01*
X124092698Y-80992698D02*
X153473746Y-80992698D01*
X153473746Y-80992698D02*
X153973746Y-81492698D01*
X120688000Y-77588000D02*
X124092698Y-80992698D01*
X156594314Y-81492698D02*
X157042027Y-81940411D01*
X157042027Y-81940411D02*
X162040411Y-81940411D01*
X162040411Y-81940411D02*
X167845101Y-87745101D01*
X155188000Y-108088000D02*
X151188000Y-108088000D01*
X151188000Y-108088000D02*
X150188000Y-109088000D01*
X159985589Y-97090411D02*
X159421318Y-97090411D01*
X162188000Y-96688000D02*
X160388000Y-96688000D01*
X160388000Y-96688000D02*
X159985589Y-97090411D01*
X159178419Y-97333310D02*
X158693486Y-97333310D01*
X159421318Y-97090411D02*
X159178419Y-97333310D01*
X159526718Y-99088000D02*
X158343959Y-100270759D01*
X158343959Y-100270759D02*
X158032548Y-100270759D01*
X162188000Y-99088000D02*
X159526718Y-99088000D01*
X158701140Y-99073244D02*
X158660428Y-99073244D01*
X162188000Y-98288000D02*
X159486384Y-98288000D01*
X159486384Y-98288000D02*
X158701140Y-99073244D01*
X158660428Y-99073244D02*
X158317529Y-99416143D01*
X158188000Y-98588000D02*
X158672933Y-98588000D01*
X159988000Y-97488000D02*
X162188000Y-97488000D01*
X159772933Y-97488000D02*
X159988000Y-97488000D01*
X158672933Y-98588000D02*
X159772933Y-97488000D01*
D29*
G36*
X143251000Y-41302250D02*
X143409750Y-41461000D01*
X144521000Y-41461000D01*
X144521000Y-41441000D01*
X144775000Y-41441000D01*
X144775000Y-41461000D01*
X145886250Y-41461000D01*
X146045000Y-41302250D01*
X146045000Y-39798000D01*
X148331000Y-39798000D01*
X148331000Y-41302250D01*
X148489750Y-41461000D01*
X149601000Y-41461000D01*
X149601000Y-41441000D01*
X149855000Y-41441000D01*
X149855000Y-41461000D01*
X150966250Y-41461000D01*
X151125000Y-41302250D01*
X151125000Y-39798000D01*
X182118069Y-39798000D01*
X183824390Y-40137408D01*
X185211654Y-41064349D01*
X186138592Y-42451610D01*
X186478000Y-44157931D01*
X186478000Y-109018069D01*
X186138592Y-110724390D01*
X185211654Y-112111651D01*
X183824390Y-113038592D01*
X182118069Y-113378000D01*
X122728791Y-113378000D01*
X122882293Y-113193380D01*
X123023000Y-112740000D01*
X123023000Y-112415000D01*
X121940000Y-112415000D01*
X121940000Y-112435000D01*
X121686000Y-112435000D01*
X121686000Y-112415000D01*
X120603000Y-112415000D01*
X120603000Y-112740000D01*
X120743707Y-113193380D01*
X120897209Y-113378000D01*
X114978791Y-113378000D01*
X115132293Y-113193380D01*
X115273000Y-112740000D01*
X115273000Y-112415000D01*
X114190000Y-112415000D01*
X114190000Y-112435000D01*
X113936000Y-112435000D01*
X113936000Y-112415000D01*
X112853000Y-112415000D01*
X112853000Y-112740000D01*
X112993707Y-113193380D01*
X113147209Y-113378000D01*
X112257931Y-113378000D01*
X110551610Y-113038592D01*
X109164349Y-112111654D01*
X108980163Y-111836000D01*
X112853000Y-111836000D01*
X112853000Y-112161000D01*
X113936000Y-112161000D01*
X113936000Y-110919450D01*
X114190000Y-110919450D01*
X114190000Y-112161000D01*
X115273000Y-112161000D01*
X115273000Y-111836000D01*
X120603000Y-111836000D01*
X120603000Y-112161000D01*
X121686000Y-112161000D01*
X121686000Y-110919450D01*
X121940000Y-110919450D01*
X121940000Y-112161000D01*
X123023000Y-112161000D01*
X123023000Y-111836000D01*
X122882293Y-111382620D01*
X122578796Y-111017598D01*
X122158714Y-110796505D01*
X122126677Y-110794365D01*
X121940000Y-110919450D01*
X121686000Y-110919450D01*
X121499323Y-110794365D01*
X121467286Y-110796505D01*
X121047204Y-111017598D01*
X120743707Y-111382620D01*
X120603000Y-111836000D01*
X115273000Y-111836000D01*
X115132293Y-111382620D01*
X114828796Y-111017598D01*
X114408714Y-110796505D01*
X114376677Y-110794365D01*
X114190000Y-110919450D01*
X113936000Y-110919450D01*
X113749323Y-110794365D01*
X113717286Y-110796505D01*
X113297204Y-111017598D01*
X112993707Y-111382620D01*
X112853000Y-111836000D01*
X108980163Y-111836000D01*
X108237408Y-110724390D01*
X107898000Y-109018069D01*
X107898000Y-108615000D01*
X112853000Y-108615000D01*
X112853000Y-108890000D01*
X113005125Y-109400782D01*
X113341138Y-109814467D01*
X113809884Y-110068076D01*
X113875742Y-110080519D01*
X114086000Y-109957518D01*
X114086000Y-108615000D01*
X114340000Y-108615000D01*
X114340000Y-109957518D01*
X114550258Y-110080519D01*
X114558337Y-110078993D01*
X114685867Y-110269856D01*
X115021646Y-110494215D01*
X115417723Y-110573000D01*
X115458277Y-110573000D01*
X115854354Y-110494215D01*
X116190133Y-110269856D01*
X116414492Y-109934077D01*
X116493277Y-109538000D01*
X119382723Y-109538000D01*
X119461508Y-109934077D01*
X119685867Y-110269856D01*
X120021646Y-110494215D01*
X120417723Y-110573000D01*
X120458277Y-110573000D01*
X120854354Y-110494215D01*
X121190133Y-110269856D01*
X121317663Y-110078993D01*
X121325742Y-110080519D01*
X121536000Y-109957518D01*
X121536000Y-108615000D01*
X121790000Y-108615000D01*
X121790000Y-109957518D01*
X122000258Y-110080519D01*
X122066116Y-110068076D01*
X122534862Y-109814467D01*
X122870875Y-109400782D01*
X123023000Y-108890000D01*
X123023000Y-108615000D01*
X121790000Y-108615000D01*
X121536000Y-108615000D01*
X120904064Y-108615000D01*
X120854354Y-108581785D01*
X120458277Y-108503000D01*
X120417723Y-108503000D01*
X120021646Y-108581785D01*
X119685867Y-108806144D01*
X119461508Y-109141923D01*
X119382723Y-109538000D01*
X116493277Y-109538000D01*
X116414492Y-109141923D01*
X116190133Y-108806144D01*
X115854354Y-108581785D01*
X115458277Y-108503000D01*
X115417723Y-108503000D01*
X115021646Y-108581785D01*
X114971936Y-108615000D01*
X114340000Y-108615000D01*
X114086000Y-108615000D01*
X112853000Y-108615000D01*
X107898000Y-108615000D01*
X107898000Y-108086000D01*
X112853000Y-108086000D01*
X112853000Y-108361000D01*
X114086000Y-108361000D01*
X114086000Y-107018482D01*
X114340000Y-107018482D01*
X114340000Y-108361000D01*
X115573000Y-108361000D01*
X115573000Y-108086000D01*
X120303000Y-108086000D01*
X120303000Y-108361000D01*
X121536000Y-108361000D01*
X121536000Y-107018482D01*
X121790000Y-107018482D01*
X121790000Y-108361000D01*
X123023000Y-108361000D01*
X123023000Y-108086000D01*
X122870875Y-107575218D01*
X122534862Y-107161533D01*
X122066116Y-106907924D01*
X122000258Y-106895481D01*
X121790000Y-107018482D01*
X121536000Y-107018482D01*
X121325742Y-106895481D01*
X121259884Y-106907924D01*
X120791138Y-107161533D01*
X120455125Y-107575218D01*
X120303000Y-108086000D01*
X115573000Y-108086000D01*
X115420875Y-107575218D01*
X115084862Y-107161533D01*
X114616116Y-106907924D01*
X114550258Y-106895481D01*
X114340000Y-107018482D01*
X114086000Y-107018482D01*
X113875742Y-106895481D01*
X113809884Y-106907924D01*
X113341138Y-107161533D01*
X113005125Y-107575218D01*
X112853000Y-108086000D01*
X107898000Y-108086000D01*
X107898000Y-104281663D01*
X131209931Y-104281663D01*
X131358493Y-104641212D01*
X131633341Y-104916540D01*
X131858422Y-105010002D01*
X139562208Y-112713787D01*
X139562210Y-112713790D01*
X139849325Y-112905633D01*
X140188000Y-112973000D01*
X142769312Y-112973000D01*
X142992630Y-113065730D01*
X143381663Y-113066069D01*
X143741212Y-112917507D01*
X144016540Y-112642659D01*
X144165730Y-112283370D01*
X144166069Y-111894337D01*
X144017507Y-111534788D01*
X143742659Y-111259460D01*
X143383370Y-111110270D01*
X142994337Y-111109931D01*
X142769092Y-111203000D01*
X140554579Y-111203000D01*
X139407127Y-110055548D01*
X139741212Y-109917507D01*
X140016540Y-109642659D01*
X140165730Y-109283370D01*
X140166069Y-108894337D01*
X140073000Y-108669092D01*
X140073000Y-107506688D01*
X140165730Y-107283370D01*
X140166069Y-106894337D01*
X140017507Y-106534788D01*
X139742659Y-106259460D01*
X139383370Y-106110270D01*
X138994337Y-106109931D01*
X138634788Y-106258493D01*
X138359460Y-106533341D01*
X138210270Y-106892630D01*
X138209931Y-107281663D01*
X138303000Y-107506908D01*
X138303000Y-108669312D01*
X138220228Y-108868649D01*
X133109846Y-103758266D01*
X133017507Y-103534788D01*
X132742659Y-103259460D01*
X132383370Y-103110270D01*
X131994337Y-103109931D01*
X131634788Y-103258493D01*
X131359460Y-103533341D01*
X131210270Y-103892630D01*
X131209931Y-104281663D01*
X107898000Y-104281663D01*
X107898000Y-97281663D01*
X118209931Y-97281663D01*
X118303000Y-97506908D01*
X118303000Y-99515315D01*
X118302999Y-99515320D01*
X118353073Y-99767051D01*
X118370367Y-99853995D01*
X118551428Y-100124973D01*
X118562210Y-100141110D01*
X119970163Y-101549062D01*
X119970165Y-101549065D01*
X120017008Y-101595908D01*
X120109347Y-101819386D01*
X120384195Y-102094714D01*
X120743484Y-102243904D01*
X121132517Y-102244243D01*
X121492066Y-102095681D01*
X121767394Y-101820833D01*
X121916584Y-101461544D01*
X121916923Y-101072511D01*
X121768361Y-100712962D01*
X121493513Y-100437634D01*
X121268432Y-100344172D01*
X121221745Y-100297485D01*
X121221742Y-100297483D01*
X120073000Y-99148740D01*
X120073000Y-97506688D01*
X120165730Y-97283370D01*
X120166069Y-96894337D01*
X120017507Y-96534788D01*
X119742659Y-96259460D01*
X119383370Y-96110270D01*
X118994337Y-96109931D01*
X118634788Y-96258493D01*
X118359460Y-96533341D01*
X118210270Y-96892630D01*
X118209931Y-97281663D01*
X107898000Y-97281663D01*
X107898000Y-86281663D01*
X117709931Y-86281663D01*
X117858493Y-86641212D01*
X118133341Y-86916540D01*
X118492630Y-87065730D01*
X118881663Y-87066069D01*
X119241212Y-86917507D01*
X119335884Y-86823000D01*
X123383554Y-86823000D01*
X148710046Y-112149493D01*
X148709931Y-112281663D01*
X148858493Y-112641212D01*
X149133341Y-112916540D01*
X149492630Y-113065730D01*
X149881663Y-113066069D01*
X150241212Y-112917507D01*
X150516540Y-112642659D01*
X150665730Y-112283370D01*
X150666069Y-111894337D01*
X150517507Y-111534788D01*
X150242659Y-111259460D01*
X149883370Y-111110270D01*
X149749600Y-111110153D01*
X124207723Y-85568277D01*
X123969272Y-85408949D01*
X123688000Y-85353000D01*
X119336036Y-85353000D01*
X119242659Y-85259460D01*
X118883370Y-85110270D01*
X118494337Y-85109931D01*
X118134788Y-85258493D01*
X117859460Y-85533341D01*
X117710270Y-85892630D01*
X117709931Y-86281663D01*
X107898000Y-86281663D01*
X107898000Y-79088000D01*
X109540560Y-79088000D01*
X109540560Y-81088000D01*
X109584838Y-81323317D01*
X109723910Y-81539441D01*
X109936110Y-81684431D01*
X110188000Y-81735440D01*
X112188000Y-81735440D01*
X112423317Y-81691162D01*
X112639441Y-81552090D01*
X112784431Y-81339890D01*
X112835440Y-81088000D01*
X112835440Y-79088000D01*
X112791162Y-78852683D01*
X112652090Y-78636559D01*
X112439890Y-78491569D01*
X112188000Y-78440560D01*
X110188000Y-78440560D01*
X109952683Y-78484838D01*
X109736559Y-78623910D01*
X109591569Y-78836110D01*
X109540560Y-79088000D01*
X107898000Y-79088000D01*
X107898000Y-77781663D01*
X119709931Y-77781663D01*
X119858493Y-78141212D01*
X120133341Y-78416540D01*
X120492630Y-78565730D01*
X120626400Y-78565847D01*
X123572974Y-81512421D01*
X123718909Y-81609931D01*
X123811426Y-81671749D01*
X124092698Y-81727698D01*
X147778756Y-81727698D01*
X147710270Y-81892630D01*
X147709931Y-82281663D01*
X147858493Y-82641212D01*
X147953000Y-82735884D01*
X147953000Y-84088000D01*
X148003682Y-84342793D01*
X148008949Y-84369272D01*
X148168277Y-84607723D01*
X151210046Y-87649493D01*
X151209931Y-87781663D01*
X151358493Y-88141212D01*
X151633341Y-88416540D01*
X151992630Y-88565730D01*
X152381663Y-88566069D01*
X152450590Y-88537589D01*
X152450590Y-89285963D01*
X152126507Y-89610046D01*
X151994337Y-89609931D01*
X151634788Y-89758493D01*
X151359460Y-90033341D01*
X151210270Y-90392630D01*
X151209931Y-90781663D01*
X151358493Y-91141212D01*
X151633341Y-91416540D01*
X151992630Y-91565730D01*
X152381663Y-91566069D01*
X152741212Y-91417507D01*
X153016540Y-91142659D01*
X153165730Y-90783370D01*
X153165847Y-90649600D01*
X153705313Y-90110134D01*
X153864641Y-89871682D01*
X153877642Y-89806320D01*
X153920590Y-89590410D01*
X153920590Y-82238442D01*
X153938396Y-82220666D01*
X153973746Y-82227698D01*
X156289868Y-82227698D01*
X156522304Y-82460135D01*
X156724244Y-82595066D01*
X156760755Y-82619462D01*
X157042027Y-82675411D01*
X161735965Y-82675411D01*
X163713554Y-84653000D01*
X162473750Y-84653000D01*
X162315000Y-84811750D01*
X162315000Y-85388000D01*
X162335000Y-85388000D01*
X162335000Y-85432240D01*
X162188000Y-85403000D01*
X162041000Y-85403000D01*
X162041000Y-85388000D01*
X162061000Y-85388000D01*
X162061000Y-84811750D01*
X161902250Y-84653000D01*
X160061691Y-84653000D01*
X159828302Y-84749673D01*
X159649673Y-84928301D01*
X159554603Y-85157821D01*
X159286191Y-84889409D01*
X159286188Y-84889407D01*
X159239348Y-84842567D01*
X159147009Y-84619088D01*
X158872161Y-84343760D01*
X158512872Y-84194570D01*
X158458042Y-84194522D01*
X158444522Y-84161801D01*
X158169674Y-83886473D01*
X157810385Y-83737283D01*
X157421352Y-83736944D01*
X157061803Y-83885506D01*
X156786475Y-84160354D01*
X156637285Y-84519643D01*
X156636946Y-84908676D01*
X156785508Y-85268225D01*
X156880015Y-85362897D01*
X156880015Y-85396063D01*
X156922624Y-85610270D01*
X156935964Y-85677335D01*
X157095292Y-85915786D01*
X157615359Y-86435854D01*
X157438512Y-86612393D01*
X157299280Y-86947701D01*
X157109846Y-86758267D01*
X157017507Y-86534788D01*
X156742659Y-86259460D01*
X156383370Y-86110270D01*
X155994337Y-86109931D01*
X155634788Y-86258493D01*
X155359460Y-86533341D01*
X155210270Y-86892630D01*
X155209931Y-87281663D01*
X155358493Y-87641212D01*
X155633341Y-87916540D01*
X155858423Y-88010002D01*
X155898299Y-88049878D01*
X155898299Y-90180919D01*
X155733158Y-90291262D01*
X155733156Y-90291265D01*
X154321420Y-91703000D01*
X150106688Y-91703000D01*
X149883370Y-91610270D01*
X149494337Y-91609931D01*
X149134788Y-91758493D01*
X148859460Y-92033341D01*
X148710270Y-92392630D01*
X148709931Y-92781663D01*
X148858493Y-93141212D01*
X149133341Y-93416540D01*
X149492630Y-93565730D01*
X149881663Y-93566069D01*
X150106908Y-93473000D01*
X154492072Y-93473000D01*
X154491958Y-93603786D01*
X154640520Y-93963335D01*
X154915368Y-94238663D01*
X155274657Y-94387853D01*
X155355196Y-94387923D01*
X155358493Y-94395902D01*
X155633341Y-94671230D01*
X155992630Y-94820420D01*
X156381663Y-94820759D01*
X156741212Y-94672197D01*
X157016540Y-94397349D01*
X157165730Y-94038060D01*
X157165847Y-93904290D01*
X157505288Y-93564848D01*
X157505288Y-93679888D01*
X157454035Y-93731052D01*
X157304845Y-94090341D01*
X157304506Y-94479374D01*
X157453068Y-94838923D01*
X157727916Y-95114251D01*
X158087205Y-95263441D01*
X158476238Y-95263780D01*
X158755077Y-95148567D01*
X158864029Y-95412253D01*
X159138877Y-95687581D01*
X159498166Y-95836771D01*
X159854265Y-95837081D01*
X159964288Y-95882654D01*
X159952683Y-95884838D01*
X159792365Y-95988000D01*
X159711750Y-95988000D01*
X159553000Y-96146750D01*
X159553000Y-96214310D01*
X159581870Y-96284007D01*
X159567410Y-96355411D01*
X159421318Y-96355411D01*
X159140046Y-96411360D01*
X159095259Y-96441286D01*
X158888856Y-96355580D01*
X158499823Y-96355241D01*
X158140274Y-96503803D01*
X157864946Y-96778651D01*
X157715756Y-97137940D01*
X157715417Y-97526973D01*
X157785370Y-97696274D01*
X157634788Y-97758493D01*
X157518302Y-97874776D01*
X157518302Y-96302254D01*
X157462353Y-96020982D01*
X157416929Y-95953000D01*
X157303025Y-95782530D01*
X156993469Y-95472975D01*
X156755018Y-95313647D01*
X156473746Y-95257698D01*
X136897145Y-95257698D01*
X122665954Y-81026508D01*
X122666069Y-80894337D01*
X122517507Y-80534788D01*
X122242659Y-80259460D01*
X121883370Y-80110270D01*
X121494337Y-80109931D01*
X121134788Y-80258493D01*
X120859460Y-80533341D01*
X120710270Y-80892630D01*
X120709931Y-81281663D01*
X120858493Y-81641212D01*
X121133341Y-81916540D01*
X121492630Y-82065730D01*
X121626401Y-82065847D01*
X136072974Y-96512421D01*
X136243447Y-96626327D01*
X136311426Y-96671749D01*
X136592698Y-96727698D01*
X144111125Y-96727698D01*
X144082446Y-96756327D01*
X143933256Y-97115616D01*
X143932917Y-97504649D01*
X144081479Y-97864198D01*
X144356327Y-98139526D01*
X144715616Y-98288716D01*
X144849386Y-98288833D01*
X145248136Y-98687583D01*
X145486587Y-98846911D01*
X145533254Y-98856193D01*
X145767860Y-98902860D01*
X152335310Y-98902860D01*
X151613964Y-99624206D01*
X151290665Y-99489960D01*
X150901632Y-99489621D01*
X150542083Y-99638183D01*
X150266755Y-99913031D01*
X150117565Y-100272320D01*
X150117226Y-100661353D01*
X150265788Y-101020902D01*
X150540636Y-101296230D01*
X150752258Y-101384103D01*
X150858493Y-101641212D01*
X151133341Y-101916540D01*
X151492630Y-102065730D01*
X151881663Y-102066069D01*
X152241212Y-101917507D01*
X152516540Y-101642659D01*
X152665730Y-101283370D01*
X152665847Y-101149600D01*
X153016226Y-100799220D01*
X153133341Y-100916540D01*
X153492630Y-101065730D01*
X153626401Y-101065847D01*
X156318244Y-103757690D01*
X146583883Y-103757690D01*
X146490506Y-103664150D01*
X146131217Y-103514960D01*
X145742184Y-103514621D01*
X145382635Y-103663183D01*
X145107307Y-103938031D01*
X144958117Y-104297320D01*
X144957778Y-104686353D01*
X145106340Y-105045902D01*
X145381188Y-105321230D01*
X145740477Y-105470420D01*
X145787941Y-105470461D01*
X145858493Y-105641212D01*
X146133341Y-105916540D01*
X146492630Y-106065730D01*
X146881663Y-106066069D01*
X147241212Y-105917507D01*
X147335884Y-105823000D01*
X156764602Y-105823000D01*
X157794601Y-106853000D01*
X156648989Y-106853000D01*
X156517507Y-106534788D01*
X156242659Y-106259460D01*
X155883370Y-106110270D01*
X155494337Y-106109931D01*
X155134788Y-106258493D01*
X154859460Y-106533341D01*
X154710270Y-106892630D01*
X154709978Y-107227425D01*
X154634788Y-107258493D01*
X154540116Y-107353000D01*
X151188000Y-107353000D01*
X150906728Y-107408949D01*
X150668277Y-107568276D01*
X150126507Y-108110046D01*
X149994337Y-108109931D01*
X149634788Y-108258493D01*
X149359460Y-108533341D01*
X149210270Y-108892630D01*
X149209931Y-109281663D01*
X149358493Y-109641212D01*
X149633341Y-109916540D01*
X149992630Y-110065730D01*
X150381663Y-110066069D01*
X150741212Y-109917507D01*
X151016540Y-109642659D01*
X151165730Y-109283370D01*
X151165847Y-109149600D01*
X151492447Y-108823000D01*
X154539964Y-108823000D01*
X154633341Y-108916540D01*
X154992630Y-109065730D01*
X155381663Y-109066069D01*
X155741212Y-108917507D01*
X156016540Y-108642659D01*
X156152229Y-108315885D01*
X156188000Y-108323000D01*
X158039964Y-108323000D01*
X158133341Y-108416540D01*
X158492630Y-108565730D01*
X158881663Y-108566069D01*
X159241212Y-108417507D01*
X159275018Y-108383760D01*
X161609198Y-110717940D01*
X161609083Y-110850110D01*
X161757645Y-111209659D01*
X162032493Y-111484987D01*
X162391782Y-111634177D01*
X162780815Y-111634516D01*
X163140364Y-111485954D01*
X163415692Y-111211106D01*
X163435354Y-111163755D01*
X163474368Y-111163789D01*
X163833917Y-111015227D01*
X164109245Y-110740379D01*
X164258435Y-110381090D01*
X164258774Y-109992057D01*
X164110212Y-109632508D01*
X163835364Y-109357180D01*
X163476075Y-109207990D01*
X163087042Y-109207651D01*
X163001427Y-109243026D01*
X162958750Y-109200349D01*
X163016540Y-109142659D01*
X163165730Y-108783370D01*
X163166069Y-108394337D01*
X163017507Y-108034788D01*
X162742659Y-107759460D01*
X162383370Y-107610270D01*
X162249600Y-107610153D01*
X162110827Y-107471381D01*
X162241212Y-107417507D01*
X162516540Y-107142659D01*
X162617163Y-106900333D01*
X162633341Y-106916540D01*
X162992630Y-107065730D01*
X163381663Y-107066069D01*
X163741212Y-106917507D01*
X164016540Y-106642659D01*
X164165730Y-106283370D01*
X164165847Y-106149600D01*
X165801836Y-104513611D01*
X168603991Y-104513611D01*
X167764602Y-105353000D01*
X166836036Y-105353000D01*
X166742659Y-105259460D01*
X166383370Y-105110270D01*
X165994337Y-105109931D01*
X165634788Y-105258493D01*
X165359460Y-105533341D01*
X165210270Y-105892630D01*
X165209931Y-106281663D01*
X165358493Y-106641212D01*
X165633341Y-106916540D01*
X165992630Y-107065730D01*
X166381663Y-107066069D01*
X166741212Y-106917507D01*
X166835884Y-106823000D01*
X168069048Y-106823000D01*
X168350320Y-106767051D01*
X168588771Y-106607723D01*
X171803026Y-103393469D01*
X171962353Y-103155018D01*
X172018302Y-102873746D01*
X172018302Y-98341203D01*
X175596363Y-98341203D01*
X175744925Y-98700752D01*
X176019773Y-98976080D01*
X176379062Y-99125270D01*
X176768095Y-99125609D01*
X177127644Y-98977047D01*
X177402972Y-98702199D01*
X177552162Y-98342910D01*
X177552279Y-98209140D01*
X177707724Y-98053695D01*
X177867051Y-97815244D01*
X177876393Y-97768277D01*
X177923000Y-97533972D01*
X177923000Y-92736036D01*
X178016540Y-92642659D01*
X178165730Y-92283370D01*
X178166069Y-91894337D01*
X178017507Y-91534788D01*
X177742659Y-91259460D01*
X177383370Y-91110270D01*
X176994337Y-91109931D01*
X176634788Y-91258493D01*
X176359460Y-91533341D01*
X176210270Y-91892630D01*
X176209931Y-92281663D01*
X176358493Y-92641212D01*
X176453000Y-92735884D01*
X176453000Y-97169534D01*
X176380769Y-97169471D01*
X176021220Y-97318033D01*
X175745892Y-97592881D01*
X175596702Y-97952170D01*
X175596363Y-98341203D01*
X172018302Y-98341203D01*
X172018302Y-89457749D01*
X172453000Y-89892447D01*
X172453000Y-93439964D01*
X172359460Y-93533341D01*
X172210270Y-93892630D01*
X172209931Y-94281663D01*
X172358493Y-94641212D01*
X172633341Y-94916540D01*
X172992630Y-95065730D01*
X173381663Y-95066069D01*
X173741212Y-94917507D01*
X174016540Y-94642659D01*
X174165730Y-94283370D01*
X174166069Y-93894337D01*
X174017507Y-93534788D01*
X173923000Y-93440116D01*
X173923000Y-89588000D01*
X173867051Y-89306728D01*
X173835468Y-89259460D01*
X173707723Y-89068276D01*
X171899221Y-87259774D01*
X172016540Y-87142659D01*
X172165730Y-86783370D01*
X172166069Y-86394337D01*
X172017507Y-86034788D01*
X171742659Y-85759460D01*
X171383370Y-85610270D01*
X171249600Y-85610153D01*
X168899221Y-83259774D01*
X169016540Y-83142659D01*
X169165730Y-82783370D01*
X169166069Y-82394337D01*
X169017507Y-82034788D01*
X168742659Y-81759460D01*
X168383370Y-81610270D01*
X168249600Y-81610153D01*
X160421110Y-73781663D01*
X161709931Y-73781663D01*
X161858493Y-74141212D01*
X162133341Y-74416540D01*
X162492630Y-74565730D01*
X162881663Y-74566069D01*
X163106908Y-74473000D01*
X169303000Y-74473000D01*
X169303000Y-75669312D01*
X169210270Y-75892630D01*
X169209931Y-76281663D01*
X169358493Y-76641212D01*
X169633341Y-76916540D01*
X169992630Y-77065730D01*
X170381663Y-77066069D01*
X170606908Y-76973000D01*
X176821420Y-76973000D01*
X180266154Y-80417733D01*
X180303000Y-80506908D01*
X180303000Y-85721421D01*
X178858266Y-87166154D01*
X178634788Y-87258493D01*
X178359460Y-87533341D01*
X178210270Y-87892630D01*
X178209931Y-88281663D01*
X178358493Y-88641212D01*
X178633341Y-88916540D01*
X178992630Y-89065730D01*
X179381663Y-89066069D01*
X179741212Y-88917507D01*
X180016540Y-88642659D01*
X180110002Y-88417578D01*
X181813787Y-86713792D01*
X181813790Y-86713790D01*
X182005633Y-86426675D01*
X182009159Y-86408949D01*
X182073001Y-86088000D01*
X182073000Y-86087995D01*
X182073000Y-80506688D01*
X182165730Y-80283370D01*
X182166069Y-79894337D01*
X182017507Y-79534788D01*
X181742659Y-79259460D01*
X181517577Y-79165998D01*
X177813790Y-75462210D01*
X177746887Y-75417507D01*
X177526675Y-75270367D01*
X177466981Y-75258493D01*
X177188000Y-75202999D01*
X177187995Y-75203000D01*
X171073000Y-75203000D01*
X171073000Y-74006688D01*
X171165730Y-73783370D01*
X171166069Y-73394337D01*
X171017507Y-73034788D01*
X170742659Y-72759460D01*
X170383370Y-72610270D01*
X169994337Y-72609931D01*
X169769092Y-72703000D01*
X163106688Y-72703000D01*
X162883370Y-72610270D01*
X162494337Y-72609931D01*
X162134788Y-72758493D01*
X161859460Y-73033341D01*
X161710270Y-73392630D01*
X161709931Y-73781663D01*
X160421110Y-73781663D01*
X159923000Y-73283554D01*
X159923000Y-70236036D01*
X160016540Y-70142659D01*
X160165730Y-69783370D01*
X160166069Y-69394337D01*
X160017507Y-69034788D01*
X159742659Y-68759460D01*
X159383370Y-68610270D01*
X158994337Y-68609931D01*
X158634788Y-68758493D01*
X158359460Y-69033341D01*
X158210270Y-69392630D01*
X158209931Y-69781663D01*
X158358493Y-70141212D01*
X158453000Y-70235884D01*
X158453000Y-72813554D01*
X157423000Y-71783554D01*
X157423000Y-71236036D01*
X157516540Y-71142659D01*
X157665730Y-70783370D01*
X157666069Y-70394337D01*
X157517507Y-70034788D01*
X157242659Y-69759460D01*
X156883370Y-69610270D01*
X156494337Y-69609931D01*
X156134788Y-69758493D01*
X155859460Y-70033341D01*
X155710270Y-70392630D01*
X155709931Y-70781663D01*
X155858493Y-71141212D01*
X155953000Y-71235884D01*
X155953000Y-72088000D01*
X156008949Y-72369272D01*
X156168277Y-72607723D01*
X157413554Y-73853000D01*
X156806952Y-73853000D01*
X156525680Y-73908949D01*
X156445421Y-73962576D01*
X156242659Y-73759460D01*
X155883370Y-73610270D01*
X155494337Y-73609931D01*
X155134788Y-73758493D01*
X155040116Y-73853000D01*
X145336036Y-73853000D01*
X145242659Y-73759460D01*
X144883370Y-73610270D01*
X144494337Y-73609931D01*
X144134788Y-73758493D01*
X143859460Y-74033341D01*
X143710270Y-74392630D01*
X143709931Y-74781663D01*
X143858493Y-75141212D01*
X144031590Y-75314611D01*
X143817697Y-75402990D01*
X143424371Y-75795630D01*
X143338051Y-76003512D01*
X143253010Y-75797697D01*
X142860370Y-75404371D01*
X142347100Y-75191243D01*
X141791339Y-75190758D01*
X141277697Y-75402990D01*
X140977163Y-75703000D01*
X138824579Y-75703000D01*
X137379846Y-74258266D01*
X137287507Y-74034788D01*
X137012659Y-73759460D01*
X136653370Y-73610270D01*
X136264337Y-73609931D01*
X135904788Y-73758493D01*
X135629460Y-74033341D01*
X135480270Y-74392630D01*
X135479931Y-74781663D01*
X135628493Y-75141212D01*
X135903341Y-75416540D01*
X136128422Y-75510002D01*
X137832208Y-77213787D01*
X137832210Y-77213790D01*
X138078423Y-77378303D01*
X138119325Y-77405633D01*
X138458000Y-77473001D01*
X138458005Y-77473000D01*
X140977522Y-77473000D01*
X141235072Y-77731000D01*
X141179690Y-77731000D01*
X140946301Y-77827673D01*
X140767673Y-78006302D01*
X140671000Y-78239691D01*
X140671000Y-78842250D01*
X140829750Y-79001000D01*
X141941000Y-79001000D01*
X141941000Y-78981000D01*
X142195000Y-78981000D01*
X142195000Y-79001000D01*
X142215000Y-79001000D01*
X142215000Y-79255000D01*
X142195000Y-79255000D01*
X142195000Y-79275000D01*
X141941000Y-79275000D01*
X141941000Y-79255000D01*
X140829750Y-79255000D01*
X140671000Y-79413750D01*
X140671000Y-80016309D01*
X140767673Y-80249698D01*
X140775673Y-80257698D01*
X124397145Y-80257698D01*
X121665954Y-77526508D01*
X121666069Y-77394337D01*
X121517507Y-77034788D01*
X121242659Y-76759460D01*
X120883370Y-76610270D01*
X120494337Y-76609931D01*
X120134788Y-76758493D01*
X119859460Y-77033341D01*
X119710270Y-77392630D01*
X119709931Y-77781663D01*
X107898000Y-77781663D01*
X107898000Y-72811795D01*
X109552716Y-72811795D01*
X109801106Y-73412943D01*
X110260637Y-73873278D01*
X110861352Y-74122716D01*
X111511795Y-74123284D01*
X112112943Y-73874894D01*
X112573278Y-73415363D01*
X112822716Y-72814648D01*
X112823284Y-72164205D01*
X112574894Y-71563057D01*
X112115363Y-71102722D01*
X111514648Y-70853284D01*
X110864205Y-70852716D01*
X110263057Y-71101106D01*
X109802722Y-71560637D01*
X109553284Y-72161352D01*
X109552716Y-72811795D01*
X107898000Y-72811795D01*
X107898000Y-65238000D01*
X122190560Y-65238000D01*
X122190560Y-66938000D01*
X122234838Y-67173317D01*
X122373910Y-67389441D01*
X122586110Y-67534431D01*
X122838000Y-67585440D01*
X124538000Y-67585440D01*
X124773317Y-67541162D01*
X124989441Y-67402090D01*
X125134431Y-67189890D01*
X125148086Y-67122459D01*
X125177946Y-67167147D01*
X125659715Y-67489054D01*
X126228000Y-67602093D01*
X126796285Y-67489054D01*
X127278054Y-67167147D01*
X127599961Y-66685378D01*
X127713000Y-66117093D01*
X127713000Y-66058907D01*
X127605588Y-65518907D01*
X175083000Y-65518907D01*
X175083000Y-65577093D01*
X175196039Y-66145378D01*
X175517946Y-66627147D01*
X175803578Y-66818000D01*
X175517946Y-67008853D01*
X175196039Y-67490622D01*
X175083000Y-68058907D01*
X175083000Y-68117093D01*
X175196039Y-68685378D01*
X175517946Y-69167147D01*
X175999715Y-69489054D01*
X176568000Y-69602093D01*
X177136285Y-69489054D01*
X177618054Y-69167147D01*
X177838000Y-68837974D01*
X178057946Y-69167147D01*
X178539715Y-69489054D01*
X179108000Y-69602093D01*
X179676285Y-69489054D01*
X180158054Y-69167147D01*
X180378000Y-68837974D01*
X180597946Y-69167147D01*
X181079715Y-69489054D01*
X181648000Y-69602093D01*
X182216285Y-69489054D01*
X182698054Y-69167147D01*
X182725850Y-69125548D01*
X182734838Y-69173317D01*
X182873910Y-69389441D01*
X183086110Y-69534431D01*
X183338000Y-69585440D01*
X185038000Y-69585440D01*
X185273317Y-69541162D01*
X185489441Y-69402090D01*
X185634431Y-69189890D01*
X185685440Y-68938000D01*
X185685440Y-67238000D01*
X185641162Y-67002683D01*
X185502090Y-66786559D01*
X185289890Y-66641569D01*
X185233546Y-66630159D01*
X185238054Y-66627147D01*
X185559961Y-66145378D01*
X185673000Y-65577093D01*
X185673000Y-65518907D01*
X185559961Y-64950622D01*
X185238054Y-64468853D01*
X184756285Y-64146946D01*
X184188000Y-64033907D01*
X183619715Y-64146946D01*
X183137946Y-64468853D01*
X182918000Y-64798026D01*
X182698054Y-64468853D01*
X182216285Y-64146946D01*
X181648000Y-64033907D01*
X181079715Y-64146946D01*
X180597946Y-64468853D01*
X180378000Y-64798026D01*
X180158054Y-64468853D01*
X179676285Y-64146946D01*
X179108000Y-64033907D01*
X178539715Y-64146946D01*
X178057946Y-64468853D01*
X177838000Y-64798026D01*
X177618054Y-64468853D01*
X177136285Y-64146946D01*
X176568000Y-64033907D01*
X175999715Y-64146946D01*
X175517946Y-64468853D01*
X175196039Y-64950622D01*
X175083000Y-65518907D01*
X127605588Y-65518907D01*
X127599961Y-65490622D01*
X127278054Y-65008853D01*
X126796285Y-64686946D01*
X126228000Y-64573907D01*
X125659715Y-64686946D01*
X125177946Y-65008853D01*
X125150150Y-65050452D01*
X125141162Y-65002683D01*
X125002090Y-64786559D01*
X124789890Y-64641569D01*
X124538000Y-64590560D01*
X122838000Y-64590560D01*
X122602683Y-64634838D01*
X122386559Y-64773910D01*
X122241569Y-64986110D01*
X122190560Y-65238000D01*
X107898000Y-65238000D01*
X107898000Y-62410196D01*
X173795409Y-62410196D01*
X173880467Y-62665539D01*
X174449965Y-62873516D01*
X175055700Y-62847723D01*
X175495533Y-62665539D01*
X175580591Y-62410196D01*
X174688000Y-61517605D01*
X173795409Y-62410196D01*
X107898000Y-62410196D01*
X107898000Y-59715265D01*
X108632670Y-59715265D01*
X108922078Y-60415686D01*
X109457495Y-60952039D01*
X110157410Y-61242668D01*
X110915265Y-61243330D01*
X111615686Y-60953922D01*
X112152039Y-60418505D01*
X112442668Y-59718590D01*
X112442670Y-59715265D01*
X121932670Y-59715265D01*
X122222078Y-60415686D01*
X122757495Y-60952039D01*
X123457410Y-61242668D01*
X124215265Y-61243330D01*
X124915686Y-60953922D01*
X125452039Y-60418505D01*
X125716477Y-59781663D01*
X147209931Y-59781663D01*
X147358493Y-60141212D01*
X147633341Y-60416540D01*
X147992630Y-60565730D01*
X148381663Y-60566069D01*
X148741212Y-60417507D01*
X149016540Y-60142659D01*
X149165730Y-59783370D01*
X149165789Y-59715265D01*
X168632670Y-59715265D01*
X168922078Y-60415686D01*
X169457495Y-60952039D01*
X170157410Y-61242668D01*
X170915265Y-61243330D01*
X171262234Y-61099965D01*
X173152484Y-61099965D01*
X173178277Y-61705700D01*
X173360461Y-62145533D01*
X173615804Y-62230591D01*
X174508395Y-61338000D01*
X173615804Y-60445409D01*
X173360461Y-60530467D01*
X173152484Y-61099965D01*
X171262234Y-61099965D01*
X171615686Y-60953922D01*
X172152039Y-60418505D01*
X172215445Y-60265804D01*
X173795409Y-60265804D01*
X174688000Y-61158395D01*
X175580591Y-60265804D01*
X175495533Y-60010461D01*
X174926035Y-59802484D01*
X174320300Y-59828277D01*
X173880467Y-60010461D01*
X173795409Y-60265804D01*
X172215445Y-60265804D01*
X172442668Y-59718590D01*
X172443330Y-58960735D01*
X172153922Y-58260314D01*
X171618505Y-57723961D01*
X170918590Y-57433332D01*
X170160735Y-57432670D01*
X169460314Y-57722078D01*
X168923961Y-58257495D01*
X168633332Y-58957410D01*
X168632670Y-59715265D01*
X149165789Y-59715265D01*
X149165847Y-59649600D01*
X149451207Y-59364240D01*
X150488000Y-59364240D01*
X150723317Y-59319962D01*
X150939441Y-59180890D01*
X151084431Y-58968690D01*
X151135440Y-58716800D01*
X151135440Y-57716800D01*
X151091162Y-57481483D01*
X150952090Y-57265359D01*
X150739890Y-57120369D01*
X150488000Y-57069360D01*
X148888000Y-57069360D01*
X148652683Y-57113638D01*
X148436559Y-57252710D01*
X148291569Y-57464910D01*
X148240560Y-57716800D01*
X148240560Y-58495994D01*
X148126507Y-58610046D01*
X147994337Y-58609931D01*
X147634788Y-58758493D01*
X147359460Y-59033341D01*
X147210270Y-59392630D01*
X147209931Y-59781663D01*
X125716477Y-59781663D01*
X125742668Y-59718590D01*
X125743330Y-58960735D01*
X125453922Y-58260314D01*
X124918505Y-57723961D01*
X124218590Y-57433332D01*
X123460735Y-57432670D01*
X122760314Y-57722078D01*
X122223961Y-58257495D01*
X121933332Y-58957410D01*
X121932670Y-59715265D01*
X112442670Y-59715265D01*
X112443330Y-58960735D01*
X112153922Y-58260314D01*
X111618505Y-57723961D01*
X110918590Y-57433332D01*
X110160735Y-57432670D01*
X109460314Y-57722078D01*
X108923961Y-58257495D01*
X108633332Y-58957410D01*
X108632670Y-59715265D01*
X107898000Y-59715265D01*
X107898000Y-51869736D01*
X125413736Y-51869736D01*
X125645262Y-52430073D01*
X126042775Y-52828280D01*
X125646769Y-53223596D01*
X125414265Y-53783528D01*
X125413736Y-54389812D01*
X125645262Y-54950149D01*
X126073596Y-55379231D01*
X126633528Y-55611735D01*
X127239812Y-55612264D01*
X127800149Y-55380738D01*
X128208599Y-54973000D01*
X135821420Y-54973000D01*
X137737985Y-56889564D01*
X137745367Y-56926675D01*
X137937210Y-57213790D01*
X138415560Y-57692140D01*
X138415560Y-58088000D01*
X138459838Y-58323317D01*
X138598910Y-58539441D01*
X138811110Y-58684431D01*
X139063000Y-58735440D01*
X139583861Y-58735440D01*
X139691008Y-58842587D01*
X139691010Y-58842590D01*
X139978125Y-59034433D01*
X140316800Y-59101800D01*
X143381156Y-59101800D01*
X143423910Y-59168241D01*
X143636110Y-59313231D01*
X143888000Y-59364240D01*
X145488000Y-59364240D01*
X145723317Y-59319962D01*
X145939441Y-59180890D01*
X145994342Y-59100539D01*
X146270484Y-59045610D01*
X146326675Y-59034433D01*
X146613790Y-58842590D01*
X146613791Y-58842589D01*
X148652178Y-56804201D01*
X160188111Y-56804201D01*
X160411429Y-56896931D01*
X160800462Y-56897270D01*
X161160011Y-56748708D01*
X161435339Y-56473860D01*
X161528801Y-56248779D01*
X162617383Y-55160196D01*
X166545409Y-55160196D01*
X166630467Y-55415539D01*
X167199965Y-55623516D01*
X167805700Y-55597723D01*
X168245533Y-55415539D01*
X168330591Y-55160196D01*
X167438000Y-54267605D01*
X166545409Y-55160196D01*
X162617383Y-55160196D01*
X163927614Y-53849965D01*
X165902484Y-53849965D01*
X165928277Y-54455700D01*
X166110461Y-54895533D01*
X166365804Y-54980591D01*
X167258395Y-54088000D01*
X167617605Y-54088000D01*
X168510196Y-54980591D01*
X168765539Y-54895533D01*
X168973516Y-54326035D01*
X168947723Y-53720300D01*
X168765539Y-53280467D01*
X168510196Y-53195409D01*
X167617605Y-54088000D01*
X167258395Y-54088000D01*
X166365804Y-53195409D01*
X166110461Y-53280467D01*
X165902484Y-53849965D01*
X163927614Y-53849965D01*
X165913776Y-51863803D01*
X165913736Y-51909888D01*
X166145262Y-52470225D01*
X166573596Y-52899307D01*
X166582925Y-52903181D01*
X166545409Y-53015804D01*
X167438000Y-53908395D01*
X168330591Y-53015804D01*
X168293238Y-52903670D01*
X168300149Y-52900814D01*
X168729231Y-52472480D01*
X168961735Y-51912548D01*
X168961778Y-51863358D01*
X176912180Y-59813759D01*
X176886188Y-59813736D01*
X176325851Y-60045262D01*
X175896769Y-60473596D01*
X175890456Y-60488800D01*
X175760196Y-60445409D01*
X174867605Y-61338000D01*
X175760196Y-62230591D01*
X175889977Y-62187359D01*
X175895262Y-62200149D01*
X176323596Y-62629231D01*
X176883528Y-62861735D01*
X177489812Y-62862264D01*
X178050149Y-62630738D01*
X178438301Y-62243263D01*
X178823596Y-62629231D01*
X179383528Y-62861735D01*
X179989812Y-62862264D01*
X180550149Y-62630738D01*
X180979231Y-62202404D01*
X181211735Y-61642472D01*
X181212264Y-61036188D01*
X180980738Y-60475851D01*
X180552404Y-60046769D01*
X179992472Y-59814265D01*
X179415341Y-59813761D01*
X179316845Y-59715265D01*
X181932670Y-59715265D01*
X182222078Y-60415686D01*
X182757495Y-60952039D01*
X183457410Y-61242668D01*
X184215265Y-61243330D01*
X184915686Y-60953922D01*
X185452039Y-60418505D01*
X185742668Y-59718590D01*
X185743330Y-58960735D01*
X185453922Y-58260314D01*
X184918505Y-57723961D01*
X184218590Y-57433332D01*
X183460735Y-57432670D01*
X182760314Y-57722078D01*
X182223961Y-58257495D01*
X181933332Y-58957410D01*
X181932670Y-59715265D01*
X179316845Y-59715265D01*
X168961763Y-49360183D01*
X168962264Y-48786188D01*
X168730738Y-48225851D01*
X168302404Y-47796769D01*
X167742472Y-47564265D01*
X167136188Y-47563736D01*
X166575851Y-47795262D01*
X166146769Y-48223596D01*
X165914265Y-48783528D01*
X165913761Y-49360660D01*
X160277065Y-54997355D01*
X160187891Y-55034201D01*
X148285604Y-55034201D01*
X148285599Y-55034200D01*
X148006618Y-55089694D01*
X147946924Y-55101568D01*
X147659809Y-55293411D01*
X147659807Y-55293414D01*
X145795117Y-57158104D01*
X145739890Y-57120369D01*
X145488000Y-57069360D01*
X143888000Y-57069360D01*
X143652683Y-57113638D01*
X143436559Y-57252710D01*
X143382519Y-57331800D01*
X140960440Y-57331800D01*
X140960440Y-57088000D01*
X140916162Y-56852683D01*
X140777090Y-56636559D01*
X140708994Y-56590031D01*
X140851327Y-56447698D01*
X140948000Y-56214309D01*
X140948000Y-55873750D01*
X140789250Y-55715000D01*
X139815000Y-55715000D01*
X139815000Y-55735000D01*
X139561000Y-55735000D01*
X139561000Y-55715000D01*
X139541000Y-55715000D01*
X139541000Y-55461000D01*
X139561000Y-55461000D01*
X139561000Y-54611750D01*
X139815000Y-54611750D01*
X139815000Y-55461000D01*
X140789250Y-55461000D01*
X140948000Y-55302250D01*
X140948000Y-54961691D01*
X140851327Y-54728302D01*
X140672699Y-54549673D01*
X140593337Y-54516800D01*
X143240560Y-54516800D01*
X143240560Y-55516800D01*
X143284838Y-55752117D01*
X143423910Y-55968241D01*
X143636110Y-56113231D01*
X143888000Y-56164240D01*
X145488000Y-56164240D01*
X145723317Y-56119962D01*
X145939441Y-55980890D01*
X146084431Y-55768690D01*
X146135440Y-55516800D01*
X146135440Y-54516800D01*
X146111674Y-54390490D01*
X148253000Y-54390490D01*
X148253000Y-54731050D01*
X148411750Y-54889800D01*
X149561000Y-54889800D01*
X149561000Y-54040550D01*
X149815000Y-54040550D01*
X149815000Y-54889800D01*
X150964250Y-54889800D01*
X151123000Y-54731050D01*
X151123000Y-54390490D01*
X151026327Y-54157101D01*
X150847698Y-53978473D01*
X150614309Y-53881800D01*
X149973750Y-53881800D01*
X149815000Y-54040550D01*
X149561000Y-54040550D01*
X149402250Y-53881800D01*
X148761691Y-53881800D01*
X148528302Y-53978473D01*
X148349673Y-54157101D01*
X148253000Y-54390490D01*
X146111674Y-54390490D01*
X146091162Y-54281483D01*
X145952090Y-54065359D01*
X145739890Y-53920369D01*
X145488000Y-53869360D01*
X143888000Y-53869360D01*
X143652683Y-53913638D01*
X143436559Y-54052710D01*
X143291569Y-54264910D01*
X143240560Y-54516800D01*
X140593337Y-54516800D01*
X140439310Y-54453000D01*
X139973750Y-54453000D01*
X139815000Y-54611750D01*
X139561000Y-54611750D01*
X139402250Y-54453000D01*
X138936690Y-54453000D01*
X138703301Y-54549673D01*
X138524673Y-54728302D01*
X138428000Y-54961691D01*
X138428000Y-55076421D01*
X136813790Y-53462210D01*
X136526675Y-53270367D01*
X136470484Y-53259190D01*
X136188000Y-53202999D01*
X136187995Y-53203000D01*
X128207927Y-53203000D01*
X127833225Y-52827644D01*
X128229231Y-52432328D01*
X128461735Y-51872396D01*
X128462264Y-51266112D01*
X128230738Y-50705775D01*
X127802404Y-50276693D01*
X127793075Y-50272819D01*
X127830591Y-50160196D01*
X126938000Y-49267605D01*
X126045409Y-50160196D01*
X126082762Y-50272330D01*
X126075851Y-50275186D01*
X125646769Y-50703520D01*
X125414265Y-51263452D01*
X125413736Y-51869736D01*
X107898000Y-51869736D01*
X107898000Y-48849965D01*
X125402484Y-48849965D01*
X125428277Y-49455700D01*
X125610461Y-49895533D01*
X125865804Y-49980591D01*
X126758395Y-49088000D01*
X127117605Y-49088000D01*
X128010196Y-49980591D01*
X128265539Y-49895533D01*
X128473516Y-49326035D01*
X128447723Y-48720300D01*
X128265539Y-48280467D01*
X128010196Y-48195409D01*
X127117605Y-49088000D01*
X126758395Y-49088000D01*
X125865804Y-48195409D01*
X125610461Y-48280467D01*
X125402484Y-48849965D01*
X107898000Y-48849965D01*
X107898000Y-48015804D01*
X126045409Y-48015804D01*
X126938000Y-48908395D01*
X127830591Y-48015804D01*
X127745533Y-47760461D01*
X127176035Y-47552484D01*
X126570300Y-47578277D01*
X126130467Y-47760461D01*
X126045409Y-48015804D01*
X107898000Y-48015804D01*
X107898000Y-44215265D01*
X108632670Y-44215265D01*
X108922078Y-44915686D01*
X109457495Y-45452039D01*
X110157410Y-45742668D01*
X110915265Y-45743330D01*
X111615686Y-45453922D01*
X112152039Y-44918505D01*
X112442668Y-44218590D01*
X112442670Y-44215265D01*
X121932670Y-44215265D01*
X122222078Y-44915686D01*
X122757495Y-45452039D01*
X123457410Y-45742668D01*
X124215265Y-45743330D01*
X124915686Y-45453922D01*
X125452039Y-44918505D01*
X125742668Y-44218590D01*
X125743330Y-43460735D01*
X125453922Y-42760314D01*
X124918505Y-42223961D01*
X124218590Y-41933332D01*
X123460735Y-41932670D01*
X122760314Y-42222078D01*
X122223961Y-42757495D01*
X121933332Y-43457410D01*
X121932670Y-44215265D01*
X112442670Y-44215265D01*
X112443330Y-43460735D01*
X112153922Y-42760314D01*
X111618505Y-42223961D01*
X111415851Y-42139812D01*
X113163736Y-42139812D01*
X113395262Y-42700149D01*
X113823596Y-43129231D01*
X114383528Y-43361735D01*
X114989812Y-43362264D01*
X115550149Y-43130738D01*
X115938301Y-42743263D01*
X116323596Y-43129231D01*
X116883528Y-43361735D01*
X117489812Y-43362264D01*
X118050149Y-43130738D01*
X118271076Y-42910196D01*
X118795409Y-42910196D01*
X118880467Y-43165539D01*
X119449965Y-43373516D01*
X120055700Y-43347723D01*
X120495533Y-43165539D01*
X120580591Y-42910196D01*
X119688000Y-42017605D01*
X118795409Y-42910196D01*
X118271076Y-42910196D01*
X118479231Y-42702404D01*
X118485544Y-42687200D01*
X118615804Y-42730591D01*
X119508395Y-41838000D01*
X119867605Y-41838000D01*
X120760196Y-42730591D01*
X121015539Y-42645533D01*
X121223516Y-42076035D01*
X121214903Y-41873750D01*
X143251000Y-41873750D01*
X143251000Y-43746310D01*
X143347673Y-43979699D01*
X143526302Y-44158327D01*
X143759691Y-44255000D01*
X144362250Y-44255000D01*
X144521000Y-44096250D01*
X144521000Y-41715000D01*
X144775000Y-41715000D01*
X144775000Y-44096250D01*
X144933750Y-44255000D01*
X145536309Y-44255000D01*
X145769698Y-44158327D01*
X145948327Y-43979699D01*
X146045000Y-43746310D01*
X146045000Y-41873750D01*
X148331000Y-41873750D01*
X148331000Y-43746310D01*
X148427673Y-43979699D01*
X148606302Y-44158327D01*
X148839691Y-44255000D01*
X149442250Y-44255000D01*
X149601000Y-44096250D01*
X149601000Y-41715000D01*
X149855000Y-41715000D01*
X149855000Y-44096250D01*
X150013750Y-44255000D01*
X150616309Y-44255000D01*
X150712237Y-44215265D01*
X168632670Y-44215265D01*
X168922078Y-44915686D01*
X169457495Y-45452039D01*
X170157410Y-45742668D01*
X170915265Y-45743330D01*
X171615686Y-45453922D01*
X172152039Y-44918505D01*
X172442668Y-44218590D01*
X172442670Y-44215265D01*
X181932670Y-44215265D01*
X182222078Y-44915686D01*
X182757495Y-45452039D01*
X183457410Y-45742668D01*
X184215265Y-45743330D01*
X184915686Y-45453922D01*
X185452039Y-44918505D01*
X185742668Y-44218590D01*
X185743330Y-43460735D01*
X185453922Y-42760314D01*
X184918505Y-42223961D01*
X184218590Y-41933332D01*
X183460735Y-41932670D01*
X182760314Y-42222078D01*
X182223961Y-42757495D01*
X181933332Y-43457410D01*
X181932670Y-44215265D01*
X172442670Y-44215265D01*
X172443330Y-43460735D01*
X172153922Y-42760314D01*
X171618505Y-42223961D01*
X170918590Y-41933332D01*
X170160735Y-41932670D01*
X169460314Y-42222078D01*
X168923961Y-42757495D01*
X168633332Y-43457410D01*
X168632670Y-44215265D01*
X150712237Y-44215265D01*
X150849698Y-44158327D01*
X151028327Y-43979699D01*
X151125000Y-43746310D01*
X151125000Y-41873750D01*
X150966250Y-41715000D01*
X149855000Y-41715000D01*
X149601000Y-41715000D01*
X148489750Y-41715000D01*
X148331000Y-41873750D01*
X146045000Y-41873750D01*
X145886250Y-41715000D01*
X144775000Y-41715000D01*
X144521000Y-41715000D01*
X143409750Y-41715000D01*
X143251000Y-41873750D01*
X121214903Y-41873750D01*
X121197723Y-41470300D01*
X121015539Y-41030467D01*
X120760196Y-40945409D01*
X119867605Y-41838000D01*
X119508395Y-41838000D01*
X118615804Y-40945409D01*
X118486023Y-40988641D01*
X118480738Y-40975851D01*
X118271058Y-40765804D01*
X118795409Y-40765804D01*
X119688000Y-41658395D01*
X120580591Y-40765804D01*
X120495533Y-40510461D01*
X119926035Y-40302484D01*
X119320300Y-40328277D01*
X118880467Y-40510461D01*
X118795409Y-40765804D01*
X118271058Y-40765804D01*
X118052404Y-40546769D01*
X117492472Y-40314265D01*
X116886188Y-40313736D01*
X116325851Y-40545262D01*
X115937699Y-40932737D01*
X115552404Y-40546769D01*
X114992472Y-40314265D01*
X114386188Y-40313736D01*
X113825851Y-40545262D01*
X113396769Y-40973596D01*
X113164265Y-41533528D01*
X113163736Y-42139812D01*
X111415851Y-42139812D01*
X110918590Y-41933332D01*
X110160735Y-41932670D01*
X109460314Y-42222078D01*
X108923961Y-42757495D01*
X108633332Y-43457410D01*
X108632670Y-44215265D01*
X107898000Y-44215265D01*
X107898000Y-44157931D01*
X108237408Y-42451610D01*
X109164349Y-41064346D01*
X110551610Y-40137408D01*
X112257931Y-39798000D01*
X143251000Y-39798000D01*
X143251000Y-41302250D01*
X143251000Y-41302250D01*
G37*
X143251000Y-41302250D02*
X143409750Y-41461000D01*
X144521000Y-41461000D01*
X144521000Y-41441000D01*
X144775000Y-41441000D01*
X144775000Y-41461000D01*
X145886250Y-41461000D01*
X146045000Y-41302250D01*
X146045000Y-39798000D01*
X148331000Y-39798000D01*
X148331000Y-41302250D01*
X148489750Y-41461000D01*
X149601000Y-41461000D01*
X149601000Y-41441000D01*
X149855000Y-41441000D01*
X149855000Y-41461000D01*
X150966250Y-41461000D01*
X151125000Y-41302250D01*
X151125000Y-39798000D01*
X182118069Y-39798000D01*
X183824390Y-40137408D01*
X185211654Y-41064349D01*
X186138592Y-42451610D01*
X186478000Y-44157931D01*
X186478000Y-109018069D01*
X186138592Y-110724390D01*
X185211654Y-112111651D01*
X183824390Y-113038592D01*
X182118069Y-113378000D01*
X122728791Y-113378000D01*
X122882293Y-113193380D01*
X123023000Y-112740000D01*
X123023000Y-112415000D01*
X121940000Y-112415000D01*
X121940000Y-112435000D01*
X121686000Y-112435000D01*
X121686000Y-112415000D01*
X120603000Y-112415000D01*
X120603000Y-112740000D01*
X120743707Y-113193380D01*
X120897209Y-113378000D01*
X114978791Y-113378000D01*
X115132293Y-113193380D01*
X115273000Y-112740000D01*
X115273000Y-112415000D01*
X114190000Y-112415000D01*
X114190000Y-112435000D01*
X113936000Y-112435000D01*
X113936000Y-112415000D01*
X112853000Y-112415000D01*
X112853000Y-112740000D01*
X112993707Y-113193380D01*
X113147209Y-113378000D01*
X112257931Y-113378000D01*
X110551610Y-113038592D01*
X109164349Y-112111654D01*
X108980163Y-111836000D01*
X112853000Y-111836000D01*
X112853000Y-112161000D01*
X113936000Y-112161000D01*
X113936000Y-110919450D01*
X114190000Y-110919450D01*
X114190000Y-112161000D01*
X115273000Y-112161000D01*
X115273000Y-111836000D01*
X120603000Y-111836000D01*
X120603000Y-112161000D01*
X121686000Y-112161000D01*
X121686000Y-110919450D01*
X121940000Y-110919450D01*
X121940000Y-112161000D01*
X123023000Y-112161000D01*
X123023000Y-111836000D01*
X122882293Y-111382620D01*
X122578796Y-111017598D01*
X122158714Y-110796505D01*
X122126677Y-110794365D01*
X121940000Y-110919450D01*
X121686000Y-110919450D01*
X121499323Y-110794365D01*
X121467286Y-110796505D01*
X121047204Y-111017598D01*
X120743707Y-111382620D01*
X120603000Y-111836000D01*
X115273000Y-111836000D01*
X115132293Y-111382620D01*
X114828796Y-111017598D01*
X114408714Y-110796505D01*
X114376677Y-110794365D01*
X114190000Y-110919450D01*
X113936000Y-110919450D01*
X113749323Y-110794365D01*
X113717286Y-110796505D01*
X113297204Y-111017598D01*
X112993707Y-111382620D01*
X112853000Y-111836000D01*
X108980163Y-111836000D01*
X108237408Y-110724390D01*
X107898000Y-109018069D01*
X107898000Y-108615000D01*
X112853000Y-108615000D01*
X112853000Y-108890000D01*
X113005125Y-109400782D01*
X113341138Y-109814467D01*
X113809884Y-110068076D01*
X113875742Y-110080519D01*
X114086000Y-109957518D01*
X114086000Y-108615000D01*
X114340000Y-108615000D01*
X114340000Y-109957518D01*
X114550258Y-110080519D01*
X114558337Y-110078993D01*
X114685867Y-110269856D01*
X115021646Y-110494215D01*
X115417723Y-110573000D01*
X115458277Y-110573000D01*
X115854354Y-110494215D01*
X116190133Y-110269856D01*
X116414492Y-109934077D01*
X116493277Y-109538000D01*
X119382723Y-109538000D01*
X119461508Y-109934077D01*
X119685867Y-110269856D01*
X120021646Y-110494215D01*
X120417723Y-110573000D01*
X120458277Y-110573000D01*
X120854354Y-110494215D01*
X121190133Y-110269856D01*
X121317663Y-110078993D01*
X121325742Y-110080519D01*
X121536000Y-109957518D01*
X121536000Y-108615000D01*
X121790000Y-108615000D01*
X121790000Y-109957518D01*
X122000258Y-110080519D01*
X122066116Y-110068076D01*
X122534862Y-109814467D01*
X122870875Y-109400782D01*
X123023000Y-108890000D01*
X123023000Y-108615000D01*
X121790000Y-108615000D01*
X121536000Y-108615000D01*
X120904064Y-108615000D01*
X120854354Y-108581785D01*
X120458277Y-108503000D01*
X120417723Y-108503000D01*
X120021646Y-108581785D01*
X119685867Y-108806144D01*
X119461508Y-109141923D01*
X119382723Y-109538000D01*
X116493277Y-109538000D01*
X116414492Y-109141923D01*
X116190133Y-108806144D01*
X115854354Y-108581785D01*
X115458277Y-108503000D01*
X115417723Y-108503000D01*
X115021646Y-108581785D01*
X114971936Y-108615000D01*
X114340000Y-108615000D01*
X114086000Y-108615000D01*
X112853000Y-108615000D01*
X107898000Y-108615000D01*
X107898000Y-108086000D01*
X112853000Y-108086000D01*
X112853000Y-108361000D01*
X114086000Y-108361000D01*
X114086000Y-107018482D01*
X114340000Y-107018482D01*
X114340000Y-108361000D01*
X115573000Y-108361000D01*
X115573000Y-108086000D01*
X120303000Y-108086000D01*
X120303000Y-108361000D01*
X121536000Y-108361000D01*
X121536000Y-107018482D01*
X121790000Y-107018482D01*
X121790000Y-108361000D01*
X123023000Y-108361000D01*
X123023000Y-108086000D01*
X122870875Y-107575218D01*
X122534862Y-107161533D01*
X122066116Y-106907924D01*
X122000258Y-106895481D01*
X121790000Y-107018482D01*
X121536000Y-107018482D01*
X121325742Y-106895481D01*
X121259884Y-106907924D01*
X120791138Y-107161533D01*
X120455125Y-107575218D01*
X120303000Y-108086000D01*
X115573000Y-108086000D01*
X115420875Y-107575218D01*
X115084862Y-107161533D01*
X114616116Y-106907924D01*
X114550258Y-106895481D01*
X114340000Y-107018482D01*
X114086000Y-107018482D01*
X113875742Y-106895481D01*
X113809884Y-106907924D01*
X113341138Y-107161533D01*
X113005125Y-107575218D01*
X112853000Y-108086000D01*
X107898000Y-108086000D01*
X107898000Y-104281663D01*
X131209931Y-104281663D01*
X131358493Y-104641212D01*
X131633341Y-104916540D01*
X131858422Y-105010002D01*
X139562208Y-112713787D01*
X139562210Y-112713790D01*
X139849325Y-112905633D01*
X140188000Y-112973000D01*
X142769312Y-112973000D01*
X142992630Y-113065730D01*
X143381663Y-113066069D01*
X143741212Y-112917507D01*
X144016540Y-112642659D01*
X144165730Y-112283370D01*
X144166069Y-111894337D01*
X144017507Y-111534788D01*
X143742659Y-111259460D01*
X143383370Y-111110270D01*
X142994337Y-111109931D01*
X142769092Y-111203000D01*
X140554579Y-111203000D01*
X139407127Y-110055548D01*
X139741212Y-109917507D01*
X140016540Y-109642659D01*
X140165730Y-109283370D01*
X140166069Y-108894337D01*
X140073000Y-108669092D01*
X140073000Y-107506688D01*
X140165730Y-107283370D01*
X140166069Y-106894337D01*
X140017507Y-106534788D01*
X139742659Y-106259460D01*
X139383370Y-106110270D01*
X138994337Y-106109931D01*
X138634788Y-106258493D01*
X138359460Y-106533341D01*
X138210270Y-106892630D01*
X138209931Y-107281663D01*
X138303000Y-107506908D01*
X138303000Y-108669312D01*
X138220228Y-108868649D01*
X133109846Y-103758266D01*
X133017507Y-103534788D01*
X132742659Y-103259460D01*
X132383370Y-103110270D01*
X131994337Y-103109931D01*
X131634788Y-103258493D01*
X131359460Y-103533341D01*
X131210270Y-103892630D01*
X131209931Y-104281663D01*
X107898000Y-104281663D01*
X107898000Y-97281663D01*
X118209931Y-97281663D01*
X118303000Y-97506908D01*
X118303000Y-99515315D01*
X118302999Y-99515320D01*
X118353073Y-99767051D01*
X118370367Y-99853995D01*
X118551428Y-100124973D01*
X118562210Y-100141110D01*
X119970163Y-101549062D01*
X119970165Y-101549065D01*
X120017008Y-101595908D01*
X120109347Y-101819386D01*
X120384195Y-102094714D01*
X120743484Y-102243904D01*
X121132517Y-102244243D01*
X121492066Y-102095681D01*
X121767394Y-101820833D01*
X121916584Y-101461544D01*
X121916923Y-101072511D01*
X121768361Y-100712962D01*
X121493513Y-100437634D01*
X121268432Y-100344172D01*
X121221745Y-100297485D01*
X121221742Y-100297483D01*
X120073000Y-99148740D01*
X120073000Y-97506688D01*
X120165730Y-97283370D01*
X120166069Y-96894337D01*
X120017507Y-96534788D01*
X119742659Y-96259460D01*
X119383370Y-96110270D01*
X118994337Y-96109931D01*
X118634788Y-96258493D01*
X118359460Y-96533341D01*
X118210270Y-96892630D01*
X118209931Y-97281663D01*
X107898000Y-97281663D01*
X107898000Y-86281663D01*
X117709931Y-86281663D01*
X117858493Y-86641212D01*
X118133341Y-86916540D01*
X118492630Y-87065730D01*
X118881663Y-87066069D01*
X119241212Y-86917507D01*
X119335884Y-86823000D01*
X123383554Y-86823000D01*
X148710046Y-112149493D01*
X148709931Y-112281663D01*
X148858493Y-112641212D01*
X149133341Y-112916540D01*
X149492630Y-113065730D01*
X149881663Y-113066069D01*
X150241212Y-112917507D01*
X150516540Y-112642659D01*
X150665730Y-112283370D01*
X150666069Y-111894337D01*
X150517507Y-111534788D01*
X150242659Y-111259460D01*
X149883370Y-111110270D01*
X149749600Y-111110153D01*
X124207723Y-85568277D01*
X123969272Y-85408949D01*
X123688000Y-85353000D01*
X119336036Y-85353000D01*
X119242659Y-85259460D01*
X118883370Y-85110270D01*
X118494337Y-85109931D01*
X118134788Y-85258493D01*
X117859460Y-85533341D01*
X117710270Y-85892630D01*
X117709931Y-86281663D01*
X107898000Y-86281663D01*
X107898000Y-79088000D01*
X109540560Y-79088000D01*
X109540560Y-81088000D01*
X109584838Y-81323317D01*
X109723910Y-81539441D01*
X109936110Y-81684431D01*
X110188000Y-81735440D01*
X112188000Y-81735440D01*
X112423317Y-81691162D01*
X112639441Y-81552090D01*
X112784431Y-81339890D01*
X112835440Y-81088000D01*
X112835440Y-79088000D01*
X112791162Y-78852683D01*
X112652090Y-78636559D01*
X112439890Y-78491569D01*
X112188000Y-78440560D01*
X110188000Y-78440560D01*
X109952683Y-78484838D01*
X109736559Y-78623910D01*
X109591569Y-78836110D01*
X109540560Y-79088000D01*
X107898000Y-79088000D01*
X107898000Y-77781663D01*
X119709931Y-77781663D01*
X119858493Y-78141212D01*
X120133341Y-78416540D01*
X120492630Y-78565730D01*
X120626400Y-78565847D01*
X123572974Y-81512421D01*
X123718909Y-81609931D01*
X123811426Y-81671749D01*
X124092698Y-81727698D01*
X147778756Y-81727698D01*
X147710270Y-81892630D01*
X147709931Y-82281663D01*
X147858493Y-82641212D01*
X147953000Y-82735884D01*
X147953000Y-84088000D01*
X148003682Y-84342793D01*
X148008949Y-84369272D01*
X148168277Y-84607723D01*
X151210046Y-87649493D01*
X151209931Y-87781663D01*
X151358493Y-88141212D01*
X151633341Y-88416540D01*
X151992630Y-88565730D01*
X152381663Y-88566069D01*
X152450590Y-88537589D01*
X152450590Y-89285963D01*
X152126507Y-89610046D01*
X151994337Y-89609931D01*
X151634788Y-89758493D01*
X151359460Y-90033341D01*
X151210270Y-90392630D01*
X151209931Y-90781663D01*
X151358493Y-91141212D01*
X151633341Y-91416540D01*
X151992630Y-91565730D01*
X152381663Y-91566069D01*
X152741212Y-91417507D01*
X153016540Y-91142659D01*
X153165730Y-90783370D01*
X153165847Y-90649600D01*
X153705313Y-90110134D01*
X153864641Y-89871682D01*
X153877642Y-89806320D01*
X153920590Y-89590410D01*
X153920590Y-82238442D01*
X153938396Y-82220666D01*
X153973746Y-82227698D01*
X156289868Y-82227698D01*
X156522304Y-82460135D01*
X156724244Y-82595066D01*
X156760755Y-82619462D01*
X157042027Y-82675411D01*
X161735965Y-82675411D01*
X163713554Y-84653000D01*
X162473750Y-84653000D01*
X162315000Y-84811750D01*
X162315000Y-85388000D01*
X162335000Y-85388000D01*
X162335000Y-85432240D01*
X162188000Y-85403000D01*
X162041000Y-85403000D01*
X162041000Y-85388000D01*
X162061000Y-85388000D01*
X162061000Y-84811750D01*
X161902250Y-84653000D01*
X160061691Y-84653000D01*
X159828302Y-84749673D01*
X159649673Y-84928301D01*
X159554603Y-85157821D01*
X159286191Y-84889409D01*
X159286188Y-84889407D01*
X159239348Y-84842567D01*
X159147009Y-84619088D01*
X158872161Y-84343760D01*
X158512872Y-84194570D01*
X158458042Y-84194522D01*
X158444522Y-84161801D01*
X158169674Y-83886473D01*
X157810385Y-83737283D01*
X157421352Y-83736944D01*
X157061803Y-83885506D01*
X156786475Y-84160354D01*
X156637285Y-84519643D01*
X156636946Y-84908676D01*
X156785508Y-85268225D01*
X156880015Y-85362897D01*
X156880015Y-85396063D01*
X156922624Y-85610270D01*
X156935964Y-85677335D01*
X157095292Y-85915786D01*
X157615359Y-86435854D01*
X157438512Y-86612393D01*
X157299280Y-86947701D01*
X157109846Y-86758267D01*
X157017507Y-86534788D01*
X156742659Y-86259460D01*
X156383370Y-86110270D01*
X155994337Y-86109931D01*
X155634788Y-86258493D01*
X155359460Y-86533341D01*
X155210270Y-86892630D01*
X155209931Y-87281663D01*
X155358493Y-87641212D01*
X155633341Y-87916540D01*
X155858423Y-88010002D01*
X155898299Y-88049878D01*
X155898299Y-90180919D01*
X155733158Y-90291262D01*
X155733156Y-90291265D01*
X154321420Y-91703000D01*
X150106688Y-91703000D01*
X149883370Y-91610270D01*
X149494337Y-91609931D01*
X149134788Y-91758493D01*
X148859460Y-92033341D01*
X148710270Y-92392630D01*
X148709931Y-92781663D01*
X148858493Y-93141212D01*
X149133341Y-93416540D01*
X149492630Y-93565730D01*
X149881663Y-93566069D01*
X150106908Y-93473000D01*
X154492072Y-93473000D01*
X154491958Y-93603786D01*
X154640520Y-93963335D01*
X154915368Y-94238663D01*
X155274657Y-94387853D01*
X155355196Y-94387923D01*
X155358493Y-94395902D01*
X155633341Y-94671230D01*
X155992630Y-94820420D01*
X156381663Y-94820759D01*
X156741212Y-94672197D01*
X157016540Y-94397349D01*
X157165730Y-94038060D01*
X157165847Y-93904290D01*
X157505288Y-93564848D01*
X157505288Y-93679888D01*
X157454035Y-93731052D01*
X157304845Y-94090341D01*
X157304506Y-94479374D01*
X157453068Y-94838923D01*
X157727916Y-95114251D01*
X158087205Y-95263441D01*
X158476238Y-95263780D01*
X158755077Y-95148567D01*
X158864029Y-95412253D01*
X159138877Y-95687581D01*
X159498166Y-95836771D01*
X159854265Y-95837081D01*
X159964288Y-95882654D01*
X159952683Y-95884838D01*
X159792365Y-95988000D01*
X159711750Y-95988000D01*
X159553000Y-96146750D01*
X159553000Y-96214310D01*
X159581870Y-96284007D01*
X159567410Y-96355411D01*
X159421318Y-96355411D01*
X159140046Y-96411360D01*
X159095259Y-96441286D01*
X158888856Y-96355580D01*
X158499823Y-96355241D01*
X158140274Y-96503803D01*
X157864946Y-96778651D01*
X157715756Y-97137940D01*
X157715417Y-97526973D01*
X157785370Y-97696274D01*
X157634788Y-97758493D01*
X157518302Y-97874776D01*
X157518302Y-96302254D01*
X157462353Y-96020982D01*
X157416929Y-95953000D01*
X157303025Y-95782530D01*
X156993469Y-95472975D01*
X156755018Y-95313647D01*
X156473746Y-95257698D01*
X136897145Y-95257698D01*
X122665954Y-81026508D01*
X122666069Y-80894337D01*
X122517507Y-80534788D01*
X122242659Y-80259460D01*
X121883370Y-80110270D01*
X121494337Y-80109931D01*
X121134788Y-80258493D01*
X120859460Y-80533341D01*
X120710270Y-80892630D01*
X120709931Y-81281663D01*
X120858493Y-81641212D01*
X121133341Y-81916540D01*
X121492630Y-82065730D01*
X121626401Y-82065847D01*
X136072974Y-96512421D01*
X136243447Y-96626327D01*
X136311426Y-96671749D01*
X136592698Y-96727698D01*
X144111125Y-96727698D01*
X144082446Y-96756327D01*
X143933256Y-97115616D01*
X143932917Y-97504649D01*
X144081479Y-97864198D01*
X144356327Y-98139526D01*
X144715616Y-98288716D01*
X144849386Y-98288833D01*
X145248136Y-98687583D01*
X145486587Y-98846911D01*
X145533254Y-98856193D01*
X145767860Y-98902860D01*
X152335310Y-98902860D01*
X151613964Y-99624206D01*
X151290665Y-99489960D01*
X150901632Y-99489621D01*
X150542083Y-99638183D01*
X150266755Y-99913031D01*
X150117565Y-100272320D01*
X150117226Y-100661353D01*
X150265788Y-101020902D01*
X150540636Y-101296230D01*
X150752258Y-101384103D01*
X150858493Y-101641212D01*
X151133341Y-101916540D01*
X151492630Y-102065730D01*
X151881663Y-102066069D01*
X152241212Y-101917507D01*
X152516540Y-101642659D01*
X152665730Y-101283370D01*
X152665847Y-101149600D01*
X153016226Y-100799220D01*
X153133341Y-100916540D01*
X153492630Y-101065730D01*
X153626401Y-101065847D01*
X156318244Y-103757690D01*
X146583883Y-103757690D01*
X146490506Y-103664150D01*
X146131217Y-103514960D01*
X145742184Y-103514621D01*
X145382635Y-103663183D01*
X145107307Y-103938031D01*
X144958117Y-104297320D01*
X144957778Y-104686353D01*
X145106340Y-105045902D01*
X145381188Y-105321230D01*
X145740477Y-105470420D01*
X145787941Y-105470461D01*
X145858493Y-105641212D01*
X146133341Y-105916540D01*
X146492630Y-106065730D01*
X146881663Y-106066069D01*
X147241212Y-105917507D01*
X147335884Y-105823000D01*
X156764602Y-105823000D01*
X157794601Y-106853000D01*
X156648989Y-106853000D01*
X156517507Y-106534788D01*
X156242659Y-106259460D01*
X155883370Y-106110270D01*
X155494337Y-106109931D01*
X155134788Y-106258493D01*
X154859460Y-106533341D01*
X154710270Y-106892630D01*
X154709978Y-107227425D01*
X154634788Y-107258493D01*
X154540116Y-107353000D01*
X151188000Y-107353000D01*
X150906728Y-107408949D01*
X150668277Y-107568276D01*
X150126507Y-108110046D01*
X149994337Y-108109931D01*
X149634788Y-108258493D01*
X149359460Y-108533341D01*
X149210270Y-108892630D01*
X149209931Y-109281663D01*
X149358493Y-109641212D01*
X149633341Y-109916540D01*
X149992630Y-110065730D01*
X150381663Y-110066069D01*
X150741212Y-109917507D01*
X151016540Y-109642659D01*
X151165730Y-109283370D01*
X151165847Y-109149600D01*
X151492447Y-108823000D01*
X154539964Y-108823000D01*
X154633341Y-108916540D01*
X154992630Y-109065730D01*
X155381663Y-109066069D01*
X155741212Y-108917507D01*
X156016540Y-108642659D01*
X156152229Y-108315885D01*
X156188000Y-108323000D01*
X158039964Y-108323000D01*
X158133341Y-108416540D01*
X158492630Y-108565730D01*
X158881663Y-108566069D01*
X159241212Y-108417507D01*
X159275018Y-108383760D01*
X161609198Y-110717940D01*
X161609083Y-110850110D01*
X161757645Y-111209659D01*
X162032493Y-111484987D01*
X162391782Y-111634177D01*
X162780815Y-111634516D01*
X163140364Y-111485954D01*
X163415692Y-111211106D01*
X163435354Y-111163755D01*
X163474368Y-111163789D01*
X163833917Y-111015227D01*
X164109245Y-110740379D01*
X164258435Y-110381090D01*
X164258774Y-109992057D01*
X164110212Y-109632508D01*
X163835364Y-109357180D01*
X163476075Y-109207990D01*
X163087042Y-109207651D01*
X163001427Y-109243026D01*
X162958750Y-109200349D01*
X163016540Y-109142659D01*
X163165730Y-108783370D01*
X163166069Y-108394337D01*
X163017507Y-108034788D01*
X162742659Y-107759460D01*
X162383370Y-107610270D01*
X162249600Y-107610153D01*
X162110827Y-107471381D01*
X162241212Y-107417507D01*
X162516540Y-107142659D01*
X162617163Y-106900333D01*
X162633341Y-106916540D01*
X162992630Y-107065730D01*
X163381663Y-107066069D01*
X163741212Y-106917507D01*
X164016540Y-106642659D01*
X164165730Y-106283370D01*
X164165847Y-106149600D01*
X165801836Y-104513611D01*
X168603991Y-104513611D01*
X167764602Y-105353000D01*
X166836036Y-105353000D01*
X166742659Y-105259460D01*
X166383370Y-105110270D01*
X165994337Y-105109931D01*
X165634788Y-105258493D01*
X165359460Y-105533341D01*
X165210270Y-105892630D01*
X165209931Y-106281663D01*
X165358493Y-106641212D01*
X165633341Y-106916540D01*
X165992630Y-107065730D01*
X166381663Y-107066069D01*
X166741212Y-106917507D01*
X166835884Y-106823000D01*
X168069048Y-106823000D01*
X168350320Y-106767051D01*
X168588771Y-106607723D01*
X171803026Y-103393469D01*
X171962353Y-103155018D01*
X172018302Y-102873746D01*
X172018302Y-98341203D01*
X175596363Y-98341203D01*
X175744925Y-98700752D01*
X176019773Y-98976080D01*
X176379062Y-99125270D01*
X176768095Y-99125609D01*
X177127644Y-98977047D01*
X177402972Y-98702199D01*
X177552162Y-98342910D01*
X177552279Y-98209140D01*
X177707724Y-98053695D01*
X177867051Y-97815244D01*
X177876393Y-97768277D01*
X177923000Y-97533972D01*
X177923000Y-92736036D01*
X178016540Y-92642659D01*
X178165730Y-92283370D01*
X178166069Y-91894337D01*
X178017507Y-91534788D01*
X177742659Y-91259460D01*
X177383370Y-91110270D01*
X176994337Y-91109931D01*
X176634788Y-91258493D01*
X176359460Y-91533341D01*
X176210270Y-91892630D01*
X176209931Y-92281663D01*
X176358493Y-92641212D01*
X176453000Y-92735884D01*
X176453000Y-97169534D01*
X176380769Y-97169471D01*
X176021220Y-97318033D01*
X175745892Y-97592881D01*
X175596702Y-97952170D01*
X175596363Y-98341203D01*
X172018302Y-98341203D01*
X172018302Y-89457749D01*
X172453000Y-89892447D01*
X172453000Y-93439964D01*
X172359460Y-93533341D01*
X172210270Y-93892630D01*
X172209931Y-94281663D01*
X172358493Y-94641212D01*
X172633341Y-94916540D01*
X172992630Y-95065730D01*
X173381663Y-95066069D01*
X173741212Y-94917507D01*
X174016540Y-94642659D01*
X174165730Y-94283370D01*
X174166069Y-93894337D01*
X174017507Y-93534788D01*
X173923000Y-93440116D01*
X173923000Y-89588000D01*
X173867051Y-89306728D01*
X173835468Y-89259460D01*
X173707723Y-89068276D01*
X171899221Y-87259774D01*
X172016540Y-87142659D01*
X172165730Y-86783370D01*
X172166069Y-86394337D01*
X172017507Y-86034788D01*
X171742659Y-85759460D01*
X171383370Y-85610270D01*
X171249600Y-85610153D01*
X168899221Y-83259774D01*
X169016540Y-83142659D01*
X169165730Y-82783370D01*
X169166069Y-82394337D01*
X169017507Y-82034788D01*
X168742659Y-81759460D01*
X168383370Y-81610270D01*
X168249600Y-81610153D01*
X160421110Y-73781663D01*
X161709931Y-73781663D01*
X161858493Y-74141212D01*
X162133341Y-74416540D01*
X162492630Y-74565730D01*
X162881663Y-74566069D01*
X163106908Y-74473000D01*
X169303000Y-74473000D01*
X169303000Y-75669312D01*
X169210270Y-75892630D01*
X169209931Y-76281663D01*
X169358493Y-76641212D01*
X169633341Y-76916540D01*
X169992630Y-77065730D01*
X170381663Y-77066069D01*
X170606908Y-76973000D01*
X176821420Y-76973000D01*
X180266154Y-80417733D01*
X180303000Y-80506908D01*
X180303000Y-85721421D01*
X178858266Y-87166154D01*
X178634788Y-87258493D01*
X178359460Y-87533341D01*
X178210270Y-87892630D01*
X178209931Y-88281663D01*
X178358493Y-88641212D01*
X178633341Y-88916540D01*
X178992630Y-89065730D01*
X179381663Y-89066069D01*
X179741212Y-88917507D01*
X180016540Y-88642659D01*
X180110002Y-88417578D01*
X181813787Y-86713792D01*
X181813790Y-86713790D01*
X182005633Y-86426675D01*
X182009159Y-86408949D01*
X182073001Y-86088000D01*
X182073000Y-86087995D01*
X182073000Y-80506688D01*
X182165730Y-80283370D01*
X182166069Y-79894337D01*
X182017507Y-79534788D01*
X181742659Y-79259460D01*
X181517577Y-79165998D01*
X177813790Y-75462210D01*
X177746887Y-75417507D01*
X177526675Y-75270367D01*
X177466981Y-75258493D01*
X177188000Y-75202999D01*
X177187995Y-75203000D01*
X171073000Y-75203000D01*
X171073000Y-74006688D01*
X171165730Y-73783370D01*
X171166069Y-73394337D01*
X171017507Y-73034788D01*
X170742659Y-72759460D01*
X170383370Y-72610270D01*
X169994337Y-72609931D01*
X169769092Y-72703000D01*
X163106688Y-72703000D01*
X162883370Y-72610270D01*
X162494337Y-72609931D01*
X162134788Y-72758493D01*
X161859460Y-73033341D01*
X161710270Y-73392630D01*
X161709931Y-73781663D01*
X160421110Y-73781663D01*
X159923000Y-73283554D01*
X159923000Y-70236036D01*
X160016540Y-70142659D01*
X160165730Y-69783370D01*
X160166069Y-69394337D01*
X160017507Y-69034788D01*
X159742659Y-68759460D01*
X159383370Y-68610270D01*
X158994337Y-68609931D01*
X158634788Y-68758493D01*
X158359460Y-69033341D01*
X158210270Y-69392630D01*
X158209931Y-69781663D01*
X158358493Y-70141212D01*
X158453000Y-70235884D01*
X158453000Y-72813554D01*
X157423000Y-71783554D01*
X157423000Y-71236036D01*
X157516540Y-71142659D01*
X157665730Y-70783370D01*
X157666069Y-70394337D01*
X157517507Y-70034788D01*
X157242659Y-69759460D01*
X156883370Y-69610270D01*
X156494337Y-69609931D01*
X156134788Y-69758493D01*
X155859460Y-70033341D01*
X155710270Y-70392630D01*
X155709931Y-70781663D01*
X155858493Y-71141212D01*
X155953000Y-71235884D01*
X155953000Y-72088000D01*
X156008949Y-72369272D01*
X156168277Y-72607723D01*
X157413554Y-73853000D01*
X156806952Y-73853000D01*
X156525680Y-73908949D01*
X156445421Y-73962576D01*
X156242659Y-73759460D01*
X155883370Y-73610270D01*
X155494337Y-73609931D01*
X155134788Y-73758493D01*
X155040116Y-73853000D01*
X145336036Y-73853000D01*
X145242659Y-73759460D01*
X144883370Y-73610270D01*
X144494337Y-73609931D01*
X144134788Y-73758493D01*
X143859460Y-74033341D01*
X143710270Y-74392630D01*
X143709931Y-74781663D01*
X143858493Y-75141212D01*
X144031590Y-75314611D01*
X143817697Y-75402990D01*
X143424371Y-75795630D01*
X143338051Y-76003512D01*
X143253010Y-75797697D01*
X142860370Y-75404371D01*
X142347100Y-75191243D01*
X141791339Y-75190758D01*
X141277697Y-75402990D01*
X140977163Y-75703000D01*
X138824579Y-75703000D01*
X137379846Y-74258266D01*
X137287507Y-74034788D01*
X137012659Y-73759460D01*
X136653370Y-73610270D01*
X136264337Y-73609931D01*
X135904788Y-73758493D01*
X135629460Y-74033341D01*
X135480270Y-74392630D01*
X135479931Y-74781663D01*
X135628493Y-75141212D01*
X135903341Y-75416540D01*
X136128422Y-75510002D01*
X137832208Y-77213787D01*
X137832210Y-77213790D01*
X138078423Y-77378303D01*
X138119325Y-77405633D01*
X138458000Y-77473001D01*
X138458005Y-77473000D01*
X140977522Y-77473000D01*
X141235072Y-77731000D01*
X141179690Y-77731000D01*
X140946301Y-77827673D01*
X140767673Y-78006302D01*
X140671000Y-78239691D01*
X140671000Y-78842250D01*
X140829750Y-79001000D01*
X141941000Y-79001000D01*
X141941000Y-78981000D01*
X142195000Y-78981000D01*
X142195000Y-79001000D01*
X142215000Y-79001000D01*
X142215000Y-79255000D01*
X142195000Y-79255000D01*
X142195000Y-79275000D01*
X141941000Y-79275000D01*
X141941000Y-79255000D01*
X140829750Y-79255000D01*
X140671000Y-79413750D01*
X140671000Y-80016309D01*
X140767673Y-80249698D01*
X140775673Y-80257698D01*
X124397145Y-80257698D01*
X121665954Y-77526508D01*
X121666069Y-77394337D01*
X121517507Y-77034788D01*
X121242659Y-76759460D01*
X120883370Y-76610270D01*
X120494337Y-76609931D01*
X120134788Y-76758493D01*
X119859460Y-77033341D01*
X119710270Y-77392630D01*
X119709931Y-77781663D01*
X107898000Y-77781663D01*
X107898000Y-72811795D01*
X109552716Y-72811795D01*
X109801106Y-73412943D01*
X110260637Y-73873278D01*
X110861352Y-74122716D01*
X111511795Y-74123284D01*
X112112943Y-73874894D01*
X112573278Y-73415363D01*
X112822716Y-72814648D01*
X112823284Y-72164205D01*
X112574894Y-71563057D01*
X112115363Y-71102722D01*
X111514648Y-70853284D01*
X110864205Y-70852716D01*
X110263057Y-71101106D01*
X109802722Y-71560637D01*
X109553284Y-72161352D01*
X109552716Y-72811795D01*
X107898000Y-72811795D01*
X107898000Y-65238000D01*
X122190560Y-65238000D01*
X122190560Y-66938000D01*
X122234838Y-67173317D01*
X122373910Y-67389441D01*
X122586110Y-67534431D01*
X122838000Y-67585440D01*
X124538000Y-67585440D01*
X124773317Y-67541162D01*
X124989441Y-67402090D01*
X125134431Y-67189890D01*
X125148086Y-67122459D01*
X125177946Y-67167147D01*
X125659715Y-67489054D01*
X126228000Y-67602093D01*
X126796285Y-67489054D01*
X127278054Y-67167147D01*
X127599961Y-66685378D01*
X127713000Y-66117093D01*
X127713000Y-66058907D01*
X127605588Y-65518907D01*
X175083000Y-65518907D01*
X175083000Y-65577093D01*
X175196039Y-66145378D01*
X175517946Y-66627147D01*
X175803578Y-66818000D01*
X175517946Y-67008853D01*
X175196039Y-67490622D01*
X175083000Y-68058907D01*
X175083000Y-68117093D01*
X175196039Y-68685378D01*
X175517946Y-69167147D01*
X175999715Y-69489054D01*
X176568000Y-69602093D01*
X177136285Y-69489054D01*
X177618054Y-69167147D01*
X177838000Y-68837974D01*
X178057946Y-69167147D01*
X178539715Y-69489054D01*
X179108000Y-69602093D01*
X179676285Y-69489054D01*
X180158054Y-69167147D01*
X180378000Y-68837974D01*
X180597946Y-69167147D01*
X181079715Y-69489054D01*
X181648000Y-69602093D01*
X182216285Y-69489054D01*
X182698054Y-69167147D01*
X182725850Y-69125548D01*
X182734838Y-69173317D01*
X182873910Y-69389441D01*
X183086110Y-69534431D01*
X183338000Y-69585440D01*
X185038000Y-69585440D01*
X185273317Y-69541162D01*
X185489441Y-69402090D01*
X185634431Y-69189890D01*
X185685440Y-68938000D01*
X185685440Y-67238000D01*
X185641162Y-67002683D01*
X185502090Y-66786559D01*
X185289890Y-66641569D01*
X185233546Y-66630159D01*
X185238054Y-66627147D01*
X185559961Y-66145378D01*
X185673000Y-65577093D01*
X185673000Y-65518907D01*
X185559961Y-64950622D01*
X185238054Y-64468853D01*
X184756285Y-64146946D01*
X184188000Y-64033907D01*
X183619715Y-64146946D01*
X183137946Y-64468853D01*
X182918000Y-64798026D01*
X182698054Y-64468853D01*
X182216285Y-64146946D01*
X181648000Y-64033907D01*
X181079715Y-64146946D01*
X180597946Y-64468853D01*
X180378000Y-64798026D01*
X180158054Y-64468853D01*
X179676285Y-64146946D01*
X179108000Y-64033907D01*
X178539715Y-64146946D01*
X178057946Y-64468853D01*
X177838000Y-64798026D01*
X177618054Y-64468853D01*
X177136285Y-64146946D01*
X176568000Y-64033907D01*
X175999715Y-64146946D01*
X175517946Y-64468853D01*
X175196039Y-64950622D01*
X175083000Y-65518907D01*
X127605588Y-65518907D01*
X127599961Y-65490622D01*
X127278054Y-65008853D01*
X126796285Y-64686946D01*
X126228000Y-64573907D01*
X125659715Y-64686946D01*
X125177946Y-65008853D01*
X125150150Y-65050452D01*
X125141162Y-65002683D01*
X125002090Y-64786559D01*
X124789890Y-64641569D01*
X124538000Y-64590560D01*
X122838000Y-64590560D01*
X122602683Y-64634838D01*
X122386559Y-64773910D01*
X122241569Y-64986110D01*
X122190560Y-65238000D01*
X107898000Y-65238000D01*
X107898000Y-62410196D01*
X173795409Y-62410196D01*
X173880467Y-62665539D01*
X174449965Y-62873516D01*
X175055700Y-62847723D01*
X175495533Y-62665539D01*
X175580591Y-62410196D01*
X174688000Y-61517605D01*
X173795409Y-62410196D01*
X107898000Y-62410196D01*
X107898000Y-59715265D01*
X108632670Y-59715265D01*
X108922078Y-60415686D01*
X109457495Y-60952039D01*
X110157410Y-61242668D01*
X110915265Y-61243330D01*
X111615686Y-60953922D01*
X112152039Y-60418505D01*
X112442668Y-59718590D01*
X112442670Y-59715265D01*
X121932670Y-59715265D01*
X122222078Y-60415686D01*
X122757495Y-60952039D01*
X123457410Y-61242668D01*
X124215265Y-61243330D01*
X124915686Y-60953922D01*
X125452039Y-60418505D01*
X125716477Y-59781663D01*
X147209931Y-59781663D01*
X147358493Y-60141212D01*
X147633341Y-60416540D01*
X147992630Y-60565730D01*
X148381663Y-60566069D01*
X148741212Y-60417507D01*
X149016540Y-60142659D01*
X149165730Y-59783370D01*
X149165789Y-59715265D01*
X168632670Y-59715265D01*
X168922078Y-60415686D01*
X169457495Y-60952039D01*
X170157410Y-61242668D01*
X170915265Y-61243330D01*
X171262234Y-61099965D01*
X173152484Y-61099965D01*
X173178277Y-61705700D01*
X173360461Y-62145533D01*
X173615804Y-62230591D01*
X174508395Y-61338000D01*
X173615804Y-60445409D01*
X173360461Y-60530467D01*
X173152484Y-61099965D01*
X171262234Y-61099965D01*
X171615686Y-60953922D01*
X172152039Y-60418505D01*
X172215445Y-60265804D01*
X173795409Y-60265804D01*
X174688000Y-61158395D01*
X175580591Y-60265804D01*
X175495533Y-60010461D01*
X174926035Y-59802484D01*
X174320300Y-59828277D01*
X173880467Y-60010461D01*
X173795409Y-60265804D01*
X172215445Y-60265804D01*
X172442668Y-59718590D01*
X172443330Y-58960735D01*
X172153922Y-58260314D01*
X171618505Y-57723961D01*
X170918590Y-57433332D01*
X170160735Y-57432670D01*
X169460314Y-57722078D01*
X168923961Y-58257495D01*
X168633332Y-58957410D01*
X168632670Y-59715265D01*
X149165789Y-59715265D01*
X149165847Y-59649600D01*
X149451207Y-59364240D01*
X150488000Y-59364240D01*
X150723317Y-59319962D01*
X150939441Y-59180890D01*
X151084431Y-58968690D01*
X151135440Y-58716800D01*
X151135440Y-57716800D01*
X151091162Y-57481483D01*
X150952090Y-57265359D01*
X150739890Y-57120369D01*
X150488000Y-57069360D01*
X148888000Y-57069360D01*
X148652683Y-57113638D01*
X148436559Y-57252710D01*
X148291569Y-57464910D01*
X148240560Y-57716800D01*
X148240560Y-58495994D01*
X148126507Y-58610046D01*
X147994337Y-58609931D01*
X147634788Y-58758493D01*
X147359460Y-59033341D01*
X147210270Y-59392630D01*
X147209931Y-59781663D01*
X125716477Y-59781663D01*
X125742668Y-59718590D01*
X125743330Y-58960735D01*
X125453922Y-58260314D01*
X124918505Y-57723961D01*
X124218590Y-57433332D01*
X123460735Y-57432670D01*
X122760314Y-57722078D01*
X122223961Y-58257495D01*
X121933332Y-58957410D01*
X121932670Y-59715265D01*
X112442670Y-59715265D01*
X112443330Y-58960735D01*
X112153922Y-58260314D01*
X111618505Y-57723961D01*
X110918590Y-57433332D01*
X110160735Y-57432670D01*
X109460314Y-57722078D01*
X108923961Y-58257495D01*
X108633332Y-58957410D01*
X108632670Y-59715265D01*
X107898000Y-59715265D01*
X107898000Y-51869736D01*
X125413736Y-51869736D01*
X125645262Y-52430073D01*
X126042775Y-52828280D01*
X125646769Y-53223596D01*
X125414265Y-53783528D01*
X125413736Y-54389812D01*
X125645262Y-54950149D01*
X126073596Y-55379231D01*
X126633528Y-55611735D01*
X127239812Y-55612264D01*
X127800149Y-55380738D01*
X128208599Y-54973000D01*
X135821420Y-54973000D01*
X137737985Y-56889564D01*
X137745367Y-56926675D01*
X137937210Y-57213790D01*
X138415560Y-57692140D01*
X138415560Y-58088000D01*
X138459838Y-58323317D01*
X138598910Y-58539441D01*
X138811110Y-58684431D01*
X139063000Y-58735440D01*
X139583861Y-58735440D01*
X139691008Y-58842587D01*
X139691010Y-58842590D01*
X139978125Y-59034433D01*
X140316800Y-59101800D01*
X143381156Y-59101800D01*
X143423910Y-59168241D01*
X143636110Y-59313231D01*
X143888000Y-59364240D01*
X145488000Y-59364240D01*
X145723317Y-59319962D01*
X145939441Y-59180890D01*
X145994342Y-59100539D01*
X146270484Y-59045610D01*
X146326675Y-59034433D01*
X146613790Y-58842590D01*
X146613791Y-58842589D01*
X148652178Y-56804201D01*
X160188111Y-56804201D01*
X160411429Y-56896931D01*
X160800462Y-56897270D01*
X161160011Y-56748708D01*
X161435339Y-56473860D01*
X161528801Y-56248779D01*
X162617383Y-55160196D01*
X166545409Y-55160196D01*
X166630467Y-55415539D01*
X167199965Y-55623516D01*
X167805700Y-55597723D01*
X168245533Y-55415539D01*
X168330591Y-55160196D01*
X167438000Y-54267605D01*
X166545409Y-55160196D01*
X162617383Y-55160196D01*
X163927614Y-53849965D01*
X165902484Y-53849965D01*
X165928277Y-54455700D01*
X166110461Y-54895533D01*
X166365804Y-54980591D01*
X167258395Y-54088000D01*
X167617605Y-54088000D01*
X168510196Y-54980591D01*
X168765539Y-54895533D01*
X168973516Y-54326035D01*
X168947723Y-53720300D01*
X168765539Y-53280467D01*
X168510196Y-53195409D01*
X167617605Y-54088000D01*
X167258395Y-54088000D01*
X166365804Y-53195409D01*
X166110461Y-53280467D01*
X165902484Y-53849965D01*
X163927614Y-53849965D01*
X165913776Y-51863803D01*
X165913736Y-51909888D01*
X166145262Y-52470225D01*
X166573596Y-52899307D01*
X166582925Y-52903181D01*
X166545409Y-53015804D01*
X167438000Y-53908395D01*
X168330591Y-53015804D01*
X168293238Y-52903670D01*
X168300149Y-52900814D01*
X168729231Y-52472480D01*
X168961735Y-51912548D01*
X168961778Y-51863358D01*
X176912180Y-59813759D01*
X176886188Y-59813736D01*
X176325851Y-60045262D01*
X175896769Y-60473596D01*
X175890456Y-60488800D01*
X175760196Y-60445409D01*
X174867605Y-61338000D01*
X175760196Y-62230591D01*
X175889977Y-62187359D01*
X175895262Y-62200149D01*
X176323596Y-62629231D01*
X176883528Y-62861735D01*
X177489812Y-62862264D01*
X178050149Y-62630738D01*
X178438301Y-62243263D01*
X178823596Y-62629231D01*
X179383528Y-62861735D01*
X179989812Y-62862264D01*
X180550149Y-62630738D01*
X180979231Y-62202404D01*
X181211735Y-61642472D01*
X181212264Y-61036188D01*
X180980738Y-60475851D01*
X180552404Y-60046769D01*
X179992472Y-59814265D01*
X179415341Y-59813761D01*
X179316845Y-59715265D01*
X181932670Y-59715265D01*
X182222078Y-60415686D01*
X182757495Y-60952039D01*
X183457410Y-61242668D01*
X184215265Y-61243330D01*
X184915686Y-60953922D01*
X185452039Y-60418505D01*
X185742668Y-59718590D01*
X185743330Y-58960735D01*
X185453922Y-58260314D01*
X184918505Y-57723961D01*
X184218590Y-57433332D01*
X183460735Y-57432670D01*
X182760314Y-57722078D01*
X182223961Y-58257495D01*
X181933332Y-58957410D01*
X181932670Y-59715265D01*
X179316845Y-59715265D01*
X168961763Y-49360183D01*
X168962264Y-48786188D01*
X168730738Y-48225851D01*
X168302404Y-47796769D01*
X167742472Y-47564265D01*
X167136188Y-47563736D01*
X166575851Y-47795262D01*
X166146769Y-48223596D01*
X165914265Y-48783528D01*
X165913761Y-49360660D01*
X160277065Y-54997355D01*
X160187891Y-55034201D01*
X148285604Y-55034201D01*
X148285599Y-55034200D01*
X148006618Y-55089694D01*
X147946924Y-55101568D01*
X147659809Y-55293411D01*
X147659807Y-55293414D01*
X145795117Y-57158104D01*
X145739890Y-57120369D01*
X145488000Y-57069360D01*
X143888000Y-57069360D01*
X143652683Y-57113638D01*
X143436559Y-57252710D01*
X143382519Y-57331800D01*
X140960440Y-57331800D01*
X140960440Y-57088000D01*
X140916162Y-56852683D01*
X140777090Y-56636559D01*
X140708994Y-56590031D01*
X140851327Y-56447698D01*
X140948000Y-56214309D01*
X140948000Y-55873750D01*
X140789250Y-55715000D01*
X139815000Y-55715000D01*
X139815000Y-55735000D01*
X139561000Y-55735000D01*
X139561000Y-55715000D01*
X139541000Y-55715000D01*
X139541000Y-55461000D01*
X139561000Y-55461000D01*
X139561000Y-54611750D01*
X139815000Y-54611750D01*
X139815000Y-55461000D01*
X140789250Y-55461000D01*
X140948000Y-55302250D01*
X140948000Y-54961691D01*
X140851327Y-54728302D01*
X140672699Y-54549673D01*
X140593337Y-54516800D01*
X143240560Y-54516800D01*
X143240560Y-55516800D01*
X143284838Y-55752117D01*
X143423910Y-55968241D01*
X143636110Y-56113231D01*
X143888000Y-56164240D01*
X145488000Y-56164240D01*
X145723317Y-56119962D01*
X145939441Y-55980890D01*
X146084431Y-55768690D01*
X146135440Y-55516800D01*
X146135440Y-54516800D01*
X146111674Y-54390490D01*
X148253000Y-54390490D01*
X148253000Y-54731050D01*
X148411750Y-54889800D01*
X149561000Y-54889800D01*
X149561000Y-54040550D01*
X149815000Y-54040550D01*
X149815000Y-54889800D01*
X150964250Y-54889800D01*
X151123000Y-54731050D01*
X151123000Y-54390490D01*
X151026327Y-54157101D01*
X150847698Y-53978473D01*
X150614309Y-53881800D01*
X149973750Y-53881800D01*
X149815000Y-54040550D01*
X149561000Y-54040550D01*
X149402250Y-53881800D01*
X148761691Y-53881800D01*
X148528302Y-53978473D01*
X148349673Y-54157101D01*
X148253000Y-54390490D01*
X146111674Y-54390490D01*
X146091162Y-54281483D01*
X145952090Y-54065359D01*
X145739890Y-53920369D01*
X145488000Y-53869360D01*
X143888000Y-53869360D01*
X143652683Y-53913638D01*
X143436559Y-54052710D01*
X143291569Y-54264910D01*
X143240560Y-54516800D01*
X140593337Y-54516800D01*
X140439310Y-54453000D01*
X139973750Y-54453000D01*
X139815000Y-54611750D01*
X139561000Y-54611750D01*
X139402250Y-54453000D01*
X138936690Y-54453000D01*
X138703301Y-54549673D01*
X138524673Y-54728302D01*
X138428000Y-54961691D01*
X138428000Y-55076421D01*
X136813790Y-53462210D01*
X136526675Y-53270367D01*
X136470484Y-53259190D01*
X136188000Y-53202999D01*
X136187995Y-53203000D01*
X128207927Y-53203000D01*
X127833225Y-52827644D01*
X128229231Y-52432328D01*
X128461735Y-51872396D01*
X128462264Y-51266112D01*
X128230738Y-50705775D01*
X127802404Y-50276693D01*
X127793075Y-50272819D01*
X127830591Y-50160196D01*
X126938000Y-49267605D01*
X126045409Y-50160196D01*
X126082762Y-50272330D01*
X126075851Y-50275186D01*
X125646769Y-50703520D01*
X125414265Y-51263452D01*
X125413736Y-51869736D01*
X107898000Y-51869736D01*
X107898000Y-48849965D01*
X125402484Y-48849965D01*
X125428277Y-49455700D01*
X125610461Y-49895533D01*
X125865804Y-49980591D01*
X126758395Y-49088000D01*
X127117605Y-49088000D01*
X128010196Y-49980591D01*
X128265539Y-49895533D01*
X128473516Y-49326035D01*
X128447723Y-48720300D01*
X128265539Y-48280467D01*
X128010196Y-48195409D01*
X127117605Y-49088000D01*
X126758395Y-49088000D01*
X125865804Y-48195409D01*
X125610461Y-48280467D01*
X125402484Y-48849965D01*
X107898000Y-48849965D01*
X107898000Y-48015804D01*
X126045409Y-48015804D01*
X126938000Y-48908395D01*
X127830591Y-48015804D01*
X127745533Y-47760461D01*
X127176035Y-47552484D01*
X126570300Y-47578277D01*
X126130467Y-47760461D01*
X126045409Y-48015804D01*
X107898000Y-48015804D01*
X107898000Y-44215265D01*
X108632670Y-44215265D01*
X108922078Y-44915686D01*
X109457495Y-45452039D01*
X110157410Y-45742668D01*
X110915265Y-45743330D01*
X111615686Y-45453922D01*
X112152039Y-44918505D01*
X112442668Y-44218590D01*
X112442670Y-44215265D01*
X121932670Y-44215265D01*
X122222078Y-44915686D01*
X122757495Y-45452039D01*
X123457410Y-45742668D01*
X124215265Y-45743330D01*
X124915686Y-45453922D01*
X125452039Y-44918505D01*
X125742668Y-44218590D01*
X125743330Y-43460735D01*
X125453922Y-42760314D01*
X124918505Y-42223961D01*
X124218590Y-41933332D01*
X123460735Y-41932670D01*
X122760314Y-42222078D01*
X122223961Y-42757495D01*
X121933332Y-43457410D01*
X121932670Y-44215265D01*
X112442670Y-44215265D01*
X112443330Y-43460735D01*
X112153922Y-42760314D01*
X111618505Y-42223961D01*
X111415851Y-42139812D01*
X113163736Y-42139812D01*
X113395262Y-42700149D01*
X113823596Y-43129231D01*
X114383528Y-43361735D01*
X114989812Y-43362264D01*
X115550149Y-43130738D01*
X115938301Y-42743263D01*
X116323596Y-43129231D01*
X116883528Y-43361735D01*
X117489812Y-43362264D01*
X118050149Y-43130738D01*
X118271076Y-42910196D01*
X118795409Y-42910196D01*
X118880467Y-43165539D01*
X119449965Y-43373516D01*
X120055700Y-43347723D01*
X120495533Y-43165539D01*
X120580591Y-42910196D01*
X119688000Y-42017605D01*
X118795409Y-42910196D01*
X118271076Y-42910196D01*
X118479231Y-42702404D01*
X118485544Y-42687200D01*
X118615804Y-42730591D01*
X119508395Y-41838000D01*
X119867605Y-41838000D01*
X120760196Y-42730591D01*
X121015539Y-42645533D01*
X121223516Y-42076035D01*
X121214903Y-41873750D01*
X143251000Y-41873750D01*
X143251000Y-43746310D01*
X143347673Y-43979699D01*
X143526302Y-44158327D01*
X143759691Y-44255000D01*
X144362250Y-44255000D01*
X144521000Y-44096250D01*
X144521000Y-41715000D01*
X144775000Y-41715000D01*
X144775000Y-44096250D01*
X144933750Y-44255000D01*
X145536309Y-44255000D01*
X145769698Y-44158327D01*
X145948327Y-43979699D01*
X146045000Y-43746310D01*
X146045000Y-41873750D01*
X148331000Y-41873750D01*
X148331000Y-43746310D01*
X148427673Y-43979699D01*
X148606302Y-44158327D01*
X148839691Y-44255000D01*
X149442250Y-44255000D01*
X149601000Y-44096250D01*
X149601000Y-41715000D01*
X149855000Y-41715000D01*
X149855000Y-44096250D01*
X150013750Y-44255000D01*
X150616309Y-44255000D01*
X150712237Y-44215265D01*
X168632670Y-44215265D01*
X168922078Y-44915686D01*
X169457495Y-45452039D01*
X170157410Y-45742668D01*
X170915265Y-45743330D01*
X171615686Y-45453922D01*
X172152039Y-44918505D01*
X172442668Y-44218590D01*
X172442670Y-44215265D01*
X181932670Y-44215265D01*
X182222078Y-44915686D01*
X182757495Y-45452039D01*
X183457410Y-45742668D01*
X184215265Y-45743330D01*
X184915686Y-45453922D01*
X185452039Y-44918505D01*
X185742668Y-44218590D01*
X185743330Y-43460735D01*
X185453922Y-42760314D01*
X184918505Y-42223961D01*
X184218590Y-41933332D01*
X183460735Y-41932670D01*
X182760314Y-42222078D01*
X182223961Y-42757495D01*
X181933332Y-43457410D01*
X181932670Y-44215265D01*
X172442670Y-44215265D01*
X172443330Y-43460735D01*
X172153922Y-42760314D01*
X171618505Y-42223961D01*
X170918590Y-41933332D01*
X170160735Y-41932670D01*
X169460314Y-42222078D01*
X168923961Y-42757495D01*
X168633332Y-43457410D01*
X168632670Y-44215265D01*
X150712237Y-44215265D01*
X150849698Y-44158327D01*
X151028327Y-43979699D01*
X151125000Y-43746310D01*
X151125000Y-41873750D01*
X150966250Y-41715000D01*
X149855000Y-41715000D01*
X149601000Y-41715000D01*
X148489750Y-41715000D01*
X148331000Y-41873750D01*
X146045000Y-41873750D01*
X145886250Y-41715000D01*
X144775000Y-41715000D01*
X144521000Y-41715000D01*
X143409750Y-41715000D01*
X143251000Y-41873750D01*
X121214903Y-41873750D01*
X121197723Y-41470300D01*
X121015539Y-41030467D01*
X120760196Y-40945409D01*
X119867605Y-41838000D01*
X119508395Y-41838000D01*
X118615804Y-40945409D01*
X118486023Y-40988641D01*
X118480738Y-40975851D01*
X118271058Y-40765804D01*
X118795409Y-40765804D01*
X119688000Y-41658395D01*
X120580591Y-40765804D01*
X120495533Y-40510461D01*
X119926035Y-40302484D01*
X119320300Y-40328277D01*
X118880467Y-40510461D01*
X118795409Y-40765804D01*
X118271058Y-40765804D01*
X118052404Y-40546769D01*
X117492472Y-40314265D01*
X116886188Y-40313736D01*
X116325851Y-40545262D01*
X115937699Y-40932737D01*
X115552404Y-40546769D01*
X114992472Y-40314265D01*
X114386188Y-40313736D01*
X113825851Y-40545262D01*
X113396769Y-40973596D01*
X113164265Y-41533528D01*
X113163736Y-42139812D01*
X111415851Y-42139812D01*
X110918590Y-41933332D01*
X110160735Y-41932670D01*
X109460314Y-42222078D01*
X108923961Y-42757495D01*
X108633332Y-43457410D01*
X108632670Y-44215265D01*
X107898000Y-44215265D01*
X107898000Y-44157931D01*
X108237408Y-42451610D01*
X109164349Y-41064346D01*
X110551610Y-40137408D01*
X112257931Y-39798000D01*
X143251000Y-39798000D01*
X143251000Y-41302250D01*
G36*
X162315000Y-94188000D02*
X162335000Y-94188000D01*
X162335000Y-94388000D01*
X162315000Y-94388000D01*
X162315000Y-94988000D01*
X162335000Y-94988000D01*
X162335000Y-95188000D01*
X162315000Y-95188000D01*
X162315000Y-95235000D01*
X162061000Y-95235000D01*
X162061000Y-95188000D01*
X162041000Y-95188000D01*
X162041000Y-94988000D01*
X162061000Y-94988000D01*
X162061000Y-94388000D01*
X162041000Y-94388000D01*
X162041000Y-94188000D01*
X162061000Y-94188000D01*
X162061000Y-94141000D01*
X162315000Y-94141000D01*
X162315000Y-94188000D01*
X162315000Y-94188000D01*
G37*
X162315000Y-94188000D02*
X162335000Y-94188000D01*
X162335000Y-94388000D01*
X162315000Y-94388000D01*
X162315000Y-94988000D01*
X162335000Y-94988000D01*
X162335000Y-95188000D01*
X162315000Y-95188000D01*
X162315000Y-95235000D01*
X162061000Y-95235000D01*
X162061000Y-95188000D01*
X162041000Y-95188000D01*
X162041000Y-94988000D01*
X162061000Y-94988000D01*
X162061000Y-94388000D01*
X162041000Y-94388000D01*
X162041000Y-94188000D01*
X162061000Y-94188000D01*
X162061000Y-94141000D01*
X162315000Y-94141000D01*
X162315000Y-94188000D01*
G36*
X161413554Y-77853000D02*
X159836036Y-77853000D01*
X159742659Y-77759460D01*
X159383370Y-77610270D01*
X158994337Y-77609931D01*
X158923000Y-77639407D01*
X158923000Y-76236036D01*
X159016540Y-76142659D01*
X159165730Y-75783370D01*
X159165885Y-75605331D01*
X161413554Y-77853000D01*
X161413554Y-77853000D01*
G37*
X161413554Y-77853000D02*
X159836036Y-77853000D01*
X159742659Y-77759460D01*
X159383370Y-77610270D01*
X158994337Y-77609931D01*
X158923000Y-77639407D01*
X158923000Y-76236036D01*
X159016540Y-76142659D01*
X159165730Y-75783370D01*
X159165885Y-75605331D01*
X161413554Y-77853000D01*
M02*
