G04 #@! TF.FileFunction,Legend,Bot*
%FSLAX46Y46*%
G04 Gerber Fmt 4.6, Leading zero omitted, Abs format (unit mm)*
G04 Created by KiCad (PCBNEW 4.0.7-e2-6376~60~ubuntu17.10.1) date Mon Apr 23 00:33:59 2018*
%MOMM*%
%LPD*%
G01*
G04 APERTURE LIST*
%ADD10C,0.100000*%
%ADD11C,0.381000*%
%ADD12C,0.150000*%
%ADD13C,0.120000*%
%ADD14C,0.304800*%
G04 APERTURE END LIST*
D10*
D11*
X151450040Y-35699700D02*
X143951960Y-35699700D01*
X143951960Y-36449000D02*
X151450040Y-36449000D01*
X151450040Y-37200840D02*
X143951960Y-37200840D01*
X143951960Y-38699440D02*
X151450040Y-38699440D01*
X151450040Y-37950140D02*
X143951960Y-37950140D01*
X144200880Y-34950400D02*
X151201120Y-34950400D01*
X151201120Y-34950400D02*
X151201120Y-35450780D01*
X143700500Y-41450260D02*
X143700500Y-41950640D01*
X151701500Y-41450260D02*
X151701500Y-41950640D01*
X151701500Y-41699180D02*
X143700500Y-41699180D01*
X143700500Y-41450260D02*
X151701500Y-41450260D01*
X149699980Y-41950640D02*
X149699980Y-45951140D01*
X149699980Y-45951140D02*
X150700740Y-45951140D01*
X150700740Y-45951140D02*
X150700740Y-41950640D01*
X147200620Y-41950640D02*
X147200620Y-45951140D01*
X147200620Y-45951140D02*
X148201380Y-45951140D01*
X148201380Y-45951140D02*
X148201380Y-41950640D01*
X144701260Y-41950640D02*
X144701260Y-45951140D01*
X144701260Y-45951140D02*
X145702020Y-45951140D01*
X145702020Y-45951140D02*
X145702020Y-41950640D01*
X144200880Y-34950400D02*
X144200880Y-41950640D01*
X143700500Y-41950640D02*
X151701500Y-41950640D01*
X151201120Y-41950640D02*
X151201120Y-35450780D01*
D12*
X182585000Y-89300000D02*
X176585000Y-89300000D01*
X182585000Y-95300000D02*
X182585000Y-89300000D01*
X176585000Y-95300000D02*
X182585000Y-95300000D01*
X176585000Y-89300000D02*
X176585000Y-95300000D01*
X184701000Y-98170000D02*
X184701000Y-105070000D01*
X179301000Y-105070000D02*
X184701000Y-105070000D01*
X179301000Y-98170000D02*
X184701000Y-98170000D01*
X179301000Y-98170000D02*
X179301000Y-105070000D01*
X126365000Y-88900000D02*
X184785000Y-88900000D01*
X126365000Y-114300000D02*
X126365000Y-88900000D01*
X184785000Y-114300000D02*
X126365000Y-114300000D01*
X184785000Y-88900000D02*
X184785000Y-114300000D01*
X184785000Y-88900000D02*
X184785000Y-114300000D01*
X168915000Y-73490000D02*
X168940000Y-73490000D01*
X168915000Y-77640000D02*
X169020000Y-77640000D01*
X179065000Y-77640000D02*
X178960000Y-77640000D01*
X179065000Y-73490000D02*
X178960000Y-73490000D01*
X168915000Y-73490000D02*
X168915000Y-77640000D01*
X179065000Y-73490000D02*
X179065000Y-77640000D01*
X168940000Y-73490000D02*
X168940000Y-72115000D01*
D13*
X168410000Y-80430000D02*
X169410000Y-80430000D01*
X169410000Y-82130000D02*
X168410000Y-82130000D01*
X168410000Y-82335000D02*
X169410000Y-82335000D01*
X169410000Y-84035000D02*
X168410000Y-84035000D01*
D12*
X130185000Y-76500000D02*
X164185000Y-76500000D01*
X130185000Y-50500000D02*
X130185000Y-76500000D01*
X164185000Y-50500000D02*
X130185000Y-50500000D01*
X164185000Y-76500000D02*
X164185000Y-50500000D01*
D13*
X124714000Y-82804000D02*
X124714000Y-77470000D01*
X124714000Y-77470000D02*
X114046000Y-77470000D01*
X114046000Y-77470000D02*
X114046000Y-82804000D01*
X114046000Y-82804000D02*
X114046000Y-82804000D01*
X124206000Y-80264000D02*
X121920000Y-80264000D01*
X121920000Y-80264000D02*
X121920000Y-82550000D01*
X121920000Y-82550000D02*
X121920000Y-82550000D01*
X125290000Y-83134000D02*
X125290000Y-53934000D01*
X125290000Y-53934000D02*
X109840000Y-53934000D01*
X109840000Y-53934000D02*
X109840000Y-83134000D01*
X109840000Y-83134000D02*
X125290000Y-83134000D01*
X125290000Y-83134000D02*
X125290000Y-83134000D01*
X114046000Y-82804000D02*
X124714000Y-82804000D01*
X124714000Y-82804000D02*
X124714000Y-82804000D01*
D14*
X153889000Y-45055429D02*
X153889000Y-46144000D01*
X153961572Y-46361714D01*
X154106715Y-46506857D01*
X154324429Y-46579429D01*
X154469572Y-46579429D01*
X152365000Y-46579429D02*
X153235857Y-46579429D01*
X152800429Y-46579429D02*
X152800429Y-45055429D01*
X152945572Y-45273143D01*
X153090714Y-45418286D01*
X153235857Y-45490857D01*
D12*
X127087381Y-93218095D02*
X127896905Y-93218095D01*
X127992143Y-93265714D01*
X128039762Y-93313333D01*
X128087381Y-93408571D01*
X128087381Y-93599048D01*
X128039762Y-93694286D01*
X127992143Y-93741905D01*
X127896905Y-93789524D01*
X127087381Y-93789524D01*
X127087381Y-94170476D02*
X127087381Y-94789524D01*
X127468333Y-94456190D01*
X127468333Y-94599048D01*
X127515952Y-94694286D01*
X127563571Y-94741905D01*
X127658810Y-94789524D01*
X127896905Y-94789524D01*
X127992143Y-94741905D01*
X128039762Y-94694286D01*
X128087381Y-94599048D01*
X128087381Y-94313333D01*
X128039762Y-94218095D01*
X127992143Y-94170476D01*
X180157381Y-90035334D02*
X180157381Y-89559143D01*
X179157381Y-89559143D01*
X180157381Y-90368667D02*
X179490714Y-90368667D01*
X179157381Y-90368667D02*
X179205000Y-90321048D01*
X179252619Y-90368667D01*
X179205000Y-90416286D01*
X179157381Y-90368667D01*
X179252619Y-90368667D01*
X179490714Y-90844857D02*
X180490714Y-90844857D01*
X179538333Y-90844857D02*
X179490714Y-90940095D01*
X179490714Y-91130572D01*
X179538333Y-91225810D01*
X179585952Y-91273429D01*
X179681190Y-91321048D01*
X179966905Y-91321048D01*
X180062143Y-91273429D01*
X180109762Y-91225810D01*
X180157381Y-91130572D01*
X180157381Y-90940095D01*
X180109762Y-90844857D01*
X180157381Y-91892476D02*
X180109762Y-91797238D01*
X180062143Y-91749619D01*
X179966905Y-91702000D01*
X179681190Y-91702000D01*
X179585952Y-91749619D01*
X179538333Y-91797238D01*
X179490714Y-91892476D01*
X179490714Y-92035334D01*
X179538333Y-92130572D01*
X179585952Y-92178191D01*
X179681190Y-92225810D01*
X179966905Y-92225810D01*
X180062143Y-92178191D01*
X180109762Y-92130572D01*
X180157381Y-92035334D01*
X180157381Y-91892476D01*
X180157381Y-93940096D02*
X180157381Y-93368667D01*
X180157381Y-93654381D02*
X179157381Y-93654381D01*
X179300238Y-93559143D01*
X179395476Y-93463905D01*
X179443095Y-93368667D01*
X180109762Y-94321048D02*
X180157381Y-94463905D01*
X180157381Y-94702001D01*
X180109762Y-94797239D01*
X180062143Y-94844858D01*
X179966905Y-94892477D01*
X179871667Y-94892477D01*
X179776429Y-94844858D01*
X179728810Y-94797239D01*
X179681190Y-94702001D01*
X179633571Y-94511524D01*
X179585952Y-94416286D01*
X179538333Y-94368667D01*
X179443095Y-94321048D01*
X179347857Y-94321048D01*
X179252619Y-94368667D01*
X179205000Y-94416286D01*
X179157381Y-94511524D01*
X179157381Y-94749620D01*
X179205000Y-94892477D01*
X181443381Y-100338095D02*
X182252905Y-100338095D01*
X182348143Y-100385714D01*
X182395762Y-100433333D01*
X182443381Y-100528571D01*
X182443381Y-100719048D01*
X182395762Y-100814286D01*
X182348143Y-100861905D01*
X182252905Y-100909524D01*
X181443381Y-100909524D01*
X182395762Y-101338095D02*
X182443381Y-101480952D01*
X182443381Y-101719048D01*
X182395762Y-101814286D01*
X182348143Y-101861905D01*
X182252905Y-101909524D01*
X182157667Y-101909524D01*
X182062429Y-101861905D01*
X182014810Y-101814286D01*
X181967190Y-101719048D01*
X181919571Y-101528571D01*
X181871952Y-101433333D01*
X181824333Y-101385714D01*
X181729095Y-101338095D01*
X181633857Y-101338095D01*
X181538619Y-101385714D01*
X181491000Y-101433333D01*
X181443381Y-101528571D01*
X181443381Y-101766667D01*
X181491000Y-101909524D01*
X181919571Y-102671429D02*
X181967190Y-102814286D01*
X182014810Y-102861905D01*
X182110048Y-102909524D01*
X182252905Y-102909524D01*
X182348143Y-102861905D01*
X182395762Y-102814286D01*
X182443381Y-102719048D01*
X182443381Y-102338095D01*
X181443381Y-102338095D01*
X181443381Y-102671429D01*
X181491000Y-102766667D01*
X181538619Y-102814286D01*
X181633857Y-102861905D01*
X181729095Y-102861905D01*
X181824333Y-102814286D01*
X181871952Y-102766667D01*
X181919571Y-102671429D01*
X181919571Y-102338095D01*
X174751905Y-74890381D02*
X174751905Y-75699905D01*
X174704286Y-75795143D01*
X174656667Y-75842762D01*
X174561429Y-75890381D01*
X174370952Y-75890381D01*
X174275714Y-75842762D01*
X174228095Y-75795143D01*
X174180476Y-75699905D01*
X174180476Y-74890381D01*
X173799524Y-74890381D02*
X173132857Y-74890381D01*
X173561429Y-75890381D01*
X172378666Y-81637143D02*
X172426285Y-81684762D01*
X172569142Y-81732381D01*
X172664380Y-81732381D01*
X172807238Y-81684762D01*
X172902476Y-81589524D01*
X172950095Y-81494286D01*
X172997714Y-81303810D01*
X172997714Y-81160952D01*
X172950095Y-80970476D01*
X172902476Y-80875238D01*
X172807238Y-80780000D01*
X172664380Y-80732381D01*
X172569142Y-80732381D01*
X172426285Y-80780000D01*
X172378666Y-80827619D01*
X171521523Y-81065714D02*
X171521523Y-81732381D01*
X171759619Y-80684762D02*
X171997714Y-81399048D01*
X171378666Y-81399048D01*
X172378666Y-83669143D02*
X172426285Y-83716762D01*
X172569142Y-83764381D01*
X172664380Y-83764381D01*
X172807238Y-83716762D01*
X172902476Y-83621524D01*
X172950095Y-83526286D01*
X172997714Y-83335810D01*
X172997714Y-83192952D01*
X172950095Y-83002476D01*
X172902476Y-82907238D01*
X172807238Y-82812000D01*
X172664380Y-82764381D01*
X172569142Y-82764381D01*
X172426285Y-82812000D01*
X172378666Y-82859619D01*
X171473904Y-82764381D02*
X171950095Y-82764381D01*
X171997714Y-83240571D01*
X171950095Y-83192952D01*
X171854857Y-83145333D01*
X171616761Y-83145333D01*
X171521523Y-83192952D01*
X171473904Y-83240571D01*
X171426285Y-83335810D01*
X171426285Y-83573905D01*
X171473904Y-83669143D01*
X171521523Y-83716762D01*
X171616761Y-83764381D01*
X171854857Y-83764381D01*
X171950095Y-83716762D01*
X171997714Y-83669143D01*
X159637381Y-65738095D02*
X160446905Y-65738095D01*
X160542143Y-65785714D01*
X160589762Y-65833333D01*
X160637381Y-65928571D01*
X160637381Y-66119048D01*
X160589762Y-66214286D01*
X160542143Y-66261905D01*
X160446905Y-66309524D01*
X159637381Y-66309524D01*
X159732619Y-66738095D02*
X159685000Y-66785714D01*
X159637381Y-66880952D01*
X159637381Y-67119048D01*
X159685000Y-67214286D01*
X159732619Y-67261905D01*
X159827857Y-67309524D01*
X159923095Y-67309524D01*
X160065952Y-67261905D01*
X160637381Y-66690476D01*
X160637381Y-67309524D01*
X134683381Y-69334381D02*
X133683381Y-69334381D01*
X134683381Y-69905810D01*
X133683381Y-69905810D01*
X134683381Y-70953429D02*
X134207190Y-70620095D01*
X134683381Y-70382000D02*
X133683381Y-70382000D01*
X133683381Y-70762953D01*
X133731000Y-70858191D01*
X133778619Y-70905810D01*
X133873857Y-70953429D01*
X134016714Y-70953429D01*
X134111952Y-70905810D01*
X134159571Y-70858191D01*
X134207190Y-70762953D01*
X134207190Y-70382000D01*
X134159571Y-71715334D02*
X134159571Y-71382000D01*
X134683381Y-71382000D02*
X133683381Y-71382000D01*
X133683381Y-71858191D01*
X134778619Y-72001048D02*
X134778619Y-72762953D01*
X134588143Y-73572477D02*
X134635762Y-73524858D01*
X134683381Y-73382001D01*
X134683381Y-73286763D01*
X134635762Y-73143905D01*
X134540524Y-73048667D01*
X134445286Y-73001048D01*
X134254810Y-72953429D01*
X134111952Y-72953429D01*
X133921476Y-73001048D01*
X133826238Y-73048667D01*
X133731000Y-73143905D01*
X133683381Y-73286763D01*
X133683381Y-73382001D01*
X133731000Y-73524858D01*
X133778619Y-73572477D01*
X134159571Y-74001048D02*
X134159571Y-74334382D01*
X134683381Y-74477239D02*
X134683381Y-74001048D01*
X133683381Y-74001048D01*
X133683381Y-74477239D01*
X147851667Y-52357143D02*
X147851667Y-52833334D01*
X148137381Y-52261905D02*
X147137381Y-52595238D01*
X148137381Y-52928572D01*
X148137381Y-53261905D02*
X147137381Y-53261905D01*
X148137381Y-53833334D01*
X147137381Y-53833334D01*
X147137381Y-54166667D02*
X147137381Y-54738096D01*
X148137381Y-54452381D02*
X147137381Y-54452381D01*
X145185000Y-52738096D02*
X145137381Y-52642858D01*
X145137381Y-52500001D01*
X145185000Y-52357143D01*
X145280238Y-52261905D01*
X145375476Y-52214286D01*
X145565952Y-52166667D01*
X145708810Y-52166667D01*
X145899286Y-52214286D01*
X145994524Y-52261905D01*
X146089762Y-52357143D01*
X146137381Y-52500001D01*
X146137381Y-52595239D01*
X146089762Y-52738096D01*
X146042143Y-52785715D01*
X145708810Y-52785715D01*
X145708810Y-52595239D01*
X146137381Y-53214286D02*
X145137381Y-53214286D01*
X146137381Y-53785715D01*
X145137381Y-53785715D01*
X146137381Y-54261905D02*
X145137381Y-54261905D01*
X145137381Y-54500000D01*
X145185000Y-54642858D01*
X145280238Y-54738096D01*
X145375476Y-54785715D01*
X145565952Y-54833334D01*
X145708810Y-54833334D01*
X145899286Y-54785715D01*
X145994524Y-54738096D01*
X146089762Y-54642858D01*
X146137381Y-54500000D01*
X146137381Y-54261905D01*
X149185000Y-52738096D02*
X149137381Y-52642858D01*
X149137381Y-52500001D01*
X149185000Y-52357143D01*
X149280238Y-52261905D01*
X149375476Y-52214286D01*
X149565952Y-52166667D01*
X149708810Y-52166667D01*
X149899286Y-52214286D01*
X149994524Y-52261905D01*
X150089762Y-52357143D01*
X150137381Y-52500001D01*
X150137381Y-52595239D01*
X150089762Y-52738096D01*
X150042143Y-52785715D01*
X149708810Y-52785715D01*
X149708810Y-52595239D01*
X150137381Y-53214286D02*
X149137381Y-53214286D01*
X150137381Y-53785715D01*
X149137381Y-53785715D01*
X150137381Y-54261905D02*
X149137381Y-54261905D01*
X149137381Y-54500000D01*
X149185000Y-54642858D01*
X149280238Y-54738096D01*
X149375476Y-54785715D01*
X149565952Y-54833334D01*
X149708810Y-54833334D01*
X149899286Y-54785715D01*
X149994524Y-54738096D01*
X150089762Y-54642858D01*
X150137381Y-54500000D01*
X150137381Y-54261905D01*
X135685000Y-52738096D02*
X135637381Y-52642858D01*
X135637381Y-52500001D01*
X135685000Y-52357143D01*
X135780238Y-52261905D01*
X135875476Y-52214286D01*
X136065952Y-52166667D01*
X136208810Y-52166667D01*
X136399286Y-52214286D01*
X136494524Y-52261905D01*
X136589762Y-52357143D01*
X136637381Y-52500001D01*
X136637381Y-52595239D01*
X136589762Y-52738096D01*
X136542143Y-52785715D01*
X136208810Y-52785715D01*
X136208810Y-52595239D01*
X136637381Y-53214286D02*
X135637381Y-53214286D01*
X136637381Y-53785715D01*
X135637381Y-53785715D01*
X136637381Y-54261905D02*
X135637381Y-54261905D01*
X135637381Y-54500000D01*
X135685000Y-54642858D01*
X135780238Y-54738096D01*
X135875476Y-54785715D01*
X136065952Y-54833334D01*
X136208810Y-54833334D01*
X136399286Y-54785715D01*
X136494524Y-54738096D01*
X136589762Y-54642858D01*
X136637381Y-54500000D01*
X136637381Y-54261905D01*
X137685000Y-52738096D02*
X137637381Y-52642858D01*
X137637381Y-52500001D01*
X137685000Y-52357143D01*
X137780238Y-52261905D01*
X137875476Y-52214286D01*
X138065952Y-52166667D01*
X138208810Y-52166667D01*
X138399286Y-52214286D01*
X138494524Y-52261905D01*
X138589762Y-52357143D01*
X138637381Y-52500001D01*
X138637381Y-52595239D01*
X138589762Y-52738096D01*
X138542143Y-52785715D01*
X138208810Y-52785715D01*
X138208810Y-52595239D01*
X138637381Y-53214286D02*
X137637381Y-53214286D01*
X138637381Y-53785715D01*
X137637381Y-53785715D01*
X138637381Y-54261905D02*
X137637381Y-54261905D01*
X137637381Y-54500000D01*
X137685000Y-54642858D01*
X137780238Y-54738096D01*
X137875476Y-54785715D01*
X138065952Y-54833334D01*
X138208810Y-54833334D01*
X138399286Y-54785715D01*
X138494524Y-54738096D01*
X138589762Y-54642858D01*
X138637381Y-54500000D01*
X138637381Y-54261905D01*
X155685000Y-52738096D02*
X155637381Y-52642858D01*
X155637381Y-52500001D01*
X155685000Y-52357143D01*
X155780238Y-52261905D01*
X155875476Y-52214286D01*
X156065952Y-52166667D01*
X156208810Y-52166667D01*
X156399286Y-52214286D01*
X156494524Y-52261905D01*
X156589762Y-52357143D01*
X156637381Y-52500001D01*
X156637381Y-52595239D01*
X156589762Y-52738096D01*
X156542143Y-52785715D01*
X156208810Y-52785715D01*
X156208810Y-52595239D01*
X156637381Y-53214286D02*
X155637381Y-53214286D01*
X156637381Y-53785715D01*
X155637381Y-53785715D01*
X156637381Y-54261905D02*
X155637381Y-54261905D01*
X155637381Y-54500000D01*
X155685000Y-54642858D01*
X155780238Y-54738096D01*
X155875476Y-54785715D01*
X156065952Y-54833334D01*
X156208810Y-54833334D01*
X156399286Y-54785715D01*
X156494524Y-54738096D01*
X156589762Y-54642858D01*
X156637381Y-54500000D01*
X156637381Y-54261905D01*
X157685000Y-52738096D02*
X157637381Y-52642858D01*
X157637381Y-52500001D01*
X157685000Y-52357143D01*
X157780238Y-52261905D01*
X157875476Y-52214286D01*
X158065952Y-52166667D01*
X158208810Y-52166667D01*
X158399286Y-52214286D01*
X158494524Y-52261905D01*
X158589762Y-52357143D01*
X158637381Y-52500001D01*
X158637381Y-52595239D01*
X158589762Y-52738096D01*
X158542143Y-52785715D01*
X158208810Y-52785715D01*
X158208810Y-52595239D01*
X158637381Y-53214286D02*
X157637381Y-53214286D01*
X158637381Y-53785715D01*
X157637381Y-53785715D01*
X158637381Y-54261905D02*
X157637381Y-54261905D01*
X157637381Y-54500000D01*
X157685000Y-54642858D01*
X157780238Y-54738096D01*
X157875476Y-54785715D01*
X158065952Y-54833334D01*
X158208810Y-54833334D01*
X158399286Y-54785715D01*
X158494524Y-54738096D01*
X158589762Y-54642858D01*
X158637381Y-54500000D01*
X158637381Y-54261905D01*
X136637381Y-68214286D02*
X136161190Y-67880952D01*
X136637381Y-67642857D02*
X135637381Y-67642857D01*
X135637381Y-68023810D01*
X135685000Y-68119048D01*
X135732619Y-68166667D01*
X135827857Y-68214286D01*
X135970714Y-68214286D01*
X136065952Y-68166667D01*
X136113571Y-68119048D01*
X136161190Y-68023810D01*
X136161190Y-67642857D01*
X136589762Y-68595238D02*
X136637381Y-68738095D01*
X136637381Y-68976191D01*
X136589762Y-69071429D01*
X136542143Y-69119048D01*
X136446905Y-69166667D01*
X136351667Y-69166667D01*
X136256429Y-69119048D01*
X136208810Y-69071429D01*
X136161190Y-68976191D01*
X136113571Y-68785714D01*
X136065952Y-68690476D01*
X136018333Y-68642857D01*
X135923095Y-68595238D01*
X135827857Y-68595238D01*
X135732619Y-68642857D01*
X135685000Y-68690476D01*
X135637381Y-68785714D01*
X135637381Y-69023810D01*
X135685000Y-69166667D01*
X135637381Y-69452381D02*
X135637381Y-70023810D01*
X136637381Y-69738095D02*
X135637381Y-69738095D01*
X136732619Y-70119048D02*
X136732619Y-70880953D01*
X136542143Y-71690477D02*
X136589762Y-71642858D01*
X136637381Y-71500001D01*
X136637381Y-71404763D01*
X136589762Y-71261905D01*
X136494524Y-71166667D01*
X136399286Y-71119048D01*
X136208810Y-71071429D01*
X136065952Y-71071429D01*
X135875476Y-71119048D01*
X135780238Y-71166667D01*
X135685000Y-71261905D01*
X135637381Y-71404763D01*
X135637381Y-71500001D01*
X135685000Y-71642858D01*
X135732619Y-71690477D01*
X136161190Y-72309524D02*
X136637381Y-72309524D01*
X135637381Y-71976191D02*
X136161190Y-72309524D01*
X135637381Y-72642858D01*
X136637381Y-73547620D02*
X136161190Y-73214286D01*
X136637381Y-72976191D02*
X135637381Y-72976191D01*
X135637381Y-73357144D01*
X135685000Y-73452382D01*
X135732619Y-73500001D01*
X135827857Y-73547620D01*
X135970714Y-73547620D01*
X136065952Y-73500001D01*
X136113571Y-73452382D01*
X136161190Y-73357144D01*
X136161190Y-72976191D01*
X136113571Y-74309525D02*
X136113571Y-73976191D01*
X136637381Y-73976191D02*
X135637381Y-73976191D01*
X135637381Y-74452382D01*
X138637381Y-71178572D02*
X137637381Y-71178572D01*
X138351667Y-71511906D01*
X137637381Y-71845239D01*
X138637381Y-71845239D01*
X138637381Y-72321429D02*
X137637381Y-72321429D01*
X138589762Y-72750000D02*
X138637381Y-72892857D01*
X138637381Y-73130953D01*
X138589762Y-73226191D01*
X138542143Y-73273810D01*
X138446905Y-73321429D01*
X138351667Y-73321429D01*
X138256429Y-73273810D01*
X138208810Y-73226191D01*
X138161190Y-73130953D01*
X138113571Y-72940476D01*
X138065952Y-72845238D01*
X138018333Y-72797619D01*
X137923095Y-72750000D01*
X137827857Y-72750000D01*
X137732619Y-72797619D01*
X137685000Y-72845238D01*
X137637381Y-72940476D01*
X137637381Y-73178572D01*
X137685000Y-73321429D01*
X137637381Y-73940476D02*
X137637381Y-74130953D01*
X137685000Y-74226191D01*
X137780238Y-74321429D01*
X137970714Y-74369048D01*
X138304048Y-74369048D01*
X138494524Y-74321429D01*
X138589762Y-74226191D01*
X138637381Y-74130953D01*
X138637381Y-73940476D01*
X138589762Y-73845238D01*
X138494524Y-73750000D01*
X138304048Y-73702381D01*
X137970714Y-73702381D01*
X137780238Y-73750000D01*
X137685000Y-73845238D01*
X137637381Y-73940476D01*
X140637381Y-71178572D02*
X139637381Y-71178572D01*
X140351667Y-71511906D01*
X139637381Y-71845239D01*
X140637381Y-71845239D01*
X139637381Y-72511905D02*
X139637381Y-72702382D01*
X139685000Y-72797620D01*
X139780238Y-72892858D01*
X139970714Y-72940477D01*
X140304048Y-72940477D01*
X140494524Y-72892858D01*
X140589762Y-72797620D01*
X140637381Y-72702382D01*
X140637381Y-72511905D01*
X140589762Y-72416667D01*
X140494524Y-72321429D01*
X140304048Y-72273810D01*
X139970714Y-72273810D01*
X139780238Y-72321429D01*
X139685000Y-72416667D01*
X139637381Y-72511905D01*
X140589762Y-73321429D02*
X140637381Y-73464286D01*
X140637381Y-73702382D01*
X140589762Y-73797620D01*
X140542143Y-73845239D01*
X140446905Y-73892858D01*
X140351667Y-73892858D01*
X140256429Y-73845239D01*
X140208810Y-73797620D01*
X140161190Y-73702382D01*
X140113571Y-73511905D01*
X140065952Y-73416667D01*
X140018333Y-73369048D01*
X139923095Y-73321429D01*
X139827857Y-73321429D01*
X139732619Y-73369048D01*
X139685000Y-73416667D01*
X139637381Y-73511905D01*
X139637381Y-73750001D01*
X139685000Y-73892858D01*
X140637381Y-74321429D02*
X139637381Y-74321429D01*
X142589762Y-71714286D02*
X142637381Y-71857143D01*
X142637381Y-72095239D01*
X142589762Y-72190477D01*
X142542143Y-72238096D01*
X142446905Y-72285715D01*
X142351667Y-72285715D01*
X142256429Y-72238096D01*
X142208810Y-72190477D01*
X142161190Y-72095239D01*
X142113571Y-71904762D01*
X142065952Y-71809524D01*
X142018333Y-71761905D01*
X141923095Y-71714286D01*
X141827857Y-71714286D01*
X141732619Y-71761905D01*
X141685000Y-71809524D01*
X141637381Y-71904762D01*
X141637381Y-72142858D01*
X141685000Y-72285715D01*
X142542143Y-73285715D02*
X142589762Y-73238096D01*
X142637381Y-73095239D01*
X142637381Y-73000001D01*
X142589762Y-72857143D01*
X142494524Y-72761905D01*
X142399286Y-72714286D01*
X142208810Y-72666667D01*
X142065952Y-72666667D01*
X141875476Y-72714286D01*
X141780238Y-72761905D01*
X141685000Y-72857143D01*
X141637381Y-73000001D01*
X141637381Y-73095239D01*
X141685000Y-73238096D01*
X141732619Y-73285715D01*
X142637381Y-73714286D02*
X141637381Y-73714286D01*
X142637381Y-74285715D02*
X142065952Y-73857143D01*
X141637381Y-74285715D02*
X142208810Y-73714286D01*
X144542143Y-65190476D02*
X144589762Y-65142857D01*
X144637381Y-65000000D01*
X144637381Y-64904762D01*
X144589762Y-64761904D01*
X144494524Y-64666666D01*
X144399286Y-64619047D01*
X144208810Y-64571428D01*
X144065952Y-64571428D01*
X143875476Y-64619047D01*
X143780238Y-64666666D01*
X143685000Y-64761904D01*
X143637381Y-64904762D01*
X143637381Y-65000000D01*
X143685000Y-65142857D01*
X143732619Y-65190476D01*
X144589762Y-65571428D02*
X144637381Y-65714285D01*
X144637381Y-65952381D01*
X144589762Y-66047619D01*
X144542143Y-66095238D01*
X144446905Y-66142857D01*
X144351667Y-66142857D01*
X144256429Y-66095238D01*
X144208810Y-66047619D01*
X144161190Y-65952381D01*
X144113571Y-65761904D01*
X144065952Y-65666666D01*
X144018333Y-65619047D01*
X143923095Y-65571428D01*
X143827857Y-65571428D01*
X143732619Y-65619047D01*
X143685000Y-65666666D01*
X143637381Y-65761904D01*
X143637381Y-66000000D01*
X143685000Y-66142857D01*
X144732619Y-66333333D02*
X144732619Y-67095238D01*
X144542143Y-67904762D02*
X144589762Y-67857143D01*
X144637381Y-67714286D01*
X144637381Y-67619048D01*
X144589762Y-67476190D01*
X144494524Y-67380952D01*
X144399286Y-67333333D01*
X144208810Y-67285714D01*
X144065952Y-67285714D01*
X143875476Y-67333333D01*
X143780238Y-67380952D01*
X143685000Y-67476190D01*
X143637381Y-67619048D01*
X143637381Y-67714286D01*
X143685000Y-67857143D01*
X143732619Y-67904762D01*
X144161190Y-68523809D02*
X144637381Y-68523809D01*
X143637381Y-68190476D02*
X144161190Y-68523809D01*
X143637381Y-68857143D01*
X144637381Y-69761905D02*
X144161190Y-69428571D01*
X144637381Y-69190476D02*
X143637381Y-69190476D01*
X143637381Y-69571429D01*
X143685000Y-69666667D01*
X143732619Y-69714286D01*
X143827857Y-69761905D01*
X143970714Y-69761905D01*
X144065952Y-69714286D01*
X144113571Y-69666667D01*
X144161190Y-69571429D01*
X144161190Y-69190476D01*
X144113571Y-70523810D02*
X144113571Y-70190476D01*
X144637381Y-70190476D02*
X143637381Y-70190476D01*
X143637381Y-70666667D01*
X143637381Y-71476191D02*
X143637381Y-71285714D01*
X143685000Y-71190476D01*
X143732619Y-71142857D01*
X143875476Y-71047619D01*
X144065952Y-71000000D01*
X144446905Y-71000000D01*
X144542143Y-71047619D01*
X144589762Y-71095238D01*
X144637381Y-71190476D01*
X144637381Y-71380953D01*
X144589762Y-71476191D01*
X144542143Y-71523810D01*
X144446905Y-71571429D01*
X144208810Y-71571429D01*
X144113571Y-71523810D01*
X144065952Y-71476191D01*
X144018333Y-71380953D01*
X144018333Y-71190476D01*
X144065952Y-71095238D01*
X144113571Y-71047619D01*
X144208810Y-71000000D01*
X144637381Y-72047619D02*
X144637381Y-72238095D01*
X144589762Y-72333334D01*
X144542143Y-72380953D01*
X144399286Y-72476191D01*
X144208810Y-72523810D01*
X143827857Y-72523810D01*
X143732619Y-72476191D01*
X143685000Y-72428572D01*
X143637381Y-72333334D01*
X143637381Y-72142857D01*
X143685000Y-72047619D01*
X143732619Y-72000000D01*
X143827857Y-71952381D01*
X144065952Y-71952381D01*
X144161190Y-72000000D01*
X144208810Y-72047619D01*
X144256429Y-72142857D01*
X144256429Y-72333334D01*
X144208810Y-72428572D01*
X144161190Y-72476191D01*
X144065952Y-72523810D01*
X143637381Y-72857143D02*
X143637381Y-73476191D01*
X144018333Y-73142857D01*
X144018333Y-73285715D01*
X144065952Y-73380953D01*
X144113571Y-73428572D01*
X144208810Y-73476191D01*
X144446905Y-73476191D01*
X144542143Y-73428572D01*
X144589762Y-73380953D01*
X144637381Y-73285715D01*
X144637381Y-73000000D01*
X144589762Y-72904762D01*
X144542143Y-72857143D01*
X143637381Y-74333334D02*
X143637381Y-74142857D01*
X143685000Y-74047619D01*
X143732619Y-74000000D01*
X143875476Y-73904762D01*
X144065952Y-73857143D01*
X144446905Y-73857143D01*
X144542143Y-73904762D01*
X144589762Y-73952381D01*
X144637381Y-74047619D01*
X144637381Y-74238096D01*
X144589762Y-74333334D01*
X144542143Y-74380953D01*
X144446905Y-74428572D01*
X144208810Y-74428572D01*
X144113571Y-74380953D01*
X144065952Y-74333334D01*
X144018333Y-74238096D01*
X144018333Y-74047619D01*
X144065952Y-73952381D01*
X144113571Y-73904762D01*
X144208810Y-73857143D01*
X146542143Y-69047619D02*
X146589762Y-69000000D01*
X146637381Y-68857143D01*
X146637381Y-68761905D01*
X146589762Y-68619047D01*
X146494524Y-68523809D01*
X146399286Y-68476190D01*
X146208810Y-68428571D01*
X146065952Y-68428571D01*
X145875476Y-68476190D01*
X145780238Y-68523809D01*
X145685000Y-68619047D01*
X145637381Y-68761905D01*
X145637381Y-68857143D01*
X145685000Y-69000000D01*
X145732619Y-69047619D01*
X146589762Y-69428571D02*
X146637381Y-69571428D01*
X146637381Y-69809524D01*
X146589762Y-69904762D01*
X146542143Y-69952381D01*
X146446905Y-70000000D01*
X146351667Y-70000000D01*
X146256429Y-69952381D01*
X146208810Y-69904762D01*
X146161190Y-69809524D01*
X146113571Y-69619047D01*
X146065952Y-69523809D01*
X146018333Y-69476190D01*
X145923095Y-69428571D01*
X145827857Y-69428571D01*
X145732619Y-69476190D01*
X145685000Y-69523809D01*
X145637381Y-69619047D01*
X145637381Y-69857143D01*
X145685000Y-70000000D01*
X146732619Y-70190476D02*
X146732619Y-70952381D01*
X146637381Y-71190476D02*
X145637381Y-71190476D01*
X146637381Y-71761905D01*
X145637381Y-71761905D01*
X146113571Y-72571429D02*
X146113571Y-72238095D01*
X146637381Y-72238095D02*
X145637381Y-72238095D01*
X145637381Y-72714286D01*
X145732619Y-73047619D02*
X145685000Y-73095238D01*
X145637381Y-73190476D01*
X145637381Y-73428572D01*
X145685000Y-73523810D01*
X145732619Y-73571429D01*
X145827857Y-73619048D01*
X145923095Y-73619048D01*
X146065952Y-73571429D01*
X146637381Y-73000000D01*
X146637381Y-73619048D01*
X145970714Y-74476191D02*
X146637381Y-74476191D01*
X145589762Y-74238095D02*
X146304048Y-74000000D01*
X146304048Y-74619048D01*
X148542143Y-69047619D02*
X148589762Y-69000000D01*
X148637381Y-68857143D01*
X148637381Y-68761905D01*
X148589762Y-68619047D01*
X148494524Y-68523809D01*
X148399286Y-68476190D01*
X148208810Y-68428571D01*
X148065952Y-68428571D01*
X147875476Y-68476190D01*
X147780238Y-68523809D01*
X147685000Y-68619047D01*
X147637381Y-68761905D01*
X147637381Y-68857143D01*
X147685000Y-69000000D01*
X147732619Y-69047619D01*
X148589762Y-69428571D02*
X148637381Y-69571428D01*
X148637381Y-69809524D01*
X148589762Y-69904762D01*
X148542143Y-69952381D01*
X148446905Y-70000000D01*
X148351667Y-70000000D01*
X148256429Y-69952381D01*
X148208810Y-69904762D01*
X148161190Y-69809524D01*
X148113571Y-69619047D01*
X148065952Y-69523809D01*
X148018333Y-69476190D01*
X147923095Y-69428571D01*
X147827857Y-69428571D01*
X147732619Y-69476190D01*
X147685000Y-69523809D01*
X147637381Y-69619047D01*
X147637381Y-69857143D01*
X147685000Y-70000000D01*
X148732619Y-70190476D02*
X148732619Y-70952381D01*
X147732619Y-71142857D02*
X147685000Y-71190476D01*
X147637381Y-71285714D01*
X147637381Y-71523810D01*
X147685000Y-71619048D01*
X147732619Y-71666667D01*
X147827857Y-71714286D01*
X147923095Y-71714286D01*
X148065952Y-71666667D01*
X148637381Y-71095238D01*
X148637381Y-71714286D01*
X147637381Y-72619048D02*
X147637381Y-72142857D01*
X148113571Y-72095238D01*
X148065952Y-72142857D01*
X148018333Y-72238095D01*
X148018333Y-72476191D01*
X148065952Y-72571429D01*
X148113571Y-72619048D01*
X148208810Y-72666667D01*
X148446905Y-72666667D01*
X148542143Y-72619048D01*
X148589762Y-72571429D01*
X148637381Y-72476191D01*
X148637381Y-72238095D01*
X148589762Y-72142857D01*
X148542143Y-72095238D01*
X147637381Y-73285714D02*
X147637381Y-73380953D01*
X147685000Y-73476191D01*
X147732619Y-73523810D01*
X147827857Y-73571429D01*
X148018333Y-73619048D01*
X148256429Y-73619048D01*
X148446905Y-73571429D01*
X148542143Y-73523810D01*
X148589762Y-73476191D01*
X148637381Y-73380953D01*
X148637381Y-73285714D01*
X148589762Y-73190476D01*
X148542143Y-73142857D01*
X148446905Y-73095238D01*
X148256429Y-73047619D01*
X148018333Y-73047619D01*
X147827857Y-73095238D01*
X147732619Y-73142857D01*
X147685000Y-73190476D01*
X147637381Y-73285714D01*
X147637381Y-74238095D02*
X147637381Y-74333334D01*
X147685000Y-74428572D01*
X147732619Y-74476191D01*
X147827857Y-74523810D01*
X148018333Y-74571429D01*
X148256429Y-74571429D01*
X148446905Y-74523810D01*
X148542143Y-74476191D01*
X148589762Y-74428572D01*
X148637381Y-74333334D01*
X148637381Y-74238095D01*
X148589762Y-74142857D01*
X148542143Y-74095238D01*
X148446905Y-74047619D01*
X148256429Y-74000000D01*
X148018333Y-74000000D01*
X147827857Y-74047619D01*
X147732619Y-74095238D01*
X147685000Y-74142857D01*
X147637381Y-74238095D01*
X150542143Y-69047619D02*
X150589762Y-69000000D01*
X150637381Y-68857143D01*
X150637381Y-68761905D01*
X150589762Y-68619047D01*
X150494524Y-68523809D01*
X150399286Y-68476190D01*
X150208810Y-68428571D01*
X150065952Y-68428571D01*
X149875476Y-68476190D01*
X149780238Y-68523809D01*
X149685000Y-68619047D01*
X149637381Y-68761905D01*
X149637381Y-68857143D01*
X149685000Y-69000000D01*
X149732619Y-69047619D01*
X150589762Y-69428571D02*
X150637381Y-69571428D01*
X150637381Y-69809524D01*
X150589762Y-69904762D01*
X150542143Y-69952381D01*
X150446905Y-70000000D01*
X150351667Y-70000000D01*
X150256429Y-69952381D01*
X150208810Y-69904762D01*
X150161190Y-69809524D01*
X150113571Y-69619047D01*
X150065952Y-69523809D01*
X150018333Y-69476190D01*
X149923095Y-69428571D01*
X149827857Y-69428571D01*
X149732619Y-69476190D01*
X149685000Y-69523809D01*
X149637381Y-69619047D01*
X149637381Y-69857143D01*
X149685000Y-70000000D01*
X150732619Y-70190476D02*
X150732619Y-70952381D01*
X149637381Y-71095238D02*
X149637381Y-71761905D01*
X150637381Y-71333333D01*
X150637381Y-72666667D02*
X150637381Y-72095238D01*
X150637381Y-72380952D02*
X149637381Y-72380952D01*
X149780238Y-72285714D01*
X149875476Y-72190476D01*
X149923095Y-72095238D01*
X149637381Y-73285714D02*
X149637381Y-73380953D01*
X149685000Y-73476191D01*
X149732619Y-73523810D01*
X149827857Y-73571429D01*
X150018333Y-73619048D01*
X150256429Y-73619048D01*
X150446905Y-73571429D01*
X150542143Y-73523810D01*
X150589762Y-73476191D01*
X150637381Y-73380953D01*
X150637381Y-73285714D01*
X150589762Y-73190476D01*
X150542143Y-73142857D01*
X150446905Y-73095238D01*
X150256429Y-73047619D01*
X150018333Y-73047619D01*
X149827857Y-73095238D01*
X149732619Y-73142857D01*
X149685000Y-73190476D01*
X149637381Y-73285714D01*
X149637381Y-74523810D02*
X149637381Y-74047619D01*
X150113571Y-74000000D01*
X150065952Y-74047619D01*
X150018333Y-74142857D01*
X150018333Y-74380953D01*
X150065952Y-74476191D01*
X150113571Y-74523810D01*
X150208810Y-74571429D01*
X150446905Y-74571429D01*
X150542143Y-74523810D01*
X150589762Y-74476191D01*
X150637381Y-74380953D01*
X150637381Y-74142857D01*
X150589762Y-74047619D01*
X150542143Y-74000000D01*
X152637381Y-72309524D02*
X151637381Y-72309524D01*
X151637381Y-72690477D01*
X151685000Y-72785715D01*
X151732619Y-72833334D01*
X151827857Y-72880953D01*
X151970714Y-72880953D01*
X152065952Y-72833334D01*
X152113571Y-72785715D01*
X152161190Y-72690477D01*
X152161190Y-72309524D01*
X152113571Y-73309524D02*
X152113571Y-73642858D01*
X152637381Y-73785715D02*
X152637381Y-73309524D01*
X151637381Y-73309524D01*
X151637381Y-73785715D01*
X151732619Y-74166667D02*
X151685000Y-74214286D01*
X151637381Y-74309524D01*
X151637381Y-74547620D01*
X151685000Y-74642858D01*
X151732619Y-74690477D01*
X151827857Y-74738096D01*
X151923095Y-74738096D01*
X152065952Y-74690477D01*
X152637381Y-74119048D01*
X152637381Y-74738096D01*
X154637381Y-72309524D02*
X153637381Y-72309524D01*
X153637381Y-72690477D01*
X153685000Y-72785715D01*
X153732619Y-72833334D01*
X153827857Y-72880953D01*
X153970714Y-72880953D01*
X154065952Y-72833334D01*
X154113571Y-72785715D01*
X154161190Y-72690477D01*
X154161190Y-72309524D01*
X154113571Y-73309524D02*
X154113571Y-73642858D01*
X154637381Y-73785715D02*
X154637381Y-73309524D01*
X153637381Y-73309524D01*
X153637381Y-73785715D01*
X154637381Y-74738096D02*
X154637381Y-74166667D01*
X154637381Y-74452381D02*
X153637381Y-74452381D01*
X153780238Y-74357143D01*
X153875476Y-74261905D01*
X153923095Y-74166667D01*
X155685000Y-72738096D02*
X155637381Y-72642858D01*
X155637381Y-72500001D01*
X155685000Y-72357143D01*
X155780238Y-72261905D01*
X155875476Y-72214286D01*
X156065952Y-72166667D01*
X156208810Y-72166667D01*
X156399286Y-72214286D01*
X156494524Y-72261905D01*
X156589762Y-72357143D01*
X156637381Y-72500001D01*
X156637381Y-72595239D01*
X156589762Y-72738096D01*
X156542143Y-72785715D01*
X156208810Y-72785715D01*
X156208810Y-72595239D01*
X156637381Y-73214286D02*
X155637381Y-73214286D01*
X156637381Y-73785715D01*
X155637381Y-73785715D01*
X156637381Y-74261905D02*
X155637381Y-74261905D01*
X155637381Y-74500000D01*
X155685000Y-74642858D01*
X155780238Y-74738096D01*
X155875476Y-74785715D01*
X156065952Y-74833334D01*
X156208810Y-74833334D01*
X156399286Y-74785715D01*
X156494524Y-74738096D01*
X156589762Y-74642858D01*
X156637381Y-74500000D01*
X156637381Y-74261905D01*
X157637381Y-72023810D02*
X157637381Y-72642858D01*
X158018333Y-72309524D01*
X158018333Y-72452382D01*
X158065952Y-72547620D01*
X158113571Y-72595239D01*
X158208810Y-72642858D01*
X158446905Y-72642858D01*
X158542143Y-72595239D01*
X158589762Y-72547620D01*
X158637381Y-72452382D01*
X158637381Y-72166667D01*
X158589762Y-72071429D01*
X158542143Y-72023810D01*
X158542143Y-73071429D02*
X158589762Y-73119048D01*
X158637381Y-73071429D01*
X158589762Y-73023810D01*
X158542143Y-73071429D01*
X158637381Y-73071429D01*
X157637381Y-73452381D02*
X157637381Y-74071429D01*
X158018333Y-73738095D01*
X158018333Y-73880953D01*
X158065952Y-73976191D01*
X158113571Y-74023810D01*
X158208810Y-74071429D01*
X158446905Y-74071429D01*
X158542143Y-74023810D01*
X158589762Y-73976191D01*
X158637381Y-73880953D01*
X158637381Y-73595238D01*
X158589762Y-73500000D01*
X158542143Y-73452381D01*
X157637381Y-74357143D02*
X158637381Y-74690476D01*
X157637381Y-75023810D01*
X125642381Y-80772095D02*
X126451905Y-80772095D01*
X126547143Y-80819714D01*
X126594762Y-80867333D01*
X126642381Y-80962571D01*
X126642381Y-81153048D01*
X126594762Y-81248286D01*
X126547143Y-81295905D01*
X126451905Y-81343524D01*
X125642381Y-81343524D01*
X126642381Y-81867333D02*
X126642381Y-82057809D01*
X126594762Y-82153048D01*
X126547143Y-82200667D01*
X126404286Y-82295905D01*
X126213810Y-82343524D01*
X125832857Y-82343524D01*
X125737619Y-82295905D01*
X125690000Y-82248286D01*
X125642381Y-82153048D01*
X125642381Y-81962571D01*
X125690000Y-81867333D01*
X125737619Y-81819714D01*
X125832857Y-81772095D01*
X126070952Y-81772095D01*
X126166190Y-81819714D01*
X126213810Y-81867333D01*
X126261429Y-81962571D01*
X126261429Y-82153048D01*
X126213810Y-82248286D01*
X126166190Y-82295905D01*
X126070952Y-82343524D01*
M02*
