M48
;DRILL file {KiCad 4.0.7-e2-6376~60~ubuntu17.10.1} date Mon Apr 23 00:34:59 2018
;FORMAT={-:-/ absolute / inch / decimal}
FMAT,2
INCH,TZ
T1C0.012
T2C0.013
T3C0.030
T4C0.039
T5C0.040
T6C0.047
%
G90
G05
M72
T1
X4.8917Y-4.124
X4.8917Y-4.1634
X4.8917Y-4.2028
X4.9311Y-4.124
X4.9311Y-4.1634
X4.9311Y-4.2028
X4.9705Y-4.124
X4.9705Y-4.1634
X4.9705Y-4.2028
X5.0098Y-4.124
X5.0098Y-4.1634
X5.0098Y-4.2028
X5.0492Y-4.124
X5.0492Y-4.1634
X5.0492Y-4.2028
X5.0886Y-4.124
X5.0886Y-4.1634
X5.0886Y-4.2028
X5.4232Y-4.0256
X5.4232Y-4.065
X5.4232Y-4.1043
X5.4626Y-4.0256
X5.4626Y-4.065
X5.4626Y-4.1043
X5.502Y-4.0256
X5.502Y-4.065
X5.502Y-4.1043
X5.5413Y-4.0256
X5.5413Y-4.065
X5.5413Y-4.1043
X5.5906Y-2.4508
X5.5906Y-2.4902
X5.5906Y-2.5295
X5.6299Y-2.4508
X5.6299Y-2.4902
X5.6299Y-2.5295
X5.6693Y-2.4508
X5.6693Y-2.4902
X5.6693Y-2.5295
X5.7087Y-2.4508
X5.7087Y-2.4902
X5.7087Y-2.5295
X5.748Y-2.4508
X5.748Y-2.4902
X5.748Y-2.5295
X5.75Y-1.85
X5.75Y-1.88
X5.75Y-1.91
X5.7874Y-2.4508
X5.7874Y-2.4902
X5.7874Y-2.5295
X5.88Y-1.85
X5.88Y-1.88
X5.88Y-1.91
X6.0827Y-2.7559
X6.1122Y-2.1752
X6.1122Y-2.2146
X6.1122Y-2.2539
X6.1516Y-2.1752
X6.1516Y-2.2146
X6.1516Y-2.2539
X6.1909Y-2.1752
X6.1909Y-2.2146
X6.1909Y-2.2539
X6.2303Y-2.1752
X6.2303Y-2.2146
X6.2303Y-2.2539
X6.25Y-4.065
X6.2697Y-2.1752
X6.2697Y-2.2146
X6.2697Y-2.2539
X6.3091Y-2.1752
X6.3091Y-2.2146
X6.3091Y-2.2539
X6.3484Y-2.1752
X6.3484Y-2.2146
X6.3484Y-2.2539
X6.3878Y-2.1752
X6.3878Y-2.2146
X6.3878Y-2.2539
X6.5256Y-3.75
X6.5256Y-3.7894
X6.5256Y-3.8287
X6.5256Y-3.8681
X6.565Y-3.75
X6.565Y-3.7894
X6.565Y-3.8287
X6.565Y-3.8681
X6.6043Y-3.75
X6.6043Y-3.7894
X6.6043Y-3.8287
X6.6043Y-3.8681
X6.7126Y-3.3465
X6.7126Y-3.3858
X6.7126Y-3.4252
X6.7126Y-3.4646
X6.752Y-3.3465
X6.752Y-3.3858
X6.752Y-3.4252
X6.752Y-3.4646
X6.7913Y-3.3465
X6.7913Y-3.3858
X6.7913Y-3.4252
X6.7913Y-3.4646
X6.8307Y-3.3465
X6.8307Y-3.3858
X6.8307Y-3.4252
X6.8307Y-3.4646
T2
X4.975Y-3.6
X5.1094Y-3.2102
X5.1616Y-3.3134
X5.3543Y-3.0906
X5.4724Y-3.2087
X5.475Y-2.9
X5.5Y-2.625
X5.525Y-2.85
X5.7283Y-2.9331
X5.7722Y-2.825
X5.8Y-3.975
X5.825Y-3.925
X5.8952Y-4.2955
X5.9025Y-4.1034
X5.925Y-4.075
X5.95Y-4.18
X5.96Y-3.93
X5.9845Y-3.9522
X6.0125Y-4.
X6.16Y-3.62
X6.2278Y-2.5368
X6.2722Y-3.0813
X6.2992Y-4.3701
X6.3Y-2.85
X6.3Y-2.9
X6.35Y-2.525
X6.375Y-3.025
X6.375Y-4.275
X6.425Y-4.3476
X6.5Y-4.225
X6.5659Y-4.2591
X6.675Y-3.625
X6.725Y-4.3
X6.7815Y-3.2087
X6.8Y-3.15
X6.825Y-4.3
X6.85Y-3.65
X6.886Y-4.049
X6.9488Y-3.2874
X6.9783Y-3.1398
X7.025Y-3.2
X7.0669Y-3.2283
X7.1591Y-3.7402
X7.1849Y-3.3464
T3
X4.55Y-3.11
X4.55Y-3.21
X4.65Y-3.11
X4.65Y-3.21
X4.75Y-3.11
X4.75Y-3.21
X4.85Y-3.11
X4.85Y-3.21
T4
X5.325Y-3.55
X5.325Y-4.45
X5.425Y-3.55
X5.425Y-4.45
X5.525Y-3.55
X5.525Y-4.45
X5.625Y-3.55
X5.625Y-4.45
X5.725Y-3.55
X5.725Y-4.45
X5.825Y-3.55
X5.825Y-4.45
X5.925Y-3.55
X5.925Y-4.45
X6.025Y-3.55
X6.025Y-4.45
X6.125Y-3.55
X6.125Y-4.45
X6.225Y-3.55
X6.225Y-4.45
X6.3Y-4.15
X6.3Y-4.25
X6.325Y-3.55
X6.325Y-4.45
X6.425Y-3.55
X6.425Y-4.45
X6.525Y-3.55
X6.525Y-4.45
X6.625Y-3.55
X6.625Y-4.45
X6.7079Y-2.5984
X6.7079Y-2.6984
X6.725Y-3.55
X6.725Y-4.45
X6.8079Y-2.5984
X6.8079Y-2.6984
X6.825Y-3.55
X6.825Y-4.45
X6.9079Y-2.5984
X6.9079Y-2.6984
X6.925Y-4.45
X7.0079Y-2.5984
X7.0079Y-2.6984
X7.025Y-4.45
X7.125Y-4.45
X7.225Y-4.45
T5
X4.3815Y-3.5465
X4.3815Y-3.6465
X4.3815Y-3.7465
X4.3815Y-3.8465
X7.2343Y-3.0496
X7.2343Y-3.1496
X7.2343Y-3.2496
X7.2343Y-3.3496
X7.2343Y-3.4496
X7.2343Y-3.5496
X7.2343Y-3.6496
X7.2343Y-3.7496
X7.2343Y-3.8496
X7.2343Y-3.9496
X7.2343Y-4.0496
X7.2343Y-4.1496
X7.2343Y-4.2496
X7.2343Y-4.3496
T6
X4.5516Y-2.4831
X4.65Y-2.4831
X4.7484Y-2.4831
X5.0339Y-2.0008
X5.0339Y-2.1
X5.0339Y-2.1976
X6.5661Y-2.0016
X6.5661Y-2.0992
X6.5661Y-2.1984
X6.8516Y-1.7161
X6.95Y-1.7161
X7.0484Y-1.7161
T0
M30
