G04 #@! TF.FileFunction,Copper,L2,Bot,Signal*
%FSLAX46Y46*%
G04 Gerber Fmt 4.6, Leading zero omitted, Abs format (unit mm)*
G04 Created by KiCad (PCBNEW 4.0.7-e2-6376~60~ubuntu17.10.1) date Mon Apr 23 00:33:59 2018*
%MOMM*%
%LPD*%
G01*
G04 APERTURE LIST*
%ADD10C,0.100000*%
%ADD11C,0.600000*%
%ADD12C,1.524000*%
%ADD13R,1.524000X4.064000*%
%ADD14R,0.600000X1.500000*%
%ADD15C,1.778000*%
%ADD16C,2.540000*%
%ADD17R,1.700000X1.700000*%
%ADD18O,1.700000X1.700000*%
%ADD19R,1.000000X1.250000*%
%ADD20R,1.270000X2.540000*%
%ADD21R,1.524000X1.524000*%
%ADD22C,0.685800*%
%ADD23C,0.152400*%
%ADD24C,0.500000*%
%ADD25C,1.500000*%
%ADD26C,0.254000*%
G04 APERTURE END LIST*
D10*
D11*
X173500000Y-86000000D03*
X172500000Y-85000000D03*
X173500000Y-85000000D03*
X165750000Y-96250000D03*
X166750000Y-95250000D03*
X165750000Y-95250000D03*
X140750000Y-102250000D03*
X138750000Y-102250000D03*
X139750000Y-104250000D03*
X138750000Y-104250000D03*
X140750000Y-104250000D03*
X138750000Y-103250000D03*
X139750000Y-102250000D03*
X166750000Y-98250000D03*
X140750000Y-103250000D03*
X165750000Y-98250000D03*
X167750000Y-98250000D03*
X139750000Y-103250000D03*
X173500000Y-88000000D03*
X172500000Y-86000000D03*
X172500000Y-88000000D03*
X173500000Y-87000000D03*
X172500000Y-87000000D03*
X167750000Y-96250000D03*
X167750000Y-97250000D03*
X166750000Y-97250000D03*
X165750000Y-97250000D03*
X167750000Y-95250000D03*
X166750000Y-96250000D03*
X137750000Y-102250000D03*
X137750000Y-103250000D03*
X137750000Y-104250000D03*
X170500000Y-88000000D03*
X170500000Y-87000000D03*
X171500000Y-88000000D03*
X170500000Y-86000000D03*
X170500000Y-85000000D03*
X171500000Y-87000000D03*
X171500000Y-86000000D03*
X171500000Y-85000000D03*
X129250000Y-106750000D03*
X128250000Y-106750000D03*
X127250000Y-106750000D03*
X126250000Y-106750000D03*
X125250000Y-106750000D03*
X124250000Y-106750000D03*
X162250000Y-57250000D03*
X161250000Y-57250000D03*
X160250000Y-57250000D03*
X159250000Y-57250000D03*
X158250000Y-57250000D03*
X157250000Y-57250000D03*
X156250000Y-57250000D03*
X155250000Y-57250000D03*
X147000000Y-64250000D03*
X146000000Y-64250000D03*
X145000000Y-64250000D03*
X144000000Y-64250000D03*
X143000000Y-64250000D03*
X142000000Y-64250000D03*
X129250000Y-105750000D03*
X128250000Y-105750000D03*
X127250000Y-105750000D03*
X126250000Y-105750000D03*
X125250000Y-105750000D03*
X124250000Y-105750000D03*
X162250000Y-56250000D03*
X161250000Y-56250000D03*
X160250000Y-56250000D03*
X159250000Y-56250000D03*
X158250000Y-56250000D03*
X157250000Y-56250000D03*
X156250000Y-56250000D03*
X155250000Y-56250000D03*
X147000000Y-63250000D03*
X146000000Y-63250000D03*
X145000000Y-63250000D03*
X144000000Y-63250000D03*
X143000000Y-63250000D03*
X142000000Y-63250000D03*
X129250000Y-104750000D03*
X128250000Y-104750000D03*
X127250000Y-104750000D03*
X126250000Y-104750000D03*
X125250000Y-104750000D03*
X124250000Y-104750000D03*
X162250000Y-55250000D03*
X161250000Y-55250000D03*
X160250000Y-55250000D03*
X159250000Y-55250000D03*
X158250000Y-55250000D03*
X157250000Y-55250000D03*
X156250000Y-55250000D03*
X155250000Y-55250000D03*
X147000000Y-62250000D03*
X146000000Y-62250000D03*
X145000000Y-62250000D03*
X144000000Y-62250000D03*
X143000000Y-62250000D03*
D12*
X183750000Y-110480000D03*
X183750000Y-107940000D03*
X183750000Y-105400000D03*
X183750000Y-102860000D03*
X183750000Y-100320000D03*
X183750000Y-97780000D03*
X183750000Y-95240000D03*
X183750000Y-92700000D03*
X183750000Y-90160000D03*
X183750000Y-87620000D03*
X183750000Y-85080000D03*
X183750000Y-82540000D03*
X183750000Y-80000000D03*
X183750000Y-77460000D03*
X111290000Y-97700000D03*
X111290000Y-95160000D03*
X111290000Y-92620000D03*
X111290000Y-90080000D03*
D13*
X147701000Y-44450000D03*
X145161000Y-44450000D03*
X150241000Y-44450000D03*
D12*
X135255000Y-90170000D03*
X183515000Y-113030000D03*
X137795000Y-90170000D03*
X140335000Y-90170000D03*
X142875000Y-90170000D03*
X145415000Y-90170000D03*
X147955000Y-90170000D03*
X150495000Y-90170000D03*
X153035000Y-90170000D03*
X155575000Y-90170000D03*
X158115000Y-90170000D03*
X160655000Y-90170000D03*
X163195000Y-90170000D03*
X165735000Y-90170000D03*
X168275000Y-90170000D03*
X170815000Y-90170000D03*
X173355000Y-90170000D03*
X180975000Y-113030000D03*
X178435000Y-113030000D03*
X175895000Y-113030000D03*
X173355000Y-113030000D03*
X170815000Y-113030000D03*
X168275000Y-113030000D03*
X165735000Y-113030000D03*
X163195000Y-113030000D03*
X160655000Y-113030000D03*
X158115000Y-113030000D03*
X155575000Y-113030000D03*
X153035000Y-113030000D03*
X150495000Y-113030000D03*
X147955000Y-113030000D03*
X145415000Y-113030000D03*
X142875000Y-113030000D03*
X140335000Y-113030000D03*
X137795000Y-113030000D03*
X135255000Y-113030000D03*
D14*
X169545000Y-72865000D03*
X170815000Y-72865000D03*
X172085000Y-72865000D03*
X173355000Y-72865000D03*
X174625000Y-72865000D03*
X175895000Y-72865000D03*
X177165000Y-72865000D03*
X178435000Y-72865000D03*
X178435000Y-78265000D03*
X177165000Y-78265000D03*
X175895000Y-78265000D03*
X174625000Y-78265000D03*
X173355000Y-78265000D03*
X172085000Y-78265000D03*
X170815000Y-78265000D03*
X169545000Y-78265000D03*
D15*
X115610000Y-63069924D03*
X118110000Y-63069924D03*
X120610000Y-63069924D03*
D16*
X111460000Y-45569924D03*
X111460000Y-61069924D03*
X124760000Y-61069924D03*
X124760000Y-45569924D03*
D15*
X127860000Y-50819924D03*
X127860000Y-53340000D03*
X127860000Y-55819924D03*
X179030000Y-43590000D03*
X176530000Y-43590000D03*
X174030000Y-43590000D03*
D16*
X183180000Y-61090000D03*
X183180000Y-45590000D03*
X169880000Y-45590000D03*
X169880000Y-61090000D03*
D15*
X166780000Y-55840000D03*
X166780000Y-53319924D03*
X166780000Y-50840000D03*
D17*
X160020000Y-105410000D03*
D18*
X160020000Y-107950000D03*
D19*
X169910000Y-81280000D03*
X167910000Y-81280000D03*
X169910000Y-83185000D03*
X167910000Y-83185000D03*
D17*
X170380000Y-68540000D03*
D18*
X170380000Y-66000000D03*
X172920000Y-68540000D03*
X172920000Y-66000000D03*
X175460000Y-68540000D03*
X175460000Y-66000000D03*
X178000000Y-68540000D03*
X178000000Y-66000000D03*
D11*
X154500000Y-70000000D03*
X158750000Y-103250000D03*
X142000000Y-62250000D03*
D20*
X158185000Y-76500000D03*
X156185000Y-76500000D03*
X154185000Y-76500000D03*
X152185000Y-76500000D03*
X150185000Y-76500000D03*
X148185000Y-76500000D03*
X146185000Y-76500000D03*
X144185000Y-76500000D03*
X142185000Y-76500000D03*
X140185000Y-76500000D03*
X138185000Y-76500000D03*
X136185000Y-76500000D03*
X136185000Y-50500000D03*
X156185000Y-50500000D03*
X138185000Y-50500000D03*
X158185000Y-50500000D03*
X149685000Y-50500000D03*
X147685000Y-50500000D03*
X145685000Y-50500000D03*
X134185000Y-76500000D03*
D11*
X146050000Y-46990000D03*
X146050000Y-47752000D03*
X146050000Y-48514000D03*
X149352000Y-46990000D03*
X149352000Y-47752000D03*
X149352000Y-48514000D03*
D21*
X123190000Y-81534000D03*
D12*
X123190000Y-78994000D03*
X120650000Y-81534000D03*
X120650000Y-78994000D03*
X118110000Y-81534000D03*
X118110000Y-78994000D03*
X115570000Y-81534000D03*
X115570000Y-78994000D03*
D22*
X176500000Y-83500000D03*
X179500000Y-82000000D03*
X172250000Y-81500000D03*
X150495000Y-103505000D03*
X151130000Y-106172000D03*
X149738458Y-109105685D03*
X182495265Y-84999697D03*
X181840289Y-95000000D03*
X160000000Y-111000000D03*
X140335000Y-72390000D03*
X160020000Y-72390000D03*
X166774119Y-108180881D03*
X126365000Y-91440000D03*
X178435000Y-81280000D03*
X173355000Y-109220000D03*
X131105486Y-84159514D03*
X139065000Y-73660000D03*
X160020000Y-73660000D03*
X173990000Y-92710000D03*
X147955000Y-99695000D03*
X146613518Y-71755000D03*
X172720000Y-80010000D03*
X170815000Y-109220000D03*
X147320000Y-100965000D03*
X129780000Y-81540000D03*
X159315000Y-78265000D03*
X158185000Y-64435000D03*
X145500000Y-74500000D03*
X139000000Y-81500000D03*
X136000000Y-78500000D03*
X152717510Y-101600000D03*
X165100000Y-107315000D03*
X163195000Y-110428490D03*
X161925000Y-108585000D03*
X169545000Y-92075000D03*
X161925000Y-76835000D03*
X161290000Y-64135000D03*
X139700000Y-66675000D03*
X151384000Y-99822000D03*
X156464000Y-91948000D03*
X149923490Y-104226619D03*
X152005179Y-100384792D03*
X177250000Y-79750000D03*
X174904399Y-102845601D03*
D23*
X180000000Y-80280000D02*
X180000000Y-81500000D01*
X180000000Y-81500000D02*
X179500000Y-82000000D01*
X178435000Y-78265000D02*
X178435000Y-78715000D01*
X178435000Y-78715000D02*
X180000000Y-80280000D01*
X172085000Y-78265000D02*
X172085000Y-81335000D01*
X172085000Y-81335000D02*
X172250000Y-81500000D01*
X150495000Y-103505000D02*
X150495000Y-106172000D01*
X150495000Y-106172000D02*
X150495000Y-108585000D01*
X151130000Y-106172000D02*
X150495000Y-106172000D01*
X150259143Y-108585000D02*
X149738458Y-109105685D01*
X150495000Y-108585000D02*
X150259143Y-108585000D01*
X150495000Y-108585000D02*
X150495000Y-113030000D01*
X167910000Y-83310000D02*
X167910000Y-83185000D01*
X167910000Y-81280000D02*
X167910000Y-81405000D01*
X167529000Y-82804000D02*
X167910000Y-83185000D01*
X156185000Y-77135000D02*
X156185000Y-76500000D01*
X113575069Y-80078601D02*
X117025399Y-80078601D01*
X117025399Y-80078601D02*
X118110000Y-78994000D01*
X182495265Y-84999697D02*
X182495265Y-83794735D01*
X182495265Y-83794735D02*
X183750000Y-82540000D01*
X181840289Y-95870289D02*
X181840289Y-95000000D01*
X183750000Y-97780000D02*
X181840289Y-95870289D01*
X158115000Y-113030000D02*
X160000000Y-111145000D01*
X160000000Y-111145000D02*
X160000000Y-111000000D01*
X175895000Y-79224933D02*
X175895000Y-78265000D01*
X177950067Y-81280000D02*
X175895000Y-79224933D01*
X178435000Y-81280000D02*
X177950067Y-81280000D01*
X111290000Y-95160000D02*
X109994588Y-93864588D01*
X109994588Y-93864588D02*
X109994588Y-83659082D01*
X109994588Y-83659082D02*
X113575069Y-80078601D01*
X140335000Y-72390000D02*
X140335000Y-76350000D01*
X140335000Y-76350000D02*
X140185000Y-76500000D01*
X177165000Y-97790000D02*
X166774119Y-108180881D01*
X183712000Y-97790000D02*
X177165000Y-97790000D01*
X140185000Y-76500000D02*
X140185000Y-77135000D01*
X140185000Y-77135000D02*
X126365000Y-90955000D01*
X126365000Y-90955000D02*
X126365000Y-91440000D01*
X175895000Y-78265000D02*
X175895000Y-77815000D01*
X175895000Y-77815000D02*
X175061588Y-76981588D01*
X175061588Y-76981588D02*
X164611588Y-76981588D01*
X164611588Y-76981588D02*
X160020000Y-72390000D01*
X175895000Y-78265000D02*
X175895000Y-78715000D01*
X173355000Y-109220000D02*
X173355000Y-113030000D01*
X111290000Y-92620000D02*
X110299399Y-91629399D01*
X110299399Y-91629399D02*
X110299399Y-84950601D01*
X110299399Y-84950601D02*
X113716000Y-81534000D01*
X113716000Y-81534000D02*
X115570000Y-81534000D01*
X181150498Y-82571502D02*
X183712000Y-80010000D01*
X174625000Y-78715000D02*
X178481502Y-82571502D01*
X174625000Y-78265000D02*
X174625000Y-78715000D01*
X178481502Y-82571502D02*
X181150498Y-82571502D01*
X131160486Y-84159514D02*
X131105486Y-84159514D01*
X138185000Y-76500000D02*
X138185000Y-77135000D01*
X138185000Y-77135000D02*
X131160486Y-84159514D01*
X155575000Y-113030000D02*
X155575000Y-106473518D01*
X155575000Y-106473518D02*
X148796482Y-99695000D01*
X148796482Y-99695000D02*
X147955000Y-99695000D01*
X163646399Y-77286399D02*
X160020000Y-73660000D01*
X138185000Y-76500000D02*
X138185000Y-74540000D01*
X138185000Y-74540000D02*
X139065000Y-73660000D01*
X173990000Y-92710000D02*
X181172000Y-92710000D01*
X181172000Y-92710000D02*
X183712000Y-90170000D01*
X174096399Y-77286399D02*
X163646399Y-77286399D01*
X174625000Y-77815000D02*
X174096399Y-77286399D01*
X174625000Y-78265000D02*
X174625000Y-77815000D01*
X118110000Y-81534000D02*
X118110000Y-83260000D01*
X118110000Y-83260000D02*
X111290000Y-90080000D01*
X183750000Y-95240000D02*
X184740601Y-94249399D01*
X184740601Y-94249399D02*
X184740601Y-88610601D01*
X184740601Y-88610601D02*
X184511999Y-88381999D01*
X184511999Y-88381999D02*
X183750000Y-87620000D01*
X142185000Y-76183518D02*
X146613518Y-71755000D01*
X142185000Y-76500000D02*
X142185000Y-76183518D01*
X160655000Y-111549176D02*
X164528498Y-107675678D01*
X164528498Y-107675678D02*
X164528498Y-107040678D01*
X164528498Y-107040678D02*
X177525678Y-94043498D01*
X177525678Y-94043498D02*
X182505498Y-94043498D01*
X182505498Y-94043498D02*
X183712000Y-95250000D01*
X173355000Y-78715000D02*
X173355000Y-78265000D01*
X183712000Y-87630000D02*
X182270000Y-87630000D01*
X182270000Y-87630000D02*
X173355000Y-78715000D01*
X160655000Y-111549176D02*
X160655000Y-113030000D01*
X142185000Y-77135000D02*
X142185000Y-76500000D01*
X127308498Y-92011502D02*
X142185000Y-77135000D01*
X113173502Y-92011502D02*
X127308498Y-92011502D01*
X111252000Y-90090000D02*
X113173502Y-92011502D01*
X172720000Y-80010000D02*
X173355000Y-79375000D01*
X173355000Y-79375000D02*
X173355000Y-78265000D01*
X170815000Y-109220000D02*
X170815000Y-113030000D01*
X117521999Y-98471999D02*
X120015000Y-100965000D01*
X120015000Y-100965000D02*
X147320000Y-100965000D01*
X111252000Y-97710000D02*
X112013999Y-98471999D01*
X112013999Y-98471999D02*
X117521999Y-98471999D01*
D24*
X123190000Y-78994000D02*
X127234000Y-78994000D01*
X127234000Y-78994000D02*
X127240000Y-79000000D01*
X120650000Y-81534000D02*
X123190000Y-78994000D01*
X129780000Y-81540000D02*
X127240000Y-79000000D01*
X129780000Y-81540000D02*
X134185000Y-77135000D01*
X134185000Y-77135000D02*
X134185000Y-76500000D01*
X169910000Y-83185000D02*
X169910000Y-81280000D01*
X169910000Y-81280000D02*
X169910000Y-78535000D01*
X179030000Y-43590000D02*
X166780000Y-55840000D01*
X158185000Y-76500000D02*
X158185000Y-64435000D01*
X158185000Y-64435000D02*
X166780000Y-55840000D01*
X158185000Y-76500000D02*
X158185000Y-77135000D01*
X158185000Y-77135000D02*
X159315000Y-78265000D01*
X159315000Y-78265000D02*
X169545000Y-78265000D01*
X170815000Y-78265000D02*
X170180000Y-78265000D01*
X169910000Y-78535000D02*
X170180000Y-78265000D01*
X170180000Y-78265000D02*
X169545000Y-78265000D01*
D23*
X163068000Y-87884000D02*
X154185000Y-79001000D01*
X154185000Y-79001000D02*
X154185000Y-76500000D01*
X164934000Y-87884000D02*
X163068000Y-87884000D01*
X165927370Y-88900000D02*
X165927370Y-88877370D01*
X165927370Y-88877370D02*
X164934000Y-87884000D01*
X167197370Y-90170000D02*
X165927370Y-88900000D01*
X168275000Y-90170000D02*
X167197370Y-90170000D01*
X154185000Y-77157630D02*
X154185000Y-76500000D01*
X165735000Y-90170000D02*
X164657370Y-90170000D01*
X164657370Y-90170000D02*
X152185000Y-77697630D01*
X152185000Y-77697630D02*
X152185000Y-76500000D01*
X163195000Y-90170000D02*
X150185000Y-77160000D01*
X150185000Y-77160000D02*
X150185000Y-76500000D01*
X160655000Y-90170000D02*
X159893001Y-89408001D01*
X159893001Y-89408001D02*
X159893001Y-88843001D01*
X159893001Y-88843001D02*
X148185000Y-77135000D01*
X148185000Y-77135000D02*
X148185000Y-76500000D01*
X147955000Y-90170000D02*
X147955000Y-89092370D01*
X147955000Y-89092370D02*
X146185000Y-87322370D01*
X146185000Y-87322370D02*
X146185000Y-76500000D01*
X146185000Y-76500000D02*
X146185000Y-75077600D01*
X146185000Y-75077600D02*
X145607400Y-74500000D01*
X145607400Y-74500000D02*
X145500000Y-74500000D01*
X144185000Y-76500000D02*
X144185000Y-88940000D01*
X144185000Y-88940000D02*
X145415000Y-90170000D01*
X139000000Y-81500000D02*
X143865601Y-86365601D01*
X143865601Y-86365601D02*
X143865601Y-93065601D01*
X143865601Y-93065601D02*
X150812499Y-100012499D01*
X150812499Y-100012499D02*
X150812499Y-100179922D01*
X150812499Y-100179922D02*
X152232577Y-101600000D01*
X152232577Y-101600000D02*
X152717510Y-101600000D01*
X136000000Y-78500000D02*
X136000000Y-76685000D01*
X136000000Y-76685000D02*
X136185000Y-76500000D01*
X136185000Y-77683000D02*
X136185000Y-76500000D01*
X135885000Y-76200000D02*
X136185000Y-76500000D01*
X168275000Y-113030000D02*
X168275000Y-110490000D01*
X168275000Y-110490000D02*
X165100000Y-107315000D01*
D25*
X147701000Y-44496000D02*
X147701000Y-50546000D01*
D23*
X163195000Y-113030000D02*
X163195000Y-110428490D01*
X169545000Y-100965000D02*
X161925000Y-108585000D01*
X169545000Y-92075000D02*
X169545000Y-100965000D01*
X159385000Y-66040000D02*
X159385000Y-74295000D01*
X159385000Y-74295000D02*
X161925000Y-76835000D01*
X161290000Y-64135000D02*
X159385000Y-66040000D01*
X169545000Y-72865000D02*
X169545000Y-69375000D01*
X169545000Y-69375000D02*
X170380000Y-68540000D01*
X139700000Y-66675000D02*
X139700000Y-65180000D01*
X139700000Y-65180000D02*
X127860000Y-53340000D01*
X170815000Y-72865000D02*
X170815000Y-71962600D01*
X170815000Y-71962600D02*
X171458601Y-71318999D01*
X171458601Y-67078601D02*
X170380000Y-66000000D01*
X171458601Y-71318999D02*
X171458601Y-67078601D01*
X172085000Y-69375000D02*
X172920000Y-68540000D01*
X172085000Y-72865000D02*
X172085000Y-69375000D01*
X173355000Y-72865000D02*
X173355000Y-71962600D01*
X173355000Y-71962600D02*
X173998601Y-71318999D01*
X173998601Y-71318999D02*
X173998601Y-67078601D01*
X173998601Y-67078601D02*
X172920000Y-66000000D01*
X173355000Y-72865000D02*
X173355000Y-72415000D01*
X174625000Y-69215000D02*
X175260000Y-68580000D01*
X174625000Y-72865000D02*
X174625000Y-69215000D01*
X175260000Y-66040000D02*
X176538601Y-67318601D01*
X176538601Y-67318601D02*
X176538601Y-71318999D01*
X176538601Y-71318999D02*
X175895000Y-71962600D01*
X175895000Y-71962600D02*
X175895000Y-72865000D01*
X177165000Y-69215000D02*
X177800000Y-68580000D01*
X177165000Y-72865000D02*
X177165000Y-69215000D01*
X177800000Y-66040000D02*
X179078601Y-67318601D01*
X179078601Y-67318601D02*
X179078601Y-71318999D01*
X179078601Y-71318999D02*
X178435000Y-71962600D01*
X178435000Y-71962600D02*
X178435000Y-72865000D01*
X151384000Y-99822000D02*
X154305000Y-96901000D01*
X154305000Y-96901000D02*
X154305000Y-89973910D01*
X154305000Y-89973910D02*
X155099511Y-89179399D01*
X157124399Y-89179399D02*
X158115000Y-90170000D01*
X155099511Y-89179399D02*
X157124399Y-89179399D01*
D24*
X170815000Y-90170000D02*
X170053001Y-90931999D01*
X170053001Y-90931999D02*
X169236315Y-90931999D01*
X169236315Y-90931999D02*
X168220314Y-91948000D01*
X168220314Y-91948000D02*
X156464000Y-91948000D01*
D23*
X145415000Y-108735109D02*
X149923490Y-104226619D01*
X145415000Y-113030000D02*
X145415000Y-108735109D01*
X155575000Y-96814971D02*
X152005179Y-100384792D01*
X155575000Y-90170000D02*
X155575000Y-96814971D01*
X177165000Y-78265000D02*
X177165000Y-79665000D01*
X177165000Y-79665000D02*
X177250000Y-79750000D01*
X147955000Y-113030000D02*
X148945601Y-114020601D01*
X148945601Y-114020601D02*
X173830489Y-114020601D01*
X173830489Y-114020601D02*
X174904399Y-112946691D01*
X174904399Y-112946691D02*
X174904399Y-102845601D01*
D26*
G36*
X110104990Y-98490303D02*
X110497630Y-98883629D01*
X111010900Y-99096757D01*
X111566661Y-99097242D01*
X111645476Y-99064677D01*
X111741835Y-99129062D01*
X112013999Y-99183199D01*
X117227411Y-99183199D01*
X119512106Y-101467894D01*
X119742835Y-101622063D01*
X120015000Y-101676200D01*
X146648206Y-101676200D01*
X146765341Y-101793540D01*
X147124630Y-101942730D01*
X147513663Y-101943069D01*
X147873212Y-101794507D01*
X148148540Y-101519659D01*
X148297730Y-101160370D01*
X148298069Y-100771337D01*
X148241599Y-100634669D01*
X148508212Y-100524507D01*
X148564255Y-100468561D01*
X154863800Y-106768106D01*
X154863800Y-111812305D01*
X154784697Y-111844990D01*
X154391371Y-112237630D01*
X154311605Y-112429727D01*
X154257397Y-112298857D01*
X154015213Y-112229392D01*
X153214605Y-113030000D01*
X153228748Y-113044143D01*
X153049143Y-113223748D01*
X153035000Y-113209605D01*
X153020858Y-113223748D01*
X152841253Y-113044143D01*
X152855395Y-113030000D01*
X152054787Y-112229392D01*
X151812603Y-112298857D01*
X151768547Y-112422344D01*
X151717397Y-112298857D01*
X151475213Y-112229392D01*
X150674605Y-113030000D01*
X150688748Y-113044143D01*
X150509143Y-113223748D01*
X150495000Y-113209605D01*
X150480858Y-113223748D01*
X150301253Y-113044143D01*
X150315395Y-113030000D01*
X149514787Y-112229392D01*
X149272603Y-112298857D01*
X149222491Y-112439318D01*
X149140010Y-112239697D01*
X148950432Y-112049787D01*
X149694392Y-112049787D01*
X150495000Y-112850395D01*
X151295608Y-112049787D01*
X152234392Y-112049787D01*
X153035000Y-112850395D01*
X153835608Y-112049787D01*
X153766143Y-111807603D01*
X153242698Y-111620856D01*
X152687632Y-111648638D01*
X152303857Y-111807603D01*
X152234392Y-112049787D01*
X151295608Y-112049787D01*
X151226143Y-111807603D01*
X150702698Y-111620856D01*
X150147632Y-111648638D01*
X149763857Y-111807603D01*
X149694392Y-112049787D01*
X148950432Y-112049787D01*
X148747370Y-111846371D01*
X148234100Y-111633243D01*
X147678339Y-111632758D01*
X147164697Y-111844990D01*
X146771371Y-112237630D01*
X146685051Y-112445512D01*
X146600010Y-112239697D01*
X146207370Y-111846371D01*
X146126200Y-111812666D01*
X146126200Y-109029697D01*
X149951354Y-105204544D01*
X150117153Y-105204688D01*
X150476702Y-105056126D01*
X150752030Y-104781278D01*
X150901220Y-104421989D01*
X150901559Y-104032956D01*
X150752997Y-103673407D01*
X150478149Y-103398079D01*
X150118860Y-103248889D01*
X149729827Y-103248550D01*
X149370278Y-103397112D01*
X149094950Y-103671960D01*
X148945760Y-104031249D01*
X148945614Y-104198706D01*
X144912106Y-108232215D01*
X144757937Y-108462944D01*
X144757937Y-108462945D01*
X144703800Y-108735109D01*
X144703800Y-111812305D01*
X144624697Y-111844990D01*
X144231371Y-112237630D01*
X144145051Y-112445512D01*
X144060010Y-112239697D01*
X143667370Y-111846371D01*
X143154100Y-111633243D01*
X142598339Y-111632758D01*
X142084697Y-111844990D01*
X141691371Y-112237630D01*
X141605051Y-112445512D01*
X141520010Y-112239697D01*
X141127370Y-111846371D01*
X140614100Y-111633243D01*
X140058339Y-111632758D01*
X139544697Y-111844990D01*
X139151371Y-112237630D01*
X139065051Y-112445512D01*
X138980010Y-112239697D01*
X138587370Y-111846371D01*
X138074100Y-111633243D01*
X137518339Y-111632758D01*
X137004697Y-111844990D01*
X136611371Y-112237630D01*
X136531605Y-112429727D01*
X136477397Y-112298857D01*
X136235213Y-112229392D01*
X135434605Y-113030000D01*
X136235213Y-113830608D01*
X136477397Y-113761143D01*
X136527509Y-113620682D01*
X136609990Y-113820303D01*
X137002630Y-114213629D01*
X137515900Y-114426757D01*
X138071661Y-114427242D01*
X138585303Y-114215010D01*
X138978629Y-113822370D01*
X139064949Y-113614488D01*
X139149990Y-113820303D01*
X139542630Y-114213629D01*
X140055900Y-114426757D01*
X140611661Y-114427242D01*
X141125303Y-114215010D01*
X141518629Y-113822370D01*
X141604949Y-113614488D01*
X141689990Y-113820303D01*
X142082630Y-114213629D01*
X142595900Y-114426757D01*
X143151661Y-114427242D01*
X143665303Y-114215010D01*
X144058629Y-113822370D01*
X144144949Y-113614488D01*
X144229990Y-113820303D01*
X144622630Y-114213629D01*
X145135900Y-114426757D01*
X145691661Y-114427242D01*
X146205303Y-114215010D01*
X146598629Y-113822370D01*
X146684949Y-113614488D01*
X146769990Y-113820303D01*
X147162630Y-114213629D01*
X147675900Y-114426757D01*
X148231661Y-114427242D01*
X148312890Y-114393679D01*
X148442706Y-114523495D01*
X148596875Y-114626507D01*
X148673437Y-114677664D01*
X148945601Y-114731801D01*
X173830489Y-114731801D01*
X174102654Y-114677664D01*
X174333383Y-114523495D01*
X174873140Y-113983738D01*
X175102630Y-114213629D01*
X175615900Y-114426757D01*
X176171661Y-114427242D01*
X176685303Y-114215010D01*
X176890457Y-114010213D01*
X177634392Y-114010213D01*
X177703857Y-114252397D01*
X178227302Y-114439144D01*
X178782368Y-114411362D01*
X179166143Y-114252397D01*
X179235608Y-114010213D01*
X178435000Y-113209605D01*
X177634392Y-114010213D01*
X176890457Y-114010213D01*
X177078629Y-113822370D01*
X177158395Y-113630273D01*
X177212603Y-113761143D01*
X177454787Y-113830608D01*
X178255395Y-113030000D01*
X177454787Y-112229392D01*
X177212603Y-112298857D01*
X177162491Y-112439318D01*
X177080010Y-112239697D01*
X176890432Y-112049787D01*
X177634392Y-112049787D01*
X178435000Y-112850395D01*
X179235608Y-112049787D01*
X179166143Y-111807603D01*
X178642698Y-111620856D01*
X178087632Y-111648638D01*
X177703857Y-111807603D01*
X177634392Y-112049787D01*
X176890432Y-112049787D01*
X176687370Y-111846371D01*
X176174100Y-111633243D01*
X175618339Y-111632758D01*
X175615599Y-111633890D01*
X175615599Y-107732302D01*
X182340856Y-107732302D01*
X182368638Y-108287368D01*
X182527603Y-108671143D01*
X182769787Y-108740608D01*
X183570395Y-107940000D01*
X182769787Y-107139392D01*
X182527603Y-107208857D01*
X182340856Y-107732302D01*
X175615599Y-107732302D01*
X175615599Y-103517395D01*
X175732939Y-103400260D01*
X175882129Y-103040971D01*
X175882468Y-102651938D01*
X175733906Y-102292389D01*
X175459058Y-102017061D01*
X175099769Y-101867871D01*
X174710736Y-101867532D01*
X174351187Y-102016094D01*
X174075859Y-102290942D01*
X173926669Y-102650231D01*
X173926330Y-103039264D01*
X174074892Y-103398813D01*
X174193199Y-103517327D01*
X174193199Y-108687824D01*
X174184507Y-108666788D01*
X173909659Y-108391460D01*
X173550370Y-108242270D01*
X173161337Y-108241931D01*
X172801788Y-108390493D01*
X172526460Y-108665341D01*
X172377270Y-109024630D01*
X172376931Y-109413663D01*
X172525493Y-109773212D01*
X172643800Y-109891726D01*
X172643800Y-111812305D01*
X172564697Y-111844990D01*
X172171371Y-112237630D01*
X172085051Y-112445512D01*
X172000010Y-112239697D01*
X171607370Y-111846371D01*
X171526200Y-111812666D01*
X171526200Y-109891794D01*
X171643540Y-109774659D01*
X171792730Y-109415370D01*
X171793069Y-109026337D01*
X171644507Y-108666788D01*
X171369659Y-108391460D01*
X171010370Y-108242270D01*
X170621337Y-108241931D01*
X170261788Y-108390493D01*
X169986460Y-108665341D01*
X169837270Y-109024630D01*
X169836931Y-109413663D01*
X169985493Y-109773212D01*
X170103800Y-109891726D01*
X170103800Y-111812305D01*
X170024697Y-111844990D01*
X169631371Y-112237630D01*
X169545051Y-112445512D01*
X169460010Y-112239697D01*
X169067370Y-111846371D01*
X168986200Y-111812666D01*
X168986200Y-110490000D01*
X168932063Y-110217836D01*
X168932063Y-110217835D01*
X168777894Y-109987106D01*
X167564460Y-108773672D01*
X167602659Y-108735540D01*
X167751849Y-108376251D01*
X167751995Y-108208793D01*
X177459588Y-98501200D01*
X182536437Y-98501200D01*
X182564990Y-98570303D01*
X182957630Y-98963629D01*
X183165512Y-99049949D01*
X182959697Y-99134990D01*
X182566371Y-99527630D01*
X182353243Y-100040900D01*
X182352758Y-100596661D01*
X182564990Y-101110303D01*
X182957630Y-101503629D01*
X183165512Y-101589949D01*
X182959697Y-101674990D01*
X182566371Y-102067630D01*
X182353243Y-102580900D01*
X182352758Y-103136661D01*
X182564990Y-103650303D01*
X182957630Y-104043629D01*
X183165512Y-104129949D01*
X182959697Y-104214990D01*
X182566371Y-104607630D01*
X182353243Y-105120900D01*
X182352758Y-105676661D01*
X182564990Y-106190303D01*
X182957630Y-106583629D01*
X183149727Y-106663395D01*
X183018857Y-106717603D01*
X182949392Y-106959787D01*
X183750000Y-107760395D01*
X183764143Y-107746253D01*
X183943748Y-107925858D01*
X183929605Y-107940000D01*
X183943748Y-107954143D01*
X183764143Y-108133748D01*
X183750000Y-108119605D01*
X182949392Y-108920213D01*
X183018857Y-109162397D01*
X183159318Y-109212509D01*
X182959697Y-109294990D01*
X182566371Y-109687630D01*
X182353243Y-110200900D01*
X182352758Y-110756661D01*
X182564990Y-111270303D01*
X182957630Y-111663629D01*
X183060373Y-111706292D01*
X182724697Y-111844990D01*
X182331371Y-112237630D01*
X182245051Y-112445512D01*
X182160010Y-112239697D01*
X181767370Y-111846371D01*
X181254100Y-111633243D01*
X180698339Y-111632758D01*
X180184697Y-111844990D01*
X179791371Y-112237630D01*
X179711605Y-112429727D01*
X179657397Y-112298857D01*
X179415213Y-112229392D01*
X178614605Y-113030000D01*
X179415213Y-113830608D01*
X179657397Y-113761143D01*
X179707509Y-113620682D01*
X179789990Y-113820303D01*
X180182630Y-114213629D01*
X180695900Y-114426757D01*
X181251661Y-114427242D01*
X181765303Y-114215010D01*
X182158629Y-113822370D01*
X182244949Y-113614488D01*
X182329990Y-113820303D01*
X182722630Y-114213629D01*
X183235900Y-114426757D01*
X183791661Y-114427242D01*
X184305303Y-114215010D01*
X184698629Y-113822370D01*
X184710000Y-113794986D01*
X184710000Y-114230069D01*
X184654521Y-114508981D01*
X184536145Y-114686144D01*
X184358979Y-114804522D01*
X184080070Y-114860000D01*
X110559931Y-114860000D01*
X110281019Y-114804521D01*
X110103856Y-114686145D01*
X109985478Y-114508979D01*
X109930000Y-114230070D01*
X109930000Y-114010213D01*
X134454392Y-114010213D01*
X134523857Y-114252397D01*
X135047302Y-114439144D01*
X135602368Y-114411362D01*
X135986143Y-114252397D01*
X136055608Y-114010213D01*
X135255000Y-113209605D01*
X134454392Y-114010213D01*
X109930000Y-114010213D01*
X109930000Y-112822302D01*
X133845856Y-112822302D01*
X133873638Y-113377368D01*
X134032603Y-113761143D01*
X134274787Y-113830608D01*
X135075395Y-113030000D01*
X134274787Y-112229392D01*
X134032603Y-112298857D01*
X133845856Y-112822302D01*
X109930000Y-112822302D01*
X109930000Y-112049787D01*
X134454392Y-112049787D01*
X135255000Y-112850395D01*
X136055608Y-112049787D01*
X135986143Y-111807603D01*
X135462698Y-111620856D01*
X134907632Y-111648638D01*
X134523857Y-111807603D01*
X134454392Y-112049787D01*
X109930000Y-112049787D01*
X109930000Y-98066794D01*
X110104990Y-98490303D01*
X110104990Y-98490303D01*
G37*
X110104990Y-98490303D02*
X110497630Y-98883629D01*
X111010900Y-99096757D01*
X111566661Y-99097242D01*
X111645476Y-99064677D01*
X111741835Y-99129062D01*
X112013999Y-99183199D01*
X117227411Y-99183199D01*
X119512106Y-101467894D01*
X119742835Y-101622063D01*
X120015000Y-101676200D01*
X146648206Y-101676200D01*
X146765341Y-101793540D01*
X147124630Y-101942730D01*
X147513663Y-101943069D01*
X147873212Y-101794507D01*
X148148540Y-101519659D01*
X148297730Y-101160370D01*
X148298069Y-100771337D01*
X148241599Y-100634669D01*
X148508212Y-100524507D01*
X148564255Y-100468561D01*
X154863800Y-106768106D01*
X154863800Y-111812305D01*
X154784697Y-111844990D01*
X154391371Y-112237630D01*
X154311605Y-112429727D01*
X154257397Y-112298857D01*
X154015213Y-112229392D01*
X153214605Y-113030000D01*
X153228748Y-113044143D01*
X153049143Y-113223748D01*
X153035000Y-113209605D01*
X153020858Y-113223748D01*
X152841253Y-113044143D01*
X152855395Y-113030000D01*
X152054787Y-112229392D01*
X151812603Y-112298857D01*
X151768547Y-112422344D01*
X151717397Y-112298857D01*
X151475213Y-112229392D01*
X150674605Y-113030000D01*
X150688748Y-113044143D01*
X150509143Y-113223748D01*
X150495000Y-113209605D01*
X150480858Y-113223748D01*
X150301253Y-113044143D01*
X150315395Y-113030000D01*
X149514787Y-112229392D01*
X149272603Y-112298857D01*
X149222491Y-112439318D01*
X149140010Y-112239697D01*
X148950432Y-112049787D01*
X149694392Y-112049787D01*
X150495000Y-112850395D01*
X151295608Y-112049787D01*
X152234392Y-112049787D01*
X153035000Y-112850395D01*
X153835608Y-112049787D01*
X153766143Y-111807603D01*
X153242698Y-111620856D01*
X152687632Y-111648638D01*
X152303857Y-111807603D01*
X152234392Y-112049787D01*
X151295608Y-112049787D01*
X151226143Y-111807603D01*
X150702698Y-111620856D01*
X150147632Y-111648638D01*
X149763857Y-111807603D01*
X149694392Y-112049787D01*
X148950432Y-112049787D01*
X148747370Y-111846371D01*
X148234100Y-111633243D01*
X147678339Y-111632758D01*
X147164697Y-111844990D01*
X146771371Y-112237630D01*
X146685051Y-112445512D01*
X146600010Y-112239697D01*
X146207370Y-111846371D01*
X146126200Y-111812666D01*
X146126200Y-109029697D01*
X149951354Y-105204544D01*
X150117153Y-105204688D01*
X150476702Y-105056126D01*
X150752030Y-104781278D01*
X150901220Y-104421989D01*
X150901559Y-104032956D01*
X150752997Y-103673407D01*
X150478149Y-103398079D01*
X150118860Y-103248889D01*
X149729827Y-103248550D01*
X149370278Y-103397112D01*
X149094950Y-103671960D01*
X148945760Y-104031249D01*
X148945614Y-104198706D01*
X144912106Y-108232215D01*
X144757937Y-108462944D01*
X144757937Y-108462945D01*
X144703800Y-108735109D01*
X144703800Y-111812305D01*
X144624697Y-111844990D01*
X144231371Y-112237630D01*
X144145051Y-112445512D01*
X144060010Y-112239697D01*
X143667370Y-111846371D01*
X143154100Y-111633243D01*
X142598339Y-111632758D01*
X142084697Y-111844990D01*
X141691371Y-112237630D01*
X141605051Y-112445512D01*
X141520010Y-112239697D01*
X141127370Y-111846371D01*
X140614100Y-111633243D01*
X140058339Y-111632758D01*
X139544697Y-111844990D01*
X139151371Y-112237630D01*
X139065051Y-112445512D01*
X138980010Y-112239697D01*
X138587370Y-111846371D01*
X138074100Y-111633243D01*
X137518339Y-111632758D01*
X137004697Y-111844990D01*
X136611371Y-112237630D01*
X136531605Y-112429727D01*
X136477397Y-112298857D01*
X136235213Y-112229392D01*
X135434605Y-113030000D01*
X136235213Y-113830608D01*
X136477397Y-113761143D01*
X136527509Y-113620682D01*
X136609990Y-113820303D01*
X137002630Y-114213629D01*
X137515900Y-114426757D01*
X138071661Y-114427242D01*
X138585303Y-114215010D01*
X138978629Y-113822370D01*
X139064949Y-113614488D01*
X139149990Y-113820303D01*
X139542630Y-114213629D01*
X140055900Y-114426757D01*
X140611661Y-114427242D01*
X141125303Y-114215010D01*
X141518629Y-113822370D01*
X141604949Y-113614488D01*
X141689990Y-113820303D01*
X142082630Y-114213629D01*
X142595900Y-114426757D01*
X143151661Y-114427242D01*
X143665303Y-114215010D01*
X144058629Y-113822370D01*
X144144949Y-113614488D01*
X144229990Y-113820303D01*
X144622630Y-114213629D01*
X145135900Y-114426757D01*
X145691661Y-114427242D01*
X146205303Y-114215010D01*
X146598629Y-113822370D01*
X146684949Y-113614488D01*
X146769990Y-113820303D01*
X147162630Y-114213629D01*
X147675900Y-114426757D01*
X148231661Y-114427242D01*
X148312890Y-114393679D01*
X148442706Y-114523495D01*
X148596875Y-114626507D01*
X148673437Y-114677664D01*
X148945601Y-114731801D01*
X173830489Y-114731801D01*
X174102654Y-114677664D01*
X174333383Y-114523495D01*
X174873140Y-113983738D01*
X175102630Y-114213629D01*
X175615900Y-114426757D01*
X176171661Y-114427242D01*
X176685303Y-114215010D01*
X176890457Y-114010213D01*
X177634392Y-114010213D01*
X177703857Y-114252397D01*
X178227302Y-114439144D01*
X178782368Y-114411362D01*
X179166143Y-114252397D01*
X179235608Y-114010213D01*
X178435000Y-113209605D01*
X177634392Y-114010213D01*
X176890457Y-114010213D01*
X177078629Y-113822370D01*
X177158395Y-113630273D01*
X177212603Y-113761143D01*
X177454787Y-113830608D01*
X178255395Y-113030000D01*
X177454787Y-112229392D01*
X177212603Y-112298857D01*
X177162491Y-112439318D01*
X177080010Y-112239697D01*
X176890432Y-112049787D01*
X177634392Y-112049787D01*
X178435000Y-112850395D01*
X179235608Y-112049787D01*
X179166143Y-111807603D01*
X178642698Y-111620856D01*
X178087632Y-111648638D01*
X177703857Y-111807603D01*
X177634392Y-112049787D01*
X176890432Y-112049787D01*
X176687370Y-111846371D01*
X176174100Y-111633243D01*
X175618339Y-111632758D01*
X175615599Y-111633890D01*
X175615599Y-107732302D01*
X182340856Y-107732302D01*
X182368638Y-108287368D01*
X182527603Y-108671143D01*
X182769787Y-108740608D01*
X183570395Y-107940000D01*
X182769787Y-107139392D01*
X182527603Y-107208857D01*
X182340856Y-107732302D01*
X175615599Y-107732302D01*
X175615599Y-103517395D01*
X175732939Y-103400260D01*
X175882129Y-103040971D01*
X175882468Y-102651938D01*
X175733906Y-102292389D01*
X175459058Y-102017061D01*
X175099769Y-101867871D01*
X174710736Y-101867532D01*
X174351187Y-102016094D01*
X174075859Y-102290942D01*
X173926669Y-102650231D01*
X173926330Y-103039264D01*
X174074892Y-103398813D01*
X174193199Y-103517327D01*
X174193199Y-108687824D01*
X174184507Y-108666788D01*
X173909659Y-108391460D01*
X173550370Y-108242270D01*
X173161337Y-108241931D01*
X172801788Y-108390493D01*
X172526460Y-108665341D01*
X172377270Y-109024630D01*
X172376931Y-109413663D01*
X172525493Y-109773212D01*
X172643800Y-109891726D01*
X172643800Y-111812305D01*
X172564697Y-111844990D01*
X172171371Y-112237630D01*
X172085051Y-112445512D01*
X172000010Y-112239697D01*
X171607370Y-111846371D01*
X171526200Y-111812666D01*
X171526200Y-109891794D01*
X171643540Y-109774659D01*
X171792730Y-109415370D01*
X171793069Y-109026337D01*
X171644507Y-108666788D01*
X171369659Y-108391460D01*
X171010370Y-108242270D01*
X170621337Y-108241931D01*
X170261788Y-108390493D01*
X169986460Y-108665341D01*
X169837270Y-109024630D01*
X169836931Y-109413663D01*
X169985493Y-109773212D01*
X170103800Y-109891726D01*
X170103800Y-111812305D01*
X170024697Y-111844990D01*
X169631371Y-112237630D01*
X169545051Y-112445512D01*
X169460010Y-112239697D01*
X169067370Y-111846371D01*
X168986200Y-111812666D01*
X168986200Y-110490000D01*
X168932063Y-110217836D01*
X168932063Y-110217835D01*
X168777894Y-109987106D01*
X167564460Y-108773672D01*
X167602659Y-108735540D01*
X167751849Y-108376251D01*
X167751995Y-108208793D01*
X177459588Y-98501200D01*
X182536437Y-98501200D01*
X182564990Y-98570303D01*
X182957630Y-98963629D01*
X183165512Y-99049949D01*
X182959697Y-99134990D01*
X182566371Y-99527630D01*
X182353243Y-100040900D01*
X182352758Y-100596661D01*
X182564990Y-101110303D01*
X182957630Y-101503629D01*
X183165512Y-101589949D01*
X182959697Y-101674990D01*
X182566371Y-102067630D01*
X182353243Y-102580900D01*
X182352758Y-103136661D01*
X182564990Y-103650303D01*
X182957630Y-104043629D01*
X183165512Y-104129949D01*
X182959697Y-104214990D01*
X182566371Y-104607630D01*
X182353243Y-105120900D01*
X182352758Y-105676661D01*
X182564990Y-106190303D01*
X182957630Y-106583629D01*
X183149727Y-106663395D01*
X183018857Y-106717603D01*
X182949392Y-106959787D01*
X183750000Y-107760395D01*
X183764143Y-107746253D01*
X183943748Y-107925858D01*
X183929605Y-107940000D01*
X183943748Y-107954143D01*
X183764143Y-108133748D01*
X183750000Y-108119605D01*
X182949392Y-108920213D01*
X183018857Y-109162397D01*
X183159318Y-109212509D01*
X182959697Y-109294990D01*
X182566371Y-109687630D01*
X182353243Y-110200900D01*
X182352758Y-110756661D01*
X182564990Y-111270303D01*
X182957630Y-111663629D01*
X183060373Y-111706292D01*
X182724697Y-111844990D01*
X182331371Y-112237630D01*
X182245051Y-112445512D01*
X182160010Y-112239697D01*
X181767370Y-111846371D01*
X181254100Y-111633243D01*
X180698339Y-111632758D01*
X180184697Y-111844990D01*
X179791371Y-112237630D01*
X179711605Y-112429727D01*
X179657397Y-112298857D01*
X179415213Y-112229392D01*
X178614605Y-113030000D01*
X179415213Y-113830608D01*
X179657397Y-113761143D01*
X179707509Y-113620682D01*
X179789990Y-113820303D01*
X180182630Y-114213629D01*
X180695900Y-114426757D01*
X181251661Y-114427242D01*
X181765303Y-114215010D01*
X182158629Y-113822370D01*
X182244949Y-113614488D01*
X182329990Y-113820303D01*
X182722630Y-114213629D01*
X183235900Y-114426757D01*
X183791661Y-114427242D01*
X184305303Y-114215010D01*
X184698629Y-113822370D01*
X184710000Y-113794986D01*
X184710000Y-114230069D01*
X184654521Y-114508981D01*
X184536145Y-114686144D01*
X184358979Y-114804522D01*
X184080070Y-114860000D01*
X110559931Y-114860000D01*
X110281019Y-114804521D01*
X110103856Y-114686145D01*
X109985478Y-114508979D01*
X109930000Y-114230070D01*
X109930000Y-114010213D01*
X134454392Y-114010213D01*
X134523857Y-114252397D01*
X135047302Y-114439144D01*
X135602368Y-114411362D01*
X135986143Y-114252397D01*
X136055608Y-114010213D01*
X135255000Y-113209605D01*
X134454392Y-114010213D01*
X109930000Y-114010213D01*
X109930000Y-112822302D01*
X133845856Y-112822302D01*
X133873638Y-113377368D01*
X134032603Y-113761143D01*
X134274787Y-113830608D01*
X135075395Y-113030000D01*
X134274787Y-112229392D01*
X134032603Y-112298857D01*
X133845856Y-112822302D01*
X109930000Y-112822302D01*
X109930000Y-112049787D01*
X134454392Y-112049787D01*
X135255000Y-112850395D01*
X136055608Y-112049787D01*
X135986143Y-111807603D01*
X135462698Y-111620856D01*
X134907632Y-111648638D01*
X134523857Y-111807603D01*
X134454392Y-112049787D01*
X109930000Y-112049787D01*
X109930000Y-98066794D01*
X110104990Y-98490303D01*
G36*
X168833800Y-92746726D02*
X168833800Y-100670411D01*
X161897136Y-107607075D01*
X161731337Y-107606931D01*
X161486015Y-107708296D01*
X161421054Y-107381715D01*
X161099147Y-106899946D01*
X161057548Y-106872150D01*
X161105317Y-106863162D01*
X161321441Y-106724090D01*
X161466431Y-106511890D01*
X161517440Y-106260000D01*
X161517440Y-104560000D01*
X161473162Y-104324683D01*
X161334090Y-104108559D01*
X161121890Y-103963569D01*
X160870000Y-103912560D01*
X159170000Y-103912560D01*
X158934683Y-103956838D01*
X158718559Y-104095910D01*
X158573569Y-104308110D01*
X158522560Y-104560000D01*
X158522560Y-106260000D01*
X158566838Y-106495317D01*
X158705910Y-106711441D01*
X158918110Y-106856431D01*
X158985541Y-106870086D01*
X158940853Y-106899946D01*
X158618946Y-107381715D01*
X158505907Y-107950000D01*
X158618946Y-108518285D01*
X158940853Y-109000054D01*
X159422622Y-109321961D01*
X159990907Y-109435000D01*
X160049093Y-109435000D01*
X160617378Y-109321961D01*
X161051549Y-109031858D01*
X161095493Y-109138212D01*
X161370341Y-109413540D01*
X161663230Y-109535158D01*
X160790587Y-110407800D01*
X160554659Y-110171460D01*
X160195370Y-110022270D01*
X159806337Y-110021931D01*
X159446788Y-110170493D01*
X159171460Y-110445341D01*
X159022270Y-110804630D01*
X159021998Y-111117214D01*
X158473146Y-111666066D01*
X158394100Y-111633243D01*
X157838339Y-111632758D01*
X157324697Y-111844990D01*
X156931371Y-112237630D01*
X156845051Y-112445512D01*
X156760010Y-112239697D01*
X156367370Y-111846371D01*
X156286200Y-111812666D01*
X156286200Y-106473518D01*
X156232063Y-106201354D01*
X156232063Y-106201353D01*
X156077894Y-105970624D01*
X152685142Y-102577872D01*
X152911173Y-102578069D01*
X153270722Y-102429507D01*
X153546050Y-102154659D01*
X153695240Y-101795370D01*
X153695579Y-101406337D01*
X153547017Y-101046788D01*
X153272169Y-100771460D01*
X152957697Y-100640880D01*
X152982909Y-100580162D01*
X152983055Y-100412704D01*
X156077894Y-97317866D01*
X156232063Y-97087136D01*
X156249634Y-96998800D01*
X156286200Y-96814971D01*
X156286200Y-92925745D01*
X156657663Y-92926069D01*
X156882908Y-92833000D01*
X168220309Y-92833000D01*
X168220314Y-92833001D01*
X168504156Y-92776540D01*
X168558989Y-92765633D01*
X168735164Y-92647917D01*
X168833800Y-92746726D01*
X168833800Y-92746726D01*
G37*
X168833800Y-92746726D02*
X168833800Y-100670411D01*
X161897136Y-107607075D01*
X161731337Y-107606931D01*
X161486015Y-107708296D01*
X161421054Y-107381715D01*
X161099147Y-106899946D01*
X161057548Y-106872150D01*
X161105317Y-106863162D01*
X161321441Y-106724090D01*
X161466431Y-106511890D01*
X161517440Y-106260000D01*
X161517440Y-104560000D01*
X161473162Y-104324683D01*
X161334090Y-104108559D01*
X161121890Y-103963569D01*
X160870000Y-103912560D01*
X159170000Y-103912560D01*
X158934683Y-103956838D01*
X158718559Y-104095910D01*
X158573569Y-104308110D01*
X158522560Y-104560000D01*
X158522560Y-106260000D01*
X158566838Y-106495317D01*
X158705910Y-106711441D01*
X158918110Y-106856431D01*
X158985541Y-106870086D01*
X158940853Y-106899946D01*
X158618946Y-107381715D01*
X158505907Y-107950000D01*
X158618946Y-108518285D01*
X158940853Y-109000054D01*
X159422622Y-109321961D01*
X159990907Y-109435000D01*
X160049093Y-109435000D01*
X160617378Y-109321961D01*
X161051549Y-109031858D01*
X161095493Y-109138212D01*
X161370341Y-109413540D01*
X161663230Y-109535158D01*
X160790587Y-110407800D01*
X160554659Y-110171460D01*
X160195370Y-110022270D01*
X159806337Y-110021931D01*
X159446788Y-110170493D01*
X159171460Y-110445341D01*
X159022270Y-110804630D01*
X159021998Y-111117214D01*
X158473146Y-111666066D01*
X158394100Y-111633243D01*
X157838339Y-111632758D01*
X157324697Y-111844990D01*
X156931371Y-112237630D01*
X156845051Y-112445512D01*
X156760010Y-112239697D01*
X156367370Y-111846371D01*
X156286200Y-111812666D01*
X156286200Y-106473518D01*
X156232063Y-106201354D01*
X156232063Y-106201353D01*
X156077894Y-105970624D01*
X152685142Y-102577872D01*
X152911173Y-102578069D01*
X153270722Y-102429507D01*
X153546050Y-102154659D01*
X153695240Y-101795370D01*
X153695579Y-101406337D01*
X153547017Y-101046788D01*
X153272169Y-100771460D01*
X152957697Y-100640880D01*
X152982909Y-100580162D01*
X152983055Y-100412704D01*
X156077894Y-97317866D01*
X156232063Y-97087136D01*
X156249634Y-96998800D01*
X156286200Y-96814971D01*
X156286200Y-92925745D01*
X156657663Y-92926069D01*
X156882908Y-92833000D01*
X168220309Y-92833000D01*
X168220314Y-92833001D01*
X168504156Y-92776540D01*
X168558989Y-92765633D01*
X168735164Y-92647917D01*
X168833800Y-92746726D01*
G36*
X143764000Y-44164250D02*
X143922750Y-44323000D01*
X145034000Y-44323000D01*
X145034000Y-44303000D01*
X145288000Y-44303000D01*
X145288000Y-44323000D01*
X145308000Y-44323000D01*
X145308000Y-44577000D01*
X145288000Y-44577000D01*
X145288000Y-46958250D01*
X145446750Y-47117000D01*
X146049309Y-47117000D01*
X146282698Y-47020327D01*
X146316000Y-46987025D01*
X146316000Y-48595000D01*
X145970750Y-48595000D01*
X145812000Y-48753750D01*
X145812000Y-50373000D01*
X145832000Y-50373000D01*
X145832000Y-50627000D01*
X145812000Y-50627000D01*
X145812000Y-52246250D01*
X145970750Y-52405000D01*
X146446310Y-52405000D01*
X146679699Y-52308327D01*
X146693246Y-52294780D01*
X146798110Y-52366431D01*
X147050000Y-52417440D01*
X148320000Y-52417440D01*
X148555317Y-52373162D01*
X148676900Y-52294926D01*
X148690301Y-52308327D01*
X148923690Y-52405000D01*
X149399250Y-52405000D01*
X149558000Y-52246250D01*
X149558000Y-50627000D01*
X149812000Y-50627000D01*
X149812000Y-52246250D01*
X149970750Y-52405000D01*
X150446310Y-52405000D01*
X150679699Y-52308327D01*
X150858327Y-52129698D01*
X150955000Y-51896309D01*
X150955000Y-50785750D01*
X154915000Y-50785750D01*
X154915000Y-51896309D01*
X155011673Y-52129698D01*
X155190301Y-52308327D01*
X155423690Y-52405000D01*
X155899250Y-52405000D01*
X156058000Y-52246250D01*
X156058000Y-50627000D01*
X156312000Y-50627000D01*
X156312000Y-52246250D01*
X156470750Y-52405000D01*
X156946310Y-52405000D01*
X157179699Y-52308327D01*
X157185000Y-52303026D01*
X157190301Y-52308327D01*
X157423690Y-52405000D01*
X157899250Y-52405000D01*
X158058000Y-52246250D01*
X158058000Y-50627000D01*
X158312000Y-50627000D01*
X158312000Y-52246250D01*
X158470750Y-52405000D01*
X158946310Y-52405000D01*
X159179699Y-52308327D01*
X159358327Y-52129698D01*
X159455000Y-51896309D01*
X159455000Y-50785750D01*
X159296250Y-50627000D01*
X158312000Y-50627000D01*
X158058000Y-50627000D01*
X156312000Y-50627000D01*
X156058000Y-50627000D01*
X155073750Y-50627000D01*
X154915000Y-50785750D01*
X150955000Y-50785750D01*
X150796250Y-50627000D01*
X149812000Y-50627000D01*
X149558000Y-50627000D01*
X149538000Y-50627000D01*
X149538000Y-50601965D01*
X165244484Y-50601965D01*
X165270277Y-51207700D01*
X165452461Y-51647533D01*
X165707804Y-51732591D01*
X166600395Y-50840000D01*
X166959605Y-50840000D01*
X167852196Y-51732591D01*
X168107539Y-51647533D01*
X168315516Y-51078035D01*
X168289723Y-50472300D01*
X168107539Y-50032467D01*
X167852196Y-49947409D01*
X166959605Y-50840000D01*
X166600395Y-50840000D01*
X165707804Y-49947409D01*
X165452461Y-50032467D01*
X165244484Y-50601965D01*
X149538000Y-50601965D01*
X149538000Y-50373000D01*
X149558000Y-50373000D01*
X149558000Y-48753750D01*
X149812000Y-48753750D01*
X149812000Y-50373000D01*
X150796250Y-50373000D01*
X150955000Y-50214250D01*
X150955000Y-49103691D01*
X154915000Y-49103691D01*
X154915000Y-50214250D01*
X155073750Y-50373000D01*
X156058000Y-50373000D01*
X156058000Y-48753750D01*
X156312000Y-48753750D01*
X156312000Y-50373000D01*
X158058000Y-50373000D01*
X158058000Y-48753750D01*
X158312000Y-48753750D01*
X158312000Y-50373000D01*
X159296250Y-50373000D01*
X159455000Y-50214250D01*
X159455000Y-49767804D01*
X165887409Y-49767804D01*
X166780000Y-50660395D01*
X167672591Y-49767804D01*
X167587533Y-49512461D01*
X167018035Y-49304484D01*
X166412300Y-49330277D01*
X165972467Y-49512461D01*
X165887409Y-49767804D01*
X159455000Y-49767804D01*
X159455000Y-49103691D01*
X159358327Y-48870302D01*
X159179699Y-48691673D01*
X158946310Y-48595000D01*
X158470750Y-48595000D01*
X158312000Y-48753750D01*
X158058000Y-48753750D01*
X157899250Y-48595000D01*
X157423690Y-48595000D01*
X157190301Y-48691673D01*
X157185000Y-48696974D01*
X157179699Y-48691673D01*
X156946310Y-48595000D01*
X156470750Y-48595000D01*
X156312000Y-48753750D01*
X156058000Y-48753750D01*
X155899250Y-48595000D01*
X155423690Y-48595000D01*
X155190301Y-48691673D01*
X155011673Y-48870302D01*
X154915000Y-49103691D01*
X150955000Y-49103691D01*
X150858327Y-48870302D01*
X150679699Y-48691673D01*
X150446310Y-48595000D01*
X149970750Y-48595000D01*
X149812000Y-48753750D01*
X149558000Y-48753750D01*
X149399250Y-48595000D01*
X149086000Y-48595000D01*
X149086000Y-46987025D01*
X149119302Y-47020327D01*
X149352691Y-47117000D01*
X149955250Y-47117000D01*
X150114000Y-46958250D01*
X150114000Y-44577000D01*
X150368000Y-44577000D01*
X150368000Y-46958250D01*
X150526750Y-47117000D01*
X151129309Y-47117000D01*
X151362698Y-47020327D01*
X151541327Y-46841699D01*
X151638000Y-46608310D01*
X151638000Y-45967265D01*
X167974670Y-45967265D01*
X168264078Y-46667686D01*
X168799495Y-47204039D01*
X169499410Y-47494668D01*
X170257265Y-47495330D01*
X170957686Y-47205922D01*
X171494039Y-46670505D01*
X171784668Y-45970590D01*
X171785330Y-45212735D01*
X171557852Y-44662196D01*
X173137409Y-44662196D01*
X173222467Y-44917539D01*
X173791965Y-45125516D01*
X174397700Y-45099723D01*
X174837533Y-44917539D01*
X174922591Y-44662196D01*
X174030000Y-43769605D01*
X173137409Y-44662196D01*
X171557852Y-44662196D01*
X171495922Y-44512314D01*
X170960505Y-43975961D01*
X170260590Y-43685332D01*
X169502735Y-43684670D01*
X168802314Y-43974078D01*
X168265961Y-44509495D01*
X167975332Y-45209410D01*
X167974670Y-45967265D01*
X151638000Y-45967265D01*
X151638000Y-44735750D01*
X151479250Y-44577000D01*
X150368000Y-44577000D01*
X150114000Y-44577000D01*
X150094000Y-44577000D01*
X150094000Y-44323000D01*
X150114000Y-44323000D01*
X150114000Y-44303000D01*
X150368000Y-44303000D01*
X150368000Y-44323000D01*
X151479250Y-44323000D01*
X151638000Y-44164250D01*
X151638000Y-42620000D01*
X172880392Y-42620000D01*
X172957802Y-42697410D01*
X172702461Y-42782467D01*
X172494484Y-43351965D01*
X172520277Y-43957700D01*
X172702461Y-44397533D01*
X172957804Y-44482591D01*
X173850395Y-43590000D01*
X173836253Y-43575858D01*
X174015858Y-43396253D01*
X174030000Y-43410395D01*
X174044143Y-43396253D01*
X174223748Y-43575858D01*
X174209605Y-43590000D01*
X175102196Y-44482591D01*
X175231977Y-44439359D01*
X175237262Y-44452149D01*
X175665596Y-44881231D01*
X176225528Y-45113735D01*
X176254660Y-45113760D01*
X168304224Y-53064196D01*
X168304264Y-53018112D01*
X168072738Y-52457775D01*
X167644404Y-52028693D01*
X167635075Y-52024819D01*
X167672591Y-51912196D01*
X166780000Y-51019605D01*
X165887409Y-51912196D01*
X165924762Y-52024330D01*
X165917851Y-52027186D01*
X165488769Y-52455520D01*
X165256265Y-53015452D01*
X165255736Y-53621736D01*
X165487262Y-54182073D01*
X165884775Y-54580280D01*
X165488769Y-54975596D01*
X165256265Y-55535528D01*
X165255761Y-56112659D01*
X157855266Y-63513154D01*
X157631788Y-63605493D01*
X157356460Y-63880341D01*
X157207270Y-64239630D01*
X157206931Y-64628663D01*
X157300000Y-64853908D01*
X157300000Y-74636286D01*
X157193100Y-74705074D01*
X157179699Y-74691673D01*
X156946310Y-74595000D01*
X156470750Y-74595000D01*
X156312000Y-74753750D01*
X156312000Y-76373000D01*
X156332000Y-76373000D01*
X156332000Y-76627000D01*
X156312000Y-76627000D01*
X156312000Y-78246250D01*
X156470750Y-78405000D01*
X156946310Y-78405000D01*
X157179699Y-78308327D01*
X157193246Y-78294780D01*
X157298110Y-78366431D01*
X157550000Y-78417440D01*
X158215861Y-78417440D01*
X158393154Y-78594733D01*
X158485493Y-78818212D01*
X158760341Y-79093540D01*
X159119630Y-79242730D01*
X159508663Y-79243069D01*
X159733908Y-79150000D01*
X168622962Y-79150000D01*
X168641838Y-79250317D01*
X168780910Y-79466441D01*
X168993110Y-79611431D01*
X169025000Y-79617889D01*
X169025000Y-80148156D01*
X168958559Y-80190910D01*
X168912031Y-80259006D01*
X168769698Y-80116673D01*
X168536309Y-80020000D01*
X168195750Y-80020000D01*
X168037000Y-80178750D01*
X168037000Y-81153000D01*
X168057000Y-81153000D01*
X168057000Y-81407000D01*
X168037000Y-81407000D01*
X168037000Y-83058000D01*
X168057000Y-83058000D01*
X168057000Y-83312000D01*
X168037000Y-83312000D01*
X168037000Y-84286250D01*
X168195750Y-84445000D01*
X168536309Y-84445000D01*
X168769698Y-84348327D01*
X168910936Y-84207090D01*
X168945910Y-84261441D01*
X169158110Y-84406431D01*
X169410000Y-84457440D01*
X170410000Y-84457440D01*
X170645317Y-84413162D01*
X170861441Y-84274090D01*
X171006431Y-84061890D01*
X171057440Y-83810000D01*
X171057440Y-82560000D01*
X171013162Y-82324683D01*
X170954293Y-82233197D01*
X171006431Y-82156890D01*
X171057440Y-81905000D01*
X171057440Y-80655000D01*
X171013162Y-80419683D01*
X170874090Y-80203559D01*
X170795000Y-80149519D01*
X170795000Y-79662440D01*
X171115000Y-79662440D01*
X171350317Y-79618162D01*
X171440980Y-79559822D01*
X171658690Y-79650000D01*
X171799250Y-79650000D01*
X171818712Y-79630538D01*
X171742270Y-79814630D01*
X171741931Y-80203663D01*
X171890493Y-80563212D01*
X172165341Y-80838540D01*
X172524630Y-80987730D01*
X172913663Y-80988069D01*
X173273212Y-80839507D01*
X173548540Y-80564659D01*
X173697730Y-80205370D01*
X173697854Y-80063642D01*
X181767106Y-88132894D01*
X181997835Y-88287063D01*
X182270000Y-88341200D01*
X182536437Y-88341200D01*
X182564990Y-88410303D01*
X182957630Y-88803629D01*
X183165512Y-88889949D01*
X182959697Y-88974990D01*
X182566371Y-89367630D01*
X182353243Y-89880900D01*
X182352758Y-90436661D01*
X182378134Y-90498077D01*
X180877412Y-91998800D01*
X174661794Y-91998800D01*
X174544659Y-91881460D01*
X174185370Y-91732270D01*
X173796337Y-91731931D01*
X173436788Y-91880493D01*
X173161460Y-92155341D01*
X173012270Y-92514630D01*
X173011931Y-92903663D01*
X173160493Y-93263212D01*
X173435341Y-93538540D01*
X173794630Y-93687730D01*
X174183663Y-93688069D01*
X174543212Y-93539507D01*
X174661726Y-93421200D01*
X177201484Y-93421200D01*
X177022783Y-93540604D01*
X170256200Y-100307188D01*
X170256200Y-92746794D01*
X170373540Y-92629659D01*
X170522730Y-92270370D01*
X170523069Y-91881337D01*
X170451996Y-91709327D01*
X170665200Y-91566870D01*
X171091661Y-91567242D01*
X171605303Y-91355010D01*
X171810457Y-91150213D01*
X172554392Y-91150213D01*
X172623857Y-91392397D01*
X173147302Y-91579144D01*
X173702368Y-91551362D01*
X174086143Y-91392397D01*
X174155608Y-91150213D01*
X173355000Y-90349605D01*
X172554392Y-91150213D01*
X171810457Y-91150213D01*
X171998629Y-90962370D01*
X172078395Y-90770273D01*
X172132603Y-90901143D01*
X172374787Y-90970608D01*
X173175395Y-90170000D01*
X173534605Y-90170000D01*
X174335213Y-90970608D01*
X174577397Y-90901143D01*
X174764144Y-90377698D01*
X174736362Y-89822632D01*
X174577397Y-89438857D01*
X174335213Y-89369392D01*
X173534605Y-90170000D01*
X173175395Y-90170000D01*
X172374787Y-89369392D01*
X172132603Y-89438857D01*
X172082491Y-89579318D01*
X172000010Y-89379697D01*
X171810432Y-89189787D01*
X172554392Y-89189787D01*
X173355000Y-89990395D01*
X174155608Y-89189787D01*
X174086143Y-88947603D01*
X173562698Y-88760856D01*
X173007632Y-88788638D01*
X172623857Y-88947603D01*
X172554392Y-89189787D01*
X171810432Y-89189787D01*
X171607370Y-88986371D01*
X171094100Y-88773243D01*
X170538339Y-88772758D01*
X170024697Y-88984990D01*
X169631371Y-89377630D01*
X169545051Y-89585512D01*
X169460010Y-89379697D01*
X169067370Y-88986371D01*
X168554100Y-88773243D01*
X167998339Y-88772758D01*
X167484697Y-88984990D01*
X167251219Y-89218061D01*
X166475835Y-88442676D01*
X166430264Y-88374475D01*
X165436894Y-87381106D01*
X165206165Y-87226937D01*
X164934000Y-87172800D01*
X163362588Y-87172800D01*
X159660538Y-83470750D01*
X166775000Y-83470750D01*
X166775000Y-83936310D01*
X166871673Y-84169699D01*
X167050302Y-84348327D01*
X167283691Y-84445000D01*
X167624250Y-84445000D01*
X167783000Y-84286250D01*
X167783000Y-83312000D01*
X166933750Y-83312000D01*
X166775000Y-83470750D01*
X159660538Y-83470750D01*
X157755538Y-81565750D01*
X166775000Y-81565750D01*
X166775000Y-82031310D01*
X166858336Y-82232500D01*
X166775000Y-82433690D01*
X166775000Y-82899250D01*
X166933750Y-83058000D01*
X167783000Y-83058000D01*
X167783000Y-81407000D01*
X166933750Y-81407000D01*
X166775000Y-81565750D01*
X157755538Y-81565750D01*
X156718478Y-80528690D01*
X166775000Y-80528690D01*
X166775000Y-80994250D01*
X166933750Y-81153000D01*
X167783000Y-81153000D01*
X167783000Y-80178750D01*
X167624250Y-80020000D01*
X167283691Y-80020000D01*
X167050302Y-80116673D01*
X166871673Y-80295301D01*
X166775000Y-80528690D01*
X156718478Y-80528690D01*
X154896200Y-78706412D01*
X154896200Y-78403102D01*
X155055317Y-78373162D01*
X155176900Y-78294926D01*
X155190301Y-78308327D01*
X155423690Y-78405000D01*
X155899250Y-78405000D01*
X156058000Y-78246250D01*
X156058000Y-76627000D01*
X156038000Y-76627000D01*
X156038000Y-76373000D01*
X156058000Y-76373000D01*
X156058000Y-74753750D01*
X155899250Y-74595000D01*
X155423690Y-74595000D01*
X155190301Y-74691673D01*
X155176754Y-74705220D01*
X155071890Y-74633569D01*
X154820000Y-74582560D01*
X153550000Y-74582560D01*
X153314683Y-74626838D01*
X153184573Y-74710562D01*
X153071890Y-74633569D01*
X152820000Y-74582560D01*
X151550000Y-74582560D01*
X151314683Y-74626838D01*
X151184573Y-74710562D01*
X151071890Y-74633569D01*
X150820000Y-74582560D01*
X149550000Y-74582560D01*
X149314683Y-74626838D01*
X149184573Y-74710562D01*
X149071890Y-74633569D01*
X148820000Y-74582560D01*
X147550000Y-74582560D01*
X147314683Y-74626838D01*
X147184573Y-74710562D01*
X147071890Y-74633569D01*
X146820000Y-74582560D01*
X146693143Y-74582560D01*
X146687895Y-74574706D01*
X146478018Y-74364829D01*
X146478069Y-74306337D01*
X146329507Y-73946788D01*
X146054659Y-73671460D01*
X145806069Y-73568237D01*
X146641381Y-72732925D01*
X146807181Y-72733069D01*
X147166730Y-72584507D01*
X147442058Y-72309659D01*
X147591248Y-71950370D01*
X147591587Y-71561337D01*
X147443025Y-71201788D01*
X147168177Y-70926460D01*
X146808888Y-70777270D01*
X146419855Y-70776931D01*
X146060306Y-70925493D01*
X145784978Y-71200341D01*
X145635788Y-71559630D01*
X145635642Y-71727088D01*
X142780170Y-74582560D01*
X141550000Y-74582560D01*
X141314683Y-74626838D01*
X141184573Y-74710562D01*
X141071890Y-74633569D01*
X141046200Y-74628367D01*
X141046200Y-73061794D01*
X141163540Y-72944659D01*
X141312730Y-72585370D01*
X141313069Y-72196337D01*
X141164507Y-71836788D01*
X140889659Y-71561460D01*
X140530370Y-71412270D01*
X140141337Y-71411931D01*
X139781788Y-71560493D01*
X139506460Y-71835341D01*
X139357270Y-72194630D01*
X139356931Y-72583663D01*
X139426111Y-72751092D01*
X139260370Y-72682270D01*
X138871337Y-72681931D01*
X138511788Y-72830493D01*
X138236460Y-73105341D01*
X138087270Y-73464630D01*
X138087124Y-73632088D01*
X137682106Y-74037106D01*
X137527937Y-74267835D01*
X137473800Y-74540000D01*
X137473800Y-74596898D01*
X137314683Y-74626838D01*
X137184573Y-74710562D01*
X137071890Y-74633569D01*
X136820000Y-74582560D01*
X135550000Y-74582560D01*
X135314683Y-74626838D01*
X135184573Y-74710562D01*
X135071890Y-74633569D01*
X134820000Y-74582560D01*
X133550000Y-74582560D01*
X133314683Y-74626838D01*
X133098559Y-74765910D01*
X132953569Y-74978110D01*
X132902560Y-75230000D01*
X132902560Y-77165861D01*
X129780000Y-80288420D01*
X127865790Y-78374210D01*
X127865787Y-78374208D01*
X127859790Y-78368210D01*
X127742440Y-78289800D01*
X127572675Y-78176367D01*
X127516484Y-78165190D01*
X127234000Y-78108999D01*
X127233995Y-78109000D01*
X124280478Y-78109000D01*
X123982370Y-77810371D01*
X123469100Y-77597243D01*
X122913339Y-77596758D01*
X122399697Y-77808990D01*
X122006371Y-78201630D01*
X121920051Y-78409512D01*
X121835010Y-78203697D01*
X121442370Y-77810371D01*
X120929100Y-77597243D01*
X120373339Y-77596758D01*
X119859697Y-77808990D01*
X119466371Y-78201630D01*
X119380051Y-78409512D01*
X119295010Y-78203697D01*
X118902370Y-77810371D01*
X118389100Y-77597243D01*
X117833339Y-77596758D01*
X117319697Y-77808990D01*
X116926371Y-78201630D01*
X116840051Y-78409512D01*
X116755010Y-78203697D01*
X116362370Y-77810371D01*
X115849100Y-77597243D01*
X115293339Y-77596758D01*
X114779697Y-77808990D01*
X114386371Y-78201630D01*
X114173243Y-78714900D01*
X114172758Y-79270661D01*
X114212730Y-79367401D01*
X113575069Y-79367401D01*
X113302904Y-79421538D01*
X113072175Y-79575707D01*
X109930000Y-82717882D01*
X109930000Y-63371736D01*
X114085736Y-63371736D01*
X114317262Y-63932073D01*
X114745596Y-64361155D01*
X115305528Y-64593659D01*
X115911812Y-64594188D01*
X116472149Y-64362662D01*
X116860301Y-63975187D01*
X117245596Y-64361155D01*
X117805528Y-64593659D01*
X118411812Y-64594188D01*
X118972149Y-64362662D01*
X119193076Y-64142120D01*
X119717409Y-64142120D01*
X119802467Y-64397463D01*
X120371965Y-64605440D01*
X120977700Y-64579647D01*
X121417533Y-64397463D01*
X121502591Y-64142120D01*
X120610000Y-63249529D01*
X119717409Y-64142120D01*
X119193076Y-64142120D01*
X119401231Y-63934328D01*
X119407544Y-63919124D01*
X119537804Y-63962515D01*
X120430395Y-63069924D01*
X120789605Y-63069924D01*
X121682196Y-63962515D01*
X121937539Y-63877457D01*
X122145516Y-63307959D01*
X122119723Y-62702224D01*
X121937539Y-62262391D01*
X121682196Y-62177333D01*
X120789605Y-63069924D01*
X120430395Y-63069924D01*
X119537804Y-62177333D01*
X119408023Y-62220565D01*
X119402738Y-62207775D01*
X119193058Y-61997728D01*
X119717409Y-61997728D01*
X120610000Y-62890319D01*
X121502591Y-61997728D01*
X121417533Y-61742385D01*
X120848035Y-61534408D01*
X120242300Y-61560201D01*
X119802467Y-61742385D01*
X119717409Y-61997728D01*
X119193058Y-61997728D01*
X118974404Y-61778693D01*
X118414472Y-61546189D01*
X117808188Y-61545660D01*
X117247851Y-61777186D01*
X116859699Y-62164661D01*
X116474404Y-61778693D01*
X115914472Y-61546189D01*
X115308188Y-61545660D01*
X114747851Y-61777186D01*
X114318769Y-62205520D01*
X114086265Y-62765452D01*
X114085736Y-63371736D01*
X109930000Y-63371736D01*
X109930000Y-62233682D01*
X110379495Y-62683963D01*
X111079410Y-62974592D01*
X111837265Y-62975254D01*
X112537686Y-62685846D01*
X113074039Y-62150429D01*
X113364668Y-61450514D01*
X113364670Y-61447189D01*
X122854670Y-61447189D01*
X123144078Y-62147610D01*
X123679495Y-62683963D01*
X124379410Y-62974592D01*
X125137265Y-62975254D01*
X125837686Y-62685846D01*
X126374039Y-62150429D01*
X126664668Y-61450514D01*
X126665330Y-60692659D01*
X126375922Y-59992238D01*
X125840505Y-59455885D01*
X125140590Y-59165256D01*
X124382735Y-59164594D01*
X123682314Y-59454002D01*
X123145961Y-59989419D01*
X122855332Y-60689334D01*
X122854670Y-61447189D01*
X113364670Y-61447189D01*
X113365330Y-60692659D01*
X113075922Y-59992238D01*
X112540505Y-59455885D01*
X111840590Y-59165256D01*
X111082735Y-59164594D01*
X110382314Y-59454002D01*
X109930000Y-59905527D01*
X109930000Y-56892120D01*
X126967409Y-56892120D01*
X127052467Y-57147463D01*
X127621965Y-57355440D01*
X128227700Y-57329647D01*
X128667533Y-57147463D01*
X128752591Y-56892120D01*
X127860000Y-55999529D01*
X126967409Y-56892120D01*
X109930000Y-56892120D01*
X109930000Y-55581889D01*
X126324484Y-55581889D01*
X126350277Y-56187624D01*
X126532461Y-56627457D01*
X126787804Y-56712515D01*
X127680395Y-55819924D01*
X126787804Y-54927333D01*
X126532461Y-55012391D01*
X126324484Y-55581889D01*
X109930000Y-55581889D01*
X109930000Y-51121736D01*
X126335736Y-51121736D01*
X126567262Y-51682073D01*
X126964775Y-52080280D01*
X126568769Y-52475596D01*
X126336265Y-53035528D01*
X126335736Y-53641812D01*
X126567262Y-54202149D01*
X126995596Y-54631231D01*
X127004925Y-54635105D01*
X126967409Y-54747728D01*
X127860000Y-55640319D01*
X127874143Y-55626177D01*
X128053748Y-55805782D01*
X128039605Y-55819924D01*
X128932196Y-56712515D01*
X129187539Y-56627457D01*
X129395516Y-56057959D01*
X129387659Y-55873447D01*
X138988800Y-65474589D01*
X138988800Y-66003206D01*
X138871460Y-66120341D01*
X138722270Y-66479630D01*
X138721931Y-66868663D01*
X138870493Y-67228212D01*
X139145341Y-67503540D01*
X139504630Y-67652730D01*
X139893663Y-67653069D01*
X140253212Y-67504507D01*
X140528540Y-67229659D01*
X140677730Y-66870370D01*
X140678069Y-66481337D01*
X140529507Y-66121788D01*
X140411200Y-66003274D01*
X140411200Y-65180000D01*
X140357063Y-64907836D01*
X140267419Y-64773674D01*
X140202895Y-64677106D01*
X129321101Y-53795312D01*
X129383735Y-53644472D01*
X129384264Y-53038188D01*
X129152738Y-52477851D01*
X128755225Y-52079644D01*
X129151231Y-51684328D01*
X129383735Y-51124396D01*
X129384030Y-50785750D01*
X134915000Y-50785750D01*
X134915000Y-51896309D01*
X135011673Y-52129698D01*
X135190301Y-52308327D01*
X135423690Y-52405000D01*
X135899250Y-52405000D01*
X136058000Y-52246250D01*
X136058000Y-50627000D01*
X136312000Y-50627000D01*
X136312000Y-52246250D01*
X136470750Y-52405000D01*
X136946310Y-52405000D01*
X137179699Y-52308327D01*
X137185000Y-52303026D01*
X137190301Y-52308327D01*
X137423690Y-52405000D01*
X137899250Y-52405000D01*
X138058000Y-52246250D01*
X138058000Y-50627000D01*
X138312000Y-50627000D01*
X138312000Y-52246250D01*
X138470750Y-52405000D01*
X138946310Y-52405000D01*
X139179699Y-52308327D01*
X139358327Y-52129698D01*
X139455000Y-51896309D01*
X139455000Y-50785750D01*
X144415000Y-50785750D01*
X144415000Y-51896309D01*
X144511673Y-52129698D01*
X144690301Y-52308327D01*
X144923690Y-52405000D01*
X145399250Y-52405000D01*
X145558000Y-52246250D01*
X145558000Y-50627000D01*
X144573750Y-50627000D01*
X144415000Y-50785750D01*
X139455000Y-50785750D01*
X139296250Y-50627000D01*
X138312000Y-50627000D01*
X138058000Y-50627000D01*
X136312000Y-50627000D01*
X136058000Y-50627000D01*
X135073750Y-50627000D01*
X134915000Y-50785750D01*
X129384030Y-50785750D01*
X129384264Y-50518112D01*
X129152738Y-49957775D01*
X128724404Y-49528693D01*
X128164472Y-49296189D01*
X127558188Y-49295660D01*
X126997851Y-49527186D01*
X126568769Y-49955520D01*
X126336265Y-50515452D01*
X126335736Y-51121736D01*
X109930000Y-51121736D01*
X109930000Y-49103691D01*
X134915000Y-49103691D01*
X134915000Y-50214250D01*
X135073750Y-50373000D01*
X136058000Y-50373000D01*
X136058000Y-48753750D01*
X136312000Y-48753750D01*
X136312000Y-50373000D01*
X138058000Y-50373000D01*
X138058000Y-48753750D01*
X138312000Y-48753750D01*
X138312000Y-50373000D01*
X139296250Y-50373000D01*
X139455000Y-50214250D01*
X139455000Y-49103691D01*
X144415000Y-49103691D01*
X144415000Y-50214250D01*
X144573750Y-50373000D01*
X145558000Y-50373000D01*
X145558000Y-48753750D01*
X145399250Y-48595000D01*
X144923690Y-48595000D01*
X144690301Y-48691673D01*
X144511673Y-48870302D01*
X144415000Y-49103691D01*
X139455000Y-49103691D01*
X139358327Y-48870302D01*
X139179699Y-48691673D01*
X138946310Y-48595000D01*
X138470750Y-48595000D01*
X138312000Y-48753750D01*
X138058000Y-48753750D01*
X137899250Y-48595000D01*
X137423690Y-48595000D01*
X137190301Y-48691673D01*
X137185000Y-48696974D01*
X137179699Y-48691673D01*
X136946310Y-48595000D01*
X136470750Y-48595000D01*
X136312000Y-48753750D01*
X136058000Y-48753750D01*
X135899250Y-48595000D01*
X135423690Y-48595000D01*
X135190301Y-48691673D01*
X135011673Y-48870302D01*
X134915000Y-49103691D01*
X109930000Y-49103691D01*
X109930000Y-46733682D01*
X110379495Y-47183963D01*
X111079410Y-47474592D01*
X111837265Y-47475254D01*
X112537686Y-47185846D01*
X113074039Y-46650429D01*
X113364668Y-45950514D01*
X113364670Y-45947189D01*
X122854670Y-45947189D01*
X123144078Y-46647610D01*
X123679495Y-47183963D01*
X124379410Y-47474592D01*
X125137265Y-47475254D01*
X125837686Y-47185846D01*
X126374039Y-46650429D01*
X126664668Y-45950514D01*
X126665330Y-45192659D01*
X126476540Y-44735750D01*
X143764000Y-44735750D01*
X143764000Y-46608310D01*
X143860673Y-46841699D01*
X144039302Y-47020327D01*
X144272691Y-47117000D01*
X144875250Y-47117000D01*
X145034000Y-46958250D01*
X145034000Y-44577000D01*
X143922750Y-44577000D01*
X143764000Y-44735750D01*
X126476540Y-44735750D01*
X126375922Y-44492238D01*
X125840505Y-43955885D01*
X125140590Y-43665256D01*
X124382735Y-43664594D01*
X123682314Y-43954002D01*
X123145961Y-44489419D01*
X122855332Y-45189334D01*
X122854670Y-45947189D01*
X113364670Y-45947189D01*
X113365330Y-45192659D01*
X113075922Y-44492238D01*
X112540505Y-43955885D01*
X111840590Y-43665256D01*
X111082735Y-43664594D01*
X110641179Y-43847041D01*
X110847804Y-43537804D01*
X111849005Y-42868825D01*
X113099931Y-42620000D01*
X143764000Y-42620000D01*
X143764000Y-44164250D01*
X143764000Y-44164250D01*
G37*
X143764000Y-44164250D02*
X143922750Y-44323000D01*
X145034000Y-44323000D01*
X145034000Y-44303000D01*
X145288000Y-44303000D01*
X145288000Y-44323000D01*
X145308000Y-44323000D01*
X145308000Y-44577000D01*
X145288000Y-44577000D01*
X145288000Y-46958250D01*
X145446750Y-47117000D01*
X146049309Y-47117000D01*
X146282698Y-47020327D01*
X146316000Y-46987025D01*
X146316000Y-48595000D01*
X145970750Y-48595000D01*
X145812000Y-48753750D01*
X145812000Y-50373000D01*
X145832000Y-50373000D01*
X145832000Y-50627000D01*
X145812000Y-50627000D01*
X145812000Y-52246250D01*
X145970750Y-52405000D01*
X146446310Y-52405000D01*
X146679699Y-52308327D01*
X146693246Y-52294780D01*
X146798110Y-52366431D01*
X147050000Y-52417440D01*
X148320000Y-52417440D01*
X148555317Y-52373162D01*
X148676900Y-52294926D01*
X148690301Y-52308327D01*
X148923690Y-52405000D01*
X149399250Y-52405000D01*
X149558000Y-52246250D01*
X149558000Y-50627000D01*
X149812000Y-50627000D01*
X149812000Y-52246250D01*
X149970750Y-52405000D01*
X150446310Y-52405000D01*
X150679699Y-52308327D01*
X150858327Y-52129698D01*
X150955000Y-51896309D01*
X150955000Y-50785750D01*
X154915000Y-50785750D01*
X154915000Y-51896309D01*
X155011673Y-52129698D01*
X155190301Y-52308327D01*
X155423690Y-52405000D01*
X155899250Y-52405000D01*
X156058000Y-52246250D01*
X156058000Y-50627000D01*
X156312000Y-50627000D01*
X156312000Y-52246250D01*
X156470750Y-52405000D01*
X156946310Y-52405000D01*
X157179699Y-52308327D01*
X157185000Y-52303026D01*
X157190301Y-52308327D01*
X157423690Y-52405000D01*
X157899250Y-52405000D01*
X158058000Y-52246250D01*
X158058000Y-50627000D01*
X158312000Y-50627000D01*
X158312000Y-52246250D01*
X158470750Y-52405000D01*
X158946310Y-52405000D01*
X159179699Y-52308327D01*
X159358327Y-52129698D01*
X159455000Y-51896309D01*
X159455000Y-50785750D01*
X159296250Y-50627000D01*
X158312000Y-50627000D01*
X158058000Y-50627000D01*
X156312000Y-50627000D01*
X156058000Y-50627000D01*
X155073750Y-50627000D01*
X154915000Y-50785750D01*
X150955000Y-50785750D01*
X150796250Y-50627000D01*
X149812000Y-50627000D01*
X149558000Y-50627000D01*
X149538000Y-50627000D01*
X149538000Y-50601965D01*
X165244484Y-50601965D01*
X165270277Y-51207700D01*
X165452461Y-51647533D01*
X165707804Y-51732591D01*
X166600395Y-50840000D01*
X166959605Y-50840000D01*
X167852196Y-51732591D01*
X168107539Y-51647533D01*
X168315516Y-51078035D01*
X168289723Y-50472300D01*
X168107539Y-50032467D01*
X167852196Y-49947409D01*
X166959605Y-50840000D01*
X166600395Y-50840000D01*
X165707804Y-49947409D01*
X165452461Y-50032467D01*
X165244484Y-50601965D01*
X149538000Y-50601965D01*
X149538000Y-50373000D01*
X149558000Y-50373000D01*
X149558000Y-48753750D01*
X149812000Y-48753750D01*
X149812000Y-50373000D01*
X150796250Y-50373000D01*
X150955000Y-50214250D01*
X150955000Y-49103691D01*
X154915000Y-49103691D01*
X154915000Y-50214250D01*
X155073750Y-50373000D01*
X156058000Y-50373000D01*
X156058000Y-48753750D01*
X156312000Y-48753750D01*
X156312000Y-50373000D01*
X158058000Y-50373000D01*
X158058000Y-48753750D01*
X158312000Y-48753750D01*
X158312000Y-50373000D01*
X159296250Y-50373000D01*
X159455000Y-50214250D01*
X159455000Y-49767804D01*
X165887409Y-49767804D01*
X166780000Y-50660395D01*
X167672591Y-49767804D01*
X167587533Y-49512461D01*
X167018035Y-49304484D01*
X166412300Y-49330277D01*
X165972467Y-49512461D01*
X165887409Y-49767804D01*
X159455000Y-49767804D01*
X159455000Y-49103691D01*
X159358327Y-48870302D01*
X159179699Y-48691673D01*
X158946310Y-48595000D01*
X158470750Y-48595000D01*
X158312000Y-48753750D01*
X158058000Y-48753750D01*
X157899250Y-48595000D01*
X157423690Y-48595000D01*
X157190301Y-48691673D01*
X157185000Y-48696974D01*
X157179699Y-48691673D01*
X156946310Y-48595000D01*
X156470750Y-48595000D01*
X156312000Y-48753750D01*
X156058000Y-48753750D01*
X155899250Y-48595000D01*
X155423690Y-48595000D01*
X155190301Y-48691673D01*
X155011673Y-48870302D01*
X154915000Y-49103691D01*
X150955000Y-49103691D01*
X150858327Y-48870302D01*
X150679699Y-48691673D01*
X150446310Y-48595000D01*
X149970750Y-48595000D01*
X149812000Y-48753750D01*
X149558000Y-48753750D01*
X149399250Y-48595000D01*
X149086000Y-48595000D01*
X149086000Y-46987025D01*
X149119302Y-47020327D01*
X149352691Y-47117000D01*
X149955250Y-47117000D01*
X150114000Y-46958250D01*
X150114000Y-44577000D01*
X150368000Y-44577000D01*
X150368000Y-46958250D01*
X150526750Y-47117000D01*
X151129309Y-47117000D01*
X151362698Y-47020327D01*
X151541327Y-46841699D01*
X151638000Y-46608310D01*
X151638000Y-45967265D01*
X167974670Y-45967265D01*
X168264078Y-46667686D01*
X168799495Y-47204039D01*
X169499410Y-47494668D01*
X170257265Y-47495330D01*
X170957686Y-47205922D01*
X171494039Y-46670505D01*
X171784668Y-45970590D01*
X171785330Y-45212735D01*
X171557852Y-44662196D01*
X173137409Y-44662196D01*
X173222467Y-44917539D01*
X173791965Y-45125516D01*
X174397700Y-45099723D01*
X174837533Y-44917539D01*
X174922591Y-44662196D01*
X174030000Y-43769605D01*
X173137409Y-44662196D01*
X171557852Y-44662196D01*
X171495922Y-44512314D01*
X170960505Y-43975961D01*
X170260590Y-43685332D01*
X169502735Y-43684670D01*
X168802314Y-43974078D01*
X168265961Y-44509495D01*
X167975332Y-45209410D01*
X167974670Y-45967265D01*
X151638000Y-45967265D01*
X151638000Y-44735750D01*
X151479250Y-44577000D01*
X150368000Y-44577000D01*
X150114000Y-44577000D01*
X150094000Y-44577000D01*
X150094000Y-44323000D01*
X150114000Y-44323000D01*
X150114000Y-44303000D01*
X150368000Y-44303000D01*
X150368000Y-44323000D01*
X151479250Y-44323000D01*
X151638000Y-44164250D01*
X151638000Y-42620000D01*
X172880392Y-42620000D01*
X172957802Y-42697410D01*
X172702461Y-42782467D01*
X172494484Y-43351965D01*
X172520277Y-43957700D01*
X172702461Y-44397533D01*
X172957804Y-44482591D01*
X173850395Y-43590000D01*
X173836253Y-43575858D01*
X174015858Y-43396253D01*
X174030000Y-43410395D01*
X174044143Y-43396253D01*
X174223748Y-43575858D01*
X174209605Y-43590000D01*
X175102196Y-44482591D01*
X175231977Y-44439359D01*
X175237262Y-44452149D01*
X175665596Y-44881231D01*
X176225528Y-45113735D01*
X176254660Y-45113760D01*
X168304224Y-53064196D01*
X168304264Y-53018112D01*
X168072738Y-52457775D01*
X167644404Y-52028693D01*
X167635075Y-52024819D01*
X167672591Y-51912196D01*
X166780000Y-51019605D01*
X165887409Y-51912196D01*
X165924762Y-52024330D01*
X165917851Y-52027186D01*
X165488769Y-52455520D01*
X165256265Y-53015452D01*
X165255736Y-53621736D01*
X165487262Y-54182073D01*
X165884775Y-54580280D01*
X165488769Y-54975596D01*
X165256265Y-55535528D01*
X165255761Y-56112659D01*
X157855266Y-63513154D01*
X157631788Y-63605493D01*
X157356460Y-63880341D01*
X157207270Y-64239630D01*
X157206931Y-64628663D01*
X157300000Y-64853908D01*
X157300000Y-74636286D01*
X157193100Y-74705074D01*
X157179699Y-74691673D01*
X156946310Y-74595000D01*
X156470750Y-74595000D01*
X156312000Y-74753750D01*
X156312000Y-76373000D01*
X156332000Y-76373000D01*
X156332000Y-76627000D01*
X156312000Y-76627000D01*
X156312000Y-78246250D01*
X156470750Y-78405000D01*
X156946310Y-78405000D01*
X157179699Y-78308327D01*
X157193246Y-78294780D01*
X157298110Y-78366431D01*
X157550000Y-78417440D01*
X158215861Y-78417440D01*
X158393154Y-78594733D01*
X158485493Y-78818212D01*
X158760341Y-79093540D01*
X159119630Y-79242730D01*
X159508663Y-79243069D01*
X159733908Y-79150000D01*
X168622962Y-79150000D01*
X168641838Y-79250317D01*
X168780910Y-79466441D01*
X168993110Y-79611431D01*
X169025000Y-79617889D01*
X169025000Y-80148156D01*
X168958559Y-80190910D01*
X168912031Y-80259006D01*
X168769698Y-80116673D01*
X168536309Y-80020000D01*
X168195750Y-80020000D01*
X168037000Y-80178750D01*
X168037000Y-81153000D01*
X168057000Y-81153000D01*
X168057000Y-81407000D01*
X168037000Y-81407000D01*
X168037000Y-83058000D01*
X168057000Y-83058000D01*
X168057000Y-83312000D01*
X168037000Y-83312000D01*
X168037000Y-84286250D01*
X168195750Y-84445000D01*
X168536309Y-84445000D01*
X168769698Y-84348327D01*
X168910936Y-84207090D01*
X168945910Y-84261441D01*
X169158110Y-84406431D01*
X169410000Y-84457440D01*
X170410000Y-84457440D01*
X170645317Y-84413162D01*
X170861441Y-84274090D01*
X171006431Y-84061890D01*
X171057440Y-83810000D01*
X171057440Y-82560000D01*
X171013162Y-82324683D01*
X170954293Y-82233197D01*
X171006431Y-82156890D01*
X171057440Y-81905000D01*
X171057440Y-80655000D01*
X171013162Y-80419683D01*
X170874090Y-80203559D01*
X170795000Y-80149519D01*
X170795000Y-79662440D01*
X171115000Y-79662440D01*
X171350317Y-79618162D01*
X171440980Y-79559822D01*
X171658690Y-79650000D01*
X171799250Y-79650000D01*
X171818712Y-79630538D01*
X171742270Y-79814630D01*
X171741931Y-80203663D01*
X171890493Y-80563212D01*
X172165341Y-80838540D01*
X172524630Y-80987730D01*
X172913663Y-80988069D01*
X173273212Y-80839507D01*
X173548540Y-80564659D01*
X173697730Y-80205370D01*
X173697854Y-80063642D01*
X181767106Y-88132894D01*
X181997835Y-88287063D01*
X182270000Y-88341200D01*
X182536437Y-88341200D01*
X182564990Y-88410303D01*
X182957630Y-88803629D01*
X183165512Y-88889949D01*
X182959697Y-88974990D01*
X182566371Y-89367630D01*
X182353243Y-89880900D01*
X182352758Y-90436661D01*
X182378134Y-90498077D01*
X180877412Y-91998800D01*
X174661794Y-91998800D01*
X174544659Y-91881460D01*
X174185370Y-91732270D01*
X173796337Y-91731931D01*
X173436788Y-91880493D01*
X173161460Y-92155341D01*
X173012270Y-92514630D01*
X173011931Y-92903663D01*
X173160493Y-93263212D01*
X173435341Y-93538540D01*
X173794630Y-93687730D01*
X174183663Y-93688069D01*
X174543212Y-93539507D01*
X174661726Y-93421200D01*
X177201484Y-93421200D01*
X177022783Y-93540604D01*
X170256200Y-100307188D01*
X170256200Y-92746794D01*
X170373540Y-92629659D01*
X170522730Y-92270370D01*
X170523069Y-91881337D01*
X170451996Y-91709327D01*
X170665200Y-91566870D01*
X171091661Y-91567242D01*
X171605303Y-91355010D01*
X171810457Y-91150213D01*
X172554392Y-91150213D01*
X172623857Y-91392397D01*
X173147302Y-91579144D01*
X173702368Y-91551362D01*
X174086143Y-91392397D01*
X174155608Y-91150213D01*
X173355000Y-90349605D01*
X172554392Y-91150213D01*
X171810457Y-91150213D01*
X171998629Y-90962370D01*
X172078395Y-90770273D01*
X172132603Y-90901143D01*
X172374787Y-90970608D01*
X173175395Y-90170000D01*
X173534605Y-90170000D01*
X174335213Y-90970608D01*
X174577397Y-90901143D01*
X174764144Y-90377698D01*
X174736362Y-89822632D01*
X174577397Y-89438857D01*
X174335213Y-89369392D01*
X173534605Y-90170000D01*
X173175395Y-90170000D01*
X172374787Y-89369392D01*
X172132603Y-89438857D01*
X172082491Y-89579318D01*
X172000010Y-89379697D01*
X171810432Y-89189787D01*
X172554392Y-89189787D01*
X173355000Y-89990395D01*
X174155608Y-89189787D01*
X174086143Y-88947603D01*
X173562698Y-88760856D01*
X173007632Y-88788638D01*
X172623857Y-88947603D01*
X172554392Y-89189787D01*
X171810432Y-89189787D01*
X171607370Y-88986371D01*
X171094100Y-88773243D01*
X170538339Y-88772758D01*
X170024697Y-88984990D01*
X169631371Y-89377630D01*
X169545051Y-89585512D01*
X169460010Y-89379697D01*
X169067370Y-88986371D01*
X168554100Y-88773243D01*
X167998339Y-88772758D01*
X167484697Y-88984990D01*
X167251219Y-89218061D01*
X166475835Y-88442676D01*
X166430264Y-88374475D01*
X165436894Y-87381106D01*
X165206165Y-87226937D01*
X164934000Y-87172800D01*
X163362588Y-87172800D01*
X159660538Y-83470750D01*
X166775000Y-83470750D01*
X166775000Y-83936310D01*
X166871673Y-84169699D01*
X167050302Y-84348327D01*
X167283691Y-84445000D01*
X167624250Y-84445000D01*
X167783000Y-84286250D01*
X167783000Y-83312000D01*
X166933750Y-83312000D01*
X166775000Y-83470750D01*
X159660538Y-83470750D01*
X157755538Y-81565750D01*
X166775000Y-81565750D01*
X166775000Y-82031310D01*
X166858336Y-82232500D01*
X166775000Y-82433690D01*
X166775000Y-82899250D01*
X166933750Y-83058000D01*
X167783000Y-83058000D01*
X167783000Y-81407000D01*
X166933750Y-81407000D01*
X166775000Y-81565750D01*
X157755538Y-81565750D01*
X156718478Y-80528690D01*
X166775000Y-80528690D01*
X166775000Y-80994250D01*
X166933750Y-81153000D01*
X167783000Y-81153000D01*
X167783000Y-80178750D01*
X167624250Y-80020000D01*
X167283691Y-80020000D01*
X167050302Y-80116673D01*
X166871673Y-80295301D01*
X166775000Y-80528690D01*
X156718478Y-80528690D01*
X154896200Y-78706412D01*
X154896200Y-78403102D01*
X155055317Y-78373162D01*
X155176900Y-78294926D01*
X155190301Y-78308327D01*
X155423690Y-78405000D01*
X155899250Y-78405000D01*
X156058000Y-78246250D01*
X156058000Y-76627000D01*
X156038000Y-76627000D01*
X156038000Y-76373000D01*
X156058000Y-76373000D01*
X156058000Y-74753750D01*
X155899250Y-74595000D01*
X155423690Y-74595000D01*
X155190301Y-74691673D01*
X155176754Y-74705220D01*
X155071890Y-74633569D01*
X154820000Y-74582560D01*
X153550000Y-74582560D01*
X153314683Y-74626838D01*
X153184573Y-74710562D01*
X153071890Y-74633569D01*
X152820000Y-74582560D01*
X151550000Y-74582560D01*
X151314683Y-74626838D01*
X151184573Y-74710562D01*
X151071890Y-74633569D01*
X150820000Y-74582560D01*
X149550000Y-74582560D01*
X149314683Y-74626838D01*
X149184573Y-74710562D01*
X149071890Y-74633569D01*
X148820000Y-74582560D01*
X147550000Y-74582560D01*
X147314683Y-74626838D01*
X147184573Y-74710562D01*
X147071890Y-74633569D01*
X146820000Y-74582560D01*
X146693143Y-74582560D01*
X146687895Y-74574706D01*
X146478018Y-74364829D01*
X146478069Y-74306337D01*
X146329507Y-73946788D01*
X146054659Y-73671460D01*
X145806069Y-73568237D01*
X146641381Y-72732925D01*
X146807181Y-72733069D01*
X147166730Y-72584507D01*
X147442058Y-72309659D01*
X147591248Y-71950370D01*
X147591587Y-71561337D01*
X147443025Y-71201788D01*
X147168177Y-70926460D01*
X146808888Y-70777270D01*
X146419855Y-70776931D01*
X146060306Y-70925493D01*
X145784978Y-71200341D01*
X145635788Y-71559630D01*
X145635642Y-71727088D01*
X142780170Y-74582560D01*
X141550000Y-74582560D01*
X141314683Y-74626838D01*
X141184573Y-74710562D01*
X141071890Y-74633569D01*
X141046200Y-74628367D01*
X141046200Y-73061794D01*
X141163540Y-72944659D01*
X141312730Y-72585370D01*
X141313069Y-72196337D01*
X141164507Y-71836788D01*
X140889659Y-71561460D01*
X140530370Y-71412270D01*
X140141337Y-71411931D01*
X139781788Y-71560493D01*
X139506460Y-71835341D01*
X139357270Y-72194630D01*
X139356931Y-72583663D01*
X139426111Y-72751092D01*
X139260370Y-72682270D01*
X138871337Y-72681931D01*
X138511788Y-72830493D01*
X138236460Y-73105341D01*
X138087270Y-73464630D01*
X138087124Y-73632088D01*
X137682106Y-74037106D01*
X137527937Y-74267835D01*
X137473800Y-74540000D01*
X137473800Y-74596898D01*
X137314683Y-74626838D01*
X137184573Y-74710562D01*
X137071890Y-74633569D01*
X136820000Y-74582560D01*
X135550000Y-74582560D01*
X135314683Y-74626838D01*
X135184573Y-74710562D01*
X135071890Y-74633569D01*
X134820000Y-74582560D01*
X133550000Y-74582560D01*
X133314683Y-74626838D01*
X133098559Y-74765910D01*
X132953569Y-74978110D01*
X132902560Y-75230000D01*
X132902560Y-77165861D01*
X129780000Y-80288420D01*
X127865790Y-78374210D01*
X127865787Y-78374208D01*
X127859790Y-78368210D01*
X127742440Y-78289800D01*
X127572675Y-78176367D01*
X127516484Y-78165190D01*
X127234000Y-78108999D01*
X127233995Y-78109000D01*
X124280478Y-78109000D01*
X123982370Y-77810371D01*
X123469100Y-77597243D01*
X122913339Y-77596758D01*
X122399697Y-77808990D01*
X122006371Y-78201630D01*
X121920051Y-78409512D01*
X121835010Y-78203697D01*
X121442370Y-77810371D01*
X120929100Y-77597243D01*
X120373339Y-77596758D01*
X119859697Y-77808990D01*
X119466371Y-78201630D01*
X119380051Y-78409512D01*
X119295010Y-78203697D01*
X118902370Y-77810371D01*
X118389100Y-77597243D01*
X117833339Y-77596758D01*
X117319697Y-77808990D01*
X116926371Y-78201630D01*
X116840051Y-78409512D01*
X116755010Y-78203697D01*
X116362370Y-77810371D01*
X115849100Y-77597243D01*
X115293339Y-77596758D01*
X114779697Y-77808990D01*
X114386371Y-78201630D01*
X114173243Y-78714900D01*
X114172758Y-79270661D01*
X114212730Y-79367401D01*
X113575069Y-79367401D01*
X113302904Y-79421538D01*
X113072175Y-79575707D01*
X109930000Y-82717882D01*
X109930000Y-63371736D01*
X114085736Y-63371736D01*
X114317262Y-63932073D01*
X114745596Y-64361155D01*
X115305528Y-64593659D01*
X115911812Y-64594188D01*
X116472149Y-64362662D01*
X116860301Y-63975187D01*
X117245596Y-64361155D01*
X117805528Y-64593659D01*
X118411812Y-64594188D01*
X118972149Y-64362662D01*
X119193076Y-64142120D01*
X119717409Y-64142120D01*
X119802467Y-64397463D01*
X120371965Y-64605440D01*
X120977700Y-64579647D01*
X121417533Y-64397463D01*
X121502591Y-64142120D01*
X120610000Y-63249529D01*
X119717409Y-64142120D01*
X119193076Y-64142120D01*
X119401231Y-63934328D01*
X119407544Y-63919124D01*
X119537804Y-63962515D01*
X120430395Y-63069924D01*
X120789605Y-63069924D01*
X121682196Y-63962515D01*
X121937539Y-63877457D01*
X122145516Y-63307959D01*
X122119723Y-62702224D01*
X121937539Y-62262391D01*
X121682196Y-62177333D01*
X120789605Y-63069924D01*
X120430395Y-63069924D01*
X119537804Y-62177333D01*
X119408023Y-62220565D01*
X119402738Y-62207775D01*
X119193058Y-61997728D01*
X119717409Y-61997728D01*
X120610000Y-62890319D01*
X121502591Y-61997728D01*
X121417533Y-61742385D01*
X120848035Y-61534408D01*
X120242300Y-61560201D01*
X119802467Y-61742385D01*
X119717409Y-61997728D01*
X119193058Y-61997728D01*
X118974404Y-61778693D01*
X118414472Y-61546189D01*
X117808188Y-61545660D01*
X117247851Y-61777186D01*
X116859699Y-62164661D01*
X116474404Y-61778693D01*
X115914472Y-61546189D01*
X115308188Y-61545660D01*
X114747851Y-61777186D01*
X114318769Y-62205520D01*
X114086265Y-62765452D01*
X114085736Y-63371736D01*
X109930000Y-63371736D01*
X109930000Y-62233682D01*
X110379495Y-62683963D01*
X111079410Y-62974592D01*
X111837265Y-62975254D01*
X112537686Y-62685846D01*
X113074039Y-62150429D01*
X113364668Y-61450514D01*
X113364670Y-61447189D01*
X122854670Y-61447189D01*
X123144078Y-62147610D01*
X123679495Y-62683963D01*
X124379410Y-62974592D01*
X125137265Y-62975254D01*
X125837686Y-62685846D01*
X126374039Y-62150429D01*
X126664668Y-61450514D01*
X126665330Y-60692659D01*
X126375922Y-59992238D01*
X125840505Y-59455885D01*
X125140590Y-59165256D01*
X124382735Y-59164594D01*
X123682314Y-59454002D01*
X123145961Y-59989419D01*
X122855332Y-60689334D01*
X122854670Y-61447189D01*
X113364670Y-61447189D01*
X113365330Y-60692659D01*
X113075922Y-59992238D01*
X112540505Y-59455885D01*
X111840590Y-59165256D01*
X111082735Y-59164594D01*
X110382314Y-59454002D01*
X109930000Y-59905527D01*
X109930000Y-56892120D01*
X126967409Y-56892120D01*
X127052467Y-57147463D01*
X127621965Y-57355440D01*
X128227700Y-57329647D01*
X128667533Y-57147463D01*
X128752591Y-56892120D01*
X127860000Y-55999529D01*
X126967409Y-56892120D01*
X109930000Y-56892120D01*
X109930000Y-55581889D01*
X126324484Y-55581889D01*
X126350277Y-56187624D01*
X126532461Y-56627457D01*
X126787804Y-56712515D01*
X127680395Y-55819924D01*
X126787804Y-54927333D01*
X126532461Y-55012391D01*
X126324484Y-55581889D01*
X109930000Y-55581889D01*
X109930000Y-51121736D01*
X126335736Y-51121736D01*
X126567262Y-51682073D01*
X126964775Y-52080280D01*
X126568769Y-52475596D01*
X126336265Y-53035528D01*
X126335736Y-53641812D01*
X126567262Y-54202149D01*
X126995596Y-54631231D01*
X127004925Y-54635105D01*
X126967409Y-54747728D01*
X127860000Y-55640319D01*
X127874143Y-55626177D01*
X128053748Y-55805782D01*
X128039605Y-55819924D01*
X128932196Y-56712515D01*
X129187539Y-56627457D01*
X129395516Y-56057959D01*
X129387659Y-55873447D01*
X138988800Y-65474589D01*
X138988800Y-66003206D01*
X138871460Y-66120341D01*
X138722270Y-66479630D01*
X138721931Y-66868663D01*
X138870493Y-67228212D01*
X139145341Y-67503540D01*
X139504630Y-67652730D01*
X139893663Y-67653069D01*
X140253212Y-67504507D01*
X140528540Y-67229659D01*
X140677730Y-66870370D01*
X140678069Y-66481337D01*
X140529507Y-66121788D01*
X140411200Y-66003274D01*
X140411200Y-65180000D01*
X140357063Y-64907836D01*
X140267419Y-64773674D01*
X140202895Y-64677106D01*
X129321101Y-53795312D01*
X129383735Y-53644472D01*
X129384264Y-53038188D01*
X129152738Y-52477851D01*
X128755225Y-52079644D01*
X129151231Y-51684328D01*
X129383735Y-51124396D01*
X129384030Y-50785750D01*
X134915000Y-50785750D01*
X134915000Y-51896309D01*
X135011673Y-52129698D01*
X135190301Y-52308327D01*
X135423690Y-52405000D01*
X135899250Y-52405000D01*
X136058000Y-52246250D01*
X136058000Y-50627000D01*
X136312000Y-50627000D01*
X136312000Y-52246250D01*
X136470750Y-52405000D01*
X136946310Y-52405000D01*
X137179699Y-52308327D01*
X137185000Y-52303026D01*
X137190301Y-52308327D01*
X137423690Y-52405000D01*
X137899250Y-52405000D01*
X138058000Y-52246250D01*
X138058000Y-50627000D01*
X138312000Y-50627000D01*
X138312000Y-52246250D01*
X138470750Y-52405000D01*
X138946310Y-52405000D01*
X139179699Y-52308327D01*
X139358327Y-52129698D01*
X139455000Y-51896309D01*
X139455000Y-50785750D01*
X144415000Y-50785750D01*
X144415000Y-51896309D01*
X144511673Y-52129698D01*
X144690301Y-52308327D01*
X144923690Y-52405000D01*
X145399250Y-52405000D01*
X145558000Y-52246250D01*
X145558000Y-50627000D01*
X144573750Y-50627000D01*
X144415000Y-50785750D01*
X139455000Y-50785750D01*
X139296250Y-50627000D01*
X138312000Y-50627000D01*
X138058000Y-50627000D01*
X136312000Y-50627000D01*
X136058000Y-50627000D01*
X135073750Y-50627000D01*
X134915000Y-50785750D01*
X129384030Y-50785750D01*
X129384264Y-50518112D01*
X129152738Y-49957775D01*
X128724404Y-49528693D01*
X128164472Y-49296189D01*
X127558188Y-49295660D01*
X126997851Y-49527186D01*
X126568769Y-49955520D01*
X126336265Y-50515452D01*
X126335736Y-51121736D01*
X109930000Y-51121736D01*
X109930000Y-49103691D01*
X134915000Y-49103691D01*
X134915000Y-50214250D01*
X135073750Y-50373000D01*
X136058000Y-50373000D01*
X136058000Y-48753750D01*
X136312000Y-48753750D01*
X136312000Y-50373000D01*
X138058000Y-50373000D01*
X138058000Y-48753750D01*
X138312000Y-48753750D01*
X138312000Y-50373000D01*
X139296250Y-50373000D01*
X139455000Y-50214250D01*
X139455000Y-49103691D01*
X144415000Y-49103691D01*
X144415000Y-50214250D01*
X144573750Y-50373000D01*
X145558000Y-50373000D01*
X145558000Y-48753750D01*
X145399250Y-48595000D01*
X144923690Y-48595000D01*
X144690301Y-48691673D01*
X144511673Y-48870302D01*
X144415000Y-49103691D01*
X139455000Y-49103691D01*
X139358327Y-48870302D01*
X139179699Y-48691673D01*
X138946310Y-48595000D01*
X138470750Y-48595000D01*
X138312000Y-48753750D01*
X138058000Y-48753750D01*
X137899250Y-48595000D01*
X137423690Y-48595000D01*
X137190301Y-48691673D01*
X137185000Y-48696974D01*
X137179699Y-48691673D01*
X136946310Y-48595000D01*
X136470750Y-48595000D01*
X136312000Y-48753750D01*
X136058000Y-48753750D01*
X135899250Y-48595000D01*
X135423690Y-48595000D01*
X135190301Y-48691673D01*
X135011673Y-48870302D01*
X134915000Y-49103691D01*
X109930000Y-49103691D01*
X109930000Y-46733682D01*
X110379495Y-47183963D01*
X111079410Y-47474592D01*
X111837265Y-47475254D01*
X112537686Y-47185846D01*
X113074039Y-46650429D01*
X113364668Y-45950514D01*
X113364670Y-45947189D01*
X122854670Y-45947189D01*
X123144078Y-46647610D01*
X123679495Y-47183963D01*
X124379410Y-47474592D01*
X125137265Y-47475254D01*
X125837686Y-47185846D01*
X126374039Y-46650429D01*
X126664668Y-45950514D01*
X126665330Y-45192659D01*
X126476540Y-44735750D01*
X143764000Y-44735750D01*
X143764000Y-46608310D01*
X143860673Y-46841699D01*
X144039302Y-47020327D01*
X144272691Y-47117000D01*
X144875250Y-47117000D01*
X145034000Y-46958250D01*
X145034000Y-44577000D01*
X143922750Y-44577000D01*
X143764000Y-44735750D01*
X126476540Y-44735750D01*
X126375922Y-44492238D01*
X125840505Y-43955885D01*
X125140590Y-43665256D01*
X124382735Y-43664594D01*
X123682314Y-43954002D01*
X123145961Y-44489419D01*
X122855332Y-45189334D01*
X122854670Y-45947189D01*
X113364670Y-45947189D01*
X113365330Y-45192659D01*
X113075922Y-44492238D01*
X112540505Y-43955885D01*
X111840590Y-43665256D01*
X111082735Y-43664594D01*
X110641179Y-43847041D01*
X110847804Y-43537804D01*
X111849005Y-42868825D01*
X113099931Y-42620000D01*
X143764000Y-42620000D01*
X143764000Y-44164250D01*
G36*
X135021931Y-78693663D02*
X135170493Y-79053212D01*
X135215707Y-79098505D01*
X131132575Y-83181637D01*
X130911823Y-83181445D01*
X130552274Y-83330007D01*
X130276946Y-83604855D01*
X130127756Y-83964144D01*
X130127417Y-84353177D01*
X130275979Y-84712726D01*
X130550827Y-84988054D01*
X130910116Y-85137244D01*
X131176735Y-85137476D01*
X125862106Y-90452106D01*
X125707937Y-90682835D01*
X125700162Y-90721925D01*
X125536460Y-90885341D01*
X125387270Y-91244630D01*
X125387221Y-91300302D01*
X113468090Y-91300302D01*
X112639851Y-90472063D01*
X112686757Y-90359100D01*
X112687242Y-89803339D01*
X112653679Y-89722109D01*
X118612894Y-83762895D01*
X118767062Y-83532165D01*
X118767063Y-83532164D01*
X118821200Y-83260000D01*
X118821200Y-82751695D01*
X118900303Y-82719010D01*
X119293629Y-82326370D01*
X119379949Y-82118488D01*
X119464990Y-82324303D01*
X119857630Y-82717629D01*
X120370900Y-82930757D01*
X120926661Y-82931242D01*
X121440303Y-82719010D01*
X121793000Y-82366928D01*
X121793000Y-82422309D01*
X121889673Y-82655698D01*
X122068301Y-82834327D01*
X122301690Y-82931000D01*
X122904250Y-82931000D01*
X123063000Y-82772250D01*
X123063000Y-81661000D01*
X123317000Y-81661000D01*
X123317000Y-82772250D01*
X123475750Y-82931000D01*
X124078310Y-82931000D01*
X124311699Y-82834327D01*
X124490327Y-82655698D01*
X124587000Y-82422309D01*
X124587000Y-81819750D01*
X124428250Y-81661000D01*
X123317000Y-81661000D01*
X123063000Y-81661000D01*
X123043000Y-81661000D01*
X123043000Y-81407000D01*
X123063000Y-81407000D01*
X123063000Y-81387000D01*
X123317000Y-81387000D01*
X123317000Y-81407000D01*
X124428250Y-81407000D01*
X124587000Y-81248250D01*
X124587000Y-80645691D01*
X124490327Y-80412302D01*
X124311699Y-80233673D01*
X124078310Y-80137000D01*
X124022386Y-80137000D01*
X124280837Y-79879000D01*
X126867420Y-79879000D01*
X128858154Y-81869733D01*
X128950493Y-82093212D01*
X129225341Y-82368540D01*
X129584630Y-82517730D01*
X129973663Y-82518069D01*
X130333212Y-82369507D01*
X130608540Y-82094659D01*
X130702002Y-81869578D01*
X134154139Y-78417440D01*
X134820000Y-78417440D01*
X135022205Y-78379392D01*
X135021931Y-78693663D01*
X135021931Y-78693663D01*
G37*
X135021931Y-78693663D02*
X135170493Y-79053212D01*
X135215707Y-79098505D01*
X131132575Y-83181637D01*
X130911823Y-83181445D01*
X130552274Y-83330007D01*
X130276946Y-83604855D01*
X130127756Y-83964144D01*
X130127417Y-84353177D01*
X130275979Y-84712726D01*
X130550827Y-84988054D01*
X130910116Y-85137244D01*
X131176735Y-85137476D01*
X125862106Y-90452106D01*
X125707937Y-90682835D01*
X125700162Y-90721925D01*
X125536460Y-90885341D01*
X125387270Y-91244630D01*
X125387221Y-91300302D01*
X113468090Y-91300302D01*
X112639851Y-90472063D01*
X112686757Y-90359100D01*
X112687242Y-89803339D01*
X112653679Y-89722109D01*
X118612894Y-83762895D01*
X118767062Y-83532165D01*
X118767063Y-83532164D01*
X118821200Y-83260000D01*
X118821200Y-82751695D01*
X118900303Y-82719010D01*
X119293629Y-82326370D01*
X119379949Y-82118488D01*
X119464990Y-82324303D01*
X119857630Y-82717629D01*
X120370900Y-82930757D01*
X120926661Y-82931242D01*
X121440303Y-82719010D01*
X121793000Y-82366928D01*
X121793000Y-82422309D01*
X121889673Y-82655698D01*
X122068301Y-82834327D01*
X122301690Y-82931000D01*
X122904250Y-82931000D01*
X123063000Y-82772250D01*
X123063000Y-81661000D01*
X123317000Y-81661000D01*
X123317000Y-82772250D01*
X123475750Y-82931000D01*
X124078310Y-82931000D01*
X124311699Y-82834327D01*
X124490327Y-82655698D01*
X124587000Y-82422309D01*
X124587000Y-81819750D01*
X124428250Y-81661000D01*
X123317000Y-81661000D01*
X123063000Y-81661000D01*
X123043000Y-81661000D01*
X123043000Y-81407000D01*
X123063000Y-81407000D01*
X123063000Y-81387000D01*
X123317000Y-81387000D01*
X123317000Y-81407000D01*
X124428250Y-81407000D01*
X124587000Y-81248250D01*
X124587000Y-80645691D01*
X124490327Y-80412302D01*
X124311699Y-80233673D01*
X124078310Y-80137000D01*
X124022386Y-80137000D01*
X124280837Y-79879000D01*
X126867420Y-79879000D01*
X128858154Y-81869733D01*
X128950493Y-82093212D01*
X129225341Y-82368540D01*
X129584630Y-82517730D01*
X129973663Y-82518069D01*
X130333212Y-82369507D01*
X130608540Y-82094659D01*
X130702002Y-81869578D01*
X134154139Y-78417440D01*
X134820000Y-78417440D01*
X135022205Y-78379392D01*
X135021931Y-78693663D01*
G36*
X182790995Y-42868824D02*
X183792196Y-43537804D01*
X184017556Y-43875080D01*
X183560590Y-43685332D01*
X182802735Y-43684670D01*
X182102314Y-43974078D01*
X181565961Y-44509495D01*
X181275332Y-45209410D01*
X181274670Y-45967265D01*
X181564078Y-46667686D01*
X182099495Y-47204039D01*
X182799410Y-47494668D01*
X183557265Y-47495330D01*
X184257686Y-47205922D01*
X184710000Y-46754397D01*
X184710000Y-59926242D01*
X184260505Y-59475961D01*
X183560590Y-59185332D01*
X182802735Y-59184670D01*
X182102314Y-59474078D01*
X181565961Y-60009495D01*
X181275332Y-60709410D01*
X181274670Y-61467265D01*
X181564078Y-62167686D01*
X182099495Y-62704039D01*
X182799410Y-62994668D01*
X183557265Y-62995330D01*
X184257686Y-62705922D01*
X184710000Y-62254397D01*
X184710000Y-76444294D01*
X184542370Y-76276371D01*
X184029100Y-76063243D01*
X183473339Y-76062758D01*
X182959697Y-76274990D01*
X182566371Y-76667630D01*
X182353243Y-77180900D01*
X182352758Y-77736661D01*
X182564990Y-78250303D01*
X182957630Y-78643629D01*
X183165512Y-78729949D01*
X182959697Y-78814990D01*
X182566371Y-79207630D01*
X182353243Y-79720900D01*
X182352758Y-80276661D01*
X182378135Y-80338077D01*
X180855910Y-81860302D01*
X179237852Y-81860302D01*
X179263540Y-81834659D01*
X179412730Y-81475370D01*
X179413069Y-81086337D01*
X179264507Y-80726788D01*
X178989659Y-80451460D01*
X178630370Y-80302270D01*
X178241337Y-80301931D01*
X178054844Y-80378988D01*
X178029485Y-80353629D01*
X178078540Y-80304659D01*
X178227730Y-79945370D01*
X178228056Y-79571194D01*
X178308000Y-79491250D01*
X178308000Y-78392000D01*
X178562000Y-78392000D01*
X178562000Y-79491250D01*
X178720750Y-79650000D01*
X178861310Y-79650000D01*
X179094699Y-79553327D01*
X179273327Y-79374698D01*
X179370000Y-79141309D01*
X179370000Y-78550750D01*
X179211250Y-78392000D01*
X178562000Y-78392000D01*
X178308000Y-78392000D01*
X178288000Y-78392000D01*
X178288000Y-78138000D01*
X178308000Y-78138000D01*
X178308000Y-77038750D01*
X178562000Y-77038750D01*
X178562000Y-78138000D01*
X179211250Y-78138000D01*
X179370000Y-77979250D01*
X179370000Y-77388691D01*
X179273327Y-77155302D01*
X179094699Y-76976673D01*
X178861310Y-76880000D01*
X178720750Y-76880000D01*
X178562000Y-77038750D01*
X178308000Y-77038750D01*
X178149250Y-76880000D01*
X178008690Y-76880000D01*
X177791878Y-76969806D01*
X177716890Y-76918569D01*
X177465000Y-76867560D01*
X176865000Y-76867560D01*
X176629683Y-76911838D01*
X176530472Y-76975678D01*
X176446890Y-76918569D01*
X176195000Y-76867560D01*
X175953348Y-76867560D01*
X175564482Y-76478694D01*
X175333753Y-76324525D01*
X175061588Y-76270388D01*
X164906176Y-76270388D01*
X160997925Y-72362137D01*
X160998069Y-72196337D01*
X160964462Y-72115000D01*
X168597560Y-72115000D01*
X168597560Y-73615000D01*
X168641838Y-73850317D01*
X168780910Y-74066441D01*
X168993110Y-74211431D01*
X169245000Y-74262440D01*
X169845000Y-74262440D01*
X170080317Y-74218162D01*
X170179528Y-74154322D01*
X170263110Y-74211431D01*
X170515000Y-74262440D01*
X171115000Y-74262440D01*
X171350317Y-74218162D01*
X171449528Y-74154322D01*
X171533110Y-74211431D01*
X171785000Y-74262440D01*
X172385000Y-74262440D01*
X172620317Y-74218162D01*
X172719528Y-74154322D01*
X172803110Y-74211431D01*
X173055000Y-74262440D01*
X173655000Y-74262440D01*
X173890317Y-74218162D01*
X173989528Y-74154322D01*
X174073110Y-74211431D01*
X174325000Y-74262440D01*
X174925000Y-74262440D01*
X175160317Y-74218162D01*
X175259528Y-74154322D01*
X175343110Y-74211431D01*
X175595000Y-74262440D01*
X176195000Y-74262440D01*
X176430317Y-74218162D01*
X176529528Y-74154322D01*
X176613110Y-74211431D01*
X176865000Y-74262440D01*
X177465000Y-74262440D01*
X177700317Y-74218162D01*
X177799528Y-74154322D01*
X177883110Y-74211431D01*
X178135000Y-74262440D01*
X178735000Y-74262440D01*
X178970317Y-74218162D01*
X179186441Y-74079090D01*
X179331431Y-73866890D01*
X179382440Y-73615000D01*
X179382440Y-72115000D01*
X179367546Y-72035843D01*
X179581495Y-71821894D01*
X179735664Y-71591164D01*
X179760250Y-71467560D01*
X179789801Y-71318999D01*
X179789801Y-67318601D01*
X179772109Y-67229659D01*
X179735664Y-67046436D01*
X179581495Y-66815707D01*
X179368438Y-66602650D01*
X179371961Y-66597378D01*
X179485000Y-66029093D01*
X179485000Y-65970907D01*
X179371961Y-65402622D01*
X179050054Y-64920853D01*
X178568285Y-64598946D01*
X178000000Y-64485907D01*
X177431715Y-64598946D01*
X176949946Y-64920853D01*
X176730000Y-65250026D01*
X176510054Y-64920853D01*
X176028285Y-64598946D01*
X175460000Y-64485907D01*
X174891715Y-64598946D01*
X174409946Y-64920853D01*
X174190000Y-65250026D01*
X173970054Y-64920853D01*
X173488285Y-64598946D01*
X172920000Y-64485907D01*
X172351715Y-64598946D01*
X171869946Y-64920853D01*
X171650000Y-65250026D01*
X171430054Y-64920853D01*
X170948285Y-64598946D01*
X170380000Y-64485907D01*
X169811715Y-64598946D01*
X169329946Y-64920853D01*
X169008039Y-65402622D01*
X168895000Y-65970907D01*
X168895000Y-66029093D01*
X169008039Y-66597378D01*
X169329946Y-67079147D01*
X169331179Y-67079971D01*
X169294683Y-67086838D01*
X169078559Y-67225910D01*
X168933569Y-67438110D01*
X168882560Y-67690000D01*
X168882560Y-69129868D01*
X168833800Y-69375000D01*
X168833800Y-71625016D01*
X168793559Y-71650910D01*
X168648569Y-71863110D01*
X168597560Y-72115000D01*
X160964462Y-72115000D01*
X160849507Y-71836788D01*
X160574659Y-71561460D01*
X160215370Y-71412270D01*
X160096200Y-71412166D01*
X160096200Y-66334588D01*
X161317863Y-65112925D01*
X161483663Y-65113069D01*
X161843212Y-64964507D01*
X162118540Y-64689659D01*
X162267730Y-64330370D01*
X162268069Y-63941337D01*
X162119507Y-63581788D01*
X161844659Y-63306460D01*
X161485370Y-63157270D01*
X161096337Y-63156931D01*
X160736788Y-63305493D01*
X160461460Y-63580341D01*
X160312270Y-63939630D01*
X160312124Y-64107088D01*
X159070000Y-65349212D01*
X159070000Y-64853688D01*
X159107002Y-64764578D01*
X162404314Y-61467265D01*
X167974670Y-61467265D01*
X168264078Y-62167686D01*
X168799495Y-62704039D01*
X169499410Y-62994668D01*
X170257265Y-62995330D01*
X170957686Y-62705922D01*
X171494039Y-62170505D01*
X171784668Y-61470590D01*
X171785330Y-60712735D01*
X171495922Y-60012314D01*
X170960505Y-59475961D01*
X170260590Y-59185332D01*
X169502735Y-59184670D01*
X168802314Y-59474078D01*
X168265961Y-60009495D01*
X167975332Y-60709410D01*
X167974670Y-61467265D01*
X162404314Y-61467265D01*
X166507816Y-57363763D01*
X167081812Y-57364264D01*
X167642149Y-57132738D01*
X168071231Y-56704404D01*
X168303735Y-56144472D01*
X168304239Y-55567341D01*
X178757816Y-45113763D01*
X179331812Y-45114264D01*
X179892149Y-44882738D01*
X180321231Y-44454404D01*
X180553735Y-43894472D01*
X180554264Y-43288188D01*
X180322738Y-42727851D01*
X180215075Y-42620000D01*
X181540069Y-42620000D01*
X182790995Y-42868824D01*
X182790995Y-42868824D01*
G37*
X182790995Y-42868824D02*
X183792196Y-43537804D01*
X184017556Y-43875080D01*
X183560590Y-43685332D01*
X182802735Y-43684670D01*
X182102314Y-43974078D01*
X181565961Y-44509495D01*
X181275332Y-45209410D01*
X181274670Y-45967265D01*
X181564078Y-46667686D01*
X182099495Y-47204039D01*
X182799410Y-47494668D01*
X183557265Y-47495330D01*
X184257686Y-47205922D01*
X184710000Y-46754397D01*
X184710000Y-59926242D01*
X184260505Y-59475961D01*
X183560590Y-59185332D01*
X182802735Y-59184670D01*
X182102314Y-59474078D01*
X181565961Y-60009495D01*
X181275332Y-60709410D01*
X181274670Y-61467265D01*
X181564078Y-62167686D01*
X182099495Y-62704039D01*
X182799410Y-62994668D01*
X183557265Y-62995330D01*
X184257686Y-62705922D01*
X184710000Y-62254397D01*
X184710000Y-76444294D01*
X184542370Y-76276371D01*
X184029100Y-76063243D01*
X183473339Y-76062758D01*
X182959697Y-76274990D01*
X182566371Y-76667630D01*
X182353243Y-77180900D01*
X182352758Y-77736661D01*
X182564990Y-78250303D01*
X182957630Y-78643629D01*
X183165512Y-78729949D01*
X182959697Y-78814990D01*
X182566371Y-79207630D01*
X182353243Y-79720900D01*
X182352758Y-80276661D01*
X182378135Y-80338077D01*
X180855910Y-81860302D01*
X179237852Y-81860302D01*
X179263540Y-81834659D01*
X179412730Y-81475370D01*
X179413069Y-81086337D01*
X179264507Y-80726788D01*
X178989659Y-80451460D01*
X178630370Y-80302270D01*
X178241337Y-80301931D01*
X178054844Y-80378988D01*
X178029485Y-80353629D01*
X178078540Y-80304659D01*
X178227730Y-79945370D01*
X178228056Y-79571194D01*
X178308000Y-79491250D01*
X178308000Y-78392000D01*
X178562000Y-78392000D01*
X178562000Y-79491250D01*
X178720750Y-79650000D01*
X178861310Y-79650000D01*
X179094699Y-79553327D01*
X179273327Y-79374698D01*
X179370000Y-79141309D01*
X179370000Y-78550750D01*
X179211250Y-78392000D01*
X178562000Y-78392000D01*
X178308000Y-78392000D01*
X178288000Y-78392000D01*
X178288000Y-78138000D01*
X178308000Y-78138000D01*
X178308000Y-77038750D01*
X178562000Y-77038750D01*
X178562000Y-78138000D01*
X179211250Y-78138000D01*
X179370000Y-77979250D01*
X179370000Y-77388691D01*
X179273327Y-77155302D01*
X179094699Y-76976673D01*
X178861310Y-76880000D01*
X178720750Y-76880000D01*
X178562000Y-77038750D01*
X178308000Y-77038750D01*
X178149250Y-76880000D01*
X178008690Y-76880000D01*
X177791878Y-76969806D01*
X177716890Y-76918569D01*
X177465000Y-76867560D01*
X176865000Y-76867560D01*
X176629683Y-76911838D01*
X176530472Y-76975678D01*
X176446890Y-76918569D01*
X176195000Y-76867560D01*
X175953348Y-76867560D01*
X175564482Y-76478694D01*
X175333753Y-76324525D01*
X175061588Y-76270388D01*
X164906176Y-76270388D01*
X160997925Y-72362137D01*
X160998069Y-72196337D01*
X160964462Y-72115000D01*
X168597560Y-72115000D01*
X168597560Y-73615000D01*
X168641838Y-73850317D01*
X168780910Y-74066441D01*
X168993110Y-74211431D01*
X169245000Y-74262440D01*
X169845000Y-74262440D01*
X170080317Y-74218162D01*
X170179528Y-74154322D01*
X170263110Y-74211431D01*
X170515000Y-74262440D01*
X171115000Y-74262440D01*
X171350317Y-74218162D01*
X171449528Y-74154322D01*
X171533110Y-74211431D01*
X171785000Y-74262440D01*
X172385000Y-74262440D01*
X172620317Y-74218162D01*
X172719528Y-74154322D01*
X172803110Y-74211431D01*
X173055000Y-74262440D01*
X173655000Y-74262440D01*
X173890317Y-74218162D01*
X173989528Y-74154322D01*
X174073110Y-74211431D01*
X174325000Y-74262440D01*
X174925000Y-74262440D01*
X175160317Y-74218162D01*
X175259528Y-74154322D01*
X175343110Y-74211431D01*
X175595000Y-74262440D01*
X176195000Y-74262440D01*
X176430317Y-74218162D01*
X176529528Y-74154322D01*
X176613110Y-74211431D01*
X176865000Y-74262440D01*
X177465000Y-74262440D01*
X177700317Y-74218162D01*
X177799528Y-74154322D01*
X177883110Y-74211431D01*
X178135000Y-74262440D01*
X178735000Y-74262440D01*
X178970317Y-74218162D01*
X179186441Y-74079090D01*
X179331431Y-73866890D01*
X179382440Y-73615000D01*
X179382440Y-72115000D01*
X179367546Y-72035843D01*
X179581495Y-71821894D01*
X179735664Y-71591164D01*
X179760250Y-71467560D01*
X179789801Y-71318999D01*
X179789801Y-67318601D01*
X179772109Y-67229659D01*
X179735664Y-67046436D01*
X179581495Y-66815707D01*
X179368438Y-66602650D01*
X179371961Y-66597378D01*
X179485000Y-66029093D01*
X179485000Y-65970907D01*
X179371961Y-65402622D01*
X179050054Y-64920853D01*
X178568285Y-64598946D01*
X178000000Y-64485907D01*
X177431715Y-64598946D01*
X176949946Y-64920853D01*
X176730000Y-65250026D01*
X176510054Y-64920853D01*
X176028285Y-64598946D01*
X175460000Y-64485907D01*
X174891715Y-64598946D01*
X174409946Y-64920853D01*
X174190000Y-65250026D01*
X173970054Y-64920853D01*
X173488285Y-64598946D01*
X172920000Y-64485907D01*
X172351715Y-64598946D01*
X171869946Y-64920853D01*
X171650000Y-65250026D01*
X171430054Y-64920853D01*
X170948285Y-64598946D01*
X170380000Y-64485907D01*
X169811715Y-64598946D01*
X169329946Y-64920853D01*
X169008039Y-65402622D01*
X168895000Y-65970907D01*
X168895000Y-66029093D01*
X169008039Y-66597378D01*
X169329946Y-67079147D01*
X169331179Y-67079971D01*
X169294683Y-67086838D01*
X169078559Y-67225910D01*
X168933569Y-67438110D01*
X168882560Y-67690000D01*
X168882560Y-69129868D01*
X168833800Y-69375000D01*
X168833800Y-71625016D01*
X168793559Y-71650910D01*
X168648569Y-71863110D01*
X168597560Y-72115000D01*
X160964462Y-72115000D01*
X160849507Y-71836788D01*
X160574659Y-71561460D01*
X160215370Y-71412270D01*
X160096200Y-71412166D01*
X160096200Y-66334588D01*
X161317863Y-65112925D01*
X161483663Y-65113069D01*
X161843212Y-64964507D01*
X162118540Y-64689659D01*
X162267730Y-64330370D01*
X162268069Y-63941337D01*
X162119507Y-63581788D01*
X161844659Y-63306460D01*
X161485370Y-63157270D01*
X161096337Y-63156931D01*
X160736788Y-63305493D01*
X160461460Y-63580341D01*
X160312270Y-63939630D01*
X160312124Y-64107088D01*
X159070000Y-65349212D01*
X159070000Y-64853688D01*
X159107002Y-64764578D01*
X162404314Y-61467265D01*
X167974670Y-61467265D01*
X168264078Y-62167686D01*
X168799495Y-62704039D01*
X169499410Y-62994668D01*
X170257265Y-62995330D01*
X170957686Y-62705922D01*
X171494039Y-62170505D01*
X171784668Y-61470590D01*
X171785330Y-60712735D01*
X171495922Y-60012314D01*
X170960505Y-59475961D01*
X170260590Y-59185332D01*
X169502735Y-59184670D01*
X168802314Y-59474078D01*
X168265961Y-60009495D01*
X167975332Y-60709410D01*
X167974670Y-61467265D01*
X162404314Y-61467265D01*
X166507816Y-57363763D01*
X167081812Y-57364264D01*
X167642149Y-57132738D01*
X168071231Y-56704404D01*
X168303735Y-56144472D01*
X168304239Y-55567341D01*
X178757816Y-45113763D01*
X179331812Y-45114264D01*
X179892149Y-44882738D01*
X180321231Y-44454404D01*
X180553735Y-43894472D01*
X180554264Y-43288188D01*
X180322738Y-42727851D01*
X180215075Y-42620000D01*
X181540069Y-42620000D01*
X182790995Y-42868824D01*
G36*
X172212000Y-78138000D02*
X172232000Y-78138000D01*
X172232000Y-78392000D01*
X172212000Y-78392000D01*
X172212000Y-78412000D01*
X171958000Y-78412000D01*
X171958000Y-78392000D01*
X171938000Y-78392000D01*
X171938000Y-78138000D01*
X171958000Y-78138000D01*
X171958000Y-78118000D01*
X172212000Y-78118000D01*
X172212000Y-78138000D01*
X172212000Y-78138000D01*
G37*
X172212000Y-78138000D02*
X172232000Y-78138000D01*
X172232000Y-78392000D01*
X172212000Y-78392000D01*
X172212000Y-78412000D01*
X171958000Y-78412000D01*
X171958000Y-78392000D01*
X171938000Y-78392000D01*
X171938000Y-78138000D01*
X171958000Y-78138000D01*
X171958000Y-78118000D01*
X172212000Y-78118000D01*
X172212000Y-78138000D01*
G36*
X110104990Y-98490303D02*
X110497630Y-98883629D01*
X111010900Y-99096757D01*
X111566661Y-99097242D01*
X111645476Y-99064677D01*
X111741835Y-99129062D01*
X112013999Y-99183199D01*
X117227411Y-99183199D01*
X119512106Y-101467894D01*
X119742835Y-101622063D01*
X120015000Y-101676200D01*
X146648206Y-101676200D01*
X146765341Y-101793540D01*
X147124630Y-101942730D01*
X147513663Y-101943069D01*
X147873212Y-101794507D01*
X148148540Y-101519659D01*
X148297730Y-101160370D01*
X148298069Y-100771337D01*
X148241599Y-100634669D01*
X148508212Y-100524507D01*
X148564255Y-100468561D01*
X154863800Y-106768106D01*
X154863800Y-111812305D01*
X154784697Y-111844990D01*
X154391371Y-112237630D01*
X154311605Y-112429727D01*
X154257397Y-112298857D01*
X154015213Y-112229392D01*
X153214605Y-113030000D01*
X153228748Y-113044143D01*
X153049143Y-113223748D01*
X153035000Y-113209605D01*
X153020858Y-113223748D01*
X152841253Y-113044143D01*
X152855395Y-113030000D01*
X152054787Y-112229392D01*
X151812603Y-112298857D01*
X151768547Y-112422344D01*
X151717397Y-112298857D01*
X151475213Y-112229392D01*
X150674605Y-113030000D01*
X150688748Y-113044143D01*
X150509143Y-113223748D01*
X150495000Y-113209605D01*
X150480858Y-113223748D01*
X150301253Y-113044143D01*
X150315395Y-113030000D01*
X149514787Y-112229392D01*
X149272603Y-112298857D01*
X149222491Y-112439318D01*
X149140010Y-112239697D01*
X148950432Y-112049787D01*
X149694392Y-112049787D01*
X150495000Y-112850395D01*
X151295608Y-112049787D01*
X152234392Y-112049787D01*
X153035000Y-112850395D01*
X153835608Y-112049787D01*
X153766143Y-111807603D01*
X153242698Y-111620856D01*
X152687632Y-111648638D01*
X152303857Y-111807603D01*
X152234392Y-112049787D01*
X151295608Y-112049787D01*
X151226143Y-111807603D01*
X150702698Y-111620856D01*
X150147632Y-111648638D01*
X149763857Y-111807603D01*
X149694392Y-112049787D01*
X148950432Y-112049787D01*
X148747370Y-111846371D01*
X148234100Y-111633243D01*
X147678339Y-111632758D01*
X147164697Y-111844990D01*
X146771371Y-112237630D01*
X146685051Y-112445512D01*
X146600010Y-112239697D01*
X146207370Y-111846371D01*
X146126200Y-111812666D01*
X146126200Y-109029697D01*
X149951354Y-105204544D01*
X150117153Y-105204688D01*
X150476702Y-105056126D01*
X150752030Y-104781278D01*
X150901220Y-104421989D01*
X150901559Y-104032956D01*
X150752997Y-103673407D01*
X150478149Y-103398079D01*
X150118860Y-103248889D01*
X149729827Y-103248550D01*
X149370278Y-103397112D01*
X149094950Y-103671960D01*
X148945760Y-104031249D01*
X148945614Y-104198706D01*
X144912106Y-108232215D01*
X144757937Y-108462944D01*
X144757937Y-108462945D01*
X144703800Y-108735109D01*
X144703800Y-111812305D01*
X144624697Y-111844990D01*
X144231371Y-112237630D01*
X144145051Y-112445512D01*
X144060010Y-112239697D01*
X143667370Y-111846371D01*
X143154100Y-111633243D01*
X142598339Y-111632758D01*
X142084697Y-111844990D01*
X141691371Y-112237630D01*
X141605051Y-112445512D01*
X141520010Y-112239697D01*
X141127370Y-111846371D01*
X140614100Y-111633243D01*
X140058339Y-111632758D01*
X139544697Y-111844990D01*
X139151371Y-112237630D01*
X139065051Y-112445512D01*
X138980010Y-112239697D01*
X138587370Y-111846371D01*
X138074100Y-111633243D01*
X137518339Y-111632758D01*
X137004697Y-111844990D01*
X136611371Y-112237630D01*
X136531605Y-112429727D01*
X136477397Y-112298857D01*
X136235213Y-112229392D01*
X135434605Y-113030000D01*
X136235213Y-113830608D01*
X136477397Y-113761143D01*
X136527509Y-113620682D01*
X136609990Y-113820303D01*
X137002630Y-114213629D01*
X137515900Y-114426757D01*
X138071661Y-114427242D01*
X138585303Y-114215010D01*
X138978629Y-113822370D01*
X139064949Y-113614488D01*
X139149990Y-113820303D01*
X139542630Y-114213629D01*
X140055900Y-114426757D01*
X140611661Y-114427242D01*
X141125303Y-114215010D01*
X141518629Y-113822370D01*
X141604949Y-113614488D01*
X141689990Y-113820303D01*
X142082630Y-114213629D01*
X142595900Y-114426757D01*
X143151661Y-114427242D01*
X143665303Y-114215010D01*
X144058629Y-113822370D01*
X144144949Y-113614488D01*
X144229990Y-113820303D01*
X144622630Y-114213629D01*
X145135900Y-114426757D01*
X145691661Y-114427242D01*
X146205303Y-114215010D01*
X146598629Y-113822370D01*
X146684949Y-113614488D01*
X146769990Y-113820303D01*
X147162630Y-114213629D01*
X147675900Y-114426757D01*
X148231661Y-114427242D01*
X148312890Y-114393679D01*
X148442706Y-114523495D01*
X148596875Y-114626507D01*
X148673437Y-114677664D01*
X148945601Y-114731801D01*
X173830489Y-114731801D01*
X174102654Y-114677664D01*
X174333383Y-114523495D01*
X174873140Y-113983738D01*
X175102630Y-114213629D01*
X175615900Y-114426757D01*
X176171661Y-114427242D01*
X176685303Y-114215010D01*
X176890457Y-114010213D01*
X177634392Y-114010213D01*
X177703857Y-114252397D01*
X178227302Y-114439144D01*
X178782368Y-114411362D01*
X179166143Y-114252397D01*
X179235608Y-114010213D01*
X178435000Y-113209605D01*
X177634392Y-114010213D01*
X176890457Y-114010213D01*
X177078629Y-113822370D01*
X177158395Y-113630273D01*
X177212603Y-113761143D01*
X177454787Y-113830608D01*
X178255395Y-113030000D01*
X177454787Y-112229392D01*
X177212603Y-112298857D01*
X177162491Y-112439318D01*
X177080010Y-112239697D01*
X176890432Y-112049787D01*
X177634392Y-112049787D01*
X178435000Y-112850395D01*
X179235608Y-112049787D01*
X179166143Y-111807603D01*
X178642698Y-111620856D01*
X178087632Y-111648638D01*
X177703857Y-111807603D01*
X177634392Y-112049787D01*
X176890432Y-112049787D01*
X176687370Y-111846371D01*
X176174100Y-111633243D01*
X175618339Y-111632758D01*
X175615599Y-111633890D01*
X175615599Y-107732302D01*
X182340856Y-107732302D01*
X182368638Y-108287368D01*
X182527603Y-108671143D01*
X182769787Y-108740608D01*
X183570395Y-107940000D01*
X182769787Y-107139392D01*
X182527603Y-107208857D01*
X182340856Y-107732302D01*
X175615599Y-107732302D01*
X175615599Y-103517395D01*
X175732939Y-103400260D01*
X175882129Y-103040971D01*
X175882468Y-102651938D01*
X175733906Y-102292389D01*
X175459058Y-102017061D01*
X175099769Y-101867871D01*
X174710736Y-101867532D01*
X174351187Y-102016094D01*
X174075859Y-102290942D01*
X173926669Y-102650231D01*
X173926330Y-103039264D01*
X174074892Y-103398813D01*
X174193199Y-103517327D01*
X174193199Y-108687824D01*
X174184507Y-108666788D01*
X173909659Y-108391460D01*
X173550370Y-108242270D01*
X173161337Y-108241931D01*
X172801788Y-108390493D01*
X172526460Y-108665341D01*
X172377270Y-109024630D01*
X172376931Y-109413663D01*
X172525493Y-109773212D01*
X172643800Y-109891726D01*
X172643800Y-111812305D01*
X172564697Y-111844990D01*
X172171371Y-112237630D01*
X172085051Y-112445512D01*
X172000010Y-112239697D01*
X171607370Y-111846371D01*
X171526200Y-111812666D01*
X171526200Y-109891794D01*
X171643540Y-109774659D01*
X171792730Y-109415370D01*
X171793069Y-109026337D01*
X171644507Y-108666788D01*
X171369659Y-108391460D01*
X171010370Y-108242270D01*
X170621337Y-108241931D01*
X170261788Y-108390493D01*
X169986460Y-108665341D01*
X169837270Y-109024630D01*
X169836931Y-109413663D01*
X169985493Y-109773212D01*
X170103800Y-109891726D01*
X170103800Y-111812305D01*
X170024697Y-111844990D01*
X169631371Y-112237630D01*
X169545051Y-112445512D01*
X169460010Y-112239697D01*
X169067370Y-111846371D01*
X168986200Y-111812666D01*
X168986200Y-110490000D01*
X168932063Y-110217836D01*
X168932063Y-110217835D01*
X168777894Y-109987106D01*
X167564460Y-108773672D01*
X167602659Y-108735540D01*
X167751849Y-108376251D01*
X167751995Y-108208793D01*
X177459588Y-98501200D01*
X182536437Y-98501200D01*
X182564990Y-98570303D01*
X182957630Y-98963629D01*
X183165512Y-99049949D01*
X182959697Y-99134990D01*
X182566371Y-99527630D01*
X182353243Y-100040900D01*
X182352758Y-100596661D01*
X182564990Y-101110303D01*
X182957630Y-101503629D01*
X183165512Y-101589949D01*
X182959697Y-101674990D01*
X182566371Y-102067630D01*
X182353243Y-102580900D01*
X182352758Y-103136661D01*
X182564990Y-103650303D01*
X182957630Y-104043629D01*
X183165512Y-104129949D01*
X182959697Y-104214990D01*
X182566371Y-104607630D01*
X182353243Y-105120900D01*
X182352758Y-105676661D01*
X182564990Y-106190303D01*
X182957630Y-106583629D01*
X183149727Y-106663395D01*
X183018857Y-106717603D01*
X182949392Y-106959787D01*
X183750000Y-107760395D01*
X183764143Y-107746253D01*
X183943748Y-107925858D01*
X183929605Y-107940000D01*
X183943748Y-107954143D01*
X183764143Y-108133748D01*
X183750000Y-108119605D01*
X182949392Y-108920213D01*
X183018857Y-109162397D01*
X183159318Y-109212509D01*
X182959697Y-109294990D01*
X182566371Y-109687630D01*
X182353243Y-110200900D01*
X182352758Y-110756661D01*
X182564990Y-111270303D01*
X182957630Y-111663629D01*
X183060373Y-111706292D01*
X182724697Y-111844990D01*
X182331371Y-112237630D01*
X182245051Y-112445512D01*
X182160010Y-112239697D01*
X181767370Y-111846371D01*
X181254100Y-111633243D01*
X180698339Y-111632758D01*
X180184697Y-111844990D01*
X179791371Y-112237630D01*
X179711605Y-112429727D01*
X179657397Y-112298857D01*
X179415213Y-112229392D01*
X178614605Y-113030000D01*
X179415213Y-113830608D01*
X179657397Y-113761143D01*
X179707509Y-113620682D01*
X179789990Y-113820303D01*
X180182630Y-114213629D01*
X180695900Y-114426757D01*
X181251661Y-114427242D01*
X181765303Y-114215010D01*
X182158629Y-113822370D01*
X182244949Y-113614488D01*
X182329990Y-113820303D01*
X182722630Y-114213629D01*
X183235900Y-114426757D01*
X183791661Y-114427242D01*
X184305303Y-114215010D01*
X184698629Y-113822370D01*
X184710000Y-113794986D01*
X184710000Y-114230069D01*
X184654521Y-114508981D01*
X184536145Y-114686144D01*
X184358979Y-114804522D01*
X184080070Y-114860000D01*
X110559931Y-114860000D01*
X110281019Y-114804521D01*
X110103856Y-114686145D01*
X109985478Y-114508979D01*
X109930000Y-114230070D01*
X109930000Y-114010213D01*
X134454392Y-114010213D01*
X134523857Y-114252397D01*
X135047302Y-114439144D01*
X135602368Y-114411362D01*
X135986143Y-114252397D01*
X136055608Y-114010213D01*
X135255000Y-113209605D01*
X134454392Y-114010213D01*
X109930000Y-114010213D01*
X109930000Y-112822302D01*
X133845856Y-112822302D01*
X133873638Y-113377368D01*
X134032603Y-113761143D01*
X134274787Y-113830608D01*
X135075395Y-113030000D01*
X134274787Y-112229392D01*
X134032603Y-112298857D01*
X133845856Y-112822302D01*
X109930000Y-112822302D01*
X109930000Y-112049787D01*
X134454392Y-112049787D01*
X135255000Y-112850395D01*
X136055608Y-112049787D01*
X135986143Y-111807603D01*
X135462698Y-111620856D01*
X134907632Y-111648638D01*
X134523857Y-111807603D01*
X134454392Y-112049787D01*
X109930000Y-112049787D01*
X109930000Y-98066794D01*
X110104990Y-98490303D01*
X110104990Y-98490303D01*
G37*
X110104990Y-98490303D02*
X110497630Y-98883629D01*
X111010900Y-99096757D01*
X111566661Y-99097242D01*
X111645476Y-99064677D01*
X111741835Y-99129062D01*
X112013999Y-99183199D01*
X117227411Y-99183199D01*
X119512106Y-101467894D01*
X119742835Y-101622063D01*
X120015000Y-101676200D01*
X146648206Y-101676200D01*
X146765341Y-101793540D01*
X147124630Y-101942730D01*
X147513663Y-101943069D01*
X147873212Y-101794507D01*
X148148540Y-101519659D01*
X148297730Y-101160370D01*
X148298069Y-100771337D01*
X148241599Y-100634669D01*
X148508212Y-100524507D01*
X148564255Y-100468561D01*
X154863800Y-106768106D01*
X154863800Y-111812305D01*
X154784697Y-111844990D01*
X154391371Y-112237630D01*
X154311605Y-112429727D01*
X154257397Y-112298857D01*
X154015213Y-112229392D01*
X153214605Y-113030000D01*
X153228748Y-113044143D01*
X153049143Y-113223748D01*
X153035000Y-113209605D01*
X153020858Y-113223748D01*
X152841253Y-113044143D01*
X152855395Y-113030000D01*
X152054787Y-112229392D01*
X151812603Y-112298857D01*
X151768547Y-112422344D01*
X151717397Y-112298857D01*
X151475213Y-112229392D01*
X150674605Y-113030000D01*
X150688748Y-113044143D01*
X150509143Y-113223748D01*
X150495000Y-113209605D01*
X150480858Y-113223748D01*
X150301253Y-113044143D01*
X150315395Y-113030000D01*
X149514787Y-112229392D01*
X149272603Y-112298857D01*
X149222491Y-112439318D01*
X149140010Y-112239697D01*
X148950432Y-112049787D01*
X149694392Y-112049787D01*
X150495000Y-112850395D01*
X151295608Y-112049787D01*
X152234392Y-112049787D01*
X153035000Y-112850395D01*
X153835608Y-112049787D01*
X153766143Y-111807603D01*
X153242698Y-111620856D01*
X152687632Y-111648638D01*
X152303857Y-111807603D01*
X152234392Y-112049787D01*
X151295608Y-112049787D01*
X151226143Y-111807603D01*
X150702698Y-111620856D01*
X150147632Y-111648638D01*
X149763857Y-111807603D01*
X149694392Y-112049787D01*
X148950432Y-112049787D01*
X148747370Y-111846371D01*
X148234100Y-111633243D01*
X147678339Y-111632758D01*
X147164697Y-111844990D01*
X146771371Y-112237630D01*
X146685051Y-112445512D01*
X146600010Y-112239697D01*
X146207370Y-111846371D01*
X146126200Y-111812666D01*
X146126200Y-109029697D01*
X149951354Y-105204544D01*
X150117153Y-105204688D01*
X150476702Y-105056126D01*
X150752030Y-104781278D01*
X150901220Y-104421989D01*
X150901559Y-104032956D01*
X150752997Y-103673407D01*
X150478149Y-103398079D01*
X150118860Y-103248889D01*
X149729827Y-103248550D01*
X149370278Y-103397112D01*
X149094950Y-103671960D01*
X148945760Y-104031249D01*
X148945614Y-104198706D01*
X144912106Y-108232215D01*
X144757937Y-108462944D01*
X144757937Y-108462945D01*
X144703800Y-108735109D01*
X144703800Y-111812305D01*
X144624697Y-111844990D01*
X144231371Y-112237630D01*
X144145051Y-112445512D01*
X144060010Y-112239697D01*
X143667370Y-111846371D01*
X143154100Y-111633243D01*
X142598339Y-111632758D01*
X142084697Y-111844990D01*
X141691371Y-112237630D01*
X141605051Y-112445512D01*
X141520010Y-112239697D01*
X141127370Y-111846371D01*
X140614100Y-111633243D01*
X140058339Y-111632758D01*
X139544697Y-111844990D01*
X139151371Y-112237630D01*
X139065051Y-112445512D01*
X138980010Y-112239697D01*
X138587370Y-111846371D01*
X138074100Y-111633243D01*
X137518339Y-111632758D01*
X137004697Y-111844990D01*
X136611371Y-112237630D01*
X136531605Y-112429727D01*
X136477397Y-112298857D01*
X136235213Y-112229392D01*
X135434605Y-113030000D01*
X136235213Y-113830608D01*
X136477397Y-113761143D01*
X136527509Y-113620682D01*
X136609990Y-113820303D01*
X137002630Y-114213629D01*
X137515900Y-114426757D01*
X138071661Y-114427242D01*
X138585303Y-114215010D01*
X138978629Y-113822370D01*
X139064949Y-113614488D01*
X139149990Y-113820303D01*
X139542630Y-114213629D01*
X140055900Y-114426757D01*
X140611661Y-114427242D01*
X141125303Y-114215010D01*
X141518629Y-113822370D01*
X141604949Y-113614488D01*
X141689990Y-113820303D01*
X142082630Y-114213629D01*
X142595900Y-114426757D01*
X143151661Y-114427242D01*
X143665303Y-114215010D01*
X144058629Y-113822370D01*
X144144949Y-113614488D01*
X144229990Y-113820303D01*
X144622630Y-114213629D01*
X145135900Y-114426757D01*
X145691661Y-114427242D01*
X146205303Y-114215010D01*
X146598629Y-113822370D01*
X146684949Y-113614488D01*
X146769990Y-113820303D01*
X147162630Y-114213629D01*
X147675900Y-114426757D01*
X148231661Y-114427242D01*
X148312890Y-114393679D01*
X148442706Y-114523495D01*
X148596875Y-114626507D01*
X148673437Y-114677664D01*
X148945601Y-114731801D01*
X173830489Y-114731801D01*
X174102654Y-114677664D01*
X174333383Y-114523495D01*
X174873140Y-113983738D01*
X175102630Y-114213629D01*
X175615900Y-114426757D01*
X176171661Y-114427242D01*
X176685303Y-114215010D01*
X176890457Y-114010213D01*
X177634392Y-114010213D01*
X177703857Y-114252397D01*
X178227302Y-114439144D01*
X178782368Y-114411362D01*
X179166143Y-114252397D01*
X179235608Y-114010213D01*
X178435000Y-113209605D01*
X177634392Y-114010213D01*
X176890457Y-114010213D01*
X177078629Y-113822370D01*
X177158395Y-113630273D01*
X177212603Y-113761143D01*
X177454787Y-113830608D01*
X178255395Y-113030000D01*
X177454787Y-112229392D01*
X177212603Y-112298857D01*
X177162491Y-112439318D01*
X177080010Y-112239697D01*
X176890432Y-112049787D01*
X177634392Y-112049787D01*
X178435000Y-112850395D01*
X179235608Y-112049787D01*
X179166143Y-111807603D01*
X178642698Y-111620856D01*
X178087632Y-111648638D01*
X177703857Y-111807603D01*
X177634392Y-112049787D01*
X176890432Y-112049787D01*
X176687370Y-111846371D01*
X176174100Y-111633243D01*
X175618339Y-111632758D01*
X175615599Y-111633890D01*
X175615599Y-107732302D01*
X182340856Y-107732302D01*
X182368638Y-108287368D01*
X182527603Y-108671143D01*
X182769787Y-108740608D01*
X183570395Y-107940000D01*
X182769787Y-107139392D01*
X182527603Y-107208857D01*
X182340856Y-107732302D01*
X175615599Y-107732302D01*
X175615599Y-103517395D01*
X175732939Y-103400260D01*
X175882129Y-103040971D01*
X175882468Y-102651938D01*
X175733906Y-102292389D01*
X175459058Y-102017061D01*
X175099769Y-101867871D01*
X174710736Y-101867532D01*
X174351187Y-102016094D01*
X174075859Y-102290942D01*
X173926669Y-102650231D01*
X173926330Y-103039264D01*
X174074892Y-103398813D01*
X174193199Y-103517327D01*
X174193199Y-108687824D01*
X174184507Y-108666788D01*
X173909659Y-108391460D01*
X173550370Y-108242270D01*
X173161337Y-108241931D01*
X172801788Y-108390493D01*
X172526460Y-108665341D01*
X172377270Y-109024630D01*
X172376931Y-109413663D01*
X172525493Y-109773212D01*
X172643800Y-109891726D01*
X172643800Y-111812305D01*
X172564697Y-111844990D01*
X172171371Y-112237630D01*
X172085051Y-112445512D01*
X172000010Y-112239697D01*
X171607370Y-111846371D01*
X171526200Y-111812666D01*
X171526200Y-109891794D01*
X171643540Y-109774659D01*
X171792730Y-109415370D01*
X171793069Y-109026337D01*
X171644507Y-108666788D01*
X171369659Y-108391460D01*
X171010370Y-108242270D01*
X170621337Y-108241931D01*
X170261788Y-108390493D01*
X169986460Y-108665341D01*
X169837270Y-109024630D01*
X169836931Y-109413663D01*
X169985493Y-109773212D01*
X170103800Y-109891726D01*
X170103800Y-111812305D01*
X170024697Y-111844990D01*
X169631371Y-112237630D01*
X169545051Y-112445512D01*
X169460010Y-112239697D01*
X169067370Y-111846371D01*
X168986200Y-111812666D01*
X168986200Y-110490000D01*
X168932063Y-110217836D01*
X168932063Y-110217835D01*
X168777894Y-109987106D01*
X167564460Y-108773672D01*
X167602659Y-108735540D01*
X167751849Y-108376251D01*
X167751995Y-108208793D01*
X177459588Y-98501200D01*
X182536437Y-98501200D01*
X182564990Y-98570303D01*
X182957630Y-98963629D01*
X183165512Y-99049949D01*
X182959697Y-99134990D01*
X182566371Y-99527630D01*
X182353243Y-100040900D01*
X182352758Y-100596661D01*
X182564990Y-101110303D01*
X182957630Y-101503629D01*
X183165512Y-101589949D01*
X182959697Y-101674990D01*
X182566371Y-102067630D01*
X182353243Y-102580900D01*
X182352758Y-103136661D01*
X182564990Y-103650303D01*
X182957630Y-104043629D01*
X183165512Y-104129949D01*
X182959697Y-104214990D01*
X182566371Y-104607630D01*
X182353243Y-105120900D01*
X182352758Y-105676661D01*
X182564990Y-106190303D01*
X182957630Y-106583629D01*
X183149727Y-106663395D01*
X183018857Y-106717603D01*
X182949392Y-106959787D01*
X183750000Y-107760395D01*
X183764143Y-107746253D01*
X183943748Y-107925858D01*
X183929605Y-107940000D01*
X183943748Y-107954143D01*
X183764143Y-108133748D01*
X183750000Y-108119605D01*
X182949392Y-108920213D01*
X183018857Y-109162397D01*
X183159318Y-109212509D01*
X182959697Y-109294990D01*
X182566371Y-109687630D01*
X182353243Y-110200900D01*
X182352758Y-110756661D01*
X182564990Y-111270303D01*
X182957630Y-111663629D01*
X183060373Y-111706292D01*
X182724697Y-111844990D01*
X182331371Y-112237630D01*
X182245051Y-112445512D01*
X182160010Y-112239697D01*
X181767370Y-111846371D01*
X181254100Y-111633243D01*
X180698339Y-111632758D01*
X180184697Y-111844990D01*
X179791371Y-112237630D01*
X179711605Y-112429727D01*
X179657397Y-112298857D01*
X179415213Y-112229392D01*
X178614605Y-113030000D01*
X179415213Y-113830608D01*
X179657397Y-113761143D01*
X179707509Y-113620682D01*
X179789990Y-113820303D01*
X180182630Y-114213629D01*
X180695900Y-114426757D01*
X181251661Y-114427242D01*
X181765303Y-114215010D01*
X182158629Y-113822370D01*
X182244949Y-113614488D01*
X182329990Y-113820303D01*
X182722630Y-114213629D01*
X183235900Y-114426757D01*
X183791661Y-114427242D01*
X184305303Y-114215010D01*
X184698629Y-113822370D01*
X184710000Y-113794986D01*
X184710000Y-114230069D01*
X184654521Y-114508981D01*
X184536145Y-114686144D01*
X184358979Y-114804522D01*
X184080070Y-114860000D01*
X110559931Y-114860000D01*
X110281019Y-114804521D01*
X110103856Y-114686145D01*
X109985478Y-114508979D01*
X109930000Y-114230070D01*
X109930000Y-114010213D01*
X134454392Y-114010213D01*
X134523857Y-114252397D01*
X135047302Y-114439144D01*
X135602368Y-114411362D01*
X135986143Y-114252397D01*
X136055608Y-114010213D01*
X135255000Y-113209605D01*
X134454392Y-114010213D01*
X109930000Y-114010213D01*
X109930000Y-112822302D01*
X133845856Y-112822302D01*
X133873638Y-113377368D01*
X134032603Y-113761143D01*
X134274787Y-113830608D01*
X135075395Y-113030000D01*
X134274787Y-112229392D01*
X134032603Y-112298857D01*
X133845856Y-112822302D01*
X109930000Y-112822302D01*
X109930000Y-112049787D01*
X134454392Y-112049787D01*
X135255000Y-112850395D01*
X136055608Y-112049787D01*
X135986143Y-111807603D01*
X135462698Y-111620856D01*
X134907632Y-111648638D01*
X134523857Y-111807603D01*
X134454392Y-112049787D01*
X109930000Y-112049787D01*
X109930000Y-98066794D01*
X110104990Y-98490303D01*
G36*
X168833800Y-92746726D02*
X168833800Y-100670411D01*
X161897136Y-107607075D01*
X161731337Y-107606931D01*
X161486015Y-107708296D01*
X161421054Y-107381715D01*
X161099147Y-106899946D01*
X161057548Y-106872150D01*
X161105317Y-106863162D01*
X161321441Y-106724090D01*
X161466431Y-106511890D01*
X161517440Y-106260000D01*
X161517440Y-104560000D01*
X161473162Y-104324683D01*
X161334090Y-104108559D01*
X161121890Y-103963569D01*
X160870000Y-103912560D01*
X159170000Y-103912560D01*
X158934683Y-103956838D01*
X158718559Y-104095910D01*
X158573569Y-104308110D01*
X158522560Y-104560000D01*
X158522560Y-106260000D01*
X158566838Y-106495317D01*
X158705910Y-106711441D01*
X158918110Y-106856431D01*
X158985541Y-106870086D01*
X158940853Y-106899946D01*
X158618946Y-107381715D01*
X158505907Y-107950000D01*
X158618946Y-108518285D01*
X158940853Y-109000054D01*
X159422622Y-109321961D01*
X159990907Y-109435000D01*
X160049093Y-109435000D01*
X160617378Y-109321961D01*
X161051549Y-109031858D01*
X161095493Y-109138212D01*
X161370341Y-109413540D01*
X161663230Y-109535158D01*
X160790587Y-110407800D01*
X160554659Y-110171460D01*
X160195370Y-110022270D01*
X159806337Y-110021931D01*
X159446788Y-110170493D01*
X159171460Y-110445341D01*
X159022270Y-110804630D01*
X159021998Y-111117214D01*
X158473146Y-111666066D01*
X158394100Y-111633243D01*
X157838339Y-111632758D01*
X157324697Y-111844990D01*
X156931371Y-112237630D01*
X156845051Y-112445512D01*
X156760010Y-112239697D01*
X156367370Y-111846371D01*
X156286200Y-111812666D01*
X156286200Y-106473518D01*
X156232063Y-106201354D01*
X156232063Y-106201353D01*
X156077894Y-105970624D01*
X152685142Y-102577872D01*
X152911173Y-102578069D01*
X153270722Y-102429507D01*
X153546050Y-102154659D01*
X153695240Y-101795370D01*
X153695579Y-101406337D01*
X153547017Y-101046788D01*
X153272169Y-100771460D01*
X152957697Y-100640880D01*
X152982909Y-100580162D01*
X152983055Y-100412704D01*
X156077894Y-97317866D01*
X156232063Y-97087136D01*
X156249634Y-96998800D01*
X156286200Y-96814971D01*
X156286200Y-92925745D01*
X156657663Y-92926069D01*
X156882908Y-92833000D01*
X168220309Y-92833000D01*
X168220314Y-92833001D01*
X168504156Y-92776540D01*
X168558989Y-92765633D01*
X168735164Y-92647917D01*
X168833800Y-92746726D01*
X168833800Y-92746726D01*
G37*
X168833800Y-92746726D02*
X168833800Y-100670411D01*
X161897136Y-107607075D01*
X161731337Y-107606931D01*
X161486015Y-107708296D01*
X161421054Y-107381715D01*
X161099147Y-106899946D01*
X161057548Y-106872150D01*
X161105317Y-106863162D01*
X161321441Y-106724090D01*
X161466431Y-106511890D01*
X161517440Y-106260000D01*
X161517440Y-104560000D01*
X161473162Y-104324683D01*
X161334090Y-104108559D01*
X161121890Y-103963569D01*
X160870000Y-103912560D01*
X159170000Y-103912560D01*
X158934683Y-103956838D01*
X158718559Y-104095910D01*
X158573569Y-104308110D01*
X158522560Y-104560000D01*
X158522560Y-106260000D01*
X158566838Y-106495317D01*
X158705910Y-106711441D01*
X158918110Y-106856431D01*
X158985541Y-106870086D01*
X158940853Y-106899946D01*
X158618946Y-107381715D01*
X158505907Y-107950000D01*
X158618946Y-108518285D01*
X158940853Y-109000054D01*
X159422622Y-109321961D01*
X159990907Y-109435000D01*
X160049093Y-109435000D01*
X160617378Y-109321961D01*
X161051549Y-109031858D01*
X161095493Y-109138212D01*
X161370341Y-109413540D01*
X161663230Y-109535158D01*
X160790587Y-110407800D01*
X160554659Y-110171460D01*
X160195370Y-110022270D01*
X159806337Y-110021931D01*
X159446788Y-110170493D01*
X159171460Y-110445341D01*
X159022270Y-110804630D01*
X159021998Y-111117214D01*
X158473146Y-111666066D01*
X158394100Y-111633243D01*
X157838339Y-111632758D01*
X157324697Y-111844990D01*
X156931371Y-112237630D01*
X156845051Y-112445512D01*
X156760010Y-112239697D01*
X156367370Y-111846371D01*
X156286200Y-111812666D01*
X156286200Y-106473518D01*
X156232063Y-106201354D01*
X156232063Y-106201353D01*
X156077894Y-105970624D01*
X152685142Y-102577872D01*
X152911173Y-102578069D01*
X153270722Y-102429507D01*
X153546050Y-102154659D01*
X153695240Y-101795370D01*
X153695579Y-101406337D01*
X153547017Y-101046788D01*
X153272169Y-100771460D01*
X152957697Y-100640880D01*
X152982909Y-100580162D01*
X152983055Y-100412704D01*
X156077894Y-97317866D01*
X156232063Y-97087136D01*
X156249634Y-96998800D01*
X156286200Y-96814971D01*
X156286200Y-92925745D01*
X156657663Y-92926069D01*
X156882908Y-92833000D01*
X168220309Y-92833000D01*
X168220314Y-92833001D01*
X168504156Y-92776540D01*
X168558989Y-92765633D01*
X168735164Y-92647917D01*
X168833800Y-92746726D01*
G36*
X143764000Y-44164250D02*
X143922750Y-44323000D01*
X145034000Y-44323000D01*
X145034000Y-44303000D01*
X145288000Y-44303000D01*
X145288000Y-44323000D01*
X145308000Y-44323000D01*
X145308000Y-44577000D01*
X145288000Y-44577000D01*
X145288000Y-46958250D01*
X145446750Y-47117000D01*
X146049309Y-47117000D01*
X146282698Y-47020327D01*
X146316000Y-46987025D01*
X146316000Y-48595000D01*
X145970750Y-48595000D01*
X145812000Y-48753750D01*
X145812000Y-50373000D01*
X145832000Y-50373000D01*
X145832000Y-50627000D01*
X145812000Y-50627000D01*
X145812000Y-52246250D01*
X145970750Y-52405000D01*
X146446310Y-52405000D01*
X146679699Y-52308327D01*
X146693246Y-52294780D01*
X146798110Y-52366431D01*
X147050000Y-52417440D01*
X148320000Y-52417440D01*
X148555317Y-52373162D01*
X148676900Y-52294926D01*
X148690301Y-52308327D01*
X148923690Y-52405000D01*
X149399250Y-52405000D01*
X149558000Y-52246250D01*
X149558000Y-50627000D01*
X149812000Y-50627000D01*
X149812000Y-52246250D01*
X149970750Y-52405000D01*
X150446310Y-52405000D01*
X150679699Y-52308327D01*
X150858327Y-52129698D01*
X150955000Y-51896309D01*
X150955000Y-50785750D01*
X154915000Y-50785750D01*
X154915000Y-51896309D01*
X155011673Y-52129698D01*
X155190301Y-52308327D01*
X155423690Y-52405000D01*
X155899250Y-52405000D01*
X156058000Y-52246250D01*
X156058000Y-50627000D01*
X156312000Y-50627000D01*
X156312000Y-52246250D01*
X156470750Y-52405000D01*
X156946310Y-52405000D01*
X157179699Y-52308327D01*
X157185000Y-52303026D01*
X157190301Y-52308327D01*
X157423690Y-52405000D01*
X157899250Y-52405000D01*
X158058000Y-52246250D01*
X158058000Y-50627000D01*
X158312000Y-50627000D01*
X158312000Y-52246250D01*
X158470750Y-52405000D01*
X158946310Y-52405000D01*
X159179699Y-52308327D01*
X159358327Y-52129698D01*
X159455000Y-51896309D01*
X159455000Y-50785750D01*
X159296250Y-50627000D01*
X158312000Y-50627000D01*
X158058000Y-50627000D01*
X156312000Y-50627000D01*
X156058000Y-50627000D01*
X155073750Y-50627000D01*
X154915000Y-50785750D01*
X150955000Y-50785750D01*
X150796250Y-50627000D01*
X149812000Y-50627000D01*
X149558000Y-50627000D01*
X149538000Y-50627000D01*
X149538000Y-50601965D01*
X165244484Y-50601965D01*
X165270277Y-51207700D01*
X165452461Y-51647533D01*
X165707804Y-51732591D01*
X166600395Y-50840000D01*
X166959605Y-50840000D01*
X167852196Y-51732591D01*
X168107539Y-51647533D01*
X168315516Y-51078035D01*
X168289723Y-50472300D01*
X168107539Y-50032467D01*
X167852196Y-49947409D01*
X166959605Y-50840000D01*
X166600395Y-50840000D01*
X165707804Y-49947409D01*
X165452461Y-50032467D01*
X165244484Y-50601965D01*
X149538000Y-50601965D01*
X149538000Y-50373000D01*
X149558000Y-50373000D01*
X149558000Y-48753750D01*
X149812000Y-48753750D01*
X149812000Y-50373000D01*
X150796250Y-50373000D01*
X150955000Y-50214250D01*
X150955000Y-49103691D01*
X154915000Y-49103691D01*
X154915000Y-50214250D01*
X155073750Y-50373000D01*
X156058000Y-50373000D01*
X156058000Y-48753750D01*
X156312000Y-48753750D01*
X156312000Y-50373000D01*
X158058000Y-50373000D01*
X158058000Y-48753750D01*
X158312000Y-48753750D01*
X158312000Y-50373000D01*
X159296250Y-50373000D01*
X159455000Y-50214250D01*
X159455000Y-49767804D01*
X165887409Y-49767804D01*
X166780000Y-50660395D01*
X167672591Y-49767804D01*
X167587533Y-49512461D01*
X167018035Y-49304484D01*
X166412300Y-49330277D01*
X165972467Y-49512461D01*
X165887409Y-49767804D01*
X159455000Y-49767804D01*
X159455000Y-49103691D01*
X159358327Y-48870302D01*
X159179699Y-48691673D01*
X158946310Y-48595000D01*
X158470750Y-48595000D01*
X158312000Y-48753750D01*
X158058000Y-48753750D01*
X157899250Y-48595000D01*
X157423690Y-48595000D01*
X157190301Y-48691673D01*
X157185000Y-48696974D01*
X157179699Y-48691673D01*
X156946310Y-48595000D01*
X156470750Y-48595000D01*
X156312000Y-48753750D01*
X156058000Y-48753750D01*
X155899250Y-48595000D01*
X155423690Y-48595000D01*
X155190301Y-48691673D01*
X155011673Y-48870302D01*
X154915000Y-49103691D01*
X150955000Y-49103691D01*
X150858327Y-48870302D01*
X150679699Y-48691673D01*
X150446310Y-48595000D01*
X149970750Y-48595000D01*
X149812000Y-48753750D01*
X149558000Y-48753750D01*
X149399250Y-48595000D01*
X149086000Y-48595000D01*
X149086000Y-46987025D01*
X149119302Y-47020327D01*
X149352691Y-47117000D01*
X149955250Y-47117000D01*
X150114000Y-46958250D01*
X150114000Y-44577000D01*
X150368000Y-44577000D01*
X150368000Y-46958250D01*
X150526750Y-47117000D01*
X151129309Y-47117000D01*
X151362698Y-47020327D01*
X151541327Y-46841699D01*
X151638000Y-46608310D01*
X151638000Y-45967265D01*
X167974670Y-45967265D01*
X168264078Y-46667686D01*
X168799495Y-47204039D01*
X169499410Y-47494668D01*
X170257265Y-47495330D01*
X170957686Y-47205922D01*
X171494039Y-46670505D01*
X171784668Y-45970590D01*
X171785330Y-45212735D01*
X171557852Y-44662196D01*
X173137409Y-44662196D01*
X173222467Y-44917539D01*
X173791965Y-45125516D01*
X174397700Y-45099723D01*
X174837533Y-44917539D01*
X174922591Y-44662196D01*
X174030000Y-43769605D01*
X173137409Y-44662196D01*
X171557852Y-44662196D01*
X171495922Y-44512314D01*
X170960505Y-43975961D01*
X170260590Y-43685332D01*
X169502735Y-43684670D01*
X168802314Y-43974078D01*
X168265961Y-44509495D01*
X167975332Y-45209410D01*
X167974670Y-45967265D01*
X151638000Y-45967265D01*
X151638000Y-44735750D01*
X151479250Y-44577000D01*
X150368000Y-44577000D01*
X150114000Y-44577000D01*
X150094000Y-44577000D01*
X150094000Y-44323000D01*
X150114000Y-44323000D01*
X150114000Y-44303000D01*
X150368000Y-44303000D01*
X150368000Y-44323000D01*
X151479250Y-44323000D01*
X151638000Y-44164250D01*
X151638000Y-42620000D01*
X172880392Y-42620000D01*
X172957802Y-42697410D01*
X172702461Y-42782467D01*
X172494484Y-43351965D01*
X172520277Y-43957700D01*
X172702461Y-44397533D01*
X172957804Y-44482591D01*
X173850395Y-43590000D01*
X173836253Y-43575858D01*
X174015858Y-43396253D01*
X174030000Y-43410395D01*
X174044143Y-43396253D01*
X174223748Y-43575858D01*
X174209605Y-43590000D01*
X175102196Y-44482591D01*
X175231977Y-44439359D01*
X175237262Y-44452149D01*
X175665596Y-44881231D01*
X176225528Y-45113735D01*
X176254660Y-45113760D01*
X168304224Y-53064196D01*
X168304264Y-53018112D01*
X168072738Y-52457775D01*
X167644404Y-52028693D01*
X167635075Y-52024819D01*
X167672591Y-51912196D01*
X166780000Y-51019605D01*
X165887409Y-51912196D01*
X165924762Y-52024330D01*
X165917851Y-52027186D01*
X165488769Y-52455520D01*
X165256265Y-53015452D01*
X165255736Y-53621736D01*
X165487262Y-54182073D01*
X165884775Y-54580280D01*
X165488769Y-54975596D01*
X165256265Y-55535528D01*
X165255761Y-56112659D01*
X157855266Y-63513154D01*
X157631788Y-63605493D01*
X157356460Y-63880341D01*
X157207270Y-64239630D01*
X157206931Y-64628663D01*
X157300000Y-64853908D01*
X157300000Y-74636286D01*
X157193100Y-74705074D01*
X157179699Y-74691673D01*
X156946310Y-74595000D01*
X156470750Y-74595000D01*
X156312000Y-74753750D01*
X156312000Y-76373000D01*
X156332000Y-76373000D01*
X156332000Y-76627000D01*
X156312000Y-76627000D01*
X156312000Y-78246250D01*
X156470750Y-78405000D01*
X156946310Y-78405000D01*
X157179699Y-78308327D01*
X157193246Y-78294780D01*
X157298110Y-78366431D01*
X157550000Y-78417440D01*
X158215861Y-78417440D01*
X158393154Y-78594733D01*
X158485493Y-78818212D01*
X158760341Y-79093540D01*
X159119630Y-79242730D01*
X159508663Y-79243069D01*
X159733908Y-79150000D01*
X168622962Y-79150000D01*
X168641838Y-79250317D01*
X168780910Y-79466441D01*
X168993110Y-79611431D01*
X169025000Y-79617889D01*
X169025000Y-80148156D01*
X168958559Y-80190910D01*
X168912031Y-80259006D01*
X168769698Y-80116673D01*
X168536309Y-80020000D01*
X168195750Y-80020000D01*
X168037000Y-80178750D01*
X168037000Y-81153000D01*
X168057000Y-81153000D01*
X168057000Y-81407000D01*
X168037000Y-81407000D01*
X168037000Y-83058000D01*
X168057000Y-83058000D01*
X168057000Y-83312000D01*
X168037000Y-83312000D01*
X168037000Y-84286250D01*
X168195750Y-84445000D01*
X168536309Y-84445000D01*
X168769698Y-84348327D01*
X168910936Y-84207090D01*
X168945910Y-84261441D01*
X169158110Y-84406431D01*
X169410000Y-84457440D01*
X170410000Y-84457440D01*
X170645317Y-84413162D01*
X170861441Y-84274090D01*
X171006431Y-84061890D01*
X171057440Y-83810000D01*
X171057440Y-82560000D01*
X171013162Y-82324683D01*
X170954293Y-82233197D01*
X171006431Y-82156890D01*
X171057440Y-81905000D01*
X171057440Y-80655000D01*
X171013162Y-80419683D01*
X170874090Y-80203559D01*
X170795000Y-80149519D01*
X170795000Y-79662440D01*
X171115000Y-79662440D01*
X171350317Y-79618162D01*
X171440980Y-79559822D01*
X171658690Y-79650000D01*
X171799250Y-79650000D01*
X171818712Y-79630538D01*
X171742270Y-79814630D01*
X171741931Y-80203663D01*
X171890493Y-80563212D01*
X172165341Y-80838540D01*
X172524630Y-80987730D01*
X172913663Y-80988069D01*
X173273212Y-80839507D01*
X173548540Y-80564659D01*
X173697730Y-80205370D01*
X173697854Y-80063642D01*
X181767106Y-88132894D01*
X181997835Y-88287063D01*
X182270000Y-88341200D01*
X182536437Y-88341200D01*
X182564990Y-88410303D01*
X182957630Y-88803629D01*
X183165512Y-88889949D01*
X182959697Y-88974990D01*
X182566371Y-89367630D01*
X182353243Y-89880900D01*
X182352758Y-90436661D01*
X182378134Y-90498077D01*
X180877412Y-91998800D01*
X174661794Y-91998800D01*
X174544659Y-91881460D01*
X174185370Y-91732270D01*
X173796337Y-91731931D01*
X173436788Y-91880493D01*
X173161460Y-92155341D01*
X173012270Y-92514630D01*
X173011931Y-92903663D01*
X173160493Y-93263212D01*
X173435341Y-93538540D01*
X173794630Y-93687730D01*
X174183663Y-93688069D01*
X174543212Y-93539507D01*
X174661726Y-93421200D01*
X177201484Y-93421200D01*
X177022783Y-93540604D01*
X170256200Y-100307188D01*
X170256200Y-92746794D01*
X170373540Y-92629659D01*
X170522730Y-92270370D01*
X170523069Y-91881337D01*
X170451996Y-91709327D01*
X170665200Y-91566870D01*
X171091661Y-91567242D01*
X171605303Y-91355010D01*
X171810457Y-91150213D01*
X172554392Y-91150213D01*
X172623857Y-91392397D01*
X173147302Y-91579144D01*
X173702368Y-91551362D01*
X174086143Y-91392397D01*
X174155608Y-91150213D01*
X173355000Y-90349605D01*
X172554392Y-91150213D01*
X171810457Y-91150213D01*
X171998629Y-90962370D01*
X172078395Y-90770273D01*
X172132603Y-90901143D01*
X172374787Y-90970608D01*
X173175395Y-90170000D01*
X173534605Y-90170000D01*
X174335213Y-90970608D01*
X174577397Y-90901143D01*
X174764144Y-90377698D01*
X174736362Y-89822632D01*
X174577397Y-89438857D01*
X174335213Y-89369392D01*
X173534605Y-90170000D01*
X173175395Y-90170000D01*
X172374787Y-89369392D01*
X172132603Y-89438857D01*
X172082491Y-89579318D01*
X172000010Y-89379697D01*
X171810432Y-89189787D01*
X172554392Y-89189787D01*
X173355000Y-89990395D01*
X174155608Y-89189787D01*
X174086143Y-88947603D01*
X173562698Y-88760856D01*
X173007632Y-88788638D01*
X172623857Y-88947603D01*
X172554392Y-89189787D01*
X171810432Y-89189787D01*
X171607370Y-88986371D01*
X171094100Y-88773243D01*
X170538339Y-88772758D01*
X170024697Y-88984990D01*
X169631371Y-89377630D01*
X169545051Y-89585512D01*
X169460010Y-89379697D01*
X169067370Y-88986371D01*
X168554100Y-88773243D01*
X167998339Y-88772758D01*
X167484697Y-88984990D01*
X167251219Y-89218061D01*
X166475835Y-88442676D01*
X166430264Y-88374475D01*
X165436894Y-87381106D01*
X165206165Y-87226937D01*
X164934000Y-87172800D01*
X163362588Y-87172800D01*
X159660538Y-83470750D01*
X166775000Y-83470750D01*
X166775000Y-83936310D01*
X166871673Y-84169699D01*
X167050302Y-84348327D01*
X167283691Y-84445000D01*
X167624250Y-84445000D01*
X167783000Y-84286250D01*
X167783000Y-83312000D01*
X166933750Y-83312000D01*
X166775000Y-83470750D01*
X159660538Y-83470750D01*
X157755538Y-81565750D01*
X166775000Y-81565750D01*
X166775000Y-82031310D01*
X166858336Y-82232500D01*
X166775000Y-82433690D01*
X166775000Y-82899250D01*
X166933750Y-83058000D01*
X167783000Y-83058000D01*
X167783000Y-81407000D01*
X166933750Y-81407000D01*
X166775000Y-81565750D01*
X157755538Y-81565750D01*
X156718478Y-80528690D01*
X166775000Y-80528690D01*
X166775000Y-80994250D01*
X166933750Y-81153000D01*
X167783000Y-81153000D01*
X167783000Y-80178750D01*
X167624250Y-80020000D01*
X167283691Y-80020000D01*
X167050302Y-80116673D01*
X166871673Y-80295301D01*
X166775000Y-80528690D01*
X156718478Y-80528690D01*
X154896200Y-78706412D01*
X154896200Y-78403102D01*
X155055317Y-78373162D01*
X155176900Y-78294926D01*
X155190301Y-78308327D01*
X155423690Y-78405000D01*
X155899250Y-78405000D01*
X156058000Y-78246250D01*
X156058000Y-76627000D01*
X156038000Y-76627000D01*
X156038000Y-76373000D01*
X156058000Y-76373000D01*
X156058000Y-74753750D01*
X155899250Y-74595000D01*
X155423690Y-74595000D01*
X155190301Y-74691673D01*
X155176754Y-74705220D01*
X155071890Y-74633569D01*
X154820000Y-74582560D01*
X153550000Y-74582560D01*
X153314683Y-74626838D01*
X153184573Y-74710562D01*
X153071890Y-74633569D01*
X152820000Y-74582560D01*
X151550000Y-74582560D01*
X151314683Y-74626838D01*
X151184573Y-74710562D01*
X151071890Y-74633569D01*
X150820000Y-74582560D01*
X149550000Y-74582560D01*
X149314683Y-74626838D01*
X149184573Y-74710562D01*
X149071890Y-74633569D01*
X148820000Y-74582560D01*
X147550000Y-74582560D01*
X147314683Y-74626838D01*
X147184573Y-74710562D01*
X147071890Y-74633569D01*
X146820000Y-74582560D01*
X146693143Y-74582560D01*
X146687895Y-74574706D01*
X146478018Y-74364829D01*
X146478069Y-74306337D01*
X146329507Y-73946788D01*
X146054659Y-73671460D01*
X145806069Y-73568237D01*
X146641381Y-72732925D01*
X146807181Y-72733069D01*
X147166730Y-72584507D01*
X147442058Y-72309659D01*
X147591248Y-71950370D01*
X147591587Y-71561337D01*
X147443025Y-71201788D01*
X147168177Y-70926460D01*
X146808888Y-70777270D01*
X146419855Y-70776931D01*
X146060306Y-70925493D01*
X145784978Y-71200341D01*
X145635788Y-71559630D01*
X145635642Y-71727088D01*
X142780170Y-74582560D01*
X141550000Y-74582560D01*
X141314683Y-74626838D01*
X141184573Y-74710562D01*
X141071890Y-74633569D01*
X141046200Y-74628367D01*
X141046200Y-73061794D01*
X141163540Y-72944659D01*
X141312730Y-72585370D01*
X141313069Y-72196337D01*
X141164507Y-71836788D01*
X140889659Y-71561460D01*
X140530370Y-71412270D01*
X140141337Y-71411931D01*
X139781788Y-71560493D01*
X139506460Y-71835341D01*
X139357270Y-72194630D01*
X139356931Y-72583663D01*
X139426111Y-72751092D01*
X139260370Y-72682270D01*
X138871337Y-72681931D01*
X138511788Y-72830493D01*
X138236460Y-73105341D01*
X138087270Y-73464630D01*
X138087124Y-73632088D01*
X137682106Y-74037106D01*
X137527937Y-74267835D01*
X137473800Y-74540000D01*
X137473800Y-74596898D01*
X137314683Y-74626838D01*
X137184573Y-74710562D01*
X137071890Y-74633569D01*
X136820000Y-74582560D01*
X135550000Y-74582560D01*
X135314683Y-74626838D01*
X135184573Y-74710562D01*
X135071890Y-74633569D01*
X134820000Y-74582560D01*
X133550000Y-74582560D01*
X133314683Y-74626838D01*
X133098559Y-74765910D01*
X132953569Y-74978110D01*
X132902560Y-75230000D01*
X132902560Y-77165861D01*
X129780000Y-80288420D01*
X127865790Y-78374210D01*
X127865787Y-78374208D01*
X127859790Y-78368210D01*
X127742440Y-78289800D01*
X127572675Y-78176367D01*
X127516484Y-78165190D01*
X127234000Y-78108999D01*
X127233995Y-78109000D01*
X124280478Y-78109000D01*
X123982370Y-77810371D01*
X123469100Y-77597243D01*
X122913339Y-77596758D01*
X122399697Y-77808990D01*
X122006371Y-78201630D01*
X121920051Y-78409512D01*
X121835010Y-78203697D01*
X121442370Y-77810371D01*
X120929100Y-77597243D01*
X120373339Y-77596758D01*
X119859697Y-77808990D01*
X119466371Y-78201630D01*
X119380051Y-78409512D01*
X119295010Y-78203697D01*
X118902370Y-77810371D01*
X118389100Y-77597243D01*
X117833339Y-77596758D01*
X117319697Y-77808990D01*
X116926371Y-78201630D01*
X116840051Y-78409512D01*
X116755010Y-78203697D01*
X116362370Y-77810371D01*
X115849100Y-77597243D01*
X115293339Y-77596758D01*
X114779697Y-77808990D01*
X114386371Y-78201630D01*
X114173243Y-78714900D01*
X114172758Y-79270661D01*
X114212730Y-79367401D01*
X113575069Y-79367401D01*
X113302904Y-79421538D01*
X113072175Y-79575707D01*
X109930000Y-82717882D01*
X109930000Y-63371736D01*
X114085736Y-63371736D01*
X114317262Y-63932073D01*
X114745596Y-64361155D01*
X115305528Y-64593659D01*
X115911812Y-64594188D01*
X116472149Y-64362662D01*
X116860301Y-63975187D01*
X117245596Y-64361155D01*
X117805528Y-64593659D01*
X118411812Y-64594188D01*
X118972149Y-64362662D01*
X119193076Y-64142120D01*
X119717409Y-64142120D01*
X119802467Y-64397463D01*
X120371965Y-64605440D01*
X120977700Y-64579647D01*
X121417533Y-64397463D01*
X121502591Y-64142120D01*
X120610000Y-63249529D01*
X119717409Y-64142120D01*
X119193076Y-64142120D01*
X119401231Y-63934328D01*
X119407544Y-63919124D01*
X119537804Y-63962515D01*
X120430395Y-63069924D01*
X120789605Y-63069924D01*
X121682196Y-63962515D01*
X121937539Y-63877457D01*
X122145516Y-63307959D01*
X122119723Y-62702224D01*
X121937539Y-62262391D01*
X121682196Y-62177333D01*
X120789605Y-63069924D01*
X120430395Y-63069924D01*
X119537804Y-62177333D01*
X119408023Y-62220565D01*
X119402738Y-62207775D01*
X119193058Y-61997728D01*
X119717409Y-61997728D01*
X120610000Y-62890319D01*
X121502591Y-61997728D01*
X121417533Y-61742385D01*
X120848035Y-61534408D01*
X120242300Y-61560201D01*
X119802467Y-61742385D01*
X119717409Y-61997728D01*
X119193058Y-61997728D01*
X118974404Y-61778693D01*
X118414472Y-61546189D01*
X117808188Y-61545660D01*
X117247851Y-61777186D01*
X116859699Y-62164661D01*
X116474404Y-61778693D01*
X115914472Y-61546189D01*
X115308188Y-61545660D01*
X114747851Y-61777186D01*
X114318769Y-62205520D01*
X114086265Y-62765452D01*
X114085736Y-63371736D01*
X109930000Y-63371736D01*
X109930000Y-62233682D01*
X110379495Y-62683963D01*
X111079410Y-62974592D01*
X111837265Y-62975254D01*
X112537686Y-62685846D01*
X113074039Y-62150429D01*
X113364668Y-61450514D01*
X113364670Y-61447189D01*
X122854670Y-61447189D01*
X123144078Y-62147610D01*
X123679495Y-62683963D01*
X124379410Y-62974592D01*
X125137265Y-62975254D01*
X125837686Y-62685846D01*
X126374039Y-62150429D01*
X126664668Y-61450514D01*
X126665330Y-60692659D01*
X126375922Y-59992238D01*
X125840505Y-59455885D01*
X125140590Y-59165256D01*
X124382735Y-59164594D01*
X123682314Y-59454002D01*
X123145961Y-59989419D01*
X122855332Y-60689334D01*
X122854670Y-61447189D01*
X113364670Y-61447189D01*
X113365330Y-60692659D01*
X113075922Y-59992238D01*
X112540505Y-59455885D01*
X111840590Y-59165256D01*
X111082735Y-59164594D01*
X110382314Y-59454002D01*
X109930000Y-59905527D01*
X109930000Y-56892120D01*
X126967409Y-56892120D01*
X127052467Y-57147463D01*
X127621965Y-57355440D01*
X128227700Y-57329647D01*
X128667533Y-57147463D01*
X128752591Y-56892120D01*
X127860000Y-55999529D01*
X126967409Y-56892120D01*
X109930000Y-56892120D01*
X109930000Y-55581889D01*
X126324484Y-55581889D01*
X126350277Y-56187624D01*
X126532461Y-56627457D01*
X126787804Y-56712515D01*
X127680395Y-55819924D01*
X126787804Y-54927333D01*
X126532461Y-55012391D01*
X126324484Y-55581889D01*
X109930000Y-55581889D01*
X109930000Y-51121736D01*
X126335736Y-51121736D01*
X126567262Y-51682073D01*
X126964775Y-52080280D01*
X126568769Y-52475596D01*
X126336265Y-53035528D01*
X126335736Y-53641812D01*
X126567262Y-54202149D01*
X126995596Y-54631231D01*
X127004925Y-54635105D01*
X126967409Y-54747728D01*
X127860000Y-55640319D01*
X127874143Y-55626177D01*
X128053748Y-55805782D01*
X128039605Y-55819924D01*
X128932196Y-56712515D01*
X129187539Y-56627457D01*
X129395516Y-56057959D01*
X129387659Y-55873447D01*
X138988800Y-65474589D01*
X138988800Y-66003206D01*
X138871460Y-66120341D01*
X138722270Y-66479630D01*
X138721931Y-66868663D01*
X138870493Y-67228212D01*
X139145341Y-67503540D01*
X139504630Y-67652730D01*
X139893663Y-67653069D01*
X140253212Y-67504507D01*
X140528540Y-67229659D01*
X140677730Y-66870370D01*
X140678069Y-66481337D01*
X140529507Y-66121788D01*
X140411200Y-66003274D01*
X140411200Y-65180000D01*
X140357063Y-64907836D01*
X140267419Y-64773674D01*
X140202895Y-64677106D01*
X129321101Y-53795312D01*
X129383735Y-53644472D01*
X129384264Y-53038188D01*
X129152738Y-52477851D01*
X128755225Y-52079644D01*
X129151231Y-51684328D01*
X129383735Y-51124396D01*
X129384030Y-50785750D01*
X134915000Y-50785750D01*
X134915000Y-51896309D01*
X135011673Y-52129698D01*
X135190301Y-52308327D01*
X135423690Y-52405000D01*
X135899250Y-52405000D01*
X136058000Y-52246250D01*
X136058000Y-50627000D01*
X136312000Y-50627000D01*
X136312000Y-52246250D01*
X136470750Y-52405000D01*
X136946310Y-52405000D01*
X137179699Y-52308327D01*
X137185000Y-52303026D01*
X137190301Y-52308327D01*
X137423690Y-52405000D01*
X137899250Y-52405000D01*
X138058000Y-52246250D01*
X138058000Y-50627000D01*
X138312000Y-50627000D01*
X138312000Y-52246250D01*
X138470750Y-52405000D01*
X138946310Y-52405000D01*
X139179699Y-52308327D01*
X139358327Y-52129698D01*
X139455000Y-51896309D01*
X139455000Y-50785750D01*
X144415000Y-50785750D01*
X144415000Y-51896309D01*
X144511673Y-52129698D01*
X144690301Y-52308327D01*
X144923690Y-52405000D01*
X145399250Y-52405000D01*
X145558000Y-52246250D01*
X145558000Y-50627000D01*
X144573750Y-50627000D01*
X144415000Y-50785750D01*
X139455000Y-50785750D01*
X139296250Y-50627000D01*
X138312000Y-50627000D01*
X138058000Y-50627000D01*
X136312000Y-50627000D01*
X136058000Y-50627000D01*
X135073750Y-50627000D01*
X134915000Y-50785750D01*
X129384030Y-50785750D01*
X129384264Y-50518112D01*
X129152738Y-49957775D01*
X128724404Y-49528693D01*
X128164472Y-49296189D01*
X127558188Y-49295660D01*
X126997851Y-49527186D01*
X126568769Y-49955520D01*
X126336265Y-50515452D01*
X126335736Y-51121736D01*
X109930000Y-51121736D01*
X109930000Y-49103691D01*
X134915000Y-49103691D01*
X134915000Y-50214250D01*
X135073750Y-50373000D01*
X136058000Y-50373000D01*
X136058000Y-48753750D01*
X136312000Y-48753750D01*
X136312000Y-50373000D01*
X138058000Y-50373000D01*
X138058000Y-48753750D01*
X138312000Y-48753750D01*
X138312000Y-50373000D01*
X139296250Y-50373000D01*
X139455000Y-50214250D01*
X139455000Y-49103691D01*
X144415000Y-49103691D01*
X144415000Y-50214250D01*
X144573750Y-50373000D01*
X145558000Y-50373000D01*
X145558000Y-48753750D01*
X145399250Y-48595000D01*
X144923690Y-48595000D01*
X144690301Y-48691673D01*
X144511673Y-48870302D01*
X144415000Y-49103691D01*
X139455000Y-49103691D01*
X139358327Y-48870302D01*
X139179699Y-48691673D01*
X138946310Y-48595000D01*
X138470750Y-48595000D01*
X138312000Y-48753750D01*
X138058000Y-48753750D01*
X137899250Y-48595000D01*
X137423690Y-48595000D01*
X137190301Y-48691673D01*
X137185000Y-48696974D01*
X137179699Y-48691673D01*
X136946310Y-48595000D01*
X136470750Y-48595000D01*
X136312000Y-48753750D01*
X136058000Y-48753750D01*
X135899250Y-48595000D01*
X135423690Y-48595000D01*
X135190301Y-48691673D01*
X135011673Y-48870302D01*
X134915000Y-49103691D01*
X109930000Y-49103691D01*
X109930000Y-46733682D01*
X110379495Y-47183963D01*
X111079410Y-47474592D01*
X111837265Y-47475254D01*
X112537686Y-47185846D01*
X113074039Y-46650429D01*
X113364668Y-45950514D01*
X113364670Y-45947189D01*
X122854670Y-45947189D01*
X123144078Y-46647610D01*
X123679495Y-47183963D01*
X124379410Y-47474592D01*
X125137265Y-47475254D01*
X125837686Y-47185846D01*
X126374039Y-46650429D01*
X126664668Y-45950514D01*
X126665330Y-45192659D01*
X126476540Y-44735750D01*
X143764000Y-44735750D01*
X143764000Y-46608310D01*
X143860673Y-46841699D01*
X144039302Y-47020327D01*
X144272691Y-47117000D01*
X144875250Y-47117000D01*
X145034000Y-46958250D01*
X145034000Y-44577000D01*
X143922750Y-44577000D01*
X143764000Y-44735750D01*
X126476540Y-44735750D01*
X126375922Y-44492238D01*
X125840505Y-43955885D01*
X125140590Y-43665256D01*
X124382735Y-43664594D01*
X123682314Y-43954002D01*
X123145961Y-44489419D01*
X122855332Y-45189334D01*
X122854670Y-45947189D01*
X113364670Y-45947189D01*
X113365330Y-45192659D01*
X113075922Y-44492238D01*
X112540505Y-43955885D01*
X111840590Y-43665256D01*
X111082735Y-43664594D01*
X110641179Y-43847041D01*
X110847804Y-43537804D01*
X111849005Y-42868825D01*
X113099931Y-42620000D01*
X143764000Y-42620000D01*
X143764000Y-44164250D01*
X143764000Y-44164250D01*
G37*
X143764000Y-44164250D02*
X143922750Y-44323000D01*
X145034000Y-44323000D01*
X145034000Y-44303000D01*
X145288000Y-44303000D01*
X145288000Y-44323000D01*
X145308000Y-44323000D01*
X145308000Y-44577000D01*
X145288000Y-44577000D01*
X145288000Y-46958250D01*
X145446750Y-47117000D01*
X146049309Y-47117000D01*
X146282698Y-47020327D01*
X146316000Y-46987025D01*
X146316000Y-48595000D01*
X145970750Y-48595000D01*
X145812000Y-48753750D01*
X145812000Y-50373000D01*
X145832000Y-50373000D01*
X145832000Y-50627000D01*
X145812000Y-50627000D01*
X145812000Y-52246250D01*
X145970750Y-52405000D01*
X146446310Y-52405000D01*
X146679699Y-52308327D01*
X146693246Y-52294780D01*
X146798110Y-52366431D01*
X147050000Y-52417440D01*
X148320000Y-52417440D01*
X148555317Y-52373162D01*
X148676900Y-52294926D01*
X148690301Y-52308327D01*
X148923690Y-52405000D01*
X149399250Y-52405000D01*
X149558000Y-52246250D01*
X149558000Y-50627000D01*
X149812000Y-50627000D01*
X149812000Y-52246250D01*
X149970750Y-52405000D01*
X150446310Y-52405000D01*
X150679699Y-52308327D01*
X150858327Y-52129698D01*
X150955000Y-51896309D01*
X150955000Y-50785750D01*
X154915000Y-50785750D01*
X154915000Y-51896309D01*
X155011673Y-52129698D01*
X155190301Y-52308327D01*
X155423690Y-52405000D01*
X155899250Y-52405000D01*
X156058000Y-52246250D01*
X156058000Y-50627000D01*
X156312000Y-50627000D01*
X156312000Y-52246250D01*
X156470750Y-52405000D01*
X156946310Y-52405000D01*
X157179699Y-52308327D01*
X157185000Y-52303026D01*
X157190301Y-52308327D01*
X157423690Y-52405000D01*
X157899250Y-52405000D01*
X158058000Y-52246250D01*
X158058000Y-50627000D01*
X158312000Y-50627000D01*
X158312000Y-52246250D01*
X158470750Y-52405000D01*
X158946310Y-52405000D01*
X159179699Y-52308327D01*
X159358327Y-52129698D01*
X159455000Y-51896309D01*
X159455000Y-50785750D01*
X159296250Y-50627000D01*
X158312000Y-50627000D01*
X158058000Y-50627000D01*
X156312000Y-50627000D01*
X156058000Y-50627000D01*
X155073750Y-50627000D01*
X154915000Y-50785750D01*
X150955000Y-50785750D01*
X150796250Y-50627000D01*
X149812000Y-50627000D01*
X149558000Y-50627000D01*
X149538000Y-50627000D01*
X149538000Y-50601965D01*
X165244484Y-50601965D01*
X165270277Y-51207700D01*
X165452461Y-51647533D01*
X165707804Y-51732591D01*
X166600395Y-50840000D01*
X166959605Y-50840000D01*
X167852196Y-51732591D01*
X168107539Y-51647533D01*
X168315516Y-51078035D01*
X168289723Y-50472300D01*
X168107539Y-50032467D01*
X167852196Y-49947409D01*
X166959605Y-50840000D01*
X166600395Y-50840000D01*
X165707804Y-49947409D01*
X165452461Y-50032467D01*
X165244484Y-50601965D01*
X149538000Y-50601965D01*
X149538000Y-50373000D01*
X149558000Y-50373000D01*
X149558000Y-48753750D01*
X149812000Y-48753750D01*
X149812000Y-50373000D01*
X150796250Y-50373000D01*
X150955000Y-50214250D01*
X150955000Y-49103691D01*
X154915000Y-49103691D01*
X154915000Y-50214250D01*
X155073750Y-50373000D01*
X156058000Y-50373000D01*
X156058000Y-48753750D01*
X156312000Y-48753750D01*
X156312000Y-50373000D01*
X158058000Y-50373000D01*
X158058000Y-48753750D01*
X158312000Y-48753750D01*
X158312000Y-50373000D01*
X159296250Y-50373000D01*
X159455000Y-50214250D01*
X159455000Y-49767804D01*
X165887409Y-49767804D01*
X166780000Y-50660395D01*
X167672591Y-49767804D01*
X167587533Y-49512461D01*
X167018035Y-49304484D01*
X166412300Y-49330277D01*
X165972467Y-49512461D01*
X165887409Y-49767804D01*
X159455000Y-49767804D01*
X159455000Y-49103691D01*
X159358327Y-48870302D01*
X159179699Y-48691673D01*
X158946310Y-48595000D01*
X158470750Y-48595000D01*
X158312000Y-48753750D01*
X158058000Y-48753750D01*
X157899250Y-48595000D01*
X157423690Y-48595000D01*
X157190301Y-48691673D01*
X157185000Y-48696974D01*
X157179699Y-48691673D01*
X156946310Y-48595000D01*
X156470750Y-48595000D01*
X156312000Y-48753750D01*
X156058000Y-48753750D01*
X155899250Y-48595000D01*
X155423690Y-48595000D01*
X155190301Y-48691673D01*
X155011673Y-48870302D01*
X154915000Y-49103691D01*
X150955000Y-49103691D01*
X150858327Y-48870302D01*
X150679699Y-48691673D01*
X150446310Y-48595000D01*
X149970750Y-48595000D01*
X149812000Y-48753750D01*
X149558000Y-48753750D01*
X149399250Y-48595000D01*
X149086000Y-48595000D01*
X149086000Y-46987025D01*
X149119302Y-47020327D01*
X149352691Y-47117000D01*
X149955250Y-47117000D01*
X150114000Y-46958250D01*
X150114000Y-44577000D01*
X150368000Y-44577000D01*
X150368000Y-46958250D01*
X150526750Y-47117000D01*
X151129309Y-47117000D01*
X151362698Y-47020327D01*
X151541327Y-46841699D01*
X151638000Y-46608310D01*
X151638000Y-45967265D01*
X167974670Y-45967265D01*
X168264078Y-46667686D01*
X168799495Y-47204039D01*
X169499410Y-47494668D01*
X170257265Y-47495330D01*
X170957686Y-47205922D01*
X171494039Y-46670505D01*
X171784668Y-45970590D01*
X171785330Y-45212735D01*
X171557852Y-44662196D01*
X173137409Y-44662196D01*
X173222467Y-44917539D01*
X173791965Y-45125516D01*
X174397700Y-45099723D01*
X174837533Y-44917539D01*
X174922591Y-44662196D01*
X174030000Y-43769605D01*
X173137409Y-44662196D01*
X171557852Y-44662196D01*
X171495922Y-44512314D01*
X170960505Y-43975961D01*
X170260590Y-43685332D01*
X169502735Y-43684670D01*
X168802314Y-43974078D01*
X168265961Y-44509495D01*
X167975332Y-45209410D01*
X167974670Y-45967265D01*
X151638000Y-45967265D01*
X151638000Y-44735750D01*
X151479250Y-44577000D01*
X150368000Y-44577000D01*
X150114000Y-44577000D01*
X150094000Y-44577000D01*
X150094000Y-44323000D01*
X150114000Y-44323000D01*
X150114000Y-44303000D01*
X150368000Y-44303000D01*
X150368000Y-44323000D01*
X151479250Y-44323000D01*
X151638000Y-44164250D01*
X151638000Y-42620000D01*
X172880392Y-42620000D01*
X172957802Y-42697410D01*
X172702461Y-42782467D01*
X172494484Y-43351965D01*
X172520277Y-43957700D01*
X172702461Y-44397533D01*
X172957804Y-44482591D01*
X173850395Y-43590000D01*
X173836253Y-43575858D01*
X174015858Y-43396253D01*
X174030000Y-43410395D01*
X174044143Y-43396253D01*
X174223748Y-43575858D01*
X174209605Y-43590000D01*
X175102196Y-44482591D01*
X175231977Y-44439359D01*
X175237262Y-44452149D01*
X175665596Y-44881231D01*
X176225528Y-45113735D01*
X176254660Y-45113760D01*
X168304224Y-53064196D01*
X168304264Y-53018112D01*
X168072738Y-52457775D01*
X167644404Y-52028693D01*
X167635075Y-52024819D01*
X167672591Y-51912196D01*
X166780000Y-51019605D01*
X165887409Y-51912196D01*
X165924762Y-52024330D01*
X165917851Y-52027186D01*
X165488769Y-52455520D01*
X165256265Y-53015452D01*
X165255736Y-53621736D01*
X165487262Y-54182073D01*
X165884775Y-54580280D01*
X165488769Y-54975596D01*
X165256265Y-55535528D01*
X165255761Y-56112659D01*
X157855266Y-63513154D01*
X157631788Y-63605493D01*
X157356460Y-63880341D01*
X157207270Y-64239630D01*
X157206931Y-64628663D01*
X157300000Y-64853908D01*
X157300000Y-74636286D01*
X157193100Y-74705074D01*
X157179699Y-74691673D01*
X156946310Y-74595000D01*
X156470750Y-74595000D01*
X156312000Y-74753750D01*
X156312000Y-76373000D01*
X156332000Y-76373000D01*
X156332000Y-76627000D01*
X156312000Y-76627000D01*
X156312000Y-78246250D01*
X156470750Y-78405000D01*
X156946310Y-78405000D01*
X157179699Y-78308327D01*
X157193246Y-78294780D01*
X157298110Y-78366431D01*
X157550000Y-78417440D01*
X158215861Y-78417440D01*
X158393154Y-78594733D01*
X158485493Y-78818212D01*
X158760341Y-79093540D01*
X159119630Y-79242730D01*
X159508663Y-79243069D01*
X159733908Y-79150000D01*
X168622962Y-79150000D01*
X168641838Y-79250317D01*
X168780910Y-79466441D01*
X168993110Y-79611431D01*
X169025000Y-79617889D01*
X169025000Y-80148156D01*
X168958559Y-80190910D01*
X168912031Y-80259006D01*
X168769698Y-80116673D01*
X168536309Y-80020000D01*
X168195750Y-80020000D01*
X168037000Y-80178750D01*
X168037000Y-81153000D01*
X168057000Y-81153000D01*
X168057000Y-81407000D01*
X168037000Y-81407000D01*
X168037000Y-83058000D01*
X168057000Y-83058000D01*
X168057000Y-83312000D01*
X168037000Y-83312000D01*
X168037000Y-84286250D01*
X168195750Y-84445000D01*
X168536309Y-84445000D01*
X168769698Y-84348327D01*
X168910936Y-84207090D01*
X168945910Y-84261441D01*
X169158110Y-84406431D01*
X169410000Y-84457440D01*
X170410000Y-84457440D01*
X170645317Y-84413162D01*
X170861441Y-84274090D01*
X171006431Y-84061890D01*
X171057440Y-83810000D01*
X171057440Y-82560000D01*
X171013162Y-82324683D01*
X170954293Y-82233197D01*
X171006431Y-82156890D01*
X171057440Y-81905000D01*
X171057440Y-80655000D01*
X171013162Y-80419683D01*
X170874090Y-80203559D01*
X170795000Y-80149519D01*
X170795000Y-79662440D01*
X171115000Y-79662440D01*
X171350317Y-79618162D01*
X171440980Y-79559822D01*
X171658690Y-79650000D01*
X171799250Y-79650000D01*
X171818712Y-79630538D01*
X171742270Y-79814630D01*
X171741931Y-80203663D01*
X171890493Y-80563212D01*
X172165341Y-80838540D01*
X172524630Y-80987730D01*
X172913663Y-80988069D01*
X173273212Y-80839507D01*
X173548540Y-80564659D01*
X173697730Y-80205370D01*
X173697854Y-80063642D01*
X181767106Y-88132894D01*
X181997835Y-88287063D01*
X182270000Y-88341200D01*
X182536437Y-88341200D01*
X182564990Y-88410303D01*
X182957630Y-88803629D01*
X183165512Y-88889949D01*
X182959697Y-88974990D01*
X182566371Y-89367630D01*
X182353243Y-89880900D01*
X182352758Y-90436661D01*
X182378134Y-90498077D01*
X180877412Y-91998800D01*
X174661794Y-91998800D01*
X174544659Y-91881460D01*
X174185370Y-91732270D01*
X173796337Y-91731931D01*
X173436788Y-91880493D01*
X173161460Y-92155341D01*
X173012270Y-92514630D01*
X173011931Y-92903663D01*
X173160493Y-93263212D01*
X173435341Y-93538540D01*
X173794630Y-93687730D01*
X174183663Y-93688069D01*
X174543212Y-93539507D01*
X174661726Y-93421200D01*
X177201484Y-93421200D01*
X177022783Y-93540604D01*
X170256200Y-100307188D01*
X170256200Y-92746794D01*
X170373540Y-92629659D01*
X170522730Y-92270370D01*
X170523069Y-91881337D01*
X170451996Y-91709327D01*
X170665200Y-91566870D01*
X171091661Y-91567242D01*
X171605303Y-91355010D01*
X171810457Y-91150213D01*
X172554392Y-91150213D01*
X172623857Y-91392397D01*
X173147302Y-91579144D01*
X173702368Y-91551362D01*
X174086143Y-91392397D01*
X174155608Y-91150213D01*
X173355000Y-90349605D01*
X172554392Y-91150213D01*
X171810457Y-91150213D01*
X171998629Y-90962370D01*
X172078395Y-90770273D01*
X172132603Y-90901143D01*
X172374787Y-90970608D01*
X173175395Y-90170000D01*
X173534605Y-90170000D01*
X174335213Y-90970608D01*
X174577397Y-90901143D01*
X174764144Y-90377698D01*
X174736362Y-89822632D01*
X174577397Y-89438857D01*
X174335213Y-89369392D01*
X173534605Y-90170000D01*
X173175395Y-90170000D01*
X172374787Y-89369392D01*
X172132603Y-89438857D01*
X172082491Y-89579318D01*
X172000010Y-89379697D01*
X171810432Y-89189787D01*
X172554392Y-89189787D01*
X173355000Y-89990395D01*
X174155608Y-89189787D01*
X174086143Y-88947603D01*
X173562698Y-88760856D01*
X173007632Y-88788638D01*
X172623857Y-88947603D01*
X172554392Y-89189787D01*
X171810432Y-89189787D01*
X171607370Y-88986371D01*
X171094100Y-88773243D01*
X170538339Y-88772758D01*
X170024697Y-88984990D01*
X169631371Y-89377630D01*
X169545051Y-89585512D01*
X169460010Y-89379697D01*
X169067370Y-88986371D01*
X168554100Y-88773243D01*
X167998339Y-88772758D01*
X167484697Y-88984990D01*
X167251219Y-89218061D01*
X166475835Y-88442676D01*
X166430264Y-88374475D01*
X165436894Y-87381106D01*
X165206165Y-87226937D01*
X164934000Y-87172800D01*
X163362588Y-87172800D01*
X159660538Y-83470750D01*
X166775000Y-83470750D01*
X166775000Y-83936310D01*
X166871673Y-84169699D01*
X167050302Y-84348327D01*
X167283691Y-84445000D01*
X167624250Y-84445000D01*
X167783000Y-84286250D01*
X167783000Y-83312000D01*
X166933750Y-83312000D01*
X166775000Y-83470750D01*
X159660538Y-83470750D01*
X157755538Y-81565750D01*
X166775000Y-81565750D01*
X166775000Y-82031310D01*
X166858336Y-82232500D01*
X166775000Y-82433690D01*
X166775000Y-82899250D01*
X166933750Y-83058000D01*
X167783000Y-83058000D01*
X167783000Y-81407000D01*
X166933750Y-81407000D01*
X166775000Y-81565750D01*
X157755538Y-81565750D01*
X156718478Y-80528690D01*
X166775000Y-80528690D01*
X166775000Y-80994250D01*
X166933750Y-81153000D01*
X167783000Y-81153000D01*
X167783000Y-80178750D01*
X167624250Y-80020000D01*
X167283691Y-80020000D01*
X167050302Y-80116673D01*
X166871673Y-80295301D01*
X166775000Y-80528690D01*
X156718478Y-80528690D01*
X154896200Y-78706412D01*
X154896200Y-78403102D01*
X155055317Y-78373162D01*
X155176900Y-78294926D01*
X155190301Y-78308327D01*
X155423690Y-78405000D01*
X155899250Y-78405000D01*
X156058000Y-78246250D01*
X156058000Y-76627000D01*
X156038000Y-76627000D01*
X156038000Y-76373000D01*
X156058000Y-76373000D01*
X156058000Y-74753750D01*
X155899250Y-74595000D01*
X155423690Y-74595000D01*
X155190301Y-74691673D01*
X155176754Y-74705220D01*
X155071890Y-74633569D01*
X154820000Y-74582560D01*
X153550000Y-74582560D01*
X153314683Y-74626838D01*
X153184573Y-74710562D01*
X153071890Y-74633569D01*
X152820000Y-74582560D01*
X151550000Y-74582560D01*
X151314683Y-74626838D01*
X151184573Y-74710562D01*
X151071890Y-74633569D01*
X150820000Y-74582560D01*
X149550000Y-74582560D01*
X149314683Y-74626838D01*
X149184573Y-74710562D01*
X149071890Y-74633569D01*
X148820000Y-74582560D01*
X147550000Y-74582560D01*
X147314683Y-74626838D01*
X147184573Y-74710562D01*
X147071890Y-74633569D01*
X146820000Y-74582560D01*
X146693143Y-74582560D01*
X146687895Y-74574706D01*
X146478018Y-74364829D01*
X146478069Y-74306337D01*
X146329507Y-73946788D01*
X146054659Y-73671460D01*
X145806069Y-73568237D01*
X146641381Y-72732925D01*
X146807181Y-72733069D01*
X147166730Y-72584507D01*
X147442058Y-72309659D01*
X147591248Y-71950370D01*
X147591587Y-71561337D01*
X147443025Y-71201788D01*
X147168177Y-70926460D01*
X146808888Y-70777270D01*
X146419855Y-70776931D01*
X146060306Y-70925493D01*
X145784978Y-71200341D01*
X145635788Y-71559630D01*
X145635642Y-71727088D01*
X142780170Y-74582560D01*
X141550000Y-74582560D01*
X141314683Y-74626838D01*
X141184573Y-74710562D01*
X141071890Y-74633569D01*
X141046200Y-74628367D01*
X141046200Y-73061794D01*
X141163540Y-72944659D01*
X141312730Y-72585370D01*
X141313069Y-72196337D01*
X141164507Y-71836788D01*
X140889659Y-71561460D01*
X140530370Y-71412270D01*
X140141337Y-71411931D01*
X139781788Y-71560493D01*
X139506460Y-71835341D01*
X139357270Y-72194630D01*
X139356931Y-72583663D01*
X139426111Y-72751092D01*
X139260370Y-72682270D01*
X138871337Y-72681931D01*
X138511788Y-72830493D01*
X138236460Y-73105341D01*
X138087270Y-73464630D01*
X138087124Y-73632088D01*
X137682106Y-74037106D01*
X137527937Y-74267835D01*
X137473800Y-74540000D01*
X137473800Y-74596898D01*
X137314683Y-74626838D01*
X137184573Y-74710562D01*
X137071890Y-74633569D01*
X136820000Y-74582560D01*
X135550000Y-74582560D01*
X135314683Y-74626838D01*
X135184573Y-74710562D01*
X135071890Y-74633569D01*
X134820000Y-74582560D01*
X133550000Y-74582560D01*
X133314683Y-74626838D01*
X133098559Y-74765910D01*
X132953569Y-74978110D01*
X132902560Y-75230000D01*
X132902560Y-77165861D01*
X129780000Y-80288420D01*
X127865790Y-78374210D01*
X127865787Y-78374208D01*
X127859790Y-78368210D01*
X127742440Y-78289800D01*
X127572675Y-78176367D01*
X127516484Y-78165190D01*
X127234000Y-78108999D01*
X127233995Y-78109000D01*
X124280478Y-78109000D01*
X123982370Y-77810371D01*
X123469100Y-77597243D01*
X122913339Y-77596758D01*
X122399697Y-77808990D01*
X122006371Y-78201630D01*
X121920051Y-78409512D01*
X121835010Y-78203697D01*
X121442370Y-77810371D01*
X120929100Y-77597243D01*
X120373339Y-77596758D01*
X119859697Y-77808990D01*
X119466371Y-78201630D01*
X119380051Y-78409512D01*
X119295010Y-78203697D01*
X118902370Y-77810371D01*
X118389100Y-77597243D01*
X117833339Y-77596758D01*
X117319697Y-77808990D01*
X116926371Y-78201630D01*
X116840051Y-78409512D01*
X116755010Y-78203697D01*
X116362370Y-77810371D01*
X115849100Y-77597243D01*
X115293339Y-77596758D01*
X114779697Y-77808990D01*
X114386371Y-78201630D01*
X114173243Y-78714900D01*
X114172758Y-79270661D01*
X114212730Y-79367401D01*
X113575069Y-79367401D01*
X113302904Y-79421538D01*
X113072175Y-79575707D01*
X109930000Y-82717882D01*
X109930000Y-63371736D01*
X114085736Y-63371736D01*
X114317262Y-63932073D01*
X114745596Y-64361155D01*
X115305528Y-64593659D01*
X115911812Y-64594188D01*
X116472149Y-64362662D01*
X116860301Y-63975187D01*
X117245596Y-64361155D01*
X117805528Y-64593659D01*
X118411812Y-64594188D01*
X118972149Y-64362662D01*
X119193076Y-64142120D01*
X119717409Y-64142120D01*
X119802467Y-64397463D01*
X120371965Y-64605440D01*
X120977700Y-64579647D01*
X121417533Y-64397463D01*
X121502591Y-64142120D01*
X120610000Y-63249529D01*
X119717409Y-64142120D01*
X119193076Y-64142120D01*
X119401231Y-63934328D01*
X119407544Y-63919124D01*
X119537804Y-63962515D01*
X120430395Y-63069924D01*
X120789605Y-63069924D01*
X121682196Y-63962515D01*
X121937539Y-63877457D01*
X122145516Y-63307959D01*
X122119723Y-62702224D01*
X121937539Y-62262391D01*
X121682196Y-62177333D01*
X120789605Y-63069924D01*
X120430395Y-63069924D01*
X119537804Y-62177333D01*
X119408023Y-62220565D01*
X119402738Y-62207775D01*
X119193058Y-61997728D01*
X119717409Y-61997728D01*
X120610000Y-62890319D01*
X121502591Y-61997728D01*
X121417533Y-61742385D01*
X120848035Y-61534408D01*
X120242300Y-61560201D01*
X119802467Y-61742385D01*
X119717409Y-61997728D01*
X119193058Y-61997728D01*
X118974404Y-61778693D01*
X118414472Y-61546189D01*
X117808188Y-61545660D01*
X117247851Y-61777186D01*
X116859699Y-62164661D01*
X116474404Y-61778693D01*
X115914472Y-61546189D01*
X115308188Y-61545660D01*
X114747851Y-61777186D01*
X114318769Y-62205520D01*
X114086265Y-62765452D01*
X114085736Y-63371736D01*
X109930000Y-63371736D01*
X109930000Y-62233682D01*
X110379495Y-62683963D01*
X111079410Y-62974592D01*
X111837265Y-62975254D01*
X112537686Y-62685846D01*
X113074039Y-62150429D01*
X113364668Y-61450514D01*
X113364670Y-61447189D01*
X122854670Y-61447189D01*
X123144078Y-62147610D01*
X123679495Y-62683963D01*
X124379410Y-62974592D01*
X125137265Y-62975254D01*
X125837686Y-62685846D01*
X126374039Y-62150429D01*
X126664668Y-61450514D01*
X126665330Y-60692659D01*
X126375922Y-59992238D01*
X125840505Y-59455885D01*
X125140590Y-59165256D01*
X124382735Y-59164594D01*
X123682314Y-59454002D01*
X123145961Y-59989419D01*
X122855332Y-60689334D01*
X122854670Y-61447189D01*
X113364670Y-61447189D01*
X113365330Y-60692659D01*
X113075922Y-59992238D01*
X112540505Y-59455885D01*
X111840590Y-59165256D01*
X111082735Y-59164594D01*
X110382314Y-59454002D01*
X109930000Y-59905527D01*
X109930000Y-56892120D01*
X126967409Y-56892120D01*
X127052467Y-57147463D01*
X127621965Y-57355440D01*
X128227700Y-57329647D01*
X128667533Y-57147463D01*
X128752591Y-56892120D01*
X127860000Y-55999529D01*
X126967409Y-56892120D01*
X109930000Y-56892120D01*
X109930000Y-55581889D01*
X126324484Y-55581889D01*
X126350277Y-56187624D01*
X126532461Y-56627457D01*
X126787804Y-56712515D01*
X127680395Y-55819924D01*
X126787804Y-54927333D01*
X126532461Y-55012391D01*
X126324484Y-55581889D01*
X109930000Y-55581889D01*
X109930000Y-51121736D01*
X126335736Y-51121736D01*
X126567262Y-51682073D01*
X126964775Y-52080280D01*
X126568769Y-52475596D01*
X126336265Y-53035528D01*
X126335736Y-53641812D01*
X126567262Y-54202149D01*
X126995596Y-54631231D01*
X127004925Y-54635105D01*
X126967409Y-54747728D01*
X127860000Y-55640319D01*
X127874143Y-55626177D01*
X128053748Y-55805782D01*
X128039605Y-55819924D01*
X128932196Y-56712515D01*
X129187539Y-56627457D01*
X129395516Y-56057959D01*
X129387659Y-55873447D01*
X138988800Y-65474589D01*
X138988800Y-66003206D01*
X138871460Y-66120341D01*
X138722270Y-66479630D01*
X138721931Y-66868663D01*
X138870493Y-67228212D01*
X139145341Y-67503540D01*
X139504630Y-67652730D01*
X139893663Y-67653069D01*
X140253212Y-67504507D01*
X140528540Y-67229659D01*
X140677730Y-66870370D01*
X140678069Y-66481337D01*
X140529507Y-66121788D01*
X140411200Y-66003274D01*
X140411200Y-65180000D01*
X140357063Y-64907836D01*
X140267419Y-64773674D01*
X140202895Y-64677106D01*
X129321101Y-53795312D01*
X129383735Y-53644472D01*
X129384264Y-53038188D01*
X129152738Y-52477851D01*
X128755225Y-52079644D01*
X129151231Y-51684328D01*
X129383735Y-51124396D01*
X129384030Y-50785750D01*
X134915000Y-50785750D01*
X134915000Y-51896309D01*
X135011673Y-52129698D01*
X135190301Y-52308327D01*
X135423690Y-52405000D01*
X135899250Y-52405000D01*
X136058000Y-52246250D01*
X136058000Y-50627000D01*
X136312000Y-50627000D01*
X136312000Y-52246250D01*
X136470750Y-52405000D01*
X136946310Y-52405000D01*
X137179699Y-52308327D01*
X137185000Y-52303026D01*
X137190301Y-52308327D01*
X137423690Y-52405000D01*
X137899250Y-52405000D01*
X138058000Y-52246250D01*
X138058000Y-50627000D01*
X138312000Y-50627000D01*
X138312000Y-52246250D01*
X138470750Y-52405000D01*
X138946310Y-52405000D01*
X139179699Y-52308327D01*
X139358327Y-52129698D01*
X139455000Y-51896309D01*
X139455000Y-50785750D01*
X144415000Y-50785750D01*
X144415000Y-51896309D01*
X144511673Y-52129698D01*
X144690301Y-52308327D01*
X144923690Y-52405000D01*
X145399250Y-52405000D01*
X145558000Y-52246250D01*
X145558000Y-50627000D01*
X144573750Y-50627000D01*
X144415000Y-50785750D01*
X139455000Y-50785750D01*
X139296250Y-50627000D01*
X138312000Y-50627000D01*
X138058000Y-50627000D01*
X136312000Y-50627000D01*
X136058000Y-50627000D01*
X135073750Y-50627000D01*
X134915000Y-50785750D01*
X129384030Y-50785750D01*
X129384264Y-50518112D01*
X129152738Y-49957775D01*
X128724404Y-49528693D01*
X128164472Y-49296189D01*
X127558188Y-49295660D01*
X126997851Y-49527186D01*
X126568769Y-49955520D01*
X126336265Y-50515452D01*
X126335736Y-51121736D01*
X109930000Y-51121736D01*
X109930000Y-49103691D01*
X134915000Y-49103691D01*
X134915000Y-50214250D01*
X135073750Y-50373000D01*
X136058000Y-50373000D01*
X136058000Y-48753750D01*
X136312000Y-48753750D01*
X136312000Y-50373000D01*
X138058000Y-50373000D01*
X138058000Y-48753750D01*
X138312000Y-48753750D01*
X138312000Y-50373000D01*
X139296250Y-50373000D01*
X139455000Y-50214250D01*
X139455000Y-49103691D01*
X144415000Y-49103691D01*
X144415000Y-50214250D01*
X144573750Y-50373000D01*
X145558000Y-50373000D01*
X145558000Y-48753750D01*
X145399250Y-48595000D01*
X144923690Y-48595000D01*
X144690301Y-48691673D01*
X144511673Y-48870302D01*
X144415000Y-49103691D01*
X139455000Y-49103691D01*
X139358327Y-48870302D01*
X139179699Y-48691673D01*
X138946310Y-48595000D01*
X138470750Y-48595000D01*
X138312000Y-48753750D01*
X138058000Y-48753750D01*
X137899250Y-48595000D01*
X137423690Y-48595000D01*
X137190301Y-48691673D01*
X137185000Y-48696974D01*
X137179699Y-48691673D01*
X136946310Y-48595000D01*
X136470750Y-48595000D01*
X136312000Y-48753750D01*
X136058000Y-48753750D01*
X135899250Y-48595000D01*
X135423690Y-48595000D01*
X135190301Y-48691673D01*
X135011673Y-48870302D01*
X134915000Y-49103691D01*
X109930000Y-49103691D01*
X109930000Y-46733682D01*
X110379495Y-47183963D01*
X111079410Y-47474592D01*
X111837265Y-47475254D01*
X112537686Y-47185846D01*
X113074039Y-46650429D01*
X113364668Y-45950514D01*
X113364670Y-45947189D01*
X122854670Y-45947189D01*
X123144078Y-46647610D01*
X123679495Y-47183963D01*
X124379410Y-47474592D01*
X125137265Y-47475254D01*
X125837686Y-47185846D01*
X126374039Y-46650429D01*
X126664668Y-45950514D01*
X126665330Y-45192659D01*
X126476540Y-44735750D01*
X143764000Y-44735750D01*
X143764000Y-46608310D01*
X143860673Y-46841699D01*
X144039302Y-47020327D01*
X144272691Y-47117000D01*
X144875250Y-47117000D01*
X145034000Y-46958250D01*
X145034000Y-44577000D01*
X143922750Y-44577000D01*
X143764000Y-44735750D01*
X126476540Y-44735750D01*
X126375922Y-44492238D01*
X125840505Y-43955885D01*
X125140590Y-43665256D01*
X124382735Y-43664594D01*
X123682314Y-43954002D01*
X123145961Y-44489419D01*
X122855332Y-45189334D01*
X122854670Y-45947189D01*
X113364670Y-45947189D01*
X113365330Y-45192659D01*
X113075922Y-44492238D01*
X112540505Y-43955885D01*
X111840590Y-43665256D01*
X111082735Y-43664594D01*
X110641179Y-43847041D01*
X110847804Y-43537804D01*
X111849005Y-42868825D01*
X113099931Y-42620000D01*
X143764000Y-42620000D01*
X143764000Y-44164250D01*
G36*
X135021931Y-78693663D02*
X135170493Y-79053212D01*
X135215707Y-79098505D01*
X131132575Y-83181637D01*
X130911823Y-83181445D01*
X130552274Y-83330007D01*
X130276946Y-83604855D01*
X130127756Y-83964144D01*
X130127417Y-84353177D01*
X130275979Y-84712726D01*
X130550827Y-84988054D01*
X130910116Y-85137244D01*
X131176735Y-85137476D01*
X125862106Y-90452106D01*
X125707937Y-90682835D01*
X125700162Y-90721925D01*
X125536460Y-90885341D01*
X125387270Y-91244630D01*
X125387221Y-91300302D01*
X113468090Y-91300302D01*
X112639851Y-90472063D01*
X112686757Y-90359100D01*
X112687242Y-89803339D01*
X112653679Y-89722109D01*
X118612894Y-83762895D01*
X118767062Y-83532165D01*
X118767063Y-83532164D01*
X118821200Y-83260000D01*
X118821200Y-82751695D01*
X118900303Y-82719010D01*
X119293629Y-82326370D01*
X119379949Y-82118488D01*
X119464990Y-82324303D01*
X119857630Y-82717629D01*
X120370900Y-82930757D01*
X120926661Y-82931242D01*
X121440303Y-82719010D01*
X121793000Y-82366928D01*
X121793000Y-82422309D01*
X121889673Y-82655698D01*
X122068301Y-82834327D01*
X122301690Y-82931000D01*
X122904250Y-82931000D01*
X123063000Y-82772250D01*
X123063000Y-81661000D01*
X123317000Y-81661000D01*
X123317000Y-82772250D01*
X123475750Y-82931000D01*
X124078310Y-82931000D01*
X124311699Y-82834327D01*
X124490327Y-82655698D01*
X124587000Y-82422309D01*
X124587000Y-81819750D01*
X124428250Y-81661000D01*
X123317000Y-81661000D01*
X123063000Y-81661000D01*
X123043000Y-81661000D01*
X123043000Y-81407000D01*
X123063000Y-81407000D01*
X123063000Y-81387000D01*
X123317000Y-81387000D01*
X123317000Y-81407000D01*
X124428250Y-81407000D01*
X124587000Y-81248250D01*
X124587000Y-80645691D01*
X124490327Y-80412302D01*
X124311699Y-80233673D01*
X124078310Y-80137000D01*
X124022386Y-80137000D01*
X124280837Y-79879000D01*
X126867420Y-79879000D01*
X128858154Y-81869733D01*
X128950493Y-82093212D01*
X129225341Y-82368540D01*
X129584630Y-82517730D01*
X129973663Y-82518069D01*
X130333212Y-82369507D01*
X130608540Y-82094659D01*
X130702002Y-81869578D01*
X134154139Y-78417440D01*
X134820000Y-78417440D01*
X135022205Y-78379392D01*
X135021931Y-78693663D01*
X135021931Y-78693663D01*
G37*
X135021931Y-78693663D02*
X135170493Y-79053212D01*
X135215707Y-79098505D01*
X131132575Y-83181637D01*
X130911823Y-83181445D01*
X130552274Y-83330007D01*
X130276946Y-83604855D01*
X130127756Y-83964144D01*
X130127417Y-84353177D01*
X130275979Y-84712726D01*
X130550827Y-84988054D01*
X130910116Y-85137244D01*
X131176735Y-85137476D01*
X125862106Y-90452106D01*
X125707937Y-90682835D01*
X125700162Y-90721925D01*
X125536460Y-90885341D01*
X125387270Y-91244630D01*
X125387221Y-91300302D01*
X113468090Y-91300302D01*
X112639851Y-90472063D01*
X112686757Y-90359100D01*
X112687242Y-89803339D01*
X112653679Y-89722109D01*
X118612894Y-83762895D01*
X118767062Y-83532165D01*
X118767063Y-83532164D01*
X118821200Y-83260000D01*
X118821200Y-82751695D01*
X118900303Y-82719010D01*
X119293629Y-82326370D01*
X119379949Y-82118488D01*
X119464990Y-82324303D01*
X119857630Y-82717629D01*
X120370900Y-82930757D01*
X120926661Y-82931242D01*
X121440303Y-82719010D01*
X121793000Y-82366928D01*
X121793000Y-82422309D01*
X121889673Y-82655698D01*
X122068301Y-82834327D01*
X122301690Y-82931000D01*
X122904250Y-82931000D01*
X123063000Y-82772250D01*
X123063000Y-81661000D01*
X123317000Y-81661000D01*
X123317000Y-82772250D01*
X123475750Y-82931000D01*
X124078310Y-82931000D01*
X124311699Y-82834327D01*
X124490327Y-82655698D01*
X124587000Y-82422309D01*
X124587000Y-81819750D01*
X124428250Y-81661000D01*
X123317000Y-81661000D01*
X123063000Y-81661000D01*
X123043000Y-81661000D01*
X123043000Y-81407000D01*
X123063000Y-81407000D01*
X123063000Y-81387000D01*
X123317000Y-81387000D01*
X123317000Y-81407000D01*
X124428250Y-81407000D01*
X124587000Y-81248250D01*
X124587000Y-80645691D01*
X124490327Y-80412302D01*
X124311699Y-80233673D01*
X124078310Y-80137000D01*
X124022386Y-80137000D01*
X124280837Y-79879000D01*
X126867420Y-79879000D01*
X128858154Y-81869733D01*
X128950493Y-82093212D01*
X129225341Y-82368540D01*
X129584630Y-82517730D01*
X129973663Y-82518069D01*
X130333212Y-82369507D01*
X130608540Y-82094659D01*
X130702002Y-81869578D01*
X134154139Y-78417440D01*
X134820000Y-78417440D01*
X135022205Y-78379392D01*
X135021931Y-78693663D01*
G36*
X182790995Y-42868824D02*
X183792196Y-43537804D01*
X184017556Y-43875080D01*
X183560590Y-43685332D01*
X182802735Y-43684670D01*
X182102314Y-43974078D01*
X181565961Y-44509495D01*
X181275332Y-45209410D01*
X181274670Y-45967265D01*
X181564078Y-46667686D01*
X182099495Y-47204039D01*
X182799410Y-47494668D01*
X183557265Y-47495330D01*
X184257686Y-47205922D01*
X184710000Y-46754397D01*
X184710000Y-59926242D01*
X184260505Y-59475961D01*
X183560590Y-59185332D01*
X182802735Y-59184670D01*
X182102314Y-59474078D01*
X181565961Y-60009495D01*
X181275332Y-60709410D01*
X181274670Y-61467265D01*
X181564078Y-62167686D01*
X182099495Y-62704039D01*
X182799410Y-62994668D01*
X183557265Y-62995330D01*
X184257686Y-62705922D01*
X184710000Y-62254397D01*
X184710000Y-76444294D01*
X184542370Y-76276371D01*
X184029100Y-76063243D01*
X183473339Y-76062758D01*
X182959697Y-76274990D01*
X182566371Y-76667630D01*
X182353243Y-77180900D01*
X182352758Y-77736661D01*
X182564990Y-78250303D01*
X182957630Y-78643629D01*
X183165512Y-78729949D01*
X182959697Y-78814990D01*
X182566371Y-79207630D01*
X182353243Y-79720900D01*
X182352758Y-80276661D01*
X182378135Y-80338077D01*
X180855910Y-81860302D01*
X179237852Y-81860302D01*
X179263540Y-81834659D01*
X179412730Y-81475370D01*
X179413069Y-81086337D01*
X179264507Y-80726788D01*
X178989659Y-80451460D01*
X178630370Y-80302270D01*
X178241337Y-80301931D01*
X178054844Y-80378988D01*
X178029485Y-80353629D01*
X178078540Y-80304659D01*
X178227730Y-79945370D01*
X178228056Y-79571194D01*
X178308000Y-79491250D01*
X178308000Y-78392000D01*
X178562000Y-78392000D01*
X178562000Y-79491250D01*
X178720750Y-79650000D01*
X178861310Y-79650000D01*
X179094699Y-79553327D01*
X179273327Y-79374698D01*
X179370000Y-79141309D01*
X179370000Y-78550750D01*
X179211250Y-78392000D01*
X178562000Y-78392000D01*
X178308000Y-78392000D01*
X178288000Y-78392000D01*
X178288000Y-78138000D01*
X178308000Y-78138000D01*
X178308000Y-77038750D01*
X178562000Y-77038750D01*
X178562000Y-78138000D01*
X179211250Y-78138000D01*
X179370000Y-77979250D01*
X179370000Y-77388691D01*
X179273327Y-77155302D01*
X179094699Y-76976673D01*
X178861310Y-76880000D01*
X178720750Y-76880000D01*
X178562000Y-77038750D01*
X178308000Y-77038750D01*
X178149250Y-76880000D01*
X178008690Y-76880000D01*
X177791878Y-76969806D01*
X177716890Y-76918569D01*
X177465000Y-76867560D01*
X176865000Y-76867560D01*
X176629683Y-76911838D01*
X176530472Y-76975678D01*
X176446890Y-76918569D01*
X176195000Y-76867560D01*
X175953348Y-76867560D01*
X175564482Y-76478694D01*
X175333753Y-76324525D01*
X175061588Y-76270388D01*
X164906176Y-76270388D01*
X160997925Y-72362137D01*
X160998069Y-72196337D01*
X160964462Y-72115000D01*
X168597560Y-72115000D01*
X168597560Y-73615000D01*
X168641838Y-73850317D01*
X168780910Y-74066441D01*
X168993110Y-74211431D01*
X169245000Y-74262440D01*
X169845000Y-74262440D01*
X170080317Y-74218162D01*
X170179528Y-74154322D01*
X170263110Y-74211431D01*
X170515000Y-74262440D01*
X171115000Y-74262440D01*
X171350317Y-74218162D01*
X171449528Y-74154322D01*
X171533110Y-74211431D01*
X171785000Y-74262440D01*
X172385000Y-74262440D01*
X172620317Y-74218162D01*
X172719528Y-74154322D01*
X172803110Y-74211431D01*
X173055000Y-74262440D01*
X173655000Y-74262440D01*
X173890317Y-74218162D01*
X173989528Y-74154322D01*
X174073110Y-74211431D01*
X174325000Y-74262440D01*
X174925000Y-74262440D01*
X175160317Y-74218162D01*
X175259528Y-74154322D01*
X175343110Y-74211431D01*
X175595000Y-74262440D01*
X176195000Y-74262440D01*
X176430317Y-74218162D01*
X176529528Y-74154322D01*
X176613110Y-74211431D01*
X176865000Y-74262440D01*
X177465000Y-74262440D01*
X177700317Y-74218162D01*
X177799528Y-74154322D01*
X177883110Y-74211431D01*
X178135000Y-74262440D01*
X178735000Y-74262440D01*
X178970317Y-74218162D01*
X179186441Y-74079090D01*
X179331431Y-73866890D01*
X179382440Y-73615000D01*
X179382440Y-72115000D01*
X179367546Y-72035843D01*
X179581495Y-71821894D01*
X179735664Y-71591164D01*
X179760250Y-71467560D01*
X179789801Y-71318999D01*
X179789801Y-67318601D01*
X179772109Y-67229659D01*
X179735664Y-67046436D01*
X179581495Y-66815707D01*
X179368438Y-66602650D01*
X179371961Y-66597378D01*
X179485000Y-66029093D01*
X179485000Y-65970907D01*
X179371961Y-65402622D01*
X179050054Y-64920853D01*
X178568285Y-64598946D01*
X178000000Y-64485907D01*
X177431715Y-64598946D01*
X176949946Y-64920853D01*
X176730000Y-65250026D01*
X176510054Y-64920853D01*
X176028285Y-64598946D01*
X175460000Y-64485907D01*
X174891715Y-64598946D01*
X174409946Y-64920853D01*
X174190000Y-65250026D01*
X173970054Y-64920853D01*
X173488285Y-64598946D01*
X172920000Y-64485907D01*
X172351715Y-64598946D01*
X171869946Y-64920853D01*
X171650000Y-65250026D01*
X171430054Y-64920853D01*
X170948285Y-64598946D01*
X170380000Y-64485907D01*
X169811715Y-64598946D01*
X169329946Y-64920853D01*
X169008039Y-65402622D01*
X168895000Y-65970907D01*
X168895000Y-66029093D01*
X169008039Y-66597378D01*
X169329946Y-67079147D01*
X169331179Y-67079971D01*
X169294683Y-67086838D01*
X169078559Y-67225910D01*
X168933569Y-67438110D01*
X168882560Y-67690000D01*
X168882560Y-69129868D01*
X168833800Y-69375000D01*
X168833800Y-71625016D01*
X168793559Y-71650910D01*
X168648569Y-71863110D01*
X168597560Y-72115000D01*
X160964462Y-72115000D01*
X160849507Y-71836788D01*
X160574659Y-71561460D01*
X160215370Y-71412270D01*
X160096200Y-71412166D01*
X160096200Y-66334588D01*
X161317863Y-65112925D01*
X161483663Y-65113069D01*
X161843212Y-64964507D01*
X162118540Y-64689659D01*
X162267730Y-64330370D01*
X162268069Y-63941337D01*
X162119507Y-63581788D01*
X161844659Y-63306460D01*
X161485370Y-63157270D01*
X161096337Y-63156931D01*
X160736788Y-63305493D01*
X160461460Y-63580341D01*
X160312270Y-63939630D01*
X160312124Y-64107088D01*
X159070000Y-65349212D01*
X159070000Y-64853688D01*
X159107002Y-64764578D01*
X162404314Y-61467265D01*
X167974670Y-61467265D01*
X168264078Y-62167686D01*
X168799495Y-62704039D01*
X169499410Y-62994668D01*
X170257265Y-62995330D01*
X170957686Y-62705922D01*
X171494039Y-62170505D01*
X171784668Y-61470590D01*
X171785330Y-60712735D01*
X171495922Y-60012314D01*
X170960505Y-59475961D01*
X170260590Y-59185332D01*
X169502735Y-59184670D01*
X168802314Y-59474078D01*
X168265961Y-60009495D01*
X167975332Y-60709410D01*
X167974670Y-61467265D01*
X162404314Y-61467265D01*
X166507816Y-57363763D01*
X167081812Y-57364264D01*
X167642149Y-57132738D01*
X168071231Y-56704404D01*
X168303735Y-56144472D01*
X168304239Y-55567341D01*
X178757816Y-45113763D01*
X179331812Y-45114264D01*
X179892149Y-44882738D01*
X180321231Y-44454404D01*
X180553735Y-43894472D01*
X180554264Y-43288188D01*
X180322738Y-42727851D01*
X180215075Y-42620000D01*
X181540069Y-42620000D01*
X182790995Y-42868824D01*
X182790995Y-42868824D01*
G37*
X182790995Y-42868824D02*
X183792196Y-43537804D01*
X184017556Y-43875080D01*
X183560590Y-43685332D01*
X182802735Y-43684670D01*
X182102314Y-43974078D01*
X181565961Y-44509495D01*
X181275332Y-45209410D01*
X181274670Y-45967265D01*
X181564078Y-46667686D01*
X182099495Y-47204039D01*
X182799410Y-47494668D01*
X183557265Y-47495330D01*
X184257686Y-47205922D01*
X184710000Y-46754397D01*
X184710000Y-59926242D01*
X184260505Y-59475961D01*
X183560590Y-59185332D01*
X182802735Y-59184670D01*
X182102314Y-59474078D01*
X181565961Y-60009495D01*
X181275332Y-60709410D01*
X181274670Y-61467265D01*
X181564078Y-62167686D01*
X182099495Y-62704039D01*
X182799410Y-62994668D01*
X183557265Y-62995330D01*
X184257686Y-62705922D01*
X184710000Y-62254397D01*
X184710000Y-76444294D01*
X184542370Y-76276371D01*
X184029100Y-76063243D01*
X183473339Y-76062758D01*
X182959697Y-76274990D01*
X182566371Y-76667630D01*
X182353243Y-77180900D01*
X182352758Y-77736661D01*
X182564990Y-78250303D01*
X182957630Y-78643629D01*
X183165512Y-78729949D01*
X182959697Y-78814990D01*
X182566371Y-79207630D01*
X182353243Y-79720900D01*
X182352758Y-80276661D01*
X182378135Y-80338077D01*
X180855910Y-81860302D01*
X179237852Y-81860302D01*
X179263540Y-81834659D01*
X179412730Y-81475370D01*
X179413069Y-81086337D01*
X179264507Y-80726788D01*
X178989659Y-80451460D01*
X178630370Y-80302270D01*
X178241337Y-80301931D01*
X178054844Y-80378988D01*
X178029485Y-80353629D01*
X178078540Y-80304659D01*
X178227730Y-79945370D01*
X178228056Y-79571194D01*
X178308000Y-79491250D01*
X178308000Y-78392000D01*
X178562000Y-78392000D01*
X178562000Y-79491250D01*
X178720750Y-79650000D01*
X178861310Y-79650000D01*
X179094699Y-79553327D01*
X179273327Y-79374698D01*
X179370000Y-79141309D01*
X179370000Y-78550750D01*
X179211250Y-78392000D01*
X178562000Y-78392000D01*
X178308000Y-78392000D01*
X178288000Y-78392000D01*
X178288000Y-78138000D01*
X178308000Y-78138000D01*
X178308000Y-77038750D01*
X178562000Y-77038750D01*
X178562000Y-78138000D01*
X179211250Y-78138000D01*
X179370000Y-77979250D01*
X179370000Y-77388691D01*
X179273327Y-77155302D01*
X179094699Y-76976673D01*
X178861310Y-76880000D01*
X178720750Y-76880000D01*
X178562000Y-77038750D01*
X178308000Y-77038750D01*
X178149250Y-76880000D01*
X178008690Y-76880000D01*
X177791878Y-76969806D01*
X177716890Y-76918569D01*
X177465000Y-76867560D01*
X176865000Y-76867560D01*
X176629683Y-76911838D01*
X176530472Y-76975678D01*
X176446890Y-76918569D01*
X176195000Y-76867560D01*
X175953348Y-76867560D01*
X175564482Y-76478694D01*
X175333753Y-76324525D01*
X175061588Y-76270388D01*
X164906176Y-76270388D01*
X160997925Y-72362137D01*
X160998069Y-72196337D01*
X160964462Y-72115000D01*
X168597560Y-72115000D01*
X168597560Y-73615000D01*
X168641838Y-73850317D01*
X168780910Y-74066441D01*
X168993110Y-74211431D01*
X169245000Y-74262440D01*
X169845000Y-74262440D01*
X170080317Y-74218162D01*
X170179528Y-74154322D01*
X170263110Y-74211431D01*
X170515000Y-74262440D01*
X171115000Y-74262440D01*
X171350317Y-74218162D01*
X171449528Y-74154322D01*
X171533110Y-74211431D01*
X171785000Y-74262440D01*
X172385000Y-74262440D01*
X172620317Y-74218162D01*
X172719528Y-74154322D01*
X172803110Y-74211431D01*
X173055000Y-74262440D01*
X173655000Y-74262440D01*
X173890317Y-74218162D01*
X173989528Y-74154322D01*
X174073110Y-74211431D01*
X174325000Y-74262440D01*
X174925000Y-74262440D01*
X175160317Y-74218162D01*
X175259528Y-74154322D01*
X175343110Y-74211431D01*
X175595000Y-74262440D01*
X176195000Y-74262440D01*
X176430317Y-74218162D01*
X176529528Y-74154322D01*
X176613110Y-74211431D01*
X176865000Y-74262440D01*
X177465000Y-74262440D01*
X177700317Y-74218162D01*
X177799528Y-74154322D01*
X177883110Y-74211431D01*
X178135000Y-74262440D01*
X178735000Y-74262440D01*
X178970317Y-74218162D01*
X179186441Y-74079090D01*
X179331431Y-73866890D01*
X179382440Y-73615000D01*
X179382440Y-72115000D01*
X179367546Y-72035843D01*
X179581495Y-71821894D01*
X179735664Y-71591164D01*
X179760250Y-71467560D01*
X179789801Y-71318999D01*
X179789801Y-67318601D01*
X179772109Y-67229659D01*
X179735664Y-67046436D01*
X179581495Y-66815707D01*
X179368438Y-66602650D01*
X179371961Y-66597378D01*
X179485000Y-66029093D01*
X179485000Y-65970907D01*
X179371961Y-65402622D01*
X179050054Y-64920853D01*
X178568285Y-64598946D01*
X178000000Y-64485907D01*
X177431715Y-64598946D01*
X176949946Y-64920853D01*
X176730000Y-65250026D01*
X176510054Y-64920853D01*
X176028285Y-64598946D01*
X175460000Y-64485907D01*
X174891715Y-64598946D01*
X174409946Y-64920853D01*
X174190000Y-65250026D01*
X173970054Y-64920853D01*
X173488285Y-64598946D01*
X172920000Y-64485907D01*
X172351715Y-64598946D01*
X171869946Y-64920853D01*
X171650000Y-65250026D01*
X171430054Y-64920853D01*
X170948285Y-64598946D01*
X170380000Y-64485907D01*
X169811715Y-64598946D01*
X169329946Y-64920853D01*
X169008039Y-65402622D01*
X168895000Y-65970907D01*
X168895000Y-66029093D01*
X169008039Y-66597378D01*
X169329946Y-67079147D01*
X169331179Y-67079971D01*
X169294683Y-67086838D01*
X169078559Y-67225910D01*
X168933569Y-67438110D01*
X168882560Y-67690000D01*
X168882560Y-69129868D01*
X168833800Y-69375000D01*
X168833800Y-71625016D01*
X168793559Y-71650910D01*
X168648569Y-71863110D01*
X168597560Y-72115000D01*
X160964462Y-72115000D01*
X160849507Y-71836788D01*
X160574659Y-71561460D01*
X160215370Y-71412270D01*
X160096200Y-71412166D01*
X160096200Y-66334588D01*
X161317863Y-65112925D01*
X161483663Y-65113069D01*
X161843212Y-64964507D01*
X162118540Y-64689659D01*
X162267730Y-64330370D01*
X162268069Y-63941337D01*
X162119507Y-63581788D01*
X161844659Y-63306460D01*
X161485370Y-63157270D01*
X161096337Y-63156931D01*
X160736788Y-63305493D01*
X160461460Y-63580341D01*
X160312270Y-63939630D01*
X160312124Y-64107088D01*
X159070000Y-65349212D01*
X159070000Y-64853688D01*
X159107002Y-64764578D01*
X162404314Y-61467265D01*
X167974670Y-61467265D01*
X168264078Y-62167686D01*
X168799495Y-62704039D01*
X169499410Y-62994668D01*
X170257265Y-62995330D01*
X170957686Y-62705922D01*
X171494039Y-62170505D01*
X171784668Y-61470590D01*
X171785330Y-60712735D01*
X171495922Y-60012314D01*
X170960505Y-59475961D01*
X170260590Y-59185332D01*
X169502735Y-59184670D01*
X168802314Y-59474078D01*
X168265961Y-60009495D01*
X167975332Y-60709410D01*
X167974670Y-61467265D01*
X162404314Y-61467265D01*
X166507816Y-57363763D01*
X167081812Y-57364264D01*
X167642149Y-57132738D01*
X168071231Y-56704404D01*
X168303735Y-56144472D01*
X168304239Y-55567341D01*
X178757816Y-45113763D01*
X179331812Y-45114264D01*
X179892149Y-44882738D01*
X180321231Y-44454404D01*
X180553735Y-43894472D01*
X180554264Y-43288188D01*
X180322738Y-42727851D01*
X180215075Y-42620000D01*
X181540069Y-42620000D01*
X182790995Y-42868824D01*
G36*
X172212000Y-78138000D02*
X172232000Y-78138000D01*
X172232000Y-78392000D01*
X172212000Y-78392000D01*
X172212000Y-78412000D01*
X171958000Y-78412000D01*
X171958000Y-78392000D01*
X171938000Y-78392000D01*
X171938000Y-78138000D01*
X171958000Y-78138000D01*
X171958000Y-78118000D01*
X172212000Y-78118000D01*
X172212000Y-78138000D01*
X172212000Y-78138000D01*
G37*
X172212000Y-78138000D02*
X172232000Y-78138000D01*
X172232000Y-78392000D01*
X172212000Y-78392000D01*
X172212000Y-78412000D01*
X171958000Y-78412000D01*
X171958000Y-78392000D01*
X171938000Y-78392000D01*
X171938000Y-78138000D01*
X171958000Y-78138000D01*
X171958000Y-78118000D01*
X172212000Y-78118000D01*
X172212000Y-78138000D01*
M02*
