%TF.GenerationSoftware,KiCad,Pcbnew,5.1.6-c6e7f7d~86~ubuntu20.04.1*%
%TF.CreationDate,2020-05-16T11:05:40+02:00*%
%TF.ProjectId,esp32_radio,65737033-325f-4726-9164-696f2e6b6963,V0.1*%
%TF.SameCoordinates,Original*%
%TF.FileFunction,Soldermask,Bot*%
%TF.FilePolarity,Negative*%
%FSLAX46Y46*%
G04 Gerber Fmt 4.6, Leading zero omitted, Abs format (unit mm)*
G04 Created by KiCad (PCBNEW 5.1.6-c6e7f7d~86~ubuntu20.04.1) date 2020-05-16 11:05:40*
%MOMM*%
%LPD*%
G01*
G04 APERTURE LIST*
%TA.AperFunction,Profile*%
%ADD10C,0.150000*%
%TD*%
%ADD11C,0.100000*%
G04 APERTURE END LIST*
D10*
X107188000Y-109088000D02*
G75*
G03*
X112188000Y-114088000I5000000J0D01*
G01*
X182188000Y-114088000D02*
G75*
G03*
X187188000Y-109088000I0J5000000D01*
G01*
X187188000Y-44088000D02*
G75*
G03*
X182188000Y-39088000I-5000000J0D01*
G01*
X112188000Y-39088000D02*
G75*
G03*
X107188000Y-44088000I0J-5000000D01*
G01*
X182188000Y-39088000D02*
X112188000Y-39088000D01*
X187188000Y-109088000D02*
X187188000Y-44088000D01*
X112188000Y-114088000D02*
X182188000Y-114088000D01*
X107188000Y-44088000D02*
X107188000Y-109088000D01*
D11*
G36*
X123201975Y-110971170D02*
G01*
X123305801Y-111002665D01*
X123401489Y-111053811D01*
X123485359Y-111122641D01*
X123554189Y-111206511D01*
X123605335Y-111302198D01*
X123636830Y-111406024D01*
X123644800Y-111486943D01*
X123644800Y-112541057D01*
X123636830Y-112621976D01*
X123605335Y-112725802D01*
X123554189Y-112821489D01*
X123485359Y-112905359D01*
X123401489Y-112974189D01*
X123305802Y-113025335D01*
X123201976Y-113056830D01*
X123094000Y-113067465D01*
X122986025Y-113056830D01*
X122882199Y-113025335D01*
X122786512Y-112974189D01*
X122702642Y-112905359D01*
X122633812Y-112821489D01*
X122582666Y-112725802D01*
X122551171Y-112621976D01*
X122543201Y-112541057D01*
X122543200Y-111486944D01*
X122551170Y-111406025D01*
X122582665Y-111302199D01*
X122633811Y-111206511D01*
X122702641Y-111122641D01*
X122786511Y-111053811D01*
X122882198Y-111002665D01*
X122986024Y-110971170D01*
X123094000Y-110960535D01*
X123201975Y-110971170D01*
G37*
G36*
X117551975Y-110971170D02*
G01*
X117655801Y-111002665D01*
X117751489Y-111053811D01*
X117835359Y-111122641D01*
X117904189Y-111206511D01*
X117955335Y-111302198D01*
X117986830Y-111406024D01*
X117994800Y-111486943D01*
X117994800Y-112541057D01*
X117986830Y-112621976D01*
X117955335Y-112725802D01*
X117904189Y-112821489D01*
X117835359Y-112905359D01*
X117751489Y-112974189D01*
X117655802Y-113025335D01*
X117551976Y-113056830D01*
X117444000Y-113067465D01*
X117336025Y-113056830D01*
X117232199Y-113025335D01*
X117136512Y-112974189D01*
X117052642Y-112905359D01*
X116983812Y-112821489D01*
X116932666Y-112725802D01*
X116901171Y-112621976D01*
X116893201Y-112541057D01*
X116893200Y-111486944D01*
X116901170Y-111406025D01*
X116932665Y-111302199D01*
X116983811Y-111206511D01*
X117052641Y-111122641D01*
X117136511Y-111053811D01*
X117232198Y-111002665D01*
X117336024Y-110971170D01*
X117444000Y-110960535D01*
X117551975Y-110971170D01*
G37*
G36*
X136377577Y-111862445D02*
G01*
X136468716Y-111900196D01*
X136468718Y-111900197D01*
X136550741Y-111955003D01*
X136620497Y-112024759D01*
X136675304Y-112106784D01*
X136713055Y-112197923D01*
X136732300Y-112294674D01*
X136732300Y-112393326D01*
X136713055Y-112490077D01*
X136691941Y-112541051D01*
X136675303Y-112581218D01*
X136620497Y-112663241D01*
X136550741Y-112732997D01*
X136468718Y-112787803D01*
X136468717Y-112787804D01*
X136468716Y-112787804D01*
X136377577Y-112825555D01*
X136280826Y-112844800D01*
X136182174Y-112844800D01*
X136085423Y-112825555D01*
X135994284Y-112787804D01*
X135994283Y-112787804D01*
X135994282Y-112787803D01*
X135912259Y-112732997D01*
X135842503Y-112663241D01*
X135787697Y-112581218D01*
X135771059Y-112541051D01*
X135749945Y-112490077D01*
X135730700Y-112393326D01*
X135730700Y-112294674D01*
X135749945Y-112197923D01*
X135787696Y-112106784D01*
X135842503Y-112024759D01*
X135912259Y-111955003D01*
X135994282Y-111900197D01*
X135994284Y-111900196D01*
X136085423Y-111862445D01*
X136182174Y-111843200D01*
X136280826Y-111843200D01*
X136377577Y-111862445D01*
G37*
G36*
X139377577Y-111862445D02*
G01*
X139468716Y-111900196D01*
X139468718Y-111900197D01*
X139550741Y-111955003D01*
X139620497Y-112024759D01*
X139675304Y-112106784D01*
X139713055Y-112197923D01*
X139732300Y-112294674D01*
X139732300Y-112393326D01*
X139713055Y-112490077D01*
X139691941Y-112541051D01*
X139675303Y-112581218D01*
X139620497Y-112663241D01*
X139550741Y-112732997D01*
X139468718Y-112787803D01*
X139468717Y-112787804D01*
X139468716Y-112787804D01*
X139377577Y-112825555D01*
X139280826Y-112844800D01*
X139182174Y-112844800D01*
X139085423Y-112825555D01*
X138994284Y-112787804D01*
X138994283Y-112787804D01*
X138994282Y-112787803D01*
X138912259Y-112732997D01*
X138842503Y-112663241D01*
X138787697Y-112581218D01*
X138771059Y-112541051D01*
X138749945Y-112490077D01*
X138730700Y-112393326D01*
X138730700Y-112294674D01*
X138749945Y-112197923D01*
X138787696Y-112106784D01*
X138842503Y-112024759D01*
X138912259Y-111955003D01*
X138994282Y-111900197D01*
X138994284Y-111900196D01*
X139085423Y-111862445D01*
X139182174Y-111843200D01*
X139280826Y-111843200D01*
X139377577Y-111862445D01*
G37*
G36*
X128023179Y-110640417D02*
G01*
X128103933Y-110664914D01*
X128145858Y-110677632D01*
X128258913Y-110738061D01*
X128358012Y-110819388D01*
X128439339Y-110918487D01*
X128499768Y-111031542D01*
X128499769Y-111031545D01*
X128536983Y-111154221D01*
X128546400Y-111249837D01*
X128546400Y-111863763D01*
X128536983Y-111959379D01*
X128517150Y-112024759D01*
X128499768Y-112082058D01*
X128439339Y-112195113D01*
X128358012Y-112294211D01*
X128258912Y-112375539D01*
X128145857Y-112435968D01*
X128145854Y-112435969D01*
X128023178Y-112473183D01*
X127895600Y-112485748D01*
X127768021Y-112473183D01*
X127645345Y-112435969D01*
X127645342Y-112435968D01*
X127532287Y-112375539D01*
X127433189Y-112294212D01*
X127351861Y-112195112D01*
X127291432Y-112082057D01*
X127291431Y-112082054D01*
X127254217Y-111959378D01*
X127244800Y-111863762D01*
X127244800Y-111249837D01*
X127254217Y-111154221D01*
X127279026Y-111072437D01*
X127291431Y-111031544D01*
X127329386Y-110960536D01*
X127351862Y-110918486D01*
X127365256Y-110902166D01*
X127433189Y-110819388D01*
X127532288Y-110738061D01*
X127645343Y-110677632D01*
X127687268Y-110664914D01*
X127768022Y-110640417D01*
X127895600Y-110627852D01*
X128023179Y-110640417D01*
G37*
G36*
X130386710Y-110635402D02*
G01*
X130423784Y-110646649D01*
X130457957Y-110664914D01*
X130487907Y-110689493D01*
X130512486Y-110719443D01*
X130530751Y-110753616D01*
X130541998Y-110790690D01*
X130546400Y-110835390D01*
X130546400Y-112278210D01*
X130541998Y-112322910D01*
X130530751Y-112359984D01*
X130512486Y-112394157D01*
X130487907Y-112424107D01*
X130457957Y-112448686D01*
X130423784Y-112466951D01*
X130386710Y-112478198D01*
X130342010Y-112482600D01*
X129449190Y-112482600D01*
X129404490Y-112478198D01*
X129367416Y-112466951D01*
X129333243Y-112448686D01*
X129303293Y-112424107D01*
X129278714Y-112394157D01*
X129260449Y-112359984D01*
X129249202Y-112322910D01*
X129244800Y-112278210D01*
X129244800Y-110835390D01*
X129249202Y-110790690D01*
X129260449Y-110753616D01*
X129278714Y-110719443D01*
X129303293Y-110689493D01*
X129333243Y-110664914D01*
X129367416Y-110646649D01*
X129404490Y-110635402D01*
X129449190Y-110631000D01*
X130342010Y-110631000D01*
X130386710Y-110635402D01*
G37*
G36*
X110699584Y-107894865D02*
G01*
X110844534Y-107923697D01*
X111254154Y-108093367D01*
X111622802Y-108339689D01*
X111936311Y-108653198D01*
X112182633Y-109021846D01*
X112352303Y-109431466D01*
X112352303Y-109431467D01*
X112431957Y-109831910D01*
X112438800Y-109866316D01*
X112438800Y-110309684D01*
X112352303Y-110744534D01*
X112182633Y-111154154D01*
X111936311Y-111522802D01*
X111622802Y-111836311D01*
X111254154Y-112082633D01*
X110844534Y-112252303D01*
X110714291Y-112278210D01*
X110409686Y-112338800D01*
X109966314Y-112338800D01*
X109661709Y-112278210D01*
X109531466Y-112252303D01*
X109121846Y-112082633D01*
X108753198Y-111836311D01*
X108439689Y-111522802D01*
X108193367Y-111154154D01*
X108023697Y-110744534D01*
X107937200Y-110309684D01*
X107937200Y-109866316D01*
X107944044Y-109831910D01*
X108023697Y-109431467D01*
X108023697Y-109431466D01*
X108193367Y-109021846D01*
X108439689Y-108653198D01*
X108753198Y-108339689D01*
X109121846Y-108093367D01*
X109531466Y-107923697D01*
X109676416Y-107894865D01*
X109966314Y-107837200D01*
X110409686Y-107837200D01*
X110699584Y-107894865D01*
G37*
G36*
X184699584Y-107894865D02*
G01*
X184844534Y-107923697D01*
X185254154Y-108093367D01*
X185622802Y-108339689D01*
X185936311Y-108653198D01*
X186182633Y-109021846D01*
X186352303Y-109431466D01*
X186352303Y-109431467D01*
X186431957Y-109831910D01*
X186438800Y-109866316D01*
X186438800Y-110309684D01*
X186352303Y-110744534D01*
X186182633Y-111154154D01*
X185936311Y-111522802D01*
X185622802Y-111836311D01*
X185254154Y-112082633D01*
X184844534Y-112252303D01*
X184714291Y-112278210D01*
X184409686Y-112338800D01*
X183966314Y-112338800D01*
X183661709Y-112278210D01*
X183531466Y-112252303D01*
X183121846Y-112082633D01*
X182753198Y-111836311D01*
X182439689Y-111522802D01*
X182193367Y-111154154D01*
X182023697Y-110744534D01*
X181937200Y-110309684D01*
X181937200Y-109866316D01*
X181944044Y-109831910D01*
X182023697Y-109431467D01*
X182023697Y-109431466D01*
X182193367Y-109021846D01*
X182439689Y-108653198D01*
X182753198Y-108339689D01*
X183121846Y-108093367D01*
X183531466Y-107923697D01*
X183676416Y-107894865D01*
X183966314Y-107837200D01*
X184409686Y-107837200D01*
X184699584Y-107894865D01*
G37*
G36*
X118364031Y-109550720D02*
G01*
X118423326Y-109575281D01*
X118476680Y-109610931D01*
X118476682Y-109610933D01*
X118476685Y-109610935D01*
X118522065Y-109656315D01*
X118522067Y-109656318D01*
X118522069Y-109656320D01*
X118557719Y-109709674D01*
X118582280Y-109768969D01*
X118594800Y-109831910D01*
X118594800Y-109896090D01*
X118582280Y-109959031D01*
X118557719Y-110018326D01*
X118522069Y-110071680D01*
X118522067Y-110071682D01*
X118522065Y-110071685D01*
X118476685Y-110117065D01*
X118476682Y-110117067D01*
X118476680Y-110117069D01*
X118423326Y-110152719D01*
X118364031Y-110177280D01*
X118301090Y-110189800D01*
X118236910Y-110189800D01*
X118173969Y-110177280D01*
X118114674Y-110152719D01*
X118061320Y-110117069D01*
X118061318Y-110117067D01*
X118061315Y-110117065D01*
X118015935Y-110071685D01*
X118015933Y-110071682D01*
X118015931Y-110071680D01*
X117980281Y-110018326D01*
X117955720Y-109959031D01*
X117943200Y-109896090D01*
X117943200Y-109831910D01*
X117955720Y-109768969D01*
X117980281Y-109709674D01*
X118015931Y-109656320D01*
X118015933Y-109656318D01*
X118015935Y-109656315D01*
X118061315Y-109610935D01*
X118061318Y-109610933D01*
X118061320Y-109610931D01*
X118114674Y-109575281D01*
X118173969Y-109550720D01*
X118236910Y-109538200D01*
X118301090Y-109538200D01*
X118364031Y-109550720D01*
G37*
G36*
X122364031Y-109550720D02*
G01*
X122423326Y-109575281D01*
X122476680Y-109610931D01*
X122476682Y-109610933D01*
X122476685Y-109610935D01*
X122522065Y-109656315D01*
X122522067Y-109656318D01*
X122522069Y-109656320D01*
X122557719Y-109709674D01*
X122582280Y-109768969D01*
X122594800Y-109831910D01*
X122594800Y-109896090D01*
X122582280Y-109959031D01*
X122557719Y-110018326D01*
X122522069Y-110071680D01*
X122522067Y-110071682D01*
X122522065Y-110071685D01*
X122476685Y-110117065D01*
X122476682Y-110117067D01*
X122476680Y-110117069D01*
X122423326Y-110152719D01*
X122364031Y-110177280D01*
X122301090Y-110189800D01*
X122236910Y-110189800D01*
X122173969Y-110177280D01*
X122114674Y-110152719D01*
X122061320Y-110117069D01*
X122061318Y-110117067D01*
X122061315Y-110117065D01*
X122015935Y-110071685D01*
X122015933Y-110071682D01*
X122015931Y-110071680D01*
X121980281Y-110018326D01*
X121955720Y-109959031D01*
X121943200Y-109896090D01*
X121943200Y-109831910D01*
X121955720Y-109768969D01*
X121980281Y-109709674D01*
X122015931Y-109656320D01*
X122015933Y-109656318D01*
X122015935Y-109656315D01*
X122061315Y-109610935D01*
X122061318Y-109610933D01*
X122061320Y-109610931D01*
X122114674Y-109575281D01*
X122173969Y-109550720D01*
X122236910Y-109538200D01*
X122301090Y-109538200D01*
X122364031Y-109550720D01*
G37*
G36*
X169838800Y-104838800D02*
G01*
X167137200Y-104838800D01*
X167137200Y-102137200D01*
X169838800Y-102137200D01*
X169838800Y-104838800D01*
G37*
G36*
X167938800Y-101488800D02*
G01*
X165637200Y-101488800D01*
X165637200Y-87287200D01*
X167938800Y-87287200D01*
X167938800Y-101488800D01*
G37*
G36*
X151510541Y-96366249D02*
G01*
X151624425Y-96413421D01*
X151726924Y-96481909D01*
X151814091Y-96569076D01*
X151849067Y-96621421D01*
X151864612Y-96640363D01*
X151883554Y-96655908D01*
X151905165Y-96667459D01*
X151928614Y-96674572D01*
X151953000Y-96676974D01*
X151977386Y-96674572D01*
X152000835Y-96667459D01*
X152022446Y-96655908D01*
X152041388Y-96640363D01*
X152056933Y-96621421D01*
X152091909Y-96569076D01*
X152179076Y-96481909D01*
X152281575Y-96413421D01*
X152395459Y-96366249D01*
X152516363Y-96342200D01*
X152639637Y-96342200D01*
X152760541Y-96366249D01*
X152874425Y-96413421D01*
X152976924Y-96481909D01*
X153064091Y-96569076D01*
X153099067Y-96621421D01*
X153114612Y-96640363D01*
X153133554Y-96655908D01*
X153155165Y-96667459D01*
X153178614Y-96674572D01*
X153203000Y-96676974D01*
X153227386Y-96674572D01*
X153250835Y-96667459D01*
X153272446Y-96655908D01*
X153291388Y-96640363D01*
X153306933Y-96621421D01*
X153341909Y-96569076D01*
X153429076Y-96481909D01*
X153531575Y-96413421D01*
X153645459Y-96366249D01*
X153766363Y-96342200D01*
X153889637Y-96342200D01*
X154010541Y-96366249D01*
X154124425Y-96413421D01*
X154226924Y-96481909D01*
X154314091Y-96569076D01*
X154349067Y-96621421D01*
X154364612Y-96640363D01*
X154383554Y-96655908D01*
X154405165Y-96667459D01*
X154428614Y-96674572D01*
X154453000Y-96676974D01*
X154477386Y-96674572D01*
X154500835Y-96667459D01*
X154522446Y-96655908D01*
X154541388Y-96640363D01*
X154556933Y-96621421D01*
X154591909Y-96569076D01*
X154679076Y-96481909D01*
X154781575Y-96413421D01*
X154895459Y-96366249D01*
X155016363Y-96342200D01*
X155139637Y-96342200D01*
X155260541Y-96366249D01*
X155374425Y-96413421D01*
X155476924Y-96481909D01*
X155564091Y-96569076D01*
X155632579Y-96671575D01*
X155679751Y-96785459D01*
X155703800Y-96906363D01*
X155703800Y-97029637D01*
X155679751Y-97150541D01*
X155632579Y-97264425D01*
X155564091Y-97366924D01*
X155476924Y-97454091D01*
X155424579Y-97489067D01*
X155405637Y-97504612D01*
X155390092Y-97523554D01*
X155378541Y-97545165D01*
X155371428Y-97568614D01*
X155369026Y-97593000D01*
X155371428Y-97617386D01*
X155378541Y-97640835D01*
X155390092Y-97662446D01*
X155405637Y-97681388D01*
X155424579Y-97696933D01*
X155476924Y-97731909D01*
X155564091Y-97819076D01*
X155632579Y-97921575D01*
X155679751Y-98035459D01*
X155703800Y-98156363D01*
X155703800Y-98279637D01*
X155679751Y-98400541D01*
X155632579Y-98514425D01*
X155564091Y-98616924D01*
X155476924Y-98704091D01*
X155424579Y-98739067D01*
X155405637Y-98754612D01*
X155390092Y-98773554D01*
X155378541Y-98795165D01*
X155371428Y-98818614D01*
X155369026Y-98843000D01*
X155371428Y-98867386D01*
X155378541Y-98890835D01*
X155390092Y-98912446D01*
X155405637Y-98931388D01*
X155424579Y-98946933D01*
X155476924Y-98981909D01*
X155564091Y-99069076D01*
X155632579Y-99171575D01*
X155679751Y-99285459D01*
X155703800Y-99406363D01*
X155703800Y-99529637D01*
X155679751Y-99650541D01*
X155632579Y-99764425D01*
X155564091Y-99866924D01*
X155476924Y-99954091D01*
X155424579Y-99989067D01*
X155405637Y-100004612D01*
X155390092Y-100023554D01*
X155378541Y-100045165D01*
X155371428Y-100068614D01*
X155369026Y-100093000D01*
X155371428Y-100117386D01*
X155378541Y-100140835D01*
X155390092Y-100162446D01*
X155405637Y-100181388D01*
X155424579Y-100196933D01*
X155476924Y-100231909D01*
X155564091Y-100319076D01*
X155632579Y-100421575D01*
X155679751Y-100535459D01*
X155703800Y-100656363D01*
X155703800Y-100779637D01*
X155679751Y-100900541D01*
X155632579Y-101014425D01*
X155564091Y-101116924D01*
X155476924Y-101204091D01*
X155374425Y-101272579D01*
X155260541Y-101319751D01*
X155139637Y-101343800D01*
X155016363Y-101343800D01*
X154895459Y-101319751D01*
X154781575Y-101272579D01*
X154679076Y-101204091D01*
X154591909Y-101116924D01*
X154556933Y-101064579D01*
X154541388Y-101045637D01*
X154522446Y-101030092D01*
X154500835Y-101018541D01*
X154477386Y-101011428D01*
X154453000Y-101009026D01*
X154428614Y-101011428D01*
X154405165Y-101018541D01*
X154383554Y-101030092D01*
X154364612Y-101045637D01*
X154349067Y-101064579D01*
X154314091Y-101116924D01*
X154226924Y-101204091D01*
X154124425Y-101272579D01*
X154010541Y-101319751D01*
X153889637Y-101343800D01*
X153766363Y-101343800D01*
X153645459Y-101319751D01*
X153531575Y-101272579D01*
X153429076Y-101204091D01*
X153341909Y-101116924D01*
X153306933Y-101064579D01*
X153291388Y-101045637D01*
X153272446Y-101030092D01*
X153250835Y-101018541D01*
X153227386Y-101011428D01*
X153203000Y-101009026D01*
X153178614Y-101011428D01*
X153155165Y-101018541D01*
X153133554Y-101030092D01*
X153114612Y-101045637D01*
X153099067Y-101064579D01*
X153064091Y-101116924D01*
X152976924Y-101204091D01*
X152874425Y-101272579D01*
X152760541Y-101319751D01*
X152639637Y-101343800D01*
X152516363Y-101343800D01*
X152395459Y-101319751D01*
X152281575Y-101272579D01*
X152179076Y-101204091D01*
X152091909Y-101116924D01*
X152056933Y-101064579D01*
X152041388Y-101045637D01*
X152022446Y-101030092D01*
X152000835Y-101018541D01*
X151977386Y-101011428D01*
X151953000Y-101009026D01*
X151928614Y-101011428D01*
X151905165Y-101018541D01*
X151883554Y-101030092D01*
X151864612Y-101045637D01*
X151849067Y-101064579D01*
X151814091Y-101116924D01*
X151726924Y-101204091D01*
X151624425Y-101272579D01*
X151510541Y-101319751D01*
X151389637Y-101343800D01*
X151266363Y-101343800D01*
X151145459Y-101319751D01*
X151031575Y-101272579D01*
X150929076Y-101204091D01*
X150841909Y-101116924D01*
X150773421Y-101014425D01*
X150726249Y-100900541D01*
X150702200Y-100779637D01*
X150702200Y-100656363D01*
X150726249Y-100535459D01*
X150773421Y-100421575D01*
X150841909Y-100319076D01*
X150929076Y-100231909D01*
X150981421Y-100196933D01*
X151000363Y-100181388D01*
X151015908Y-100162446D01*
X151027459Y-100140835D01*
X151034572Y-100117386D01*
X151036974Y-100093000D01*
X151619026Y-100093000D01*
X151621428Y-100117386D01*
X151628541Y-100140835D01*
X151640092Y-100162446D01*
X151655637Y-100181388D01*
X151674579Y-100196933D01*
X151726924Y-100231909D01*
X151814091Y-100319076D01*
X151849067Y-100371421D01*
X151864612Y-100390363D01*
X151883554Y-100405908D01*
X151905165Y-100417459D01*
X151928614Y-100424572D01*
X151953000Y-100426974D01*
X151977386Y-100424572D01*
X152000835Y-100417459D01*
X152022446Y-100405908D01*
X152041388Y-100390363D01*
X152056933Y-100371421D01*
X152091909Y-100319076D01*
X152179076Y-100231909D01*
X152231421Y-100196933D01*
X152250363Y-100181388D01*
X152265908Y-100162446D01*
X152277459Y-100140835D01*
X152284572Y-100117386D01*
X152286974Y-100093000D01*
X152869026Y-100093000D01*
X152871428Y-100117386D01*
X152878541Y-100140835D01*
X152890092Y-100162446D01*
X152905637Y-100181388D01*
X152924579Y-100196933D01*
X152976924Y-100231909D01*
X153064091Y-100319076D01*
X153099067Y-100371421D01*
X153114612Y-100390363D01*
X153133554Y-100405908D01*
X153155165Y-100417459D01*
X153178614Y-100424572D01*
X153203000Y-100426974D01*
X153227386Y-100424572D01*
X153250835Y-100417459D01*
X153272446Y-100405908D01*
X153291388Y-100390363D01*
X153306933Y-100371421D01*
X153341909Y-100319076D01*
X153429076Y-100231909D01*
X153481421Y-100196933D01*
X153500363Y-100181388D01*
X153515908Y-100162446D01*
X153527459Y-100140835D01*
X153534572Y-100117386D01*
X153536974Y-100093000D01*
X154119026Y-100093000D01*
X154121428Y-100117386D01*
X154128541Y-100140835D01*
X154140092Y-100162446D01*
X154155637Y-100181388D01*
X154174579Y-100196933D01*
X154226924Y-100231909D01*
X154314091Y-100319076D01*
X154349067Y-100371421D01*
X154364612Y-100390363D01*
X154383554Y-100405908D01*
X154405165Y-100417459D01*
X154428614Y-100424572D01*
X154453000Y-100426974D01*
X154477386Y-100424572D01*
X154500835Y-100417459D01*
X154522446Y-100405908D01*
X154541388Y-100390363D01*
X154556933Y-100371421D01*
X154591909Y-100319076D01*
X154679076Y-100231909D01*
X154731421Y-100196933D01*
X154750363Y-100181388D01*
X154765908Y-100162446D01*
X154777459Y-100140835D01*
X154784572Y-100117386D01*
X154786974Y-100093000D01*
X154784572Y-100068614D01*
X154777459Y-100045165D01*
X154765908Y-100023554D01*
X154750363Y-100004612D01*
X154731421Y-99989067D01*
X154679076Y-99954091D01*
X154591909Y-99866924D01*
X154556933Y-99814579D01*
X154541388Y-99795637D01*
X154522446Y-99780092D01*
X154500835Y-99768541D01*
X154477386Y-99761428D01*
X154453000Y-99759026D01*
X154428614Y-99761428D01*
X154405165Y-99768541D01*
X154383554Y-99780092D01*
X154364612Y-99795637D01*
X154349067Y-99814579D01*
X154314091Y-99866924D01*
X154226924Y-99954091D01*
X154174579Y-99989067D01*
X154155637Y-100004612D01*
X154140092Y-100023554D01*
X154128541Y-100045165D01*
X154121428Y-100068614D01*
X154119026Y-100093000D01*
X153536974Y-100093000D01*
X153534572Y-100068614D01*
X153527459Y-100045165D01*
X153515908Y-100023554D01*
X153500363Y-100004612D01*
X153481421Y-99989067D01*
X153429076Y-99954091D01*
X153341909Y-99866924D01*
X153306933Y-99814579D01*
X153291388Y-99795637D01*
X153272446Y-99780092D01*
X153250835Y-99768541D01*
X153227386Y-99761428D01*
X153203000Y-99759026D01*
X153178614Y-99761428D01*
X153155165Y-99768541D01*
X153133554Y-99780092D01*
X153114612Y-99795637D01*
X153099067Y-99814579D01*
X153064091Y-99866924D01*
X152976924Y-99954091D01*
X152924579Y-99989067D01*
X152905637Y-100004612D01*
X152890092Y-100023554D01*
X152878541Y-100045165D01*
X152871428Y-100068614D01*
X152869026Y-100093000D01*
X152286974Y-100093000D01*
X152284572Y-100068614D01*
X152277459Y-100045165D01*
X152265908Y-100023554D01*
X152250363Y-100004612D01*
X152231421Y-99989067D01*
X152179076Y-99954091D01*
X152091909Y-99866924D01*
X152056933Y-99814579D01*
X152041388Y-99795637D01*
X152022446Y-99780092D01*
X152000835Y-99768541D01*
X151977386Y-99761428D01*
X151953000Y-99759026D01*
X151928614Y-99761428D01*
X151905165Y-99768541D01*
X151883554Y-99780092D01*
X151864612Y-99795637D01*
X151849067Y-99814579D01*
X151814091Y-99866924D01*
X151726924Y-99954091D01*
X151674579Y-99989067D01*
X151655637Y-100004612D01*
X151640092Y-100023554D01*
X151628541Y-100045165D01*
X151621428Y-100068614D01*
X151619026Y-100093000D01*
X151036974Y-100093000D01*
X151034572Y-100068614D01*
X151027459Y-100045165D01*
X151015908Y-100023554D01*
X151000363Y-100004612D01*
X150981421Y-99989067D01*
X150929076Y-99954091D01*
X150841909Y-99866924D01*
X150773421Y-99764425D01*
X150726249Y-99650541D01*
X150702200Y-99529637D01*
X150702200Y-99406363D01*
X150726249Y-99285459D01*
X150773421Y-99171575D01*
X150841909Y-99069076D01*
X150929076Y-98981909D01*
X150981421Y-98946933D01*
X151000363Y-98931388D01*
X151015908Y-98912446D01*
X151027459Y-98890835D01*
X151034572Y-98867386D01*
X151036974Y-98843000D01*
X151619026Y-98843000D01*
X151621428Y-98867386D01*
X151628541Y-98890835D01*
X151640092Y-98912446D01*
X151655637Y-98931388D01*
X151674579Y-98946933D01*
X151726924Y-98981909D01*
X151814091Y-99069076D01*
X151849067Y-99121421D01*
X151864612Y-99140363D01*
X151883554Y-99155908D01*
X151905165Y-99167459D01*
X151928614Y-99174572D01*
X151953000Y-99176974D01*
X151977386Y-99174572D01*
X152000835Y-99167459D01*
X152022446Y-99155908D01*
X152041388Y-99140363D01*
X152056933Y-99121421D01*
X152091909Y-99069076D01*
X152179076Y-98981909D01*
X152231421Y-98946933D01*
X152250363Y-98931388D01*
X152265908Y-98912446D01*
X152277459Y-98890835D01*
X152284572Y-98867386D01*
X152286974Y-98843000D01*
X152869026Y-98843000D01*
X152871428Y-98867386D01*
X152878541Y-98890835D01*
X152890092Y-98912446D01*
X152905637Y-98931388D01*
X152924579Y-98946933D01*
X152976924Y-98981909D01*
X153064091Y-99069076D01*
X153099067Y-99121421D01*
X153114612Y-99140363D01*
X153133554Y-99155908D01*
X153155165Y-99167459D01*
X153178614Y-99174572D01*
X153203000Y-99176974D01*
X153227386Y-99174572D01*
X153250835Y-99167459D01*
X153272446Y-99155908D01*
X153291388Y-99140363D01*
X153306933Y-99121421D01*
X153341909Y-99069076D01*
X153429076Y-98981909D01*
X153481421Y-98946933D01*
X153500363Y-98931388D01*
X153515908Y-98912446D01*
X153527459Y-98890835D01*
X153534572Y-98867386D01*
X153536974Y-98843000D01*
X154119026Y-98843000D01*
X154121428Y-98867386D01*
X154128541Y-98890835D01*
X154140092Y-98912446D01*
X154155637Y-98931388D01*
X154174579Y-98946933D01*
X154226924Y-98981909D01*
X154314091Y-99069076D01*
X154349067Y-99121421D01*
X154364612Y-99140363D01*
X154383554Y-99155908D01*
X154405165Y-99167459D01*
X154428614Y-99174572D01*
X154453000Y-99176974D01*
X154477386Y-99174572D01*
X154500835Y-99167459D01*
X154522446Y-99155908D01*
X154541388Y-99140363D01*
X154556933Y-99121421D01*
X154591909Y-99069076D01*
X154679076Y-98981909D01*
X154731421Y-98946933D01*
X154750363Y-98931388D01*
X154765908Y-98912446D01*
X154777459Y-98890835D01*
X154784572Y-98867386D01*
X154786974Y-98843000D01*
X154784572Y-98818614D01*
X154777459Y-98795165D01*
X154765908Y-98773554D01*
X154750363Y-98754612D01*
X154731421Y-98739067D01*
X154679076Y-98704091D01*
X154591909Y-98616924D01*
X154556933Y-98564579D01*
X154541388Y-98545637D01*
X154522446Y-98530092D01*
X154500835Y-98518541D01*
X154477386Y-98511428D01*
X154453000Y-98509026D01*
X154428614Y-98511428D01*
X154405165Y-98518541D01*
X154383554Y-98530092D01*
X154364612Y-98545637D01*
X154349067Y-98564579D01*
X154314091Y-98616924D01*
X154226924Y-98704091D01*
X154174579Y-98739067D01*
X154155637Y-98754612D01*
X154140092Y-98773554D01*
X154128541Y-98795165D01*
X154121428Y-98818614D01*
X154119026Y-98843000D01*
X153536974Y-98843000D01*
X153534572Y-98818614D01*
X153527459Y-98795165D01*
X153515908Y-98773554D01*
X153500363Y-98754612D01*
X153481421Y-98739067D01*
X153429076Y-98704091D01*
X153341909Y-98616924D01*
X153306933Y-98564579D01*
X153291388Y-98545637D01*
X153272446Y-98530092D01*
X153250835Y-98518541D01*
X153227386Y-98511428D01*
X153203000Y-98509026D01*
X153178614Y-98511428D01*
X153155165Y-98518541D01*
X153133554Y-98530092D01*
X153114612Y-98545637D01*
X153099067Y-98564579D01*
X153064091Y-98616924D01*
X152976924Y-98704091D01*
X152924579Y-98739067D01*
X152905637Y-98754612D01*
X152890092Y-98773554D01*
X152878541Y-98795165D01*
X152871428Y-98818614D01*
X152869026Y-98843000D01*
X152286974Y-98843000D01*
X152284572Y-98818614D01*
X152277459Y-98795165D01*
X152265908Y-98773554D01*
X152250363Y-98754612D01*
X152231421Y-98739067D01*
X152179076Y-98704091D01*
X152091909Y-98616924D01*
X152056933Y-98564579D01*
X152041388Y-98545637D01*
X152022446Y-98530092D01*
X152000835Y-98518541D01*
X151977386Y-98511428D01*
X151953000Y-98509026D01*
X151928614Y-98511428D01*
X151905165Y-98518541D01*
X151883554Y-98530092D01*
X151864612Y-98545637D01*
X151849067Y-98564579D01*
X151814091Y-98616924D01*
X151726924Y-98704091D01*
X151674579Y-98739067D01*
X151655637Y-98754612D01*
X151640092Y-98773554D01*
X151628541Y-98795165D01*
X151621428Y-98818614D01*
X151619026Y-98843000D01*
X151036974Y-98843000D01*
X151034572Y-98818614D01*
X151027459Y-98795165D01*
X151015908Y-98773554D01*
X151000363Y-98754612D01*
X150981421Y-98739067D01*
X150929076Y-98704091D01*
X150841909Y-98616924D01*
X150773421Y-98514425D01*
X150726249Y-98400541D01*
X150702200Y-98279637D01*
X150702200Y-98156363D01*
X150726249Y-98035459D01*
X150773421Y-97921575D01*
X150841909Y-97819076D01*
X150929076Y-97731909D01*
X150981421Y-97696933D01*
X151000363Y-97681388D01*
X151015908Y-97662446D01*
X151027459Y-97640835D01*
X151034572Y-97617386D01*
X151036974Y-97593000D01*
X151619026Y-97593000D01*
X151621428Y-97617386D01*
X151628541Y-97640835D01*
X151640092Y-97662446D01*
X151655637Y-97681388D01*
X151674579Y-97696933D01*
X151726924Y-97731909D01*
X151814091Y-97819076D01*
X151849067Y-97871421D01*
X151864612Y-97890363D01*
X151883554Y-97905908D01*
X151905165Y-97917459D01*
X151928614Y-97924572D01*
X151953000Y-97926974D01*
X151977386Y-97924572D01*
X152000835Y-97917459D01*
X152022446Y-97905908D01*
X152041388Y-97890363D01*
X152056933Y-97871421D01*
X152091909Y-97819076D01*
X152179076Y-97731909D01*
X152231421Y-97696933D01*
X152250363Y-97681388D01*
X152265908Y-97662446D01*
X152277459Y-97640835D01*
X152284572Y-97617386D01*
X152286974Y-97593000D01*
X152869026Y-97593000D01*
X152871428Y-97617386D01*
X152878541Y-97640835D01*
X152890092Y-97662446D01*
X152905637Y-97681388D01*
X152924579Y-97696933D01*
X152976924Y-97731909D01*
X153064091Y-97819076D01*
X153099067Y-97871421D01*
X153114612Y-97890363D01*
X153133554Y-97905908D01*
X153155165Y-97917459D01*
X153178614Y-97924572D01*
X153203000Y-97926974D01*
X153227386Y-97924572D01*
X153250835Y-97917459D01*
X153272446Y-97905908D01*
X153291388Y-97890363D01*
X153306933Y-97871421D01*
X153341909Y-97819076D01*
X153429076Y-97731909D01*
X153481421Y-97696933D01*
X153500363Y-97681388D01*
X153515908Y-97662446D01*
X153527459Y-97640835D01*
X153534572Y-97617386D01*
X153536974Y-97593000D01*
X154119026Y-97593000D01*
X154121428Y-97617386D01*
X154128541Y-97640835D01*
X154140092Y-97662446D01*
X154155637Y-97681388D01*
X154174579Y-97696933D01*
X154226924Y-97731909D01*
X154314091Y-97819076D01*
X154349067Y-97871421D01*
X154364612Y-97890363D01*
X154383554Y-97905908D01*
X154405165Y-97917459D01*
X154428614Y-97924572D01*
X154453000Y-97926974D01*
X154477386Y-97924572D01*
X154500835Y-97917459D01*
X154522446Y-97905908D01*
X154541388Y-97890363D01*
X154556933Y-97871421D01*
X154591909Y-97819076D01*
X154679076Y-97731909D01*
X154731421Y-97696933D01*
X154750363Y-97681388D01*
X154765908Y-97662446D01*
X154777459Y-97640835D01*
X154784572Y-97617386D01*
X154786974Y-97593000D01*
X154784572Y-97568614D01*
X154777459Y-97545165D01*
X154765908Y-97523554D01*
X154750363Y-97504612D01*
X154731421Y-97489067D01*
X154679076Y-97454091D01*
X154591909Y-97366924D01*
X154556933Y-97314579D01*
X154541388Y-97295637D01*
X154522446Y-97280092D01*
X154500835Y-97268541D01*
X154477386Y-97261428D01*
X154453000Y-97259026D01*
X154428614Y-97261428D01*
X154405165Y-97268541D01*
X154383554Y-97280092D01*
X154364612Y-97295637D01*
X154349067Y-97314579D01*
X154314091Y-97366924D01*
X154226924Y-97454091D01*
X154174579Y-97489067D01*
X154155637Y-97504612D01*
X154140092Y-97523554D01*
X154128541Y-97545165D01*
X154121428Y-97568614D01*
X154119026Y-97593000D01*
X153536974Y-97593000D01*
X153534572Y-97568614D01*
X153527459Y-97545165D01*
X153515908Y-97523554D01*
X153500363Y-97504612D01*
X153481421Y-97489067D01*
X153429076Y-97454091D01*
X153341909Y-97366924D01*
X153306933Y-97314579D01*
X153291388Y-97295637D01*
X153272446Y-97280092D01*
X153250835Y-97268541D01*
X153227386Y-97261428D01*
X153203000Y-97259026D01*
X153178614Y-97261428D01*
X153155165Y-97268541D01*
X153133554Y-97280092D01*
X153114612Y-97295637D01*
X153099067Y-97314579D01*
X153064091Y-97366924D01*
X152976924Y-97454091D01*
X152924579Y-97489067D01*
X152905637Y-97504612D01*
X152890092Y-97523554D01*
X152878541Y-97545165D01*
X152871428Y-97568614D01*
X152869026Y-97593000D01*
X152286974Y-97593000D01*
X152284572Y-97568614D01*
X152277459Y-97545165D01*
X152265908Y-97523554D01*
X152250363Y-97504612D01*
X152231421Y-97489067D01*
X152179076Y-97454091D01*
X152091909Y-97366924D01*
X152056933Y-97314579D01*
X152041388Y-97295637D01*
X152022446Y-97280092D01*
X152000835Y-97268541D01*
X151977386Y-97261428D01*
X151953000Y-97259026D01*
X151928614Y-97261428D01*
X151905165Y-97268541D01*
X151883554Y-97280092D01*
X151864612Y-97295637D01*
X151849067Y-97314579D01*
X151814091Y-97366924D01*
X151726924Y-97454091D01*
X151674579Y-97489067D01*
X151655637Y-97504612D01*
X151640092Y-97523554D01*
X151628541Y-97545165D01*
X151621428Y-97568614D01*
X151619026Y-97593000D01*
X151036974Y-97593000D01*
X151034572Y-97568614D01*
X151027459Y-97545165D01*
X151015908Y-97523554D01*
X151000363Y-97504612D01*
X150981421Y-97489067D01*
X150929076Y-97454091D01*
X150841909Y-97366924D01*
X150773421Y-97264425D01*
X150726249Y-97150541D01*
X150702200Y-97029637D01*
X150702200Y-96906363D01*
X150726249Y-96785459D01*
X150773421Y-96671575D01*
X150841909Y-96569076D01*
X150929076Y-96481909D01*
X151031575Y-96413421D01*
X151145459Y-96366249D01*
X151266363Y-96342200D01*
X151389637Y-96342200D01*
X151510541Y-96366249D01*
G37*
G36*
X117738800Y-86638800D02*
G01*
X115637200Y-86638800D01*
X115637200Y-84537200D01*
X117738800Y-84537200D01*
X117738800Y-86638800D01*
G37*
G36*
X169838800Y-86638800D02*
G01*
X167137200Y-86638800D01*
X167137200Y-83937200D01*
X169838800Y-83937200D01*
X169838800Y-86638800D01*
G37*
G36*
X124594506Y-84577581D02*
G01*
X124706528Y-84623982D01*
X124785740Y-84656793D01*
X124957846Y-84771791D01*
X125104209Y-84918154D01*
X125219207Y-85090260D01*
X125219207Y-85090261D01*
X125298419Y-85281494D01*
X125338800Y-85484504D01*
X125338800Y-85691496D01*
X125298419Y-85894506D01*
X125252018Y-86006528D01*
X125219207Y-86085740D01*
X125104209Y-86257846D01*
X124957846Y-86404209D01*
X124785740Y-86519207D01*
X124706528Y-86552018D01*
X124594506Y-86598419D01*
X124391496Y-86638800D01*
X124184504Y-86638800D01*
X123981494Y-86598419D01*
X123869472Y-86552018D01*
X123790260Y-86519207D01*
X123618154Y-86404209D01*
X123471791Y-86257846D01*
X123356793Y-86085740D01*
X123323982Y-86006528D01*
X123277581Y-85894506D01*
X123237200Y-85691496D01*
X123237200Y-85484504D01*
X123277581Y-85281494D01*
X123356793Y-85090261D01*
X123356793Y-85090260D01*
X123471791Y-84918154D01*
X123618154Y-84771791D01*
X123790260Y-84656793D01*
X123869472Y-84623982D01*
X123981494Y-84577581D01*
X124184504Y-84537200D01*
X124391496Y-84537200D01*
X124594506Y-84577581D01*
G37*
G36*
X149067468Y-69391283D02*
G01*
X149101433Y-69401586D01*
X149132734Y-69418317D01*
X149160168Y-69440832D01*
X149182683Y-69468266D01*
X149199414Y-69499567D01*
X149209717Y-69533532D01*
X149213800Y-69574990D01*
X149213800Y-70176010D01*
X149209717Y-70217468D01*
X149199414Y-70251433D01*
X149182683Y-70282734D01*
X149160168Y-70310168D01*
X149132734Y-70332683D01*
X149101433Y-70349414D01*
X149067468Y-70359717D01*
X149026010Y-70363800D01*
X148349990Y-70363800D01*
X148308532Y-70359717D01*
X148274567Y-70349414D01*
X148243266Y-70332683D01*
X148215832Y-70310168D01*
X148193317Y-70282734D01*
X148176586Y-70251433D01*
X148166283Y-70217468D01*
X148162200Y-70176010D01*
X148162200Y-69574990D01*
X148166283Y-69533532D01*
X148176586Y-69499567D01*
X148193317Y-69468266D01*
X148215832Y-69440832D01*
X148243266Y-69418317D01*
X148274567Y-69401586D01*
X148308532Y-69391283D01*
X148349990Y-69387200D01*
X149026010Y-69387200D01*
X149067468Y-69391283D01*
G37*
G36*
X145067468Y-69391283D02*
G01*
X145101433Y-69401586D01*
X145132734Y-69418317D01*
X145160168Y-69440832D01*
X145182683Y-69468266D01*
X145199414Y-69499567D01*
X145209717Y-69533532D01*
X145213800Y-69574990D01*
X145213800Y-70176010D01*
X145209717Y-70217468D01*
X145199414Y-70251433D01*
X145182683Y-70282734D01*
X145160168Y-70310168D01*
X145132734Y-70332683D01*
X145101433Y-70349414D01*
X145067468Y-70359717D01*
X145026010Y-70363800D01*
X144349990Y-70363800D01*
X144308532Y-70359717D01*
X144274567Y-70349414D01*
X144243266Y-70332683D01*
X144215832Y-70310168D01*
X144193317Y-70282734D01*
X144176586Y-70251433D01*
X144166283Y-70217468D01*
X144162200Y-70176010D01*
X144162200Y-69574990D01*
X144166283Y-69533532D01*
X144176586Y-69499567D01*
X144193317Y-69468266D01*
X144215832Y-69440832D01*
X144243266Y-69418317D01*
X144274567Y-69401586D01*
X144308532Y-69391283D01*
X144349990Y-69387200D01*
X145026010Y-69387200D01*
X145067468Y-69391283D01*
G37*
G36*
X147067468Y-69391283D02*
G01*
X147101433Y-69401586D01*
X147132734Y-69418317D01*
X147160168Y-69440832D01*
X147182683Y-69468266D01*
X147199414Y-69499567D01*
X147209717Y-69533532D01*
X147213800Y-69574990D01*
X147213800Y-70176010D01*
X147209717Y-70217468D01*
X147199414Y-70251433D01*
X147182683Y-70282734D01*
X147160168Y-70310168D01*
X147132734Y-70332683D01*
X147101433Y-70349414D01*
X147067468Y-70359717D01*
X147026010Y-70363800D01*
X146349990Y-70363800D01*
X146308532Y-70359717D01*
X146274567Y-70349414D01*
X146243266Y-70332683D01*
X146215832Y-70310168D01*
X146193317Y-70282734D01*
X146176586Y-70251433D01*
X146166283Y-70217468D01*
X146162200Y-70176010D01*
X146162200Y-69574990D01*
X146166283Y-69533532D01*
X146176586Y-69499567D01*
X146193317Y-69468266D01*
X146215832Y-69440832D01*
X146243266Y-69418317D01*
X146274567Y-69401586D01*
X146308532Y-69391283D01*
X146349990Y-69387200D01*
X147026010Y-69387200D01*
X147067468Y-69391283D01*
G37*
G36*
X151067468Y-69391283D02*
G01*
X151101433Y-69401586D01*
X151132734Y-69418317D01*
X151160168Y-69440832D01*
X151182683Y-69468266D01*
X151199414Y-69499567D01*
X151209717Y-69533532D01*
X151213800Y-69574990D01*
X151213800Y-70176010D01*
X151209717Y-70217468D01*
X151199414Y-70251433D01*
X151182683Y-70282734D01*
X151160168Y-70310168D01*
X151132734Y-70332683D01*
X151101433Y-70349414D01*
X151067468Y-70359717D01*
X151026010Y-70363800D01*
X150349990Y-70363800D01*
X150308532Y-70359717D01*
X150274567Y-70349414D01*
X150243266Y-70332683D01*
X150215832Y-70310168D01*
X150193317Y-70282734D01*
X150176586Y-70251433D01*
X150166283Y-70217468D01*
X150162200Y-70176010D01*
X150162200Y-69574990D01*
X150166283Y-69533532D01*
X150176586Y-69499567D01*
X150193317Y-69468266D01*
X150215832Y-69440832D01*
X150243266Y-69418317D01*
X150274567Y-69401586D01*
X150308532Y-69391283D01*
X150349990Y-69387200D01*
X151026010Y-69387200D01*
X151067468Y-69391283D01*
G37*
G36*
X185088800Y-68988800D02*
G01*
X183287200Y-68988800D01*
X183287200Y-67187200D01*
X185088800Y-67187200D01*
X185088800Y-68988800D01*
G37*
G36*
X176714732Y-67198739D02*
G01*
X176830754Y-67221817D01*
X176994689Y-67289721D01*
X177142227Y-67388303D01*
X177267697Y-67513773D01*
X177366279Y-67661311D01*
X177434183Y-67825246D01*
X177468800Y-67999279D01*
X177468800Y-68176721D01*
X177434183Y-68350754D01*
X177366279Y-68514689D01*
X177267697Y-68662227D01*
X177142227Y-68787697D01*
X176994689Y-68886279D01*
X176830754Y-68954183D01*
X176714732Y-68977261D01*
X176656722Y-68988800D01*
X176479278Y-68988800D01*
X176421268Y-68977261D01*
X176305246Y-68954183D01*
X176141311Y-68886279D01*
X175993773Y-68787697D01*
X175868303Y-68662227D01*
X175769721Y-68514689D01*
X175701817Y-68350754D01*
X175667200Y-68176721D01*
X175667200Y-67999279D01*
X175701817Y-67825246D01*
X175769721Y-67661311D01*
X175868303Y-67513773D01*
X175993773Y-67388303D01*
X176141311Y-67289721D01*
X176305246Y-67221817D01*
X176421268Y-67198739D01*
X176479278Y-67187200D01*
X176656722Y-67187200D01*
X176714732Y-67198739D01*
G37*
G36*
X181794732Y-67198739D02*
G01*
X181910754Y-67221817D01*
X182074689Y-67289721D01*
X182222227Y-67388303D01*
X182347697Y-67513773D01*
X182446279Y-67661311D01*
X182514183Y-67825246D01*
X182548800Y-67999279D01*
X182548800Y-68176721D01*
X182514183Y-68350754D01*
X182446279Y-68514689D01*
X182347697Y-68662227D01*
X182222227Y-68787697D01*
X182074689Y-68886279D01*
X181910754Y-68954183D01*
X181794732Y-68977261D01*
X181736722Y-68988800D01*
X181559278Y-68988800D01*
X181501268Y-68977261D01*
X181385246Y-68954183D01*
X181221311Y-68886279D01*
X181073773Y-68787697D01*
X180948303Y-68662227D01*
X180849721Y-68514689D01*
X180781817Y-68350754D01*
X180747200Y-68176721D01*
X180747200Y-67999279D01*
X180781817Y-67825246D01*
X180849721Y-67661311D01*
X180948303Y-67513773D01*
X181073773Y-67388303D01*
X181221311Y-67289721D01*
X181385246Y-67221817D01*
X181501268Y-67198739D01*
X181559278Y-67187200D01*
X181736722Y-67187200D01*
X181794732Y-67198739D01*
G37*
G36*
X179254732Y-67198739D02*
G01*
X179370754Y-67221817D01*
X179534689Y-67289721D01*
X179682227Y-67388303D01*
X179807697Y-67513773D01*
X179906279Y-67661311D01*
X179974183Y-67825246D01*
X180008800Y-67999279D01*
X180008800Y-68176721D01*
X179974183Y-68350754D01*
X179906279Y-68514689D01*
X179807697Y-68662227D01*
X179682227Y-68787697D01*
X179534689Y-68886279D01*
X179370754Y-68954183D01*
X179254732Y-68977261D01*
X179196722Y-68988800D01*
X179019278Y-68988800D01*
X178961268Y-68977261D01*
X178845246Y-68954183D01*
X178681311Y-68886279D01*
X178533773Y-68787697D01*
X178408303Y-68662227D01*
X178309721Y-68514689D01*
X178241817Y-68350754D01*
X178207200Y-68176721D01*
X178207200Y-67999279D01*
X178241817Y-67825246D01*
X178309721Y-67661311D01*
X178408303Y-67513773D01*
X178533773Y-67388303D01*
X178681311Y-67289721D01*
X178845246Y-67221817D01*
X178961268Y-67198739D01*
X179019278Y-67187200D01*
X179196722Y-67187200D01*
X179254732Y-67198739D01*
G37*
G36*
X147067468Y-67816283D02*
G01*
X147101433Y-67826586D01*
X147132734Y-67843317D01*
X147160168Y-67865832D01*
X147182683Y-67893266D01*
X147199414Y-67924567D01*
X147209717Y-67958532D01*
X147213800Y-67999990D01*
X147213800Y-68601010D01*
X147209717Y-68642468D01*
X147199414Y-68676433D01*
X147182683Y-68707734D01*
X147160168Y-68735168D01*
X147132734Y-68757683D01*
X147101433Y-68774414D01*
X147067468Y-68784717D01*
X147026010Y-68788800D01*
X146349990Y-68788800D01*
X146308532Y-68784717D01*
X146274567Y-68774414D01*
X146243266Y-68757683D01*
X146215832Y-68735168D01*
X146193317Y-68707734D01*
X146176586Y-68676433D01*
X146166283Y-68642468D01*
X146162200Y-68601010D01*
X146162200Y-67999990D01*
X146166283Y-67958532D01*
X146176586Y-67924567D01*
X146193317Y-67893266D01*
X146215832Y-67865832D01*
X146243266Y-67843317D01*
X146274567Y-67826586D01*
X146308532Y-67816283D01*
X146349990Y-67812200D01*
X147026010Y-67812200D01*
X147067468Y-67816283D01*
G37*
G36*
X145067468Y-67816283D02*
G01*
X145101433Y-67826586D01*
X145132734Y-67843317D01*
X145160168Y-67865832D01*
X145182683Y-67893266D01*
X145199414Y-67924567D01*
X145209717Y-67958532D01*
X145213800Y-67999990D01*
X145213800Y-68601010D01*
X145209717Y-68642468D01*
X145199414Y-68676433D01*
X145182683Y-68707734D01*
X145160168Y-68735168D01*
X145132734Y-68757683D01*
X145101433Y-68774414D01*
X145067468Y-68784717D01*
X145026010Y-68788800D01*
X144349990Y-68788800D01*
X144308532Y-68784717D01*
X144274567Y-68774414D01*
X144243266Y-68757683D01*
X144215832Y-68735168D01*
X144193317Y-68707734D01*
X144176586Y-68676433D01*
X144166283Y-68642468D01*
X144162200Y-68601010D01*
X144162200Y-67999990D01*
X144166283Y-67958532D01*
X144176586Y-67924567D01*
X144193317Y-67893266D01*
X144215832Y-67865832D01*
X144243266Y-67843317D01*
X144274567Y-67826586D01*
X144308532Y-67816283D01*
X144349990Y-67812200D01*
X145026010Y-67812200D01*
X145067468Y-67816283D01*
G37*
G36*
X151067468Y-67816283D02*
G01*
X151101433Y-67826586D01*
X151132734Y-67843317D01*
X151160168Y-67865832D01*
X151182683Y-67893266D01*
X151199414Y-67924567D01*
X151209717Y-67958532D01*
X151213800Y-67999990D01*
X151213800Y-68601010D01*
X151209717Y-68642468D01*
X151199414Y-68676433D01*
X151182683Y-68707734D01*
X151160168Y-68735168D01*
X151132734Y-68757683D01*
X151101433Y-68774414D01*
X151067468Y-68784717D01*
X151026010Y-68788800D01*
X150349990Y-68788800D01*
X150308532Y-68784717D01*
X150274567Y-68774414D01*
X150243266Y-68757683D01*
X150215832Y-68735168D01*
X150193317Y-68707734D01*
X150176586Y-68676433D01*
X150166283Y-68642468D01*
X150162200Y-68601010D01*
X150162200Y-67999990D01*
X150166283Y-67958532D01*
X150176586Y-67924567D01*
X150193317Y-67893266D01*
X150215832Y-67865832D01*
X150243266Y-67843317D01*
X150274567Y-67826586D01*
X150308532Y-67816283D01*
X150349990Y-67812200D01*
X151026010Y-67812200D01*
X151067468Y-67816283D01*
G37*
G36*
X149067468Y-67816283D02*
G01*
X149101433Y-67826586D01*
X149132734Y-67843317D01*
X149160168Y-67865832D01*
X149182683Y-67893266D01*
X149199414Y-67924567D01*
X149209717Y-67958532D01*
X149213800Y-67999990D01*
X149213800Y-68601010D01*
X149209717Y-68642468D01*
X149199414Y-68676433D01*
X149182683Y-68707734D01*
X149160168Y-68735168D01*
X149132734Y-68757683D01*
X149101433Y-68774414D01*
X149067468Y-68784717D01*
X149026010Y-68788800D01*
X148349990Y-68788800D01*
X148308532Y-68784717D01*
X148274567Y-68774414D01*
X148243266Y-68757683D01*
X148215832Y-68735168D01*
X148193317Y-68707734D01*
X148176586Y-68676433D01*
X148166283Y-68642468D01*
X148162200Y-68601010D01*
X148162200Y-67999990D01*
X148166283Y-67958532D01*
X148176586Y-67924567D01*
X148193317Y-67893266D01*
X148215832Y-67865832D01*
X148243266Y-67843317D01*
X148274567Y-67826586D01*
X148308532Y-67816283D01*
X148349990Y-67812200D01*
X149026010Y-67812200D01*
X149067468Y-67816283D01*
G37*
G36*
X176714732Y-64658739D02*
G01*
X176830754Y-64681817D01*
X176994689Y-64749721D01*
X177142227Y-64848303D01*
X177267697Y-64973773D01*
X177366279Y-65121311D01*
X177434183Y-65285246D01*
X177468800Y-65459279D01*
X177468800Y-65636721D01*
X177434183Y-65810754D01*
X177366279Y-65974689D01*
X177267697Y-66122227D01*
X177142227Y-66247697D01*
X176994689Y-66346279D01*
X176830754Y-66414183D01*
X176714732Y-66437261D01*
X176656722Y-66448800D01*
X176479278Y-66448800D01*
X176421268Y-66437261D01*
X176305246Y-66414183D01*
X176141311Y-66346279D01*
X175993773Y-66247697D01*
X175868303Y-66122227D01*
X175769721Y-65974689D01*
X175701817Y-65810754D01*
X175667200Y-65636721D01*
X175667200Y-65459279D01*
X175701817Y-65285246D01*
X175769721Y-65121311D01*
X175868303Y-64973773D01*
X175993773Y-64848303D01*
X176141311Y-64749721D01*
X176305246Y-64681817D01*
X176421268Y-64658739D01*
X176479278Y-64647200D01*
X176656722Y-64647200D01*
X176714732Y-64658739D01*
G37*
G36*
X179254732Y-64658739D02*
G01*
X179370754Y-64681817D01*
X179534689Y-64749721D01*
X179682227Y-64848303D01*
X179807697Y-64973773D01*
X179906279Y-65121311D01*
X179974183Y-65285246D01*
X180008800Y-65459279D01*
X180008800Y-65636721D01*
X179974183Y-65810754D01*
X179906279Y-65974689D01*
X179807697Y-66122227D01*
X179682227Y-66247697D01*
X179534689Y-66346279D01*
X179370754Y-66414183D01*
X179254732Y-66437261D01*
X179196722Y-66448800D01*
X179019278Y-66448800D01*
X178961268Y-66437261D01*
X178845246Y-66414183D01*
X178681311Y-66346279D01*
X178533773Y-66247697D01*
X178408303Y-66122227D01*
X178309721Y-65974689D01*
X178241817Y-65810754D01*
X178207200Y-65636721D01*
X178207200Y-65459279D01*
X178241817Y-65285246D01*
X178309721Y-65121311D01*
X178408303Y-64973773D01*
X178533773Y-64848303D01*
X178681311Y-64749721D01*
X178845246Y-64681817D01*
X178961268Y-64658739D01*
X179019278Y-64647200D01*
X179196722Y-64647200D01*
X179254732Y-64658739D01*
G37*
G36*
X181794732Y-64658739D02*
G01*
X181910754Y-64681817D01*
X182074689Y-64749721D01*
X182222227Y-64848303D01*
X182347697Y-64973773D01*
X182446279Y-65121311D01*
X182514183Y-65285246D01*
X182548800Y-65459279D01*
X182548800Y-65636721D01*
X182514183Y-65810754D01*
X182446279Y-65974689D01*
X182347697Y-66122227D01*
X182222227Y-66247697D01*
X182074689Y-66346279D01*
X181910754Y-66414183D01*
X181794732Y-66437261D01*
X181736722Y-66448800D01*
X181559278Y-66448800D01*
X181501268Y-66437261D01*
X181385246Y-66414183D01*
X181221311Y-66346279D01*
X181073773Y-66247697D01*
X180948303Y-66122227D01*
X180849721Y-65974689D01*
X180781817Y-65810754D01*
X180747200Y-65636721D01*
X180747200Y-65459279D01*
X180781817Y-65285246D01*
X180849721Y-65121311D01*
X180948303Y-64973773D01*
X181073773Y-64848303D01*
X181221311Y-64749721D01*
X181385246Y-64681817D01*
X181501268Y-64658739D01*
X181559278Y-64647200D01*
X181736722Y-64647200D01*
X181794732Y-64658739D01*
G37*
G36*
X184334732Y-64658739D02*
G01*
X184450754Y-64681817D01*
X184614689Y-64749721D01*
X184762227Y-64848303D01*
X184887697Y-64973773D01*
X184986279Y-65121311D01*
X185054183Y-65285246D01*
X185088800Y-65459279D01*
X185088800Y-65636721D01*
X185054183Y-65810754D01*
X184986279Y-65974689D01*
X184887697Y-66122227D01*
X184762227Y-66247697D01*
X184614689Y-66346279D01*
X184450754Y-66414183D01*
X184334732Y-66437261D01*
X184276722Y-66448800D01*
X184099278Y-66448800D01*
X184041268Y-66437261D01*
X183925246Y-66414183D01*
X183761311Y-66346279D01*
X183613773Y-66247697D01*
X183488303Y-66122227D01*
X183389721Y-65974689D01*
X183321817Y-65810754D01*
X183287200Y-65636721D01*
X183287200Y-65459279D01*
X183321817Y-65285246D01*
X183389721Y-65121311D01*
X183488303Y-64973773D01*
X183613773Y-64848303D01*
X183761311Y-64749721D01*
X183925246Y-64681817D01*
X184041268Y-64658739D01*
X184099278Y-64647200D01*
X184276722Y-64647200D01*
X184334732Y-64658739D01*
G37*
G36*
X174901607Y-60422277D02*
G01*
X174962129Y-60434316D01*
X175133162Y-60505160D01*
X175287087Y-60608010D01*
X175417990Y-60738913D01*
X175520840Y-60892838D01*
X175591684Y-61063871D01*
X175627800Y-61245438D01*
X175627800Y-61430562D01*
X175591684Y-61612129D01*
X175520840Y-61783162D01*
X175417990Y-61937087D01*
X175287087Y-62067990D01*
X175133162Y-62170840D01*
X174962129Y-62241684D01*
X174901607Y-62253723D01*
X174780564Y-62277800D01*
X174595436Y-62277800D01*
X174474393Y-62253723D01*
X174413871Y-62241684D01*
X174242838Y-62170840D01*
X174088913Y-62067990D01*
X173958010Y-61937087D01*
X173855160Y-61783162D01*
X173784316Y-61612129D01*
X173748200Y-61430562D01*
X173748200Y-61245438D01*
X173784316Y-61063871D01*
X173855160Y-60892838D01*
X173958010Y-60738913D01*
X174088913Y-60608010D01*
X174242838Y-60505160D01*
X174413871Y-60434316D01*
X174474393Y-60422277D01*
X174595436Y-60398200D01*
X174780564Y-60398200D01*
X174901607Y-60422277D01*
G37*
G36*
X179901607Y-60422277D02*
G01*
X179962129Y-60434316D01*
X180133162Y-60505160D01*
X180287087Y-60608010D01*
X180417990Y-60738913D01*
X180520840Y-60892838D01*
X180591684Y-61063871D01*
X180627800Y-61245438D01*
X180627800Y-61430562D01*
X180591684Y-61612129D01*
X180520840Y-61783162D01*
X180417990Y-61937087D01*
X180287087Y-62067990D01*
X180133162Y-62170840D01*
X179962129Y-62241684D01*
X179901607Y-62253723D01*
X179780564Y-62277800D01*
X179595436Y-62277800D01*
X179474393Y-62253723D01*
X179413871Y-62241684D01*
X179242838Y-62170840D01*
X179088913Y-62067990D01*
X178958010Y-61937087D01*
X178855160Y-61783162D01*
X178784316Y-61612129D01*
X178748200Y-61430562D01*
X178748200Y-61245438D01*
X178784316Y-61063871D01*
X178855160Y-60892838D01*
X178958010Y-60738913D01*
X179088913Y-60608010D01*
X179242838Y-60505160D01*
X179413871Y-60434316D01*
X179474393Y-60422277D01*
X179595436Y-60398200D01*
X179780564Y-60398200D01*
X179901607Y-60422277D01*
G37*
G36*
X177401607Y-60422277D02*
G01*
X177462129Y-60434316D01*
X177633162Y-60505160D01*
X177787087Y-60608010D01*
X177917990Y-60738913D01*
X178020840Y-60892838D01*
X178091684Y-61063871D01*
X178127800Y-61245438D01*
X178127800Y-61430562D01*
X178091684Y-61612129D01*
X178020840Y-61783162D01*
X177917990Y-61937087D01*
X177787087Y-62067990D01*
X177633162Y-62170840D01*
X177462129Y-62241684D01*
X177401607Y-62253723D01*
X177280564Y-62277800D01*
X177095436Y-62277800D01*
X176974393Y-62253723D01*
X176913871Y-62241684D01*
X176742838Y-62170840D01*
X176588913Y-62067990D01*
X176458010Y-61937087D01*
X176355160Y-61783162D01*
X176284316Y-61612129D01*
X176248200Y-61430562D01*
X176248200Y-61245438D01*
X176284316Y-61063871D01*
X176355160Y-60892838D01*
X176458010Y-60738913D01*
X176588913Y-60608010D01*
X176742838Y-60505160D01*
X176913871Y-60434316D01*
X176974393Y-60422277D01*
X177095436Y-60398200D01*
X177280564Y-60398200D01*
X177401607Y-60422277D01*
G37*
G36*
X124223263Y-58067957D02*
G01*
X124463634Y-58167522D01*
X124679961Y-58312067D01*
X124863933Y-58496039D01*
X125008478Y-58712366D01*
X125108043Y-58952737D01*
X125158800Y-59207913D01*
X125158800Y-59468087D01*
X125108043Y-59723263D01*
X125008478Y-59963634D01*
X124863933Y-60179961D01*
X124679961Y-60363933D01*
X124463634Y-60508478D01*
X124463633Y-60508479D01*
X124463632Y-60508479D01*
X124223263Y-60608043D01*
X123968089Y-60658800D01*
X123707911Y-60658800D01*
X123452737Y-60608043D01*
X123212368Y-60508479D01*
X123212367Y-60508479D01*
X123212366Y-60508478D01*
X122996039Y-60363933D01*
X122812067Y-60179961D01*
X122667522Y-59963634D01*
X122567957Y-59723263D01*
X122517200Y-59468087D01*
X122517200Y-59207913D01*
X122567957Y-58952737D01*
X122667522Y-58712366D01*
X122812067Y-58496039D01*
X122996039Y-58312067D01*
X123212366Y-58167522D01*
X123452737Y-58067957D01*
X123707911Y-58017200D01*
X123968089Y-58017200D01*
X124223263Y-58067957D01*
G37*
G36*
X170923263Y-58067957D02*
G01*
X171163634Y-58167522D01*
X171379961Y-58312067D01*
X171563933Y-58496039D01*
X171708478Y-58712366D01*
X171808043Y-58952737D01*
X171858800Y-59207913D01*
X171858800Y-59468087D01*
X171808043Y-59723263D01*
X171708478Y-59963634D01*
X171563933Y-60179961D01*
X171379961Y-60363933D01*
X171163634Y-60508478D01*
X171163633Y-60508479D01*
X171163632Y-60508479D01*
X170923263Y-60608043D01*
X170668089Y-60658800D01*
X170407911Y-60658800D01*
X170152737Y-60608043D01*
X169912368Y-60508479D01*
X169912367Y-60508479D01*
X169912366Y-60508478D01*
X169696039Y-60363933D01*
X169512067Y-60179961D01*
X169367522Y-59963634D01*
X169267957Y-59723263D01*
X169217200Y-59468087D01*
X169217200Y-59207913D01*
X169267957Y-58952737D01*
X169367522Y-58712366D01*
X169512067Y-58496039D01*
X169696039Y-58312067D01*
X169912366Y-58167522D01*
X170152737Y-58067957D01*
X170407911Y-58017200D01*
X170668089Y-58017200D01*
X170923263Y-58067957D01*
G37*
G36*
X184223263Y-58067957D02*
G01*
X184463634Y-58167522D01*
X184679961Y-58312067D01*
X184863933Y-58496039D01*
X185008478Y-58712366D01*
X185108043Y-58952737D01*
X185158800Y-59207913D01*
X185158800Y-59468087D01*
X185108043Y-59723263D01*
X185008478Y-59963634D01*
X184863933Y-60179961D01*
X184679961Y-60363933D01*
X184463634Y-60508478D01*
X184463633Y-60508479D01*
X184463632Y-60508479D01*
X184223263Y-60608043D01*
X183968089Y-60658800D01*
X183707911Y-60658800D01*
X183452737Y-60608043D01*
X183212368Y-60508479D01*
X183212367Y-60508479D01*
X183212366Y-60508478D01*
X182996039Y-60363933D01*
X182812067Y-60179961D01*
X182667522Y-59963634D01*
X182567957Y-59723263D01*
X182517200Y-59468087D01*
X182517200Y-59207913D01*
X182567957Y-58952737D01*
X182667522Y-58712366D01*
X182812067Y-58496039D01*
X182996039Y-58312067D01*
X183212366Y-58167522D01*
X183452737Y-58067957D01*
X183707911Y-58017200D01*
X183968089Y-58017200D01*
X184223263Y-58067957D01*
G37*
G36*
X110923263Y-58067957D02*
G01*
X111163634Y-58167522D01*
X111379961Y-58312067D01*
X111563933Y-58496039D01*
X111708478Y-58712366D01*
X111808043Y-58952737D01*
X111858800Y-59207913D01*
X111858800Y-59468087D01*
X111808043Y-59723263D01*
X111708478Y-59963634D01*
X111563933Y-60179961D01*
X111379961Y-60363933D01*
X111163634Y-60508478D01*
X111163633Y-60508479D01*
X111163632Y-60508479D01*
X110923263Y-60608043D01*
X110668089Y-60658800D01*
X110407911Y-60658800D01*
X110152737Y-60608043D01*
X109912368Y-60508479D01*
X109912367Y-60508479D01*
X109912366Y-60508478D01*
X109696039Y-60363933D01*
X109512067Y-60179961D01*
X109367522Y-59963634D01*
X109267957Y-59723263D01*
X109217200Y-59468087D01*
X109217200Y-59207913D01*
X109267957Y-58952737D01*
X109367522Y-58712366D01*
X109512067Y-58496039D01*
X109696039Y-58312067D01*
X109912366Y-58167522D01*
X110152737Y-58067957D01*
X110407911Y-58017200D01*
X110668089Y-58017200D01*
X110923263Y-58067957D01*
G37*
G36*
X145538800Y-58767600D02*
G01*
X143837200Y-58767600D01*
X143837200Y-57666000D01*
X145538800Y-57666000D01*
X145538800Y-58767600D01*
G37*
G36*
X150538800Y-58767600D02*
G01*
X148837200Y-58767600D01*
X148837200Y-57666000D01*
X150538800Y-57666000D01*
X150538800Y-58767600D01*
G37*
G36*
X142067468Y-56891283D02*
G01*
X142101433Y-56901586D01*
X142132734Y-56918317D01*
X142160168Y-56940832D01*
X142182683Y-56968266D01*
X142199414Y-56999567D01*
X142209717Y-57033532D01*
X142213800Y-57074990D01*
X142213800Y-57676010D01*
X142209717Y-57717468D01*
X142199414Y-57751433D01*
X142182683Y-57782734D01*
X142160168Y-57810168D01*
X142132734Y-57832683D01*
X142101433Y-57849414D01*
X142067468Y-57859717D01*
X142026010Y-57863800D01*
X141349990Y-57863800D01*
X141308532Y-57859717D01*
X141274567Y-57849414D01*
X141243266Y-57832683D01*
X141215832Y-57810168D01*
X141193317Y-57782734D01*
X141176586Y-57751433D01*
X141166283Y-57717468D01*
X141162200Y-57676010D01*
X141162200Y-57074990D01*
X141166283Y-57033532D01*
X141176586Y-56999567D01*
X141193317Y-56968266D01*
X141215832Y-56940832D01*
X141243266Y-56918317D01*
X141274567Y-56901586D01*
X141308532Y-56891283D01*
X141349990Y-56887200D01*
X142026010Y-56887200D01*
X142067468Y-56891283D01*
G37*
G36*
X142067468Y-55316283D02*
G01*
X142101433Y-55326586D01*
X142132734Y-55343317D01*
X142160168Y-55365832D01*
X142182683Y-55393266D01*
X142199414Y-55424567D01*
X142209717Y-55458532D01*
X142213800Y-55499990D01*
X142213800Y-56101010D01*
X142209717Y-56142468D01*
X142199414Y-56176433D01*
X142182683Y-56207734D01*
X142160168Y-56235168D01*
X142132734Y-56257683D01*
X142101433Y-56274414D01*
X142067468Y-56284717D01*
X142026010Y-56288800D01*
X141349990Y-56288800D01*
X141308532Y-56284717D01*
X141274567Y-56274414D01*
X141243266Y-56257683D01*
X141215832Y-56235168D01*
X141193317Y-56207734D01*
X141176586Y-56176433D01*
X141166283Y-56142468D01*
X141162200Y-56101010D01*
X141162200Y-55499990D01*
X141166283Y-55458532D01*
X141176586Y-55424567D01*
X141193317Y-55393266D01*
X141215832Y-55365832D01*
X141243266Y-55343317D01*
X141274567Y-55326586D01*
X141308532Y-55316283D01*
X141349990Y-55312200D01*
X142026010Y-55312200D01*
X142067468Y-55316283D01*
G37*
G36*
X150538800Y-55567600D02*
G01*
X148837200Y-55567600D01*
X148837200Y-54466000D01*
X150538800Y-54466000D01*
X150538800Y-55567600D01*
G37*
G36*
X145538800Y-55567600D02*
G01*
X143837200Y-55567600D01*
X143837200Y-54466000D01*
X145538800Y-54466000D01*
X145538800Y-55567600D01*
G37*
G36*
X167651607Y-53172277D02*
G01*
X167712129Y-53184316D01*
X167883162Y-53255160D01*
X168037087Y-53358010D01*
X168167990Y-53488913D01*
X168270840Y-53642838D01*
X168341684Y-53813871D01*
X168377800Y-53995438D01*
X168377800Y-54180562D01*
X168341684Y-54362129D01*
X168270840Y-54533162D01*
X168167990Y-54687087D01*
X168037087Y-54817990D01*
X167883162Y-54920840D01*
X167712129Y-54991684D01*
X167651607Y-55003723D01*
X167530564Y-55027800D01*
X167345436Y-55027800D01*
X167224393Y-55003723D01*
X167163871Y-54991684D01*
X166992838Y-54920840D01*
X166838913Y-54817990D01*
X166708010Y-54687087D01*
X166605160Y-54533162D01*
X166534316Y-54362129D01*
X166498200Y-54180562D01*
X166498200Y-53995438D01*
X166534316Y-53813871D01*
X166605160Y-53642838D01*
X166708010Y-53488913D01*
X166838913Y-53358010D01*
X166992838Y-53255160D01*
X167163871Y-53184316D01*
X167224393Y-53172277D01*
X167345436Y-53148200D01*
X167530564Y-53148200D01*
X167651607Y-53172277D01*
G37*
G36*
X127151607Y-53172277D02*
G01*
X127212129Y-53184316D01*
X127383162Y-53255160D01*
X127537087Y-53358010D01*
X127667990Y-53488913D01*
X127770840Y-53642838D01*
X127841684Y-53813871D01*
X127877800Y-53995438D01*
X127877800Y-54180562D01*
X127841684Y-54362129D01*
X127770840Y-54533162D01*
X127667990Y-54687087D01*
X127537087Y-54817990D01*
X127383162Y-54920840D01*
X127212129Y-54991684D01*
X127151607Y-55003723D01*
X127030564Y-55027800D01*
X126845436Y-55027800D01*
X126724393Y-55003723D01*
X126663871Y-54991684D01*
X126492838Y-54920840D01*
X126338913Y-54817990D01*
X126208010Y-54687087D01*
X126105160Y-54533162D01*
X126034316Y-54362129D01*
X125998200Y-54180562D01*
X125998200Y-53995438D01*
X126034316Y-53813871D01*
X126105160Y-53642838D01*
X126208010Y-53488913D01*
X126338913Y-53358010D01*
X126492838Y-53255160D01*
X126663871Y-53184316D01*
X126724393Y-53172277D01*
X126845436Y-53148200D01*
X127030564Y-53148200D01*
X127151607Y-53172277D01*
G37*
G36*
X167651607Y-50692353D02*
G01*
X167712129Y-50704392D01*
X167883162Y-50775236D01*
X168037087Y-50878086D01*
X168167990Y-51008989D01*
X168270840Y-51162914D01*
X168325053Y-51293795D01*
X168341684Y-51333948D01*
X168369814Y-51475362D01*
X168377800Y-51515514D01*
X168377800Y-51700638D01*
X168341684Y-51882205D01*
X168270840Y-52053238D01*
X168167990Y-52207163D01*
X168037087Y-52338066D01*
X167883162Y-52440916D01*
X167712129Y-52511760D01*
X167651607Y-52523799D01*
X167530564Y-52547876D01*
X167345436Y-52547876D01*
X167224393Y-52523799D01*
X167163871Y-52511760D01*
X166992838Y-52440916D01*
X166838913Y-52338066D01*
X166708010Y-52207163D01*
X166605160Y-52053238D01*
X166534316Y-51882205D01*
X166498200Y-51700638D01*
X166498200Y-51515514D01*
X166506187Y-51475362D01*
X166534316Y-51333948D01*
X166550948Y-51293795D01*
X166605160Y-51162914D01*
X166708010Y-51008989D01*
X166838913Y-50878086D01*
X166992838Y-50775236D01*
X167163871Y-50704392D01*
X167224393Y-50692353D01*
X167345436Y-50668276D01*
X167530564Y-50668276D01*
X167651607Y-50692353D01*
G37*
G36*
X127151607Y-50652201D02*
G01*
X127212129Y-50664240D01*
X127383162Y-50735084D01*
X127443252Y-50775235D01*
X127537087Y-50837934D01*
X127667990Y-50968837D01*
X127770841Y-51122764D01*
X127841684Y-51293796D01*
X127877800Y-51475360D01*
X127877800Y-51660488D01*
X127869813Y-51700640D01*
X127841684Y-51842053D01*
X127770840Y-52013086D01*
X127667990Y-52167011D01*
X127537087Y-52297914D01*
X127383162Y-52400764D01*
X127212129Y-52471608D01*
X127151607Y-52483647D01*
X127030564Y-52507724D01*
X126845436Y-52507724D01*
X126724393Y-52483647D01*
X126663871Y-52471608D01*
X126492838Y-52400764D01*
X126338913Y-52297914D01*
X126208010Y-52167011D01*
X126105160Y-52013086D01*
X126034316Y-51842053D01*
X126006187Y-51700640D01*
X125998200Y-51660488D01*
X125998200Y-51475360D01*
X126034316Y-51293796D01*
X126105159Y-51122764D01*
X126208010Y-50968837D01*
X126338913Y-50837934D01*
X126432748Y-50775235D01*
X126492838Y-50735084D01*
X126663871Y-50664240D01*
X126724393Y-50652201D01*
X126845436Y-50628124D01*
X127030564Y-50628124D01*
X127151607Y-50652201D01*
G37*
G36*
X167651607Y-48172277D02*
G01*
X167712129Y-48184316D01*
X167883162Y-48255160D01*
X168037087Y-48358010D01*
X168167990Y-48488913D01*
X168270840Y-48642838D01*
X168341684Y-48813871D01*
X168377800Y-48995438D01*
X168377800Y-49180562D01*
X168341684Y-49362129D01*
X168270840Y-49533162D01*
X168167990Y-49687087D01*
X168037087Y-49817990D01*
X167883162Y-49920840D01*
X167712129Y-49991684D01*
X167651607Y-50003723D01*
X167530564Y-50027800D01*
X167345436Y-50027800D01*
X167224393Y-50003723D01*
X167163871Y-49991684D01*
X166992838Y-49920840D01*
X166838913Y-49817990D01*
X166708010Y-49687087D01*
X166605160Y-49533162D01*
X166534316Y-49362129D01*
X166498200Y-49180562D01*
X166498200Y-48995438D01*
X166534316Y-48813871D01*
X166605160Y-48642838D01*
X166708010Y-48488913D01*
X166838913Y-48358010D01*
X166992838Y-48255160D01*
X167163871Y-48184316D01*
X167224393Y-48172277D01*
X167345436Y-48148200D01*
X167530564Y-48148200D01*
X167651607Y-48172277D01*
G37*
G36*
X127151607Y-48172277D02*
G01*
X127212129Y-48184316D01*
X127383162Y-48255160D01*
X127537087Y-48358010D01*
X127667990Y-48488913D01*
X127770840Y-48642838D01*
X127841684Y-48813871D01*
X127877800Y-48995438D01*
X127877800Y-49180562D01*
X127841684Y-49362129D01*
X127770840Y-49533162D01*
X127667990Y-49687087D01*
X127537087Y-49817990D01*
X127383162Y-49920840D01*
X127212129Y-49991684D01*
X127151607Y-50003723D01*
X127030564Y-50027800D01*
X126845436Y-50027800D01*
X126724393Y-50003723D01*
X126663871Y-49991684D01*
X126492838Y-49920840D01*
X126338913Y-49817990D01*
X126208010Y-49687087D01*
X126105160Y-49533162D01*
X126034316Y-49362129D01*
X125998200Y-49180562D01*
X125998200Y-48995438D01*
X126034316Y-48813871D01*
X126105160Y-48642838D01*
X126208010Y-48488913D01*
X126338913Y-48358010D01*
X126492838Y-48255160D01*
X126663871Y-48184316D01*
X126724393Y-48172277D01*
X126845436Y-48148200D01*
X127030564Y-48148200D01*
X127151607Y-48172277D01*
G37*
G36*
X134698200Y-43200402D02*
G01*
X134769091Y-43214503D01*
X134852071Y-43248875D01*
X134969423Y-43297483D01*
X134969424Y-43297484D01*
X135149719Y-43417953D01*
X135303047Y-43571281D01*
X135303048Y-43571283D01*
X135423517Y-43751577D01*
X135506497Y-43951910D01*
X135548800Y-44164579D01*
X135548800Y-44381421D01*
X135506497Y-44594090D01*
X135423517Y-44794423D01*
X135423516Y-44794424D01*
X135303047Y-44974719D01*
X135149719Y-45128047D01*
X135103694Y-45158800D01*
X134969423Y-45248517D01*
X134852071Y-45297125D01*
X134769091Y-45331497D01*
X134732376Y-45338800D01*
X134556421Y-45373800D01*
X134339579Y-45373800D01*
X134163624Y-45338800D01*
X134126909Y-45331497D01*
X134043929Y-45297125D01*
X133926577Y-45248517D01*
X133792306Y-45158800D01*
X133746281Y-45128047D01*
X133592953Y-44974719D01*
X133472484Y-44794424D01*
X133472483Y-44794423D01*
X133389503Y-44594090D01*
X133347200Y-44381421D01*
X133347200Y-44164579D01*
X133389503Y-43951910D01*
X133472483Y-43751577D01*
X133592952Y-43571283D01*
X133592953Y-43571281D01*
X133746281Y-43417953D01*
X133926576Y-43297484D01*
X133926577Y-43297483D01*
X134043929Y-43248875D01*
X134126909Y-43214503D01*
X134197800Y-43200402D01*
X134339579Y-43172200D01*
X134556421Y-43172200D01*
X134698200Y-43200402D01*
G37*
G36*
X153168200Y-43200402D02*
G01*
X153239091Y-43214503D01*
X153322071Y-43248875D01*
X153439423Y-43297483D01*
X153439424Y-43297484D01*
X153619719Y-43417953D01*
X153773047Y-43571281D01*
X153773048Y-43571283D01*
X153893517Y-43751577D01*
X153976497Y-43951910D01*
X154018800Y-44164579D01*
X154018800Y-44381421D01*
X153976497Y-44594090D01*
X153893517Y-44794423D01*
X153893516Y-44794424D01*
X153773047Y-44974719D01*
X153619719Y-45128047D01*
X153573694Y-45158800D01*
X153439423Y-45248517D01*
X153322071Y-45297125D01*
X153239091Y-45331497D01*
X153202376Y-45338800D01*
X153026421Y-45373800D01*
X152809579Y-45373800D01*
X152633624Y-45338800D01*
X152596909Y-45331497D01*
X152513929Y-45297125D01*
X152396577Y-45248517D01*
X152262306Y-45158800D01*
X152216281Y-45128047D01*
X152062953Y-44974719D01*
X151942484Y-44794424D01*
X151942483Y-44794423D01*
X151859503Y-44594090D01*
X151817200Y-44381421D01*
X151817200Y-44164579D01*
X151859503Y-43951910D01*
X151942483Y-43751577D01*
X152062952Y-43571283D01*
X152062953Y-43571281D01*
X152216281Y-43417953D01*
X152396576Y-43297484D01*
X152396577Y-43297483D01*
X152513929Y-43248875D01*
X152596909Y-43214503D01*
X152667800Y-43200402D01*
X152809579Y-43172200D01*
X153026421Y-43172200D01*
X153168200Y-43200402D01*
G37*
G36*
X160178200Y-43200402D02*
G01*
X160249091Y-43214503D01*
X160332071Y-43248875D01*
X160449423Y-43297483D01*
X160449424Y-43297484D01*
X160629719Y-43417953D01*
X160783047Y-43571281D01*
X160783048Y-43571283D01*
X160903517Y-43751577D01*
X160986497Y-43951910D01*
X161028800Y-44164579D01*
X161028800Y-44381421D01*
X160986497Y-44594090D01*
X160903517Y-44794423D01*
X160903516Y-44794424D01*
X160783047Y-44974719D01*
X160629719Y-45128047D01*
X160583694Y-45158800D01*
X160449423Y-45248517D01*
X160332071Y-45297125D01*
X160249091Y-45331497D01*
X160212376Y-45338800D01*
X160036421Y-45373800D01*
X159819579Y-45373800D01*
X159643624Y-45338800D01*
X159606909Y-45331497D01*
X159523929Y-45297125D01*
X159406577Y-45248517D01*
X159272306Y-45158800D01*
X159226281Y-45128047D01*
X159072953Y-44974719D01*
X158952484Y-44794424D01*
X158952483Y-44794423D01*
X158869503Y-44594090D01*
X158827200Y-44381421D01*
X158827200Y-44164579D01*
X158869503Y-43951910D01*
X158952483Y-43751577D01*
X159072952Y-43571283D01*
X159072953Y-43571281D01*
X159226281Y-43417953D01*
X159406576Y-43297484D01*
X159406577Y-43297483D01*
X159523929Y-43248875D01*
X159606909Y-43214503D01*
X159677800Y-43200402D01*
X159819579Y-43172200D01*
X160036421Y-43172200D01*
X160178200Y-43200402D01*
G37*
G36*
X141708200Y-43200402D02*
G01*
X141779091Y-43214503D01*
X141862071Y-43248875D01*
X141979423Y-43297483D01*
X141979424Y-43297484D01*
X142159719Y-43417953D01*
X142313047Y-43571281D01*
X142313048Y-43571283D01*
X142433517Y-43751577D01*
X142516497Y-43951910D01*
X142558800Y-44164579D01*
X142558800Y-44381421D01*
X142516497Y-44594090D01*
X142433517Y-44794423D01*
X142433516Y-44794424D01*
X142313047Y-44974719D01*
X142159719Y-45128047D01*
X142113694Y-45158800D01*
X141979423Y-45248517D01*
X141862071Y-45297125D01*
X141779091Y-45331497D01*
X141742376Y-45338800D01*
X141566421Y-45373800D01*
X141349579Y-45373800D01*
X141173624Y-45338800D01*
X141136909Y-45331497D01*
X141053929Y-45297125D01*
X140936577Y-45248517D01*
X140802306Y-45158800D01*
X140756281Y-45128047D01*
X140602953Y-44974719D01*
X140482484Y-44794424D01*
X140482483Y-44794423D01*
X140399503Y-44594090D01*
X140357200Y-44381421D01*
X140357200Y-44164579D01*
X140399503Y-43951910D01*
X140482483Y-43751577D01*
X140602952Y-43571283D01*
X140602953Y-43571281D01*
X140756281Y-43417953D01*
X140936576Y-43297484D01*
X140936577Y-43297483D01*
X141053929Y-43248875D01*
X141136909Y-43214503D01*
X141207800Y-43200402D01*
X141349579Y-43172200D01*
X141566421Y-43172200D01*
X141708200Y-43200402D01*
G37*
G36*
X130689094Y-40892778D02*
G01*
X130844534Y-40923697D01*
X131254154Y-41093367D01*
X131622802Y-41339689D01*
X131936311Y-41653198D01*
X132182633Y-42021846D01*
X132352303Y-42431466D01*
X132379453Y-42567957D01*
X132428010Y-42812067D01*
X132438800Y-42866316D01*
X132438800Y-43309684D01*
X132352303Y-43744534D01*
X132182633Y-44154154D01*
X131936311Y-44522802D01*
X131622802Y-44836311D01*
X131254154Y-45082633D01*
X130844534Y-45252303D01*
X130699584Y-45281135D01*
X130409686Y-45338800D01*
X129966314Y-45338800D01*
X129676416Y-45281135D01*
X129531466Y-45252303D01*
X129121846Y-45082633D01*
X128753198Y-44836311D01*
X128439689Y-44522802D01*
X128193367Y-44154154D01*
X128023697Y-43744534D01*
X127937200Y-43309684D01*
X127937200Y-42866316D01*
X127947991Y-42812067D01*
X127996547Y-42567957D01*
X128023697Y-42431466D01*
X128193367Y-42021846D01*
X128439689Y-41653198D01*
X128753198Y-41339689D01*
X129121846Y-41093367D01*
X129531466Y-40923697D01*
X129686906Y-40892778D01*
X129966314Y-40837200D01*
X130409686Y-40837200D01*
X130689094Y-40892778D01*
G37*
G36*
X164689094Y-40892778D02*
G01*
X164844534Y-40923697D01*
X165254154Y-41093367D01*
X165622802Y-41339689D01*
X165936311Y-41653198D01*
X166182633Y-42021846D01*
X166352303Y-42431466D01*
X166379453Y-42567957D01*
X166428010Y-42812067D01*
X166438800Y-42866316D01*
X166438800Y-43309684D01*
X166352303Y-43744534D01*
X166182633Y-44154154D01*
X165936311Y-44522802D01*
X165622802Y-44836311D01*
X165254154Y-45082633D01*
X164844534Y-45252303D01*
X164699584Y-45281135D01*
X164409686Y-45338800D01*
X163966314Y-45338800D01*
X163676416Y-45281135D01*
X163531466Y-45252303D01*
X163121846Y-45082633D01*
X162753198Y-44836311D01*
X162439689Y-44522802D01*
X162193367Y-44154154D01*
X162023697Y-43744534D01*
X161937200Y-43309684D01*
X161937200Y-42866316D01*
X161947991Y-42812067D01*
X161996547Y-42567957D01*
X162023697Y-42431466D01*
X162193367Y-42021846D01*
X162439689Y-41653198D01*
X162753198Y-41339689D01*
X163121846Y-41093367D01*
X163531466Y-40923697D01*
X163686906Y-40892778D01*
X163966314Y-40837200D01*
X164409686Y-40837200D01*
X164689094Y-40892778D01*
G37*
G36*
X124223263Y-42567957D02*
G01*
X124463634Y-42667522D01*
X124679961Y-42812067D01*
X124863933Y-42996039D01*
X124981640Y-43172200D01*
X125008479Y-43212368D01*
X125108043Y-43452737D01*
X125158800Y-43707911D01*
X125158800Y-43968089D01*
X125108043Y-44223263D01*
X125008478Y-44463634D01*
X124863933Y-44679961D01*
X124679961Y-44863933D01*
X124463634Y-45008478D01*
X124463633Y-45008479D01*
X124463632Y-45008479D01*
X124223263Y-45108043D01*
X123968089Y-45158800D01*
X123707911Y-45158800D01*
X123452737Y-45108043D01*
X123212368Y-45008479D01*
X123212367Y-45008479D01*
X123212366Y-45008478D01*
X122996039Y-44863933D01*
X122812067Y-44679961D01*
X122667522Y-44463634D01*
X122567957Y-44223263D01*
X122517200Y-43968089D01*
X122517200Y-43707911D01*
X122567957Y-43452737D01*
X122667521Y-43212368D01*
X122694360Y-43172200D01*
X122812067Y-42996039D01*
X122996039Y-42812067D01*
X123212366Y-42667522D01*
X123452737Y-42567957D01*
X123707911Y-42517200D01*
X123968089Y-42517200D01*
X124223263Y-42567957D01*
G37*
G36*
X110923263Y-42567957D02*
G01*
X111163634Y-42667522D01*
X111379961Y-42812067D01*
X111563933Y-42996039D01*
X111681640Y-43172200D01*
X111708479Y-43212368D01*
X111808043Y-43452737D01*
X111858800Y-43707911D01*
X111858800Y-43968089D01*
X111808043Y-44223263D01*
X111708478Y-44463634D01*
X111563933Y-44679961D01*
X111379961Y-44863933D01*
X111163634Y-45008478D01*
X111163633Y-45008479D01*
X111163632Y-45008479D01*
X110923263Y-45108043D01*
X110668089Y-45158800D01*
X110407911Y-45158800D01*
X110152737Y-45108043D01*
X109912368Y-45008479D01*
X109912367Y-45008479D01*
X109912366Y-45008478D01*
X109696039Y-44863933D01*
X109512067Y-44679961D01*
X109367522Y-44463634D01*
X109267957Y-44223263D01*
X109217200Y-43968089D01*
X109217200Y-43707911D01*
X109267957Y-43452737D01*
X109367521Y-43212368D01*
X109394360Y-43172200D01*
X109512067Y-42996039D01*
X109696039Y-42812067D01*
X109912366Y-42667522D01*
X110152737Y-42567957D01*
X110407911Y-42517200D01*
X110668089Y-42517200D01*
X110923263Y-42567957D01*
G37*
G36*
X184223263Y-42567957D02*
G01*
X184463634Y-42667522D01*
X184679961Y-42812067D01*
X184863933Y-42996039D01*
X184981640Y-43172200D01*
X185008479Y-43212368D01*
X185108043Y-43452737D01*
X185158800Y-43707911D01*
X185158800Y-43968089D01*
X185108043Y-44223263D01*
X185008478Y-44463634D01*
X184863933Y-44679961D01*
X184679961Y-44863933D01*
X184463634Y-45008478D01*
X184463633Y-45008479D01*
X184463632Y-45008479D01*
X184223263Y-45108043D01*
X183968089Y-45158800D01*
X183707911Y-45158800D01*
X183452737Y-45108043D01*
X183212368Y-45008479D01*
X183212367Y-45008479D01*
X183212366Y-45008478D01*
X182996039Y-44863933D01*
X182812067Y-44679961D01*
X182667522Y-44463634D01*
X182567957Y-44223263D01*
X182517200Y-43968089D01*
X182517200Y-43707911D01*
X182567957Y-43452737D01*
X182667521Y-43212368D01*
X182694360Y-43172200D01*
X182812067Y-42996039D01*
X182996039Y-42812067D01*
X183212366Y-42667522D01*
X183452737Y-42567957D01*
X183707911Y-42517200D01*
X183968089Y-42517200D01*
X184223263Y-42567957D01*
G37*
G36*
X170923263Y-42567957D02*
G01*
X171163634Y-42667522D01*
X171379961Y-42812067D01*
X171563933Y-42996039D01*
X171681640Y-43172200D01*
X171708479Y-43212368D01*
X171808043Y-43452737D01*
X171858800Y-43707911D01*
X171858800Y-43968089D01*
X171808043Y-44223263D01*
X171708478Y-44463634D01*
X171563933Y-44679961D01*
X171379961Y-44863933D01*
X171163634Y-45008478D01*
X171163633Y-45008479D01*
X171163632Y-45008479D01*
X170923263Y-45108043D01*
X170668089Y-45158800D01*
X170407911Y-45158800D01*
X170152737Y-45108043D01*
X169912368Y-45008479D01*
X169912367Y-45008479D01*
X169912366Y-45008478D01*
X169696039Y-44863933D01*
X169512067Y-44679961D01*
X169367522Y-44463634D01*
X169267957Y-44223263D01*
X169217200Y-43968089D01*
X169217200Y-43707911D01*
X169267957Y-43452737D01*
X169367521Y-43212368D01*
X169394360Y-43172200D01*
X169512067Y-42996039D01*
X169696039Y-42812067D01*
X169912366Y-42667522D01*
X170152737Y-42567957D01*
X170407911Y-42517200D01*
X170668089Y-42517200D01*
X170923263Y-42567957D01*
G37*
G36*
X145460800Y-43670800D02*
G01*
X143835200Y-43670800D01*
X143835200Y-39505200D01*
X145460800Y-39505200D01*
X145460800Y-43670800D01*
G37*
G36*
X150540800Y-43670800D02*
G01*
X148915200Y-43670800D01*
X148915200Y-39505200D01*
X150540800Y-39505200D01*
X150540800Y-43670800D01*
G37*
G36*
X119901607Y-40922277D02*
G01*
X119962129Y-40934316D01*
X120133162Y-41005160D01*
X120287087Y-41108010D01*
X120417990Y-41238913D01*
X120520840Y-41392838D01*
X120570594Y-41512954D01*
X120591684Y-41563872D01*
X120627800Y-41745436D01*
X120627800Y-41930564D01*
X120609642Y-42021848D01*
X120591684Y-42112129D01*
X120520840Y-42283162D01*
X120417990Y-42437087D01*
X120287087Y-42567990D01*
X120133162Y-42670840D01*
X120133161Y-42670841D01*
X120133160Y-42670841D01*
X120083065Y-42691591D01*
X119962129Y-42741684D01*
X119901607Y-42753723D01*
X119780564Y-42777800D01*
X119595436Y-42777800D01*
X119474393Y-42753723D01*
X119413871Y-42741684D01*
X119292935Y-42691591D01*
X119242840Y-42670841D01*
X119242839Y-42670841D01*
X119242838Y-42670840D01*
X119088913Y-42567990D01*
X118958010Y-42437087D01*
X118855160Y-42283162D01*
X118784316Y-42112129D01*
X118766358Y-42021848D01*
X118748200Y-41930564D01*
X118748200Y-41745436D01*
X118784316Y-41563872D01*
X118805407Y-41512954D01*
X118855160Y-41392838D01*
X118958010Y-41238913D01*
X119088913Y-41108010D01*
X119242838Y-41005160D01*
X119413871Y-40934316D01*
X119474393Y-40922277D01*
X119595436Y-40898200D01*
X119780564Y-40898200D01*
X119901607Y-40922277D01*
G37*
G36*
X114901607Y-40922277D02*
G01*
X114962129Y-40934316D01*
X115133162Y-41005160D01*
X115287087Y-41108010D01*
X115417990Y-41238913D01*
X115520840Y-41392838D01*
X115570594Y-41512954D01*
X115591684Y-41563872D01*
X115627800Y-41745436D01*
X115627800Y-41930564D01*
X115609642Y-42021848D01*
X115591684Y-42112129D01*
X115520840Y-42283162D01*
X115417990Y-42437087D01*
X115287087Y-42567990D01*
X115133162Y-42670840D01*
X115133161Y-42670841D01*
X115133160Y-42670841D01*
X115083065Y-42691591D01*
X114962129Y-42741684D01*
X114901607Y-42753723D01*
X114780564Y-42777800D01*
X114595436Y-42777800D01*
X114474393Y-42753723D01*
X114413871Y-42741684D01*
X114292935Y-42691591D01*
X114242840Y-42670841D01*
X114242839Y-42670841D01*
X114242838Y-42670840D01*
X114088913Y-42567990D01*
X113958010Y-42437087D01*
X113855160Y-42283162D01*
X113784316Y-42112129D01*
X113766358Y-42021848D01*
X113748200Y-41930564D01*
X113748200Y-41745436D01*
X113784316Y-41563872D01*
X113805407Y-41512954D01*
X113855160Y-41392838D01*
X113958010Y-41238913D01*
X114088913Y-41108010D01*
X114242838Y-41005160D01*
X114413871Y-40934316D01*
X114474393Y-40922277D01*
X114595436Y-40898200D01*
X114780564Y-40898200D01*
X114901607Y-40922277D01*
G37*
G36*
X117401607Y-40922277D02*
G01*
X117462129Y-40934316D01*
X117633162Y-41005160D01*
X117787087Y-41108010D01*
X117917990Y-41238913D01*
X118020840Y-41392838D01*
X118070594Y-41512954D01*
X118091684Y-41563872D01*
X118127800Y-41745436D01*
X118127800Y-41930564D01*
X118109642Y-42021848D01*
X118091684Y-42112129D01*
X118020840Y-42283162D01*
X117917990Y-42437087D01*
X117787087Y-42567990D01*
X117633162Y-42670840D01*
X117633161Y-42670841D01*
X117633160Y-42670841D01*
X117583065Y-42691591D01*
X117462129Y-42741684D01*
X117401607Y-42753723D01*
X117280564Y-42777800D01*
X117095436Y-42777800D01*
X116974393Y-42753723D01*
X116913871Y-42741684D01*
X116792935Y-42691591D01*
X116742840Y-42670841D01*
X116742839Y-42670841D01*
X116742838Y-42670840D01*
X116588913Y-42567990D01*
X116458010Y-42437087D01*
X116355160Y-42283162D01*
X116284316Y-42112129D01*
X116266358Y-42021848D01*
X116248200Y-41930564D01*
X116248200Y-41745436D01*
X116284316Y-41563872D01*
X116305407Y-41512954D01*
X116355160Y-41392838D01*
X116458010Y-41238913D01*
X116588913Y-41108010D01*
X116742838Y-41005160D01*
X116913871Y-40934316D01*
X116974393Y-40922277D01*
X117095436Y-40898200D01*
X117280564Y-40898200D01*
X117401607Y-40922277D01*
G37*
G36*
X135918425Y-40880919D02*
G01*
X135978046Y-40892778D01*
X136146531Y-40962566D01*
X136298163Y-41063884D01*
X136427116Y-41192837D01*
X136528434Y-41344469D01*
X136598222Y-41512954D01*
X136633800Y-41691817D01*
X136633800Y-41874183D01*
X136598222Y-42053046D01*
X136528434Y-42221531D01*
X136427116Y-42373163D01*
X136298163Y-42502116D01*
X136146531Y-42603434D01*
X135978046Y-42673222D01*
X135918425Y-42685081D01*
X135799185Y-42708800D01*
X135616815Y-42708800D01*
X135497575Y-42685081D01*
X135437954Y-42673222D01*
X135269469Y-42603434D01*
X135117837Y-42502116D01*
X134988884Y-42373163D01*
X134887566Y-42221531D01*
X134817778Y-42053046D01*
X134782200Y-41874183D01*
X134782200Y-41691817D01*
X134817778Y-41512954D01*
X134887566Y-41344469D01*
X134988884Y-41192837D01*
X135117837Y-41063884D01*
X135269469Y-40962566D01*
X135437954Y-40892778D01*
X135497575Y-40880919D01*
X135616815Y-40857200D01*
X135799185Y-40857200D01*
X135918425Y-40880919D01*
G37*
G36*
X154388425Y-40880919D02*
G01*
X154448046Y-40892778D01*
X154616531Y-40962566D01*
X154768163Y-41063884D01*
X154897116Y-41192837D01*
X154998434Y-41344469D01*
X155068222Y-41512954D01*
X155103800Y-41691817D01*
X155103800Y-41874183D01*
X155068222Y-42053046D01*
X154998434Y-42221531D01*
X154897116Y-42373163D01*
X154768163Y-42502116D01*
X154616531Y-42603434D01*
X154448046Y-42673222D01*
X154388425Y-42685081D01*
X154269185Y-42708800D01*
X154086815Y-42708800D01*
X153967575Y-42685081D01*
X153907954Y-42673222D01*
X153739469Y-42603434D01*
X153587837Y-42502116D01*
X153458884Y-42373163D01*
X153357566Y-42221531D01*
X153287778Y-42053046D01*
X153252200Y-41874183D01*
X153252200Y-41691817D01*
X153287778Y-41512954D01*
X153357566Y-41344469D01*
X153458884Y-41192837D01*
X153587837Y-41063884D01*
X153739469Y-40962566D01*
X153907954Y-40892778D01*
X153967575Y-40880919D01*
X154086815Y-40857200D01*
X154269185Y-40857200D01*
X154388425Y-40880919D01*
G37*
G36*
X140418425Y-40880919D02*
G01*
X140478046Y-40892778D01*
X140646531Y-40962566D01*
X140798163Y-41063884D01*
X140927116Y-41192837D01*
X141028434Y-41344469D01*
X141098222Y-41512954D01*
X141133800Y-41691817D01*
X141133800Y-41874183D01*
X141098222Y-42053046D01*
X141028434Y-42221531D01*
X140927116Y-42373163D01*
X140798163Y-42502116D01*
X140646531Y-42603434D01*
X140478046Y-42673222D01*
X140418425Y-42685081D01*
X140299185Y-42708800D01*
X140116815Y-42708800D01*
X139997575Y-42685081D01*
X139937954Y-42673222D01*
X139769469Y-42603434D01*
X139617837Y-42502116D01*
X139488884Y-42373163D01*
X139387566Y-42221531D01*
X139317778Y-42053046D01*
X139282200Y-41874183D01*
X139282200Y-41691817D01*
X139317778Y-41512954D01*
X139387566Y-41344469D01*
X139488884Y-41192837D01*
X139617837Y-41063884D01*
X139769469Y-40962566D01*
X139937954Y-40892778D01*
X139997575Y-40880919D01*
X140116815Y-40857200D01*
X140299185Y-40857200D01*
X140418425Y-40880919D01*
G37*
G36*
X158888425Y-40880919D02*
G01*
X158948046Y-40892778D01*
X159116531Y-40962566D01*
X159268163Y-41063884D01*
X159397116Y-41192837D01*
X159498434Y-41344469D01*
X159568222Y-41512954D01*
X159603800Y-41691817D01*
X159603800Y-41874183D01*
X159568222Y-42053046D01*
X159498434Y-42221531D01*
X159397116Y-42373163D01*
X159268163Y-42502116D01*
X159116531Y-42603434D01*
X158948046Y-42673222D01*
X158888425Y-42685081D01*
X158769185Y-42708800D01*
X158586815Y-42708800D01*
X158467575Y-42685081D01*
X158407954Y-42673222D01*
X158239469Y-42603434D01*
X158087837Y-42502116D01*
X157958884Y-42373163D01*
X157857566Y-42221531D01*
X157787778Y-42053046D01*
X157752200Y-41874183D01*
X157752200Y-41691817D01*
X157787778Y-41512954D01*
X157857566Y-41344469D01*
X157958884Y-41192837D01*
X158087837Y-41063884D01*
X158239469Y-40962566D01*
X158407954Y-40892778D01*
X158467575Y-40880919D01*
X158586815Y-40857200D01*
X158769185Y-40857200D01*
X158888425Y-40880919D01*
G37*
M02*
