M48
;DRILL file {KiCad 4.0.7-e2-6376~61~ubuntu18.04.1} date Sat Jun  2 02:29:37 2018
;FORMAT={-:-/ absolute / inch / decimal}
FMAT,2
INCH,TZ
T1C0.004
T2C0.012
T3C0.013
T4C0.030
T5C0.039
T6C0.047
T7C0.055
%
G90
G05
M72
T1
X5.7456Y-1.7357
X5.7456Y-1.7653
X5.844Y-1.7357
X5.844Y-1.7653
T2
X4.594Y-3.468
X4.594Y-3.5074
X4.594Y-3.5468
X4.6334Y-3.468
X4.6334Y-3.5074
X4.6334Y-3.5468
X4.6728Y-3.468
X4.6728Y-3.5074
X4.6728Y-3.5468
X4.8893Y-3.3696
X4.8893Y-3.409
X4.8893Y-3.4483
X4.9287Y-3.3696
X4.9287Y-3.409
X4.9287Y-3.4483
X4.968Y-3.3696
X4.968Y-3.409
X4.968Y-3.4483
X5.342Y-3.1137
X5.342Y-3.1531
X5.342Y-3.1924
X5.3814Y-3.1137
X5.3814Y-3.1531
X5.3814Y-3.1924
X5.4208Y-3.1137
X5.4208Y-3.1531
X5.4208Y-3.1924
X5.4602Y-3.1137
X5.4602Y-3.1531
X5.4602Y-3.1924
X5.9326Y-4.0783
X5.9326Y-4.1176
X5.9326Y-4.157
X5.972Y-4.0783
X5.972Y-4.1176
X5.972Y-4.157
X6.0113Y-4.0783
X6.0113Y-4.1176
X6.0113Y-4.157
X6.0507Y-4.0783
X6.0507Y-4.1176
X6.0507Y-4.157
X6.2279Y-2.1885
X6.2279Y-2.2279
X6.2279Y-2.2672
X6.2279Y-2.3066
X6.2672Y-2.1885
X6.2672Y-2.2279
X6.2672Y-2.2672
X6.2672Y-2.3066
X6.3066Y-2.1885
X6.3066Y-2.2279
X6.3066Y-2.2672
X6.3066Y-2.3066
X6.346Y-2.1885
X6.346Y-2.2279
X6.346Y-2.2672
X6.346Y-2.3066
X6.5428Y-2.6216
X6.5428Y-2.6609
X6.5822Y-2.6216
X6.5822Y-2.6609
X6.6216Y-2.6216
X6.6216Y-2.6609
X6.6216Y-3.1334
X6.6216Y-3.1728
X6.6216Y-3.2121
X6.6216Y-3.2515
X6.6609Y-2.6216
X6.6609Y-2.6609
X6.6609Y-3.1334
X6.6609Y-3.1728
X6.6609Y-3.2121
X6.6609Y-3.2515
X6.6806Y-3.4877
X6.7003Y-2.6216
X6.7003Y-2.6609
X6.7003Y-3.1334
X6.7003Y-3.1728
X6.7003Y-3.2121
X6.7003Y-3.6058
X6.7003Y-3.6452
X6.7003Y-3.6846
X6.7397Y-2.6216
X6.7397Y-2.6609
X6.7397Y-3.1334
X6.7397Y-3.1728
X6.7397Y-3.2121
X6.7397Y-3.4877
X6.7397Y-3.6058
X6.7397Y-3.6452
X6.7397Y-3.6846
X6.7791Y-2.6216
X6.7791Y-2.6609
X6.7791Y-3.6058
X6.7791Y-3.6452
X6.8184Y-3.6058
X6.8184Y-3.6452
X6.8184Y-3.8617
X6.8578Y-3.8224
T3
X4.4956Y-4.1767
X4.6804Y-4.3615
X4.7045Y-4.3856
X4.7121Y-3.094
X4.7141Y-3.3617
X4.7515Y-3.035
X4.7672Y-3.1235
X4.8106Y-3.2515
X4.8617Y-4.1098
X4.91Y-3.9116
X4.9287Y-3.8027
X4.9324Y-3.9395
X5.0371Y-3.9917
X5.0606Y-3.7259
X5.094Y-3.7259
X5.0999Y-3.2948
X5.1599Y-4.0318
X5.1787Y-2.4838
X5.1787Y-2.9365
X5.2239Y-4.1373
X5.2397Y-3.2653
X5.2535Y-3.6098
X5.2535Y-3.7869
X5.2613Y-4.035
X5.3204Y-4.0802
X5.3285Y-4.2165
X5.3417Y-3.2653
X5.3446Y-3.2981
X5.3617Y-4.3281
X5.3724Y-2.9365
X5.3913Y-3.9759
X5.4208Y-2.4641
X5.4798Y-4.2161
X5.5192Y-2.2672
X5.5192Y-2.7633
X5.5192Y-3.7043
X5.5558Y-4.1802
X5.5606Y-3.6432
X5.5665Y-4.0842
X5.5783Y-4.2948
X5.5793Y-4.1166
X5.6767Y-2.7791
X5.7338Y-3.5999
X5.7436Y-3.6373
X5.7987Y-3.409
X5.8145Y-2.9365
X5.8342Y-2.3854
X5.8932Y-3.2613
X5.9326Y-3.2613
X6.0113Y-2.7837
X6.0113Y-2.9365
X6.0491Y-3.5889
X6.0492Y-3.6686
X6.0606Y-3.6213
X6.0901Y-2.7397
X6.1393Y-3.7239
X6.1491Y-2.7397
X6.157Y-3.3834
X6.1836Y-3.5612
X6.1965Y-2.9338
X6.2003Y-3.3932
X6.2038Y-2.7979
X6.2054Y-3.3463
X6.218Y-3.6096
X6.2279Y-4.1864
X6.233Y-3.5529
X6.2672Y-3.3445
X6.2672Y-3.6452
X6.2682Y-3.4998
X6.2762Y-3.3914
X6.2869Y-4.157
X6.3027Y-2.7751
X6.4444Y-4.1373
X6.4936Y-3.6196
X6.4976Y-3.6846
X6.5035Y-3.783
X6.5822Y-3.3302
X6.5958Y-3.3845
X6.6196Y-3.8637
X6.6373Y-4.3322
X6.6464Y-3.927
X6.6708Y-3.9897
X6.6905Y-3.9582
X6.8381Y-3.5231
X6.8424Y-3.5606
X6.909Y-3.5389
X6.9661Y-4.1275
X6.9719Y-3.0013
X6.9956Y-4.098
X7.0548Y-3.773
X7.0842Y-3.9582
X7.1157Y-3.718
X7.1294Y-3.4956
X7.1767Y-3.9602
X7.2121Y-3.7731
X7.2456Y-3.5507
X7.2771Y-3.9602
T4
X5.0074Y-4.2456
X5.0861Y-4.2456
T5
X4.3775Y-2.8539
X4.3775Y-3.1531
X4.8499Y-3.0645
X4.8696Y-2.6019
X4.9696Y-2.6019
X5.0468Y-3.842
X5.5507Y-2.5609
X5.5507Y-2.6609
X5.5932Y-3.0153
X5.5932Y-3.1153
X5.6507Y-2.5609
X5.6507Y-2.6609
X5.6932Y-3.0153
X5.6932Y-3.1153
X5.7507Y-2.5609
X5.7507Y-2.6609
X5.7932Y-3.0153
X5.7932Y-3.1153
X5.8507Y-2.5609
X5.8507Y-2.6609
X5.8932Y-3.0153
X5.8932Y-3.1153
X5.9507Y-2.5609
X5.9507Y-2.6609
X6.0113Y-3.8842
X6.0507Y-2.5609
X6.0507Y-2.6609
X6.9515Y-2.5806
X6.9515Y-2.6806
X7.0515Y-2.5806
X7.0515Y-2.6806
X7.1515Y-2.5806
X7.1515Y-2.6806
X7.2515Y-2.5806
X7.2515Y-2.6806
T6
X4.4907Y-4.4208
X4.5153Y-1.6472
X4.6137Y-1.6472
X4.7121Y-1.6472
X4.7958Y-4.4208
X4.9976Y-1.9326
X4.9976Y-2.0302
X4.9976Y-2.1294
X6.592Y-1.9326
X6.592Y-2.0318
X6.592Y-2.1294
X6.8775Y-2.4149
X6.9759Y-2.4149
X7.0743Y-2.4149
T7
X4.4966Y-4.2712
X4.7899Y-4.2712
T0
M30
