G04 #@! TF.FileFunction,Copper,L2,Bot,Signal*
%FSLAX46Y46*%
G04 Gerber Fmt 4.6, Leading zero omitted, Abs format (unit mm)*
G04 Created by KiCad (PCBNEW 4.0.7-e2-6376~60~ubuntu17.10.1) date Thu Apr 26 16:50:41 2018*
%MOMM*%
%LPD*%
G01*
G04 APERTURE LIST*
%ADD10C,0.100000*%
%ADD11C,0.400000*%
%ADD12R,4.000000X0.400000*%
%ADD13C,0.150000*%
%ADD14R,2.000000X2.000000*%
%ADD15C,2.000000*%
%ADD16R,1.250000X1.000000*%
%ADD17R,1.524000X4.064000*%
%ADD18O,1.450000X2.000000*%
%ADD19O,1.150000X1.800000*%
%ADD20R,1.700000X1.700000*%
%ADD21O,1.700000X1.700000*%
%ADD22R,1.524000X1.524000*%
%ADD23C,1.524000*%
%ADD24R,1.600000X1.000000*%
%ADD25C,1.778000*%
%ADD26C,2.540000*%
%ADD27C,0.685800*%
%ADD28C,0.500000*%
%ADD29C,0.200000*%
%ADD30C,0.152400*%
%ADD31C,0.254000*%
G04 APERTURE END LIST*
D10*
D11*
X172188000Y-66588000D03*
X172188000Y-67588000D03*
X161188000Y-58588000D03*
X160188000Y-58588000D03*
X159188000Y-58588000D03*
X158188000Y-58588000D03*
X171188000Y-88588000D03*
X169688000Y-88588000D03*
X169188000Y-82588000D03*
X168188000Y-82588000D03*
X171188000Y-66588000D03*
X171188000Y-67588000D03*
X161188000Y-57588000D03*
X160188000Y-57588000D03*
X159188000Y-57588000D03*
X158188000Y-57588000D03*
X171188000Y-81588000D03*
X170188000Y-81588000D03*
X169188000Y-81588000D03*
X168188000Y-81588000D03*
X170188000Y-66588000D03*
X170188000Y-67588000D03*
X161188000Y-56588000D03*
X160188000Y-56588000D03*
X159188000Y-56588000D03*
X158188000Y-56588000D03*
X171188000Y-80588000D03*
X170188000Y-80588000D03*
X169188000Y-80588000D03*
X168188000Y-80588000D03*
X169188000Y-66588000D03*
X169188000Y-67588000D03*
X161188000Y-55588000D03*
X160188000Y-55588000D03*
X159188000Y-55588000D03*
X158188000Y-55588000D03*
X171188000Y-79588000D03*
X170188000Y-79588000D03*
X169188000Y-79588000D03*
X168188000Y-79588000D03*
X168188000Y-66588000D03*
X168188000Y-67588000D03*
X174188000Y-97088000D03*
X173188000Y-98088000D03*
X171188000Y-93588000D03*
X170188000Y-93588000D03*
X153688000Y-105588000D03*
X152688000Y-105588000D03*
X151688000Y-105588000D03*
X150688000Y-105588000D03*
X167188000Y-66588000D03*
X167188000Y-67588000D03*
X173188000Y-92588000D03*
X172188000Y-92588000D03*
X171188000Y-92588000D03*
X170188000Y-92588000D03*
X153688000Y-104588000D03*
X152688000Y-104588000D03*
X151688000Y-104588000D03*
X150688000Y-104588000D03*
X166188000Y-66588000D03*
X166188000Y-67588000D03*
X173188000Y-91588000D03*
X172188000Y-91588000D03*
X171188000Y-91588000D03*
X170188000Y-91588000D03*
X153688000Y-103588000D03*
X152688000Y-103588000D03*
X151688000Y-103588000D03*
X150688000Y-103588000D03*
X138688000Y-81088000D03*
X137688000Y-81088000D03*
X136688000Y-81088000D03*
X135688000Y-81088000D03*
X118688000Y-90088000D03*
X117688000Y-90088000D03*
X116688000Y-90088000D03*
X126188000Y-87588000D03*
X125188000Y-87588000D03*
X124188000Y-87588000D03*
X138688000Y-80088000D03*
X137688000Y-80088000D03*
X136688000Y-80088000D03*
X135688000Y-80088000D03*
X118688000Y-89088000D03*
X117688000Y-89088000D03*
X116688000Y-89088000D03*
X126188000Y-86588000D03*
X125188000Y-86588000D03*
X124188000Y-86588000D03*
X138688000Y-79088000D03*
X137688000Y-79088000D03*
X136688000Y-79088000D03*
X135688000Y-79088000D03*
X118688000Y-88088000D03*
X117688000Y-88088000D03*
X116688000Y-88088000D03*
X126188000Y-85588000D03*
X125188000Y-85588000D03*
D12*
X162188000Y-85488000D03*
X162188000Y-86288000D03*
X162188000Y-87088000D03*
X162188000Y-87888000D03*
X162188000Y-88688000D03*
X162188000Y-89488000D03*
X162188000Y-90288000D03*
X162188000Y-91088000D03*
X162188000Y-91888000D03*
X162188000Y-92688000D03*
X162188000Y-93488000D03*
X162188000Y-94288000D03*
X162188000Y-95088000D03*
X162188000Y-95888000D03*
X162188000Y-96688000D03*
X162188000Y-97488000D03*
X162188000Y-98288000D03*
X162188000Y-99088000D03*
D13*
X148438000Y-44088000D03*
X145938000Y-44088000D03*
X148438000Y-44838000D03*
X145938000Y-44838000D03*
D14*
X111188000Y-80088000D03*
D15*
X111188000Y-72488000D03*
D16*
X139688000Y-57588000D03*
X139688000Y-55588000D03*
D17*
X149728000Y-41588000D03*
X144648000Y-41588000D03*
D18*
X114213000Y-108488000D03*
X121663000Y-108488000D03*
D19*
X114063000Y-112288000D03*
X121813000Y-112288000D03*
D20*
X184188000Y-68088000D03*
D21*
X184188000Y-65548000D03*
X181648000Y-68088000D03*
X181648000Y-65548000D03*
X179108000Y-68088000D03*
X179108000Y-65548000D03*
X176568000Y-68088000D03*
X176568000Y-65548000D03*
D20*
X123688000Y-66088000D03*
D21*
X126228000Y-66088000D03*
D22*
X142068000Y-79128000D03*
D23*
X142068000Y-76588000D03*
X144608000Y-79128000D03*
X144608000Y-76588000D03*
X147148000Y-79128000D03*
X147148000Y-76588000D03*
X149688000Y-79128000D03*
X149688000Y-76588000D03*
D24*
X149688000Y-55016800D03*
X149688000Y-58216800D03*
X144688000Y-55016800D03*
X144688000Y-58216800D03*
D25*
X179688000Y-61338000D03*
X177188000Y-61338000D03*
X174688000Y-61338000D03*
D26*
X183838000Y-43838000D03*
X183838000Y-59338000D03*
X170538000Y-59338000D03*
X170538000Y-43838000D03*
D25*
X167438000Y-49088000D03*
X167438000Y-51608076D03*
X167438000Y-54088000D03*
X114688000Y-41838000D03*
X117188000Y-41838000D03*
X119688000Y-41838000D03*
D26*
X110538000Y-59338000D03*
X110538000Y-43838000D03*
X123838000Y-43838000D03*
X123838000Y-59338000D03*
D25*
X126938000Y-54088000D03*
X126938000Y-51567924D03*
X126938000Y-49088000D03*
D11*
X124188000Y-85588000D03*
D27*
X131061308Y-102407279D03*
X165688000Y-88588000D03*
X130688000Y-107088000D03*
X128838000Y-97038000D03*
X128838000Y-98338000D03*
X127538000Y-98338000D03*
X127538000Y-97038000D03*
X114188000Y-106088000D03*
X165188000Y-101088000D03*
X156688000Y-94588000D03*
X159188000Y-92588000D03*
X167188000Y-84588000D03*
X122188000Y-82588000D03*
X119688000Y-78588000D03*
X125188000Y-96588000D03*
X163688000Y-105088000D03*
X141688000Y-104588000D03*
X159688000Y-105588000D03*
X132688000Y-105088000D03*
X167533348Y-85965594D03*
X140188000Y-70188000D03*
X160088000Y-70488000D03*
X141688000Y-57938000D03*
X131538000Y-58688000D03*
X131538000Y-74588000D03*
X164938000Y-91938000D03*
X136458000Y-74588000D03*
X127942698Y-101388000D03*
X123488000Y-104388000D03*
X119738000Y-85388000D03*
X141388000Y-103738000D03*
X155666930Y-74676514D03*
X157575401Y-71065599D03*
X173796104Y-90438000D03*
X157961771Y-91321298D03*
X179192052Y-95833948D03*
X184038000Y-90188000D03*
X183188000Y-95838000D03*
X181088000Y-88788000D03*
X180738000Y-94438000D03*
X133438000Y-91688000D03*
X133438000Y-96188000D03*
X141010408Y-106006492D03*
X158188000Y-106333310D03*
X165038000Y-93588000D03*
X146708948Y-91567052D03*
X179938000Y-100538000D03*
X173688000Y-89488000D03*
X156588000Y-91638000D03*
X182288000Y-100588000D03*
X152488000Y-74388000D03*
X153988000Y-74788000D03*
X157064280Y-90455722D03*
X175488000Y-89888000D03*
X184838000Y-100588000D03*
X141388000Y-74738000D03*
X156388000Y-85938000D03*
X159236891Y-87666836D03*
X159159015Y-85240279D03*
X157615992Y-84997091D03*
X142888000Y-74688000D03*
X155534523Y-77674758D03*
X145638000Y-75138000D03*
X155853322Y-76899538D03*
X146688000Y-74538000D03*
X155889845Y-76062122D03*
X149238000Y-74588000D03*
X151588000Y-74938000D03*
X156388000Y-75388000D03*
X157390833Y-74517888D03*
X154056517Y-79768635D03*
X141238000Y-92538000D03*
X149338000Y-84038000D03*
X129388000Y-94638000D03*
X133638000Y-102488000D03*
X136938000Y-100988000D03*
X128538000Y-94638000D03*
X153648370Y-91159037D03*
X177086992Y-76233888D03*
X149438000Y-59738000D03*
X143238000Y-65788000D03*
X140988000Y-94388000D03*
X145638000Y-91438000D03*
X168588000Y-110038000D03*
X159388000Y-86476225D03*
X157488000Y-86188000D03*
X147288000Y-86588000D03*
X158442690Y-90129058D03*
X155988331Y-93233641D03*
X141557909Y-88215068D03*
X121088000Y-79338000D03*
X129538000Y-83688000D03*
X120688000Y-77088000D03*
X158988000Y-94488000D03*
X141738000Y-87088000D03*
X133088000Y-82938000D03*
X169938000Y-100538000D03*
X169438000Y-101338000D03*
X168819601Y-99745739D03*
X168138000Y-98138000D03*
X119494106Y-111394106D03*
X125283627Y-100062993D03*
X124714150Y-99355207D03*
X118881894Y-110781894D03*
D28*
X130868721Y-102407279D02*
X131061308Y-102407279D01*
X130688000Y-102588000D02*
X130868721Y-102407279D01*
X130688000Y-107088000D02*
X130688000Y-102588000D01*
X114188000Y-106088000D02*
X114188000Y-108463000D01*
X114188000Y-108463000D02*
X114213000Y-108488000D01*
X162188000Y-85488000D02*
X166288000Y-85488000D01*
X166288000Y-85488000D02*
X167188000Y-84588000D01*
D29*
X150470847Y-105040401D02*
X153905153Y-105040401D01*
X150018446Y-104588000D02*
X150470847Y-105040401D01*
X141688000Y-104588000D02*
X150018446Y-104588000D01*
X163188000Y-104588000D02*
X163688000Y-105088000D01*
X153905153Y-105040401D02*
X154357554Y-104588000D01*
X154357554Y-104588000D02*
X163188000Y-104588000D01*
D28*
X159203067Y-105588000D02*
X159688000Y-105588000D01*
X154579554Y-105588000D02*
X159203067Y-105588000D01*
X141330255Y-105333301D02*
X149541747Y-105333301D01*
X149541747Y-105333301D02*
X150398847Y-106190401D01*
X150398847Y-106190401D02*
X153977153Y-106190401D01*
X153977153Y-106190401D02*
X154579554Y-105588000D01*
X141084954Y-105088000D02*
X141330255Y-105333301D01*
X132688000Y-105088000D02*
X141084954Y-105088000D01*
X167210942Y-86288000D02*
X167533348Y-85965594D01*
X162188000Y-86288000D02*
X167210942Y-86288000D01*
X139688000Y-57588000D02*
X141338000Y-57588000D01*
X141338000Y-57588000D02*
X141688000Y-57938000D01*
X160088000Y-70488000D02*
X159745101Y-70145101D01*
X159745101Y-70145101D02*
X140230899Y-70145101D01*
X140230899Y-70145101D02*
X140188000Y-70188000D01*
X144688000Y-58216800D02*
X141966800Y-58216800D01*
X141966800Y-58216800D02*
X141688000Y-57938000D01*
X126938000Y-54088000D02*
X131538000Y-58688000D01*
X131538000Y-58688000D02*
X131538000Y-74588000D01*
X114688000Y-41838000D02*
X126938000Y-54088000D01*
X179688000Y-61338000D02*
X167438000Y-49088000D01*
X164938000Y-91938000D02*
X162238000Y-91938000D01*
X162238000Y-91938000D02*
X162188000Y-91888000D01*
X142068000Y-76588000D02*
X144608000Y-79128000D01*
X142068000Y-76588000D02*
X138458000Y-76588000D01*
X138458000Y-76588000D02*
X136458000Y-74588000D01*
D29*
X123488000Y-104388000D02*
X126488000Y-101388000D01*
X126488000Y-101388000D02*
X127942698Y-101388000D01*
X133460942Y-90488000D02*
X124838000Y-90488000D01*
X124838000Y-90488000D02*
X119738000Y-85388000D01*
X137488000Y-99838000D02*
X137488000Y-94515058D01*
X137488000Y-94515058D02*
X133460942Y-90488000D01*
X141388000Y-103738000D02*
X137488000Y-99838000D01*
X158446704Y-91321298D02*
X157961771Y-91321298D01*
X158862605Y-91321298D02*
X158446704Y-91321298D01*
X159895903Y-90288000D02*
X158862605Y-91321298D01*
X162188000Y-90288000D02*
X159895903Y-90288000D01*
X156009829Y-74333615D02*
X155666930Y-74676514D01*
X157575401Y-71065599D02*
X157575401Y-72768043D01*
X157575401Y-72768043D02*
X156009829Y-74333615D01*
X173646104Y-90288000D02*
X173796104Y-90438000D01*
X173796104Y-90438000D02*
X178849153Y-95491049D01*
X162188000Y-90288000D02*
X173646104Y-90288000D01*
X178849153Y-95491049D02*
X179192052Y-95833948D01*
X184388000Y-94638000D02*
X184388000Y-90538000D01*
X184388000Y-90538000D02*
X184038000Y-90188000D01*
X183188000Y-95838000D02*
X184388000Y-94638000D01*
X180738000Y-94438000D02*
X181088000Y-94088000D01*
X181088000Y-94088000D02*
X181088000Y-88788000D01*
X184188000Y-68088000D02*
X183138000Y-68088000D01*
X183138000Y-68088000D02*
X182750401Y-67700401D01*
X182750401Y-67700401D02*
X182750401Y-65018847D01*
X182750401Y-65018847D02*
X180210955Y-62479401D01*
X180210955Y-62479401D02*
X179179401Y-62479401D01*
X179179401Y-62479401D02*
X178329401Y-61629401D01*
X178329401Y-61629401D02*
X178329401Y-60790127D01*
X168695235Y-51608076D02*
X167438000Y-51608076D01*
X178329401Y-60790127D02*
X169147350Y-51608076D01*
X169147350Y-51608076D02*
X168695235Y-51608076D01*
X180798001Y-67238001D02*
X181648000Y-68088000D01*
X180545599Y-66985599D02*
X180798001Y-67238001D01*
X180545599Y-65354045D02*
X180545599Y-66985599D01*
X179637153Y-64445599D02*
X180545599Y-65354045D01*
X139815675Y-64445599D02*
X179637153Y-64445599D01*
X126938000Y-51567924D02*
X139815675Y-64445599D01*
X181648000Y-65548000D02*
X178579401Y-62479401D01*
X178579401Y-62479401D02*
X142018675Y-62479401D01*
X142018675Y-62479401D02*
X124899675Y-45360401D01*
X124899675Y-45360401D02*
X120710401Y-45360401D01*
X120710401Y-45360401D02*
X118076999Y-42726999D01*
X118076999Y-42726999D02*
X117188000Y-41838000D01*
X133438000Y-96188000D02*
X133438000Y-91688000D01*
X141353307Y-106349391D02*
X141010408Y-106006492D01*
X141696727Y-106692811D02*
X141353307Y-106349391D01*
X158188000Y-106333310D02*
X157828499Y-106692811D01*
X157828499Y-106692811D02*
X141696727Y-106692811D01*
X162188000Y-92688000D02*
X163988000Y-92688000D01*
X163988000Y-92688000D02*
X164888000Y-93588000D01*
X164888000Y-93588000D02*
X165038000Y-93588000D01*
X147051847Y-91909951D02*
X146708948Y-91567052D01*
X158329896Y-103188000D02*
X147051847Y-91909951D01*
X177288000Y-103188000D02*
X158329896Y-103188000D01*
X179938000Y-100538000D02*
X177288000Y-103188000D01*
X162188000Y-89488000D02*
X160388000Y-89488000D01*
X158961160Y-90724359D02*
X157716814Y-90724359D01*
X156930899Y-91295101D02*
X156588000Y-91638000D01*
X157146072Y-91295101D02*
X156930899Y-91295101D01*
X159797519Y-89888000D02*
X158961160Y-90724359D01*
X157716814Y-90724359D02*
X157146072Y-91295101D01*
X159988000Y-89888000D02*
X159797519Y-89888000D01*
X160388000Y-89488000D02*
X159988000Y-89888000D01*
X173688000Y-89488000D02*
X182288000Y-98088000D01*
X182288000Y-98088000D02*
X182288000Y-100588000D01*
X162188000Y-89488000D02*
X173688000Y-89488000D01*
X157407179Y-90112823D02*
X157064280Y-90455722D01*
X158440287Y-89079715D02*
X157407179Y-90112823D01*
X168128650Y-86251340D02*
X168128650Y-84647602D01*
X167387291Y-86992699D02*
X168128650Y-86251340D01*
X158440287Y-85517733D02*
X158440287Y-89079715D01*
X164826315Y-87335713D02*
X172935713Y-87335713D01*
X158563714Y-84954534D02*
X158563713Y-85394307D01*
X159525550Y-83992698D02*
X158563714Y-84954534D01*
X167473746Y-83992698D02*
X159525550Y-83992698D01*
X168128650Y-84647602D02*
X167473746Y-83992698D01*
X164483301Y-86992699D02*
X167387291Y-86992699D01*
X164483301Y-86992699D02*
X164826315Y-87335713D01*
X175145101Y-89545101D02*
X175488000Y-89888000D01*
X172935713Y-87335713D02*
X175145101Y-89545101D01*
X158563713Y-85394307D02*
X158440287Y-85517733D01*
X164388000Y-87088000D02*
X164483301Y-86992699D01*
X162188000Y-87088000D02*
X164388000Y-87088000D01*
X153988000Y-74788000D02*
X152888000Y-74788000D01*
X152888000Y-74788000D02*
X152488000Y-74388000D01*
X175488000Y-89888000D02*
X175488000Y-90372933D01*
X180548368Y-95433301D02*
X181033301Y-95433301D01*
X181033301Y-95433301D02*
X184838000Y-99238000D01*
X184838000Y-100103067D02*
X184838000Y-100588000D01*
X175488000Y-90372933D02*
X180548368Y-95433301D01*
X184838000Y-99238000D02*
X184838000Y-100103067D01*
X151838000Y-81388000D02*
X147906686Y-81388000D01*
X147906686Y-81388000D02*
X146133599Y-79614913D01*
X144752401Y-77602401D02*
X144121087Y-77602401D01*
X146133599Y-79614913D02*
X146133599Y-78983599D01*
X146133599Y-78983599D02*
X144752401Y-77602401D01*
X143593599Y-76612285D02*
X141719314Y-74738000D01*
X144121087Y-77602401D02*
X143593599Y-77074913D01*
X143593599Y-77074913D02*
X143593599Y-76612285D01*
X141719314Y-74738000D02*
X141388000Y-74738000D01*
X156388000Y-85938000D02*
X151838000Y-81388000D01*
X159159015Y-85240279D02*
X159159015Y-85725212D01*
X158893992Y-87323937D02*
X159236891Y-87666836D01*
X159159015Y-85725212D02*
X158792698Y-86091529D01*
X158792698Y-87222643D02*
X158893992Y-87323937D01*
X158792698Y-86091529D02*
X158792698Y-87222643D01*
X157273093Y-84654192D02*
X157615992Y-84997091D01*
X145622401Y-77422401D02*
X146313599Y-78113599D01*
X142888000Y-74688000D02*
X144209314Y-74688000D01*
X145622401Y-76101087D02*
X145622401Y-77422401D01*
X144209314Y-74688000D02*
X145622401Y-76101087D01*
X150732500Y-78113599D02*
X157273093Y-84654192D01*
X146313599Y-78113599D02*
X150732500Y-78113599D01*
X146035713Y-75535713D02*
X150307895Y-75535713D01*
X145638000Y-75138000D02*
X146035713Y-75535713D01*
X155049590Y-77674758D02*
X155534523Y-77674758D01*
X150307895Y-75535713D02*
X152446940Y-77674758D01*
X152446940Y-77674758D02*
X155049590Y-77674758D01*
X155368389Y-76899538D02*
X155853322Y-76899538D01*
X152170106Y-76899538D02*
X155368389Y-76899538D01*
X150453870Y-75183302D02*
X152170106Y-76899538D01*
X147333302Y-75183302D02*
X150453870Y-75183302D01*
X146688000Y-74538000D02*
X147333302Y-75183302D01*
X150356952Y-74588000D02*
X151831074Y-76062122D01*
X151831074Y-76062122D02*
X155404912Y-76062122D01*
X155404912Y-76062122D02*
X155889845Y-76062122D01*
X149238000Y-74588000D02*
X150356952Y-74588000D01*
X152038000Y-75388000D02*
X151930899Y-75280899D01*
X156388000Y-75388000D02*
X152038000Y-75388000D01*
X151930899Y-75280899D02*
X151588000Y-74938000D01*
X140895101Y-92195101D02*
X141238000Y-92538000D01*
X140895101Y-87049853D02*
X140895101Y-92195101D01*
X143906954Y-84038000D02*
X140895101Y-87049853D01*
X149338000Y-84038000D02*
X143906954Y-84038000D01*
X154056517Y-79768635D02*
X154541450Y-79768635D01*
X154541450Y-79768635D02*
X157390833Y-76919252D01*
X157390833Y-75002821D02*
X157390833Y-74517888D01*
X157390833Y-76919252D02*
X157390833Y-75002821D01*
X129730899Y-94980899D02*
X129388000Y-94638000D01*
X133638000Y-98888000D02*
X129730899Y-94980899D01*
X133638000Y-102488000D02*
X133638000Y-98888000D01*
X129788000Y-93888000D02*
X136888000Y-100988000D01*
X136888000Y-100988000D02*
X136938000Y-100988000D01*
X128803067Y-93888000D02*
X129788000Y-93888000D01*
X128538000Y-94638000D02*
X128538000Y-94153067D01*
X128538000Y-94153067D02*
X128803067Y-93888000D01*
X153991269Y-90816138D02*
X153648370Y-91159037D01*
X158087876Y-86719531D02*
X153991269Y-90816138D01*
X177086992Y-76233888D02*
X166785976Y-76233888D01*
X158087876Y-85371760D02*
X158087876Y-86719531D01*
X158211302Y-85248334D02*
X158087876Y-85371760D01*
X158211302Y-84865670D02*
X158211302Y-85248334D01*
X158211304Y-84808562D02*
X158211302Y-84865670D01*
X166785976Y-76233888D02*
X158211304Y-84808562D01*
X149438000Y-59738000D02*
X149438000Y-58466800D01*
X149438000Y-58466800D02*
X149688000Y-58216800D01*
X134638000Y-88522933D02*
X134638000Y-74388000D01*
X134638000Y-74388000D02*
X143238000Y-65788000D01*
X140988000Y-94388000D02*
X140503067Y-94388000D01*
X140503067Y-94388000D02*
X134638000Y-88522933D01*
X158435589Y-104235589D02*
X145980899Y-91780899D01*
X168588000Y-110038000D02*
X168588000Y-109106952D01*
X163716637Y-104235589D02*
X158435589Y-104235589D01*
X145980899Y-91780899D02*
X145638000Y-91438000D01*
X168588000Y-109106952D02*
X163716637Y-104235589D01*
X162188000Y-87888000D02*
X160388000Y-87888000D01*
X160388000Y-87888000D02*
X159388000Y-86888000D01*
X159388000Y-86888000D02*
X159388000Y-86476225D01*
X147288000Y-86588000D02*
X157088000Y-86588000D01*
X157088000Y-86588000D02*
X157488000Y-86188000D01*
X159883748Y-88688000D02*
X158785589Y-89786159D01*
X158785589Y-89786159D02*
X158442690Y-90129058D01*
X162188000Y-88688000D02*
X159883748Y-88688000D01*
X155503398Y-93233641D02*
X155988331Y-93233641D01*
X141557909Y-88215068D02*
X149266684Y-88215068D01*
X154285257Y-93233641D02*
X155503398Y-93233641D01*
X149266684Y-88215068D02*
X154285257Y-93233641D01*
X125438000Y-83688000D02*
X121430899Y-79680899D01*
X121430899Y-79680899D02*
X121088000Y-79338000D01*
X129538000Y-83688000D02*
X125438000Y-83688000D01*
X121362175Y-77762175D02*
X120688000Y-77088000D01*
X121362175Y-77977434D02*
X121362175Y-77762175D01*
X121362175Y-77977434D02*
X126272741Y-82888000D01*
X126272741Y-82888000D02*
X133038000Y-82888000D01*
X133038000Y-82888000D02*
X133088000Y-82938000D01*
X142222933Y-87088000D02*
X141738000Y-87088000D01*
X153053069Y-91403069D02*
X148833301Y-87183301D01*
X158503067Y-94488000D02*
X155769405Y-91754338D01*
X158988000Y-94488000D02*
X158503067Y-94488000D01*
X153362625Y-91754338D02*
X153053069Y-91444782D01*
X153053069Y-91444782D02*
X153053069Y-91403069D01*
X147002255Y-87183301D02*
X146906954Y-87088000D01*
X155769405Y-91754338D02*
X153362625Y-91754338D01*
X148833301Y-87183301D02*
X147002255Y-87183301D01*
X146906954Y-87088000D02*
X142222933Y-87088000D01*
X169338000Y-98188000D02*
X167838000Y-96688000D01*
X167838000Y-96688000D02*
X162188000Y-96688000D01*
X169338000Y-99453067D02*
X169338000Y-98188000D01*
X169938000Y-100538000D02*
X169938000Y-100053067D01*
X169938000Y-100053067D02*
X169338000Y-99453067D01*
X162188000Y-99088000D02*
X167188000Y-99088000D01*
X167188000Y-99088000D02*
X169438000Y-101338000D01*
X168476702Y-99402840D02*
X168819601Y-99745739D01*
X167361862Y-98288000D02*
X168476702Y-99402840D01*
X162188000Y-98288000D02*
X167361862Y-98288000D01*
X168138000Y-98138000D02*
X167488000Y-97488000D01*
X167488000Y-97488000D02*
X162188000Y-97488000D01*
D30*
X124906457Y-100062993D02*
X119662288Y-105307162D01*
X119494106Y-111016936D02*
X119494106Y-111394106D01*
X119662288Y-105307162D02*
X119662288Y-110848754D01*
X125283627Y-100062993D02*
X124906457Y-100062993D01*
X119662288Y-110848754D02*
X119494106Y-111016936D01*
X119216935Y-109853450D02*
X119160054Y-109817709D01*
X119029888Y-109788000D02*
X118983691Y-109788000D01*
X124371251Y-99698106D02*
X124714150Y-99355207D01*
X119329888Y-108888000D02*
X119329888Y-104739469D01*
X119322367Y-108954756D02*
X119329888Y-108888000D01*
X119300179Y-109018165D02*
X119322367Y-108954756D01*
X118853526Y-109758290D02*
X118796645Y-109722549D01*
X119216935Y-109122549D02*
X119264438Y-109075046D01*
X119264438Y-109075046D02*
X119300179Y-109018165D01*
X119096645Y-109180478D02*
X119160054Y-109158290D01*
X118713401Y-109357834D02*
X118749142Y-109300953D01*
X118796645Y-109253450D02*
X118853526Y-109217709D01*
X119029888Y-109188000D02*
X119096645Y-109180478D01*
X118683691Y-109488000D02*
X118691213Y-109421243D01*
X118691213Y-109421243D02*
X118713401Y-109357834D01*
X118983691Y-109188000D02*
X119029888Y-109188000D01*
X118691213Y-109554756D02*
X118683691Y-109488000D01*
X118749142Y-109675046D02*
X118713401Y-109618165D01*
X118749142Y-109300953D02*
X118796645Y-109253450D01*
X118916935Y-109195521D02*
X118983691Y-109188000D01*
X118796645Y-109722549D02*
X118749142Y-109675046D01*
X118916935Y-109780478D02*
X118853526Y-109758290D01*
X119096645Y-109795521D02*
X119029888Y-109788000D01*
X119160054Y-109817709D02*
X119096645Y-109795521D01*
X119160054Y-109158290D02*
X119216935Y-109122549D01*
X119322367Y-110021243D02*
X119300179Y-109957834D01*
X119300179Y-109957834D02*
X119264438Y-109900953D01*
X119322367Y-110341421D02*
X119322367Y-110021243D01*
X119329888Y-104739469D02*
X124371251Y-99698106D01*
X118881894Y-110781894D02*
X119322367Y-110341421D01*
X118983691Y-109788000D02*
X118916935Y-109780478D01*
X118853526Y-109217709D02*
X118916935Y-109195521D01*
X118713401Y-109618165D02*
X118691213Y-109554756D01*
X119264438Y-109900953D02*
X119216935Y-109853450D01*
D31*
G36*
X143251000Y-41302250D02*
X143409750Y-41461000D01*
X144521000Y-41461000D01*
X144521000Y-41441000D01*
X144775000Y-41441000D01*
X144775000Y-41461000D01*
X145886250Y-41461000D01*
X146045000Y-41302250D01*
X146045000Y-39539281D01*
X148331000Y-39539281D01*
X148331000Y-41302250D01*
X148489750Y-41461000D01*
X149601000Y-41461000D01*
X149601000Y-41441000D01*
X149855000Y-41441000D01*
X149855000Y-41461000D01*
X150966250Y-41461000D01*
X151125000Y-41302250D01*
X151125000Y-39539281D01*
X182143552Y-39539281D01*
X183925337Y-39893700D01*
X185398180Y-40877823D01*
X186382300Y-42350664D01*
X186736719Y-44132448D01*
X186736719Y-109043552D01*
X186382300Y-110825336D01*
X185398180Y-112298177D01*
X183925337Y-113282300D01*
X182143552Y-113636719D01*
X161815000Y-113636719D01*
X161815000Y-107338000D01*
X161806315Y-107291841D01*
X161779035Y-107249447D01*
X161737410Y-107221006D01*
X161688000Y-107211000D01*
X143188000Y-107211000D01*
X143141841Y-107219685D01*
X143099447Y-107246965D01*
X143071006Y-107288590D01*
X143061000Y-107338000D01*
X143061000Y-113636719D01*
X122429992Y-113636719D01*
X122578796Y-113558402D01*
X122882293Y-113193380D01*
X123023000Y-112740000D01*
X123023000Y-112415000D01*
X121940000Y-112415000D01*
X121940000Y-112435000D01*
X121686000Y-112435000D01*
X121686000Y-112415000D01*
X120603000Y-112415000D01*
X120603000Y-112740000D01*
X120743707Y-113193380D01*
X121047204Y-113558402D01*
X121196008Y-113636719D01*
X114679992Y-113636719D01*
X114828796Y-113558402D01*
X115132293Y-113193380D01*
X115273000Y-112740000D01*
X115273000Y-112415000D01*
X114190000Y-112415000D01*
X114190000Y-112435000D01*
X113936000Y-112435000D01*
X113936000Y-112415000D01*
X112853000Y-112415000D01*
X112853000Y-112740000D01*
X112993707Y-113193380D01*
X113297204Y-113558402D01*
X113446008Y-113636719D01*
X112232448Y-113636719D01*
X110450664Y-113282300D01*
X108977823Y-112298180D01*
X108669004Y-111836000D01*
X112853000Y-111836000D01*
X112853000Y-112161000D01*
X113936000Y-112161000D01*
X113936000Y-110919450D01*
X114190000Y-110919450D01*
X114190000Y-112161000D01*
X115273000Y-112161000D01*
X115273000Y-111836000D01*
X115132293Y-111382620D01*
X114828796Y-111017598D01*
X114651566Y-110924320D01*
X118162588Y-110924320D01*
X118271846Y-111188745D01*
X118473979Y-111391231D01*
X118738212Y-111500950D01*
X118774831Y-111500982D01*
X118774800Y-111536532D01*
X118884058Y-111800957D01*
X119086191Y-112003443D01*
X119350424Y-112113162D01*
X119636532Y-112113412D01*
X119900957Y-112004154D01*
X120069404Y-111836000D01*
X120603000Y-111836000D01*
X120603000Y-112161000D01*
X121686000Y-112161000D01*
X121686000Y-110919450D01*
X121940000Y-110919450D01*
X121940000Y-112161000D01*
X123023000Y-112161000D01*
X123023000Y-111836000D01*
X122882293Y-111382620D01*
X122578796Y-111017598D01*
X122158714Y-110796505D01*
X122126677Y-110794365D01*
X121940000Y-110919450D01*
X121686000Y-110919450D01*
X121499323Y-110794365D01*
X121467286Y-110796505D01*
X121047204Y-111017598D01*
X120743707Y-111382620D01*
X120603000Y-111836000D01*
X120069404Y-111836000D01*
X120103443Y-111802021D01*
X120213162Y-111537788D01*
X120213412Y-111251680D01*
X120104154Y-110987255D01*
X120090033Y-110973109D01*
X120099488Y-110925576D01*
X120114769Y-110848754D01*
X120114769Y-110247871D01*
X120125722Y-110255190D01*
X120422792Y-110314281D01*
X120453208Y-110314281D01*
X120750278Y-110255190D01*
X121002122Y-110086914D01*
X121079808Y-109970648D01*
X121259884Y-110068076D01*
X121325742Y-110080519D01*
X121536000Y-109957518D01*
X121536000Y-108615000D01*
X121790000Y-108615000D01*
X121790000Y-109957518D01*
X122000258Y-110080519D01*
X122066116Y-110068076D01*
X122534862Y-109814467D01*
X122870875Y-109400782D01*
X123023000Y-108890000D01*
X123023000Y-108615000D01*
X121790000Y-108615000D01*
X121536000Y-108615000D01*
X120303000Y-108615000D01*
X120303000Y-108785547D01*
X120125722Y-108820810D01*
X120114769Y-108828129D01*
X120114769Y-108086000D01*
X120303000Y-108086000D01*
X120303000Y-108361000D01*
X121536000Y-108361000D01*
X121536000Y-107018482D01*
X121790000Y-107018482D01*
X121790000Y-108361000D01*
X123023000Y-108361000D01*
X123023000Y-108086000D01*
X122870875Y-107575218D01*
X122534862Y-107161533D01*
X122066116Y-106907924D01*
X122000258Y-106895481D01*
X121790000Y-107018482D01*
X121536000Y-107018482D01*
X121325742Y-106895481D01*
X121259884Y-106907924D01*
X120791138Y-107161533D01*
X120455125Y-107575218D01*
X120303000Y-108086000D01*
X120114769Y-108086000D01*
X120114769Y-105494585D01*
X121078928Y-104530426D01*
X122768694Y-104530426D01*
X122877952Y-104794851D01*
X123080085Y-104997337D01*
X123344318Y-105107056D01*
X123630426Y-105107306D01*
X123894851Y-104998048D01*
X124097337Y-104795915D01*
X124207056Y-104531682D01*
X124207221Y-104342342D01*
X126685282Y-101864281D01*
X127401959Y-101864281D01*
X127534783Y-101997337D01*
X127799016Y-102107056D01*
X128085124Y-102107306D01*
X128349549Y-101998048D01*
X128552035Y-101795915D01*
X128661754Y-101531682D01*
X128662004Y-101245574D01*
X128552746Y-100981149D01*
X128350613Y-100778663D01*
X128086380Y-100668944D01*
X127800272Y-100668694D01*
X127535847Y-100777952D01*
X127401846Y-100911719D01*
X126488005Y-100911719D01*
X126488000Y-100911718D01*
X126335976Y-100941959D01*
X126305735Y-100947974D01*
X126151218Y-101051218D01*
X126151216Y-101051221D01*
X123533578Y-103668858D01*
X123345574Y-103668694D01*
X123081149Y-103777952D01*
X122878663Y-103980085D01*
X122768944Y-104244318D01*
X122768694Y-104530426D01*
X121078928Y-104530426D01*
X124919035Y-100690319D01*
X125139945Y-100782049D01*
X125426053Y-100782299D01*
X125690478Y-100673041D01*
X125892964Y-100470908D01*
X126002683Y-100206675D01*
X126002933Y-99920567D01*
X125893675Y-99656142D01*
X125691542Y-99453656D01*
X125433339Y-99346441D01*
X125433456Y-99212781D01*
X125324198Y-98948356D01*
X125122065Y-98745870D01*
X124857832Y-98636151D01*
X124571724Y-98635901D01*
X124307299Y-98745159D01*
X124104813Y-98947292D01*
X123995094Y-99211525D01*
X123994899Y-99434554D01*
X119009936Y-104419517D01*
X118911850Y-104566312D01*
X118877407Y-104739469D01*
X118877407Y-108744631D01*
X118866277Y-108745885D01*
X118817835Y-108761324D01*
X118767489Y-108768432D01*
X118704080Y-108790620D01*
X118660291Y-108816451D01*
X118612790Y-108834583D01*
X118555909Y-108870324D01*
X118518964Y-108905252D01*
X118476692Y-108933498D01*
X118429190Y-108981001D01*
X118400946Y-109023271D01*
X118366016Y-109060217D01*
X118330275Y-109117098D01*
X118312143Y-109164599D01*
X118286312Y-109208388D01*
X118264124Y-109271797D01*
X118257017Y-109322139D01*
X118241577Y-109370580D01*
X118234055Y-109437336D01*
X118238328Y-109487998D01*
X118234055Y-109538664D01*
X118241577Y-109605420D01*
X118257017Y-109653862D01*
X118264124Y-109704202D01*
X118286312Y-109767611D01*
X118312143Y-109811400D01*
X118330275Y-109858901D01*
X118366016Y-109915782D01*
X118400946Y-109952728D01*
X118429190Y-109994998D01*
X118476692Y-110042501D01*
X118518964Y-110070747D01*
X118555909Y-110105675D01*
X118587360Y-110125437D01*
X118475043Y-110171846D01*
X118272557Y-110373979D01*
X118162838Y-110638212D01*
X118162588Y-110924320D01*
X114651566Y-110924320D01*
X114408714Y-110796505D01*
X114376677Y-110794365D01*
X114190000Y-110919450D01*
X113936000Y-110919450D01*
X113749323Y-110794365D01*
X113717286Y-110796505D01*
X113297204Y-111017598D01*
X112993707Y-111382620D01*
X112853000Y-111836000D01*
X108669004Y-111836000D01*
X107993700Y-110825337D01*
X107639281Y-109043552D01*
X107639281Y-108615000D01*
X112853000Y-108615000D01*
X112853000Y-108890000D01*
X113005125Y-109400782D01*
X113341138Y-109814467D01*
X113809884Y-110068076D01*
X113875742Y-110080519D01*
X114086000Y-109957518D01*
X114086000Y-108615000D01*
X114340000Y-108615000D01*
X114340000Y-109957518D01*
X114550258Y-110080519D01*
X114616116Y-110068076D01*
X114796192Y-109970648D01*
X114873878Y-110086914D01*
X115125722Y-110255190D01*
X115422792Y-110314281D01*
X115453208Y-110314281D01*
X115750278Y-110255190D01*
X116002122Y-110086914D01*
X116170398Y-109835070D01*
X116229489Y-109538000D01*
X116170398Y-109240930D01*
X116002122Y-108989086D01*
X115750278Y-108820810D01*
X115573000Y-108785547D01*
X115573000Y-108615000D01*
X114340000Y-108615000D01*
X114086000Y-108615000D01*
X112853000Y-108615000D01*
X107639281Y-108615000D01*
X107639281Y-108086000D01*
X112853000Y-108086000D01*
X112853000Y-108361000D01*
X114086000Y-108361000D01*
X114086000Y-107018482D01*
X114340000Y-107018482D01*
X114340000Y-108361000D01*
X115573000Y-108361000D01*
X115573000Y-108086000D01*
X115420875Y-107575218D01*
X115084862Y-107161533D01*
X114616116Y-106907924D01*
X114550258Y-106895481D01*
X114340000Y-107018482D01*
X114086000Y-107018482D01*
X113875742Y-106895481D01*
X113809884Y-106907924D01*
X113341138Y-107161533D01*
X113005125Y-107575218D01*
X112853000Y-108086000D01*
X107639281Y-108086000D01*
X107639281Y-85530426D01*
X119018694Y-85530426D01*
X119127952Y-85794851D01*
X119330085Y-85997337D01*
X119594318Y-86107056D01*
X119783658Y-86107221D01*
X124501216Y-90824779D01*
X124501218Y-90824782D01*
X124641769Y-90918694D01*
X124655735Y-90928026D01*
X124838000Y-90964282D01*
X124838005Y-90964281D01*
X133263659Y-90964281D01*
X133276113Y-90976735D01*
X133031149Y-91077952D01*
X132828663Y-91280085D01*
X132718944Y-91544318D01*
X132718694Y-91830426D01*
X132827952Y-92094851D01*
X132961719Y-92228852D01*
X132961719Y-95647261D01*
X132828663Y-95780085D01*
X132718944Y-96044318D01*
X132718856Y-96145292D01*
X130124782Y-93551218D01*
X129970265Y-93447974D01*
X129788000Y-93411718D01*
X129787995Y-93411719D01*
X128803067Y-93411719D01*
X128620802Y-93447974D01*
X128466285Y-93551218D01*
X128466283Y-93551221D01*
X128201218Y-93816285D01*
X128097974Y-93970802D01*
X128075569Y-94083435D01*
X127928663Y-94230085D01*
X127818944Y-94494318D01*
X127818694Y-94780426D01*
X127927952Y-95044851D01*
X128130085Y-95247337D01*
X128394318Y-95357056D01*
X128680426Y-95357306D01*
X128944851Y-95248048D01*
X128962854Y-95230076D01*
X128980085Y-95247337D01*
X129244318Y-95357056D01*
X129433657Y-95357221D01*
X133161719Y-99085282D01*
X133161719Y-101947261D01*
X133028663Y-102080085D01*
X132918944Y-102344318D01*
X132918694Y-102630426D01*
X133027952Y-102894851D01*
X133230085Y-103097337D01*
X133494318Y-103207056D01*
X133780426Y-103207306D01*
X134044851Y-103098048D01*
X134247337Y-102895915D01*
X134357056Y-102631682D01*
X134357306Y-102345574D01*
X134248048Y-102081149D01*
X134114281Y-101947148D01*
X134114281Y-98888005D01*
X134114282Y-98888000D01*
X134114244Y-98887807D01*
X136218815Y-100992378D01*
X136218694Y-101130426D01*
X136327952Y-101394851D01*
X136530085Y-101597337D01*
X136794318Y-101707056D01*
X137080426Y-101707306D01*
X137344851Y-101598048D01*
X137547337Y-101395915D01*
X137657056Y-101131682D01*
X137657306Y-100845574D01*
X137548048Y-100581149D01*
X137345915Y-100378663D01*
X137081682Y-100268944D01*
X136842298Y-100268735D01*
X133480782Y-96907219D01*
X133580426Y-96907306D01*
X133844851Y-96798048D01*
X134047337Y-96595915D01*
X134157056Y-96331682D01*
X134157306Y-96045574D01*
X134048048Y-95781149D01*
X133914281Y-95647148D01*
X133914281Y-92228739D01*
X134047337Y-92095915D01*
X134149429Y-91850050D01*
X137011719Y-94712340D01*
X137011719Y-99837995D01*
X137011718Y-99838000D01*
X137047974Y-100020265D01*
X137151218Y-100174782D01*
X140668858Y-103692421D01*
X140668694Y-103880426D01*
X140777952Y-104144851D01*
X140980085Y-104347337D01*
X141004930Y-104357654D01*
X140968944Y-104444318D01*
X140968929Y-104461719D01*
X133055109Y-104461719D01*
X132831682Y-104368944D01*
X132545574Y-104368694D01*
X132281149Y-104477952D01*
X132078663Y-104680085D01*
X131968944Y-104944318D01*
X131968694Y-105230426D01*
X132077952Y-105494851D01*
X132280085Y-105697337D01*
X132544318Y-105807056D01*
X132830426Y-105807306D01*
X133055564Y-105714281D01*
X140353027Y-105714281D01*
X140291352Y-105862810D01*
X140291102Y-106148918D01*
X140400360Y-106413343D01*
X140602493Y-106615829D01*
X140866726Y-106725548D01*
X141056066Y-106725713D01*
X141359943Y-107029590D01*
X141359945Y-107029593D01*
X141514462Y-107132837D01*
X141696727Y-107169093D01*
X141696732Y-107169092D01*
X157828494Y-107169092D01*
X157828499Y-107169093D01*
X158010764Y-107132837D01*
X158131085Y-107052442D01*
X158330426Y-107052616D01*
X158594851Y-106943358D01*
X158797337Y-106741225D01*
X158907056Y-106476992D01*
X158907286Y-106214281D01*
X159320891Y-106214281D01*
X159544318Y-106307056D01*
X159830426Y-106307306D01*
X160094851Y-106198048D01*
X160297337Y-105995915D01*
X160407056Y-105731682D01*
X160407306Y-105445574D01*
X160298048Y-105181149D01*
X160181384Y-105064281D01*
X162968839Y-105064281D01*
X162968694Y-105230426D01*
X163077952Y-105494851D01*
X163280085Y-105697337D01*
X163544318Y-105807056D01*
X163830426Y-105807306D01*
X164094851Y-105698048D01*
X164297337Y-105495915D01*
X164299116Y-105491631D01*
X168111719Y-109304234D01*
X168111719Y-109497261D01*
X167978663Y-109630085D01*
X167868944Y-109894318D01*
X167868694Y-110180426D01*
X167977952Y-110444851D01*
X168180085Y-110647337D01*
X168444318Y-110757056D01*
X168730426Y-110757306D01*
X168994851Y-110648048D01*
X169197337Y-110445915D01*
X169307056Y-110181682D01*
X169307306Y-109895574D01*
X169198048Y-109631149D01*
X169064281Y-109497148D01*
X169064281Y-109106957D01*
X169064282Y-109106952D01*
X169030805Y-108938658D01*
X169028026Y-108924687D01*
X168924782Y-108770170D01*
X168924779Y-108770168D01*
X164053419Y-103898807D01*
X163898902Y-103795563D01*
X163716637Y-103759307D01*
X163716632Y-103759308D01*
X158632871Y-103759308D01*
X158537844Y-103664281D01*
X177287995Y-103664281D01*
X177288000Y-103664282D01*
X177470265Y-103628026D01*
X177624782Y-103524782D01*
X179892421Y-101257142D01*
X180080426Y-101257306D01*
X180344851Y-101148048D01*
X180547337Y-100945915D01*
X180657056Y-100681682D01*
X180657306Y-100395574D01*
X180548048Y-100131149D01*
X180345915Y-99928663D01*
X180081682Y-99818944D01*
X179795574Y-99818694D01*
X179531149Y-99927952D01*
X179328663Y-100130085D01*
X179218944Y-100394318D01*
X179218779Y-100583658D01*
X177090717Y-102711719D01*
X158527178Y-102711719D01*
X151962210Y-96146750D01*
X159553000Y-96146750D01*
X159553000Y-96214310D01*
X159649673Y-96447699D01*
X159804348Y-96602373D01*
X159804348Y-96888000D01*
X159830586Y-97027441D01*
X159869403Y-97087765D01*
X159834574Y-97138738D01*
X159804348Y-97288000D01*
X159804348Y-97688000D01*
X159830586Y-97827441D01*
X159869403Y-97887765D01*
X159834574Y-97938738D01*
X159804348Y-98088000D01*
X159804348Y-98488000D01*
X159830586Y-98627441D01*
X159869403Y-98687765D01*
X159834574Y-98738738D01*
X159804348Y-98888000D01*
X159804348Y-99288000D01*
X159830586Y-99427441D01*
X159912995Y-99555509D01*
X160038738Y-99641426D01*
X160188000Y-99671652D01*
X164188000Y-99671652D01*
X164327441Y-99645414D01*
X164453526Y-99564281D01*
X166990717Y-99564281D01*
X168718858Y-101292421D01*
X168718694Y-101480426D01*
X168827952Y-101744851D01*
X169030085Y-101947337D01*
X169294318Y-102057056D01*
X169580426Y-102057306D01*
X169844851Y-101948048D01*
X170047337Y-101745915D01*
X170157056Y-101481682D01*
X170157280Y-101225551D01*
X170344851Y-101148048D01*
X170547337Y-100945915D01*
X170657056Y-100681682D01*
X170657306Y-100395574D01*
X170548048Y-100131149D01*
X170400391Y-99983234D01*
X170378026Y-99870802D01*
X170359360Y-99842866D01*
X170274782Y-99716285D01*
X170274779Y-99716283D01*
X169814281Y-99255784D01*
X169814281Y-98188000D01*
X169778026Y-98005735D01*
X169674782Y-97851218D01*
X169674779Y-97851216D01*
X168174782Y-96351218D01*
X168020265Y-96247974D01*
X167838000Y-96211718D01*
X167837995Y-96211719D01*
X164823000Y-96211719D01*
X164823000Y-96146750D01*
X164664250Y-95988000D01*
X162315000Y-95988000D01*
X162315000Y-96035000D01*
X162061000Y-96035000D01*
X162061000Y-95988000D01*
X159711750Y-95988000D01*
X159553000Y-96146750D01*
X151962210Y-96146750D01*
X147428090Y-91612630D01*
X147428254Y-91424626D01*
X147318996Y-91160201D01*
X147116863Y-90957715D01*
X146852630Y-90847996D01*
X146566522Y-90847746D01*
X146302097Y-90957004D01*
X146237953Y-91021036D01*
X146045915Y-90828663D01*
X145781682Y-90718944D01*
X145495574Y-90718694D01*
X145231149Y-90827952D01*
X145028663Y-91030085D01*
X144918944Y-91294318D01*
X144918694Y-91580426D01*
X145027952Y-91844851D01*
X145230085Y-92047337D01*
X145494318Y-92157056D01*
X145683657Y-92157221D01*
X157638156Y-104111719D01*
X154357559Y-104111719D01*
X154357554Y-104111718D01*
X154205530Y-104141959D01*
X154175289Y-104147974D01*
X154020772Y-104251218D01*
X154020770Y-104251221D01*
X153707870Y-104564120D01*
X150668129Y-104564120D01*
X150355228Y-104251218D01*
X150200711Y-104147974D01*
X150018446Y-104111718D01*
X150018441Y-104111719D01*
X142228739Y-104111719D01*
X142095915Y-103978663D01*
X142071070Y-103968346D01*
X142107056Y-103881682D01*
X142107306Y-103595574D01*
X141998048Y-103331149D01*
X141795915Y-103128663D01*
X141531682Y-103018944D01*
X141342342Y-103018779D01*
X137964281Y-99640717D01*
X137964281Y-94515063D01*
X137964282Y-94515058D01*
X137928026Y-94332793D01*
X137909947Y-94305736D01*
X137824782Y-94178276D01*
X137824779Y-94178274D01*
X133797724Y-90151218D01*
X133643207Y-90047974D01*
X133460942Y-90011718D01*
X133460937Y-90011719D01*
X125035282Y-90011719D01*
X120457142Y-85433578D01*
X120457306Y-85245574D01*
X120348048Y-84981149D01*
X120145915Y-84778663D01*
X119881682Y-84668944D01*
X119595574Y-84668694D01*
X119331149Y-84777952D01*
X119128663Y-84980085D01*
X119018944Y-85244318D01*
X119018694Y-85530426D01*
X107639281Y-85530426D01*
X107639281Y-79088000D01*
X109804348Y-79088000D01*
X109804348Y-81088000D01*
X109830586Y-81227441D01*
X109912995Y-81355509D01*
X110038738Y-81441426D01*
X110188000Y-81471652D01*
X112188000Y-81471652D01*
X112327441Y-81445414D01*
X112455509Y-81363005D01*
X112541426Y-81237262D01*
X112571652Y-81088000D01*
X112571652Y-79088000D01*
X112545414Y-78948559D01*
X112463005Y-78820491D01*
X112337262Y-78734574D01*
X112188000Y-78704348D01*
X110188000Y-78704348D01*
X110048559Y-78730586D01*
X109920491Y-78812995D01*
X109834574Y-78938738D01*
X109804348Y-79088000D01*
X107639281Y-79088000D01*
X107639281Y-77230426D01*
X119968694Y-77230426D01*
X120077952Y-77494851D01*
X120280085Y-77697337D01*
X120544318Y-77807056D01*
X120733658Y-77807221D01*
X120885894Y-77959457D01*
X120885894Y-77977429D01*
X120885893Y-77977434D01*
X120922149Y-78159699D01*
X121025393Y-78314216D01*
X121400022Y-78688845D01*
X121231682Y-78618944D01*
X120945574Y-78618694D01*
X120681149Y-78727952D01*
X120478663Y-78930085D01*
X120368944Y-79194318D01*
X120368694Y-79480426D01*
X120477952Y-79744851D01*
X120680085Y-79947337D01*
X120944318Y-80057056D01*
X121133657Y-80057221D01*
X125101216Y-84024779D01*
X125101218Y-84024782D01*
X125255735Y-84128026D01*
X125285976Y-84134041D01*
X125438000Y-84164282D01*
X125438005Y-84164281D01*
X128997261Y-84164281D01*
X129130085Y-84297337D01*
X129394318Y-84407056D01*
X129680426Y-84407306D01*
X129944851Y-84298048D01*
X130147337Y-84095915D01*
X130257056Y-83831682D01*
X130257306Y-83545574D01*
X130182397Y-83364281D01*
X132497348Y-83364281D01*
X132680085Y-83547337D01*
X132944318Y-83657056D01*
X133230426Y-83657306D01*
X133494851Y-83548048D01*
X133697337Y-83345915D01*
X133807056Y-83081682D01*
X133807306Y-82795574D01*
X133698048Y-82531149D01*
X133495915Y-82328663D01*
X133231682Y-82218944D01*
X132945574Y-82218694D01*
X132681149Y-82327952D01*
X132597236Y-82411719D01*
X126470023Y-82411719D01*
X121838456Y-77780151D01*
X121838456Y-77762175D01*
X121802201Y-77579910D01*
X121698957Y-77425393D01*
X121698954Y-77425391D01*
X121407142Y-77133578D01*
X121407306Y-76945574D01*
X121298048Y-76681149D01*
X121095915Y-76478663D01*
X120831682Y-76368944D01*
X120545574Y-76368694D01*
X120281149Y-76477952D01*
X120078663Y-76680085D01*
X119968944Y-76944318D01*
X119968694Y-77230426D01*
X107639281Y-77230426D01*
X107639281Y-72760558D01*
X109811481Y-72760558D01*
X110020565Y-73266582D01*
X110407382Y-73654074D01*
X110913040Y-73864042D01*
X111460558Y-73864519D01*
X111966582Y-73655435D01*
X112354074Y-73268618D01*
X112564042Y-72762960D01*
X112564519Y-72215442D01*
X112355435Y-71709418D01*
X111968618Y-71321926D01*
X111462960Y-71111958D01*
X110915442Y-71111481D01*
X110409418Y-71320565D01*
X110021926Y-71707382D01*
X109811958Y-72213040D01*
X109811481Y-72760558D01*
X107639281Y-72760558D01*
X107639281Y-65238000D01*
X122454348Y-65238000D01*
X122454348Y-66938000D01*
X122480586Y-67077441D01*
X122562995Y-67205509D01*
X122688738Y-67291426D01*
X122838000Y-67321652D01*
X124538000Y-67321652D01*
X124677441Y-67295414D01*
X124805509Y-67213005D01*
X124891426Y-67087262D01*
X124921652Y-66938000D01*
X124921652Y-66063976D01*
X125001719Y-66063976D01*
X125001719Y-66112024D01*
X125095064Y-66581301D01*
X125360888Y-66979136D01*
X125758723Y-67244960D01*
X126228000Y-67338305D01*
X126697277Y-67244960D01*
X127095112Y-66979136D01*
X127360936Y-66581301D01*
X127454281Y-66112024D01*
X127454281Y-66063976D01*
X127360936Y-65594699D01*
X127095112Y-65196864D01*
X126697277Y-64931040D01*
X126228000Y-64837695D01*
X125758723Y-64931040D01*
X125360888Y-65196864D01*
X125095064Y-65594699D01*
X125001719Y-66063976D01*
X124921652Y-66063976D01*
X124921652Y-65238000D01*
X124895414Y-65098559D01*
X124813005Y-64970491D01*
X124687262Y-64884574D01*
X124538000Y-64854348D01*
X122838000Y-64854348D01*
X122698559Y-64880586D01*
X122570491Y-64962995D01*
X122484574Y-65088738D01*
X122454348Y-65238000D01*
X107639281Y-65238000D01*
X107639281Y-59664029D01*
X108891433Y-59664029D01*
X109141537Y-60269325D01*
X109604239Y-60732836D01*
X110209098Y-60983995D01*
X110864029Y-60984567D01*
X111469325Y-60734463D01*
X111932836Y-60271761D01*
X112183995Y-59666902D01*
X112183997Y-59664029D01*
X122191433Y-59664029D01*
X122441537Y-60269325D01*
X122904239Y-60732836D01*
X123509098Y-60983995D01*
X124164029Y-60984567D01*
X124769325Y-60734463D01*
X125232836Y-60271761D01*
X125483995Y-59666902D01*
X125484567Y-59011971D01*
X125234463Y-58406675D01*
X124771761Y-57943164D01*
X124166902Y-57692005D01*
X123511971Y-57691433D01*
X122906675Y-57941537D01*
X122443164Y-58404239D01*
X122192005Y-59009098D01*
X122191433Y-59664029D01*
X112183997Y-59664029D01*
X112184567Y-59011971D01*
X111934463Y-58406675D01*
X111471761Y-57943164D01*
X110866902Y-57692005D01*
X110211971Y-57691433D01*
X109606675Y-57941537D01*
X109143164Y-58404239D01*
X108892005Y-59009098D01*
X108891433Y-59664029D01*
X107639281Y-59664029D01*
X107639281Y-44164029D01*
X108891433Y-44164029D01*
X109141537Y-44769325D01*
X109604239Y-45232836D01*
X110209098Y-45483995D01*
X110864029Y-45484567D01*
X111469325Y-45234463D01*
X111932836Y-44771761D01*
X112183995Y-44166902D01*
X112184567Y-43511971D01*
X111934463Y-42906675D01*
X111471761Y-42443164D01*
X110866902Y-42192005D01*
X110211971Y-42191433D01*
X109606675Y-42441537D01*
X109143164Y-42904239D01*
X108892005Y-43509098D01*
X108891433Y-44164029D01*
X107639281Y-44164029D01*
X107639281Y-44132448D01*
X107993700Y-42350663D01*
X108168821Y-42088576D01*
X113422500Y-42088576D01*
X113614722Y-42553788D01*
X113970340Y-42910027D01*
X114435216Y-43103061D01*
X114938576Y-43103500D01*
X115030020Y-43065716D01*
X125710079Y-53745774D01*
X125672939Y-53835216D01*
X125672500Y-54338576D01*
X125864722Y-54803788D01*
X126220340Y-55160027D01*
X126685216Y-55353061D01*
X127188576Y-55353500D01*
X127280020Y-55315716D01*
X130835567Y-58871262D01*
X130911719Y-59055564D01*
X130911719Y-74220891D01*
X130818944Y-74444318D01*
X130818694Y-74730426D01*
X130927952Y-74994851D01*
X131130085Y-75197337D01*
X131394318Y-75307056D01*
X131680426Y-75307306D01*
X131944851Y-75198048D01*
X132147337Y-74995915D01*
X132257056Y-74731682D01*
X132257306Y-74445574D01*
X132233517Y-74388000D01*
X134161718Y-74388000D01*
X134161719Y-74388005D01*
X134161719Y-88522928D01*
X134161718Y-88522933D01*
X134197974Y-88705198D01*
X134301218Y-88859715D01*
X140166283Y-94724779D01*
X140166285Y-94724782D01*
X140309187Y-94820265D01*
X140320802Y-94828026D01*
X140433434Y-94850430D01*
X140580085Y-94997337D01*
X140844318Y-95107056D01*
X141130426Y-95107306D01*
X141394851Y-94998048D01*
X141597337Y-94795915D01*
X141707056Y-94531682D01*
X141707306Y-94245574D01*
X141598048Y-93981149D01*
X141395915Y-93778663D01*
X141131682Y-93668944D01*
X140845574Y-93668694D01*
X140581149Y-93777952D01*
X140573859Y-93785229D01*
X135114281Y-88325650D01*
X135114281Y-79413750D01*
X140671000Y-79413750D01*
X140671000Y-80016309D01*
X140767673Y-80249698D01*
X140946301Y-80428327D01*
X141179690Y-80525000D01*
X141782250Y-80525000D01*
X141941000Y-80366250D01*
X141941000Y-79255000D01*
X142195000Y-79255000D01*
X142195000Y-80366250D01*
X142353750Y-80525000D01*
X142956310Y-80525000D01*
X143189699Y-80428327D01*
X143368327Y-80249698D01*
X143465000Y-80016309D01*
X143465000Y-79413750D01*
X143306250Y-79255000D01*
X142195000Y-79255000D01*
X141941000Y-79255000D01*
X140829750Y-79255000D01*
X140671000Y-79413750D01*
X135114281Y-79413750D01*
X135114281Y-78239691D01*
X140671000Y-78239691D01*
X140671000Y-78842250D01*
X140829750Y-79001000D01*
X141941000Y-79001000D01*
X141941000Y-77889750D01*
X141782250Y-77731000D01*
X141179690Y-77731000D01*
X140946301Y-77827673D01*
X140767673Y-78006302D01*
X140671000Y-78239691D01*
X135114281Y-78239691D01*
X135114281Y-74585283D01*
X139468781Y-70230782D01*
X139468694Y-70330426D01*
X139577952Y-70594851D01*
X139780085Y-70797337D01*
X140044318Y-70907056D01*
X140330426Y-70907306D01*
X140594851Y-70798048D01*
X140621564Y-70771382D01*
X156918853Y-70771382D01*
X156856345Y-70921917D01*
X156856095Y-71208025D01*
X156965353Y-71472450D01*
X157099120Y-71606451D01*
X157099120Y-72570761D01*
X155712508Y-73957372D01*
X155524504Y-73957208D01*
X155260079Y-74066466D01*
X155057593Y-74268599D01*
X154947874Y-74532832D01*
X154947624Y-74818940D01*
X154985959Y-74911719D01*
X154707073Y-74911719D01*
X154707306Y-74645574D01*
X154598048Y-74381149D01*
X154395915Y-74178663D01*
X154131682Y-74068944D01*
X153845574Y-74068694D01*
X153581149Y-74177952D01*
X153447148Y-74311719D01*
X153207248Y-74311719D01*
X153207306Y-74245574D01*
X153098048Y-73981149D01*
X152895915Y-73778663D01*
X152631682Y-73668944D01*
X152345574Y-73668694D01*
X152081149Y-73777952D01*
X151878663Y-73980085D01*
X151772451Y-74235873D01*
X151731682Y-74218944D01*
X151445574Y-74218694D01*
X151181149Y-74327952D01*
X150978663Y-74530085D01*
X150976884Y-74534369D01*
X150693734Y-74251218D01*
X150539217Y-74147974D01*
X150356952Y-74111718D01*
X150356947Y-74111719D01*
X149778739Y-74111719D01*
X149645915Y-73978663D01*
X149381682Y-73868944D01*
X149095574Y-73868694D01*
X148831149Y-73977952D01*
X148628663Y-74180085D01*
X148518944Y-74444318D01*
X148518714Y-74707021D01*
X147530584Y-74707021D01*
X147407142Y-74583578D01*
X147407306Y-74395574D01*
X147298048Y-74131149D01*
X147095915Y-73928663D01*
X146831682Y-73818944D01*
X146545574Y-73818694D01*
X146281149Y-73927952D01*
X146078663Y-74130085D01*
X145968944Y-74394318D01*
X145968855Y-74496665D01*
X145781682Y-74418944D01*
X145495574Y-74418694D01*
X145231149Y-74527952D01*
X145028663Y-74730085D01*
X144998237Y-74803359D01*
X144546096Y-74351218D01*
X144391579Y-74247974D01*
X144209314Y-74211718D01*
X144209309Y-74211719D01*
X143428739Y-74211719D01*
X143295915Y-74078663D01*
X143031682Y-73968944D01*
X142745574Y-73968694D01*
X142481149Y-74077952D01*
X142278663Y-74280085D01*
X142177820Y-74522942D01*
X142056096Y-74401218D01*
X142015903Y-74374362D01*
X141998048Y-74331149D01*
X141795915Y-74128663D01*
X141531682Y-74018944D01*
X141245574Y-74018694D01*
X140981149Y-74127952D01*
X140778663Y-74330085D01*
X140668944Y-74594318D01*
X140668694Y-74880426D01*
X140777952Y-75144851D01*
X140980085Y-75347337D01*
X141244318Y-75457056D01*
X141530426Y-75457306D01*
X141696455Y-75388704D01*
X141782213Y-75474463D01*
X141424058Y-75622450D01*
X141103575Y-75942374D01*
X141095542Y-75961719D01*
X138717414Y-75961719D01*
X137160432Y-74404736D01*
X137068048Y-74181149D01*
X136865915Y-73978663D01*
X136601682Y-73868944D01*
X136315574Y-73868694D01*
X136051149Y-73977952D01*
X135848663Y-74180085D01*
X135738944Y-74444318D01*
X135738694Y-74730426D01*
X135847952Y-74994851D01*
X136050085Y-75197337D01*
X136275058Y-75290754D01*
X138015150Y-77030845D01*
X138015152Y-77030848D01*
X138100687Y-77088000D01*
X138218332Y-77166608D01*
X138458000Y-77214282D01*
X138458005Y-77214281D01*
X141095153Y-77214281D01*
X141102450Y-77231942D01*
X141422374Y-77552425D01*
X141840589Y-77726083D01*
X142293425Y-77726478D01*
X142312783Y-77718479D01*
X142339527Y-77745223D01*
X142195000Y-77889750D01*
X142195000Y-79001000D01*
X143306250Y-79001000D01*
X143450777Y-78856473D01*
X143477245Y-78882941D01*
X143469917Y-78900589D01*
X143469522Y-79353425D01*
X143642450Y-79771942D01*
X143962374Y-80092425D01*
X144380589Y-80266083D01*
X144833425Y-80266478D01*
X145251942Y-80093550D01*
X145572425Y-79773626D01*
X145657318Y-79569181D01*
X145657318Y-79614908D01*
X145657317Y-79614913D01*
X145693573Y-79797178D01*
X145796817Y-79951695D01*
X147569902Y-81724779D01*
X147569904Y-81724782D01*
X147724421Y-81828026D01*
X147754662Y-81834041D01*
X147906686Y-81864282D01*
X147906691Y-81864281D01*
X151640717Y-81864281D01*
X155668858Y-85892421D01*
X155668694Y-86080426D01*
X155681624Y-86111719D01*
X147828739Y-86111719D01*
X147695915Y-85978663D01*
X147431682Y-85868944D01*
X147145574Y-85868694D01*
X146881149Y-85977952D01*
X146678663Y-86180085D01*
X146568944Y-86444318D01*
X146568798Y-86611719D01*
X142278739Y-86611719D01*
X142145915Y-86478663D01*
X142141633Y-86476885D01*
X144104236Y-84514281D01*
X148797261Y-84514281D01*
X148930085Y-84647337D01*
X149194318Y-84757056D01*
X149480426Y-84757306D01*
X149744851Y-84648048D01*
X149947337Y-84445915D01*
X150057056Y-84181682D01*
X150057306Y-83895574D01*
X149948048Y-83631149D01*
X149745915Y-83428663D01*
X149481682Y-83318944D01*
X149195574Y-83318694D01*
X148931149Y-83427952D01*
X148797148Y-83561719D01*
X143906954Y-83561719D01*
X143724689Y-83597974D01*
X143570172Y-83701218D01*
X143570170Y-83701221D01*
X140558319Y-86713071D01*
X140455075Y-86867588D01*
X140418819Y-87049853D01*
X140418820Y-87049858D01*
X140418820Y-92195096D01*
X140418819Y-92195101D01*
X140455075Y-92377366D01*
X140518875Y-92472851D01*
X140518694Y-92680426D01*
X140627952Y-92944851D01*
X140830085Y-93147337D01*
X141094318Y-93257056D01*
X141380426Y-93257306D01*
X141644851Y-93148048D01*
X141847337Y-92945915D01*
X141957056Y-92681682D01*
X141957306Y-92395574D01*
X141848048Y-92131149D01*
X141645915Y-91928663D01*
X141381682Y-91818944D01*
X141371382Y-91818935D01*
X141371382Y-88916333D01*
X141414227Y-88934124D01*
X141700335Y-88934374D01*
X141964760Y-88825116D01*
X142098761Y-88691349D01*
X149069401Y-88691349D01*
X153948475Y-93570423D01*
X154102992Y-93673667D01*
X154285257Y-93709923D01*
X154285262Y-93709922D01*
X155447592Y-93709922D01*
X155580416Y-93842978D01*
X155844649Y-93952697D01*
X156130757Y-93952947D01*
X156395182Y-93843689D01*
X156597668Y-93641556D01*
X156707387Y-93377323D01*
X156707397Y-93365894D01*
X158166283Y-94824779D01*
X158166285Y-94824782D01*
X158320802Y-94928026D01*
X158351043Y-94934041D01*
X158433435Y-94950431D01*
X158580085Y-95097337D01*
X158844318Y-95207056D01*
X159130426Y-95207306D01*
X159394851Y-95098048D01*
X159597337Y-94895915D01*
X159603888Y-94880138D01*
X159711750Y-94988000D01*
X159789975Y-94988000D01*
X159828302Y-95026327D01*
X159977194Y-95088000D01*
X159828302Y-95149673D01*
X159789975Y-95188000D01*
X159711750Y-95188000D01*
X159553000Y-95346750D01*
X159553000Y-95414310D01*
X159583523Y-95488000D01*
X159553000Y-95561690D01*
X159553000Y-95629250D01*
X159711750Y-95788000D01*
X159789975Y-95788000D01*
X159828302Y-95826327D01*
X160061691Y-95923000D01*
X161902250Y-95923000D01*
X162037250Y-95788000D01*
X162061000Y-95788000D01*
X162061000Y-95188000D01*
X162037250Y-95188000D01*
X161937250Y-95088000D01*
X162037250Y-94988000D01*
X162061000Y-94988000D01*
X162061000Y-94388000D01*
X162041000Y-94388000D01*
X162041000Y-94188000D01*
X162061000Y-94188000D01*
X162061000Y-93588000D01*
X162037250Y-93588000D01*
X161902250Y-93453000D01*
X160061691Y-93453000D01*
X159828302Y-93549673D01*
X159789975Y-93588000D01*
X159711750Y-93588000D01*
X159553000Y-93746750D01*
X159553000Y-93814310D01*
X159583523Y-93888000D01*
X159553000Y-93961690D01*
X159553000Y-94029250D01*
X159684748Y-94160998D01*
X159631041Y-94160998D01*
X159598048Y-94081149D01*
X159395915Y-93878663D01*
X159131682Y-93768944D01*
X158845574Y-93768694D01*
X158581149Y-93877952D01*
X158573859Y-93885229D01*
X156953687Y-92265057D01*
X156994851Y-92248048D01*
X157197337Y-92045915D01*
X157307056Y-91781682D01*
X157307093Y-91739353D01*
X157328337Y-91735127D01*
X157348923Y-91721372D01*
X157351723Y-91728149D01*
X157553856Y-91930635D01*
X157818089Y-92040354D01*
X158104197Y-92040604D01*
X158368622Y-91931346D01*
X158502623Y-91797579D01*
X158862600Y-91797579D01*
X158862605Y-91797580D01*
X159044870Y-91761324D01*
X159199387Y-91658080D01*
X159642464Y-91215002D01*
X159684748Y-91215002D01*
X159553000Y-91346750D01*
X159553000Y-91414310D01*
X159649673Y-91647699D01*
X159804348Y-91802373D01*
X159804348Y-92088000D01*
X159830586Y-92227441D01*
X159869403Y-92287765D01*
X159834574Y-92338738D01*
X159804348Y-92488000D01*
X159804348Y-92773627D01*
X159649673Y-92928301D01*
X159553000Y-93161690D01*
X159553000Y-93229250D01*
X159711750Y-93388000D01*
X162061000Y-93388000D01*
X162061000Y-93341000D01*
X162315000Y-93341000D01*
X162315000Y-93388000D01*
X162335000Y-93388000D01*
X162335000Y-93588000D01*
X162315000Y-93588000D01*
X162315000Y-94188000D01*
X162338750Y-94188000D01*
X162438750Y-94288000D01*
X162338750Y-94388000D01*
X162315000Y-94388000D01*
X162315000Y-94988000D01*
X162338750Y-94988000D01*
X162438750Y-95088000D01*
X162338750Y-95188000D01*
X162315000Y-95188000D01*
X162315000Y-95788000D01*
X162338750Y-95788000D01*
X162473750Y-95923000D01*
X164314309Y-95923000D01*
X164547698Y-95826327D01*
X164586025Y-95788000D01*
X164664250Y-95788000D01*
X164823000Y-95629250D01*
X164823000Y-95561690D01*
X164792477Y-95488000D01*
X164823000Y-95414310D01*
X164823000Y-95346750D01*
X164664250Y-95188000D01*
X164586025Y-95188000D01*
X164547698Y-95149673D01*
X164398806Y-95088000D01*
X164547698Y-95026327D01*
X164586025Y-94988000D01*
X164664250Y-94988000D01*
X164823000Y-94829250D01*
X164823000Y-94761690D01*
X164792477Y-94688000D01*
X164823000Y-94614310D01*
X164823000Y-94546750D01*
X164664250Y-94388000D01*
X164586025Y-94388000D01*
X164547698Y-94349673D01*
X164398806Y-94288000D01*
X164547698Y-94226327D01*
X164586025Y-94188000D01*
X164620764Y-94188000D01*
X164630085Y-94197337D01*
X164894318Y-94307056D01*
X165180426Y-94307306D01*
X165444851Y-94198048D01*
X165647337Y-93995915D01*
X165757056Y-93731682D01*
X165757306Y-93445574D01*
X165648048Y-93181149D01*
X165445915Y-92978663D01*
X165181682Y-92868944D01*
X164895574Y-92868694D01*
X164857846Y-92884283D01*
X164571652Y-92598088D01*
X164571652Y-92564597D01*
X164794318Y-92657056D01*
X165080426Y-92657306D01*
X165344851Y-92548048D01*
X165547337Y-92345915D01*
X165657056Y-92081682D01*
X165657306Y-91795574D01*
X165548048Y-91531149D01*
X165345915Y-91328663D01*
X165081682Y-91218944D01*
X164795574Y-91218694D01*
X164724366Y-91248116D01*
X164664250Y-91188000D01*
X162315000Y-91188000D01*
X162315000Y-91235000D01*
X162061000Y-91235000D01*
X162061000Y-91188000D01*
X162041000Y-91188000D01*
X162041000Y-90988000D01*
X162061000Y-90988000D01*
X162061000Y-90941000D01*
X162315000Y-90941000D01*
X162315000Y-90988000D01*
X164664250Y-90988000D01*
X164823000Y-90829250D01*
X164823000Y-90764281D01*
X173152765Y-90764281D01*
X173186056Y-90844851D01*
X173388189Y-91047337D01*
X173652422Y-91157056D01*
X173841762Y-91157221D01*
X178472910Y-95788369D01*
X178472746Y-95976374D01*
X178582004Y-96240799D01*
X178784137Y-96443285D01*
X179048370Y-96553004D01*
X179334478Y-96553254D01*
X179598903Y-96443996D01*
X179784830Y-96258393D01*
X181811719Y-98285282D01*
X181811719Y-100047261D01*
X181678663Y-100180085D01*
X181568944Y-100444318D01*
X181568694Y-100730426D01*
X181677952Y-100994851D01*
X181880085Y-101197337D01*
X182144318Y-101307056D01*
X182430426Y-101307306D01*
X182694851Y-101198048D01*
X182897337Y-100995915D01*
X183007056Y-100731682D01*
X183007306Y-100445574D01*
X182898048Y-100181149D01*
X182764281Y-100047148D01*
X182764281Y-98088005D01*
X182764282Y-98088000D01*
X182728026Y-97905736D01*
X182728026Y-97905735D01*
X182624782Y-97751218D01*
X182624779Y-97751216D01*
X180783145Y-95909582D01*
X180836018Y-95909582D01*
X184361719Y-99435282D01*
X184361719Y-100047261D01*
X184228663Y-100180085D01*
X184118944Y-100444318D01*
X184118694Y-100730426D01*
X184227952Y-100994851D01*
X184430085Y-101197337D01*
X184694318Y-101307056D01*
X184980426Y-101307306D01*
X185244851Y-101198048D01*
X185447337Y-100995915D01*
X185557056Y-100731682D01*
X185557306Y-100445574D01*
X185448048Y-100181149D01*
X185314281Y-100047148D01*
X185314281Y-99238005D01*
X185314282Y-99238000D01*
X185280916Y-99070264D01*
X185278026Y-99055735D01*
X185174782Y-98901218D01*
X185174779Y-98901216D01*
X182253990Y-95980426D01*
X182468694Y-95980426D01*
X182577952Y-96244851D01*
X182780085Y-96447337D01*
X183044318Y-96557056D01*
X183330426Y-96557306D01*
X183594851Y-96448048D01*
X183797337Y-96245915D01*
X183907056Y-95981682D01*
X183907221Y-95792342D01*
X184724779Y-94974784D01*
X184724782Y-94974782D01*
X184828026Y-94820265D01*
X184864281Y-94638000D01*
X184864281Y-90538005D01*
X184864282Y-90538000D01*
X184828026Y-90355736D01*
X184828026Y-90355735D01*
X184757128Y-90249627D01*
X184757306Y-90045574D01*
X184648048Y-89781149D01*
X184445915Y-89578663D01*
X184181682Y-89468944D01*
X183895574Y-89468694D01*
X183631149Y-89577952D01*
X183428663Y-89780085D01*
X183318944Y-90044318D01*
X183318694Y-90330426D01*
X183427952Y-90594851D01*
X183630085Y-90797337D01*
X183894318Y-90907056D01*
X183911719Y-90907071D01*
X183911719Y-94440718D01*
X183233578Y-95118858D01*
X183045574Y-95118694D01*
X182781149Y-95227952D01*
X182578663Y-95430085D01*
X182468944Y-95694318D01*
X182468694Y-95980426D01*
X182253990Y-95980426D01*
X181370083Y-95096519D01*
X181215566Y-94993275D01*
X181202353Y-94990647D01*
X181347337Y-94845915D01*
X181457056Y-94581682D01*
X181457236Y-94376211D01*
X181528026Y-94270265D01*
X181542406Y-94197974D01*
X181564282Y-94088000D01*
X181564281Y-94087995D01*
X181564281Y-89328739D01*
X181697337Y-89195915D01*
X181807056Y-88931682D01*
X181807306Y-88645574D01*
X181698048Y-88381149D01*
X181495915Y-88178663D01*
X181231682Y-88068944D01*
X180945574Y-88068694D01*
X180681149Y-88177952D01*
X180478663Y-88380085D01*
X180368944Y-88644318D01*
X180368694Y-88930426D01*
X180477952Y-89194851D01*
X180611719Y-89328852D01*
X180611719Y-93718708D01*
X180595574Y-93718694D01*
X180331149Y-93827952D01*
X180128663Y-94030085D01*
X180037723Y-94249093D01*
X176090936Y-90302305D01*
X176097337Y-90295915D01*
X176207056Y-90031682D01*
X176207306Y-89745574D01*
X176098048Y-89481149D01*
X175895915Y-89278663D01*
X175631682Y-89168944D01*
X175442342Y-89168779D01*
X173272495Y-86998931D01*
X173117978Y-86895687D01*
X172935713Y-86859431D01*
X172935708Y-86859432D01*
X168194121Y-86859432D01*
X168465429Y-86588124D01*
X168465432Y-86588122D01*
X168568676Y-86433605D01*
X168573030Y-86411718D01*
X168604932Y-86251340D01*
X168604931Y-86251335D01*
X168604931Y-84647607D01*
X168604932Y-84647602D01*
X168568676Y-84465337D01*
X168529734Y-84407056D01*
X168465432Y-84310820D01*
X168465429Y-84310818D01*
X167810528Y-83655916D01*
X167656011Y-83552672D01*
X167473746Y-83516416D01*
X167473741Y-83516417D01*
X160177012Y-83516417D01*
X166983258Y-76710169D01*
X176546253Y-76710169D01*
X176679077Y-76843225D01*
X176943310Y-76952944D01*
X177229418Y-76953194D01*
X177493843Y-76843936D01*
X177696329Y-76641803D01*
X177806048Y-76377570D01*
X177806298Y-76091462D01*
X177697040Y-75827037D01*
X177494907Y-75624551D01*
X177230674Y-75514832D01*
X176944566Y-75514582D01*
X176680141Y-75623840D01*
X176546140Y-75757607D01*
X166785981Y-75757607D01*
X166785976Y-75757606D01*
X166633952Y-75787847D01*
X166603711Y-75793862D01*
X166449194Y-75897106D01*
X166449192Y-75897109D01*
X157977725Y-84368578D01*
X157759674Y-84278035D01*
X157570334Y-84277870D01*
X153685941Y-80393477D01*
X153912835Y-80487691D01*
X154198943Y-80487941D01*
X154463368Y-80378683D01*
X154611283Y-80231026D01*
X154723715Y-80208661D01*
X154878232Y-80105417D01*
X157727612Y-77256036D01*
X157727615Y-77256034D01*
X157830859Y-77101517D01*
X157838039Y-77065421D01*
X157867115Y-76919252D01*
X157867114Y-76919247D01*
X157867114Y-75058627D01*
X158000170Y-74925803D01*
X158109889Y-74661570D01*
X158110139Y-74375462D01*
X158000881Y-74111037D01*
X157798748Y-73908551D01*
X157534515Y-73798832D01*
X157248407Y-73798582D01*
X157197315Y-73819693D01*
X157912180Y-73104827D01*
X157912183Y-73104825D01*
X158015427Y-72950308D01*
X158051683Y-72768043D01*
X158051682Y-72768038D01*
X158051682Y-71606338D01*
X158184738Y-71473514D01*
X158294457Y-71209281D01*
X158294707Y-70923173D01*
X158231988Y-70771382D01*
X159426936Y-70771382D01*
X159477952Y-70894851D01*
X159680085Y-71097337D01*
X159944318Y-71207056D01*
X160230426Y-71207306D01*
X160494851Y-71098048D01*
X160697337Y-70895915D01*
X160807056Y-70631682D01*
X160807306Y-70345574D01*
X160698048Y-70081149D01*
X160495915Y-69878663D01*
X160270942Y-69785246D01*
X160187949Y-69702253D01*
X159984768Y-69566493D01*
X159745101Y-69518819D01*
X159745096Y-69518820D01*
X140451797Y-69518820D01*
X140331682Y-69468944D01*
X140230708Y-69468856D01*
X141635587Y-68063976D01*
X175341719Y-68063976D01*
X175341719Y-68112024D01*
X175435064Y-68581301D01*
X175700888Y-68979136D01*
X176098723Y-69244960D01*
X176568000Y-69338305D01*
X177037277Y-69244960D01*
X177435112Y-68979136D01*
X177700936Y-68581301D01*
X177794281Y-68112024D01*
X177794281Y-68063976D01*
X177881719Y-68063976D01*
X177881719Y-68112024D01*
X177975064Y-68581301D01*
X178240888Y-68979136D01*
X178638723Y-69244960D01*
X179108000Y-69338305D01*
X179577277Y-69244960D01*
X179975112Y-68979136D01*
X180240936Y-68581301D01*
X180334281Y-68112024D01*
X180334281Y-68063976D01*
X180240936Y-67594699D01*
X179975112Y-67196864D01*
X179577277Y-66931040D01*
X179108000Y-66837695D01*
X178638723Y-66931040D01*
X178240888Y-67196864D01*
X177975064Y-67594699D01*
X177881719Y-68063976D01*
X177794281Y-68063976D01*
X177700936Y-67594699D01*
X177435112Y-67196864D01*
X177037277Y-66931040D01*
X176568000Y-66837695D01*
X176098723Y-66931040D01*
X175700888Y-67196864D01*
X175435064Y-67594699D01*
X175341719Y-68063976D01*
X141635587Y-68063976D01*
X143192421Y-66507142D01*
X143380426Y-66507306D01*
X143644851Y-66398048D01*
X143847337Y-66195915D01*
X143957056Y-65931682D01*
X143957306Y-65645574D01*
X143848048Y-65381149D01*
X143645915Y-65178663D01*
X143381682Y-65068944D01*
X143095574Y-65068694D01*
X142831149Y-65177952D01*
X142628663Y-65380085D01*
X142518944Y-65644318D01*
X142518779Y-65833658D01*
X134301218Y-74051218D01*
X134197974Y-74205735D01*
X134161718Y-74388000D01*
X132233517Y-74388000D01*
X132164281Y-74220436D01*
X132164281Y-59055109D01*
X132257056Y-58831682D01*
X132257306Y-58545574D01*
X132148048Y-58281149D01*
X131945915Y-58078663D01*
X131720941Y-57985246D01*
X128165921Y-54430226D01*
X128203061Y-54340784D01*
X128203500Y-53837424D01*
X128011278Y-53372212D01*
X127655660Y-53015973D01*
X127202339Y-52827737D01*
X127430128Y-52733616D01*
X139478891Y-64782378D01*
X139478893Y-64782381D01*
X139633410Y-64885625D01*
X139663651Y-64891640D01*
X139815675Y-64921881D01*
X139815680Y-64921880D01*
X175523811Y-64921880D01*
X175435064Y-65054699D01*
X175341719Y-65523976D01*
X175341719Y-65572024D01*
X175435064Y-66041301D01*
X175700888Y-66439136D01*
X176098723Y-66704960D01*
X176568000Y-66798305D01*
X177037277Y-66704960D01*
X177435112Y-66439136D01*
X177700936Y-66041301D01*
X177794281Y-65572024D01*
X177794281Y-65523976D01*
X177700936Y-65054699D01*
X177612189Y-64921880D01*
X178063811Y-64921880D01*
X177975064Y-65054699D01*
X177881719Y-65523976D01*
X177881719Y-65572024D01*
X177975064Y-66041301D01*
X178240888Y-66439136D01*
X178638723Y-66704960D01*
X179108000Y-66798305D01*
X179577277Y-66704960D01*
X179975112Y-66439136D01*
X180069318Y-66298146D01*
X180069318Y-66985594D01*
X180069317Y-66985599D01*
X180105573Y-67167864D01*
X180208817Y-67322381D01*
X180461217Y-67574780D01*
X180461219Y-67574783D01*
X180509435Y-67622999D01*
X180421719Y-68063976D01*
X180421719Y-68112024D01*
X180515064Y-68581301D01*
X180780888Y-68979136D01*
X181178723Y-69244960D01*
X181648000Y-69338305D01*
X182117277Y-69244960D01*
X182515112Y-68979136D01*
X182780936Y-68581301D01*
X182810797Y-68431182D01*
X182954348Y-68527099D01*
X182954348Y-68938000D01*
X182980586Y-69077441D01*
X183062995Y-69205509D01*
X183188738Y-69291426D01*
X183338000Y-69321652D01*
X185038000Y-69321652D01*
X185177441Y-69295414D01*
X185305509Y-69213005D01*
X185391426Y-69087262D01*
X185421652Y-68938000D01*
X185421652Y-67238000D01*
X185395414Y-67098559D01*
X185313005Y-66970491D01*
X185187262Y-66884574D01*
X185038000Y-66854348D01*
X183338000Y-66854348D01*
X183226682Y-66875294D01*
X183226682Y-66298146D01*
X183320888Y-66439136D01*
X183718723Y-66704960D01*
X184188000Y-66798305D01*
X184657277Y-66704960D01*
X185055112Y-66439136D01*
X185320936Y-66041301D01*
X185414281Y-65572024D01*
X185414281Y-65523976D01*
X185320936Y-65054699D01*
X185055112Y-64656864D01*
X184657277Y-64391040D01*
X184188000Y-64297695D01*
X183718723Y-64391040D01*
X183320888Y-64656864D01*
X183192808Y-64848550D01*
X183190427Y-64836582D01*
X183087183Y-64682065D01*
X180610272Y-62205154D01*
X180760027Y-62055660D01*
X180953061Y-61590784D01*
X180953500Y-61087424D01*
X180761278Y-60622212D01*
X180405660Y-60265973D01*
X179940784Y-60072939D01*
X179437424Y-60072500D01*
X179345979Y-60110284D01*
X178899724Y-59664029D01*
X182191433Y-59664029D01*
X182441537Y-60269325D01*
X182904239Y-60732836D01*
X183509098Y-60983995D01*
X184164029Y-60984567D01*
X184769325Y-60734463D01*
X185232836Y-60271761D01*
X185483995Y-59666902D01*
X185484567Y-59011971D01*
X185234463Y-58406675D01*
X184771761Y-57943164D01*
X184166902Y-57692005D01*
X183511971Y-57691433D01*
X182906675Y-57941537D01*
X182443164Y-58404239D01*
X182192005Y-59009098D01*
X182191433Y-59664029D01*
X178899724Y-59664029D01*
X168665921Y-49430226D01*
X168703061Y-49340784D01*
X168703500Y-48837424D01*
X168511278Y-48372212D01*
X168155660Y-48015973D01*
X167690784Y-47822939D01*
X167187424Y-47822500D01*
X166722212Y-48014722D01*
X166365973Y-48370340D01*
X166172939Y-48835216D01*
X166172500Y-49338576D01*
X166364722Y-49803788D01*
X166720340Y-50160027D01*
X167173661Y-50348263D01*
X166722212Y-50534798D01*
X166365973Y-50890416D01*
X166172939Y-51355292D01*
X166172500Y-51858652D01*
X166364722Y-52323864D01*
X166720340Y-52680103D01*
X166772340Y-52701695D01*
X166630467Y-52760461D01*
X166545409Y-53015804D01*
X167438000Y-53908395D01*
X168330591Y-53015804D01*
X168245533Y-52760461D01*
X168095202Y-52705561D01*
X168153788Y-52681354D01*
X168510027Y-52325736D01*
X168610257Y-52084357D01*
X168950067Y-52084357D01*
X176938212Y-60072501D01*
X176937424Y-60072500D01*
X176472212Y-60264722D01*
X176115973Y-60620340D01*
X176084330Y-60696544D01*
X176015539Y-60530467D01*
X175760196Y-60445409D01*
X174867605Y-61338000D01*
X174881748Y-61352143D01*
X174702143Y-61531748D01*
X174688000Y-61517605D01*
X174673858Y-61531748D01*
X174494253Y-61352143D01*
X174508395Y-61338000D01*
X173615804Y-60445409D01*
X173360461Y-60530467D01*
X173152484Y-61099965D01*
X173178277Y-61705700D01*
X173301472Y-62003120D01*
X142215958Y-62003120D01*
X136086588Y-55873750D01*
X138428000Y-55873750D01*
X138428000Y-56214309D01*
X138524673Y-56447698D01*
X138703301Y-56626327D01*
X138936690Y-56723000D01*
X138963875Y-56723000D01*
X138923559Y-56730586D01*
X138795491Y-56812995D01*
X138709574Y-56938738D01*
X138679348Y-57088000D01*
X138679348Y-58088000D01*
X138705586Y-58227441D01*
X138787995Y-58355509D01*
X138913738Y-58441426D01*
X139063000Y-58471652D01*
X140313000Y-58471652D01*
X140452441Y-58445414D01*
X140580509Y-58363005D01*
X140666426Y-58237262D01*
X140671080Y-58214281D01*
X141024002Y-58214281D01*
X141077952Y-58344851D01*
X141280085Y-58547337D01*
X141505059Y-58640754D01*
X141523950Y-58659645D01*
X141523952Y-58659648D01*
X141609487Y-58716800D01*
X141727133Y-58795408D01*
X141966800Y-58843082D01*
X141966805Y-58843081D01*
X143528110Y-58843081D01*
X143530586Y-58856241D01*
X143612995Y-58984309D01*
X143738738Y-59070226D01*
X143888000Y-59100452D01*
X145488000Y-59100452D01*
X145627441Y-59074214D01*
X145755509Y-58991805D01*
X145841426Y-58866062D01*
X145871652Y-58716800D01*
X145871652Y-57716800D01*
X148504348Y-57716800D01*
X148504348Y-58716800D01*
X148530586Y-58856241D01*
X148612995Y-58984309D01*
X148738738Y-59070226D01*
X148888000Y-59100452D01*
X148961719Y-59100452D01*
X148961719Y-59197261D01*
X148828663Y-59330085D01*
X148718944Y-59594318D01*
X148718694Y-59880426D01*
X148827952Y-60144851D01*
X149030085Y-60347337D01*
X149294318Y-60457056D01*
X149580426Y-60457306D01*
X149844851Y-60348048D01*
X150047337Y-60145915D01*
X150157056Y-59881682D01*
X150157246Y-59664029D01*
X168891433Y-59664029D01*
X169141537Y-60269325D01*
X169604239Y-60732836D01*
X170209098Y-60983995D01*
X170864029Y-60984567D01*
X171469325Y-60734463D01*
X171932836Y-60271761D01*
X171935309Y-60265804D01*
X173795409Y-60265804D01*
X174688000Y-61158395D01*
X175580591Y-60265804D01*
X175495533Y-60010461D01*
X174926035Y-59802484D01*
X174320300Y-59828277D01*
X173880467Y-60010461D01*
X173795409Y-60265804D01*
X171935309Y-60265804D01*
X172183995Y-59666902D01*
X172184567Y-59011971D01*
X171934463Y-58406675D01*
X171471761Y-57943164D01*
X170866902Y-57692005D01*
X170211971Y-57691433D01*
X169606675Y-57941537D01*
X169143164Y-58404239D01*
X168892005Y-59009098D01*
X168891433Y-59664029D01*
X150157246Y-59664029D01*
X150157306Y-59595574D01*
X150048048Y-59331149D01*
X149914281Y-59197148D01*
X149914281Y-59100452D01*
X150488000Y-59100452D01*
X150627441Y-59074214D01*
X150755509Y-58991805D01*
X150841426Y-58866062D01*
X150871652Y-58716800D01*
X150871652Y-57716800D01*
X150845414Y-57577359D01*
X150763005Y-57449291D01*
X150637262Y-57363374D01*
X150488000Y-57333148D01*
X148888000Y-57333148D01*
X148748559Y-57359386D01*
X148620491Y-57441795D01*
X148534574Y-57567538D01*
X148504348Y-57716800D01*
X145871652Y-57716800D01*
X145845414Y-57577359D01*
X145763005Y-57449291D01*
X145637262Y-57363374D01*
X145488000Y-57333148D01*
X143888000Y-57333148D01*
X143748559Y-57359386D01*
X143620491Y-57441795D01*
X143534574Y-57567538D01*
X143529920Y-57590519D01*
X142322579Y-57590519D01*
X142298048Y-57531149D01*
X142095915Y-57328663D01*
X141870942Y-57235246D01*
X141780848Y-57145152D01*
X141577667Y-57009392D01*
X141338000Y-56961718D01*
X141337995Y-56961719D01*
X140672890Y-56961719D01*
X140670414Y-56948559D01*
X140588005Y-56820491D01*
X140462262Y-56734574D01*
X140405107Y-56723000D01*
X140439310Y-56723000D01*
X140672699Y-56626327D01*
X140851327Y-56447698D01*
X140948000Y-56214309D01*
X140948000Y-55873750D01*
X140789250Y-55715000D01*
X139815000Y-55715000D01*
X139815000Y-55735000D01*
X139561000Y-55735000D01*
X139561000Y-55715000D01*
X138586750Y-55715000D01*
X138428000Y-55873750D01*
X136086588Y-55873750D01*
X135174529Y-54961691D01*
X138428000Y-54961691D01*
X138428000Y-55302250D01*
X138586750Y-55461000D01*
X139561000Y-55461000D01*
X139561000Y-54611750D01*
X139815000Y-54611750D01*
X139815000Y-55461000D01*
X140789250Y-55461000D01*
X140948000Y-55302250D01*
X140948000Y-54961691D01*
X140851327Y-54728302D01*
X140672699Y-54549673D01*
X140593337Y-54516800D01*
X143504348Y-54516800D01*
X143504348Y-55516800D01*
X143530586Y-55656241D01*
X143612995Y-55784309D01*
X143738738Y-55870226D01*
X143888000Y-55900452D01*
X145488000Y-55900452D01*
X145627441Y-55874214D01*
X145755509Y-55791805D01*
X145841426Y-55666062D01*
X145871652Y-55516800D01*
X145871652Y-55302550D01*
X148253000Y-55302550D01*
X148253000Y-55643110D01*
X148349673Y-55876499D01*
X148528302Y-56055127D01*
X148761691Y-56151800D01*
X149402250Y-56151800D01*
X149561000Y-55993050D01*
X149561000Y-55143800D01*
X149815000Y-55143800D01*
X149815000Y-55993050D01*
X149973750Y-56151800D01*
X150614309Y-56151800D01*
X150847698Y-56055127D01*
X151026327Y-55876499D01*
X151123000Y-55643110D01*
X151123000Y-55302550D01*
X150980646Y-55160196D01*
X166545409Y-55160196D01*
X166630467Y-55415539D01*
X167199965Y-55623516D01*
X167805700Y-55597723D01*
X168245533Y-55415539D01*
X168330591Y-55160196D01*
X167438000Y-54267605D01*
X166545409Y-55160196D01*
X150980646Y-55160196D01*
X150964250Y-55143800D01*
X149815000Y-55143800D01*
X149561000Y-55143800D01*
X148411750Y-55143800D01*
X148253000Y-55302550D01*
X145871652Y-55302550D01*
X145871652Y-54516800D01*
X145847885Y-54390490D01*
X148253000Y-54390490D01*
X148253000Y-54731050D01*
X148411750Y-54889800D01*
X149561000Y-54889800D01*
X149561000Y-54040550D01*
X149815000Y-54040550D01*
X149815000Y-54889800D01*
X150964250Y-54889800D01*
X151123000Y-54731050D01*
X151123000Y-54390490D01*
X151026327Y-54157101D01*
X150847698Y-53978473D01*
X150614309Y-53881800D01*
X149973750Y-53881800D01*
X149815000Y-54040550D01*
X149561000Y-54040550D01*
X149402250Y-53881800D01*
X148761691Y-53881800D01*
X148528302Y-53978473D01*
X148349673Y-54157101D01*
X148253000Y-54390490D01*
X145847885Y-54390490D01*
X145845414Y-54377359D01*
X145763005Y-54249291D01*
X145637262Y-54163374D01*
X145488000Y-54133148D01*
X143888000Y-54133148D01*
X143748559Y-54159386D01*
X143620491Y-54241795D01*
X143534574Y-54367538D01*
X143504348Y-54516800D01*
X140593337Y-54516800D01*
X140439310Y-54453000D01*
X139973750Y-54453000D01*
X139815000Y-54611750D01*
X139561000Y-54611750D01*
X139402250Y-54453000D01*
X138936690Y-54453000D01*
X138703301Y-54549673D01*
X138524673Y-54728302D01*
X138428000Y-54961691D01*
X135174529Y-54961691D01*
X134062803Y-53849965D01*
X165902484Y-53849965D01*
X165928277Y-54455700D01*
X166110461Y-54895533D01*
X166365804Y-54980591D01*
X167258395Y-54088000D01*
X167617605Y-54088000D01*
X168510196Y-54980591D01*
X168765539Y-54895533D01*
X168973516Y-54326035D01*
X168947723Y-53720300D01*
X168765539Y-53280467D01*
X168510196Y-53195409D01*
X167617605Y-54088000D01*
X167258395Y-54088000D01*
X166365804Y-53195409D01*
X166110461Y-53280467D01*
X165902484Y-53849965D01*
X134062803Y-53849965D01*
X125236457Y-45023619D01*
X125083151Y-44921184D01*
X125232836Y-44771761D01*
X125483995Y-44166902D01*
X125484567Y-43511971D01*
X125234463Y-42906675D01*
X124771761Y-42443164D01*
X124166902Y-42192005D01*
X123511971Y-42191433D01*
X122906675Y-42441537D01*
X122443164Y-42904239D01*
X122192005Y-43509098D01*
X122191433Y-44164029D01*
X122441537Y-44769325D01*
X122556132Y-44884120D01*
X120907683Y-44884120D01*
X119366656Y-43343092D01*
X119449965Y-43373516D01*
X120055700Y-43347723D01*
X120495533Y-43165539D01*
X120580591Y-42910196D01*
X119688000Y-42017605D01*
X119673858Y-42031748D01*
X119494253Y-41852143D01*
X119508395Y-41838000D01*
X119867605Y-41838000D01*
X120760196Y-42730591D01*
X121015539Y-42645533D01*
X121223516Y-42076035D01*
X121214903Y-41873750D01*
X143251000Y-41873750D01*
X143251000Y-43746310D01*
X143347673Y-43979699D01*
X143526302Y-44158327D01*
X143759691Y-44255000D01*
X144362250Y-44255000D01*
X144521000Y-44096250D01*
X144521000Y-41715000D01*
X144775000Y-41715000D01*
X144775000Y-44096250D01*
X144933750Y-44255000D01*
X145536309Y-44255000D01*
X145769698Y-44158327D01*
X145948327Y-43979699D01*
X146045000Y-43746310D01*
X146045000Y-41873750D01*
X148331000Y-41873750D01*
X148331000Y-43746310D01*
X148427673Y-43979699D01*
X148606302Y-44158327D01*
X148839691Y-44255000D01*
X149442250Y-44255000D01*
X149601000Y-44096250D01*
X149601000Y-41715000D01*
X149855000Y-41715000D01*
X149855000Y-44096250D01*
X150013750Y-44255000D01*
X150616309Y-44255000D01*
X150835932Y-44164029D01*
X168891433Y-44164029D01*
X169141537Y-44769325D01*
X169604239Y-45232836D01*
X170209098Y-45483995D01*
X170864029Y-45484567D01*
X171469325Y-45234463D01*
X171932836Y-44771761D01*
X172183995Y-44166902D01*
X172183997Y-44164029D01*
X182191433Y-44164029D01*
X182441537Y-44769325D01*
X182904239Y-45232836D01*
X183509098Y-45483995D01*
X184164029Y-45484567D01*
X184769325Y-45234463D01*
X185232836Y-44771761D01*
X185483995Y-44166902D01*
X185484567Y-43511971D01*
X185234463Y-42906675D01*
X184771761Y-42443164D01*
X184166902Y-42192005D01*
X183511971Y-42191433D01*
X182906675Y-42441537D01*
X182443164Y-42904239D01*
X182192005Y-43509098D01*
X182191433Y-44164029D01*
X172183997Y-44164029D01*
X172184567Y-43511971D01*
X171934463Y-42906675D01*
X171471761Y-42443164D01*
X170866902Y-42192005D01*
X170211971Y-42191433D01*
X169606675Y-42441537D01*
X169143164Y-42904239D01*
X168892005Y-43509098D01*
X168891433Y-44164029D01*
X150835932Y-44164029D01*
X150849698Y-44158327D01*
X151028327Y-43979699D01*
X151125000Y-43746310D01*
X151125000Y-41873750D01*
X150966250Y-41715000D01*
X149855000Y-41715000D01*
X149601000Y-41715000D01*
X148489750Y-41715000D01*
X148331000Y-41873750D01*
X146045000Y-41873750D01*
X145886250Y-41715000D01*
X144775000Y-41715000D01*
X144521000Y-41715000D01*
X143409750Y-41715000D01*
X143251000Y-41873750D01*
X121214903Y-41873750D01*
X121197723Y-41470300D01*
X121015539Y-41030467D01*
X120760196Y-40945409D01*
X119867605Y-41838000D01*
X119508395Y-41838000D01*
X118615804Y-40945409D01*
X118360461Y-41030467D01*
X118296142Y-41206590D01*
X118261278Y-41122212D01*
X117905660Y-40765973D01*
X117905254Y-40765804D01*
X118795409Y-40765804D01*
X119688000Y-41658395D01*
X120580591Y-40765804D01*
X120495533Y-40510461D01*
X119926035Y-40302484D01*
X119320300Y-40328277D01*
X118880467Y-40510461D01*
X118795409Y-40765804D01*
X117905254Y-40765804D01*
X117440784Y-40572939D01*
X116937424Y-40572500D01*
X116472212Y-40764722D01*
X116115973Y-41120340D01*
X115937800Y-41549427D01*
X115761278Y-41122212D01*
X115405660Y-40765973D01*
X114940784Y-40572939D01*
X114437424Y-40572500D01*
X113972212Y-40764722D01*
X113615973Y-41120340D01*
X113422939Y-41585216D01*
X113422500Y-42088576D01*
X108168821Y-42088576D01*
X108977823Y-40877820D01*
X110450664Y-39893700D01*
X112232448Y-39539281D01*
X143251000Y-39539281D01*
X143251000Y-41302250D01*
X143251000Y-41302250D01*
G37*
X143251000Y-41302250D02*
X143409750Y-41461000D01*
X144521000Y-41461000D01*
X144521000Y-41441000D01*
X144775000Y-41441000D01*
X144775000Y-41461000D01*
X145886250Y-41461000D01*
X146045000Y-41302250D01*
X146045000Y-39539281D01*
X148331000Y-39539281D01*
X148331000Y-41302250D01*
X148489750Y-41461000D01*
X149601000Y-41461000D01*
X149601000Y-41441000D01*
X149855000Y-41441000D01*
X149855000Y-41461000D01*
X150966250Y-41461000D01*
X151125000Y-41302250D01*
X151125000Y-39539281D01*
X182143552Y-39539281D01*
X183925337Y-39893700D01*
X185398180Y-40877823D01*
X186382300Y-42350664D01*
X186736719Y-44132448D01*
X186736719Y-109043552D01*
X186382300Y-110825336D01*
X185398180Y-112298177D01*
X183925337Y-113282300D01*
X182143552Y-113636719D01*
X161815000Y-113636719D01*
X161815000Y-107338000D01*
X161806315Y-107291841D01*
X161779035Y-107249447D01*
X161737410Y-107221006D01*
X161688000Y-107211000D01*
X143188000Y-107211000D01*
X143141841Y-107219685D01*
X143099447Y-107246965D01*
X143071006Y-107288590D01*
X143061000Y-107338000D01*
X143061000Y-113636719D01*
X122429992Y-113636719D01*
X122578796Y-113558402D01*
X122882293Y-113193380D01*
X123023000Y-112740000D01*
X123023000Y-112415000D01*
X121940000Y-112415000D01*
X121940000Y-112435000D01*
X121686000Y-112435000D01*
X121686000Y-112415000D01*
X120603000Y-112415000D01*
X120603000Y-112740000D01*
X120743707Y-113193380D01*
X121047204Y-113558402D01*
X121196008Y-113636719D01*
X114679992Y-113636719D01*
X114828796Y-113558402D01*
X115132293Y-113193380D01*
X115273000Y-112740000D01*
X115273000Y-112415000D01*
X114190000Y-112415000D01*
X114190000Y-112435000D01*
X113936000Y-112435000D01*
X113936000Y-112415000D01*
X112853000Y-112415000D01*
X112853000Y-112740000D01*
X112993707Y-113193380D01*
X113297204Y-113558402D01*
X113446008Y-113636719D01*
X112232448Y-113636719D01*
X110450664Y-113282300D01*
X108977823Y-112298180D01*
X108669004Y-111836000D01*
X112853000Y-111836000D01*
X112853000Y-112161000D01*
X113936000Y-112161000D01*
X113936000Y-110919450D01*
X114190000Y-110919450D01*
X114190000Y-112161000D01*
X115273000Y-112161000D01*
X115273000Y-111836000D01*
X115132293Y-111382620D01*
X114828796Y-111017598D01*
X114651566Y-110924320D01*
X118162588Y-110924320D01*
X118271846Y-111188745D01*
X118473979Y-111391231D01*
X118738212Y-111500950D01*
X118774831Y-111500982D01*
X118774800Y-111536532D01*
X118884058Y-111800957D01*
X119086191Y-112003443D01*
X119350424Y-112113162D01*
X119636532Y-112113412D01*
X119900957Y-112004154D01*
X120069404Y-111836000D01*
X120603000Y-111836000D01*
X120603000Y-112161000D01*
X121686000Y-112161000D01*
X121686000Y-110919450D01*
X121940000Y-110919450D01*
X121940000Y-112161000D01*
X123023000Y-112161000D01*
X123023000Y-111836000D01*
X122882293Y-111382620D01*
X122578796Y-111017598D01*
X122158714Y-110796505D01*
X122126677Y-110794365D01*
X121940000Y-110919450D01*
X121686000Y-110919450D01*
X121499323Y-110794365D01*
X121467286Y-110796505D01*
X121047204Y-111017598D01*
X120743707Y-111382620D01*
X120603000Y-111836000D01*
X120069404Y-111836000D01*
X120103443Y-111802021D01*
X120213162Y-111537788D01*
X120213412Y-111251680D01*
X120104154Y-110987255D01*
X120090033Y-110973109D01*
X120099488Y-110925576D01*
X120114769Y-110848754D01*
X120114769Y-110247871D01*
X120125722Y-110255190D01*
X120422792Y-110314281D01*
X120453208Y-110314281D01*
X120750278Y-110255190D01*
X121002122Y-110086914D01*
X121079808Y-109970648D01*
X121259884Y-110068076D01*
X121325742Y-110080519D01*
X121536000Y-109957518D01*
X121536000Y-108615000D01*
X121790000Y-108615000D01*
X121790000Y-109957518D01*
X122000258Y-110080519D01*
X122066116Y-110068076D01*
X122534862Y-109814467D01*
X122870875Y-109400782D01*
X123023000Y-108890000D01*
X123023000Y-108615000D01*
X121790000Y-108615000D01*
X121536000Y-108615000D01*
X120303000Y-108615000D01*
X120303000Y-108785547D01*
X120125722Y-108820810D01*
X120114769Y-108828129D01*
X120114769Y-108086000D01*
X120303000Y-108086000D01*
X120303000Y-108361000D01*
X121536000Y-108361000D01*
X121536000Y-107018482D01*
X121790000Y-107018482D01*
X121790000Y-108361000D01*
X123023000Y-108361000D01*
X123023000Y-108086000D01*
X122870875Y-107575218D01*
X122534862Y-107161533D01*
X122066116Y-106907924D01*
X122000258Y-106895481D01*
X121790000Y-107018482D01*
X121536000Y-107018482D01*
X121325742Y-106895481D01*
X121259884Y-106907924D01*
X120791138Y-107161533D01*
X120455125Y-107575218D01*
X120303000Y-108086000D01*
X120114769Y-108086000D01*
X120114769Y-105494585D01*
X121078928Y-104530426D01*
X122768694Y-104530426D01*
X122877952Y-104794851D01*
X123080085Y-104997337D01*
X123344318Y-105107056D01*
X123630426Y-105107306D01*
X123894851Y-104998048D01*
X124097337Y-104795915D01*
X124207056Y-104531682D01*
X124207221Y-104342342D01*
X126685282Y-101864281D01*
X127401959Y-101864281D01*
X127534783Y-101997337D01*
X127799016Y-102107056D01*
X128085124Y-102107306D01*
X128349549Y-101998048D01*
X128552035Y-101795915D01*
X128661754Y-101531682D01*
X128662004Y-101245574D01*
X128552746Y-100981149D01*
X128350613Y-100778663D01*
X128086380Y-100668944D01*
X127800272Y-100668694D01*
X127535847Y-100777952D01*
X127401846Y-100911719D01*
X126488005Y-100911719D01*
X126488000Y-100911718D01*
X126335976Y-100941959D01*
X126305735Y-100947974D01*
X126151218Y-101051218D01*
X126151216Y-101051221D01*
X123533578Y-103668858D01*
X123345574Y-103668694D01*
X123081149Y-103777952D01*
X122878663Y-103980085D01*
X122768944Y-104244318D01*
X122768694Y-104530426D01*
X121078928Y-104530426D01*
X124919035Y-100690319D01*
X125139945Y-100782049D01*
X125426053Y-100782299D01*
X125690478Y-100673041D01*
X125892964Y-100470908D01*
X126002683Y-100206675D01*
X126002933Y-99920567D01*
X125893675Y-99656142D01*
X125691542Y-99453656D01*
X125433339Y-99346441D01*
X125433456Y-99212781D01*
X125324198Y-98948356D01*
X125122065Y-98745870D01*
X124857832Y-98636151D01*
X124571724Y-98635901D01*
X124307299Y-98745159D01*
X124104813Y-98947292D01*
X123995094Y-99211525D01*
X123994899Y-99434554D01*
X119009936Y-104419517D01*
X118911850Y-104566312D01*
X118877407Y-104739469D01*
X118877407Y-108744631D01*
X118866277Y-108745885D01*
X118817835Y-108761324D01*
X118767489Y-108768432D01*
X118704080Y-108790620D01*
X118660291Y-108816451D01*
X118612790Y-108834583D01*
X118555909Y-108870324D01*
X118518964Y-108905252D01*
X118476692Y-108933498D01*
X118429190Y-108981001D01*
X118400946Y-109023271D01*
X118366016Y-109060217D01*
X118330275Y-109117098D01*
X118312143Y-109164599D01*
X118286312Y-109208388D01*
X118264124Y-109271797D01*
X118257017Y-109322139D01*
X118241577Y-109370580D01*
X118234055Y-109437336D01*
X118238328Y-109487998D01*
X118234055Y-109538664D01*
X118241577Y-109605420D01*
X118257017Y-109653862D01*
X118264124Y-109704202D01*
X118286312Y-109767611D01*
X118312143Y-109811400D01*
X118330275Y-109858901D01*
X118366016Y-109915782D01*
X118400946Y-109952728D01*
X118429190Y-109994998D01*
X118476692Y-110042501D01*
X118518964Y-110070747D01*
X118555909Y-110105675D01*
X118587360Y-110125437D01*
X118475043Y-110171846D01*
X118272557Y-110373979D01*
X118162838Y-110638212D01*
X118162588Y-110924320D01*
X114651566Y-110924320D01*
X114408714Y-110796505D01*
X114376677Y-110794365D01*
X114190000Y-110919450D01*
X113936000Y-110919450D01*
X113749323Y-110794365D01*
X113717286Y-110796505D01*
X113297204Y-111017598D01*
X112993707Y-111382620D01*
X112853000Y-111836000D01*
X108669004Y-111836000D01*
X107993700Y-110825337D01*
X107639281Y-109043552D01*
X107639281Y-108615000D01*
X112853000Y-108615000D01*
X112853000Y-108890000D01*
X113005125Y-109400782D01*
X113341138Y-109814467D01*
X113809884Y-110068076D01*
X113875742Y-110080519D01*
X114086000Y-109957518D01*
X114086000Y-108615000D01*
X114340000Y-108615000D01*
X114340000Y-109957518D01*
X114550258Y-110080519D01*
X114616116Y-110068076D01*
X114796192Y-109970648D01*
X114873878Y-110086914D01*
X115125722Y-110255190D01*
X115422792Y-110314281D01*
X115453208Y-110314281D01*
X115750278Y-110255190D01*
X116002122Y-110086914D01*
X116170398Y-109835070D01*
X116229489Y-109538000D01*
X116170398Y-109240930D01*
X116002122Y-108989086D01*
X115750278Y-108820810D01*
X115573000Y-108785547D01*
X115573000Y-108615000D01*
X114340000Y-108615000D01*
X114086000Y-108615000D01*
X112853000Y-108615000D01*
X107639281Y-108615000D01*
X107639281Y-108086000D01*
X112853000Y-108086000D01*
X112853000Y-108361000D01*
X114086000Y-108361000D01*
X114086000Y-107018482D01*
X114340000Y-107018482D01*
X114340000Y-108361000D01*
X115573000Y-108361000D01*
X115573000Y-108086000D01*
X115420875Y-107575218D01*
X115084862Y-107161533D01*
X114616116Y-106907924D01*
X114550258Y-106895481D01*
X114340000Y-107018482D01*
X114086000Y-107018482D01*
X113875742Y-106895481D01*
X113809884Y-106907924D01*
X113341138Y-107161533D01*
X113005125Y-107575218D01*
X112853000Y-108086000D01*
X107639281Y-108086000D01*
X107639281Y-85530426D01*
X119018694Y-85530426D01*
X119127952Y-85794851D01*
X119330085Y-85997337D01*
X119594318Y-86107056D01*
X119783658Y-86107221D01*
X124501216Y-90824779D01*
X124501218Y-90824782D01*
X124641769Y-90918694D01*
X124655735Y-90928026D01*
X124838000Y-90964282D01*
X124838005Y-90964281D01*
X133263659Y-90964281D01*
X133276113Y-90976735D01*
X133031149Y-91077952D01*
X132828663Y-91280085D01*
X132718944Y-91544318D01*
X132718694Y-91830426D01*
X132827952Y-92094851D01*
X132961719Y-92228852D01*
X132961719Y-95647261D01*
X132828663Y-95780085D01*
X132718944Y-96044318D01*
X132718856Y-96145292D01*
X130124782Y-93551218D01*
X129970265Y-93447974D01*
X129788000Y-93411718D01*
X129787995Y-93411719D01*
X128803067Y-93411719D01*
X128620802Y-93447974D01*
X128466285Y-93551218D01*
X128466283Y-93551221D01*
X128201218Y-93816285D01*
X128097974Y-93970802D01*
X128075569Y-94083435D01*
X127928663Y-94230085D01*
X127818944Y-94494318D01*
X127818694Y-94780426D01*
X127927952Y-95044851D01*
X128130085Y-95247337D01*
X128394318Y-95357056D01*
X128680426Y-95357306D01*
X128944851Y-95248048D01*
X128962854Y-95230076D01*
X128980085Y-95247337D01*
X129244318Y-95357056D01*
X129433657Y-95357221D01*
X133161719Y-99085282D01*
X133161719Y-101947261D01*
X133028663Y-102080085D01*
X132918944Y-102344318D01*
X132918694Y-102630426D01*
X133027952Y-102894851D01*
X133230085Y-103097337D01*
X133494318Y-103207056D01*
X133780426Y-103207306D01*
X134044851Y-103098048D01*
X134247337Y-102895915D01*
X134357056Y-102631682D01*
X134357306Y-102345574D01*
X134248048Y-102081149D01*
X134114281Y-101947148D01*
X134114281Y-98888005D01*
X134114282Y-98888000D01*
X134114244Y-98887807D01*
X136218815Y-100992378D01*
X136218694Y-101130426D01*
X136327952Y-101394851D01*
X136530085Y-101597337D01*
X136794318Y-101707056D01*
X137080426Y-101707306D01*
X137344851Y-101598048D01*
X137547337Y-101395915D01*
X137657056Y-101131682D01*
X137657306Y-100845574D01*
X137548048Y-100581149D01*
X137345915Y-100378663D01*
X137081682Y-100268944D01*
X136842298Y-100268735D01*
X133480782Y-96907219D01*
X133580426Y-96907306D01*
X133844851Y-96798048D01*
X134047337Y-96595915D01*
X134157056Y-96331682D01*
X134157306Y-96045574D01*
X134048048Y-95781149D01*
X133914281Y-95647148D01*
X133914281Y-92228739D01*
X134047337Y-92095915D01*
X134149429Y-91850050D01*
X137011719Y-94712340D01*
X137011719Y-99837995D01*
X137011718Y-99838000D01*
X137047974Y-100020265D01*
X137151218Y-100174782D01*
X140668858Y-103692421D01*
X140668694Y-103880426D01*
X140777952Y-104144851D01*
X140980085Y-104347337D01*
X141004930Y-104357654D01*
X140968944Y-104444318D01*
X140968929Y-104461719D01*
X133055109Y-104461719D01*
X132831682Y-104368944D01*
X132545574Y-104368694D01*
X132281149Y-104477952D01*
X132078663Y-104680085D01*
X131968944Y-104944318D01*
X131968694Y-105230426D01*
X132077952Y-105494851D01*
X132280085Y-105697337D01*
X132544318Y-105807056D01*
X132830426Y-105807306D01*
X133055564Y-105714281D01*
X140353027Y-105714281D01*
X140291352Y-105862810D01*
X140291102Y-106148918D01*
X140400360Y-106413343D01*
X140602493Y-106615829D01*
X140866726Y-106725548D01*
X141056066Y-106725713D01*
X141359943Y-107029590D01*
X141359945Y-107029593D01*
X141514462Y-107132837D01*
X141696727Y-107169093D01*
X141696732Y-107169092D01*
X157828494Y-107169092D01*
X157828499Y-107169093D01*
X158010764Y-107132837D01*
X158131085Y-107052442D01*
X158330426Y-107052616D01*
X158594851Y-106943358D01*
X158797337Y-106741225D01*
X158907056Y-106476992D01*
X158907286Y-106214281D01*
X159320891Y-106214281D01*
X159544318Y-106307056D01*
X159830426Y-106307306D01*
X160094851Y-106198048D01*
X160297337Y-105995915D01*
X160407056Y-105731682D01*
X160407306Y-105445574D01*
X160298048Y-105181149D01*
X160181384Y-105064281D01*
X162968839Y-105064281D01*
X162968694Y-105230426D01*
X163077952Y-105494851D01*
X163280085Y-105697337D01*
X163544318Y-105807056D01*
X163830426Y-105807306D01*
X164094851Y-105698048D01*
X164297337Y-105495915D01*
X164299116Y-105491631D01*
X168111719Y-109304234D01*
X168111719Y-109497261D01*
X167978663Y-109630085D01*
X167868944Y-109894318D01*
X167868694Y-110180426D01*
X167977952Y-110444851D01*
X168180085Y-110647337D01*
X168444318Y-110757056D01*
X168730426Y-110757306D01*
X168994851Y-110648048D01*
X169197337Y-110445915D01*
X169307056Y-110181682D01*
X169307306Y-109895574D01*
X169198048Y-109631149D01*
X169064281Y-109497148D01*
X169064281Y-109106957D01*
X169064282Y-109106952D01*
X169030805Y-108938658D01*
X169028026Y-108924687D01*
X168924782Y-108770170D01*
X168924779Y-108770168D01*
X164053419Y-103898807D01*
X163898902Y-103795563D01*
X163716637Y-103759307D01*
X163716632Y-103759308D01*
X158632871Y-103759308D01*
X158537844Y-103664281D01*
X177287995Y-103664281D01*
X177288000Y-103664282D01*
X177470265Y-103628026D01*
X177624782Y-103524782D01*
X179892421Y-101257142D01*
X180080426Y-101257306D01*
X180344851Y-101148048D01*
X180547337Y-100945915D01*
X180657056Y-100681682D01*
X180657306Y-100395574D01*
X180548048Y-100131149D01*
X180345915Y-99928663D01*
X180081682Y-99818944D01*
X179795574Y-99818694D01*
X179531149Y-99927952D01*
X179328663Y-100130085D01*
X179218944Y-100394318D01*
X179218779Y-100583658D01*
X177090717Y-102711719D01*
X158527178Y-102711719D01*
X151962210Y-96146750D01*
X159553000Y-96146750D01*
X159553000Y-96214310D01*
X159649673Y-96447699D01*
X159804348Y-96602373D01*
X159804348Y-96888000D01*
X159830586Y-97027441D01*
X159869403Y-97087765D01*
X159834574Y-97138738D01*
X159804348Y-97288000D01*
X159804348Y-97688000D01*
X159830586Y-97827441D01*
X159869403Y-97887765D01*
X159834574Y-97938738D01*
X159804348Y-98088000D01*
X159804348Y-98488000D01*
X159830586Y-98627441D01*
X159869403Y-98687765D01*
X159834574Y-98738738D01*
X159804348Y-98888000D01*
X159804348Y-99288000D01*
X159830586Y-99427441D01*
X159912995Y-99555509D01*
X160038738Y-99641426D01*
X160188000Y-99671652D01*
X164188000Y-99671652D01*
X164327441Y-99645414D01*
X164453526Y-99564281D01*
X166990717Y-99564281D01*
X168718858Y-101292421D01*
X168718694Y-101480426D01*
X168827952Y-101744851D01*
X169030085Y-101947337D01*
X169294318Y-102057056D01*
X169580426Y-102057306D01*
X169844851Y-101948048D01*
X170047337Y-101745915D01*
X170157056Y-101481682D01*
X170157280Y-101225551D01*
X170344851Y-101148048D01*
X170547337Y-100945915D01*
X170657056Y-100681682D01*
X170657306Y-100395574D01*
X170548048Y-100131149D01*
X170400391Y-99983234D01*
X170378026Y-99870802D01*
X170359360Y-99842866D01*
X170274782Y-99716285D01*
X170274779Y-99716283D01*
X169814281Y-99255784D01*
X169814281Y-98188000D01*
X169778026Y-98005735D01*
X169674782Y-97851218D01*
X169674779Y-97851216D01*
X168174782Y-96351218D01*
X168020265Y-96247974D01*
X167838000Y-96211718D01*
X167837995Y-96211719D01*
X164823000Y-96211719D01*
X164823000Y-96146750D01*
X164664250Y-95988000D01*
X162315000Y-95988000D01*
X162315000Y-96035000D01*
X162061000Y-96035000D01*
X162061000Y-95988000D01*
X159711750Y-95988000D01*
X159553000Y-96146750D01*
X151962210Y-96146750D01*
X147428090Y-91612630D01*
X147428254Y-91424626D01*
X147318996Y-91160201D01*
X147116863Y-90957715D01*
X146852630Y-90847996D01*
X146566522Y-90847746D01*
X146302097Y-90957004D01*
X146237953Y-91021036D01*
X146045915Y-90828663D01*
X145781682Y-90718944D01*
X145495574Y-90718694D01*
X145231149Y-90827952D01*
X145028663Y-91030085D01*
X144918944Y-91294318D01*
X144918694Y-91580426D01*
X145027952Y-91844851D01*
X145230085Y-92047337D01*
X145494318Y-92157056D01*
X145683657Y-92157221D01*
X157638156Y-104111719D01*
X154357559Y-104111719D01*
X154357554Y-104111718D01*
X154205530Y-104141959D01*
X154175289Y-104147974D01*
X154020772Y-104251218D01*
X154020770Y-104251221D01*
X153707870Y-104564120D01*
X150668129Y-104564120D01*
X150355228Y-104251218D01*
X150200711Y-104147974D01*
X150018446Y-104111718D01*
X150018441Y-104111719D01*
X142228739Y-104111719D01*
X142095915Y-103978663D01*
X142071070Y-103968346D01*
X142107056Y-103881682D01*
X142107306Y-103595574D01*
X141998048Y-103331149D01*
X141795915Y-103128663D01*
X141531682Y-103018944D01*
X141342342Y-103018779D01*
X137964281Y-99640717D01*
X137964281Y-94515063D01*
X137964282Y-94515058D01*
X137928026Y-94332793D01*
X137909947Y-94305736D01*
X137824782Y-94178276D01*
X137824779Y-94178274D01*
X133797724Y-90151218D01*
X133643207Y-90047974D01*
X133460942Y-90011718D01*
X133460937Y-90011719D01*
X125035282Y-90011719D01*
X120457142Y-85433578D01*
X120457306Y-85245574D01*
X120348048Y-84981149D01*
X120145915Y-84778663D01*
X119881682Y-84668944D01*
X119595574Y-84668694D01*
X119331149Y-84777952D01*
X119128663Y-84980085D01*
X119018944Y-85244318D01*
X119018694Y-85530426D01*
X107639281Y-85530426D01*
X107639281Y-79088000D01*
X109804348Y-79088000D01*
X109804348Y-81088000D01*
X109830586Y-81227441D01*
X109912995Y-81355509D01*
X110038738Y-81441426D01*
X110188000Y-81471652D01*
X112188000Y-81471652D01*
X112327441Y-81445414D01*
X112455509Y-81363005D01*
X112541426Y-81237262D01*
X112571652Y-81088000D01*
X112571652Y-79088000D01*
X112545414Y-78948559D01*
X112463005Y-78820491D01*
X112337262Y-78734574D01*
X112188000Y-78704348D01*
X110188000Y-78704348D01*
X110048559Y-78730586D01*
X109920491Y-78812995D01*
X109834574Y-78938738D01*
X109804348Y-79088000D01*
X107639281Y-79088000D01*
X107639281Y-77230426D01*
X119968694Y-77230426D01*
X120077952Y-77494851D01*
X120280085Y-77697337D01*
X120544318Y-77807056D01*
X120733658Y-77807221D01*
X120885894Y-77959457D01*
X120885894Y-77977429D01*
X120885893Y-77977434D01*
X120922149Y-78159699D01*
X121025393Y-78314216D01*
X121400022Y-78688845D01*
X121231682Y-78618944D01*
X120945574Y-78618694D01*
X120681149Y-78727952D01*
X120478663Y-78930085D01*
X120368944Y-79194318D01*
X120368694Y-79480426D01*
X120477952Y-79744851D01*
X120680085Y-79947337D01*
X120944318Y-80057056D01*
X121133657Y-80057221D01*
X125101216Y-84024779D01*
X125101218Y-84024782D01*
X125255735Y-84128026D01*
X125285976Y-84134041D01*
X125438000Y-84164282D01*
X125438005Y-84164281D01*
X128997261Y-84164281D01*
X129130085Y-84297337D01*
X129394318Y-84407056D01*
X129680426Y-84407306D01*
X129944851Y-84298048D01*
X130147337Y-84095915D01*
X130257056Y-83831682D01*
X130257306Y-83545574D01*
X130182397Y-83364281D01*
X132497348Y-83364281D01*
X132680085Y-83547337D01*
X132944318Y-83657056D01*
X133230426Y-83657306D01*
X133494851Y-83548048D01*
X133697337Y-83345915D01*
X133807056Y-83081682D01*
X133807306Y-82795574D01*
X133698048Y-82531149D01*
X133495915Y-82328663D01*
X133231682Y-82218944D01*
X132945574Y-82218694D01*
X132681149Y-82327952D01*
X132597236Y-82411719D01*
X126470023Y-82411719D01*
X121838456Y-77780151D01*
X121838456Y-77762175D01*
X121802201Y-77579910D01*
X121698957Y-77425393D01*
X121698954Y-77425391D01*
X121407142Y-77133578D01*
X121407306Y-76945574D01*
X121298048Y-76681149D01*
X121095915Y-76478663D01*
X120831682Y-76368944D01*
X120545574Y-76368694D01*
X120281149Y-76477952D01*
X120078663Y-76680085D01*
X119968944Y-76944318D01*
X119968694Y-77230426D01*
X107639281Y-77230426D01*
X107639281Y-72760558D01*
X109811481Y-72760558D01*
X110020565Y-73266582D01*
X110407382Y-73654074D01*
X110913040Y-73864042D01*
X111460558Y-73864519D01*
X111966582Y-73655435D01*
X112354074Y-73268618D01*
X112564042Y-72762960D01*
X112564519Y-72215442D01*
X112355435Y-71709418D01*
X111968618Y-71321926D01*
X111462960Y-71111958D01*
X110915442Y-71111481D01*
X110409418Y-71320565D01*
X110021926Y-71707382D01*
X109811958Y-72213040D01*
X109811481Y-72760558D01*
X107639281Y-72760558D01*
X107639281Y-65238000D01*
X122454348Y-65238000D01*
X122454348Y-66938000D01*
X122480586Y-67077441D01*
X122562995Y-67205509D01*
X122688738Y-67291426D01*
X122838000Y-67321652D01*
X124538000Y-67321652D01*
X124677441Y-67295414D01*
X124805509Y-67213005D01*
X124891426Y-67087262D01*
X124921652Y-66938000D01*
X124921652Y-66063976D01*
X125001719Y-66063976D01*
X125001719Y-66112024D01*
X125095064Y-66581301D01*
X125360888Y-66979136D01*
X125758723Y-67244960D01*
X126228000Y-67338305D01*
X126697277Y-67244960D01*
X127095112Y-66979136D01*
X127360936Y-66581301D01*
X127454281Y-66112024D01*
X127454281Y-66063976D01*
X127360936Y-65594699D01*
X127095112Y-65196864D01*
X126697277Y-64931040D01*
X126228000Y-64837695D01*
X125758723Y-64931040D01*
X125360888Y-65196864D01*
X125095064Y-65594699D01*
X125001719Y-66063976D01*
X124921652Y-66063976D01*
X124921652Y-65238000D01*
X124895414Y-65098559D01*
X124813005Y-64970491D01*
X124687262Y-64884574D01*
X124538000Y-64854348D01*
X122838000Y-64854348D01*
X122698559Y-64880586D01*
X122570491Y-64962995D01*
X122484574Y-65088738D01*
X122454348Y-65238000D01*
X107639281Y-65238000D01*
X107639281Y-59664029D01*
X108891433Y-59664029D01*
X109141537Y-60269325D01*
X109604239Y-60732836D01*
X110209098Y-60983995D01*
X110864029Y-60984567D01*
X111469325Y-60734463D01*
X111932836Y-60271761D01*
X112183995Y-59666902D01*
X112183997Y-59664029D01*
X122191433Y-59664029D01*
X122441537Y-60269325D01*
X122904239Y-60732836D01*
X123509098Y-60983995D01*
X124164029Y-60984567D01*
X124769325Y-60734463D01*
X125232836Y-60271761D01*
X125483995Y-59666902D01*
X125484567Y-59011971D01*
X125234463Y-58406675D01*
X124771761Y-57943164D01*
X124166902Y-57692005D01*
X123511971Y-57691433D01*
X122906675Y-57941537D01*
X122443164Y-58404239D01*
X122192005Y-59009098D01*
X122191433Y-59664029D01*
X112183997Y-59664029D01*
X112184567Y-59011971D01*
X111934463Y-58406675D01*
X111471761Y-57943164D01*
X110866902Y-57692005D01*
X110211971Y-57691433D01*
X109606675Y-57941537D01*
X109143164Y-58404239D01*
X108892005Y-59009098D01*
X108891433Y-59664029D01*
X107639281Y-59664029D01*
X107639281Y-44164029D01*
X108891433Y-44164029D01*
X109141537Y-44769325D01*
X109604239Y-45232836D01*
X110209098Y-45483995D01*
X110864029Y-45484567D01*
X111469325Y-45234463D01*
X111932836Y-44771761D01*
X112183995Y-44166902D01*
X112184567Y-43511971D01*
X111934463Y-42906675D01*
X111471761Y-42443164D01*
X110866902Y-42192005D01*
X110211971Y-42191433D01*
X109606675Y-42441537D01*
X109143164Y-42904239D01*
X108892005Y-43509098D01*
X108891433Y-44164029D01*
X107639281Y-44164029D01*
X107639281Y-44132448D01*
X107993700Y-42350663D01*
X108168821Y-42088576D01*
X113422500Y-42088576D01*
X113614722Y-42553788D01*
X113970340Y-42910027D01*
X114435216Y-43103061D01*
X114938576Y-43103500D01*
X115030020Y-43065716D01*
X125710079Y-53745774D01*
X125672939Y-53835216D01*
X125672500Y-54338576D01*
X125864722Y-54803788D01*
X126220340Y-55160027D01*
X126685216Y-55353061D01*
X127188576Y-55353500D01*
X127280020Y-55315716D01*
X130835567Y-58871262D01*
X130911719Y-59055564D01*
X130911719Y-74220891D01*
X130818944Y-74444318D01*
X130818694Y-74730426D01*
X130927952Y-74994851D01*
X131130085Y-75197337D01*
X131394318Y-75307056D01*
X131680426Y-75307306D01*
X131944851Y-75198048D01*
X132147337Y-74995915D01*
X132257056Y-74731682D01*
X132257306Y-74445574D01*
X132233517Y-74388000D01*
X134161718Y-74388000D01*
X134161719Y-74388005D01*
X134161719Y-88522928D01*
X134161718Y-88522933D01*
X134197974Y-88705198D01*
X134301218Y-88859715D01*
X140166283Y-94724779D01*
X140166285Y-94724782D01*
X140309187Y-94820265D01*
X140320802Y-94828026D01*
X140433434Y-94850430D01*
X140580085Y-94997337D01*
X140844318Y-95107056D01*
X141130426Y-95107306D01*
X141394851Y-94998048D01*
X141597337Y-94795915D01*
X141707056Y-94531682D01*
X141707306Y-94245574D01*
X141598048Y-93981149D01*
X141395915Y-93778663D01*
X141131682Y-93668944D01*
X140845574Y-93668694D01*
X140581149Y-93777952D01*
X140573859Y-93785229D01*
X135114281Y-88325650D01*
X135114281Y-79413750D01*
X140671000Y-79413750D01*
X140671000Y-80016309D01*
X140767673Y-80249698D01*
X140946301Y-80428327D01*
X141179690Y-80525000D01*
X141782250Y-80525000D01*
X141941000Y-80366250D01*
X141941000Y-79255000D01*
X142195000Y-79255000D01*
X142195000Y-80366250D01*
X142353750Y-80525000D01*
X142956310Y-80525000D01*
X143189699Y-80428327D01*
X143368327Y-80249698D01*
X143465000Y-80016309D01*
X143465000Y-79413750D01*
X143306250Y-79255000D01*
X142195000Y-79255000D01*
X141941000Y-79255000D01*
X140829750Y-79255000D01*
X140671000Y-79413750D01*
X135114281Y-79413750D01*
X135114281Y-78239691D01*
X140671000Y-78239691D01*
X140671000Y-78842250D01*
X140829750Y-79001000D01*
X141941000Y-79001000D01*
X141941000Y-77889750D01*
X141782250Y-77731000D01*
X141179690Y-77731000D01*
X140946301Y-77827673D01*
X140767673Y-78006302D01*
X140671000Y-78239691D01*
X135114281Y-78239691D01*
X135114281Y-74585283D01*
X139468781Y-70230782D01*
X139468694Y-70330426D01*
X139577952Y-70594851D01*
X139780085Y-70797337D01*
X140044318Y-70907056D01*
X140330426Y-70907306D01*
X140594851Y-70798048D01*
X140621564Y-70771382D01*
X156918853Y-70771382D01*
X156856345Y-70921917D01*
X156856095Y-71208025D01*
X156965353Y-71472450D01*
X157099120Y-71606451D01*
X157099120Y-72570761D01*
X155712508Y-73957372D01*
X155524504Y-73957208D01*
X155260079Y-74066466D01*
X155057593Y-74268599D01*
X154947874Y-74532832D01*
X154947624Y-74818940D01*
X154985959Y-74911719D01*
X154707073Y-74911719D01*
X154707306Y-74645574D01*
X154598048Y-74381149D01*
X154395915Y-74178663D01*
X154131682Y-74068944D01*
X153845574Y-74068694D01*
X153581149Y-74177952D01*
X153447148Y-74311719D01*
X153207248Y-74311719D01*
X153207306Y-74245574D01*
X153098048Y-73981149D01*
X152895915Y-73778663D01*
X152631682Y-73668944D01*
X152345574Y-73668694D01*
X152081149Y-73777952D01*
X151878663Y-73980085D01*
X151772451Y-74235873D01*
X151731682Y-74218944D01*
X151445574Y-74218694D01*
X151181149Y-74327952D01*
X150978663Y-74530085D01*
X150976884Y-74534369D01*
X150693734Y-74251218D01*
X150539217Y-74147974D01*
X150356952Y-74111718D01*
X150356947Y-74111719D01*
X149778739Y-74111719D01*
X149645915Y-73978663D01*
X149381682Y-73868944D01*
X149095574Y-73868694D01*
X148831149Y-73977952D01*
X148628663Y-74180085D01*
X148518944Y-74444318D01*
X148518714Y-74707021D01*
X147530584Y-74707021D01*
X147407142Y-74583578D01*
X147407306Y-74395574D01*
X147298048Y-74131149D01*
X147095915Y-73928663D01*
X146831682Y-73818944D01*
X146545574Y-73818694D01*
X146281149Y-73927952D01*
X146078663Y-74130085D01*
X145968944Y-74394318D01*
X145968855Y-74496665D01*
X145781682Y-74418944D01*
X145495574Y-74418694D01*
X145231149Y-74527952D01*
X145028663Y-74730085D01*
X144998237Y-74803359D01*
X144546096Y-74351218D01*
X144391579Y-74247974D01*
X144209314Y-74211718D01*
X144209309Y-74211719D01*
X143428739Y-74211719D01*
X143295915Y-74078663D01*
X143031682Y-73968944D01*
X142745574Y-73968694D01*
X142481149Y-74077952D01*
X142278663Y-74280085D01*
X142177820Y-74522942D01*
X142056096Y-74401218D01*
X142015903Y-74374362D01*
X141998048Y-74331149D01*
X141795915Y-74128663D01*
X141531682Y-74018944D01*
X141245574Y-74018694D01*
X140981149Y-74127952D01*
X140778663Y-74330085D01*
X140668944Y-74594318D01*
X140668694Y-74880426D01*
X140777952Y-75144851D01*
X140980085Y-75347337D01*
X141244318Y-75457056D01*
X141530426Y-75457306D01*
X141696455Y-75388704D01*
X141782213Y-75474463D01*
X141424058Y-75622450D01*
X141103575Y-75942374D01*
X141095542Y-75961719D01*
X138717414Y-75961719D01*
X137160432Y-74404736D01*
X137068048Y-74181149D01*
X136865915Y-73978663D01*
X136601682Y-73868944D01*
X136315574Y-73868694D01*
X136051149Y-73977952D01*
X135848663Y-74180085D01*
X135738944Y-74444318D01*
X135738694Y-74730426D01*
X135847952Y-74994851D01*
X136050085Y-75197337D01*
X136275058Y-75290754D01*
X138015150Y-77030845D01*
X138015152Y-77030848D01*
X138100687Y-77088000D01*
X138218332Y-77166608D01*
X138458000Y-77214282D01*
X138458005Y-77214281D01*
X141095153Y-77214281D01*
X141102450Y-77231942D01*
X141422374Y-77552425D01*
X141840589Y-77726083D01*
X142293425Y-77726478D01*
X142312783Y-77718479D01*
X142339527Y-77745223D01*
X142195000Y-77889750D01*
X142195000Y-79001000D01*
X143306250Y-79001000D01*
X143450777Y-78856473D01*
X143477245Y-78882941D01*
X143469917Y-78900589D01*
X143469522Y-79353425D01*
X143642450Y-79771942D01*
X143962374Y-80092425D01*
X144380589Y-80266083D01*
X144833425Y-80266478D01*
X145251942Y-80093550D01*
X145572425Y-79773626D01*
X145657318Y-79569181D01*
X145657318Y-79614908D01*
X145657317Y-79614913D01*
X145693573Y-79797178D01*
X145796817Y-79951695D01*
X147569902Y-81724779D01*
X147569904Y-81724782D01*
X147724421Y-81828026D01*
X147754662Y-81834041D01*
X147906686Y-81864282D01*
X147906691Y-81864281D01*
X151640717Y-81864281D01*
X155668858Y-85892421D01*
X155668694Y-86080426D01*
X155681624Y-86111719D01*
X147828739Y-86111719D01*
X147695915Y-85978663D01*
X147431682Y-85868944D01*
X147145574Y-85868694D01*
X146881149Y-85977952D01*
X146678663Y-86180085D01*
X146568944Y-86444318D01*
X146568798Y-86611719D01*
X142278739Y-86611719D01*
X142145915Y-86478663D01*
X142141633Y-86476885D01*
X144104236Y-84514281D01*
X148797261Y-84514281D01*
X148930085Y-84647337D01*
X149194318Y-84757056D01*
X149480426Y-84757306D01*
X149744851Y-84648048D01*
X149947337Y-84445915D01*
X150057056Y-84181682D01*
X150057306Y-83895574D01*
X149948048Y-83631149D01*
X149745915Y-83428663D01*
X149481682Y-83318944D01*
X149195574Y-83318694D01*
X148931149Y-83427952D01*
X148797148Y-83561719D01*
X143906954Y-83561719D01*
X143724689Y-83597974D01*
X143570172Y-83701218D01*
X143570170Y-83701221D01*
X140558319Y-86713071D01*
X140455075Y-86867588D01*
X140418819Y-87049853D01*
X140418820Y-87049858D01*
X140418820Y-92195096D01*
X140418819Y-92195101D01*
X140455075Y-92377366D01*
X140518875Y-92472851D01*
X140518694Y-92680426D01*
X140627952Y-92944851D01*
X140830085Y-93147337D01*
X141094318Y-93257056D01*
X141380426Y-93257306D01*
X141644851Y-93148048D01*
X141847337Y-92945915D01*
X141957056Y-92681682D01*
X141957306Y-92395574D01*
X141848048Y-92131149D01*
X141645915Y-91928663D01*
X141381682Y-91818944D01*
X141371382Y-91818935D01*
X141371382Y-88916333D01*
X141414227Y-88934124D01*
X141700335Y-88934374D01*
X141964760Y-88825116D01*
X142098761Y-88691349D01*
X149069401Y-88691349D01*
X153948475Y-93570423D01*
X154102992Y-93673667D01*
X154285257Y-93709923D01*
X154285262Y-93709922D01*
X155447592Y-93709922D01*
X155580416Y-93842978D01*
X155844649Y-93952697D01*
X156130757Y-93952947D01*
X156395182Y-93843689D01*
X156597668Y-93641556D01*
X156707387Y-93377323D01*
X156707397Y-93365894D01*
X158166283Y-94824779D01*
X158166285Y-94824782D01*
X158320802Y-94928026D01*
X158351043Y-94934041D01*
X158433435Y-94950431D01*
X158580085Y-95097337D01*
X158844318Y-95207056D01*
X159130426Y-95207306D01*
X159394851Y-95098048D01*
X159597337Y-94895915D01*
X159603888Y-94880138D01*
X159711750Y-94988000D01*
X159789975Y-94988000D01*
X159828302Y-95026327D01*
X159977194Y-95088000D01*
X159828302Y-95149673D01*
X159789975Y-95188000D01*
X159711750Y-95188000D01*
X159553000Y-95346750D01*
X159553000Y-95414310D01*
X159583523Y-95488000D01*
X159553000Y-95561690D01*
X159553000Y-95629250D01*
X159711750Y-95788000D01*
X159789975Y-95788000D01*
X159828302Y-95826327D01*
X160061691Y-95923000D01*
X161902250Y-95923000D01*
X162037250Y-95788000D01*
X162061000Y-95788000D01*
X162061000Y-95188000D01*
X162037250Y-95188000D01*
X161937250Y-95088000D01*
X162037250Y-94988000D01*
X162061000Y-94988000D01*
X162061000Y-94388000D01*
X162041000Y-94388000D01*
X162041000Y-94188000D01*
X162061000Y-94188000D01*
X162061000Y-93588000D01*
X162037250Y-93588000D01*
X161902250Y-93453000D01*
X160061691Y-93453000D01*
X159828302Y-93549673D01*
X159789975Y-93588000D01*
X159711750Y-93588000D01*
X159553000Y-93746750D01*
X159553000Y-93814310D01*
X159583523Y-93888000D01*
X159553000Y-93961690D01*
X159553000Y-94029250D01*
X159684748Y-94160998D01*
X159631041Y-94160998D01*
X159598048Y-94081149D01*
X159395915Y-93878663D01*
X159131682Y-93768944D01*
X158845574Y-93768694D01*
X158581149Y-93877952D01*
X158573859Y-93885229D01*
X156953687Y-92265057D01*
X156994851Y-92248048D01*
X157197337Y-92045915D01*
X157307056Y-91781682D01*
X157307093Y-91739353D01*
X157328337Y-91735127D01*
X157348923Y-91721372D01*
X157351723Y-91728149D01*
X157553856Y-91930635D01*
X157818089Y-92040354D01*
X158104197Y-92040604D01*
X158368622Y-91931346D01*
X158502623Y-91797579D01*
X158862600Y-91797579D01*
X158862605Y-91797580D01*
X159044870Y-91761324D01*
X159199387Y-91658080D01*
X159642464Y-91215002D01*
X159684748Y-91215002D01*
X159553000Y-91346750D01*
X159553000Y-91414310D01*
X159649673Y-91647699D01*
X159804348Y-91802373D01*
X159804348Y-92088000D01*
X159830586Y-92227441D01*
X159869403Y-92287765D01*
X159834574Y-92338738D01*
X159804348Y-92488000D01*
X159804348Y-92773627D01*
X159649673Y-92928301D01*
X159553000Y-93161690D01*
X159553000Y-93229250D01*
X159711750Y-93388000D01*
X162061000Y-93388000D01*
X162061000Y-93341000D01*
X162315000Y-93341000D01*
X162315000Y-93388000D01*
X162335000Y-93388000D01*
X162335000Y-93588000D01*
X162315000Y-93588000D01*
X162315000Y-94188000D01*
X162338750Y-94188000D01*
X162438750Y-94288000D01*
X162338750Y-94388000D01*
X162315000Y-94388000D01*
X162315000Y-94988000D01*
X162338750Y-94988000D01*
X162438750Y-95088000D01*
X162338750Y-95188000D01*
X162315000Y-95188000D01*
X162315000Y-95788000D01*
X162338750Y-95788000D01*
X162473750Y-95923000D01*
X164314309Y-95923000D01*
X164547698Y-95826327D01*
X164586025Y-95788000D01*
X164664250Y-95788000D01*
X164823000Y-95629250D01*
X164823000Y-95561690D01*
X164792477Y-95488000D01*
X164823000Y-95414310D01*
X164823000Y-95346750D01*
X164664250Y-95188000D01*
X164586025Y-95188000D01*
X164547698Y-95149673D01*
X164398806Y-95088000D01*
X164547698Y-95026327D01*
X164586025Y-94988000D01*
X164664250Y-94988000D01*
X164823000Y-94829250D01*
X164823000Y-94761690D01*
X164792477Y-94688000D01*
X164823000Y-94614310D01*
X164823000Y-94546750D01*
X164664250Y-94388000D01*
X164586025Y-94388000D01*
X164547698Y-94349673D01*
X164398806Y-94288000D01*
X164547698Y-94226327D01*
X164586025Y-94188000D01*
X164620764Y-94188000D01*
X164630085Y-94197337D01*
X164894318Y-94307056D01*
X165180426Y-94307306D01*
X165444851Y-94198048D01*
X165647337Y-93995915D01*
X165757056Y-93731682D01*
X165757306Y-93445574D01*
X165648048Y-93181149D01*
X165445915Y-92978663D01*
X165181682Y-92868944D01*
X164895574Y-92868694D01*
X164857846Y-92884283D01*
X164571652Y-92598088D01*
X164571652Y-92564597D01*
X164794318Y-92657056D01*
X165080426Y-92657306D01*
X165344851Y-92548048D01*
X165547337Y-92345915D01*
X165657056Y-92081682D01*
X165657306Y-91795574D01*
X165548048Y-91531149D01*
X165345915Y-91328663D01*
X165081682Y-91218944D01*
X164795574Y-91218694D01*
X164724366Y-91248116D01*
X164664250Y-91188000D01*
X162315000Y-91188000D01*
X162315000Y-91235000D01*
X162061000Y-91235000D01*
X162061000Y-91188000D01*
X162041000Y-91188000D01*
X162041000Y-90988000D01*
X162061000Y-90988000D01*
X162061000Y-90941000D01*
X162315000Y-90941000D01*
X162315000Y-90988000D01*
X164664250Y-90988000D01*
X164823000Y-90829250D01*
X164823000Y-90764281D01*
X173152765Y-90764281D01*
X173186056Y-90844851D01*
X173388189Y-91047337D01*
X173652422Y-91157056D01*
X173841762Y-91157221D01*
X178472910Y-95788369D01*
X178472746Y-95976374D01*
X178582004Y-96240799D01*
X178784137Y-96443285D01*
X179048370Y-96553004D01*
X179334478Y-96553254D01*
X179598903Y-96443996D01*
X179784830Y-96258393D01*
X181811719Y-98285282D01*
X181811719Y-100047261D01*
X181678663Y-100180085D01*
X181568944Y-100444318D01*
X181568694Y-100730426D01*
X181677952Y-100994851D01*
X181880085Y-101197337D01*
X182144318Y-101307056D01*
X182430426Y-101307306D01*
X182694851Y-101198048D01*
X182897337Y-100995915D01*
X183007056Y-100731682D01*
X183007306Y-100445574D01*
X182898048Y-100181149D01*
X182764281Y-100047148D01*
X182764281Y-98088005D01*
X182764282Y-98088000D01*
X182728026Y-97905736D01*
X182728026Y-97905735D01*
X182624782Y-97751218D01*
X182624779Y-97751216D01*
X180783145Y-95909582D01*
X180836018Y-95909582D01*
X184361719Y-99435282D01*
X184361719Y-100047261D01*
X184228663Y-100180085D01*
X184118944Y-100444318D01*
X184118694Y-100730426D01*
X184227952Y-100994851D01*
X184430085Y-101197337D01*
X184694318Y-101307056D01*
X184980426Y-101307306D01*
X185244851Y-101198048D01*
X185447337Y-100995915D01*
X185557056Y-100731682D01*
X185557306Y-100445574D01*
X185448048Y-100181149D01*
X185314281Y-100047148D01*
X185314281Y-99238005D01*
X185314282Y-99238000D01*
X185280916Y-99070264D01*
X185278026Y-99055735D01*
X185174782Y-98901218D01*
X185174779Y-98901216D01*
X182253990Y-95980426D01*
X182468694Y-95980426D01*
X182577952Y-96244851D01*
X182780085Y-96447337D01*
X183044318Y-96557056D01*
X183330426Y-96557306D01*
X183594851Y-96448048D01*
X183797337Y-96245915D01*
X183907056Y-95981682D01*
X183907221Y-95792342D01*
X184724779Y-94974784D01*
X184724782Y-94974782D01*
X184828026Y-94820265D01*
X184864281Y-94638000D01*
X184864281Y-90538005D01*
X184864282Y-90538000D01*
X184828026Y-90355736D01*
X184828026Y-90355735D01*
X184757128Y-90249627D01*
X184757306Y-90045574D01*
X184648048Y-89781149D01*
X184445915Y-89578663D01*
X184181682Y-89468944D01*
X183895574Y-89468694D01*
X183631149Y-89577952D01*
X183428663Y-89780085D01*
X183318944Y-90044318D01*
X183318694Y-90330426D01*
X183427952Y-90594851D01*
X183630085Y-90797337D01*
X183894318Y-90907056D01*
X183911719Y-90907071D01*
X183911719Y-94440718D01*
X183233578Y-95118858D01*
X183045574Y-95118694D01*
X182781149Y-95227952D01*
X182578663Y-95430085D01*
X182468944Y-95694318D01*
X182468694Y-95980426D01*
X182253990Y-95980426D01*
X181370083Y-95096519D01*
X181215566Y-94993275D01*
X181202353Y-94990647D01*
X181347337Y-94845915D01*
X181457056Y-94581682D01*
X181457236Y-94376211D01*
X181528026Y-94270265D01*
X181542406Y-94197974D01*
X181564282Y-94088000D01*
X181564281Y-94087995D01*
X181564281Y-89328739D01*
X181697337Y-89195915D01*
X181807056Y-88931682D01*
X181807306Y-88645574D01*
X181698048Y-88381149D01*
X181495915Y-88178663D01*
X181231682Y-88068944D01*
X180945574Y-88068694D01*
X180681149Y-88177952D01*
X180478663Y-88380085D01*
X180368944Y-88644318D01*
X180368694Y-88930426D01*
X180477952Y-89194851D01*
X180611719Y-89328852D01*
X180611719Y-93718708D01*
X180595574Y-93718694D01*
X180331149Y-93827952D01*
X180128663Y-94030085D01*
X180037723Y-94249093D01*
X176090936Y-90302305D01*
X176097337Y-90295915D01*
X176207056Y-90031682D01*
X176207306Y-89745574D01*
X176098048Y-89481149D01*
X175895915Y-89278663D01*
X175631682Y-89168944D01*
X175442342Y-89168779D01*
X173272495Y-86998931D01*
X173117978Y-86895687D01*
X172935713Y-86859431D01*
X172935708Y-86859432D01*
X168194121Y-86859432D01*
X168465429Y-86588124D01*
X168465432Y-86588122D01*
X168568676Y-86433605D01*
X168573030Y-86411718D01*
X168604932Y-86251340D01*
X168604931Y-86251335D01*
X168604931Y-84647607D01*
X168604932Y-84647602D01*
X168568676Y-84465337D01*
X168529734Y-84407056D01*
X168465432Y-84310820D01*
X168465429Y-84310818D01*
X167810528Y-83655916D01*
X167656011Y-83552672D01*
X167473746Y-83516416D01*
X167473741Y-83516417D01*
X160177012Y-83516417D01*
X166983258Y-76710169D01*
X176546253Y-76710169D01*
X176679077Y-76843225D01*
X176943310Y-76952944D01*
X177229418Y-76953194D01*
X177493843Y-76843936D01*
X177696329Y-76641803D01*
X177806048Y-76377570D01*
X177806298Y-76091462D01*
X177697040Y-75827037D01*
X177494907Y-75624551D01*
X177230674Y-75514832D01*
X176944566Y-75514582D01*
X176680141Y-75623840D01*
X176546140Y-75757607D01*
X166785981Y-75757607D01*
X166785976Y-75757606D01*
X166633952Y-75787847D01*
X166603711Y-75793862D01*
X166449194Y-75897106D01*
X166449192Y-75897109D01*
X157977725Y-84368578D01*
X157759674Y-84278035D01*
X157570334Y-84277870D01*
X153685941Y-80393477D01*
X153912835Y-80487691D01*
X154198943Y-80487941D01*
X154463368Y-80378683D01*
X154611283Y-80231026D01*
X154723715Y-80208661D01*
X154878232Y-80105417D01*
X157727612Y-77256036D01*
X157727615Y-77256034D01*
X157830859Y-77101517D01*
X157838039Y-77065421D01*
X157867115Y-76919252D01*
X157867114Y-76919247D01*
X157867114Y-75058627D01*
X158000170Y-74925803D01*
X158109889Y-74661570D01*
X158110139Y-74375462D01*
X158000881Y-74111037D01*
X157798748Y-73908551D01*
X157534515Y-73798832D01*
X157248407Y-73798582D01*
X157197315Y-73819693D01*
X157912180Y-73104827D01*
X157912183Y-73104825D01*
X158015427Y-72950308D01*
X158051683Y-72768043D01*
X158051682Y-72768038D01*
X158051682Y-71606338D01*
X158184738Y-71473514D01*
X158294457Y-71209281D01*
X158294707Y-70923173D01*
X158231988Y-70771382D01*
X159426936Y-70771382D01*
X159477952Y-70894851D01*
X159680085Y-71097337D01*
X159944318Y-71207056D01*
X160230426Y-71207306D01*
X160494851Y-71098048D01*
X160697337Y-70895915D01*
X160807056Y-70631682D01*
X160807306Y-70345574D01*
X160698048Y-70081149D01*
X160495915Y-69878663D01*
X160270942Y-69785246D01*
X160187949Y-69702253D01*
X159984768Y-69566493D01*
X159745101Y-69518819D01*
X159745096Y-69518820D01*
X140451797Y-69518820D01*
X140331682Y-69468944D01*
X140230708Y-69468856D01*
X141635587Y-68063976D01*
X175341719Y-68063976D01*
X175341719Y-68112024D01*
X175435064Y-68581301D01*
X175700888Y-68979136D01*
X176098723Y-69244960D01*
X176568000Y-69338305D01*
X177037277Y-69244960D01*
X177435112Y-68979136D01*
X177700936Y-68581301D01*
X177794281Y-68112024D01*
X177794281Y-68063976D01*
X177881719Y-68063976D01*
X177881719Y-68112024D01*
X177975064Y-68581301D01*
X178240888Y-68979136D01*
X178638723Y-69244960D01*
X179108000Y-69338305D01*
X179577277Y-69244960D01*
X179975112Y-68979136D01*
X180240936Y-68581301D01*
X180334281Y-68112024D01*
X180334281Y-68063976D01*
X180240936Y-67594699D01*
X179975112Y-67196864D01*
X179577277Y-66931040D01*
X179108000Y-66837695D01*
X178638723Y-66931040D01*
X178240888Y-67196864D01*
X177975064Y-67594699D01*
X177881719Y-68063976D01*
X177794281Y-68063976D01*
X177700936Y-67594699D01*
X177435112Y-67196864D01*
X177037277Y-66931040D01*
X176568000Y-66837695D01*
X176098723Y-66931040D01*
X175700888Y-67196864D01*
X175435064Y-67594699D01*
X175341719Y-68063976D01*
X141635587Y-68063976D01*
X143192421Y-66507142D01*
X143380426Y-66507306D01*
X143644851Y-66398048D01*
X143847337Y-66195915D01*
X143957056Y-65931682D01*
X143957306Y-65645574D01*
X143848048Y-65381149D01*
X143645915Y-65178663D01*
X143381682Y-65068944D01*
X143095574Y-65068694D01*
X142831149Y-65177952D01*
X142628663Y-65380085D01*
X142518944Y-65644318D01*
X142518779Y-65833658D01*
X134301218Y-74051218D01*
X134197974Y-74205735D01*
X134161718Y-74388000D01*
X132233517Y-74388000D01*
X132164281Y-74220436D01*
X132164281Y-59055109D01*
X132257056Y-58831682D01*
X132257306Y-58545574D01*
X132148048Y-58281149D01*
X131945915Y-58078663D01*
X131720941Y-57985246D01*
X128165921Y-54430226D01*
X128203061Y-54340784D01*
X128203500Y-53837424D01*
X128011278Y-53372212D01*
X127655660Y-53015973D01*
X127202339Y-52827737D01*
X127430128Y-52733616D01*
X139478891Y-64782378D01*
X139478893Y-64782381D01*
X139633410Y-64885625D01*
X139663651Y-64891640D01*
X139815675Y-64921881D01*
X139815680Y-64921880D01*
X175523811Y-64921880D01*
X175435064Y-65054699D01*
X175341719Y-65523976D01*
X175341719Y-65572024D01*
X175435064Y-66041301D01*
X175700888Y-66439136D01*
X176098723Y-66704960D01*
X176568000Y-66798305D01*
X177037277Y-66704960D01*
X177435112Y-66439136D01*
X177700936Y-66041301D01*
X177794281Y-65572024D01*
X177794281Y-65523976D01*
X177700936Y-65054699D01*
X177612189Y-64921880D01*
X178063811Y-64921880D01*
X177975064Y-65054699D01*
X177881719Y-65523976D01*
X177881719Y-65572024D01*
X177975064Y-66041301D01*
X178240888Y-66439136D01*
X178638723Y-66704960D01*
X179108000Y-66798305D01*
X179577277Y-66704960D01*
X179975112Y-66439136D01*
X180069318Y-66298146D01*
X180069318Y-66985594D01*
X180069317Y-66985599D01*
X180105573Y-67167864D01*
X180208817Y-67322381D01*
X180461217Y-67574780D01*
X180461219Y-67574783D01*
X180509435Y-67622999D01*
X180421719Y-68063976D01*
X180421719Y-68112024D01*
X180515064Y-68581301D01*
X180780888Y-68979136D01*
X181178723Y-69244960D01*
X181648000Y-69338305D01*
X182117277Y-69244960D01*
X182515112Y-68979136D01*
X182780936Y-68581301D01*
X182810797Y-68431182D01*
X182954348Y-68527099D01*
X182954348Y-68938000D01*
X182980586Y-69077441D01*
X183062995Y-69205509D01*
X183188738Y-69291426D01*
X183338000Y-69321652D01*
X185038000Y-69321652D01*
X185177441Y-69295414D01*
X185305509Y-69213005D01*
X185391426Y-69087262D01*
X185421652Y-68938000D01*
X185421652Y-67238000D01*
X185395414Y-67098559D01*
X185313005Y-66970491D01*
X185187262Y-66884574D01*
X185038000Y-66854348D01*
X183338000Y-66854348D01*
X183226682Y-66875294D01*
X183226682Y-66298146D01*
X183320888Y-66439136D01*
X183718723Y-66704960D01*
X184188000Y-66798305D01*
X184657277Y-66704960D01*
X185055112Y-66439136D01*
X185320936Y-66041301D01*
X185414281Y-65572024D01*
X185414281Y-65523976D01*
X185320936Y-65054699D01*
X185055112Y-64656864D01*
X184657277Y-64391040D01*
X184188000Y-64297695D01*
X183718723Y-64391040D01*
X183320888Y-64656864D01*
X183192808Y-64848550D01*
X183190427Y-64836582D01*
X183087183Y-64682065D01*
X180610272Y-62205154D01*
X180760027Y-62055660D01*
X180953061Y-61590784D01*
X180953500Y-61087424D01*
X180761278Y-60622212D01*
X180405660Y-60265973D01*
X179940784Y-60072939D01*
X179437424Y-60072500D01*
X179345979Y-60110284D01*
X178899724Y-59664029D01*
X182191433Y-59664029D01*
X182441537Y-60269325D01*
X182904239Y-60732836D01*
X183509098Y-60983995D01*
X184164029Y-60984567D01*
X184769325Y-60734463D01*
X185232836Y-60271761D01*
X185483995Y-59666902D01*
X185484567Y-59011971D01*
X185234463Y-58406675D01*
X184771761Y-57943164D01*
X184166902Y-57692005D01*
X183511971Y-57691433D01*
X182906675Y-57941537D01*
X182443164Y-58404239D01*
X182192005Y-59009098D01*
X182191433Y-59664029D01*
X178899724Y-59664029D01*
X168665921Y-49430226D01*
X168703061Y-49340784D01*
X168703500Y-48837424D01*
X168511278Y-48372212D01*
X168155660Y-48015973D01*
X167690784Y-47822939D01*
X167187424Y-47822500D01*
X166722212Y-48014722D01*
X166365973Y-48370340D01*
X166172939Y-48835216D01*
X166172500Y-49338576D01*
X166364722Y-49803788D01*
X166720340Y-50160027D01*
X167173661Y-50348263D01*
X166722212Y-50534798D01*
X166365973Y-50890416D01*
X166172939Y-51355292D01*
X166172500Y-51858652D01*
X166364722Y-52323864D01*
X166720340Y-52680103D01*
X166772340Y-52701695D01*
X166630467Y-52760461D01*
X166545409Y-53015804D01*
X167438000Y-53908395D01*
X168330591Y-53015804D01*
X168245533Y-52760461D01*
X168095202Y-52705561D01*
X168153788Y-52681354D01*
X168510027Y-52325736D01*
X168610257Y-52084357D01*
X168950067Y-52084357D01*
X176938212Y-60072501D01*
X176937424Y-60072500D01*
X176472212Y-60264722D01*
X176115973Y-60620340D01*
X176084330Y-60696544D01*
X176015539Y-60530467D01*
X175760196Y-60445409D01*
X174867605Y-61338000D01*
X174881748Y-61352143D01*
X174702143Y-61531748D01*
X174688000Y-61517605D01*
X174673858Y-61531748D01*
X174494253Y-61352143D01*
X174508395Y-61338000D01*
X173615804Y-60445409D01*
X173360461Y-60530467D01*
X173152484Y-61099965D01*
X173178277Y-61705700D01*
X173301472Y-62003120D01*
X142215958Y-62003120D01*
X136086588Y-55873750D01*
X138428000Y-55873750D01*
X138428000Y-56214309D01*
X138524673Y-56447698D01*
X138703301Y-56626327D01*
X138936690Y-56723000D01*
X138963875Y-56723000D01*
X138923559Y-56730586D01*
X138795491Y-56812995D01*
X138709574Y-56938738D01*
X138679348Y-57088000D01*
X138679348Y-58088000D01*
X138705586Y-58227441D01*
X138787995Y-58355509D01*
X138913738Y-58441426D01*
X139063000Y-58471652D01*
X140313000Y-58471652D01*
X140452441Y-58445414D01*
X140580509Y-58363005D01*
X140666426Y-58237262D01*
X140671080Y-58214281D01*
X141024002Y-58214281D01*
X141077952Y-58344851D01*
X141280085Y-58547337D01*
X141505059Y-58640754D01*
X141523950Y-58659645D01*
X141523952Y-58659648D01*
X141609487Y-58716800D01*
X141727133Y-58795408D01*
X141966800Y-58843082D01*
X141966805Y-58843081D01*
X143528110Y-58843081D01*
X143530586Y-58856241D01*
X143612995Y-58984309D01*
X143738738Y-59070226D01*
X143888000Y-59100452D01*
X145488000Y-59100452D01*
X145627441Y-59074214D01*
X145755509Y-58991805D01*
X145841426Y-58866062D01*
X145871652Y-58716800D01*
X145871652Y-57716800D01*
X148504348Y-57716800D01*
X148504348Y-58716800D01*
X148530586Y-58856241D01*
X148612995Y-58984309D01*
X148738738Y-59070226D01*
X148888000Y-59100452D01*
X148961719Y-59100452D01*
X148961719Y-59197261D01*
X148828663Y-59330085D01*
X148718944Y-59594318D01*
X148718694Y-59880426D01*
X148827952Y-60144851D01*
X149030085Y-60347337D01*
X149294318Y-60457056D01*
X149580426Y-60457306D01*
X149844851Y-60348048D01*
X150047337Y-60145915D01*
X150157056Y-59881682D01*
X150157246Y-59664029D01*
X168891433Y-59664029D01*
X169141537Y-60269325D01*
X169604239Y-60732836D01*
X170209098Y-60983995D01*
X170864029Y-60984567D01*
X171469325Y-60734463D01*
X171932836Y-60271761D01*
X171935309Y-60265804D01*
X173795409Y-60265804D01*
X174688000Y-61158395D01*
X175580591Y-60265804D01*
X175495533Y-60010461D01*
X174926035Y-59802484D01*
X174320300Y-59828277D01*
X173880467Y-60010461D01*
X173795409Y-60265804D01*
X171935309Y-60265804D01*
X172183995Y-59666902D01*
X172184567Y-59011971D01*
X171934463Y-58406675D01*
X171471761Y-57943164D01*
X170866902Y-57692005D01*
X170211971Y-57691433D01*
X169606675Y-57941537D01*
X169143164Y-58404239D01*
X168892005Y-59009098D01*
X168891433Y-59664029D01*
X150157246Y-59664029D01*
X150157306Y-59595574D01*
X150048048Y-59331149D01*
X149914281Y-59197148D01*
X149914281Y-59100452D01*
X150488000Y-59100452D01*
X150627441Y-59074214D01*
X150755509Y-58991805D01*
X150841426Y-58866062D01*
X150871652Y-58716800D01*
X150871652Y-57716800D01*
X150845414Y-57577359D01*
X150763005Y-57449291D01*
X150637262Y-57363374D01*
X150488000Y-57333148D01*
X148888000Y-57333148D01*
X148748559Y-57359386D01*
X148620491Y-57441795D01*
X148534574Y-57567538D01*
X148504348Y-57716800D01*
X145871652Y-57716800D01*
X145845414Y-57577359D01*
X145763005Y-57449291D01*
X145637262Y-57363374D01*
X145488000Y-57333148D01*
X143888000Y-57333148D01*
X143748559Y-57359386D01*
X143620491Y-57441795D01*
X143534574Y-57567538D01*
X143529920Y-57590519D01*
X142322579Y-57590519D01*
X142298048Y-57531149D01*
X142095915Y-57328663D01*
X141870942Y-57235246D01*
X141780848Y-57145152D01*
X141577667Y-57009392D01*
X141338000Y-56961718D01*
X141337995Y-56961719D01*
X140672890Y-56961719D01*
X140670414Y-56948559D01*
X140588005Y-56820491D01*
X140462262Y-56734574D01*
X140405107Y-56723000D01*
X140439310Y-56723000D01*
X140672699Y-56626327D01*
X140851327Y-56447698D01*
X140948000Y-56214309D01*
X140948000Y-55873750D01*
X140789250Y-55715000D01*
X139815000Y-55715000D01*
X139815000Y-55735000D01*
X139561000Y-55735000D01*
X139561000Y-55715000D01*
X138586750Y-55715000D01*
X138428000Y-55873750D01*
X136086588Y-55873750D01*
X135174529Y-54961691D01*
X138428000Y-54961691D01*
X138428000Y-55302250D01*
X138586750Y-55461000D01*
X139561000Y-55461000D01*
X139561000Y-54611750D01*
X139815000Y-54611750D01*
X139815000Y-55461000D01*
X140789250Y-55461000D01*
X140948000Y-55302250D01*
X140948000Y-54961691D01*
X140851327Y-54728302D01*
X140672699Y-54549673D01*
X140593337Y-54516800D01*
X143504348Y-54516800D01*
X143504348Y-55516800D01*
X143530586Y-55656241D01*
X143612995Y-55784309D01*
X143738738Y-55870226D01*
X143888000Y-55900452D01*
X145488000Y-55900452D01*
X145627441Y-55874214D01*
X145755509Y-55791805D01*
X145841426Y-55666062D01*
X145871652Y-55516800D01*
X145871652Y-55302550D01*
X148253000Y-55302550D01*
X148253000Y-55643110D01*
X148349673Y-55876499D01*
X148528302Y-56055127D01*
X148761691Y-56151800D01*
X149402250Y-56151800D01*
X149561000Y-55993050D01*
X149561000Y-55143800D01*
X149815000Y-55143800D01*
X149815000Y-55993050D01*
X149973750Y-56151800D01*
X150614309Y-56151800D01*
X150847698Y-56055127D01*
X151026327Y-55876499D01*
X151123000Y-55643110D01*
X151123000Y-55302550D01*
X150980646Y-55160196D01*
X166545409Y-55160196D01*
X166630467Y-55415539D01*
X167199965Y-55623516D01*
X167805700Y-55597723D01*
X168245533Y-55415539D01*
X168330591Y-55160196D01*
X167438000Y-54267605D01*
X166545409Y-55160196D01*
X150980646Y-55160196D01*
X150964250Y-55143800D01*
X149815000Y-55143800D01*
X149561000Y-55143800D01*
X148411750Y-55143800D01*
X148253000Y-55302550D01*
X145871652Y-55302550D01*
X145871652Y-54516800D01*
X145847885Y-54390490D01*
X148253000Y-54390490D01*
X148253000Y-54731050D01*
X148411750Y-54889800D01*
X149561000Y-54889800D01*
X149561000Y-54040550D01*
X149815000Y-54040550D01*
X149815000Y-54889800D01*
X150964250Y-54889800D01*
X151123000Y-54731050D01*
X151123000Y-54390490D01*
X151026327Y-54157101D01*
X150847698Y-53978473D01*
X150614309Y-53881800D01*
X149973750Y-53881800D01*
X149815000Y-54040550D01*
X149561000Y-54040550D01*
X149402250Y-53881800D01*
X148761691Y-53881800D01*
X148528302Y-53978473D01*
X148349673Y-54157101D01*
X148253000Y-54390490D01*
X145847885Y-54390490D01*
X145845414Y-54377359D01*
X145763005Y-54249291D01*
X145637262Y-54163374D01*
X145488000Y-54133148D01*
X143888000Y-54133148D01*
X143748559Y-54159386D01*
X143620491Y-54241795D01*
X143534574Y-54367538D01*
X143504348Y-54516800D01*
X140593337Y-54516800D01*
X140439310Y-54453000D01*
X139973750Y-54453000D01*
X139815000Y-54611750D01*
X139561000Y-54611750D01*
X139402250Y-54453000D01*
X138936690Y-54453000D01*
X138703301Y-54549673D01*
X138524673Y-54728302D01*
X138428000Y-54961691D01*
X135174529Y-54961691D01*
X134062803Y-53849965D01*
X165902484Y-53849965D01*
X165928277Y-54455700D01*
X166110461Y-54895533D01*
X166365804Y-54980591D01*
X167258395Y-54088000D01*
X167617605Y-54088000D01*
X168510196Y-54980591D01*
X168765539Y-54895533D01*
X168973516Y-54326035D01*
X168947723Y-53720300D01*
X168765539Y-53280467D01*
X168510196Y-53195409D01*
X167617605Y-54088000D01*
X167258395Y-54088000D01*
X166365804Y-53195409D01*
X166110461Y-53280467D01*
X165902484Y-53849965D01*
X134062803Y-53849965D01*
X125236457Y-45023619D01*
X125083151Y-44921184D01*
X125232836Y-44771761D01*
X125483995Y-44166902D01*
X125484567Y-43511971D01*
X125234463Y-42906675D01*
X124771761Y-42443164D01*
X124166902Y-42192005D01*
X123511971Y-42191433D01*
X122906675Y-42441537D01*
X122443164Y-42904239D01*
X122192005Y-43509098D01*
X122191433Y-44164029D01*
X122441537Y-44769325D01*
X122556132Y-44884120D01*
X120907683Y-44884120D01*
X119366656Y-43343092D01*
X119449965Y-43373516D01*
X120055700Y-43347723D01*
X120495533Y-43165539D01*
X120580591Y-42910196D01*
X119688000Y-42017605D01*
X119673858Y-42031748D01*
X119494253Y-41852143D01*
X119508395Y-41838000D01*
X119867605Y-41838000D01*
X120760196Y-42730591D01*
X121015539Y-42645533D01*
X121223516Y-42076035D01*
X121214903Y-41873750D01*
X143251000Y-41873750D01*
X143251000Y-43746310D01*
X143347673Y-43979699D01*
X143526302Y-44158327D01*
X143759691Y-44255000D01*
X144362250Y-44255000D01*
X144521000Y-44096250D01*
X144521000Y-41715000D01*
X144775000Y-41715000D01*
X144775000Y-44096250D01*
X144933750Y-44255000D01*
X145536309Y-44255000D01*
X145769698Y-44158327D01*
X145948327Y-43979699D01*
X146045000Y-43746310D01*
X146045000Y-41873750D01*
X148331000Y-41873750D01*
X148331000Y-43746310D01*
X148427673Y-43979699D01*
X148606302Y-44158327D01*
X148839691Y-44255000D01*
X149442250Y-44255000D01*
X149601000Y-44096250D01*
X149601000Y-41715000D01*
X149855000Y-41715000D01*
X149855000Y-44096250D01*
X150013750Y-44255000D01*
X150616309Y-44255000D01*
X150835932Y-44164029D01*
X168891433Y-44164029D01*
X169141537Y-44769325D01*
X169604239Y-45232836D01*
X170209098Y-45483995D01*
X170864029Y-45484567D01*
X171469325Y-45234463D01*
X171932836Y-44771761D01*
X172183995Y-44166902D01*
X172183997Y-44164029D01*
X182191433Y-44164029D01*
X182441537Y-44769325D01*
X182904239Y-45232836D01*
X183509098Y-45483995D01*
X184164029Y-45484567D01*
X184769325Y-45234463D01*
X185232836Y-44771761D01*
X185483995Y-44166902D01*
X185484567Y-43511971D01*
X185234463Y-42906675D01*
X184771761Y-42443164D01*
X184166902Y-42192005D01*
X183511971Y-42191433D01*
X182906675Y-42441537D01*
X182443164Y-42904239D01*
X182192005Y-43509098D01*
X182191433Y-44164029D01*
X172183997Y-44164029D01*
X172184567Y-43511971D01*
X171934463Y-42906675D01*
X171471761Y-42443164D01*
X170866902Y-42192005D01*
X170211971Y-42191433D01*
X169606675Y-42441537D01*
X169143164Y-42904239D01*
X168892005Y-43509098D01*
X168891433Y-44164029D01*
X150835932Y-44164029D01*
X150849698Y-44158327D01*
X151028327Y-43979699D01*
X151125000Y-43746310D01*
X151125000Y-41873750D01*
X150966250Y-41715000D01*
X149855000Y-41715000D01*
X149601000Y-41715000D01*
X148489750Y-41715000D01*
X148331000Y-41873750D01*
X146045000Y-41873750D01*
X145886250Y-41715000D01*
X144775000Y-41715000D01*
X144521000Y-41715000D01*
X143409750Y-41715000D01*
X143251000Y-41873750D01*
X121214903Y-41873750D01*
X121197723Y-41470300D01*
X121015539Y-41030467D01*
X120760196Y-40945409D01*
X119867605Y-41838000D01*
X119508395Y-41838000D01*
X118615804Y-40945409D01*
X118360461Y-41030467D01*
X118296142Y-41206590D01*
X118261278Y-41122212D01*
X117905660Y-40765973D01*
X117905254Y-40765804D01*
X118795409Y-40765804D01*
X119688000Y-41658395D01*
X120580591Y-40765804D01*
X120495533Y-40510461D01*
X119926035Y-40302484D01*
X119320300Y-40328277D01*
X118880467Y-40510461D01*
X118795409Y-40765804D01*
X117905254Y-40765804D01*
X117440784Y-40572939D01*
X116937424Y-40572500D01*
X116472212Y-40764722D01*
X116115973Y-41120340D01*
X115937800Y-41549427D01*
X115761278Y-41122212D01*
X115405660Y-40765973D01*
X114940784Y-40572939D01*
X114437424Y-40572500D01*
X113972212Y-40764722D01*
X113615973Y-41120340D01*
X113422939Y-41585216D01*
X113422500Y-42088576D01*
X108168821Y-42088576D01*
X108977823Y-40877820D01*
X110450664Y-39893700D01*
X112232448Y-39539281D01*
X143251000Y-39539281D01*
X143251000Y-41302250D01*
G36*
X164588747Y-87738787D02*
X164644050Y-87775739D01*
X164826315Y-87811995D01*
X164826320Y-87811994D01*
X172738430Y-87811994D01*
X173695261Y-88768825D01*
X173545574Y-88768694D01*
X173281149Y-88877952D01*
X173147148Y-89011719D01*
X164546599Y-89011719D01*
X164571652Y-88888000D01*
X164571652Y-88488000D01*
X164545414Y-88348559D01*
X164506597Y-88288235D01*
X164541426Y-88237262D01*
X164571652Y-88088000D01*
X164571652Y-87727365D01*
X164588747Y-87738787D01*
X164588747Y-87738787D01*
G37*
X164588747Y-87738787D02*
X164644050Y-87775739D01*
X164826315Y-87811995D01*
X164826320Y-87811994D01*
X172738430Y-87811994D01*
X173695261Y-88768825D01*
X173545574Y-88768694D01*
X173281149Y-88877952D01*
X173147148Y-89011719D01*
X164546599Y-89011719D01*
X164571652Y-88888000D01*
X164571652Y-88488000D01*
X164545414Y-88348559D01*
X164506597Y-88288235D01*
X164541426Y-88237262D01*
X164571652Y-88088000D01*
X164571652Y-87727365D01*
X164588747Y-87738787D01*
G36*
X167652369Y-84844884D02*
X167652369Y-85246516D01*
X167390922Y-85246288D01*
X167126497Y-85355546D01*
X166924011Y-85557679D01*
X166880810Y-85661719D01*
X164737969Y-85661719D01*
X164664250Y-85588000D01*
X162315000Y-85588000D01*
X162315000Y-85635000D01*
X162061000Y-85635000D01*
X162061000Y-85588000D01*
X162041000Y-85588000D01*
X162041000Y-85388000D01*
X162061000Y-85388000D01*
X162061000Y-84811750D01*
X162315000Y-84811750D01*
X162315000Y-85388000D01*
X164664250Y-85388000D01*
X164823000Y-85229250D01*
X164823000Y-85161690D01*
X164726327Y-84928301D01*
X164547698Y-84749673D01*
X164314309Y-84653000D01*
X162473750Y-84653000D01*
X162315000Y-84811750D01*
X162061000Y-84811750D01*
X161902250Y-84653000D01*
X160061691Y-84653000D01*
X159828302Y-84749673D01*
X159756815Y-84821159D01*
X159566930Y-84630942D01*
X159562648Y-84629164D01*
X159722832Y-84468979D01*
X167276463Y-84468979D01*
X167652369Y-84844884D01*
X167652369Y-84844884D01*
G37*
X167652369Y-84844884D02*
X167652369Y-85246516D01*
X167390922Y-85246288D01*
X167126497Y-85355546D01*
X166924011Y-85557679D01*
X166880810Y-85661719D01*
X164737969Y-85661719D01*
X164664250Y-85588000D01*
X162315000Y-85588000D01*
X162315000Y-85635000D01*
X162061000Y-85635000D01*
X162061000Y-85588000D01*
X162041000Y-85588000D01*
X162041000Y-85388000D01*
X162061000Y-85388000D01*
X162061000Y-84811750D01*
X162315000Y-84811750D01*
X162315000Y-85388000D01*
X164664250Y-85388000D01*
X164823000Y-85229250D01*
X164823000Y-85161690D01*
X164726327Y-84928301D01*
X164547698Y-84749673D01*
X164314309Y-84653000D01*
X162473750Y-84653000D01*
X162315000Y-84811750D01*
X162061000Y-84811750D01*
X161902250Y-84653000D01*
X160061691Y-84653000D01*
X159828302Y-84749673D01*
X159756815Y-84821159D01*
X159566930Y-84630942D01*
X159562648Y-84629164D01*
X159722832Y-84468979D01*
X167276463Y-84468979D01*
X167652369Y-84844884D01*
G36*
X117740215Y-43063778D02*
X117740217Y-43063781D01*
X120373617Y-45697180D01*
X120373619Y-45697183D01*
X120528136Y-45800427D01*
X120558377Y-45806442D01*
X120710401Y-45836683D01*
X120710406Y-45836682D01*
X124702392Y-45836682D01*
X126480983Y-47615273D01*
X126130467Y-47760461D01*
X126045409Y-48015804D01*
X126938000Y-48908395D01*
X126952143Y-48894253D01*
X127131748Y-49073858D01*
X127117605Y-49088000D01*
X128010196Y-49980591D01*
X128265539Y-49895533D01*
X128398141Y-49532431D01*
X141681893Y-62816183D01*
X141836410Y-62919427D01*
X142018675Y-62955683D01*
X142018680Y-62955682D01*
X178382118Y-62955682D01*
X179395754Y-63969318D01*
X140012957Y-63969318D01*
X128103681Y-52060041D01*
X128203061Y-51820708D01*
X128203500Y-51317348D01*
X128011278Y-50852136D01*
X127655660Y-50495897D01*
X127603660Y-50474305D01*
X127745533Y-50415539D01*
X127830591Y-50160196D01*
X126938000Y-49267605D01*
X126045409Y-50160196D01*
X126130467Y-50415539D01*
X126280798Y-50470439D01*
X126222212Y-50494646D01*
X125865973Y-50850264D01*
X125672939Y-51315140D01*
X125672500Y-51818500D01*
X125755803Y-52020108D01*
X122585661Y-48849965D01*
X125402484Y-48849965D01*
X125428277Y-49455700D01*
X125610461Y-49895533D01*
X125865804Y-49980591D01*
X126758395Y-49088000D01*
X125865804Y-48195409D01*
X125610461Y-48280467D01*
X125402484Y-48849965D01*
X122585661Y-48849965D01*
X116770262Y-43034566D01*
X116935216Y-43103061D01*
X117438576Y-43103500D01*
X117680129Y-43003692D01*
X117740215Y-43063778D01*
X117740215Y-43063778D01*
G37*
X117740215Y-43063778D02*
X117740217Y-43063781D01*
X120373617Y-45697180D01*
X120373619Y-45697183D01*
X120528136Y-45800427D01*
X120558377Y-45806442D01*
X120710401Y-45836683D01*
X120710406Y-45836682D01*
X124702392Y-45836682D01*
X126480983Y-47615273D01*
X126130467Y-47760461D01*
X126045409Y-48015804D01*
X126938000Y-48908395D01*
X126952143Y-48894253D01*
X127131748Y-49073858D01*
X127117605Y-49088000D01*
X128010196Y-49980591D01*
X128265539Y-49895533D01*
X128398141Y-49532431D01*
X141681893Y-62816183D01*
X141836410Y-62919427D01*
X142018675Y-62955683D01*
X142018680Y-62955682D01*
X178382118Y-62955682D01*
X179395754Y-63969318D01*
X140012957Y-63969318D01*
X128103681Y-52060041D01*
X128203061Y-51820708D01*
X128203500Y-51317348D01*
X128011278Y-50852136D01*
X127655660Y-50495897D01*
X127603660Y-50474305D01*
X127745533Y-50415539D01*
X127830591Y-50160196D01*
X126938000Y-49267605D01*
X126045409Y-50160196D01*
X126130467Y-50415539D01*
X126280798Y-50470439D01*
X126222212Y-50494646D01*
X125865973Y-50850264D01*
X125672939Y-51315140D01*
X125672500Y-51818500D01*
X125755803Y-52020108D01*
X122585661Y-48849965D01*
X125402484Y-48849965D01*
X125428277Y-49455700D01*
X125610461Y-49895533D01*
X125865804Y-49980591D01*
X126758395Y-49088000D01*
X125865804Y-48195409D01*
X125610461Y-48280467D01*
X125402484Y-48849965D01*
X122585661Y-48849965D01*
X116770262Y-43034566D01*
X116935216Y-43103061D01*
X117438576Y-43103500D01*
X117680129Y-43003692D01*
X117740215Y-43063778D01*
M02*
