M48
;DRILL file {KiCad 4.0.7-e2-6376~60~ubuntu17.10.1} date Wed Apr 25 03:23:01 2018
;FORMAT={-:-/ absolute / inch / decimal}
FMAT,2
INCH,TZ
T1C0.004
T2C0.013
T3C0.022
T4C0.030
T5C0.033
T6C0.039
T7C0.047
%
G90
G05
M72
T1
X4.4956Y-2.1491
X4.4956Y-2.1885
X4.4956Y-2.2279
X4.4956Y-2.2672
X4.4956Y-2.3066
X4.4956Y-2.346
X4.535Y-2.1491
X4.535Y-2.1885
X4.535Y-2.2279
X4.535Y-2.2672
X4.535Y-2.3066
X4.535Y-2.346
X4.5743Y-2.1491
X4.5743Y-2.1885
X4.5743Y-2.2279
X4.5743Y-2.2672
X4.5743Y-2.3066
X4.5743Y-2.346
X4.6137Y-2.1491
X4.6137Y-2.1885
X4.6137Y-2.2279
X4.6137Y-2.2672
X4.6137Y-2.3066
X4.6137Y-2.346
X4.6531Y-2.1491
X4.6531Y-2.1885
X4.6531Y-2.2279
X4.6531Y-2.2672
X4.6531Y-2.3066
X4.6531Y-2.346
X4.6924Y-2.1491
X4.6924Y-2.1885
X4.6924Y-2.2279
X4.6924Y-2.2672
X4.6924Y-2.3066
X4.6924Y-2.346
X4.7318Y-2.1491
X4.7318Y-2.1885
X4.7318Y-2.2279
X4.7318Y-2.2672
X4.7318Y-2.3066
X4.7318Y-2.346
X5.5389Y-3.3696
X5.5389Y-3.409
X5.5389Y-3.4483
X5.5389Y-3.4877
X5.5783Y-3.3696
X5.5783Y-3.409
X5.5783Y-3.4483
X5.5783Y-3.4877
X5.6176Y-3.3696
X5.6176Y-3.409
X5.6176Y-3.4483
X5.6176Y-3.4877
X5.657Y-3.3696
X5.657Y-3.409
X5.657Y-3.4483
X5.657Y-3.4877
X5.9326Y-2.4247
X5.9326Y-2.4641
X5.9326Y-2.5035
X5.9326Y-2.5428
X5.972Y-2.4247
X5.972Y-2.4641
X5.972Y-2.5035
X5.972Y-2.5428
X6.0113Y-2.4247
X6.0113Y-2.4641
X6.0113Y-2.5035
X6.0113Y-2.5428
X6.0507Y-2.4247
X6.0507Y-2.4641
X6.0507Y-2.5035
X6.0507Y-2.5428
X6.0901Y-2.4247
X6.0901Y-2.4641
X6.0901Y-2.5035
X6.0901Y-2.5428
X6.1294Y-2.4247
X6.1294Y-2.4641
X6.1294Y-2.5035
X6.1294Y-2.5428
X6.9365Y-1.9129
X6.9365Y-1.9523
X6.9365Y-1.9917
X6.9365Y-2.031
X6.9759Y-1.9129
X6.9759Y-1.9523
X6.9759Y-1.9917
X6.9759Y-2.031
X7.0153Y-1.9129
X7.0153Y-1.9523
X7.0153Y-1.9917
X7.0153Y-2.031
X7.0546Y-1.9129
X7.0546Y-1.9523
X7.0546Y-1.9917
X7.0546Y-2.031
X7.094Y-1.9129
X7.094Y-1.9523
X7.094Y-1.9917
X7.094Y-2.031
X7.1334Y-1.9129
X7.1334Y-1.9523
X7.1334Y-1.9917
X7.1334Y-2.031
X7.1728Y-1.9129
X7.1728Y-1.9523
X7.1728Y-1.9917
X7.1728Y-2.031
X7.2121Y-1.9129
X7.2121Y-1.9523
X7.2121Y-1.9917
X7.2121Y-2.031
T2
X4.6728Y-3.3893
X4.6924Y-3.8224
X4.7318Y-3.6058
X4.7515Y-3.0546
X4.7614Y-3.9869
X4.7909Y-3.1924
X4.8106Y-3.6058
X4.909Y-3.1531
X5.0271Y-3.0153
X5.0271Y-3.1137
X5.1452Y-4.1373
X5.1649Y-3.9798
X5.2043Y-4.098
X5.3724Y-2.9365
X5.4798Y-4.2161
X5.4798Y-4.2948
X5.6216Y-4.2279
X5.6373Y-4.4129
X5.6964Y-2.9365
X5.7052Y-3.8311
X5.7455Y-4.1139
X5.7554Y-4.3735
X5.7751Y-4.1373
X5.8145Y-2.96
X5.8342Y-2.346
X5.8539Y-3.2318
X5.8932Y-3.6452
X5.8932Y-4.4129
X5.9129Y-4.2948
X5.9486Y-3.9554
X5.972Y-3.9798
X5.9917Y-3.4483
X5.9917Y-3.5665
X6.0113Y-2.96
X6.0113Y-3.7239
X6.031Y-3.1531
X6.031Y-3.2121
X6.0342Y-3.8649
X6.0507Y-3.9405
X6.0704Y-3.0743
X6.0704Y-3.4287
X6.1062Y-3.8124
X6.1098Y-4.2554
X6.1209Y-3.6776
X6.1294Y-2.9365
X6.1294Y-4.2161
X6.1491Y-3.4287
X6.1491Y-3.6946
X6.1491Y-3.8027
X6.1688Y-2.7791
X6.1726Y-3.5794
X6.2053Y-3.3352
X6.2082Y-3.169
X6.2218Y-3.9477
X6.2279Y-2.9365
X6.2279Y-2.9759
X6.2279Y-3.8814
X6.231Y-3.4318
X6.2316Y-3.712
X6.233Y-3.3532
X6.233Y-3.914
X6.2476Y-4.2357
X6.2478Y-3.832
X6.2672Y-2.7397
X6.2672Y-3.0546
X6.2672Y-3.094
X6.2672Y-3.6058
X6.2835Y-3.4404
X6.2869Y-2.9956
X6.2869Y-3.5468
X6.2869Y-3.6649
X6.287Y-3.5137
X6.2871Y-3.7346
X6.3231Y-2.2015
X6.3657Y-4.1964
X6.3854Y-2.9365
X6.3854Y-4.2751
X6.4011Y-4.3566
X6.405Y-2.8972
X6.4247Y-4.1767
X6.4284Y-4.338
X6.4811Y-3.6665
X6.5035Y-3.4287
X6.5256Y-3.645
X6.5419Y-3.6755
X6.5428Y-4.1767
X6.5822Y-3.4727
X6.5822Y-3.7436
X6.6019Y-3.6255
X6.6019Y-4.0586
X6.6216Y-3.2515
X6.6216Y-3.409
X6.6216Y-3.468
X6.6641Y-3.4059
X6.7003Y-2.8972
X6.7003Y-2.9956
X6.72Y-4.0389
X6.7397Y-3.409
X6.7798Y-2.8775
X6.8184Y-3.7043
X6.8432Y-2.9409
X6.8432Y-2.9409
X6.9169Y-3.9405
X6.9365Y-2.9365
X6.9517Y-3.8641
X6.9759Y-3.6255
X7.0546Y-3.468
X7.094Y-3.6255
X7.094Y-3.7633
X7.1334Y-3.1531
T4
X5.5932Y-3.0153
X5.5932Y-3.1153
X5.6932Y-3.0153
X5.6932Y-3.1153
X5.7932Y-3.0153
X5.7932Y-3.1153
X5.8932Y-3.0153
X5.8932Y-3.1153
T6
X4.3775Y-2.8539
X4.3775Y-3.1531
X4.8696Y-2.6019
X4.9696Y-2.6019
X6.9515Y-2.5806
X6.9515Y-2.6806
X7.0515Y-2.5806
X7.0515Y-2.6806
X7.1515Y-2.5806
X7.1515Y-2.6806
X7.2515Y-2.5806
X7.2515Y-2.6806
T7
X4.5153Y-1.6472
X4.6137Y-1.6472
X4.7121Y-1.6472
X4.9976Y-1.9326
X4.9976Y-2.0302
X4.9976Y-2.1294
X6.592Y-1.9326
X6.592Y-2.0318
X6.592Y-2.1294
X6.8775Y-2.4149
X6.9759Y-2.4149
X7.0743Y-2.4149
T3
X4.4907Y-4.408G85X4.4907Y-4.4336
G05
X4.7958Y-4.408G85X4.7958Y-4.4336
G05
T5
X4.4966Y-4.2604G85X4.4966Y-4.282
G05
X4.7899Y-4.2604G85X4.7899Y-4.282
G05
T0
M30
