G04 #@! TF.FileFunction,Copper,L1,Top*
%FSLAX46Y46*%
G04 Gerber Fmt 4.6, Leading zero omitted, Abs format (unit mm)*
G04 Created by KiCad (PCBNEW 4.0.7-e2-6376~60~ubuntu17.10.1) date Wed Apr 25 03:23:06 2018*
%MOMM*%
%LPD*%
G01*
G04 APERTURE LIST*
%ADD10C,0.100000*%
%ADD11C,0.150000*%
%ADD12O,0.300000X0.750000*%
%ADD13O,0.750000X0.300000*%
%ADD14R,0.900000X0.900000*%
%ADD15R,1.000000X3.500000*%
%ADD16R,1.500000X3.400000*%
%ADD17R,2.000000X2.000000*%
%ADD18C,2.000000*%
%ADD19R,1.000000X1.250000*%
%ADD20R,1.250000X1.000000*%
%ADD21R,1.200000X0.900000*%
%ADD22R,1.200000X1.200000*%
%ADD23R,1.524000X4.064000*%
%ADD24R,0.970000X1.270000*%
%ADD25R,0.450000X1.300000*%
%ADD26O,1.450000X2.000000*%
%ADD27O,1.150000X1.800000*%
%ADD28R,2.000000X1.450000*%
%ADD29R,1.500000X0.800000*%
%ADD30R,1.700000X1.700000*%
%ADD31O,1.700000X1.700000*%
%ADD32R,1.300000X0.700000*%
%ADD33R,0.900000X0.800000*%
%ADD34R,0.700000X1.300000*%
%ADD35R,1.270000X2.540000*%
%ADD36R,1.060000X0.650000*%
%ADD37O,0.900000X2.500000*%
%ADD38O,2.500000X0.900000*%
%ADD39R,6.000000X6.000000*%
%ADD40R,1.524000X1.524000*%
%ADD41C,1.524000*%
%ADD42R,1.220000X0.650000*%
%ADD43R,0.850000X0.300000*%
%ADD44R,0.300000X0.850000*%
%ADD45R,1.300000X1.300000*%
%ADD46R,1.500000X0.600000*%
%ADD47C,1.778000*%
%ADD48C,2.540000*%
%ADD49R,1.500000X0.450000*%
%ADD50C,0.685800*%
%ADD51C,0.500000*%
%ADD52C,0.200000*%
%ADD53C,1.270000*%
%ADD54C,0.254000*%
G04 APERTURE END LIST*
D10*
D11*
X120188000Y-59588000D03*
X119188000Y-59588000D03*
X118188000Y-59588000D03*
X117188000Y-59588000D03*
X116188000Y-59588000D03*
X115188000Y-59588000D03*
X114188000Y-59588000D03*
X120188000Y-58588000D03*
X119188000Y-58588000D03*
X118188000Y-58588000D03*
X117188000Y-58588000D03*
X116188000Y-58588000D03*
X115188000Y-58588000D03*
X114188000Y-58588000D03*
X120188000Y-57588000D03*
X119188000Y-57588000D03*
X118188000Y-57588000D03*
X117188000Y-57588000D03*
X116188000Y-57588000D03*
X115188000Y-57588000D03*
X114188000Y-57588000D03*
X120188000Y-56588000D03*
X119188000Y-56588000D03*
X118188000Y-56588000D03*
X117188000Y-56588000D03*
X116188000Y-56588000D03*
X115188000Y-56588000D03*
X114188000Y-56588000D03*
X120188000Y-55588000D03*
X119188000Y-55588000D03*
X118188000Y-55588000D03*
X117188000Y-55588000D03*
X116188000Y-55588000D03*
X115188000Y-55588000D03*
X114188000Y-55588000D03*
X120188000Y-54588000D03*
X119188000Y-54588000D03*
X118188000Y-54588000D03*
X117188000Y-54588000D03*
X116188000Y-54588000D03*
X115188000Y-54588000D03*
X114188000Y-54588000D03*
X183188000Y-51588000D03*
X182188000Y-51588000D03*
X181188000Y-51588000D03*
X180188000Y-51588000D03*
X179188000Y-51588000D03*
X178188000Y-51588000D03*
X177188000Y-51588000D03*
X176188000Y-51588000D03*
X155688000Y-64588000D03*
X154688000Y-64588000D03*
X153688000Y-64588000D03*
X152688000Y-64588000D03*
X151688000Y-64588000D03*
X150688000Y-64588000D03*
X143688000Y-88588000D03*
X142688000Y-88588000D03*
X141688000Y-88588000D03*
X140688000Y-88588000D03*
X183188000Y-50588000D03*
X182188000Y-50588000D03*
X181188000Y-50588000D03*
X180188000Y-50588000D03*
X179188000Y-50588000D03*
X178188000Y-50588000D03*
X177188000Y-50588000D03*
X176188000Y-50588000D03*
X155688000Y-63588000D03*
X154688000Y-63588000D03*
X153688000Y-63588000D03*
X152688000Y-63588000D03*
X151688000Y-63588000D03*
X150688000Y-63588000D03*
X143688000Y-87588000D03*
X142688000Y-87588000D03*
X141688000Y-87588000D03*
X140688000Y-87588000D03*
X183188000Y-49588000D03*
X182188000Y-49588000D03*
X181188000Y-49588000D03*
X180188000Y-49588000D03*
X179188000Y-49588000D03*
X178188000Y-49588000D03*
X177188000Y-49588000D03*
X176188000Y-49588000D03*
X155688000Y-62588000D03*
X154688000Y-62588000D03*
X153688000Y-62588000D03*
X152688000Y-62588000D03*
X151688000Y-62588000D03*
X150688000Y-62588000D03*
X143688000Y-86588000D03*
X142688000Y-86588000D03*
X141688000Y-86588000D03*
X140688000Y-86588000D03*
X183188000Y-48588000D03*
X182188000Y-48588000D03*
X181188000Y-48588000D03*
X180188000Y-48588000D03*
X179188000Y-48588000D03*
X178188000Y-48588000D03*
X177188000Y-48588000D03*
X176188000Y-48588000D03*
X155688000Y-61588000D03*
X154688000Y-61588000D03*
X153688000Y-61588000D03*
X152688000Y-61588000D03*
X151688000Y-61588000D03*
X150688000Y-61588000D03*
X143688000Y-85588000D03*
X142688000Y-85588000D03*
X141688000Y-85588000D03*
D12*
X122463000Y-79313000D03*
X122963000Y-79313000D03*
X123463000Y-79313000D03*
X123963000Y-79313000D03*
D13*
X124688000Y-78588000D03*
X124688000Y-78088000D03*
X124688000Y-77588000D03*
X124688000Y-77088000D03*
D12*
X123963000Y-76363000D03*
X123463000Y-76363000D03*
X122963000Y-76363000D03*
X122463000Y-76363000D03*
D13*
X121738000Y-77088000D03*
X121738000Y-77588000D03*
X121738000Y-78088000D03*
X121738000Y-78588000D03*
D14*
X123663000Y-77388000D03*
X122763000Y-77388000D03*
X123663000Y-78288000D03*
X122763000Y-78288000D03*
D15*
X127188000Y-106213000D03*
X129188000Y-106213000D03*
D16*
X124838000Y-111963000D03*
X131538000Y-111963000D03*
D17*
X111188000Y-80088000D03*
D18*
X111188000Y-72488000D03*
D19*
X121188000Y-90088000D03*
X119188000Y-90088000D03*
D20*
X129188000Y-90088000D03*
X129188000Y-92088000D03*
X132188000Y-90088000D03*
X132188000Y-92088000D03*
X135188000Y-90088000D03*
X135188000Y-92088000D03*
D19*
X121188000Y-103088000D03*
X119188000Y-103088000D03*
X128688000Y-79088000D03*
X126688000Y-79088000D03*
D20*
X128188000Y-72088000D03*
X128188000Y-74088000D03*
D19*
X128688000Y-76588000D03*
X126688000Y-76588000D03*
D20*
X120688000Y-72088000D03*
X120688000Y-74088000D03*
D19*
X169188000Y-73588000D03*
X171188000Y-73588000D03*
X169188000Y-76088000D03*
X171188000Y-76088000D03*
X148688000Y-95588000D03*
X150688000Y-95588000D03*
D21*
X113188000Y-89438000D03*
X113188000Y-92738000D03*
D22*
X115088000Y-99088000D03*
X117288000Y-99088000D03*
D23*
X147188000Y-41588000D03*
X149728000Y-41588000D03*
X144648000Y-41588000D03*
D24*
X116188000Y-85088000D03*
X117468000Y-85088000D03*
D25*
X116638000Y-108438000D03*
X117288000Y-108438000D03*
X117938000Y-108438000D03*
X118588000Y-108438000D03*
X119238000Y-108438000D03*
D26*
X114213000Y-108488000D03*
X121663000Y-108488000D03*
D27*
X114063000Y-112288000D03*
X121813000Y-112288000D03*
D28*
X185488000Y-86463000D03*
X185488000Y-72713000D03*
X177188000Y-72713000D03*
X177188000Y-86463000D03*
D29*
X182888000Y-84088000D03*
X182888000Y-82988000D03*
X182888000Y-81888000D03*
X182888000Y-80788000D03*
X182888000Y-79688000D03*
X182888000Y-78588000D03*
X182888000Y-77488000D03*
X182888000Y-76388000D03*
D30*
X184188000Y-68088000D03*
D31*
X184188000Y-65548000D03*
X181648000Y-68088000D03*
X181648000Y-65548000D03*
X179108000Y-68088000D03*
X179108000Y-65548000D03*
X176568000Y-68088000D03*
X176568000Y-65548000D03*
D32*
X123188000Y-72138000D03*
X123188000Y-74038000D03*
X125688000Y-72138000D03*
X125688000Y-74038000D03*
D30*
X123688000Y-66088000D03*
D31*
X126228000Y-66088000D03*
D33*
X116188000Y-93138000D03*
X116188000Y-95038000D03*
X118188000Y-94088000D03*
X154188000Y-110138000D03*
X154188000Y-112038000D03*
X156188000Y-111088000D03*
X154188000Y-105138000D03*
X154188000Y-107038000D03*
X156188000Y-106088000D03*
X116688000Y-69038000D03*
X116688000Y-67138000D03*
X114688000Y-68088000D03*
D34*
X114138000Y-95088000D03*
X112238000Y-95088000D03*
D32*
X121188000Y-93138000D03*
X121188000Y-95038000D03*
D34*
X121188000Y-99088000D03*
X119288000Y-99088000D03*
X151088000Y-110088000D03*
X149188000Y-110088000D03*
X151138000Y-106088000D03*
X149238000Y-106088000D03*
D32*
X129188000Y-101038000D03*
X129188000Y-99138000D03*
X157688000Y-91188000D03*
X157688000Y-93088000D03*
X112188000Y-84138000D03*
X112188000Y-86038000D03*
D34*
X126738000Y-81588000D03*
X128638000Y-81588000D03*
X169238000Y-78588000D03*
X171138000Y-78588000D03*
X171138000Y-81070000D03*
X169238000Y-81070000D03*
X171138000Y-83588000D03*
X169238000Y-83588000D03*
D35*
X136688000Y-72588000D03*
X138688000Y-72588000D03*
X140688000Y-72588000D03*
X142688000Y-72588000D03*
X144688000Y-72588000D03*
X146688000Y-72588000D03*
X148688000Y-72588000D03*
X150688000Y-72588000D03*
X152688000Y-72588000D03*
X154688000Y-72588000D03*
X156688000Y-72588000D03*
X158688000Y-72588000D03*
X158688000Y-46588000D03*
X138688000Y-46588000D03*
X156688000Y-46588000D03*
X136688000Y-46588000D03*
X145188000Y-46588000D03*
X147188000Y-46588000D03*
X149188000Y-46588000D03*
X160688000Y-72588000D03*
D36*
X124088000Y-90138000D03*
X124088000Y-91088000D03*
X124088000Y-92038000D03*
X126288000Y-92038000D03*
X126288000Y-90138000D03*
D37*
X179938000Y-108088000D03*
X178668000Y-108088000D03*
X177398000Y-108088000D03*
X176128000Y-108088000D03*
X174858000Y-108088000D03*
X173588000Y-108088000D03*
X172318000Y-108088000D03*
X171048000Y-108088000D03*
X169778000Y-108088000D03*
X168508000Y-108088000D03*
X167238000Y-108088000D03*
X165968000Y-108088000D03*
X164698000Y-108088000D03*
X163428000Y-108088000D03*
D38*
X161938000Y-104803000D03*
X161938000Y-103533000D03*
X161938000Y-102263000D03*
X161938000Y-100993000D03*
X161938000Y-99723000D03*
X161938000Y-98453000D03*
X161938000Y-97183000D03*
X161938000Y-95913000D03*
X161938000Y-94643000D03*
X161938000Y-93373000D03*
D37*
X163428000Y-90088000D03*
X164698000Y-90088000D03*
X165968000Y-90088000D03*
X167238000Y-90088000D03*
X168508000Y-90088000D03*
X169778000Y-90088000D03*
X171048000Y-90088000D03*
X172318000Y-90088000D03*
X173588000Y-90088000D03*
X174858000Y-90088000D03*
X176128000Y-90088000D03*
X177398000Y-90088000D03*
X178668000Y-90088000D03*
X179938000Y-90088000D03*
D39*
X172238000Y-98788000D03*
D40*
X142068000Y-79128000D03*
D41*
X142068000Y-76588000D03*
X144608000Y-79128000D03*
X144608000Y-76588000D03*
X147148000Y-79128000D03*
X147148000Y-76588000D03*
X149688000Y-79128000D03*
X149688000Y-76588000D03*
D42*
X123568000Y-99088000D03*
X123568000Y-100038000D03*
X123568000Y-100988000D03*
X126188000Y-100988000D03*
X126188000Y-99088000D03*
D43*
X141488000Y-106788000D03*
X141488000Y-107288000D03*
X141488000Y-107788000D03*
X141488000Y-108288000D03*
X141488000Y-108788000D03*
X141488000Y-109288000D03*
D44*
X142188000Y-109988000D03*
X142688000Y-109988000D03*
X143188000Y-109988000D03*
X143688000Y-109988000D03*
X144188000Y-109988000D03*
X144688000Y-109988000D03*
D43*
X145388000Y-109288000D03*
X145388000Y-108788000D03*
X145388000Y-108288000D03*
X145388000Y-107788000D03*
X145388000Y-107288000D03*
X145388000Y-106788000D03*
D44*
X144688000Y-106088000D03*
X144188000Y-106088000D03*
X143688000Y-106088000D03*
X143188000Y-106088000D03*
X142688000Y-106088000D03*
X142188000Y-106088000D03*
D45*
X144088000Y-108688000D03*
X144088000Y-107388000D03*
X142788000Y-108688000D03*
X142788000Y-107388000D03*
D46*
X161388000Y-86033000D03*
X161388000Y-84763000D03*
X161388000Y-83493000D03*
X161388000Y-82223000D03*
X161388000Y-80953000D03*
X161388000Y-79683000D03*
X161388000Y-78413000D03*
X161388000Y-77143000D03*
X155988000Y-77143000D03*
X155988000Y-78413000D03*
X155988000Y-79683000D03*
X155988000Y-80953000D03*
X155988000Y-82223000D03*
X155988000Y-83493000D03*
X155988000Y-84763000D03*
X155988000Y-86033000D03*
D47*
X179688000Y-61338000D03*
X177188000Y-61338000D03*
X174688000Y-61338000D03*
D48*
X183838000Y-43838000D03*
X183838000Y-59338000D03*
X170538000Y-59338000D03*
X170538000Y-43838000D03*
D47*
X167438000Y-49088000D03*
X167438000Y-51608076D03*
X167438000Y-54088000D03*
X114688000Y-41838000D03*
X117188000Y-41838000D03*
X119688000Y-41838000D03*
D48*
X110538000Y-59338000D03*
X110538000Y-43838000D03*
X123838000Y-43838000D03*
X123838000Y-59338000D03*
D47*
X126938000Y-54088000D03*
X126938000Y-51567924D03*
X126938000Y-49088000D03*
D19*
X142188000Y-112088000D03*
X144188000Y-112088000D03*
D49*
X155138000Y-102363000D03*
X155138000Y-101713000D03*
X155138000Y-101063000D03*
X155138000Y-100413000D03*
X155138000Y-99763000D03*
X155138000Y-99113000D03*
X155138000Y-98463000D03*
X155138000Y-97813000D03*
X149238000Y-97813000D03*
X149238000Y-98463000D03*
X149238000Y-99113000D03*
X149238000Y-99763000D03*
X149238000Y-100413000D03*
X149238000Y-101063000D03*
X149238000Y-101713000D03*
X149238000Y-102363000D03*
D11*
X140688000Y-85588000D03*
D50*
X124688000Y-80088000D03*
X120188000Y-91588000D03*
X122188000Y-91588000D03*
X164620622Y-93129169D03*
X152688000Y-94588000D03*
X162188000Y-74588000D03*
X159688000Y-76088000D03*
X159188000Y-77588000D03*
X154188000Y-87088000D03*
X176188000Y-74588000D03*
X173818239Y-74698663D03*
X173818239Y-74698663D03*
X172207576Y-73088000D03*
X180188000Y-95588000D03*
X180188000Y-92088000D03*
X175688000Y-100088000D03*
X142788000Y-107388000D03*
X146188000Y-111088000D03*
X131188000Y-101088000D03*
X130688000Y-105088000D03*
X127688000Y-76588000D03*
X127688000Y-79088000D03*
X144910986Y-97310986D03*
X153267860Y-98167860D03*
X120938854Y-101266174D03*
X119188000Y-97088000D03*
X159188000Y-91588000D03*
X158317502Y-85172300D03*
X139188000Y-107088000D03*
X139188000Y-109088000D03*
X179188000Y-88088000D03*
X181188000Y-80088000D03*
X170188000Y-76088000D03*
X162688000Y-73588000D03*
X170188000Y-73588000D03*
X160606799Y-55919201D03*
X156783299Y-90917043D03*
X136458000Y-74588000D03*
X149688000Y-92588000D03*
X156188000Y-87088000D03*
X143188000Y-112088000D03*
X132188000Y-104088000D03*
X118688000Y-86088000D03*
X149688000Y-112088000D03*
X165751115Y-92582722D03*
X155470027Y-93410123D03*
X157688000Y-80492690D03*
X158267052Y-87167052D03*
X155097946Y-96836157D03*
X151095295Y-100467690D03*
X158188000Y-75588000D03*
X159688000Y-90088000D03*
X176574432Y-98147540D03*
X177188000Y-92088000D03*
X170688000Y-102588000D03*
X163188000Y-106088000D03*
X158688000Y-107588000D03*
X155688000Y-107088000D03*
X159688000Y-93088000D03*
X169267052Y-86508948D03*
X166188000Y-106088000D03*
X166163645Y-93356669D03*
X156188000Y-93842690D03*
X159599939Y-87385721D03*
X156188000Y-96588000D03*
X151688000Y-101088000D03*
X159689842Y-89247945D03*
X165188000Y-87088000D03*
X157615015Y-84715013D03*
X152688000Y-75183310D03*
X167688000Y-103088000D03*
X161688000Y-106588000D03*
X167188000Y-88206952D03*
X167188000Y-95088000D03*
X144688000Y-74588000D03*
X155688000Y-74588000D03*
X168188000Y-82588000D03*
X159188000Y-69588000D03*
X147688000Y-75183310D03*
X154188000Y-78088000D03*
X168188000Y-86588000D03*
X171188000Y-86588000D03*
X156688000Y-70588000D03*
X153188000Y-81588000D03*
X158188000Y-74588000D03*
X153188000Y-80088000D03*
X152188000Y-90588000D03*
X153688000Y-100088000D03*
X162188000Y-108588000D03*
X162587152Y-110656447D03*
X146688000Y-105088000D03*
X163280705Y-110185720D03*
X145935847Y-104492690D03*
X159188000Y-78588000D03*
X173188000Y-94088000D03*
X148188000Y-59588000D03*
X148688000Y-82088000D03*
X152188000Y-87588000D03*
X158282575Y-94285711D03*
X159693536Y-94859041D03*
X167688000Y-92088000D03*
X121688000Y-81088000D03*
X168188000Y-88088000D03*
X120688000Y-77588000D03*
X150188000Y-109088000D03*
X155188000Y-108088000D03*
X158693486Y-97333310D03*
X158032548Y-100270759D03*
X158317529Y-99416143D03*
X158188000Y-98588000D03*
D51*
X119238000Y-108438000D02*
X121613000Y-108438000D01*
X121613000Y-108438000D02*
X121663000Y-108488000D01*
D52*
X123463000Y-79313000D02*
X123463000Y-79888000D01*
X123463000Y-79888000D02*
X123663000Y-80088000D01*
X123663000Y-80088000D02*
X124688000Y-80088000D01*
X141488000Y-107288000D02*
X142688000Y-107288000D01*
X142688000Y-107288000D02*
X142788000Y-107388000D01*
D51*
X120188000Y-91588000D02*
X120188000Y-91088000D01*
X120188000Y-91088000D02*
X119188000Y-90088000D01*
X124088000Y-91088000D02*
X122688000Y-91088000D01*
X122688000Y-91088000D02*
X122188000Y-91588000D01*
X161938000Y-93373000D02*
X164376791Y-93373000D01*
X164376791Y-93373000D02*
X164620622Y-93129169D01*
X152494988Y-97281012D02*
X152688000Y-97088000D01*
X152688000Y-97088000D02*
X152688000Y-94588000D01*
X155138000Y-99113000D02*
X152983497Y-99113000D01*
X152983497Y-99113000D02*
X152494988Y-98624491D01*
X152494988Y-98624491D02*
X152494988Y-97281012D01*
X159688000Y-76088000D02*
X160688000Y-76088000D01*
X160688000Y-76088000D02*
X162188000Y-74588000D01*
X155988000Y-77143000D02*
X158743000Y-77143000D01*
X158743000Y-77143000D02*
X159188000Y-77588000D01*
X155988000Y-83493000D02*
X155538000Y-83493000D01*
X155538000Y-83493000D02*
X154188000Y-84843000D01*
X154188000Y-84843000D02*
X154188000Y-87088000D01*
X176188000Y-74588000D02*
X177188000Y-73588000D01*
X177188000Y-73588000D02*
X177188000Y-72713000D01*
X171188000Y-73588000D02*
X171707576Y-73588000D01*
X171707576Y-73588000D02*
X172207576Y-73088000D01*
X173475340Y-75041562D02*
X173818239Y-74698663D01*
X171188000Y-76088000D02*
X172428902Y-76088000D01*
X172428902Y-76088000D02*
X173475340Y-75041562D01*
X179938000Y-108088000D02*
X179938000Y-95838000D01*
X179938000Y-95838000D02*
X180188000Y-95588000D01*
X180188000Y-90338000D02*
X179938000Y-90088000D01*
X180188000Y-92088000D02*
X180188000Y-90338000D01*
X172238000Y-98788000D02*
X174388000Y-98788000D01*
X174388000Y-98788000D02*
X175688000Y-100088000D01*
D52*
X120688000Y-74788000D02*
X120688000Y-74088000D01*
X120688000Y-76706952D02*
X120688000Y-74788000D01*
X120092698Y-77302254D02*
X120688000Y-76706952D01*
X120092698Y-77873746D02*
X120092698Y-77302254D01*
X120402254Y-78183302D02*
X120092698Y-77873746D01*
X121067698Y-78183302D02*
X120402254Y-78183302D01*
X121163000Y-78088000D02*
X121067698Y-78183302D01*
D51*
X144188000Y-112088000D02*
X145188000Y-112088000D01*
X145188000Y-112088000D02*
X146188000Y-111088000D01*
X131188000Y-101088000D02*
X129238000Y-101088000D01*
X129238000Y-101088000D02*
X129188000Y-101038000D01*
X129188000Y-106213000D02*
X129563000Y-106213000D01*
X129563000Y-106213000D02*
X130688000Y-105088000D01*
X126688000Y-76588000D02*
X126688000Y-75588000D01*
X126688000Y-75588000D02*
X128188000Y-74088000D01*
X127688000Y-76588000D02*
X126688000Y-76588000D01*
X126688000Y-79088000D02*
X127688000Y-79088000D01*
D52*
X121738000Y-78088000D02*
X121163000Y-78088000D01*
X121163000Y-78088000D02*
X121110590Y-78140410D01*
X122963000Y-76363000D02*
X122963000Y-75538000D01*
X122963000Y-75538000D02*
X121513000Y-74088000D01*
X121513000Y-74088000D02*
X120688000Y-74088000D01*
D51*
X124088000Y-91088000D02*
X125118000Y-91088000D01*
X125118000Y-91088000D02*
X125355599Y-91325599D01*
X125355599Y-91325599D02*
X125355599Y-92684921D01*
X125758678Y-93088000D02*
X128063000Y-93088000D01*
X125355599Y-92684921D02*
X125758678Y-93088000D01*
X128063000Y-93088000D02*
X129063000Y-92088000D01*
X129063000Y-92088000D02*
X129188000Y-92088000D01*
X122355599Y-100140401D02*
X122458000Y-100038000D01*
X121010599Y-100140401D02*
X122355599Y-100140401D01*
X119188000Y-103088000D02*
X119188000Y-101963000D01*
X119188000Y-101963000D02*
X121010599Y-100140401D01*
X122458000Y-100038000D02*
X123568000Y-100038000D01*
D52*
X140794336Y-97310986D02*
X144426053Y-97310986D01*
X127188000Y-107463000D02*
X127940401Y-108215401D01*
X127940401Y-108215401D02*
X129889921Y-108215401D01*
X129889921Y-108215401D02*
X140794336Y-97310986D01*
X144426053Y-97310986D02*
X144910986Y-97310986D01*
X155138000Y-98463000D02*
X153563000Y-98463000D01*
X153563000Y-98463000D02*
X153267860Y-98167860D01*
D51*
X127188000Y-106213000D02*
X127188000Y-107463000D01*
X121188000Y-101515320D02*
X120938854Y-101266174D01*
X121188000Y-103088000D02*
X121188000Y-101515320D01*
X116188000Y-93138000D02*
X116238000Y-93138000D01*
X117138000Y-95038000D02*
X119188000Y-97088000D01*
X116238000Y-93138000D02*
X117138000Y-94038000D01*
X117138000Y-94038000D02*
X117138000Y-95038000D01*
X127188000Y-106213000D02*
X127188000Y-104963000D01*
X127188000Y-104963000D02*
X123568000Y-101343000D01*
X123568000Y-101343000D02*
X123568000Y-100988000D01*
X123568000Y-100988000D02*
X123288000Y-100988000D01*
X123288000Y-100988000D02*
X121188000Y-103088000D01*
X112188000Y-84138000D02*
X112188000Y-81088000D01*
X112188000Y-81088000D02*
X111188000Y-80088000D01*
X116688000Y-67138000D02*
X116638000Y-67138000D01*
X116638000Y-67138000D02*
X115738000Y-68038000D01*
X115738000Y-68038000D02*
X115738000Y-69352213D01*
X115738000Y-69352213D02*
X112602213Y-72488000D01*
X112602213Y-72488000D02*
X111188000Y-72488000D01*
X121188000Y-90088000D02*
X124038000Y-90088000D01*
X124038000Y-90088000D02*
X124088000Y-90138000D01*
X121188000Y-93138000D02*
X121188000Y-90088000D01*
X118188000Y-94088000D02*
X120238000Y-94088000D01*
X120238000Y-94088000D02*
X121188000Y-93138000D01*
X113188000Y-89438000D02*
X114438000Y-89438000D01*
X118188000Y-93188000D02*
X118188000Y-94088000D01*
X114438000Y-89438000D02*
X118188000Y-93188000D01*
X159188000Y-91588000D02*
X158088000Y-91588000D01*
X158088000Y-91588000D02*
X157688000Y-91188000D01*
X157926802Y-85563000D02*
X157974603Y-85515199D01*
X157974603Y-85515199D02*
X158317502Y-85172300D01*
X155988000Y-84763000D02*
X156438000Y-84763000D01*
X156438000Y-84763000D02*
X157238000Y-85563000D01*
X157238000Y-85563000D02*
X157926802Y-85563000D01*
X139188000Y-104088000D02*
X147688000Y-95588000D01*
X147688000Y-95588000D02*
X148688000Y-95588000D01*
X139188000Y-107088000D02*
X139188000Y-104088000D01*
X141488000Y-110088000D02*
X141488000Y-109288000D01*
X141488000Y-111388000D02*
X141488000Y-110088000D01*
X141488000Y-110088000D02*
X140188000Y-110088000D01*
X140188000Y-110088000D02*
X139188000Y-109088000D01*
X179188000Y-88088000D02*
X178668000Y-88608000D01*
X178668000Y-88608000D02*
X178668000Y-90088000D01*
X181188000Y-80088000D02*
X181588000Y-79688000D01*
X181588000Y-79688000D02*
X182888000Y-79688000D01*
X170188000Y-76088000D02*
X169188000Y-76088000D01*
X162688000Y-73588000D02*
X161688000Y-73588000D01*
X161688000Y-73588000D02*
X160688000Y-72588000D01*
X169188000Y-73588000D02*
X170188000Y-73588000D01*
X160688000Y-72588000D02*
X160688000Y-56000402D01*
X160688000Y-56000402D02*
X160606799Y-55919201D01*
X142188000Y-112088000D02*
X141488000Y-111388000D01*
X128638000Y-81588000D02*
X128638000Y-82738000D01*
X128638000Y-82738000D02*
X125005599Y-86370401D01*
X125005599Y-86370401D02*
X125005599Y-89060599D01*
X157417043Y-90917043D02*
X157268232Y-90917043D01*
X157688000Y-91188000D02*
X157417043Y-90917043D01*
X157268232Y-90917043D02*
X156783299Y-90917043D01*
X128638000Y-81588000D02*
X128638000Y-79138000D01*
X128638000Y-79138000D02*
X128688000Y-79088000D01*
X136688000Y-72588000D02*
X136688000Y-74358000D01*
X136688000Y-74358000D02*
X134458000Y-76588000D01*
X134458000Y-76588000D02*
X129688000Y-76588000D01*
X129688000Y-76588000D02*
X128688000Y-76588000D01*
X136688000Y-72588000D02*
X136688000Y-63838000D01*
X136688000Y-63838000D02*
X126938000Y-54088000D01*
X126938000Y-54088000D02*
X125294188Y-52444188D01*
X125294188Y-52444188D02*
X114688000Y-41838000D01*
X155138000Y-102363000D02*
X155115401Y-102340401D01*
X154066079Y-102340401D02*
X149813678Y-98088000D01*
X149238000Y-98463000D02*
X149238000Y-98088000D01*
X149238000Y-98088000D02*
X149238000Y-97813000D01*
X149813678Y-98088000D02*
X149238000Y-98088000D01*
X155115401Y-102340401D02*
X154066079Y-102340401D01*
X149238000Y-97813000D02*
X149238000Y-96138000D01*
X149238000Y-96138000D02*
X148688000Y-95588000D01*
X149688000Y-92588000D02*
X137688000Y-92588000D01*
X136313000Y-91213000D02*
X136313000Y-91088000D01*
X136313000Y-91088000D02*
X135313000Y-90088000D01*
X137688000Y-92588000D02*
X136313000Y-91213000D01*
X135313000Y-90088000D02*
X135188000Y-90088000D01*
X149688000Y-92588000D02*
X149688000Y-94588000D01*
X149688000Y-94588000D02*
X148688000Y-95588000D01*
X156188000Y-87088000D02*
X156188000Y-86233000D01*
X156188000Y-86233000D02*
X155988000Y-86033000D01*
X155988000Y-84763000D02*
X155988000Y-86033000D01*
D52*
X127663000Y-77738000D02*
X127513000Y-77588000D01*
X127513000Y-77588000D02*
X124688000Y-77588000D01*
X124688000Y-77588000D02*
X124688000Y-77088000D01*
D51*
X128688000Y-79088000D02*
X128688000Y-78963000D01*
X128688000Y-78963000D02*
X127663000Y-77938000D01*
X127663000Y-77938000D02*
X127663000Y-77738000D01*
X127663000Y-77738000D02*
X128688000Y-76713000D01*
X128688000Y-76713000D02*
X128688000Y-76588000D01*
X112188000Y-86038000D02*
X112488000Y-86038000D01*
X112488000Y-86038000D02*
X115510599Y-89060599D01*
X115510599Y-89060599D02*
X125005599Y-89060599D01*
X125005599Y-89060599D02*
X126083000Y-90138000D01*
X126083000Y-90138000D02*
X126288000Y-90138000D01*
D52*
X141488000Y-108788000D02*
X141488000Y-109288000D01*
X142188000Y-109988000D02*
X141488000Y-109288000D01*
D51*
X135188000Y-90088000D02*
X132188000Y-90088000D01*
X129188000Y-90088000D02*
X132188000Y-90088000D01*
X126288000Y-90138000D02*
X129138000Y-90138000D01*
X129138000Y-90138000D02*
X129188000Y-90088000D01*
D52*
X128188000Y-72088000D02*
X125738000Y-72088000D01*
X125738000Y-72088000D02*
X125688000Y-72138000D01*
X125688000Y-72138000D02*
X125688000Y-66628000D01*
X125688000Y-66628000D02*
X126228000Y-66088000D01*
X123188000Y-72138000D02*
X120738000Y-72138000D01*
X120738000Y-72138000D02*
X120688000Y-72088000D01*
X123188000Y-72138000D02*
X123188000Y-66588000D01*
X123188000Y-66588000D02*
X123688000Y-66088000D01*
X142688000Y-109988000D02*
X142688000Y-110613000D01*
X142688000Y-110613000D02*
X143188000Y-111113000D01*
X143188000Y-111113000D02*
X143188000Y-111603067D01*
X143188000Y-111603067D02*
X143188000Y-112088000D01*
D51*
X126188000Y-100988000D02*
X127298000Y-100988000D01*
X127298000Y-100988000D02*
X130398000Y-104088000D01*
X130398000Y-104088000D02*
X132188000Y-104088000D01*
X114138000Y-95088000D02*
X114138000Y-98138000D01*
X114138000Y-98138000D02*
X115088000Y-99088000D01*
X116188000Y-95038000D02*
X114188000Y-95038000D01*
X114188000Y-95038000D02*
X114138000Y-95088000D01*
X113188000Y-92738000D02*
X113188000Y-94138000D01*
X113188000Y-94138000D02*
X114138000Y-95088000D01*
X126188000Y-100988000D02*
X125903000Y-100988000D01*
X125078000Y-98938678D02*
X124174921Y-98035599D01*
X125903000Y-100988000D02*
X125078000Y-100163000D01*
X125078000Y-100163000D02*
X125078000Y-98938678D01*
X124174921Y-98035599D02*
X116140401Y-98035599D01*
X116140401Y-98035599D02*
X115088000Y-99088000D01*
X116638000Y-108438000D02*
X116638000Y-108013000D01*
X116638000Y-108013000D02*
X115088000Y-106463000D01*
X115088000Y-106463000D02*
X115088000Y-99088000D01*
X117288000Y-99088000D02*
X119288000Y-99088000D01*
D53*
X147188000Y-46588000D02*
X147188000Y-44818000D01*
X147188000Y-44818000D02*
X147188000Y-41588000D01*
D52*
X116188000Y-85088000D02*
X116188000Y-80988000D01*
X116188000Y-80988000D02*
X116688000Y-80488000D01*
X116688000Y-80488000D02*
X116688000Y-69038000D01*
X122463000Y-79313000D02*
X122463000Y-82313000D01*
X122463000Y-82313000D02*
X118688000Y-86088000D01*
X118688000Y-86088000D02*
X118468000Y-86088000D01*
X118468000Y-86088000D02*
X117468000Y-85088000D01*
X173848000Y-113088000D02*
X150733678Y-113088000D01*
X150733678Y-113088000D02*
X149733678Y-112088000D01*
X149733678Y-112088000D02*
X149688000Y-112088000D01*
X177398000Y-108088000D02*
X177398000Y-109538000D01*
X177398000Y-109538000D02*
X173848000Y-113088000D01*
X176806954Y-92588000D02*
X168069046Y-92588000D01*
X180473745Y-92683301D02*
X176902255Y-92683301D01*
X165568335Y-92765502D02*
X165751115Y-92582722D01*
X165568335Y-93726090D02*
X165568335Y-92765502D01*
X165806944Y-93964699D02*
X165568335Y-93726090D01*
X166236048Y-92582722D02*
X165751115Y-92582722D01*
X166336627Y-92683301D02*
X166236048Y-92582722D01*
X167973745Y-92683301D02*
X166336627Y-92683301D01*
X180783301Y-92373745D02*
X180473745Y-92683301D01*
X180783301Y-90222785D02*
X180783301Y-92373745D01*
X180640410Y-90079894D02*
X180783301Y-90222785D01*
X180640410Y-84285590D02*
X180640410Y-90079894D01*
X181938000Y-82988000D02*
X180640410Y-84285590D01*
X176902255Y-92683301D02*
X176806954Y-92588000D01*
X168069046Y-92588000D02*
X167973745Y-92683301D01*
X182888000Y-82988000D02*
X181938000Y-82988000D01*
X168188000Y-102706954D02*
X168188000Y-95072933D01*
X168188000Y-95072933D02*
X167079766Y-93964699D01*
X167079766Y-93964699D02*
X165806944Y-93964699D01*
X171048000Y-105566954D02*
X168188000Y-102706954D01*
X171048000Y-108088000D02*
X171048000Y-105566954D01*
X155470027Y-93895056D02*
X155470027Y-93410123D01*
X155097946Y-96836157D02*
X155470027Y-96464076D01*
X155470027Y-96464076D02*
X155470027Y-93895056D01*
X158912804Y-86521300D02*
X158609951Y-86824153D01*
X158609951Y-86824153D02*
X158267052Y-87167052D01*
X156357322Y-81088000D02*
X158912804Y-83643482D01*
X158912804Y-83643482D02*
X158912804Y-86521300D01*
X155988000Y-80953000D02*
X157227690Y-80953000D01*
X157345101Y-80835589D02*
X157688000Y-80492690D01*
X157227690Y-80953000D02*
X157345101Y-80835589D01*
X154934048Y-80953000D02*
X153109048Y-79128000D01*
X150765630Y-79128000D02*
X149688000Y-79128000D01*
X155988000Y-80953000D02*
X154934048Y-80953000D01*
X153109048Y-79128000D02*
X150765630Y-79128000D01*
X158267052Y-87651985D02*
X158267052Y-87167052D01*
X159688000Y-90088000D02*
X158267052Y-88667052D01*
X158267052Y-88667052D02*
X158267052Y-87651985D01*
X150752396Y-100124791D02*
X151095295Y-100467690D01*
X150390605Y-99763000D02*
X150752396Y-100124791D01*
X149238000Y-99763000D02*
X150390605Y-99763000D01*
X158188000Y-75588000D02*
X156688000Y-74088000D01*
X156688000Y-74088000D02*
X156688000Y-72588000D01*
X171138000Y-83588000D02*
X171688000Y-83588000D01*
X171688000Y-83588000D02*
X174488000Y-80788000D01*
X174488000Y-80788000D02*
X181938000Y-80788000D01*
X181938000Y-80788000D02*
X182888000Y-80788000D01*
X171138000Y-81070000D02*
X171688000Y-81070000D01*
X171688000Y-81070000D02*
X174170000Y-78588000D01*
X174170000Y-78588000D02*
X181938000Y-78588000D01*
X181938000Y-78588000D02*
X182888000Y-78588000D01*
X171138000Y-78588000D02*
X171688000Y-78588000D01*
X171688000Y-78588000D02*
X172788000Y-77488000D01*
X172788000Y-77488000D02*
X181938000Y-77488000D01*
X181938000Y-77488000D02*
X182888000Y-77488000D01*
X161838000Y-86033000D02*
X161388000Y-86033000D01*
X168686079Y-77685599D02*
X168635599Y-77736079D01*
X168635599Y-79235401D02*
X161838000Y-86033000D01*
X168635599Y-77736079D02*
X168635599Y-79235401D01*
X172410886Y-76942820D02*
X171668107Y-77685599D01*
X171668107Y-77685599D02*
X168686079Y-77685599D01*
X184188000Y-69138000D02*
X176383180Y-76942820D01*
X176383180Y-76942820D02*
X172410886Y-76942820D01*
X184188000Y-68088000D02*
X184188000Y-69138000D01*
X167438000Y-51608076D02*
X171879630Y-51608076D01*
X171879630Y-51608076D02*
X185290401Y-65018847D01*
X185238000Y-68088000D02*
X184188000Y-68088000D01*
X185290401Y-65018847D02*
X185290401Y-68035599D01*
X185290401Y-68035599D02*
X185238000Y-68088000D01*
X183338001Y-66397999D02*
X184188000Y-65548000D01*
X168283188Y-77590106D02*
X168907893Y-76965401D01*
X168283188Y-78088490D02*
X168283188Y-77590106D01*
X162338000Y-84033678D02*
X168283188Y-78088490D01*
X175935599Y-73462349D02*
X175935599Y-71786079D01*
X172264911Y-76590411D02*
X172807537Y-76590411D01*
X179631955Y-71735599D02*
X183085599Y-68281955D01*
X175986079Y-71735599D02*
X179631955Y-71735599D01*
X175935599Y-71786079D02*
X175986079Y-71735599D01*
X168907893Y-76965401D02*
X171889921Y-76965401D01*
X161838000Y-84763000D02*
X162338000Y-84263000D01*
X161388000Y-84763000D02*
X161838000Y-84763000D01*
X162338000Y-84263000D02*
X162338000Y-84033678D01*
X171889921Y-76965401D02*
X172264911Y-76590411D01*
X183085599Y-67148785D02*
X183102812Y-67131572D01*
X183102812Y-67131572D02*
X183102812Y-66633188D01*
X172807537Y-76590411D02*
X175935599Y-73462349D01*
X183102812Y-66633188D02*
X183338001Y-66397999D01*
X183085599Y-68281955D02*
X183085599Y-67148785D01*
X177188000Y-61338000D02*
X178329401Y-62479401D01*
X178329401Y-62479401D02*
X181119401Y-62479401D01*
X181119401Y-62479401D02*
X183338001Y-64698001D01*
X183338001Y-64698001D02*
X184188000Y-65548000D01*
X178352812Y-71383188D02*
X180798001Y-68937999D01*
X168486079Y-75210599D02*
X172464407Y-75210599D01*
X173655288Y-74019718D02*
X173655288Y-73568006D01*
X172464407Y-75210599D02*
X173655288Y-74019718D01*
X161388000Y-83493000D02*
X161838000Y-83493000D01*
X180798001Y-68937999D02*
X181648000Y-68088000D01*
X161838000Y-83493000D02*
X168435599Y-76895401D01*
X168435599Y-76895401D02*
X168435599Y-75261079D01*
X168435599Y-75261079D02*
X168486079Y-75210599D01*
X175840106Y-71383188D02*
X178352812Y-71383188D01*
X173655288Y-73568006D02*
X175840106Y-71383188D01*
X182750401Y-66985599D02*
X182497999Y-67238001D01*
X181688000Y-63588000D02*
X182750401Y-64650401D01*
X182750401Y-64650401D02*
X182750401Y-66985599D01*
X182497999Y-67238001D02*
X181648000Y-68088000D01*
X171688000Y-63588000D02*
X181688000Y-63588000D01*
X159667924Y-51567924D02*
X171688000Y-63588000D01*
X126938000Y-51567924D02*
X159667924Y-51567924D01*
X161838000Y-82223000D02*
X168083188Y-75977812D01*
X180210401Y-68617153D02*
X180210401Y-66985599D01*
X180798001Y-66397999D02*
X181648000Y-65548000D01*
X168083189Y-75115105D02*
X168732893Y-74465401D01*
X161388000Y-82223000D02*
X161838000Y-82223000D01*
X168083188Y-75977812D02*
X168083189Y-75115105D01*
X168732893Y-74465401D02*
X172711221Y-74465401D01*
X172711221Y-74465401D02*
X173302877Y-73873745D01*
X173302877Y-73873745D02*
X173302877Y-73422033D01*
X177796777Y-71030777D02*
X180210401Y-68617153D01*
X175694133Y-71030777D02*
X177796777Y-71030777D01*
X173302877Y-73422033D02*
X175694133Y-71030777D01*
X180210401Y-66985599D02*
X180798001Y-66397999D01*
X160046599Y-52946599D02*
X171545599Y-64445599D01*
X171545599Y-64445599D02*
X180545599Y-64445599D01*
X180545599Y-64445599D02*
X180798001Y-64698001D01*
X180798001Y-64698001D02*
X181648000Y-65548000D01*
X117188000Y-41838000D02*
X117188000Y-43507198D01*
X117188000Y-43507198D02*
X126627401Y-52946599D01*
X126627401Y-52946599D02*
X160046599Y-52946599D01*
X178258001Y-68937999D02*
X179108000Y-68088000D01*
X168486079Y-72710599D02*
X171703931Y-72710599D01*
X167730778Y-75060222D02*
X167730779Y-74969131D01*
X168435599Y-72761079D02*
X168486079Y-72710599D01*
X168435599Y-74264311D02*
X168435599Y-72761079D01*
X167730779Y-74969131D02*
X168435599Y-74264311D01*
X161388000Y-80953000D02*
X161838000Y-80953000D01*
X161838000Y-80953000D02*
X167730778Y-75060222D01*
X171703931Y-72710599D02*
X173736164Y-70678366D01*
X176517634Y-70678366D02*
X178258001Y-68937999D01*
X173736164Y-70678366D02*
X176517634Y-70678366D01*
X177097153Y-69190401D02*
X178005599Y-68281955D01*
X171587215Y-69190401D02*
X177097153Y-69190401D01*
X178005599Y-66650401D02*
X178258001Y-66397999D01*
X168419428Y-72358188D02*
X171587215Y-69190401D01*
X178258001Y-66397999D02*
X179108000Y-65548000D01*
X161388000Y-79683000D02*
X161838000Y-79683000D01*
X168083189Y-72615105D02*
X168340106Y-72358188D01*
X168340106Y-72358188D02*
X168419428Y-72358188D01*
X178005599Y-68281955D02*
X178005599Y-66650401D01*
X168083189Y-73437811D02*
X168083189Y-72615105D01*
X161838000Y-79683000D02*
X168083189Y-73437811D01*
X175365919Y-68088000D02*
X176568000Y-68088000D01*
X172163000Y-68088000D02*
X175365919Y-68088000D01*
X166483178Y-73767822D02*
X166483178Y-73296054D01*
X166483178Y-73296054D02*
X168396053Y-71383179D01*
X168396053Y-71383179D02*
X168867821Y-71383179D01*
X168867821Y-71383179D02*
X172163000Y-68088000D01*
X161388000Y-78413000D02*
X161838000Y-78413000D01*
X161838000Y-78413000D02*
X166483178Y-73767822D01*
X161388000Y-77143000D02*
X161388000Y-76643000D01*
X161388000Y-76643000D02*
X172483000Y-65548000D01*
X172483000Y-65548000D02*
X175365919Y-65548000D01*
X175365919Y-65548000D02*
X176568000Y-65548000D01*
X123188000Y-74038000D02*
X123188000Y-74588000D01*
X123188000Y-74588000D02*
X123463000Y-74863000D01*
X123463000Y-74863000D02*
X123463000Y-75788000D01*
X123463000Y-75788000D02*
X123463000Y-76363000D01*
X125688000Y-74038000D02*
X125688000Y-74988000D01*
X125688000Y-74988000D02*
X124313000Y-76363000D01*
X124313000Y-76363000D02*
X123963000Y-76363000D01*
X151088000Y-110088000D02*
X154138000Y-110088000D01*
X154138000Y-110088000D02*
X154188000Y-110138000D01*
X162778000Y-108088000D02*
X163428000Y-108088000D01*
X161960002Y-107934950D02*
X162624950Y-107934950D01*
X157856952Y-112038000D02*
X161960002Y-107934950D01*
X162624950Y-107934950D02*
X162778000Y-108088000D01*
X154188000Y-112038000D02*
X157856952Y-112038000D01*
X142688000Y-105463000D02*
X142688000Y-106088000D01*
X144253612Y-103897388D02*
X142688000Y-105463000D01*
X146497388Y-103897388D02*
X144253612Y-103897388D01*
X148688000Y-106088000D02*
X146497388Y-103897388D01*
X149238000Y-106088000D02*
X148688000Y-106088000D01*
X150938000Y-108088000D02*
X149238000Y-106388000D01*
X149238000Y-106388000D02*
X149238000Y-106088000D01*
X156188000Y-111088000D02*
X156188000Y-110488000D01*
X153788000Y-108088000D02*
X150938000Y-108088000D01*
X156188000Y-110488000D02*
X153788000Y-108088000D01*
X151138000Y-106088000D02*
X153838000Y-106088000D01*
X154188000Y-105738000D02*
X154188000Y-105138000D01*
X153838000Y-106088000D02*
X154188000Y-105738000D01*
X176574432Y-98632473D02*
X176574432Y-98147540D01*
X174892322Y-102588000D02*
X176574432Y-100905890D01*
X170688000Y-102588000D02*
X174892322Y-102588000D01*
X176574432Y-100905890D02*
X176574432Y-98632473D01*
X177188000Y-92088000D02*
X177188000Y-90298000D01*
X177188000Y-90298000D02*
X177398000Y-90088000D01*
X158688000Y-107588000D02*
X161688000Y-107588000D01*
X161688000Y-107588000D02*
X163188000Y-106088000D01*
X154188000Y-107038000D02*
X155638000Y-107038000D01*
X155638000Y-107038000D02*
X155688000Y-107088000D01*
X121188000Y-95038000D02*
X121488000Y-95038000D01*
X121488000Y-95038000D02*
X124088000Y-92438000D01*
X124088000Y-92438000D02*
X124088000Y-92038000D01*
D51*
X121188000Y-99088000D02*
X123568000Y-99088000D01*
D52*
X129188000Y-99138000D02*
X126238000Y-99138000D01*
X126238000Y-99138000D02*
X126188000Y-99088000D01*
X159688000Y-93088000D02*
X157688000Y-93088000D01*
X126738000Y-81588000D02*
X126738000Y-81288000D01*
X126738000Y-81288000D02*
X124763000Y-79313000D01*
X124763000Y-79313000D02*
X124313000Y-79313000D01*
X124313000Y-79313000D02*
X123963000Y-79313000D01*
X123963000Y-79538000D02*
X123963000Y-79313000D01*
X169609951Y-86166049D02*
X169267052Y-86508948D01*
X170359951Y-80559951D02*
X170359951Y-85416049D01*
X169238000Y-79438000D02*
X170359951Y-80559951D01*
X169238000Y-78588000D02*
X169238000Y-79438000D01*
X170359951Y-85416049D02*
X169609951Y-86166049D01*
X166188000Y-106088000D02*
X166188000Y-107868000D01*
X166188000Y-107868000D02*
X165968000Y-108088000D01*
X166648578Y-93356669D02*
X166163645Y-93356669D01*
X173759375Y-93356669D02*
X166648578Y-93356669D01*
X178668000Y-98265294D02*
X173759375Y-93356669D01*
X178668000Y-108088000D02*
X178668000Y-98265294D01*
X156188000Y-96588000D02*
X156188000Y-93842690D01*
X148673599Y-78113599D02*
X147909999Y-77349999D01*
X154783301Y-78737699D02*
X154783301Y-77802255D01*
X153332553Y-78113599D02*
X148673599Y-78113599D01*
X154688000Y-78833000D02*
X154051954Y-78833000D01*
X154688000Y-74058000D02*
X154688000Y-72588000D01*
X154688000Y-77706954D02*
X154688000Y-74058000D01*
X154051954Y-78833000D02*
X153332553Y-78113599D01*
X154688000Y-78833000D02*
X154783301Y-78737699D01*
X154783301Y-77802255D02*
X154688000Y-77706954D01*
X147909999Y-77349999D02*
X147148000Y-76588000D01*
X159599939Y-86900788D02*
X159599939Y-87385721D01*
X159599939Y-81523581D02*
X159599939Y-86900788D01*
X157759358Y-79683000D02*
X159599939Y-81523581D01*
X155988000Y-79683000D02*
X157759358Y-79683000D01*
X159689842Y-87475624D02*
X159599939Y-87385721D01*
X159689842Y-89247945D02*
X159689842Y-87475624D01*
X151663000Y-101063000D02*
X151688000Y-101088000D01*
X149238000Y-101063000D02*
X151663000Y-101063000D01*
X155988000Y-79683000D02*
X155538000Y-79683000D01*
X155538000Y-79683000D02*
X154688000Y-78833000D01*
X165188000Y-87088000D02*
X165188000Y-84570000D01*
X165188000Y-84570000D02*
X168688000Y-81070000D01*
X168688000Y-81070000D02*
X169238000Y-81070000D01*
X157615015Y-84230080D02*
X157615015Y-84715013D01*
X156438000Y-82223000D02*
X157615015Y-83400015D01*
X157615015Y-83400015D02*
X157615015Y-84230080D01*
X155988000Y-82223000D02*
X156438000Y-82223000D01*
X152688000Y-72588000D02*
X152688000Y-75183310D01*
X167688000Y-105198000D02*
X167688000Y-103088000D01*
X167688000Y-103088000D02*
X167688000Y-95588000D01*
X154761324Y-103195222D02*
X158154102Y-106588000D01*
X149238000Y-102363000D02*
X152879779Y-102363000D01*
X152879779Y-102363000D02*
X153712001Y-103195222D01*
X153712001Y-103195222D02*
X154761324Y-103195222D01*
X158154102Y-106588000D02*
X161688000Y-106588000D01*
X155988000Y-82223000D02*
X150243000Y-82223000D01*
X150243000Y-82223000D02*
X147148000Y-79128000D01*
X169238000Y-83588000D02*
X169238000Y-83888000D01*
X169238000Y-83888000D02*
X167188000Y-85938000D01*
X167188000Y-85938000D02*
X167188000Y-88206952D01*
X167688000Y-95588000D02*
X167188000Y-95088000D01*
X169778000Y-108088000D02*
X169778000Y-107288000D01*
X169778000Y-107288000D02*
X167688000Y-105198000D01*
X140688000Y-76709314D02*
X140688000Y-74058000D01*
X141581087Y-77602401D02*
X140688000Y-76709314D01*
X140688000Y-74058000D02*
X140688000Y-72588000D01*
X156393067Y-93247389D02*
X143082401Y-79936723D01*
X156473745Y-93247389D02*
X156393067Y-93247389D01*
X156916757Y-93690401D02*
X156473745Y-93247389D01*
X161138000Y-94643000D02*
X160185401Y-93690401D01*
X161938000Y-94643000D02*
X161138000Y-94643000D01*
X142520723Y-77602401D02*
X141581087Y-77602401D01*
X143082401Y-79936723D02*
X143082401Y-78164079D01*
X143082401Y-78164079D02*
X142520723Y-77602401D01*
X160185401Y-93690401D02*
X156916757Y-93690401D01*
X143523000Y-74058000D02*
X142688000Y-73223000D01*
X145094913Y-78113599D02*
X144632285Y-78113599D01*
X159402255Y-90683301D02*
X158806954Y-90088000D01*
X158806954Y-90088000D02*
X155688000Y-90088000D01*
X155688000Y-90088000D02*
X145426999Y-79826999D01*
X159973745Y-90683301D02*
X159402255Y-90683301D01*
X160569046Y-90088000D02*
X159973745Y-90683301D01*
X145426999Y-79826999D02*
X145426999Y-79810315D01*
X145622401Y-79614913D02*
X145622401Y-78641087D01*
X145622401Y-78641087D02*
X145094913Y-78113599D01*
X163428000Y-90088000D02*
X160569046Y-90088000D01*
X145426999Y-79810315D02*
X145622401Y-79614913D01*
X144632285Y-78113599D02*
X143523000Y-77004314D01*
X143523000Y-77004314D02*
X143523000Y-74058000D01*
X142688000Y-73223000D02*
X142688000Y-72588000D01*
X156030899Y-74930899D02*
X155688000Y-74588000D01*
X157740589Y-76640589D02*
X156030899Y-74930899D01*
X159121637Y-76640589D02*
X157740589Y-76640589D01*
X160188000Y-77706952D02*
X159121637Y-76640589D01*
X160188000Y-86337322D02*
X160188000Y-77706952D01*
X160436079Y-86585401D02*
X160188000Y-86337322D01*
X161995401Y-86585401D02*
X160436079Y-86585401D01*
X164698000Y-89288000D02*
X161995401Y-86585401D01*
X164698000Y-90088000D02*
X164698000Y-89288000D01*
X144688000Y-72588000D02*
X144688000Y-74588000D01*
X168188000Y-82588000D02*
X165968000Y-84808000D01*
X165968000Y-84808000D02*
X165968000Y-90088000D01*
X146688000Y-72588000D02*
X146688000Y-71953000D01*
X146688000Y-71953000D02*
X149053000Y-69588000D01*
X149053000Y-69588000D02*
X159188000Y-69588000D01*
X148030899Y-74840411D02*
X147688000Y-75183310D01*
X148283310Y-74588000D02*
X148030899Y-74840411D01*
X148688000Y-74588000D02*
X148283310Y-74588000D01*
X154188000Y-78088000D02*
X150688000Y-74588000D01*
X150688000Y-74588000D02*
X148688000Y-74588000D01*
X169778000Y-90088000D02*
X169778000Y-88178000D01*
X169778000Y-88178000D02*
X168188000Y-86588000D01*
X148688000Y-74588000D02*
X148688000Y-72588000D01*
X171188000Y-86588000D02*
X171188000Y-89948000D01*
X171188000Y-89948000D02*
X171048000Y-90088000D01*
X150688000Y-72588000D02*
X150688000Y-71953000D01*
X150688000Y-71953000D02*
X152053000Y-70588000D01*
X152053000Y-70588000D02*
X156688000Y-70588000D01*
X151845101Y-90930899D02*
X152188000Y-90588000D01*
X151845101Y-98730034D02*
X151845101Y-90930899D01*
X153203067Y-100088000D02*
X151845101Y-98730034D01*
X153688000Y-100088000D02*
X153203067Y-100088000D01*
X153188000Y-81588000D02*
X153188000Y-80088000D01*
X158188000Y-74588000D02*
X158688000Y-74088000D01*
X158688000Y-74088000D02*
X158688000Y-72588000D01*
X167238000Y-108088000D02*
X167238000Y-108888000D01*
X167238000Y-108888000D02*
X166535590Y-109590410D01*
X166535590Y-109590410D02*
X163137053Y-109590410D01*
X163137053Y-109590410D02*
X162188000Y-108641357D01*
X162188000Y-108641357D02*
X162188000Y-108588000D01*
X170056079Y-110485599D02*
X169953678Y-110588000D01*
X169953678Y-110588000D02*
X163759473Y-110588000D01*
X174530401Y-110485599D02*
X170056079Y-110485599D01*
X163759473Y-110588000D02*
X163348127Y-110999346D01*
X176128000Y-108088000D02*
X176128000Y-108888000D01*
X176128000Y-108888000D02*
X174530401Y-110485599D01*
X162930051Y-110999346D02*
X162587152Y-110656447D01*
X163348127Y-110999346D02*
X162930051Y-110999346D01*
X144658678Y-105088000D02*
X146688000Y-105088000D01*
X144285599Y-105461079D02*
X144658678Y-105088000D01*
X144285599Y-106088000D02*
X144285599Y-105461079D01*
X144188000Y-106088000D02*
X144285599Y-106088000D01*
X174858000Y-108088000D02*
X174858000Y-108888000D01*
X174858000Y-108888000D02*
X173753310Y-109992690D01*
X173753310Y-109992690D02*
X164542057Y-109992690D01*
X164349027Y-110185720D02*
X163765638Y-110185720D01*
X164542057Y-109992690D02*
X164349027Y-110185720D01*
X163765638Y-110185720D02*
X163280705Y-110185720D01*
X143688000Y-105463000D02*
X144658310Y-104492690D01*
X145450914Y-104492690D02*
X145935847Y-104492690D01*
X144658310Y-104492690D02*
X145450914Y-104492690D01*
X143688000Y-106088000D02*
X143688000Y-105463000D01*
X177364882Y-97460560D02*
X173992322Y-94088000D01*
X173672933Y-94088000D02*
X173188000Y-94088000D01*
X173588000Y-108088000D02*
X173588000Y-104390706D01*
X173992322Y-94088000D02*
X173672933Y-94088000D01*
X173588000Y-104390706D02*
X177364882Y-100613824D01*
X177364882Y-100613824D02*
X177364882Y-97460560D01*
X159188000Y-78588000D02*
X156163000Y-78588000D01*
X156163000Y-78588000D02*
X155988000Y-78413000D01*
X164858100Y-92485599D02*
X157085599Y-92485599D01*
X165215924Y-92843423D02*
X164858100Y-92485599D01*
X165215924Y-93414915D02*
X165215924Y-92843423D01*
X164188000Y-94442839D02*
X165215924Y-93414915D01*
X164188000Y-102318000D02*
X164188000Y-94442839D01*
X168508000Y-106638000D02*
X164188000Y-102318000D01*
X168508000Y-108088000D02*
X168508000Y-106638000D01*
X152530899Y-87930899D02*
X152188000Y-87588000D01*
X157085599Y-92485599D02*
X152530899Y-87930899D01*
X148688000Y-82088000D02*
X148203067Y-82088000D01*
X148203067Y-82088000D02*
X145974811Y-79859744D01*
X145622401Y-62153599D02*
X148188000Y-59588000D01*
X145974811Y-79859744D02*
X145974811Y-78495113D01*
X145974811Y-78495113D02*
X145622401Y-78142703D01*
X145622401Y-78142703D02*
X145622401Y-62153599D01*
X153857974Y-102842811D02*
X152728162Y-101713000D01*
X157569896Y-105505410D02*
X154907297Y-102842811D01*
X163552698Y-105492698D02*
X162902254Y-105492698D01*
X154907297Y-102842811D02*
X153857974Y-102842811D01*
X162889542Y-105505410D02*
X157569896Y-105505410D01*
X162902254Y-105492698D02*
X162889542Y-105505410D01*
X164698000Y-108088000D02*
X164698000Y-106638000D01*
X150188000Y-101713000D02*
X149238000Y-101713000D01*
X152728162Y-101713000D02*
X150188000Y-101713000D01*
X164698000Y-106638000D02*
X163552698Y-105492698D01*
X158282575Y-94770644D02*
X158282575Y-94285711D01*
X160083179Y-96571248D02*
X158282575Y-94770644D01*
X160083179Y-103748179D02*
X160083179Y-96571248D01*
X161138000Y-104803000D02*
X160083179Y-103748179D01*
X161938000Y-104803000D02*
X161138000Y-104803000D01*
X160036435Y-95201940D02*
X159693536Y-94859041D01*
X161938000Y-103533000D02*
X161138000Y-103533000D01*
X160435590Y-102830590D02*
X160435590Y-95601095D01*
X161138000Y-103533000D02*
X160435590Y-102830590D01*
X160435590Y-95601095D02*
X160036435Y-95201940D01*
X167688000Y-92088000D02*
X167238000Y-91638000D01*
X167238000Y-91638000D02*
X167238000Y-90088000D01*
X121738000Y-78588000D02*
X121738000Y-81038000D01*
X121738000Y-81038000D02*
X121688000Y-81088000D01*
X168188000Y-88088000D02*
X168188000Y-89768000D01*
X168188000Y-89768000D02*
X168508000Y-90088000D01*
X121738000Y-77588000D02*
X120688000Y-77588000D01*
X155672933Y-108088000D02*
X155188000Y-108088000D01*
X156838000Y-106922933D02*
X155672933Y-108088000D01*
X156838000Y-106688000D02*
X156838000Y-106922933D01*
X156238000Y-106088000D02*
X156838000Y-106688000D01*
X156188000Y-106088000D02*
X156238000Y-106088000D01*
X144688000Y-106183983D02*
X144688000Y-106088000D01*
X146335599Y-106385599D02*
X144889616Y-106385599D01*
X149188000Y-110088000D02*
X149188000Y-109238000D01*
X149188000Y-109238000D02*
X146335599Y-106385599D01*
X144889616Y-106385599D02*
X144688000Y-106183983D01*
X150188000Y-109088000D02*
X149188000Y-110088000D01*
X159036385Y-97676209D02*
X158693486Y-97333310D01*
X157471353Y-101713000D02*
X159036385Y-100147968D01*
X159036385Y-100147968D02*
X159036385Y-97676209D01*
X155138000Y-101713000D02*
X157471353Y-101713000D01*
X155138000Y-101063000D02*
X157240307Y-101063000D01*
X157689649Y-100613658D02*
X158032548Y-100270759D01*
X157240307Y-101063000D02*
X157689649Y-100613658D01*
X157048410Y-100413000D02*
X158045267Y-99416143D01*
X155138000Y-100413000D02*
X157048410Y-100413000D01*
X158045267Y-99416143D02*
X158317529Y-99416143D01*
X155138000Y-99763000D02*
X157013000Y-99763000D01*
X157013000Y-99763000D02*
X158188000Y-98588000D01*
X134316700Y-108228000D02*
X132512011Y-110032689D01*
X132512011Y-110032689D02*
X132489921Y-110010599D01*
X132489921Y-110010599D02*
X123886079Y-110010599D01*
X123886079Y-110010599D02*
X123326287Y-110570391D01*
X123326287Y-110570391D02*
X119967449Y-110570391D01*
X119967449Y-110570391D02*
X119675058Y-110278000D01*
X141488000Y-108288000D02*
X140850500Y-108288000D01*
X140850500Y-108288000D02*
X140790500Y-108228000D01*
X140790500Y-108228000D02*
X134316700Y-108228000D01*
X119675058Y-110278000D02*
X119128000Y-110278000D01*
X119128000Y-110278000D02*
X118570392Y-109720392D01*
X118570392Y-109720392D02*
X117891070Y-109720392D01*
X117891070Y-109720392D02*
X117460599Y-109289921D01*
X117460599Y-109289921D02*
X117460599Y-108610599D01*
X117460599Y-108610599D02*
X117288000Y-108438000D01*
X140790500Y-107848000D02*
X140850500Y-107788000D01*
X127388000Y-109630608D02*
X132376692Y-109630608D01*
X140850500Y-107788000D02*
X141488000Y-107788000D01*
X127257834Y-109600899D02*
X127321243Y-109623087D01*
X127321243Y-109623087D02*
X127388000Y-109630608D01*
X132376692Y-109630608D02*
X134159300Y-107848000D01*
X134159300Y-107848000D02*
X140790500Y-107848000D01*
X117938000Y-108438000D02*
X117938000Y-108550599D01*
X123168889Y-110190401D02*
X123728682Y-109630608D01*
X119832446Y-109898000D02*
X120124847Y-110190401D01*
X120124847Y-110190401D02*
X123168889Y-110190401D01*
X127153450Y-109517655D02*
X127200953Y-109565158D01*
X126188000Y-109630608D02*
X126254756Y-109623087D01*
X117938000Y-108550599D02*
X118110599Y-108723198D01*
X118110599Y-108723198D02*
X118110599Y-109289921D01*
X127200953Y-109565158D02*
X127257834Y-109600899D01*
X123728682Y-109630608D02*
X126188000Y-109630608D01*
X126375046Y-109565158D02*
X126422549Y-109517655D01*
X118110599Y-109289921D02*
X118161079Y-109340401D01*
X118161079Y-109340401D02*
X118727802Y-109340401D01*
X118727802Y-109340401D02*
X119285401Y-109898000D01*
X119285401Y-109898000D02*
X119832446Y-109898000D01*
X126254756Y-109623087D02*
X126318165Y-109600899D01*
X126318165Y-109600899D02*
X126375046Y-109565158D01*
X126517709Y-109128089D02*
X126553450Y-109071208D01*
X126422549Y-109517655D02*
X126458290Y-109460774D01*
X126721243Y-108965776D02*
X126788000Y-108958254D01*
X126458290Y-109460774D02*
X126480478Y-109397365D01*
X126480478Y-109397365D02*
X126488000Y-109330608D01*
X126488000Y-109330608D02*
X126488000Y-109258254D01*
X126854756Y-108965776D02*
X126918165Y-108987964D01*
X126488000Y-109258254D02*
X126495521Y-109191498D01*
X126657834Y-108987964D02*
X126721243Y-108965776D01*
X126495521Y-109191498D02*
X126517709Y-109128089D01*
X126553450Y-109071208D02*
X126600953Y-109023705D01*
X126600953Y-109023705D02*
X126657834Y-108987964D01*
X126788000Y-108958254D02*
X126854756Y-108965776D01*
X126918165Y-108987964D02*
X126975046Y-109023705D01*
X127080478Y-109191498D02*
X127088000Y-109258254D01*
X126975046Y-109023705D02*
X127022549Y-109071208D01*
X127022549Y-109071208D02*
X127058290Y-109128089D01*
X127058290Y-109128089D02*
X127080478Y-109191498D01*
X127088000Y-109258254D02*
X127088000Y-109330608D01*
X127088000Y-109330608D02*
X127095521Y-109397365D01*
X127117709Y-109460774D02*
X127153450Y-109517655D01*
X127095521Y-109397365D02*
X127117709Y-109460774D01*
D54*
G36*
X148217166Y-109306613D02*
X148190560Y-109438000D01*
X148190560Y-110738000D01*
X148234838Y-110973317D01*
X148373910Y-111189441D01*
X148586110Y-111334431D01*
X148838000Y-111385440D01*
X149007619Y-111385440D01*
X148859460Y-111533341D01*
X148710270Y-111892630D01*
X148709931Y-112281663D01*
X148858493Y-112641212D01*
X149133341Y-112916540D01*
X149492630Y-113065730D01*
X149672118Y-113065886D01*
X149984231Y-113378000D01*
X132935440Y-113378000D01*
X132935440Y-110616755D01*
X133031735Y-110552413D01*
X133031739Y-110552407D01*
X134621147Y-108963000D01*
X138210209Y-108963000D01*
X138209931Y-109281663D01*
X138358493Y-109641212D01*
X138633341Y-109916540D01*
X138858422Y-110010002D01*
X139562208Y-110713787D01*
X139562210Y-110713790D01*
X139716752Y-110817051D01*
X139849326Y-110905634D01*
X140188000Y-110973001D01*
X140188005Y-110973000D01*
X140603000Y-110973000D01*
X140603000Y-111387995D01*
X140602999Y-111388000D01*
X140646706Y-111607723D01*
X140670367Y-111726675D01*
X140812532Y-111939441D01*
X140862210Y-112013790D01*
X141040560Y-112192140D01*
X141040560Y-112713000D01*
X141084838Y-112948317D01*
X141223910Y-113164441D01*
X141436110Y-113309431D01*
X141688000Y-113360440D01*
X142688000Y-113360440D01*
X142923317Y-113316162D01*
X143139441Y-113177090D01*
X143185969Y-113108994D01*
X143328302Y-113251327D01*
X143561691Y-113348000D01*
X143902250Y-113348000D01*
X144061000Y-113189250D01*
X144061000Y-112535588D01*
X144165730Y-112283370D01*
X144165789Y-112215000D01*
X144315000Y-112215000D01*
X144315000Y-113189250D01*
X144473750Y-113348000D01*
X144814309Y-113348000D01*
X145047698Y-113251327D01*
X145226327Y-113072699D01*
X145323000Y-112839310D01*
X145323000Y-112373750D01*
X145164250Y-112215000D01*
X144315000Y-112215000D01*
X144165789Y-112215000D01*
X144166028Y-111941000D01*
X144315000Y-111941000D01*
X144315000Y-111961000D01*
X145164250Y-111961000D01*
X145323000Y-111802250D01*
X145323000Y-111336690D01*
X145226327Y-111103301D01*
X145113397Y-110990371D01*
X145289441Y-110877090D01*
X145434431Y-110664890D01*
X145485440Y-110413000D01*
X145485440Y-110085440D01*
X145813000Y-110085440D01*
X146048317Y-110041162D01*
X146264441Y-109902090D01*
X146409431Y-109689890D01*
X146460440Y-109438000D01*
X146460440Y-109138000D01*
X146440933Y-109034329D01*
X146460440Y-108938000D01*
X146460440Y-108638000D01*
X146440933Y-108534329D01*
X146460440Y-108438000D01*
X146460440Y-108138000D01*
X146440933Y-108034329D01*
X146460440Y-107938000D01*
X146460440Y-107638000D01*
X146440933Y-107534329D01*
X146441598Y-107531044D01*
X148217166Y-109306613D01*
X148217166Y-109306613D01*
G37*
X148217166Y-109306613D02*
X148190560Y-109438000D01*
X148190560Y-110738000D01*
X148234838Y-110973317D01*
X148373910Y-111189441D01*
X148586110Y-111334431D01*
X148838000Y-111385440D01*
X149007619Y-111385440D01*
X148859460Y-111533341D01*
X148710270Y-111892630D01*
X148709931Y-112281663D01*
X148858493Y-112641212D01*
X149133341Y-112916540D01*
X149492630Y-113065730D01*
X149672118Y-113065886D01*
X149984231Y-113378000D01*
X132935440Y-113378000D01*
X132935440Y-110616755D01*
X133031735Y-110552413D01*
X133031739Y-110552407D01*
X134621147Y-108963000D01*
X138210209Y-108963000D01*
X138209931Y-109281663D01*
X138358493Y-109641212D01*
X138633341Y-109916540D01*
X138858422Y-110010002D01*
X139562208Y-110713787D01*
X139562210Y-110713790D01*
X139716752Y-110817051D01*
X139849326Y-110905634D01*
X140188000Y-110973001D01*
X140188005Y-110973000D01*
X140603000Y-110973000D01*
X140603000Y-111387995D01*
X140602999Y-111388000D01*
X140646706Y-111607723D01*
X140670367Y-111726675D01*
X140812532Y-111939441D01*
X140862210Y-112013790D01*
X141040560Y-112192140D01*
X141040560Y-112713000D01*
X141084838Y-112948317D01*
X141223910Y-113164441D01*
X141436110Y-113309431D01*
X141688000Y-113360440D01*
X142688000Y-113360440D01*
X142923317Y-113316162D01*
X143139441Y-113177090D01*
X143185969Y-113108994D01*
X143328302Y-113251327D01*
X143561691Y-113348000D01*
X143902250Y-113348000D01*
X144061000Y-113189250D01*
X144061000Y-112535588D01*
X144165730Y-112283370D01*
X144165789Y-112215000D01*
X144315000Y-112215000D01*
X144315000Y-113189250D01*
X144473750Y-113348000D01*
X144814309Y-113348000D01*
X145047698Y-113251327D01*
X145226327Y-113072699D01*
X145323000Y-112839310D01*
X145323000Y-112373750D01*
X145164250Y-112215000D01*
X144315000Y-112215000D01*
X144165789Y-112215000D01*
X144166028Y-111941000D01*
X144315000Y-111941000D01*
X144315000Y-111961000D01*
X145164250Y-111961000D01*
X145323000Y-111802250D01*
X145323000Y-111336690D01*
X145226327Y-111103301D01*
X145113397Y-110990371D01*
X145289441Y-110877090D01*
X145434431Y-110664890D01*
X145485440Y-110413000D01*
X145485440Y-110085440D01*
X145813000Y-110085440D01*
X146048317Y-110041162D01*
X146264441Y-109902090D01*
X146409431Y-109689890D01*
X146460440Y-109438000D01*
X146460440Y-109138000D01*
X146440933Y-109034329D01*
X146460440Y-108938000D01*
X146460440Y-108638000D01*
X146440933Y-108534329D01*
X146460440Y-108438000D01*
X146460440Y-108138000D01*
X146440933Y-108034329D01*
X146460440Y-107938000D01*
X146460440Y-107638000D01*
X146440933Y-107534329D01*
X146441598Y-107531044D01*
X148217166Y-109306613D01*
G36*
X143251000Y-41302250D02*
X143409750Y-41461000D01*
X144521000Y-41461000D01*
X144521000Y-41441000D01*
X144775000Y-41441000D01*
X144775000Y-41461000D01*
X144795000Y-41461000D01*
X144795000Y-41715000D01*
X144775000Y-41715000D01*
X144775000Y-44096250D01*
X144933750Y-44255000D01*
X145536309Y-44255000D01*
X145769698Y-44158327D01*
X145918000Y-44010026D01*
X145918000Y-44683000D01*
X145473750Y-44683000D01*
X145315000Y-44841750D01*
X145315000Y-46461000D01*
X145335000Y-46461000D01*
X145335000Y-46715000D01*
X145315000Y-46715000D01*
X145315000Y-48334250D01*
X145473750Y-48493000D01*
X145949310Y-48493000D01*
X146182699Y-48396327D01*
X146196246Y-48382780D01*
X146301110Y-48454431D01*
X146553000Y-48505440D01*
X147823000Y-48505440D01*
X148058317Y-48461162D01*
X148179900Y-48382926D01*
X148193301Y-48396327D01*
X148426690Y-48493000D01*
X148902250Y-48493000D01*
X149061000Y-48334250D01*
X149061000Y-46715000D01*
X149315000Y-46715000D01*
X149315000Y-48334250D01*
X149473750Y-48493000D01*
X149949310Y-48493000D01*
X150182699Y-48396327D01*
X150361327Y-48217698D01*
X150458000Y-47984309D01*
X150458000Y-46873750D01*
X155418000Y-46873750D01*
X155418000Y-47984309D01*
X155514673Y-48217698D01*
X155693301Y-48396327D01*
X155926690Y-48493000D01*
X156402250Y-48493000D01*
X156561000Y-48334250D01*
X156561000Y-46715000D01*
X156815000Y-46715000D01*
X156815000Y-48334250D01*
X156973750Y-48493000D01*
X157449310Y-48493000D01*
X157682699Y-48396327D01*
X157688000Y-48391026D01*
X157693301Y-48396327D01*
X157926690Y-48493000D01*
X158402250Y-48493000D01*
X158561000Y-48334250D01*
X158561000Y-46715000D01*
X158815000Y-46715000D01*
X158815000Y-48334250D01*
X158973750Y-48493000D01*
X159449310Y-48493000D01*
X159682699Y-48396327D01*
X159861327Y-48217698D01*
X159958000Y-47984309D01*
X159958000Y-46873750D01*
X159799250Y-46715000D01*
X158815000Y-46715000D01*
X158561000Y-46715000D01*
X156815000Y-46715000D01*
X156561000Y-46715000D01*
X155576750Y-46715000D01*
X155418000Y-46873750D01*
X150458000Y-46873750D01*
X150299250Y-46715000D01*
X149315000Y-46715000D01*
X149061000Y-46715000D01*
X149041000Y-46715000D01*
X149041000Y-46461000D01*
X149061000Y-46461000D01*
X149061000Y-44841750D01*
X149315000Y-44841750D01*
X149315000Y-46461000D01*
X150299250Y-46461000D01*
X150458000Y-46302250D01*
X150458000Y-45191691D01*
X155418000Y-45191691D01*
X155418000Y-46302250D01*
X155576750Y-46461000D01*
X156561000Y-46461000D01*
X156561000Y-44841750D01*
X156815000Y-44841750D01*
X156815000Y-46461000D01*
X158561000Y-46461000D01*
X158561000Y-44841750D01*
X158815000Y-44841750D01*
X158815000Y-46461000D01*
X159799250Y-46461000D01*
X159958000Y-46302250D01*
X159958000Y-45191691D01*
X159861327Y-44958302D01*
X159682699Y-44779673D01*
X159449310Y-44683000D01*
X158973750Y-44683000D01*
X158815000Y-44841750D01*
X158561000Y-44841750D01*
X158402250Y-44683000D01*
X157926690Y-44683000D01*
X157693301Y-44779673D01*
X157688000Y-44784974D01*
X157682699Y-44779673D01*
X157449310Y-44683000D01*
X156973750Y-44683000D01*
X156815000Y-44841750D01*
X156561000Y-44841750D01*
X156402250Y-44683000D01*
X155926690Y-44683000D01*
X155693301Y-44779673D01*
X155514673Y-44958302D01*
X155418000Y-45191691D01*
X150458000Y-45191691D01*
X150361327Y-44958302D01*
X150182699Y-44779673D01*
X149949310Y-44683000D01*
X149473750Y-44683000D01*
X149315000Y-44841750D01*
X149061000Y-44841750D01*
X148902250Y-44683000D01*
X148458000Y-44683000D01*
X148458000Y-44010026D01*
X148606302Y-44158327D01*
X148839691Y-44255000D01*
X149442250Y-44255000D01*
X149601000Y-44096250D01*
X149601000Y-41715000D01*
X149855000Y-41715000D01*
X149855000Y-44096250D01*
X150013750Y-44255000D01*
X150616309Y-44255000D01*
X150712237Y-44215265D01*
X168632670Y-44215265D01*
X168922078Y-44915686D01*
X169457495Y-45452039D01*
X170157410Y-45742668D01*
X170915265Y-45743330D01*
X171615686Y-45453922D01*
X172152039Y-44918505D01*
X172442668Y-44218590D01*
X172442670Y-44215265D01*
X181932670Y-44215265D01*
X182222078Y-44915686D01*
X182757495Y-45452039D01*
X183457410Y-45742668D01*
X184215265Y-45743330D01*
X184915686Y-45453922D01*
X185452039Y-44918505D01*
X185742668Y-44218590D01*
X185743330Y-43460735D01*
X185453922Y-42760314D01*
X184918505Y-42223961D01*
X184218590Y-41933332D01*
X183460735Y-41932670D01*
X182760314Y-42222078D01*
X182223961Y-42757495D01*
X181933332Y-43457410D01*
X181932670Y-44215265D01*
X172442670Y-44215265D01*
X172443330Y-43460735D01*
X172153922Y-42760314D01*
X171618505Y-42223961D01*
X170918590Y-41933332D01*
X170160735Y-41932670D01*
X169460314Y-42222078D01*
X168923961Y-42757495D01*
X168633332Y-43457410D01*
X168632670Y-44215265D01*
X150712237Y-44215265D01*
X150849698Y-44158327D01*
X151028327Y-43979699D01*
X151125000Y-43746310D01*
X151125000Y-41873750D01*
X150966250Y-41715000D01*
X149855000Y-41715000D01*
X149601000Y-41715000D01*
X149581000Y-41715000D01*
X149581000Y-41461000D01*
X149601000Y-41461000D01*
X149601000Y-41441000D01*
X149855000Y-41441000D01*
X149855000Y-41461000D01*
X150966250Y-41461000D01*
X151125000Y-41302250D01*
X151125000Y-39798000D01*
X182118069Y-39798000D01*
X183824390Y-40137408D01*
X185211654Y-41064349D01*
X186138592Y-42451610D01*
X186478000Y-44157931D01*
X186478000Y-71353000D01*
X185773750Y-71353000D01*
X185615000Y-71511750D01*
X185615000Y-72586000D01*
X185635000Y-72586000D01*
X185635000Y-72840000D01*
X185615000Y-72840000D01*
X185615000Y-73914250D01*
X185773750Y-74073000D01*
X186478000Y-74073000D01*
X186478000Y-85103000D01*
X185773750Y-85103000D01*
X185615000Y-85261750D01*
X185615000Y-86336000D01*
X185635000Y-86336000D01*
X185635000Y-86590000D01*
X185615000Y-86590000D01*
X185615000Y-87664250D01*
X185773750Y-87823000D01*
X186478000Y-87823000D01*
X186478000Y-109018069D01*
X186138592Y-110724390D01*
X185211654Y-112111651D01*
X183824390Y-113038592D01*
X182118069Y-113378000D01*
X174597446Y-113378000D01*
X177917723Y-110057724D01*
X178077051Y-109819272D01*
X178078694Y-109811012D01*
X178252788Y-109927338D01*
X178668000Y-110009929D01*
X179083212Y-109927338D01*
X179315741Y-109771968D01*
X179643999Y-109932408D01*
X179811000Y-109805502D01*
X179811000Y-108215000D01*
X180065000Y-108215000D01*
X180065000Y-109805502D01*
X180232001Y-109932408D01*
X180615408Y-109745013D01*
X180891808Y-109420544D01*
X181023000Y-109015000D01*
X181023000Y-108215000D01*
X180065000Y-108215000D01*
X179811000Y-108215000D01*
X179791000Y-108215000D01*
X179791000Y-107961000D01*
X179811000Y-107961000D01*
X179811000Y-106370498D01*
X180065000Y-106370498D01*
X180065000Y-107961000D01*
X181023000Y-107961000D01*
X181023000Y-107161000D01*
X180891808Y-106755456D01*
X180615408Y-106430987D01*
X180232001Y-106243592D01*
X180065000Y-106370498D01*
X179811000Y-106370498D01*
X179643999Y-106243592D01*
X179403000Y-106361383D01*
X179403000Y-98265294D01*
X179347051Y-97984022D01*
X179285276Y-97891569D01*
X179187723Y-97745570D01*
X174765152Y-93323000D01*
X176562088Y-93323000D01*
X176606987Y-93353000D01*
X176620983Y-93362352D01*
X176902255Y-93418301D01*
X180473745Y-93418301D01*
X180755017Y-93362352D01*
X180993468Y-93203024D01*
X181303024Y-92893469D01*
X181462352Y-92655017D01*
X181473630Y-92598317D01*
X181518301Y-92373745D01*
X181518301Y-90222785D01*
X181463702Y-89948301D01*
X181462352Y-89941512D01*
X181375410Y-89811394D01*
X181375410Y-86748750D01*
X183853000Y-86748750D01*
X183853000Y-87314309D01*
X183949673Y-87547698D01*
X184128301Y-87726327D01*
X184361690Y-87823000D01*
X185202250Y-87823000D01*
X185361000Y-87664250D01*
X185361000Y-86590000D01*
X184011750Y-86590000D01*
X183853000Y-86748750D01*
X181375410Y-86748750D01*
X181375410Y-85611691D01*
X183853000Y-85611691D01*
X183853000Y-86177250D01*
X184011750Y-86336000D01*
X185361000Y-86336000D01*
X185361000Y-85261750D01*
X185202250Y-85103000D01*
X184361690Y-85103000D01*
X184128301Y-85199673D01*
X183949673Y-85378302D01*
X183853000Y-85611691D01*
X181375410Y-85611691D01*
X181375410Y-84590036D01*
X181490560Y-84474886D01*
X181490560Y-84488000D01*
X181534838Y-84723317D01*
X181673910Y-84939441D01*
X181886110Y-85084431D01*
X182138000Y-85135440D01*
X183638000Y-85135440D01*
X183873317Y-85091162D01*
X184089441Y-84952090D01*
X184234431Y-84739890D01*
X184285440Y-84488000D01*
X184285440Y-83688000D01*
X184256179Y-83532493D01*
X184285440Y-83388000D01*
X184285440Y-82588000D01*
X184259081Y-82447913D01*
X184273000Y-82414309D01*
X184273000Y-82173750D01*
X184114250Y-82015000D01*
X183924182Y-82015000D01*
X183889890Y-81991569D01*
X183638000Y-81940560D01*
X182138000Y-81940560D01*
X181902683Y-81984838D01*
X181855810Y-82015000D01*
X181661750Y-82015000D01*
X181503000Y-82173750D01*
X181503000Y-82411666D01*
X181418276Y-82468277D01*
X180120687Y-83765867D01*
X179961359Y-84004318D01*
X179905410Y-84285590D01*
X179905410Y-87422495D01*
X179742659Y-87259460D01*
X179383370Y-87110270D01*
X178994337Y-87109931D01*
X178823000Y-87180726D01*
X178823000Y-86748750D01*
X178664250Y-86590000D01*
X177315000Y-86590000D01*
X177315000Y-87664250D01*
X177473750Y-87823000D01*
X178201420Y-87823000D01*
X178042210Y-87982210D01*
X177850367Y-88269325D01*
X177850190Y-88270215D01*
X177849636Y-88273000D01*
X177813212Y-88248662D01*
X177398000Y-88166071D01*
X176982788Y-88248662D01*
X176763000Y-88395520D01*
X176543212Y-88248662D01*
X176128000Y-88166071D01*
X175712788Y-88248662D01*
X175493000Y-88395520D01*
X175273212Y-88248662D01*
X174858000Y-88166071D01*
X174442788Y-88248662D01*
X174223000Y-88395520D01*
X174003212Y-88248662D01*
X173588000Y-88166071D01*
X173172788Y-88248662D01*
X172953000Y-88395520D01*
X172733212Y-88248662D01*
X172318000Y-88166071D01*
X171923000Y-88244642D01*
X171923000Y-87236036D01*
X172016540Y-87142659D01*
X172165730Y-86783370D01*
X172165760Y-86748750D01*
X175553000Y-86748750D01*
X175553000Y-87314309D01*
X175649673Y-87547698D01*
X175828301Y-87726327D01*
X176061690Y-87823000D01*
X176902250Y-87823000D01*
X177061000Y-87664250D01*
X177061000Y-86590000D01*
X175711750Y-86590000D01*
X175553000Y-86748750D01*
X172165760Y-86748750D01*
X172166069Y-86394337D01*
X172017507Y-86034788D01*
X171742659Y-85759460D01*
X171386793Y-85611691D01*
X175553000Y-85611691D01*
X175553000Y-86177250D01*
X175711750Y-86336000D01*
X177061000Y-86336000D01*
X177061000Y-85261750D01*
X177315000Y-85261750D01*
X177315000Y-86336000D01*
X178664250Y-86336000D01*
X178823000Y-86177250D01*
X178823000Y-85611691D01*
X178726327Y-85378302D01*
X178547699Y-85199673D01*
X178314310Y-85103000D01*
X177473750Y-85103000D01*
X177315000Y-85261750D01*
X177061000Y-85261750D01*
X176902250Y-85103000D01*
X176061690Y-85103000D01*
X175828301Y-85199673D01*
X175649673Y-85378302D01*
X175553000Y-85611691D01*
X171386793Y-85611691D01*
X171383370Y-85610270D01*
X171056374Y-85609985D01*
X171094951Y-85416049D01*
X171094951Y-84885440D01*
X171488000Y-84885440D01*
X171723317Y-84841162D01*
X171939441Y-84702090D01*
X172084431Y-84489890D01*
X172135440Y-84238000D01*
X172135440Y-84156021D01*
X172207723Y-84107723D01*
X174792447Y-81523000D01*
X181503000Y-81523000D01*
X181503000Y-81602250D01*
X181661750Y-81761000D01*
X181851818Y-81761000D01*
X181886110Y-81784431D01*
X182138000Y-81835440D01*
X183638000Y-81835440D01*
X183873317Y-81791162D01*
X183920190Y-81761000D01*
X184114250Y-81761000D01*
X184273000Y-81602250D01*
X184273000Y-81361691D01*
X184257731Y-81324829D01*
X184285440Y-81188000D01*
X184285440Y-80388000D01*
X184256179Y-80232493D01*
X184285440Y-80088000D01*
X184285440Y-79288000D01*
X184256179Y-79132493D01*
X184285440Y-78988000D01*
X184285440Y-78188000D01*
X184256179Y-78032493D01*
X184285440Y-77888000D01*
X184285440Y-77088000D01*
X184256179Y-76932493D01*
X184285440Y-76788000D01*
X184285440Y-75988000D01*
X184241162Y-75752683D01*
X184102090Y-75536559D01*
X183889890Y-75391569D01*
X183638000Y-75340560D01*
X182138000Y-75340560D01*
X181902683Y-75384838D01*
X181686559Y-75523910D01*
X181541569Y-75736110D01*
X181490560Y-75988000D01*
X181490560Y-76753000D01*
X177612446Y-76753000D01*
X181366696Y-72998750D01*
X183853000Y-72998750D01*
X183853000Y-73564309D01*
X183949673Y-73797698D01*
X184128301Y-73976327D01*
X184361690Y-74073000D01*
X185202250Y-74073000D01*
X185361000Y-73914250D01*
X185361000Y-72840000D01*
X184011750Y-72840000D01*
X183853000Y-72998750D01*
X181366696Y-72998750D01*
X182503755Y-71861691D01*
X183853000Y-71861691D01*
X183853000Y-72427250D01*
X184011750Y-72586000D01*
X185361000Y-72586000D01*
X185361000Y-71511750D01*
X185202250Y-71353000D01*
X184361690Y-71353000D01*
X184128301Y-71449673D01*
X183949673Y-71628302D01*
X183853000Y-71861691D01*
X182503755Y-71861691D01*
X184707723Y-69657724D01*
X184756021Y-69585440D01*
X185038000Y-69585440D01*
X185273317Y-69541162D01*
X185489441Y-69402090D01*
X185634431Y-69189890D01*
X185685440Y-68938000D01*
X185685440Y-68656021D01*
X185757723Y-68607723D01*
X185810124Y-68555323D01*
X185969452Y-68316871D01*
X185980974Y-68258948D01*
X186025401Y-68035599D01*
X186025401Y-65018847D01*
X185969452Y-64737575D01*
X185959714Y-64723001D01*
X185810124Y-64499123D01*
X181026266Y-59715265D01*
X181932670Y-59715265D01*
X182222078Y-60415686D01*
X182757495Y-60952039D01*
X183457410Y-61242668D01*
X184215265Y-61243330D01*
X184915686Y-60953922D01*
X185452039Y-60418505D01*
X185742668Y-59718590D01*
X185743330Y-58960735D01*
X185453922Y-58260314D01*
X184918505Y-57723961D01*
X184218590Y-57433332D01*
X183460735Y-57432670D01*
X182760314Y-57722078D01*
X182223961Y-58257495D01*
X181933332Y-58957410D01*
X181932670Y-59715265D01*
X181026266Y-59715265D01*
X172399353Y-51088353D01*
X172160902Y-50929025D01*
X171879630Y-50873076D01*
X168783275Y-50873076D01*
X168730738Y-50745927D01*
X168333225Y-50347720D01*
X168729231Y-49952404D01*
X168961735Y-49392472D01*
X168962264Y-48786188D01*
X168730738Y-48225851D01*
X168302404Y-47796769D01*
X167742472Y-47564265D01*
X167136188Y-47563736D01*
X166575851Y-47795262D01*
X166146769Y-48223596D01*
X165914265Y-48783528D01*
X165913736Y-49389812D01*
X166145262Y-49950149D01*
X166542775Y-50348356D01*
X166146769Y-50743672D01*
X165914265Y-51303604D01*
X165913736Y-51909888D01*
X166145262Y-52470225D01*
X166573596Y-52899307D01*
X166582925Y-52903181D01*
X166545409Y-53015804D01*
X167438000Y-53908395D01*
X168330591Y-53015804D01*
X168293238Y-52903670D01*
X168300149Y-52900814D01*
X168729231Y-52472480D01*
X168782964Y-52343076D01*
X171575184Y-52343076D01*
X179145354Y-59913246D01*
X178825851Y-60045262D01*
X178437699Y-60432737D01*
X178052404Y-60046769D01*
X177492472Y-59814265D01*
X176886188Y-59813736D01*
X176325851Y-60045262D01*
X175896769Y-60473596D01*
X175890456Y-60488800D01*
X175760196Y-60445409D01*
X174867605Y-61338000D01*
X175760196Y-62230591D01*
X175889977Y-62187359D01*
X175895262Y-62200149D01*
X176323596Y-62629231D01*
X176862492Y-62853000D01*
X174931772Y-62853000D01*
X175055700Y-62847723D01*
X175495533Y-62665539D01*
X175580591Y-62410196D01*
X174688000Y-61517605D01*
X173795409Y-62410196D01*
X173880467Y-62665539D01*
X174393787Y-62853000D01*
X171992447Y-62853000D01*
X170382311Y-61242864D01*
X170915265Y-61243330D01*
X171262234Y-61099965D01*
X173152484Y-61099965D01*
X173178277Y-61705700D01*
X173360461Y-62145533D01*
X173615804Y-62230591D01*
X174508395Y-61338000D01*
X173615804Y-60445409D01*
X173360461Y-60530467D01*
X173152484Y-61099965D01*
X171262234Y-61099965D01*
X171615686Y-60953922D01*
X172152039Y-60418505D01*
X172215445Y-60265804D01*
X173795409Y-60265804D01*
X174688000Y-61158395D01*
X175580591Y-60265804D01*
X175495533Y-60010461D01*
X174926035Y-59802484D01*
X174320300Y-59828277D01*
X173880467Y-60010461D01*
X173795409Y-60265804D01*
X172215445Y-60265804D01*
X172442668Y-59718590D01*
X172443330Y-58960735D01*
X172153922Y-58260314D01*
X171618505Y-57723961D01*
X170918590Y-57433332D01*
X170160735Y-57432670D01*
X169460314Y-57722078D01*
X168923961Y-58257495D01*
X168633332Y-58957410D01*
X168632864Y-59493417D01*
X164299643Y-55160196D01*
X166545409Y-55160196D01*
X166630467Y-55415539D01*
X167199965Y-55623516D01*
X167805700Y-55597723D01*
X168245533Y-55415539D01*
X168330591Y-55160196D01*
X167438000Y-54267605D01*
X166545409Y-55160196D01*
X164299643Y-55160196D01*
X162989412Y-53849965D01*
X165902484Y-53849965D01*
X165928277Y-54455700D01*
X166110461Y-54895533D01*
X166365804Y-54980591D01*
X167258395Y-54088000D01*
X167617605Y-54088000D01*
X168510196Y-54980591D01*
X168765539Y-54895533D01*
X168973516Y-54326035D01*
X168947723Y-53720300D01*
X168765539Y-53280467D01*
X168510196Y-53195409D01*
X167617605Y-54088000D01*
X167258395Y-54088000D01*
X166365804Y-53195409D01*
X166110461Y-53280467D01*
X165902484Y-53849965D01*
X162989412Y-53849965D01*
X160187647Y-51048201D01*
X159949196Y-50888873D01*
X159667924Y-50832924D01*
X128283275Y-50832924D01*
X128230738Y-50705775D01*
X127802404Y-50276693D01*
X127793075Y-50272819D01*
X127830591Y-50160196D01*
X126938000Y-49267605D01*
X126045409Y-50160196D01*
X126082762Y-50272330D01*
X126075851Y-50275186D01*
X125646769Y-50703520D01*
X125581340Y-50861091D01*
X123570214Y-48849965D01*
X125402484Y-48849965D01*
X125428277Y-49455700D01*
X125610461Y-49895533D01*
X125865804Y-49980591D01*
X126758395Y-49088000D01*
X127117605Y-49088000D01*
X128010196Y-49980591D01*
X128265539Y-49895533D01*
X128473516Y-49326035D01*
X128447723Y-48720300D01*
X128265539Y-48280467D01*
X128010196Y-48195409D01*
X127117605Y-49088000D01*
X126758395Y-49088000D01*
X125865804Y-48195409D01*
X125610461Y-48280467D01*
X125402484Y-48849965D01*
X123570214Y-48849965D01*
X122736053Y-48015804D01*
X126045409Y-48015804D01*
X126938000Y-48908395D01*
X127830591Y-48015804D01*
X127745533Y-47760461D01*
X127176035Y-47552484D01*
X126570300Y-47578277D01*
X126130467Y-47760461D01*
X126045409Y-48015804D01*
X122736053Y-48015804D01*
X121593999Y-46873750D01*
X135418000Y-46873750D01*
X135418000Y-47984309D01*
X135514673Y-48217698D01*
X135693301Y-48396327D01*
X135926690Y-48493000D01*
X136402250Y-48493000D01*
X136561000Y-48334250D01*
X136561000Y-46715000D01*
X136815000Y-46715000D01*
X136815000Y-48334250D01*
X136973750Y-48493000D01*
X137449310Y-48493000D01*
X137682699Y-48396327D01*
X137688000Y-48391026D01*
X137693301Y-48396327D01*
X137926690Y-48493000D01*
X138402250Y-48493000D01*
X138561000Y-48334250D01*
X138561000Y-46715000D01*
X138815000Y-46715000D01*
X138815000Y-48334250D01*
X138973750Y-48493000D01*
X139449310Y-48493000D01*
X139682699Y-48396327D01*
X139861327Y-48217698D01*
X139958000Y-47984309D01*
X139958000Y-46873750D01*
X143918000Y-46873750D01*
X143918000Y-47984309D01*
X144014673Y-48217698D01*
X144193301Y-48396327D01*
X144426690Y-48493000D01*
X144902250Y-48493000D01*
X145061000Y-48334250D01*
X145061000Y-46715000D01*
X144076750Y-46715000D01*
X143918000Y-46873750D01*
X139958000Y-46873750D01*
X139799250Y-46715000D01*
X138815000Y-46715000D01*
X138561000Y-46715000D01*
X136815000Y-46715000D01*
X136561000Y-46715000D01*
X135576750Y-46715000D01*
X135418000Y-46873750D01*
X121593999Y-46873750D01*
X118935514Y-44215265D01*
X121932670Y-44215265D01*
X122222078Y-44915686D01*
X122757495Y-45452039D01*
X123457410Y-45742668D01*
X124215265Y-45743330D01*
X124915686Y-45453922D01*
X125178375Y-45191691D01*
X135418000Y-45191691D01*
X135418000Y-46302250D01*
X135576750Y-46461000D01*
X136561000Y-46461000D01*
X136561000Y-44841750D01*
X136815000Y-44841750D01*
X136815000Y-46461000D01*
X138561000Y-46461000D01*
X138561000Y-44841750D01*
X138815000Y-44841750D01*
X138815000Y-46461000D01*
X139799250Y-46461000D01*
X139958000Y-46302250D01*
X139958000Y-45191691D01*
X143918000Y-45191691D01*
X143918000Y-46302250D01*
X144076750Y-46461000D01*
X145061000Y-46461000D01*
X145061000Y-44841750D01*
X144902250Y-44683000D01*
X144426690Y-44683000D01*
X144193301Y-44779673D01*
X144014673Y-44958302D01*
X143918000Y-45191691D01*
X139958000Y-45191691D01*
X139861327Y-44958302D01*
X139682699Y-44779673D01*
X139449310Y-44683000D01*
X138973750Y-44683000D01*
X138815000Y-44841750D01*
X138561000Y-44841750D01*
X138402250Y-44683000D01*
X137926690Y-44683000D01*
X137693301Y-44779673D01*
X137688000Y-44784974D01*
X137682699Y-44779673D01*
X137449310Y-44683000D01*
X136973750Y-44683000D01*
X136815000Y-44841750D01*
X136561000Y-44841750D01*
X136402250Y-44683000D01*
X135926690Y-44683000D01*
X135693301Y-44779673D01*
X135514673Y-44958302D01*
X135418000Y-45191691D01*
X125178375Y-45191691D01*
X125452039Y-44918505D01*
X125742668Y-44218590D01*
X125743330Y-43460735D01*
X125453922Y-42760314D01*
X124918505Y-42223961D01*
X124218590Y-41933332D01*
X123460735Y-41932670D01*
X122760314Y-42222078D01*
X122223961Y-42757495D01*
X121933332Y-43457410D01*
X121932670Y-44215265D01*
X118935514Y-44215265D01*
X117923000Y-43202752D01*
X117923000Y-43183275D01*
X118050149Y-43130738D01*
X118271076Y-42910196D01*
X118795409Y-42910196D01*
X118880467Y-43165539D01*
X119449965Y-43373516D01*
X120055700Y-43347723D01*
X120495533Y-43165539D01*
X120580591Y-42910196D01*
X119688000Y-42017605D01*
X118795409Y-42910196D01*
X118271076Y-42910196D01*
X118479231Y-42702404D01*
X118485544Y-42687200D01*
X118615804Y-42730591D01*
X119508395Y-41838000D01*
X119867605Y-41838000D01*
X120760196Y-42730591D01*
X121015539Y-42645533D01*
X121223516Y-42076035D01*
X121214903Y-41873750D01*
X143251000Y-41873750D01*
X143251000Y-43746310D01*
X143347673Y-43979699D01*
X143526302Y-44158327D01*
X143759691Y-44255000D01*
X144362250Y-44255000D01*
X144521000Y-44096250D01*
X144521000Y-41715000D01*
X143409750Y-41715000D01*
X143251000Y-41873750D01*
X121214903Y-41873750D01*
X121197723Y-41470300D01*
X121015539Y-41030467D01*
X120760196Y-40945409D01*
X119867605Y-41838000D01*
X119508395Y-41838000D01*
X118615804Y-40945409D01*
X118486023Y-40988641D01*
X118480738Y-40975851D01*
X118271058Y-40765804D01*
X118795409Y-40765804D01*
X119688000Y-41658395D01*
X120580591Y-40765804D01*
X120495533Y-40510461D01*
X119926035Y-40302484D01*
X119320300Y-40328277D01*
X118880467Y-40510461D01*
X118795409Y-40765804D01*
X118271058Y-40765804D01*
X118052404Y-40546769D01*
X117492472Y-40314265D01*
X116886188Y-40313736D01*
X116325851Y-40545262D01*
X115937699Y-40932737D01*
X115552404Y-40546769D01*
X114992472Y-40314265D01*
X114386188Y-40313736D01*
X113825851Y-40545262D01*
X113396769Y-40973596D01*
X113164265Y-41533528D01*
X113163736Y-42139812D01*
X113395262Y-42700149D01*
X113823596Y-43129231D01*
X114383528Y-43361735D01*
X114960659Y-43362239D01*
X124668396Y-53069975D01*
X124668398Y-53069978D01*
X125414237Y-53815816D01*
X125413736Y-54389812D01*
X125645262Y-54950149D01*
X126073596Y-55379231D01*
X126633528Y-55611735D01*
X127210659Y-55612239D01*
X135803000Y-64204579D01*
X135803000Y-70724286D01*
X135601559Y-70853910D01*
X135456569Y-71066110D01*
X135405560Y-71318000D01*
X135405560Y-73858000D01*
X135449838Y-74093317D01*
X135543874Y-74239454D01*
X135535998Y-74258423D01*
X134091420Y-75703000D01*
X129775279Y-75703000D01*
X129652090Y-75511559D01*
X129439890Y-75366569D01*
X129188000Y-75315560D01*
X128188000Y-75315560D01*
X127952683Y-75359838D01*
X127736559Y-75498910D01*
X127690031Y-75567006D01*
X127547698Y-75424673D01*
X127314309Y-75328000D01*
X126973750Y-75328000D01*
X126815000Y-75486750D01*
X126815000Y-76461000D01*
X126835000Y-76461000D01*
X126835000Y-76715000D01*
X126815000Y-76715000D01*
X126815000Y-76735000D01*
X126561000Y-76735000D01*
X126561000Y-76715000D01*
X125711750Y-76715000D01*
X125650471Y-76776279D01*
X125487866Y-76532921D01*
X125304827Y-76410619D01*
X125553000Y-76162447D01*
X125553000Y-76302250D01*
X125711750Y-76461000D01*
X126561000Y-76461000D01*
X126561000Y-75486750D01*
X126402250Y-75328000D01*
X126327810Y-75328000D01*
X126367051Y-75269272D01*
X126416502Y-75020669D01*
X126573317Y-74991162D01*
X126789441Y-74852090D01*
X126928000Y-74649302D01*
X126928000Y-74714309D01*
X127024673Y-74947698D01*
X127203301Y-75126327D01*
X127436690Y-75223000D01*
X127902250Y-75223000D01*
X128061000Y-75064250D01*
X128061000Y-74215000D01*
X128315000Y-74215000D01*
X128315000Y-75064250D01*
X128473750Y-75223000D01*
X128939310Y-75223000D01*
X129172699Y-75126327D01*
X129351327Y-74947698D01*
X129448000Y-74714309D01*
X129448000Y-74373750D01*
X129289250Y-74215000D01*
X128315000Y-74215000D01*
X128061000Y-74215000D01*
X128041000Y-74215000D01*
X128041000Y-73961000D01*
X128061000Y-73961000D01*
X128061000Y-73941000D01*
X128315000Y-73941000D01*
X128315000Y-73961000D01*
X129289250Y-73961000D01*
X129448000Y-73802250D01*
X129448000Y-73461691D01*
X129351327Y-73228302D01*
X129210090Y-73087064D01*
X129264441Y-73052090D01*
X129409431Y-72839890D01*
X129460440Y-72588000D01*
X129460440Y-71588000D01*
X129416162Y-71352683D01*
X129277090Y-71136559D01*
X129064890Y-70991569D01*
X128813000Y-70940560D01*
X127563000Y-70940560D01*
X127327683Y-70984838D01*
X127111559Y-71123910D01*
X126966569Y-71336110D01*
X126963149Y-71353000D01*
X126812669Y-71353000D01*
X126802090Y-71336559D01*
X126589890Y-71191569D01*
X126423000Y-71157773D01*
X126423000Y-67563305D01*
X126796285Y-67489054D01*
X127278054Y-67167147D01*
X127599961Y-66685378D01*
X127713000Y-66117093D01*
X127713000Y-66058907D01*
X127599961Y-65490622D01*
X127278054Y-65008853D01*
X126796285Y-64686946D01*
X126228000Y-64573907D01*
X125659715Y-64686946D01*
X125177946Y-65008853D01*
X125150150Y-65050452D01*
X125141162Y-65002683D01*
X125002090Y-64786559D01*
X124789890Y-64641569D01*
X124538000Y-64590560D01*
X122838000Y-64590560D01*
X122602683Y-64634838D01*
X122386559Y-64773910D01*
X122241569Y-64986110D01*
X122190560Y-65238000D01*
X122190560Y-66938000D01*
X122234838Y-67173317D01*
X122373910Y-67389441D01*
X122453000Y-67443481D01*
X122453000Y-71156554D01*
X122302683Y-71184838D01*
X122086559Y-71323910D01*
X122032519Y-71403000D01*
X121925630Y-71403000D01*
X121916162Y-71352683D01*
X121777090Y-71136559D01*
X121564890Y-70991569D01*
X121313000Y-70940560D01*
X120063000Y-70940560D01*
X119827683Y-70984838D01*
X119611559Y-71123910D01*
X119466569Y-71336110D01*
X119415560Y-71588000D01*
X119415560Y-72588000D01*
X119459838Y-72823317D01*
X119598910Y-73039441D01*
X119667006Y-73085969D01*
X119524673Y-73228302D01*
X119428000Y-73461691D01*
X119428000Y-73802250D01*
X119586750Y-73961000D01*
X120561000Y-73961000D01*
X120561000Y-73941000D01*
X120815000Y-73941000D01*
X120815000Y-73961000D01*
X120835000Y-73961000D01*
X120835000Y-74215000D01*
X120815000Y-74215000D01*
X120815000Y-75064250D01*
X120973750Y-75223000D01*
X121439310Y-75223000D01*
X121672699Y-75126327D01*
X121851327Y-74947698D01*
X121948000Y-74714309D01*
X121948000Y-74643771D01*
X122073910Y-74839441D01*
X122286110Y-74984431D01*
X122538000Y-75035440D01*
X122619979Y-75035440D01*
X122668277Y-75107723D01*
X122728000Y-75167446D01*
X122728000Y-75383450D01*
X122720748Y-75384483D01*
X122463000Y-75333213D01*
X122162594Y-75392968D01*
X121907921Y-75563134D01*
X121737755Y-75817807D01*
X121678000Y-76118213D01*
X121678000Y-76303000D01*
X121493213Y-76303000D01*
X121192807Y-76362755D01*
X120938134Y-76532921D01*
X120885782Y-76611272D01*
X120883370Y-76610270D01*
X120494337Y-76609931D01*
X120134788Y-76758493D01*
X119859460Y-77033341D01*
X119710270Y-77392630D01*
X119709931Y-77781663D01*
X119858493Y-78141212D01*
X120133341Y-78416540D01*
X120492630Y-78565730D01*
X120712605Y-78565922D01*
X120708213Y-78588000D01*
X120767968Y-78888406D01*
X120938134Y-79143079D01*
X121003000Y-79186421D01*
X121003000Y-80390051D01*
X120859460Y-80533341D01*
X120710270Y-80892630D01*
X120709931Y-81281663D01*
X120858493Y-81641212D01*
X121133341Y-81916540D01*
X121492630Y-82065730D01*
X121670668Y-82065885D01*
X118626508Y-85110046D01*
X118600440Y-85110023D01*
X118600440Y-84453000D01*
X118556162Y-84217683D01*
X118417090Y-84001559D01*
X118204890Y-83856569D01*
X117953000Y-83805560D01*
X116983000Y-83805560D01*
X116923000Y-83816850D01*
X116923000Y-81292446D01*
X117207724Y-81007723D01*
X117367051Y-80769272D01*
X117369546Y-80756728D01*
X117423000Y-80488000D01*
X117423000Y-74373750D01*
X119428000Y-74373750D01*
X119428000Y-74714309D01*
X119524673Y-74947698D01*
X119703301Y-75126327D01*
X119936690Y-75223000D01*
X120402250Y-75223000D01*
X120561000Y-75064250D01*
X120561000Y-74215000D01*
X119586750Y-74215000D01*
X119428000Y-74373750D01*
X117423000Y-74373750D01*
X117423000Y-70009192D01*
X117589441Y-69902090D01*
X117734431Y-69689890D01*
X117785440Y-69438000D01*
X117785440Y-68638000D01*
X117741162Y-68402683D01*
X117602090Y-68186559D01*
X117456917Y-68087367D01*
X117589441Y-68002090D01*
X117734431Y-67789890D01*
X117785440Y-67538000D01*
X117785440Y-66738000D01*
X117741162Y-66502683D01*
X117602090Y-66286559D01*
X117389890Y-66141569D01*
X117138000Y-66090560D01*
X116238000Y-66090560D01*
X116002683Y-66134838D01*
X115786559Y-66273910D01*
X115641569Y-66486110D01*
X115590560Y-66738000D01*
X115590560Y-66933861D01*
X115410759Y-67113662D01*
X115264309Y-67053000D01*
X114973750Y-67053000D01*
X114815000Y-67211750D01*
X114815000Y-67961000D01*
X114835000Y-67961000D01*
X114835000Y-68215000D01*
X114815000Y-68215000D01*
X114815000Y-68964250D01*
X114844692Y-68993942D01*
X112425366Y-71413267D01*
X112115363Y-71102722D01*
X111514648Y-70853284D01*
X110864205Y-70852716D01*
X110263057Y-71101106D01*
X109802722Y-71560637D01*
X109553284Y-72161352D01*
X109552716Y-72811795D01*
X109801106Y-73412943D01*
X110260637Y-73873278D01*
X110861352Y-74122716D01*
X111511795Y-74123284D01*
X112112943Y-73874894D01*
X112573278Y-73415363D01*
X112590869Y-73373000D01*
X112602208Y-73373000D01*
X112602213Y-73373001D01*
X112884697Y-73316810D01*
X112940888Y-73305633D01*
X113228003Y-73113790D01*
X115953000Y-70388792D01*
X115953000Y-80183553D01*
X115668277Y-80468277D01*
X115508949Y-80706728D01*
X115453000Y-80988000D01*
X115453000Y-83859286D01*
X115251559Y-83988910D01*
X115106569Y-84201110D01*
X115055560Y-84453000D01*
X115055560Y-85723000D01*
X115099838Y-85958317D01*
X115238910Y-86174441D01*
X115451110Y-86319431D01*
X115703000Y-86370440D01*
X116673000Y-86370440D01*
X116833690Y-86340204D01*
X116983000Y-86370440D01*
X117710993Y-86370440D01*
X117771694Y-86431140D01*
X117858493Y-86641212D01*
X118133341Y-86916540D01*
X118492630Y-87065730D01*
X118881663Y-87066069D01*
X119241212Y-86917507D01*
X119516540Y-86642659D01*
X119665730Y-86283370D01*
X119665847Y-86149600D01*
X122982723Y-82832724D01*
X123142051Y-82594272D01*
X123149266Y-82558000D01*
X123198000Y-82313000D01*
X123198000Y-80296042D01*
X123220748Y-80291517D01*
X123266684Y-80298056D01*
X123303160Y-80256469D01*
X123463000Y-80149668D01*
X123622840Y-80256469D01*
X123659316Y-80298056D01*
X123705252Y-80291517D01*
X123963000Y-80342787D01*
X124263406Y-80283032D01*
X124518079Y-80112866D01*
X124520218Y-80109664D01*
X125740560Y-81330007D01*
X125740560Y-82238000D01*
X125784838Y-82473317D01*
X125923910Y-82689441D01*
X126136110Y-82834431D01*
X126388000Y-82885440D01*
X127088000Y-82885440D01*
X127273974Y-82850446D01*
X124379809Y-85744611D01*
X124187966Y-86031726D01*
X124180696Y-86068277D01*
X124120598Y-86370401D01*
X124120599Y-86370406D01*
X124120599Y-88175599D01*
X115877178Y-88175599D01*
X113485440Y-85783860D01*
X113485440Y-85688000D01*
X113441162Y-85452683D01*
X113302090Y-85236559D01*
X113089890Y-85091569D01*
X113076803Y-85088919D01*
X113289441Y-84952090D01*
X113434431Y-84739890D01*
X113485440Y-84488000D01*
X113485440Y-83788000D01*
X113441162Y-83552683D01*
X113302090Y-83336559D01*
X113089890Y-83191569D01*
X113073000Y-83188149D01*
X113073000Y-81088005D01*
X113073001Y-81088000D01*
X113005634Y-80749326D01*
X112926197Y-80630440D01*
X112835440Y-80494612D01*
X112835440Y-79088000D01*
X112791162Y-78852683D01*
X112652090Y-78636559D01*
X112439890Y-78491569D01*
X112188000Y-78440560D01*
X110188000Y-78440560D01*
X109952683Y-78484838D01*
X109736559Y-78623910D01*
X109591569Y-78836110D01*
X109540560Y-79088000D01*
X109540560Y-81088000D01*
X109584838Y-81323317D01*
X109723910Y-81539441D01*
X109936110Y-81684431D01*
X110188000Y-81735440D01*
X111303000Y-81735440D01*
X111303000Y-83184778D01*
X111302683Y-83184838D01*
X111086559Y-83323910D01*
X110941569Y-83536110D01*
X110890560Y-83788000D01*
X110890560Y-84488000D01*
X110934838Y-84723317D01*
X111073910Y-84939441D01*
X111286110Y-85084431D01*
X111299197Y-85087081D01*
X111086559Y-85223910D01*
X110941569Y-85436110D01*
X110890560Y-85688000D01*
X110890560Y-86388000D01*
X110934838Y-86623317D01*
X111073910Y-86839441D01*
X111286110Y-86984431D01*
X111538000Y-87035440D01*
X112233860Y-87035440D01*
X113538981Y-88340560D01*
X112588000Y-88340560D01*
X112352683Y-88384838D01*
X112136559Y-88523910D01*
X111991569Y-88736110D01*
X111940560Y-88988000D01*
X111940560Y-89888000D01*
X111984838Y-90123317D01*
X112123910Y-90339441D01*
X112336110Y-90484431D01*
X112588000Y-90535440D01*
X113788000Y-90535440D01*
X114023317Y-90491162D01*
X114154907Y-90406486D01*
X115838981Y-92090560D01*
X115738000Y-92090560D01*
X115502683Y-92134838D01*
X115286559Y-92273910D01*
X115141569Y-92486110D01*
X115090560Y-92738000D01*
X115090560Y-93538000D01*
X115134838Y-93773317D01*
X115273910Y-93989441D01*
X115419083Y-94088633D01*
X115319054Y-94153000D01*
X115059192Y-94153000D01*
X114952090Y-93986559D01*
X114739890Y-93841569D01*
X114488000Y-93790560D01*
X114092140Y-93790560D01*
X114073000Y-93771420D01*
X114073000Y-93759192D01*
X114239441Y-93652090D01*
X114384431Y-93439890D01*
X114435440Y-93188000D01*
X114435440Y-92288000D01*
X114391162Y-92052683D01*
X114252090Y-91836559D01*
X114039890Y-91691569D01*
X113788000Y-91640560D01*
X112588000Y-91640560D01*
X112352683Y-91684838D01*
X112136559Y-91823910D01*
X111991569Y-92036110D01*
X111940560Y-92288000D01*
X111940560Y-93188000D01*
X111984838Y-93423317D01*
X112123910Y-93639441D01*
X112303000Y-93761808D01*
X112303000Y-94137995D01*
X112302999Y-94138000D01*
X112353898Y-94393882D01*
X112365000Y-94449693D01*
X112365000Y-94961000D01*
X112385000Y-94961000D01*
X112385000Y-95215000D01*
X112365000Y-95215000D01*
X112365000Y-96214250D01*
X112523750Y-96373000D01*
X112714309Y-96373000D01*
X112947698Y-96276327D01*
X113126327Y-96097699D01*
X113182654Y-95961713D01*
X113184838Y-95973317D01*
X113253000Y-96079244D01*
X113253000Y-98137995D01*
X113252999Y-98138000D01*
X113296216Y-98355260D01*
X113320367Y-98476675D01*
X113478801Y-98713790D01*
X113512210Y-98763790D01*
X113840560Y-99092140D01*
X113840560Y-99688000D01*
X113884838Y-99923317D01*
X114023910Y-100139441D01*
X114203000Y-100261808D01*
X114203000Y-106462995D01*
X114202999Y-106463000D01*
X114255712Y-106728001D01*
X114270367Y-106801675D01*
X114394089Y-106986840D01*
X114340000Y-107018482D01*
X114340000Y-108361000D01*
X115573000Y-108361000D01*
X115573000Y-108199579D01*
X115753000Y-108379579D01*
X115753000Y-108438000D01*
X115765560Y-108501143D01*
X115765560Y-108564123D01*
X115458277Y-108503000D01*
X115417723Y-108503000D01*
X115021646Y-108581785D01*
X114971936Y-108615000D01*
X114340000Y-108615000D01*
X114340000Y-109957518D01*
X114550258Y-110080519D01*
X114558337Y-110078993D01*
X114685867Y-110269856D01*
X115021646Y-110494215D01*
X115417723Y-110573000D01*
X115458277Y-110573000D01*
X115854354Y-110494215D01*
X116190133Y-110269856D01*
X116414492Y-109934077D01*
X116454004Y-109735440D01*
X116863000Y-109735440D01*
X116888134Y-109730711D01*
X116940876Y-109809644D01*
X117371347Y-110240116D01*
X117559159Y-110365607D01*
X117609798Y-110399443D01*
X117891070Y-110455392D01*
X118265946Y-110455392D01*
X118608277Y-110797724D01*
X118846728Y-110957051D01*
X119128000Y-111013000D01*
X119370611Y-111013000D01*
X119447725Y-111090114D01*
X119628803Y-111211106D01*
X119686177Y-111249442D01*
X119967449Y-111305391D01*
X120807919Y-111305391D01*
X120743707Y-111382620D01*
X120603000Y-111836000D01*
X120603000Y-112161000D01*
X121686000Y-112161000D01*
X121686000Y-112141000D01*
X121940000Y-112141000D01*
X121940000Y-112161000D01*
X123023000Y-112161000D01*
X123023000Y-111836000D01*
X122882293Y-111382620D01*
X122818081Y-111305391D01*
X123326287Y-111305391D01*
X123440560Y-111282660D01*
X123440560Y-113378000D01*
X122728791Y-113378000D01*
X122882293Y-113193380D01*
X123023000Y-112740000D01*
X123023000Y-112415000D01*
X121940000Y-112415000D01*
X121940000Y-112435000D01*
X121686000Y-112435000D01*
X121686000Y-112415000D01*
X120603000Y-112415000D01*
X120603000Y-112740000D01*
X120743707Y-113193380D01*
X120897209Y-113378000D01*
X114978791Y-113378000D01*
X115132293Y-113193380D01*
X115273000Y-112740000D01*
X115273000Y-112415000D01*
X114190000Y-112415000D01*
X114190000Y-112435000D01*
X113936000Y-112435000D01*
X113936000Y-112415000D01*
X112853000Y-112415000D01*
X112853000Y-112740000D01*
X112993707Y-113193380D01*
X113147209Y-113378000D01*
X112257931Y-113378000D01*
X110551610Y-113038592D01*
X109164349Y-112111654D01*
X108980163Y-111836000D01*
X112853000Y-111836000D01*
X112853000Y-112161000D01*
X113936000Y-112161000D01*
X113936000Y-110919450D01*
X114190000Y-110919450D01*
X114190000Y-112161000D01*
X115273000Y-112161000D01*
X115273000Y-111836000D01*
X115132293Y-111382620D01*
X114828796Y-111017598D01*
X114408714Y-110796505D01*
X114376677Y-110794365D01*
X114190000Y-110919450D01*
X113936000Y-110919450D01*
X113749323Y-110794365D01*
X113717286Y-110796505D01*
X113297204Y-111017598D01*
X112993707Y-111382620D01*
X112853000Y-111836000D01*
X108980163Y-111836000D01*
X108237408Y-110724390D01*
X107898000Y-109018069D01*
X107898000Y-108615000D01*
X112853000Y-108615000D01*
X112853000Y-108890000D01*
X113005125Y-109400782D01*
X113341138Y-109814467D01*
X113809884Y-110068076D01*
X113875742Y-110080519D01*
X114086000Y-109957518D01*
X114086000Y-108615000D01*
X112853000Y-108615000D01*
X107898000Y-108615000D01*
X107898000Y-108086000D01*
X112853000Y-108086000D01*
X112853000Y-108361000D01*
X114086000Y-108361000D01*
X114086000Y-107018482D01*
X113875742Y-106895481D01*
X113809884Y-106907924D01*
X113341138Y-107161533D01*
X113005125Y-107575218D01*
X112853000Y-108086000D01*
X107898000Y-108086000D01*
X107898000Y-95373750D01*
X111253000Y-95373750D01*
X111253000Y-95864310D01*
X111349673Y-96097699D01*
X111528302Y-96276327D01*
X111761691Y-96373000D01*
X111952250Y-96373000D01*
X112111000Y-96214250D01*
X112111000Y-95215000D01*
X111411750Y-95215000D01*
X111253000Y-95373750D01*
X107898000Y-95373750D01*
X107898000Y-94311690D01*
X111253000Y-94311690D01*
X111253000Y-94802250D01*
X111411750Y-94961000D01*
X112111000Y-94961000D01*
X112111000Y-93961750D01*
X111952250Y-93803000D01*
X111761691Y-93803000D01*
X111528302Y-93899673D01*
X111349673Y-94078301D01*
X111253000Y-94311690D01*
X107898000Y-94311690D01*
X107898000Y-68373750D01*
X113603000Y-68373750D01*
X113603000Y-68614310D01*
X113699673Y-68847699D01*
X113878302Y-69026327D01*
X114111691Y-69123000D01*
X114402250Y-69123000D01*
X114561000Y-68964250D01*
X114561000Y-68215000D01*
X113761750Y-68215000D01*
X113603000Y-68373750D01*
X107898000Y-68373750D01*
X107898000Y-67561690D01*
X113603000Y-67561690D01*
X113603000Y-67802250D01*
X113761750Y-67961000D01*
X114561000Y-67961000D01*
X114561000Y-67211750D01*
X114402250Y-67053000D01*
X114111691Y-67053000D01*
X113878302Y-67149673D01*
X113699673Y-67328301D01*
X113603000Y-67561690D01*
X107898000Y-67561690D01*
X107898000Y-59715265D01*
X108632670Y-59715265D01*
X108922078Y-60415686D01*
X109457495Y-60952039D01*
X110157410Y-61242668D01*
X110915265Y-61243330D01*
X111615686Y-60953922D01*
X112152039Y-60418505D01*
X112442668Y-59718590D01*
X112442670Y-59715265D01*
X121932670Y-59715265D01*
X122222078Y-60415686D01*
X122757495Y-60952039D01*
X123457410Y-61242668D01*
X124215265Y-61243330D01*
X124915686Y-60953922D01*
X125452039Y-60418505D01*
X125742668Y-59718590D01*
X125743330Y-58960735D01*
X125453922Y-58260314D01*
X124918505Y-57723961D01*
X124218590Y-57433332D01*
X123460735Y-57432670D01*
X122760314Y-57722078D01*
X122223961Y-58257495D01*
X121933332Y-58957410D01*
X121932670Y-59715265D01*
X112442670Y-59715265D01*
X112443330Y-58960735D01*
X112153922Y-58260314D01*
X111618505Y-57723961D01*
X110918590Y-57433332D01*
X110160735Y-57432670D01*
X109460314Y-57722078D01*
X108923961Y-58257495D01*
X108633332Y-58957410D01*
X108632670Y-59715265D01*
X107898000Y-59715265D01*
X107898000Y-44215265D01*
X108632670Y-44215265D01*
X108922078Y-44915686D01*
X109457495Y-45452039D01*
X110157410Y-45742668D01*
X110915265Y-45743330D01*
X111615686Y-45453922D01*
X112152039Y-44918505D01*
X112442668Y-44218590D01*
X112443330Y-43460735D01*
X112153922Y-42760314D01*
X111618505Y-42223961D01*
X110918590Y-41933332D01*
X110160735Y-41932670D01*
X109460314Y-42222078D01*
X108923961Y-42757495D01*
X108633332Y-43457410D01*
X108632670Y-44215265D01*
X107898000Y-44215265D01*
X107898000Y-44157931D01*
X108237408Y-42451610D01*
X109164349Y-41064346D01*
X110551610Y-40137408D01*
X112257931Y-39798000D01*
X143251000Y-39798000D01*
X143251000Y-41302250D01*
X143251000Y-41302250D01*
G37*
X143251000Y-41302250D02*
X143409750Y-41461000D01*
X144521000Y-41461000D01*
X144521000Y-41441000D01*
X144775000Y-41441000D01*
X144775000Y-41461000D01*
X144795000Y-41461000D01*
X144795000Y-41715000D01*
X144775000Y-41715000D01*
X144775000Y-44096250D01*
X144933750Y-44255000D01*
X145536309Y-44255000D01*
X145769698Y-44158327D01*
X145918000Y-44010026D01*
X145918000Y-44683000D01*
X145473750Y-44683000D01*
X145315000Y-44841750D01*
X145315000Y-46461000D01*
X145335000Y-46461000D01*
X145335000Y-46715000D01*
X145315000Y-46715000D01*
X145315000Y-48334250D01*
X145473750Y-48493000D01*
X145949310Y-48493000D01*
X146182699Y-48396327D01*
X146196246Y-48382780D01*
X146301110Y-48454431D01*
X146553000Y-48505440D01*
X147823000Y-48505440D01*
X148058317Y-48461162D01*
X148179900Y-48382926D01*
X148193301Y-48396327D01*
X148426690Y-48493000D01*
X148902250Y-48493000D01*
X149061000Y-48334250D01*
X149061000Y-46715000D01*
X149315000Y-46715000D01*
X149315000Y-48334250D01*
X149473750Y-48493000D01*
X149949310Y-48493000D01*
X150182699Y-48396327D01*
X150361327Y-48217698D01*
X150458000Y-47984309D01*
X150458000Y-46873750D01*
X155418000Y-46873750D01*
X155418000Y-47984309D01*
X155514673Y-48217698D01*
X155693301Y-48396327D01*
X155926690Y-48493000D01*
X156402250Y-48493000D01*
X156561000Y-48334250D01*
X156561000Y-46715000D01*
X156815000Y-46715000D01*
X156815000Y-48334250D01*
X156973750Y-48493000D01*
X157449310Y-48493000D01*
X157682699Y-48396327D01*
X157688000Y-48391026D01*
X157693301Y-48396327D01*
X157926690Y-48493000D01*
X158402250Y-48493000D01*
X158561000Y-48334250D01*
X158561000Y-46715000D01*
X158815000Y-46715000D01*
X158815000Y-48334250D01*
X158973750Y-48493000D01*
X159449310Y-48493000D01*
X159682699Y-48396327D01*
X159861327Y-48217698D01*
X159958000Y-47984309D01*
X159958000Y-46873750D01*
X159799250Y-46715000D01*
X158815000Y-46715000D01*
X158561000Y-46715000D01*
X156815000Y-46715000D01*
X156561000Y-46715000D01*
X155576750Y-46715000D01*
X155418000Y-46873750D01*
X150458000Y-46873750D01*
X150299250Y-46715000D01*
X149315000Y-46715000D01*
X149061000Y-46715000D01*
X149041000Y-46715000D01*
X149041000Y-46461000D01*
X149061000Y-46461000D01*
X149061000Y-44841750D01*
X149315000Y-44841750D01*
X149315000Y-46461000D01*
X150299250Y-46461000D01*
X150458000Y-46302250D01*
X150458000Y-45191691D01*
X155418000Y-45191691D01*
X155418000Y-46302250D01*
X155576750Y-46461000D01*
X156561000Y-46461000D01*
X156561000Y-44841750D01*
X156815000Y-44841750D01*
X156815000Y-46461000D01*
X158561000Y-46461000D01*
X158561000Y-44841750D01*
X158815000Y-44841750D01*
X158815000Y-46461000D01*
X159799250Y-46461000D01*
X159958000Y-46302250D01*
X159958000Y-45191691D01*
X159861327Y-44958302D01*
X159682699Y-44779673D01*
X159449310Y-44683000D01*
X158973750Y-44683000D01*
X158815000Y-44841750D01*
X158561000Y-44841750D01*
X158402250Y-44683000D01*
X157926690Y-44683000D01*
X157693301Y-44779673D01*
X157688000Y-44784974D01*
X157682699Y-44779673D01*
X157449310Y-44683000D01*
X156973750Y-44683000D01*
X156815000Y-44841750D01*
X156561000Y-44841750D01*
X156402250Y-44683000D01*
X155926690Y-44683000D01*
X155693301Y-44779673D01*
X155514673Y-44958302D01*
X155418000Y-45191691D01*
X150458000Y-45191691D01*
X150361327Y-44958302D01*
X150182699Y-44779673D01*
X149949310Y-44683000D01*
X149473750Y-44683000D01*
X149315000Y-44841750D01*
X149061000Y-44841750D01*
X148902250Y-44683000D01*
X148458000Y-44683000D01*
X148458000Y-44010026D01*
X148606302Y-44158327D01*
X148839691Y-44255000D01*
X149442250Y-44255000D01*
X149601000Y-44096250D01*
X149601000Y-41715000D01*
X149855000Y-41715000D01*
X149855000Y-44096250D01*
X150013750Y-44255000D01*
X150616309Y-44255000D01*
X150712237Y-44215265D01*
X168632670Y-44215265D01*
X168922078Y-44915686D01*
X169457495Y-45452039D01*
X170157410Y-45742668D01*
X170915265Y-45743330D01*
X171615686Y-45453922D01*
X172152039Y-44918505D01*
X172442668Y-44218590D01*
X172442670Y-44215265D01*
X181932670Y-44215265D01*
X182222078Y-44915686D01*
X182757495Y-45452039D01*
X183457410Y-45742668D01*
X184215265Y-45743330D01*
X184915686Y-45453922D01*
X185452039Y-44918505D01*
X185742668Y-44218590D01*
X185743330Y-43460735D01*
X185453922Y-42760314D01*
X184918505Y-42223961D01*
X184218590Y-41933332D01*
X183460735Y-41932670D01*
X182760314Y-42222078D01*
X182223961Y-42757495D01*
X181933332Y-43457410D01*
X181932670Y-44215265D01*
X172442670Y-44215265D01*
X172443330Y-43460735D01*
X172153922Y-42760314D01*
X171618505Y-42223961D01*
X170918590Y-41933332D01*
X170160735Y-41932670D01*
X169460314Y-42222078D01*
X168923961Y-42757495D01*
X168633332Y-43457410D01*
X168632670Y-44215265D01*
X150712237Y-44215265D01*
X150849698Y-44158327D01*
X151028327Y-43979699D01*
X151125000Y-43746310D01*
X151125000Y-41873750D01*
X150966250Y-41715000D01*
X149855000Y-41715000D01*
X149601000Y-41715000D01*
X149581000Y-41715000D01*
X149581000Y-41461000D01*
X149601000Y-41461000D01*
X149601000Y-41441000D01*
X149855000Y-41441000D01*
X149855000Y-41461000D01*
X150966250Y-41461000D01*
X151125000Y-41302250D01*
X151125000Y-39798000D01*
X182118069Y-39798000D01*
X183824390Y-40137408D01*
X185211654Y-41064349D01*
X186138592Y-42451610D01*
X186478000Y-44157931D01*
X186478000Y-71353000D01*
X185773750Y-71353000D01*
X185615000Y-71511750D01*
X185615000Y-72586000D01*
X185635000Y-72586000D01*
X185635000Y-72840000D01*
X185615000Y-72840000D01*
X185615000Y-73914250D01*
X185773750Y-74073000D01*
X186478000Y-74073000D01*
X186478000Y-85103000D01*
X185773750Y-85103000D01*
X185615000Y-85261750D01*
X185615000Y-86336000D01*
X185635000Y-86336000D01*
X185635000Y-86590000D01*
X185615000Y-86590000D01*
X185615000Y-87664250D01*
X185773750Y-87823000D01*
X186478000Y-87823000D01*
X186478000Y-109018069D01*
X186138592Y-110724390D01*
X185211654Y-112111651D01*
X183824390Y-113038592D01*
X182118069Y-113378000D01*
X174597446Y-113378000D01*
X177917723Y-110057724D01*
X178077051Y-109819272D01*
X178078694Y-109811012D01*
X178252788Y-109927338D01*
X178668000Y-110009929D01*
X179083212Y-109927338D01*
X179315741Y-109771968D01*
X179643999Y-109932408D01*
X179811000Y-109805502D01*
X179811000Y-108215000D01*
X180065000Y-108215000D01*
X180065000Y-109805502D01*
X180232001Y-109932408D01*
X180615408Y-109745013D01*
X180891808Y-109420544D01*
X181023000Y-109015000D01*
X181023000Y-108215000D01*
X180065000Y-108215000D01*
X179811000Y-108215000D01*
X179791000Y-108215000D01*
X179791000Y-107961000D01*
X179811000Y-107961000D01*
X179811000Y-106370498D01*
X180065000Y-106370498D01*
X180065000Y-107961000D01*
X181023000Y-107961000D01*
X181023000Y-107161000D01*
X180891808Y-106755456D01*
X180615408Y-106430987D01*
X180232001Y-106243592D01*
X180065000Y-106370498D01*
X179811000Y-106370498D01*
X179643999Y-106243592D01*
X179403000Y-106361383D01*
X179403000Y-98265294D01*
X179347051Y-97984022D01*
X179285276Y-97891569D01*
X179187723Y-97745570D01*
X174765152Y-93323000D01*
X176562088Y-93323000D01*
X176606987Y-93353000D01*
X176620983Y-93362352D01*
X176902255Y-93418301D01*
X180473745Y-93418301D01*
X180755017Y-93362352D01*
X180993468Y-93203024D01*
X181303024Y-92893469D01*
X181462352Y-92655017D01*
X181473630Y-92598317D01*
X181518301Y-92373745D01*
X181518301Y-90222785D01*
X181463702Y-89948301D01*
X181462352Y-89941512D01*
X181375410Y-89811394D01*
X181375410Y-86748750D01*
X183853000Y-86748750D01*
X183853000Y-87314309D01*
X183949673Y-87547698D01*
X184128301Y-87726327D01*
X184361690Y-87823000D01*
X185202250Y-87823000D01*
X185361000Y-87664250D01*
X185361000Y-86590000D01*
X184011750Y-86590000D01*
X183853000Y-86748750D01*
X181375410Y-86748750D01*
X181375410Y-85611691D01*
X183853000Y-85611691D01*
X183853000Y-86177250D01*
X184011750Y-86336000D01*
X185361000Y-86336000D01*
X185361000Y-85261750D01*
X185202250Y-85103000D01*
X184361690Y-85103000D01*
X184128301Y-85199673D01*
X183949673Y-85378302D01*
X183853000Y-85611691D01*
X181375410Y-85611691D01*
X181375410Y-84590036D01*
X181490560Y-84474886D01*
X181490560Y-84488000D01*
X181534838Y-84723317D01*
X181673910Y-84939441D01*
X181886110Y-85084431D01*
X182138000Y-85135440D01*
X183638000Y-85135440D01*
X183873317Y-85091162D01*
X184089441Y-84952090D01*
X184234431Y-84739890D01*
X184285440Y-84488000D01*
X184285440Y-83688000D01*
X184256179Y-83532493D01*
X184285440Y-83388000D01*
X184285440Y-82588000D01*
X184259081Y-82447913D01*
X184273000Y-82414309D01*
X184273000Y-82173750D01*
X184114250Y-82015000D01*
X183924182Y-82015000D01*
X183889890Y-81991569D01*
X183638000Y-81940560D01*
X182138000Y-81940560D01*
X181902683Y-81984838D01*
X181855810Y-82015000D01*
X181661750Y-82015000D01*
X181503000Y-82173750D01*
X181503000Y-82411666D01*
X181418276Y-82468277D01*
X180120687Y-83765867D01*
X179961359Y-84004318D01*
X179905410Y-84285590D01*
X179905410Y-87422495D01*
X179742659Y-87259460D01*
X179383370Y-87110270D01*
X178994337Y-87109931D01*
X178823000Y-87180726D01*
X178823000Y-86748750D01*
X178664250Y-86590000D01*
X177315000Y-86590000D01*
X177315000Y-87664250D01*
X177473750Y-87823000D01*
X178201420Y-87823000D01*
X178042210Y-87982210D01*
X177850367Y-88269325D01*
X177850190Y-88270215D01*
X177849636Y-88273000D01*
X177813212Y-88248662D01*
X177398000Y-88166071D01*
X176982788Y-88248662D01*
X176763000Y-88395520D01*
X176543212Y-88248662D01*
X176128000Y-88166071D01*
X175712788Y-88248662D01*
X175493000Y-88395520D01*
X175273212Y-88248662D01*
X174858000Y-88166071D01*
X174442788Y-88248662D01*
X174223000Y-88395520D01*
X174003212Y-88248662D01*
X173588000Y-88166071D01*
X173172788Y-88248662D01*
X172953000Y-88395520D01*
X172733212Y-88248662D01*
X172318000Y-88166071D01*
X171923000Y-88244642D01*
X171923000Y-87236036D01*
X172016540Y-87142659D01*
X172165730Y-86783370D01*
X172165760Y-86748750D01*
X175553000Y-86748750D01*
X175553000Y-87314309D01*
X175649673Y-87547698D01*
X175828301Y-87726327D01*
X176061690Y-87823000D01*
X176902250Y-87823000D01*
X177061000Y-87664250D01*
X177061000Y-86590000D01*
X175711750Y-86590000D01*
X175553000Y-86748750D01*
X172165760Y-86748750D01*
X172166069Y-86394337D01*
X172017507Y-86034788D01*
X171742659Y-85759460D01*
X171386793Y-85611691D01*
X175553000Y-85611691D01*
X175553000Y-86177250D01*
X175711750Y-86336000D01*
X177061000Y-86336000D01*
X177061000Y-85261750D01*
X177315000Y-85261750D01*
X177315000Y-86336000D01*
X178664250Y-86336000D01*
X178823000Y-86177250D01*
X178823000Y-85611691D01*
X178726327Y-85378302D01*
X178547699Y-85199673D01*
X178314310Y-85103000D01*
X177473750Y-85103000D01*
X177315000Y-85261750D01*
X177061000Y-85261750D01*
X176902250Y-85103000D01*
X176061690Y-85103000D01*
X175828301Y-85199673D01*
X175649673Y-85378302D01*
X175553000Y-85611691D01*
X171386793Y-85611691D01*
X171383370Y-85610270D01*
X171056374Y-85609985D01*
X171094951Y-85416049D01*
X171094951Y-84885440D01*
X171488000Y-84885440D01*
X171723317Y-84841162D01*
X171939441Y-84702090D01*
X172084431Y-84489890D01*
X172135440Y-84238000D01*
X172135440Y-84156021D01*
X172207723Y-84107723D01*
X174792447Y-81523000D01*
X181503000Y-81523000D01*
X181503000Y-81602250D01*
X181661750Y-81761000D01*
X181851818Y-81761000D01*
X181886110Y-81784431D01*
X182138000Y-81835440D01*
X183638000Y-81835440D01*
X183873317Y-81791162D01*
X183920190Y-81761000D01*
X184114250Y-81761000D01*
X184273000Y-81602250D01*
X184273000Y-81361691D01*
X184257731Y-81324829D01*
X184285440Y-81188000D01*
X184285440Y-80388000D01*
X184256179Y-80232493D01*
X184285440Y-80088000D01*
X184285440Y-79288000D01*
X184256179Y-79132493D01*
X184285440Y-78988000D01*
X184285440Y-78188000D01*
X184256179Y-78032493D01*
X184285440Y-77888000D01*
X184285440Y-77088000D01*
X184256179Y-76932493D01*
X184285440Y-76788000D01*
X184285440Y-75988000D01*
X184241162Y-75752683D01*
X184102090Y-75536559D01*
X183889890Y-75391569D01*
X183638000Y-75340560D01*
X182138000Y-75340560D01*
X181902683Y-75384838D01*
X181686559Y-75523910D01*
X181541569Y-75736110D01*
X181490560Y-75988000D01*
X181490560Y-76753000D01*
X177612446Y-76753000D01*
X181366696Y-72998750D01*
X183853000Y-72998750D01*
X183853000Y-73564309D01*
X183949673Y-73797698D01*
X184128301Y-73976327D01*
X184361690Y-74073000D01*
X185202250Y-74073000D01*
X185361000Y-73914250D01*
X185361000Y-72840000D01*
X184011750Y-72840000D01*
X183853000Y-72998750D01*
X181366696Y-72998750D01*
X182503755Y-71861691D01*
X183853000Y-71861691D01*
X183853000Y-72427250D01*
X184011750Y-72586000D01*
X185361000Y-72586000D01*
X185361000Y-71511750D01*
X185202250Y-71353000D01*
X184361690Y-71353000D01*
X184128301Y-71449673D01*
X183949673Y-71628302D01*
X183853000Y-71861691D01*
X182503755Y-71861691D01*
X184707723Y-69657724D01*
X184756021Y-69585440D01*
X185038000Y-69585440D01*
X185273317Y-69541162D01*
X185489441Y-69402090D01*
X185634431Y-69189890D01*
X185685440Y-68938000D01*
X185685440Y-68656021D01*
X185757723Y-68607723D01*
X185810124Y-68555323D01*
X185969452Y-68316871D01*
X185980974Y-68258948D01*
X186025401Y-68035599D01*
X186025401Y-65018847D01*
X185969452Y-64737575D01*
X185959714Y-64723001D01*
X185810124Y-64499123D01*
X181026266Y-59715265D01*
X181932670Y-59715265D01*
X182222078Y-60415686D01*
X182757495Y-60952039D01*
X183457410Y-61242668D01*
X184215265Y-61243330D01*
X184915686Y-60953922D01*
X185452039Y-60418505D01*
X185742668Y-59718590D01*
X185743330Y-58960735D01*
X185453922Y-58260314D01*
X184918505Y-57723961D01*
X184218590Y-57433332D01*
X183460735Y-57432670D01*
X182760314Y-57722078D01*
X182223961Y-58257495D01*
X181933332Y-58957410D01*
X181932670Y-59715265D01*
X181026266Y-59715265D01*
X172399353Y-51088353D01*
X172160902Y-50929025D01*
X171879630Y-50873076D01*
X168783275Y-50873076D01*
X168730738Y-50745927D01*
X168333225Y-50347720D01*
X168729231Y-49952404D01*
X168961735Y-49392472D01*
X168962264Y-48786188D01*
X168730738Y-48225851D01*
X168302404Y-47796769D01*
X167742472Y-47564265D01*
X167136188Y-47563736D01*
X166575851Y-47795262D01*
X166146769Y-48223596D01*
X165914265Y-48783528D01*
X165913736Y-49389812D01*
X166145262Y-49950149D01*
X166542775Y-50348356D01*
X166146769Y-50743672D01*
X165914265Y-51303604D01*
X165913736Y-51909888D01*
X166145262Y-52470225D01*
X166573596Y-52899307D01*
X166582925Y-52903181D01*
X166545409Y-53015804D01*
X167438000Y-53908395D01*
X168330591Y-53015804D01*
X168293238Y-52903670D01*
X168300149Y-52900814D01*
X168729231Y-52472480D01*
X168782964Y-52343076D01*
X171575184Y-52343076D01*
X179145354Y-59913246D01*
X178825851Y-60045262D01*
X178437699Y-60432737D01*
X178052404Y-60046769D01*
X177492472Y-59814265D01*
X176886188Y-59813736D01*
X176325851Y-60045262D01*
X175896769Y-60473596D01*
X175890456Y-60488800D01*
X175760196Y-60445409D01*
X174867605Y-61338000D01*
X175760196Y-62230591D01*
X175889977Y-62187359D01*
X175895262Y-62200149D01*
X176323596Y-62629231D01*
X176862492Y-62853000D01*
X174931772Y-62853000D01*
X175055700Y-62847723D01*
X175495533Y-62665539D01*
X175580591Y-62410196D01*
X174688000Y-61517605D01*
X173795409Y-62410196D01*
X173880467Y-62665539D01*
X174393787Y-62853000D01*
X171992447Y-62853000D01*
X170382311Y-61242864D01*
X170915265Y-61243330D01*
X171262234Y-61099965D01*
X173152484Y-61099965D01*
X173178277Y-61705700D01*
X173360461Y-62145533D01*
X173615804Y-62230591D01*
X174508395Y-61338000D01*
X173615804Y-60445409D01*
X173360461Y-60530467D01*
X173152484Y-61099965D01*
X171262234Y-61099965D01*
X171615686Y-60953922D01*
X172152039Y-60418505D01*
X172215445Y-60265804D01*
X173795409Y-60265804D01*
X174688000Y-61158395D01*
X175580591Y-60265804D01*
X175495533Y-60010461D01*
X174926035Y-59802484D01*
X174320300Y-59828277D01*
X173880467Y-60010461D01*
X173795409Y-60265804D01*
X172215445Y-60265804D01*
X172442668Y-59718590D01*
X172443330Y-58960735D01*
X172153922Y-58260314D01*
X171618505Y-57723961D01*
X170918590Y-57433332D01*
X170160735Y-57432670D01*
X169460314Y-57722078D01*
X168923961Y-58257495D01*
X168633332Y-58957410D01*
X168632864Y-59493417D01*
X164299643Y-55160196D01*
X166545409Y-55160196D01*
X166630467Y-55415539D01*
X167199965Y-55623516D01*
X167805700Y-55597723D01*
X168245533Y-55415539D01*
X168330591Y-55160196D01*
X167438000Y-54267605D01*
X166545409Y-55160196D01*
X164299643Y-55160196D01*
X162989412Y-53849965D01*
X165902484Y-53849965D01*
X165928277Y-54455700D01*
X166110461Y-54895533D01*
X166365804Y-54980591D01*
X167258395Y-54088000D01*
X167617605Y-54088000D01*
X168510196Y-54980591D01*
X168765539Y-54895533D01*
X168973516Y-54326035D01*
X168947723Y-53720300D01*
X168765539Y-53280467D01*
X168510196Y-53195409D01*
X167617605Y-54088000D01*
X167258395Y-54088000D01*
X166365804Y-53195409D01*
X166110461Y-53280467D01*
X165902484Y-53849965D01*
X162989412Y-53849965D01*
X160187647Y-51048201D01*
X159949196Y-50888873D01*
X159667924Y-50832924D01*
X128283275Y-50832924D01*
X128230738Y-50705775D01*
X127802404Y-50276693D01*
X127793075Y-50272819D01*
X127830591Y-50160196D01*
X126938000Y-49267605D01*
X126045409Y-50160196D01*
X126082762Y-50272330D01*
X126075851Y-50275186D01*
X125646769Y-50703520D01*
X125581340Y-50861091D01*
X123570214Y-48849965D01*
X125402484Y-48849965D01*
X125428277Y-49455700D01*
X125610461Y-49895533D01*
X125865804Y-49980591D01*
X126758395Y-49088000D01*
X127117605Y-49088000D01*
X128010196Y-49980591D01*
X128265539Y-49895533D01*
X128473516Y-49326035D01*
X128447723Y-48720300D01*
X128265539Y-48280467D01*
X128010196Y-48195409D01*
X127117605Y-49088000D01*
X126758395Y-49088000D01*
X125865804Y-48195409D01*
X125610461Y-48280467D01*
X125402484Y-48849965D01*
X123570214Y-48849965D01*
X122736053Y-48015804D01*
X126045409Y-48015804D01*
X126938000Y-48908395D01*
X127830591Y-48015804D01*
X127745533Y-47760461D01*
X127176035Y-47552484D01*
X126570300Y-47578277D01*
X126130467Y-47760461D01*
X126045409Y-48015804D01*
X122736053Y-48015804D01*
X121593999Y-46873750D01*
X135418000Y-46873750D01*
X135418000Y-47984309D01*
X135514673Y-48217698D01*
X135693301Y-48396327D01*
X135926690Y-48493000D01*
X136402250Y-48493000D01*
X136561000Y-48334250D01*
X136561000Y-46715000D01*
X136815000Y-46715000D01*
X136815000Y-48334250D01*
X136973750Y-48493000D01*
X137449310Y-48493000D01*
X137682699Y-48396327D01*
X137688000Y-48391026D01*
X137693301Y-48396327D01*
X137926690Y-48493000D01*
X138402250Y-48493000D01*
X138561000Y-48334250D01*
X138561000Y-46715000D01*
X138815000Y-46715000D01*
X138815000Y-48334250D01*
X138973750Y-48493000D01*
X139449310Y-48493000D01*
X139682699Y-48396327D01*
X139861327Y-48217698D01*
X139958000Y-47984309D01*
X139958000Y-46873750D01*
X143918000Y-46873750D01*
X143918000Y-47984309D01*
X144014673Y-48217698D01*
X144193301Y-48396327D01*
X144426690Y-48493000D01*
X144902250Y-48493000D01*
X145061000Y-48334250D01*
X145061000Y-46715000D01*
X144076750Y-46715000D01*
X143918000Y-46873750D01*
X139958000Y-46873750D01*
X139799250Y-46715000D01*
X138815000Y-46715000D01*
X138561000Y-46715000D01*
X136815000Y-46715000D01*
X136561000Y-46715000D01*
X135576750Y-46715000D01*
X135418000Y-46873750D01*
X121593999Y-46873750D01*
X118935514Y-44215265D01*
X121932670Y-44215265D01*
X122222078Y-44915686D01*
X122757495Y-45452039D01*
X123457410Y-45742668D01*
X124215265Y-45743330D01*
X124915686Y-45453922D01*
X125178375Y-45191691D01*
X135418000Y-45191691D01*
X135418000Y-46302250D01*
X135576750Y-46461000D01*
X136561000Y-46461000D01*
X136561000Y-44841750D01*
X136815000Y-44841750D01*
X136815000Y-46461000D01*
X138561000Y-46461000D01*
X138561000Y-44841750D01*
X138815000Y-44841750D01*
X138815000Y-46461000D01*
X139799250Y-46461000D01*
X139958000Y-46302250D01*
X139958000Y-45191691D01*
X143918000Y-45191691D01*
X143918000Y-46302250D01*
X144076750Y-46461000D01*
X145061000Y-46461000D01*
X145061000Y-44841750D01*
X144902250Y-44683000D01*
X144426690Y-44683000D01*
X144193301Y-44779673D01*
X144014673Y-44958302D01*
X143918000Y-45191691D01*
X139958000Y-45191691D01*
X139861327Y-44958302D01*
X139682699Y-44779673D01*
X139449310Y-44683000D01*
X138973750Y-44683000D01*
X138815000Y-44841750D01*
X138561000Y-44841750D01*
X138402250Y-44683000D01*
X137926690Y-44683000D01*
X137693301Y-44779673D01*
X137688000Y-44784974D01*
X137682699Y-44779673D01*
X137449310Y-44683000D01*
X136973750Y-44683000D01*
X136815000Y-44841750D01*
X136561000Y-44841750D01*
X136402250Y-44683000D01*
X135926690Y-44683000D01*
X135693301Y-44779673D01*
X135514673Y-44958302D01*
X135418000Y-45191691D01*
X125178375Y-45191691D01*
X125452039Y-44918505D01*
X125742668Y-44218590D01*
X125743330Y-43460735D01*
X125453922Y-42760314D01*
X124918505Y-42223961D01*
X124218590Y-41933332D01*
X123460735Y-41932670D01*
X122760314Y-42222078D01*
X122223961Y-42757495D01*
X121933332Y-43457410D01*
X121932670Y-44215265D01*
X118935514Y-44215265D01*
X117923000Y-43202752D01*
X117923000Y-43183275D01*
X118050149Y-43130738D01*
X118271076Y-42910196D01*
X118795409Y-42910196D01*
X118880467Y-43165539D01*
X119449965Y-43373516D01*
X120055700Y-43347723D01*
X120495533Y-43165539D01*
X120580591Y-42910196D01*
X119688000Y-42017605D01*
X118795409Y-42910196D01*
X118271076Y-42910196D01*
X118479231Y-42702404D01*
X118485544Y-42687200D01*
X118615804Y-42730591D01*
X119508395Y-41838000D01*
X119867605Y-41838000D01*
X120760196Y-42730591D01*
X121015539Y-42645533D01*
X121223516Y-42076035D01*
X121214903Y-41873750D01*
X143251000Y-41873750D01*
X143251000Y-43746310D01*
X143347673Y-43979699D01*
X143526302Y-44158327D01*
X143759691Y-44255000D01*
X144362250Y-44255000D01*
X144521000Y-44096250D01*
X144521000Y-41715000D01*
X143409750Y-41715000D01*
X143251000Y-41873750D01*
X121214903Y-41873750D01*
X121197723Y-41470300D01*
X121015539Y-41030467D01*
X120760196Y-40945409D01*
X119867605Y-41838000D01*
X119508395Y-41838000D01*
X118615804Y-40945409D01*
X118486023Y-40988641D01*
X118480738Y-40975851D01*
X118271058Y-40765804D01*
X118795409Y-40765804D01*
X119688000Y-41658395D01*
X120580591Y-40765804D01*
X120495533Y-40510461D01*
X119926035Y-40302484D01*
X119320300Y-40328277D01*
X118880467Y-40510461D01*
X118795409Y-40765804D01*
X118271058Y-40765804D01*
X118052404Y-40546769D01*
X117492472Y-40314265D01*
X116886188Y-40313736D01*
X116325851Y-40545262D01*
X115937699Y-40932737D01*
X115552404Y-40546769D01*
X114992472Y-40314265D01*
X114386188Y-40313736D01*
X113825851Y-40545262D01*
X113396769Y-40973596D01*
X113164265Y-41533528D01*
X113163736Y-42139812D01*
X113395262Y-42700149D01*
X113823596Y-43129231D01*
X114383528Y-43361735D01*
X114960659Y-43362239D01*
X124668396Y-53069975D01*
X124668398Y-53069978D01*
X125414237Y-53815816D01*
X125413736Y-54389812D01*
X125645262Y-54950149D01*
X126073596Y-55379231D01*
X126633528Y-55611735D01*
X127210659Y-55612239D01*
X135803000Y-64204579D01*
X135803000Y-70724286D01*
X135601559Y-70853910D01*
X135456569Y-71066110D01*
X135405560Y-71318000D01*
X135405560Y-73858000D01*
X135449838Y-74093317D01*
X135543874Y-74239454D01*
X135535998Y-74258423D01*
X134091420Y-75703000D01*
X129775279Y-75703000D01*
X129652090Y-75511559D01*
X129439890Y-75366569D01*
X129188000Y-75315560D01*
X128188000Y-75315560D01*
X127952683Y-75359838D01*
X127736559Y-75498910D01*
X127690031Y-75567006D01*
X127547698Y-75424673D01*
X127314309Y-75328000D01*
X126973750Y-75328000D01*
X126815000Y-75486750D01*
X126815000Y-76461000D01*
X126835000Y-76461000D01*
X126835000Y-76715000D01*
X126815000Y-76715000D01*
X126815000Y-76735000D01*
X126561000Y-76735000D01*
X126561000Y-76715000D01*
X125711750Y-76715000D01*
X125650471Y-76776279D01*
X125487866Y-76532921D01*
X125304827Y-76410619D01*
X125553000Y-76162447D01*
X125553000Y-76302250D01*
X125711750Y-76461000D01*
X126561000Y-76461000D01*
X126561000Y-75486750D01*
X126402250Y-75328000D01*
X126327810Y-75328000D01*
X126367051Y-75269272D01*
X126416502Y-75020669D01*
X126573317Y-74991162D01*
X126789441Y-74852090D01*
X126928000Y-74649302D01*
X126928000Y-74714309D01*
X127024673Y-74947698D01*
X127203301Y-75126327D01*
X127436690Y-75223000D01*
X127902250Y-75223000D01*
X128061000Y-75064250D01*
X128061000Y-74215000D01*
X128315000Y-74215000D01*
X128315000Y-75064250D01*
X128473750Y-75223000D01*
X128939310Y-75223000D01*
X129172699Y-75126327D01*
X129351327Y-74947698D01*
X129448000Y-74714309D01*
X129448000Y-74373750D01*
X129289250Y-74215000D01*
X128315000Y-74215000D01*
X128061000Y-74215000D01*
X128041000Y-74215000D01*
X128041000Y-73961000D01*
X128061000Y-73961000D01*
X128061000Y-73941000D01*
X128315000Y-73941000D01*
X128315000Y-73961000D01*
X129289250Y-73961000D01*
X129448000Y-73802250D01*
X129448000Y-73461691D01*
X129351327Y-73228302D01*
X129210090Y-73087064D01*
X129264441Y-73052090D01*
X129409431Y-72839890D01*
X129460440Y-72588000D01*
X129460440Y-71588000D01*
X129416162Y-71352683D01*
X129277090Y-71136559D01*
X129064890Y-70991569D01*
X128813000Y-70940560D01*
X127563000Y-70940560D01*
X127327683Y-70984838D01*
X127111559Y-71123910D01*
X126966569Y-71336110D01*
X126963149Y-71353000D01*
X126812669Y-71353000D01*
X126802090Y-71336559D01*
X126589890Y-71191569D01*
X126423000Y-71157773D01*
X126423000Y-67563305D01*
X126796285Y-67489054D01*
X127278054Y-67167147D01*
X127599961Y-66685378D01*
X127713000Y-66117093D01*
X127713000Y-66058907D01*
X127599961Y-65490622D01*
X127278054Y-65008853D01*
X126796285Y-64686946D01*
X126228000Y-64573907D01*
X125659715Y-64686946D01*
X125177946Y-65008853D01*
X125150150Y-65050452D01*
X125141162Y-65002683D01*
X125002090Y-64786559D01*
X124789890Y-64641569D01*
X124538000Y-64590560D01*
X122838000Y-64590560D01*
X122602683Y-64634838D01*
X122386559Y-64773910D01*
X122241569Y-64986110D01*
X122190560Y-65238000D01*
X122190560Y-66938000D01*
X122234838Y-67173317D01*
X122373910Y-67389441D01*
X122453000Y-67443481D01*
X122453000Y-71156554D01*
X122302683Y-71184838D01*
X122086559Y-71323910D01*
X122032519Y-71403000D01*
X121925630Y-71403000D01*
X121916162Y-71352683D01*
X121777090Y-71136559D01*
X121564890Y-70991569D01*
X121313000Y-70940560D01*
X120063000Y-70940560D01*
X119827683Y-70984838D01*
X119611559Y-71123910D01*
X119466569Y-71336110D01*
X119415560Y-71588000D01*
X119415560Y-72588000D01*
X119459838Y-72823317D01*
X119598910Y-73039441D01*
X119667006Y-73085969D01*
X119524673Y-73228302D01*
X119428000Y-73461691D01*
X119428000Y-73802250D01*
X119586750Y-73961000D01*
X120561000Y-73961000D01*
X120561000Y-73941000D01*
X120815000Y-73941000D01*
X120815000Y-73961000D01*
X120835000Y-73961000D01*
X120835000Y-74215000D01*
X120815000Y-74215000D01*
X120815000Y-75064250D01*
X120973750Y-75223000D01*
X121439310Y-75223000D01*
X121672699Y-75126327D01*
X121851327Y-74947698D01*
X121948000Y-74714309D01*
X121948000Y-74643771D01*
X122073910Y-74839441D01*
X122286110Y-74984431D01*
X122538000Y-75035440D01*
X122619979Y-75035440D01*
X122668277Y-75107723D01*
X122728000Y-75167446D01*
X122728000Y-75383450D01*
X122720748Y-75384483D01*
X122463000Y-75333213D01*
X122162594Y-75392968D01*
X121907921Y-75563134D01*
X121737755Y-75817807D01*
X121678000Y-76118213D01*
X121678000Y-76303000D01*
X121493213Y-76303000D01*
X121192807Y-76362755D01*
X120938134Y-76532921D01*
X120885782Y-76611272D01*
X120883370Y-76610270D01*
X120494337Y-76609931D01*
X120134788Y-76758493D01*
X119859460Y-77033341D01*
X119710270Y-77392630D01*
X119709931Y-77781663D01*
X119858493Y-78141212D01*
X120133341Y-78416540D01*
X120492630Y-78565730D01*
X120712605Y-78565922D01*
X120708213Y-78588000D01*
X120767968Y-78888406D01*
X120938134Y-79143079D01*
X121003000Y-79186421D01*
X121003000Y-80390051D01*
X120859460Y-80533341D01*
X120710270Y-80892630D01*
X120709931Y-81281663D01*
X120858493Y-81641212D01*
X121133341Y-81916540D01*
X121492630Y-82065730D01*
X121670668Y-82065885D01*
X118626508Y-85110046D01*
X118600440Y-85110023D01*
X118600440Y-84453000D01*
X118556162Y-84217683D01*
X118417090Y-84001559D01*
X118204890Y-83856569D01*
X117953000Y-83805560D01*
X116983000Y-83805560D01*
X116923000Y-83816850D01*
X116923000Y-81292446D01*
X117207724Y-81007723D01*
X117367051Y-80769272D01*
X117369546Y-80756728D01*
X117423000Y-80488000D01*
X117423000Y-74373750D01*
X119428000Y-74373750D01*
X119428000Y-74714309D01*
X119524673Y-74947698D01*
X119703301Y-75126327D01*
X119936690Y-75223000D01*
X120402250Y-75223000D01*
X120561000Y-75064250D01*
X120561000Y-74215000D01*
X119586750Y-74215000D01*
X119428000Y-74373750D01*
X117423000Y-74373750D01*
X117423000Y-70009192D01*
X117589441Y-69902090D01*
X117734431Y-69689890D01*
X117785440Y-69438000D01*
X117785440Y-68638000D01*
X117741162Y-68402683D01*
X117602090Y-68186559D01*
X117456917Y-68087367D01*
X117589441Y-68002090D01*
X117734431Y-67789890D01*
X117785440Y-67538000D01*
X117785440Y-66738000D01*
X117741162Y-66502683D01*
X117602090Y-66286559D01*
X117389890Y-66141569D01*
X117138000Y-66090560D01*
X116238000Y-66090560D01*
X116002683Y-66134838D01*
X115786559Y-66273910D01*
X115641569Y-66486110D01*
X115590560Y-66738000D01*
X115590560Y-66933861D01*
X115410759Y-67113662D01*
X115264309Y-67053000D01*
X114973750Y-67053000D01*
X114815000Y-67211750D01*
X114815000Y-67961000D01*
X114835000Y-67961000D01*
X114835000Y-68215000D01*
X114815000Y-68215000D01*
X114815000Y-68964250D01*
X114844692Y-68993942D01*
X112425366Y-71413267D01*
X112115363Y-71102722D01*
X111514648Y-70853284D01*
X110864205Y-70852716D01*
X110263057Y-71101106D01*
X109802722Y-71560637D01*
X109553284Y-72161352D01*
X109552716Y-72811795D01*
X109801106Y-73412943D01*
X110260637Y-73873278D01*
X110861352Y-74122716D01*
X111511795Y-74123284D01*
X112112943Y-73874894D01*
X112573278Y-73415363D01*
X112590869Y-73373000D01*
X112602208Y-73373000D01*
X112602213Y-73373001D01*
X112884697Y-73316810D01*
X112940888Y-73305633D01*
X113228003Y-73113790D01*
X115953000Y-70388792D01*
X115953000Y-80183553D01*
X115668277Y-80468277D01*
X115508949Y-80706728D01*
X115453000Y-80988000D01*
X115453000Y-83859286D01*
X115251559Y-83988910D01*
X115106569Y-84201110D01*
X115055560Y-84453000D01*
X115055560Y-85723000D01*
X115099838Y-85958317D01*
X115238910Y-86174441D01*
X115451110Y-86319431D01*
X115703000Y-86370440D01*
X116673000Y-86370440D01*
X116833690Y-86340204D01*
X116983000Y-86370440D01*
X117710993Y-86370440D01*
X117771694Y-86431140D01*
X117858493Y-86641212D01*
X118133341Y-86916540D01*
X118492630Y-87065730D01*
X118881663Y-87066069D01*
X119241212Y-86917507D01*
X119516540Y-86642659D01*
X119665730Y-86283370D01*
X119665847Y-86149600D01*
X122982723Y-82832724D01*
X123142051Y-82594272D01*
X123149266Y-82558000D01*
X123198000Y-82313000D01*
X123198000Y-80296042D01*
X123220748Y-80291517D01*
X123266684Y-80298056D01*
X123303160Y-80256469D01*
X123463000Y-80149668D01*
X123622840Y-80256469D01*
X123659316Y-80298056D01*
X123705252Y-80291517D01*
X123963000Y-80342787D01*
X124263406Y-80283032D01*
X124518079Y-80112866D01*
X124520218Y-80109664D01*
X125740560Y-81330007D01*
X125740560Y-82238000D01*
X125784838Y-82473317D01*
X125923910Y-82689441D01*
X126136110Y-82834431D01*
X126388000Y-82885440D01*
X127088000Y-82885440D01*
X127273974Y-82850446D01*
X124379809Y-85744611D01*
X124187966Y-86031726D01*
X124180696Y-86068277D01*
X124120598Y-86370401D01*
X124120599Y-86370406D01*
X124120599Y-88175599D01*
X115877178Y-88175599D01*
X113485440Y-85783860D01*
X113485440Y-85688000D01*
X113441162Y-85452683D01*
X113302090Y-85236559D01*
X113089890Y-85091569D01*
X113076803Y-85088919D01*
X113289441Y-84952090D01*
X113434431Y-84739890D01*
X113485440Y-84488000D01*
X113485440Y-83788000D01*
X113441162Y-83552683D01*
X113302090Y-83336559D01*
X113089890Y-83191569D01*
X113073000Y-83188149D01*
X113073000Y-81088005D01*
X113073001Y-81088000D01*
X113005634Y-80749326D01*
X112926197Y-80630440D01*
X112835440Y-80494612D01*
X112835440Y-79088000D01*
X112791162Y-78852683D01*
X112652090Y-78636559D01*
X112439890Y-78491569D01*
X112188000Y-78440560D01*
X110188000Y-78440560D01*
X109952683Y-78484838D01*
X109736559Y-78623910D01*
X109591569Y-78836110D01*
X109540560Y-79088000D01*
X109540560Y-81088000D01*
X109584838Y-81323317D01*
X109723910Y-81539441D01*
X109936110Y-81684431D01*
X110188000Y-81735440D01*
X111303000Y-81735440D01*
X111303000Y-83184778D01*
X111302683Y-83184838D01*
X111086559Y-83323910D01*
X110941569Y-83536110D01*
X110890560Y-83788000D01*
X110890560Y-84488000D01*
X110934838Y-84723317D01*
X111073910Y-84939441D01*
X111286110Y-85084431D01*
X111299197Y-85087081D01*
X111086559Y-85223910D01*
X110941569Y-85436110D01*
X110890560Y-85688000D01*
X110890560Y-86388000D01*
X110934838Y-86623317D01*
X111073910Y-86839441D01*
X111286110Y-86984431D01*
X111538000Y-87035440D01*
X112233860Y-87035440D01*
X113538981Y-88340560D01*
X112588000Y-88340560D01*
X112352683Y-88384838D01*
X112136559Y-88523910D01*
X111991569Y-88736110D01*
X111940560Y-88988000D01*
X111940560Y-89888000D01*
X111984838Y-90123317D01*
X112123910Y-90339441D01*
X112336110Y-90484431D01*
X112588000Y-90535440D01*
X113788000Y-90535440D01*
X114023317Y-90491162D01*
X114154907Y-90406486D01*
X115838981Y-92090560D01*
X115738000Y-92090560D01*
X115502683Y-92134838D01*
X115286559Y-92273910D01*
X115141569Y-92486110D01*
X115090560Y-92738000D01*
X115090560Y-93538000D01*
X115134838Y-93773317D01*
X115273910Y-93989441D01*
X115419083Y-94088633D01*
X115319054Y-94153000D01*
X115059192Y-94153000D01*
X114952090Y-93986559D01*
X114739890Y-93841569D01*
X114488000Y-93790560D01*
X114092140Y-93790560D01*
X114073000Y-93771420D01*
X114073000Y-93759192D01*
X114239441Y-93652090D01*
X114384431Y-93439890D01*
X114435440Y-93188000D01*
X114435440Y-92288000D01*
X114391162Y-92052683D01*
X114252090Y-91836559D01*
X114039890Y-91691569D01*
X113788000Y-91640560D01*
X112588000Y-91640560D01*
X112352683Y-91684838D01*
X112136559Y-91823910D01*
X111991569Y-92036110D01*
X111940560Y-92288000D01*
X111940560Y-93188000D01*
X111984838Y-93423317D01*
X112123910Y-93639441D01*
X112303000Y-93761808D01*
X112303000Y-94137995D01*
X112302999Y-94138000D01*
X112353898Y-94393882D01*
X112365000Y-94449693D01*
X112365000Y-94961000D01*
X112385000Y-94961000D01*
X112385000Y-95215000D01*
X112365000Y-95215000D01*
X112365000Y-96214250D01*
X112523750Y-96373000D01*
X112714309Y-96373000D01*
X112947698Y-96276327D01*
X113126327Y-96097699D01*
X113182654Y-95961713D01*
X113184838Y-95973317D01*
X113253000Y-96079244D01*
X113253000Y-98137995D01*
X113252999Y-98138000D01*
X113296216Y-98355260D01*
X113320367Y-98476675D01*
X113478801Y-98713790D01*
X113512210Y-98763790D01*
X113840560Y-99092140D01*
X113840560Y-99688000D01*
X113884838Y-99923317D01*
X114023910Y-100139441D01*
X114203000Y-100261808D01*
X114203000Y-106462995D01*
X114202999Y-106463000D01*
X114255712Y-106728001D01*
X114270367Y-106801675D01*
X114394089Y-106986840D01*
X114340000Y-107018482D01*
X114340000Y-108361000D01*
X115573000Y-108361000D01*
X115573000Y-108199579D01*
X115753000Y-108379579D01*
X115753000Y-108438000D01*
X115765560Y-108501143D01*
X115765560Y-108564123D01*
X115458277Y-108503000D01*
X115417723Y-108503000D01*
X115021646Y-108581785D01*
X114971936Y-108615000D01*
X114340000Y-108615000D01*
X114340000Y-109957518D01*
X114550258Y-110080519D01*
X114558337Y-110078993D01*
X114685867Y-110269856D01*
X115021646Y-110494215D01*
X115417723Y-110573000D01*
X115458277Y-110573000D01*
X115854354Y-110494215D01*
X116190133Y-110269856D01*
X116414492Y-109934077D01*
X116454004Y-109735440D01*
X116863000Y-109735440D01*
X116888134Y-109730711D01*
X116940876Y-109809644D01*
X117371347Y-110240116D01*
X117559159Y-110365607D01*
X117609798Y-110399443D01*
X117891070Y-110455392D01*
X118265946Y-110455392D01*
X118608277Y-110797724D01*
X118846728Y-110957051D01*
X119128000Y-111013000D01*
X119370611Y-111013000D01*
X119447725Y-111090114D01*
X119628803Y-111211106D01*
X119686177Y-111249442D01*
X119967449Y-111305391D01*
X120807919Y-111305391D01*
X120743707Y-111382620D01*
X120603000Y-111836000D01*
X120603000Y-112161000D01*
X121686000Y-112161000D01*
X121686000Y-112141000D01*
X121940000Y-112141000D01*
X121940000Y-112161000D01*
X123023000Y-112161000D01*
X123023000Y-111836000D01*
X122882293Y-111382620D01*
X122818081Y-111305391D01*
X123326287Y-111305391D01*
X123440560Y-111282660D01*
X123440560Y-113378000D01*
X122728791Y-113378000D01*
X122882293Y-113193380D01*
X123023000Y-112740000D01*
X123023000Y-112415000D01*
X121940000Y-112415000D01*
X121940000Y-112435000D01*
X121686000Y-112435000D01*
X121686000Y-112415000D01*
X120603000Y-112415000D01*
X120603000Y-112740000D01*
X120743707Y-113193380D01*
X120897209Y-113378000D01*
X114978791Y-113378000D01*
X115132293Y-113193380D01*
X115273000Y-112740000D01*
X115273000Y-112415000D01*
X114190000Y-112415000D01*
X114190000Y-112435000D01*
X113936000Y-112435000D01*
X113936000Y-112415000D01*
X112853000Y-112415000D01*
X112853000Y-112740000D01*
X112993707Y-113193380D01*
X113147209Y-113378000D01*
X112257931Y-113378000D01*
X110551610Y-113038592D01*
X109164349Y-112111654D01*
X108980163Y-111836000D01*
X112853000Y-111836000D01*
X112853000Y-112161000D01*
X113936000Y-112161000D01*
X113936000Y-110919450D01*
X114190000Y-110919450D01*
X114190000Y-112161000D01*
X115273000Y-112161000D01*
X115273000Y-111836000D01*
X115132293Y-111382620D01*
X114828796Y-111017598D01*
X114408714Y-110796505D01*
X114376677Y-110794365D01*
X114190000Y-110919450D01*
X113936000Y-110919450D01*
X113749323Y-110794365D01*
X113717286Y-110796505D01*
X113297204Y-111017598D01*
X112993707Y-111382620D01*
X112853000Y-111836000D01*
X108980163Y-111836000D01*
X108237408Y-110724390D01*
X107898000Y-109018069D01*
X107898000Y-108615000D01*
X112853000Y-108615000D01*
X112853000Y-108890000D01*
X113005125Y-109400782D01*
X113341138Y-109814467D01*
X113809884Y-110068076D01*
X113875742Y-110080519D01*
X114086000Y-109957518D01*
X114086000Y-108615000D01*
X112853000Y-108615000D01*
X107898000Y-108615000D01*
X107898000Y-108086000D01*
X112853000Y-108086000D01*
X112853000Y-108361000D01*
X114086000Y-108361000D01*
X114086000Y-107018482D01*
X113875742Y-106895481D01*
X113809884Y-106907924D01*
X113341138Y-107161533D01*
X113005125Y-107575218D01*
X112853000Y-108086000D01*
X107898000Y-108086000D01*
X107898000Y-95373750D01*
X111253000Y-95373750D01*
X111253000Y-95864310D01*
X111349673Y-96097699D01*
X111528302Y-96276327D01*
X111761691Y-96373000D01*
X111952250Y-96373000D01*
X112111000Y-96214250D01*
X112111000Y-95215000D01*
X111411750Y-95215000D01*
X111253000Y-95373750D01*
X107898000Y-95373750D01*
X107898000Y-94311690D01*
X111253000Y-94311690D01*
X111253000Y-94802250D01*
X111411750Y-94961000D01*
X112111000Y-94961000D01*
X112111000Y-93961750D01*
X111952250Y-93803000D01*
X111761691Y-93803000D01*
X111528302Y-93899673D01*
X111349673Y-94078301D01*
X111253000Y-94311690D01*
X107898000Y-94311690D01*
X107898000Y-68373750D01*
X113603000Y-68373750D01*
X113603000Y-68614310D01*
X113699673Y-68847699D01*
X113878302Y-69026327D01*
X114111691Y-69123000D01*
X114402250Y-69123000D01*
X114561000Y-68964250D01*
X114561000Y-68215000D01*
X113761750Y-68215000D01*
X113603000Y-68373750D01*
X107898000Y-68373750D01*
X107898000Y-67561690D01*
X113603000Y-67561690D01*
X113603000Y-67802250D01*
X113761750Y-67961000D01*
X114561000Y-67961000D01*
X114561000Y-67211750D01*
X114402250Y-67053000D01*
X114111691Y-67053000D01*
X113878302Y-67149673D01*
X113699673Y-67328301D01*
X113603000Y-67561690D01*
X107898000Y-67561690D01*
X107898000Y-59715265D01*
X108632670Y-59715265D01*
X108922078Y-60415686D01*
X109457495Y-60952039D01*
X110157410Y-61242668D01*
X110915265Y-61243330D01*
X111615686Y-60953922D01*
X112152039Y-60418505D01*
X112442668Y-59718590D01*
X112442670Y-59715265D01*
X121932670Y-59715265D01*
X122222078Y-60415686D01*
X122757495Y-60952039D01*
X123457410Y-61242668D01*
X124215265Y-61243330D01*
X124915686Y-60953922D01*
X125452039Y-60418505D01*
X125742668Y-59718590D01*
X125743330Y-58960735D01*
X125453922Y-58260314D01*
X124918505Y-57723961D01*
X124218590Y-57433332D01*
X123460735Y-57432670D01*
X122760314Y-57722078D01*
X122223961Y-58257495D01*
X121933332Y-58957410D01*
X121932670Y-59715265D01*
X112442670Y-59715265D01*
X112443330Y-58960735D01*
X112153922Y-58260314D01*
X111618505Y-57723961D01*
X110918590Y-57433332D01*
X110160735Y-57432670D01*
X109460314Y-57722078D01*
X108923961Y-58257495D01*
X108633332Y-58957410D01*
X108632670Y-59715265D01*
X107898000Y-59715265D01*
X107898000Y-44215265D01*
X108632670Y-44215265D01*
X108922078Y-44915686D01*
X109457495Y-45452039D01*
X110157410Y-45742668D01*
X110915265Y-45743330D01*
X111615686Y-45453922D01*
X112152039Y-44918505D01*
X112442668Y-44218590D01*
X112443330Y-43460735D01*
X112153922Y-42760314D01*
X111618505Y-42223961D01*
X110918590Y-41933332D01*
X110160735Y-41932670D01*
X109460314Y-42222078D01*
X108923961Y-42757495D01*
X108633332Y-43457410D01*
X108632670Y-44215265D01*
X107898000Y-44215265D01*
X107898000Y-44157931D01*
X108237408Y-42451610D01*
X109164349Y-41064346D01*
X110551610Y-40137408D01*
X112257931Y-39798000D01*
X143251000Y-39798000D01*
X143251000Y-41302250D01*
G36*
X120373910Y-100189441D02*
X120586110Y-100334431D01*
X120617627Y-100340813D01*
X120385642Y-100436667D01*
X120110314Y-100711515D01*
X119961124Y-101070804D01*
X119960785Y-101459837D01*
X120109347Y-101819386D01*
X120268220Y-101978537D01*
X120236559Y-101998910D01*
X120190031Y-102067006D01*
X120047698Y-101924673D01*
X119814309Y-101828000D01*
X119473750Y-101828000D01*
X119315000Y-101986750D01*
X119315000Y-102961000D01*
X119335000Y-102961000D01*
X119335000Y-103215000D01*
X119315000Y-103215000D01*
X119315000Y-104189250D01*
X119473750Y-104348000D01*
X119814309Y-104348000D01*
X120047698Y-104251327D01*
X120188936Y-104110090D01*
X120223910Y-104164441D01*
X120436110Y-104309431D01*
X120688000Y-104360440D01*
X121688000Y-104360440D01*
X121923317Y-104316162D01*
X122139441Y-104177090D01*
X122284431Y-103964890D01*
X122335440Y-103713000D01*
X122335440Y-103192140D01*
X123250500Y-102277080D01*
X126040560Y-105067139D01*
X126040560Y-107963000D01*
X126084838Y-108198317D01*
X126213886Y-108398864D01*
X126209907Y-108401364D01*
X126170883Y-108438258D01*
X126168068Y-108439919D01*
X126165457Y-108443388D01*
X126149896Y-108458100D01*
X126132091Y-108469997D01*
X126128129Y-108471770D01*
X126125884Y-108474144D01*
X126081229Y-108503982D01*
X126033727Y-108551485D01*
X126003891Y-108596138D01*
X126001515Y-108598384D01*
X125999741Y-108602349D01*
X125987847Y-108620149D01*
X125973133Y-108635712D01*
X125969664Y-108638323D01*
X125968003Y-108641138D01*
X125931109Y-108680162D01*
X125895368Y-108737043D01*
X125876215Y-108787218D01*
X125874399Y-108789936D01*
X125873552Y-108794195D01*
X125865915Y-108814202D01*
X125855031Y-108832653D01*
X125852229Y-108835971D01*
X125851236Y-108839085D01*
X125823956Y-108885332D01*
X125820360Y-108895608D01*
X123728682Y-108895608D01*
X123491349Y-108942817D01*
X123447410Y-108951557D01*
X123208959Y-109110884D01*
X122864443Y-109455401D01*
X122826511Y-109455401D01*
X122870875Y-109400782D01*
X123023000Y-108890000D01*
X123023000Y-108615000D01*
X121790000Y-108615000D01*
X121790000Y-108635000D01*
X121536000Y-108635000D01*
X121536000Y-108615000D01*
X120904064Y-108615000D01*
X120854354Y-108581785D01*
X120458277Y-108503000D01*
X120417723Y-108503000D01*
X120021646Y-108581785D01*
X119982315Y-108608065D01*
X119939250Y-108565000D01*
X119460440Y-108565000D01*
X119460440Y-108311000D01*
X119939250Y-108311000D01*
X120098000Y-108152250D01*
X120098000Y-108086000D01*
X120303000Y-108086000D01*
X120303000Y-108361000D01*
X121536000Y-108361000D01*
X121536000Y-107018482D01*
X121790000Y-107018482D01*
X121790000Y-108361000D01*
X123023000Y-108361000D01*
X123023000Y-108086000D01*
X122870875Y-107575218D01*
X122534862Y-107161533D01*
X122066116Y-106907924D01*
X122000258Y-106895481D01*
X121790000Y-107018482D01*
X121536000Y-107018482D01*
X121325742Y-106895481D01*
X121259884Y-106907924D01*
X120791138Y-107161533D01*
X120455125Y-107575218D01*
X120303000Y-108086000D01*
X120098000Y-108086000D01*
X120098000Y-107661690D01*
X120001327Y-107428301D01*
X119822698Y-107249673D01*
X119589309Y-107153000D01*
X119509250Y-107153000D01*
X119350500Y-107311750D01*
X119350500Y-107450641D01*
X119277090Y-107336559D01*
X119064890Y-107191569D01*
X118990192Y-107176442D01*
X118966750Y-107153000D01*
X118886691Y-107153000D01*
X118882665Y-107154668D01*
X118813000Y-107140560D01*
X118363000Y-107140560D01*
X118259329Y-107160067D01*
X118163000Y-107140560D01*
X117713000Y-107140560D01*
X117609329Y-107160067D01*
X117513000Y-107140560D01*
X117063000Y-107140560D01*
X117024402Y-107147823D01*
X115973000Y-106096420D01*
X115973000Y-103373750D01*
X118053000Y-103373750D01*
X118053000Y-103839310D01*
X118149673Y-104072699D01*
X118328302Y-104251327D01*
X118561691Y-104348000D01*
X118902250Y-104348000D01*
X119061000Y-104189250D01*
X119061000Y-103215000D01*
X118211750Y-103215000D01*
X118053000Y-103373750D01*
X115973000Y-103373750D01*
X115973000Y-102336690D01*
X118053000Y-102336690D01*
X118053000Y-102802250D01*
X118211750Y-102961000D01*
X119061000Y-102961000D01*
X119061000Y-101986750D01*
X118902250Y-101828000D01*
X118561691Y-101828000D01*
X118328302Y-101924673D01*
X118149673Y-102103301D01*
X118053000Y-102336690D01*
X115973000Y-102336690D01*
X115973000Y-100259192D01*
X116139441Y-100152090D01*
X116187134Y-100082289D01*
X116223910Y-100139441D01*
X116436110Y-100284431D01*
X116688000Y-100335440D01*
X117888000Y-100335440D01*
X118123317Y-100291162D01*
X118339441Y-100152090D01*
X118396314Y-100068853D01*
X118473910Y-100189441D01*
X118686110Y-100334431D01*
X118938000Y-100385440D01*
X119638000Y-100385440D01*
X119873317Y-100341162D01*
X120089441Y-100202090D01*
X120234431Y-99989890D01*
X120237081Y-99976803D01*
X120373910Y-100189441D01*
X120373910Y-100189441D01*
G37*
X120373910Y-100189441D02*
X120586110Y-100334431D01*
X120617627Y-100340813D01*
X120385642Y-100436667D01*
X120110314Y-100711515D01*
X119961124Y-101070804D01*
X119960785Y-101459837D01*
X120109347Y-101819386D01*
X120268220Y-101978537D01*
X120236559Y-101998910D01*
X120190031Y-102067006D01*
X120047698Y-101924673D01*
X119814309Y-101828000D01*
X119473750Y-101828000D01*
X119315000Y-101986750D01*
X119315000Y-102961000D01*
X119335000Y-102961000D01*
X119335000Y-103215000D01*
X119315000Y-103215000D01*
X119315000Y-104189250D01*
X119473750Y-104348000D01*
X119814309Y-104348000D01*
X120047698Y-104251327D01*
X120188936Y-104110090D01*
X120223910Y-104164441D01*
X120436110Y-104309431D01*
X120688000Y-104360440D01*
X121688000Y-104360440D01*
X121923317Y-104316162D01*
X122139441Y-104177090D01*
X122284431Y-103964890D01*
X122335440Y-103713000D01*
X122335440Y-103192140D01*
X123250500Y-102277080D01*
X126040560Y-105067139D01*
X126040560Y-107963000D01*
X126084838Y-108198317D01*
X126213886Y-108398864D01*
X126209907Y-108401364D01*
X126170883Y-108438258D01*
X126168068Y-108439919D01*
X126165457Y-108443388D01*
X126149896Y-108458100D01*
X126132091Y-108469997D01*
X126128129Y-108471770D01*
X126125884Y-108474144D01*
X126081229Y-108503982D01*
X126033727Y-108551485D01*
X126003891Y-108596138D01*
X126001515Y-108598384D01*
X125999741Y-108602349D01*
X125987847Y-108620149D01*
X125973133Y-108635712D01*
X125969664Y-108638323D01*
X125968003Y-108641138D01*
X125931109Y-108680162D01*
X125895368Y-108737043D01*
X125876215Y-108787218D01*
X125874399Y-108789936D01*
X125873552Y-108794195D01*
X125865915Y-108814202D01*
X125855031Y-108832653D01*
X125852229Y-108835971D01*
X125851236Y-108839085D01*
X125823956Y-108885332D01*
X125820360Y-108895608D01*
X123728682Y-108895608D01*
X123491349Y-108942817D01*
X123447410Y-108951557D01*
X123208959Y-109110884D01*
X122864443Y-109455401D01*
X122826511Y-109455401D01*
X122870875Y-109400782D01*
X123023000Y-108890000D01*
X123023000Y-108615000D01*
X121790000Y-108615000D01*
X121790000Y-108635000D01*
X121536000Y-108635000D01*
X121536000Y-108615000D01*
X120904064Y-108615000D01*
X120854354Y-108581785D01*
X120458277Y-108503000D01*
X120417723Y-108503000D01*
X120021646Y-108581785D01*
X119982315Y-108608065D01*
X119939250Y-108565000D01*
X119460440Y-108565000D01*
X119460440Y-108311000D01*
X119939250Y-108311000D01*
X120098000Y-108152250D01*
X120098000Y-108086000D01*
X120303000Y-108086000D01*
X120303000Y-108361000D01*
X121536000Y-108361000D01*
X121536000Y-107018482D01*
X121790000Y-107018482D01*
X121790000Y-108361000D01*
X123023000Y-108361000D01*
X123023000Y-108086000D01*
X122870875Y-107575218D01*
X122534862Y-107161533D01*
X122066116Y-106907924D01*
X122000258Y-106895481D01*
X121790000Y-107018482D01*
X121536000Y-107018482D01*
X121325742Y-106895481D01*
X121259884Y-106907924D01*
X120791138Y-107161533D01*
X120455125Y-107575218D01*
X120303000Y-108086000D01*
X120098000Y-108086000D01*
X120098000Y-107661690D01*
X120001327Y-107428301D01*
X119822698Y-107249673D01*
X119589309Y-107153000D01*
X119509250Y-107153000D01*
X119350500Y-107311750D01*
X119350500Y-107450641D01*
X119277090Y-107336559D01*
X119064890Y-107191569D01*
X118990192Y-107176442D01*
X118966750Y-107153000D01*
X118886691Y-107153000D01*
X118882665Y-107154668D01*
X118813000Y-107140560D01*
X118363000Y-107140560D01*
X118259329Y-107160067D01*
X118163000Y-107140560D01*
X117713000Y-107140560D01*
X117609329Y-107160067D01*
X117513000Y-107140560D01*
X117063000Y-107140560D01*
X117024402Y-107147823D01*
X115973000Y-106096420D01*
X115973000Y-103373750D01*
X118053000Y-103373750D01*
X118053000Y-103839310D01*
X118149673Y-104072699D01*
X118328302Y-104251327D01*
X118561691Y-104348000D01*
X118902250Y-104348000D01*
X119061000Y-104189250D01*
X119061000Y-103215000D01*
X118211750Y-103215000D01*
X118053000Y-103373750D01*
X115973000Y-103373750D01*
X115973000Y-102336690D01*
X118053000Y-102336690D01*
X118053000Y-102802250D01*
X118211750Y-102961000D01*
X119061000Y-102961000D01*
X119061000Y-101986750D01*
X118902250Y-101828000D01*
X118561691Y-101828000D01*
X118328302Y-101924673D01*
X118149673Y-102103301D01*
X118053000Y-102336690D01*
X115973000Y-102336690D01*
X115973000Y-100259192D01*
X116139441Y-100152090D01*
X116187134Y-100082289D01*
X116223910Y-100139441D01*
X116436110Y-100284431D01*
X116688000Y-100335440D01*
X117888000Y-100335440D01*
X118123317Y-100291162D01*
X118339441Y-100152090D01*
X118396314Y-100068853D01*
X118473910Y-100189441D01*
X118686110Y-100334431D01*
X118938000Y-100385440D01*
X119638000Y-100385440D01*
X119873317Y-100341162D01*
X120089441Y-100202090D01*
X120234431Y-99989890D01*
X120237081Y-99976803D01*
X120373910Y-100189441D01*
G36*
X142915000Y-107261000D02*
X143961000Y-107261000D01*
X143961000Y-107241000D01*
X144215000Y-107241000D01*
X144215000Y-107261000D01*
X144235000Y-107261000D01*
X144235000Y-107515000D01*
X144215000Y-107515000D01*
X144215000Y-108561000D01*
X144235000Y-108561000D01*
X144235000Y-108815000D01*
X144215000Y-108815000D01*
X144215000Y-108835000D01*
X143961000Y-108835000D01*
X143961000Y-108815000D01*
X142915000Y-108815000D01*
X142915000Y-108835000D01*
X142661000Y-108835000D01*
X142661000Y-108815000D01*
X142641000Y-108815000D01*
X142641000Y-108561000D01*
X142661000Y-108561000D01*
X142661000Y-107673750D01*
X142803000Y-107673750D01*
X142803000Y-108402250D01*
X142915000Y-108514250D01*
X142915000Y-108561000D01*
X142961750Y-108561000D01*
X143073750Y-108673000D01*
X143802250Y-108673000D01*
X143914250Y-108561000D01*
X143961000Y-108561000D01*
X143961000Y-108514250D01*
X144073000Y-108402250D01*
X144073000Y-107673750D01*
X143961000Y-107561750D01*
X143961000Y-107515000D01*
X143914250Y-107515000D01*
X143802250Y-107403000D01*
X143073750Y-107403000D01*
X142961750Y-107515000D01*
X142915000Y-107515000D01*
X142915000Y-107561750D01*
X142803000Y-107673750D01*
X142661000Y-107673750D01*
X142661000Y-107515000D01*
X142641000Y-107515000D01*
X142641000Y-107261000D01*
X142661000Y-107261000D01*
X142661000Y-107241000D01*
X142915000Y-107241000D01*
X142915000Y-107261000D01*
X142915000Y-107261000D01*
G37*
X142915000Y-107261000D02*
X143961000Y-107261000D01*
X143961000Y-107241000D01*
X144215000Y-107241000D01*
X144215000Y-107261000D01*
X144235000Y-107261000D01*
X144235000Y-107515000D01*
X144215000Y-107515000D01*
X144215000Y-108561000D01*
X144235000Y-108561000D01*
X144235000Y-108815000D01*
X144215000Y-108815000D01*
X144215000Y-108835000D01*
X143961000Y-108835000D01*
X143961000Y-108815000D01*
X142915000Y-108815000D01*
X142915000Y-108835000D01*
X142661000Y-108835000D01*
X142661000Y-108815000D01*
X142641000Y-108815000D01*
X142641000Y-108561000D01*
X142661000Y-108561000D01*
X142661000Y-107673750D01*
X142803000Y-107673750D01*
X142803000Y-108402250D01*
X142915000Y-108514250D01*
X142915000Y-108561000D01*
X142961750Y-108561000D01*
X143073750Y-108673000D01*
X143802250Y-108673000D01*
X143914250Y-108561000D01*
X143961000Y-108561000D01*
X143961000Y-108514250D01*
X144073000Y-108402250D01*
X144073000Y-107673750D01*
X143961000Y-107561750D01*
X143961000Y-107515000D01*
X143914250Y-107515000D01*
X143802250Y-107403000D01*
X143073750Y-107403000D01*
X142961750Y-107515000D01*
X142915000Y-107515000D01*
X142915000Y-107561750D01*
X142803000Y-107673750D01*
X142661000Y-107673750D01*
X142661000Y-107515000D01*
X142641000Y-107515000D01*
X142641000Y-107261000D01*
X142661000Y-107261000D01*
X142661000Y-107241000D01*
X142915000Y-107241000D01*
X142915000Y-107261000D01*
G36*
X130398000Y-104973001D02*
X130398005Y-104973000D01*
X131769312Y-104973000D01*
X131992630Y-105065730D01*
X132000139Y-105065737D01*
X130323000Y-106742876D01*
X130323000Y-106498750D01*
X130164250Y-106340000D01*
X129315000Y-106340000D01*
X129315000Y-106360000D01*
X129061000Y-106360000D01*
X129061000Y-106340000D01*
X129041000Y-106340000D01*
X129041000Y-106086000D01*
X129061000Y-106086000D01*
X129061000Y-106066000D01*
X129315000Y-106066000D01*
X129315000Y-106086000D01*
X130164250Y-106086000D01*
X130323000Y-105927250D01*
X130323000Y-104958082D01*
X130398000Y-104973001D01*
X130398000Y-104973001D01*
G37*
X130398000Y-104973001D02*
X130398005Y-104973000D01*
X131769312Y-104973000D01*
X131992630Y-105065730D01*
X132000139Y-105065737D01*
X130323000Y-106742876D01*
X130323000Y-106498750D01*
X130164250Y-106340000D01*
X129315000Y-106340000D01*
X129315000Y-106360000D01*
X129061000Y-106360000D01*
X129061000Y-106340000D01*
X129041000Y-106340000D01*
X129041000Y-106086000D01*
X129061000Y-106086000D01*
X129061000Y-106066000D01*
X129315000Y-106066000D01*
X129315000Y-106086000D01*
X130164250Y-106086000D01*
X130323000Y-105927250D01*
X130323000Y-104958082D01*
X130398000Y-104973001D01*
G36*
X131098910Y-91039441D02*
X131167006Y-91085969D01*
X131024673Y-91228302D01*
X130928000Y-91461691D01*
X130928000Y-91802250D01*
X131086750Y-91961000D01*
X132061000Y-91961000D01*
X132061000Y-91941000D01*
X132315000Y-91941000D01*
X132315000Y-91961000D01*
X133289250Y-91961000D01*
X133448000Y-91802250D01*
X133448000Y-91461691D01*
X133351327Y-91228302D01*
X133210090Y-91087064D01*
X133264441Y-91052090D01*
X133318481Y-90973000D01*
X134056156Y-90973000D01*
X134098910Y-91039441D01*
X134167006Y-91085969D01*
X134024673Y-91228302D01*
X133928000Y-91461691D01*
X133928000Y-91802250D01*
X134086750Y-91961000D01*
X135061000Y-91961000D01*
X135061000Y-91941000D01*
X135315000Y-91941000D01*
X135315000Y-91961000D01*
X135335000Y-91961000D01*
X135335000Y-92215000D01*
X135315000Y-92215000D01*
X135315000Y-93064250D01*
X135473750Y-93223000D01*
X135939310Y-93223000D01*
X136172699Y-93126327D01*
X136351327Y-92947698D01*
X136448000Y-92714309D01*
X136448000Y-92599579D01*
X137062208Y-93213787D01*
X137062210Y-93213790D01*
X137349325Y-93405633D01*
X137395989Y-93414915D01*
X137688000Y-93473001D01*
X137688005Y-93473000D01*
X148803000Y-93473000D01*
X148803000Y-94221421D01*
X148708861Y-94315560D01*
X148188000Y-94315560D01*
X147952683Y-94359838D01*
X147736559Y-94498910D01*
X147591569Y-94711110D01*
X147589233Y-94722645D01*
X147349325Y-94770367D01*
X147062210Y-94962210D01*
X147062208Y-94962213D01*
X145503777Y-96520644D01*
X145465645Y-96482446D01*
X145106356Y-96333256D01*
X144717323Y-96332917D01*
X144357774Y-96481479D01*
X144263102Y-96575986D01*
X140794336Y-96575986D01*
X140513064Y-96631935D01*
X140274613Y-96791262D01*
X133166064Y-103899811D01*
X133166069Y-103894337D01*
X133017507Y-103534788D01*
X132742659Y-103259460D01*
X132383370Y-103110270D01*
X131994337Y-103109931D01*
X131769092Y-103203000D01*
X130764579Y-103203000D01*
X129584579Y-102023000D01*
X129964310Y-102023000D01*
X130197699Y-101926327D01*
X130376327Y-101747698D01*
X130473000Y-101514309D01*
X130473000Y-101323750D01*
X130314250Y-101165000D01*
X129315000Y-101165000D01*
X129315000Y-101185000D01*
X129061000Y-101185000D01*
X129061000Y-101165000D01*
X129041000Y-101165000D01*
X129041000Y-100911000D01*
X129061000Y-100911000D01*
X129061000Y-100891000D01*
X129315000Y-100891000D01*
X129315000Y-100911000D01*
X130314250Y-100911000D01*
X130473000Y-100752250D01*
X130473000Y-100561691D01*
X130376327Y-100328302D01*
X130197699Y-100149673D01*
X130061713Y-100093346D01*
X130073317Y-100091162D01*
X130289441Y-99952090D01*
X130434431Y-99739890D01*
X130485440Y-99488000D01*
X130485440Y-98788000D01*
X130441162Y-98552683D01*
X130302090Y-98336559D01*
X130089890Y-98191569D01*
X129838000Y-98140560D01*
X128538000Y-98140560D01*
X128302683Y-98184838D01*
X128086559Y-98323910D01*
X128032519Y-98403000D01*
X127320931Y-98403000D01*
X127262090Y-98311559D01*
X127049890Y-98166569D01*
X126798000Y-98115560D01*
X125578000Y-98115560D01*
X125517790Y-98126889D01*
X124800711Y-97409809D01*
X124670791Y-97323000D01*
X124513596Y-97217966D01*
X124457405Y-97206789D01*
X124174921Y-97150598D01*
X124174916Y-97150599D01*
X120165846Y-97150599D01*
X120166069Y-96894337D01*
X120017507Y-96534788D01*
X119742659Y-96259460D01*
X119517577Y-96165998D01*
X118487020Y-95135440D01*
X118638000Y-95135440D01*
X118873317Y-95091162D01*
X119056946Y-94973000D01*
X119890560Y-94973000D01*
X119890560Y-95388000D01*
X119934838Y-95623317D01*
X120073910Y-95839441D01*
X120286110Y-95984431D01*
X120538000Y-96035440D01*
X121838000Y-96035440D01*
X122073317Y-95991162D01*
X122289441Y-95852090D01*
X122434431Y-95639890D01*
X122485440Y-95388000D01*
X122485440Y-95080006D01*
X124555007Y-93010440D01*
X124618000Y-93010440D01*
X124853317Y-92966162D01*
X125069441Y-92827090D01*
X125189233Y-92651768D01*
X125293910Y-92814441D01*
X125506110Y-92959431D01*
X125758000Y-93010440D01*
X126818000Y-93010440D01*
X127053317Y-92966162D01*
X127269441Y-92827090D01*
X127414431Y-92614890D01*
X127463263Y-92373750D01*
X127928000Y-92373750D01*
X127928000Y-92714309D01*
X128024673Y-92947698D01*
X128203301Y-93126327D01*
X128436690Y-93223000D01*
X128902250Y-93223000D01*
X129061000Y-93064250D01*
X129061000Y-92215000D01*
X129315000Y-92215000D01*
X129315000Y-93064250D01*
X129473750Y-93223000D01*
X129939310Y-93223000D01*
X130172699Y-93126327D01*
X130351327Y-92947698D01*
X130448000Y-92714309D01*
X130448000Y-92373750D01*
X130928000Y-92373750D01*
X130928000Y-92714309D01*
X131024673Y-92947698D01*
X131203301Y-93126327D01*
X131436690Y-93223000D01*
X131902250Y-93223000D01*
X132061000Y-93064250D01*
X132061000Y-92215000D01*
X132315000Y-92215000D01*
X132315000Y-93064250D01*
X132473750Y-93223000D01*
X132939310Y-93223000D01*
X133172699Y-93126327D01*
X133351327Y-92947698D01*
X133448000Y-92714309D01*
X133448000Y-92373750D01*
X133928000Y-92373750D01*
X133928000Y-92714309D01*
X134024673Y-92947698D01*
X134203301Y-93126327D01*
X134436690Y-93223000D01*
X134902250Y-93223000D01*
X135061000Y-93064250D01*
X135061000Y-92215000D01*
X134086750Y-92215000D01*
X133928000Y-92373750D01*
X133448000Y-92373750D01*
X133289250Y-92215000D01*
X132315000Y-92215000D01*
X132061000Y-92215000D01*
X131086750Y-92215000D01*
X130928000Y-92373750D01*
X130448000Y-92373750D01*
X130289250Y-92215000D01*
X129315000Y-92215000D01*
X129061000Y-92215000D01*
X128086750Y-92215000D01*
X127928000Y-92373750D01*
X127463263Y-92373750D01*
X127465440Y-92363000D01*
X127465440Y-91713000D01*
X127421162Y-91477683D01*
X127282090Y-91261559D01*
X127069890Y-91116569D01*
X126932880Y-91088824D01*
X127053317Y-91066162D01*
X127120393Y-91023000D01*
X128088331Y-91023000D01*
X128098910Y-91039441D01*
X128167006Y-91085969D01*
X128024673Y-91228302D01*
X127928000Y-91461691D01*
X127928000Y-91802250D01*
X128086750Y-91961000D01*
X129061000Y-91961000D01*
X129061000Y-91941000D01*
X129315000Y-91941000D01*
X129315000Y-91961000D01*
X130289250Y-91961000D01*
X130448000Y-91802250D01*
X130448000Y-91461691D01*
X130351327Y-91228302D01*
X130210090Y-91087064D01*
X130264441Y-91052090D01*
X130318481Y-90973000D01*
X131056156Y-90973000D01*
X131098910Y-91039441D01*
X131098910Y-91039441D01*
G37*
X131098910Y-91039441D02*
X131167006Y-91085969D01*
X131024673Y-91228302D01*
X130928000Y-91461691D01*
X130928000Y-91802250D01*
X131086750Y-91961000D01*
X132061000Y-91961000D01*
X132061000Y-91941000D01*
X132315000Y-91941000D01*
X132315000Y-91961000D01*
X133289250Y-91961000D01*
X133448000Y-91802250D01*
X133448000Y-91461691D01*
X133351327Y-91228302D01*
X133210090Y-91087064D01*
X133264441Y-91052090D01*
X133318481Y-90973000D01*
X134056156Y-90973000D01*
X134098910Y-91039441D01*
X134167006Y-91085969D01*
X134024673Y-91228302D01*
X133928000Y-91461691D01*
X133928000Y-91802250D01*
X134086750Y-91961000D01*
X135061000Y-91961000D01*
X135061000Y-91941000D01*
X135315000Y-91941000D01*
X135315000Y-91961000D01*
X135335000Y-91961000D01*
X135335000Y-92215000D01*
X135315000Y-92215000D01*
X135315000Y-93064250D01*
X135473750Y-93223000D01*
X135939310Y-93223000D01*
X136172699Y-93126327D01*
X136351327Y-92947698D01*
X136448000Y-92714309D01*
X136448000Y-92599579D01*
X137062208Y-93213787D01*
X137062210Y-93213790D01*
X137349325Y-93405633D01*
X137395989Y-93414915D01*
X137688000Y-93473001D01*
X137688005Y-93473000D01*
X148803000Y-93473000D01*
X148803000Y-94221421D01*
X148708861Y-94315560D01*
X148188000Y-94315560D01*
X147952683Y-94359838D01*
X147736559Y-94498910D01*
X147591569Y-94711110D01*
X147589233Y-94722645D01*
X147349325Y-94770367D01*
X147062210Y-94962210D01*
X147062208Y-94962213D01*
X145503777Y-96520644D01*
X145465645Y-96482446D01*
X145106356Y-96333256D01*
X144717323Y-96332917D01*
X144357774Y-96481479D01*
X144263102Y-96575986D01*
X140794336Y-96575986D01*
X140513064Y-96631935D01*
X140274613Y-96791262D01*
X133166064Y-103899811D01*
X133166069Y-103894337D01*
X133017507Y-103534788D01*
X132742659Y-103259460D01*
X132383370Y-103110270D01*
X131994337Y-103109931D01*
X131769092Y-103203000D01*
X130764579Y-103203000D01*
X129584579Y-102023000D01*
X129964310Y-102023000D01*
X130197699Y-101926327D01*
X130376327Y-101747698D01*
X130473000Y-101514309D01*
X130473000Y-101323750D01*
X130314250Y-101165000D01*
X129315000Y-101165000D01*
X129315000Y-101185000D01*
X129061000Y-101185000D01*
X129061000Y-101165000D01*
X129041000Y-101165000D01*
X129041000Y-100911000D01*
X129061000Y-100911000D01*
X129061000Y-100891000D01*
X129315000Y-100891000D01*
X129315000Y-100911000D01*
X130314250Y-100911000D01*
X130473000Y-100752250D01*
X130473000Y-100561691D01*
X130376327Y-100328302D01*
X130197699Y-100149673D01*
X130061713Y-100093346D01*
X130073317Y-100091162D01*
X130289441Y-99952090D01*
X130434431Y-99739890D01*
X130485440Y-99488000D01*
X130485440Y-98788000D01*
X130441162Y-98552683D01*
X130302090Y-98336559D01*
X130089890Y-98191569D01*
X129838000Y-98140560D01*
X128538000Y-98140560D01*
X128302683Y-98184838D01*
X128086559Y-98323910D01*
X128032519Y-98403000D01*
X127320931Y-98403000D01*
X127262090Y-98311559D01*
X127049890Y-98166569D01*
X126798000Y-98115560D01*
X125578000Y-98115560D01*
X125517790Y-98126889D01*
X124800711Y-97409809D01*
X124670791Y-97323000D01*
X124513596Y-97217966D01*
X124457405Y-97206789D01*
X124174921Y-97150598D01*
X124174916Y-97150599D01*
X120165846Y-97150599D01*
X120166069Y-96894337D01*
X120017507Y-96534788D01*
X119742659Y-96259460D01*
X119517577Y-96165998D01*
X118487020Y-95135440D01*
X118638000Y-95135440D01*
X118873317Y-95091162D01*
X119056946Y-94973000D01*
X119890560Y-94973000D01*
X119890560Y-95388000D01*
X119934838Y-95623317D01*
X120073910Y-95839441D01*
X120286110Y-95984431D01*
X120538000Y-96035440D01*
X121838000Y-96035440D01*
X122073317Y-95991162D01*
X122289441Y-95852090D01*
X122434431Y-95639890D01*
X122485440Y-95388000D01*
X122485440Y-95080006D01*
X124555007Y-93010440D01*
X124618000Y-93010440D01*
X124853317Y-92966162D01*
X125069441Y-92827090D01*
X125189233Y-92651768D01*
X125293910Y-92814441D01*
X125506110Y-92959431D01*
X125758000Y-93010440D01*
X126818000Y-93010440D01*
X127053317Y-92966162D01*
X127269441Y-92827090D01*
X127414431Y-92614890D01*
X127463263Y-92373750D01*
X127928000Y-92373750D01*
X127928000Y-92714309D01*
X128024673Y-92947698D01*
X128203301Y-93126327D01*
X128436690Y-93223000D01*
X128902250Y-93223000D01*
X129061000Y-93064250D01*
X129061000Y-92215000D01*
X129315000Y-92215000D01*
X129315000Y-93064250D01*
X129473750Y-93223000D01*
X129939310Y-93223000D01*
X130172699Y-93126327D01*
X130351327Y-92947698D01*
X130448000Y-92714309D01*
X130448000Y-92373750D01*
X130928000Y-92373750D01*
X130928000Y-92714309D01*
X131024673Y-92947698D01*
X131203301Y-93126327D01*
X131436690Y-93223000D01*
X131902250Y-93223000D01*
X132061000Y-93064250D01*
X132061000Y-92215000D01*
X132315000Y-92215000D01*
X132315000Y-93064250D01*
X132473750Y-93223000D01*
X132939310Y-93223000D01*
X133172699Y-93126327D01*
X133351327Y-92947698D01*
X133448000Y-92714309D01*
X133448000Y-92373750D01*
X133928000Y-92373750D01*
X133928000Y-92714309D01*
X134024673Y-92947698D01*
X134203301Y-93126327D01*
X134436690Y-93223000D01*
X134902250Y-93223000D01*
X135061000Y-93064250D01*
X135061000Y-92215000D01*
X134086750Y-92215000D01*
X133928000Y-92373750D01*
X133448000Y-92373750D01*
X133289250Y-92215000D01*
X132315000Y-92215000D01*
X132061000Y-92215000D01*
X131086750Y-92215000D01*
X130928000Y-92373750D01*
X130448000Y-92373750D01*
X130289250Y-92215000D01*
X129315000Y-92215000D01*
X129061000Y-92215000D01*
X128086750Y-92215000D01*
X127928000Y-92373750D01*
X127463263Y-92373750D01*
X127465440Y-92363000D01*
X127465440Y-91713000D01*
X127421162Y-91477683D01*
X127282090Y-91261559D01*
X127069890Y-91116569D01*
X126932880Y-91088824D01*
X127053317Y-91066162D01*
X127120393Y-91023000D01*
X128088331Y-91023000D01*
X128098910Y-91039441D01*
X128167006Y-91085969D01*
X128024673Y-91228302D01*
X127928000Y-91461691D01*
X127928000Y-91802250D01*
X128086750Y-91961000D01*
X129061000Y-91961000D01*
X129061000Y-91941000D01*
X129315000Y-91941000D01*
X129315000Y-91961000D01*
X130289250Y-91961000D01*
X130448000Y-91802250D01*
X130448000Y-91461691D01*
X130351327Y-91228302D01*
X130210090Y-91087064D01*
X130264441Y-91052090D01*
X130318481Y-90973000D01*
X131056156Y-90973000D01*
X131098910Y-91039441D01*
G36*
X122706110Y-100009431D02*
X122843120Y-100037176D01*
X122722683Y-100059838D01*
X122559257Y-100165000D01*
X122481750Y-100165000D01*
X122323000Y-100323750D01*
X122323000Y-100489310D01*
X122338268Y-100526171D01*
X122310560Y-100663000D01*
X122310560Y-100713861D01*
X121942404Y-101082016D01*
X121885923Y-100997486D01*
X121768361Y-100712962D01*
X121493513Y-100437634D01*
X121367816Y-100385440D01*
X121538000Y-100385440D01*
X121773317Y-100341162D01*
X121989441Y-100202090D01*
X122134431Y-99989890D01*
X122137851Y-99973000D01*
X122652791Y-99973000D01*
X122706110Y-100009431D01*
X122706110Y-100009431D01*
G37*
X122706110Y-100009431D02*
X122843120Y-100037176D01*
X122722683Y-100059838D01*
X122559257Y-100165000D01*
X122481750Y-100165000D01*
X122323000Y-100323750D01*
X122323000Y-100489310D01*
X122338268Y-100526171D01*
X122310560Y-100663000D01*
X122310560Y-100713861D01*
X121942404Y-101082016D01*
X121885923Y-100997486D01*
X121768361Y-100712962D01*
X121493513Y-100437634D01*
X121367816Y-100385440D01*
X121538000Y-100385440D01*
X121773317Y-100341162D01*
X121989441Y-100202090D01*
X122134431Y-99989890D01*
X122137851Y-99973000D01*
X122652791Y-99973000D01*
X122706110Y-100009431D01*
G36*
X172209931Y-94281663D02*
X172358493Y-94641212D01*
X172633341Y-94916540D01*
X172992630Y-95065730D01*
X173381663Y-95066069D01*
X173741212Y-94917507D01*
X173761815Y-94896940D01*
X174017876Y-95153000D01*
X172523750Y-95153000D01*
X172365000Y-95311750D01*
X172365000Y-98661000D01*
X172385000Y-98661000D01*
X172385000Y-98915000D01*
X172365000Y-98915000D01*
X172365000Y-98935000D01*
X172111000Y-98935000D01*
X172111000Y-98915000D01*
X172091000Y-98915000D01*
X172091000Y-98661000D01*
X172111000Y-98661000D01*
X172111000Y-95311750D01*
X171952250Y-95153000D01*
X169111690Y-95153000D01*
X168923000Y-95231158D01*
X168923000Y-95072933D01*
X168867051Y-94791661D01*
X168848428Y-94763790D01*
X168707724Y-94553210D01*
X168246183Y-94091669D01*
X172210097Y-94091669D01*
X172209931Y-94281663D01*
X172209931Y-94281663D01*
G37*
X172209931Y-94281663D02*
X172358493Y-94641212D01*
X172633341Y-94916540D01*
X172992630Y-95065730D01*
X173381663Y-95066069D01*
X173741212Y-94917507D01*
X173761815Y-94896940D01*
X174017876Y-95153000D01*
X172523750Y-95153000D01*
X172365000Y-95311750D01*
X172365000Y-98661000D01*
X172385000Y-98661000D01*
X172385000Y-98915000D01*
X172365000Y-98915000D01*
X172365000Y-98935000D01*
X172111000Y-98935000D01*
X172111000Y-98915000D01*
X172091000Y-98915000D01*
X172091000Y-98661000D01*
X172111000Y-98661000D01*
X172111000Y-95311750D01*
X171952250Y-95153000D01*
X169111690Y-95153000D01*
X168923000Y-95231158D01*
X168923000Y-95072933D01*
X168867051Y-94791661D01*
X168848428Y-94763790D01*
X168707724Y-94553210D01*
X168246183Y-94091669D01*
X172210097Y-94091669D01*
X172209931Y-94281663D01*
G36*
X161143941Y-55083387D02*
X160802169Y-54941471D01*
X160413136Y-54941132D01*
X160053587Y-55089694D01*
X159778259Y-55364542D01*
X159629069Y-55723831D01*
X159628730Y-56112864D01*
X159777292Y-56472413D01*
X159803000Y-56498166D01*
X159803000Y-68819906D01*
X159742659Y-68759460D01*
X159383370Y-68610270D01*
X158994337Y-68609931D01*
X158634788Y-68758493D01*
X158540116Y-68853000D01*
X149053000Y-68853000D01*
X148771728Y-68908949D01*
X148533276Y-69068277D01*
X146930994Y-70670560D01*
X146357401Y-70670560D01*
X146357401Y-62458045D01*
X148249493Y-60565954D01*
X148381663Y-60566069D01*
X148741212Y-60417507D01*
X149016540Y-60142659D01*
X149165730Y-59783370D01*
X149166069Y-59394337D01*
X149017507Y-59034788D01*
X148742659Y-58759460D01*
X148383370Y-58610270D01*
X147994337Y-58609931D01*
X147634788Y-58758493D01*
X147359460Y-59033341D01*
X147210270Y-59392630D01*
X147210153Y-59526400D01*
X145102678Y-61633876D01*
X144943350Y-61872327D01*
X144887401Y-62153599D01*
X144887401Y-70670560D01*
X144053000Y-70670560D01*
X143817683Y-70714838D01*
X143687573Y-70798562D01*
X143574890Y-70721569D01*
X143323000Y-70670560D01*
X142053000Y-70670560D01*
X141817683Y-70714838D01*
X141687573Y-70798562D01*
X141574890Y-70721569D01*
X141323000Y-70670560D01*
X140053000Y-70670560D01*
X139817683Y-70714838D01*
X139696100Y-70793074D01*
X139682699Y-70779673D01*
X139449310Y-70683000D01*
X138973750Y-70683000D01*
X138815000Y-70841750D01*
X138815000Y-72461000D01*
X138835000Y-72461000D01*
X138835000Y-72715000D01*
X138815000Y-72715000D01*
X138815000Y-74334250D01*
X138973750Y-74493000D01*
X139449310Y-74493000D01*
X139682699Y-74396327D01*
X139696246Y-74382780D01*
X139801110Y-74454431D01*
X139953000Y-74485189D01*
X139953000Y-76709314D01*
X140005242Y-76971952D01*
X140008949Y-76990586D01*
X140168277Y-77229037D01*
X140856607Y-77917368D01*
X140767673Y-78006302D01*
X140671000Y-78239691D01*
X140671000Y-78842250D01*
X140829750Y-79001000D01*
X141941000Y-79001000D01*
X141941000Y-78981000D01*
X142195000Y-78981000D01*
X142195000Y-79001000D01*
X142215000Y-79001000D01*
X142215000Y-79255000D01*
X142195000Y-79255000D01*
X142195000Y-80366250D01*
X142353750Y-80525000D01*
X142631232Y-80525000D01*
X151797495Y-89691264D01*
X151634788Y-89758493D01*
X151359460Y-90033341D01*
X151210270Y-90392630D01*
X151210104Y-90583696D01*
X151166050Y-90649627D01*
X151110101Y-90930899D01*
X151110101Y-94328000D01*
X150973750Y-94328000D01*
X150815000Y-94486750D01*
X150815000Y-95461000D01*
X150835000Y-95461000D01*
X150835000Y-95715000D01*
X150815000Y-95715000D01*
X150815000Y-96689250D01*
X150973750Y-96848000D01*
X151110101Y-96848000D01*
X151110101Y-98132843D01*
X150635440Y-97658182D01*
X150635440Y-97588000D01*
X150591162Y-97352683D01*
X150452090Y-97136559D01*
X150239890Y-96991569D01*
X150123000Y-96967898D01*
X150123000Y-96848000D01*
X150402250Y-96848000D01*
X150561000Y-96689250D01*
X150561000Y-95715000D01*
X150541000Y-95715000D01*
X150541000Y-95461000D01*
X150561000Y-95461000D01*
X150561000Y-94648333D01*
X150573001Y-94588000D01*
X150573000Y-94587995D01*
X150573000Y-93006688D01*
X150665730Y-92783370D01*
X150666069Y-92394337D01*
X150517507Y-92034788D01*
X150242659Y-91759460D01*
X149883370Y-91610270D01*
X149494337Y-91609931D01*
X149269092Y-91703000D01*
X138054579Y-91703000D01*
X137138016Y-90786436D01*
X137130634Y-90749326D01*
X137036018Y-90607723D01*
X136938790Y-90462210D01*
X136938787Y-90462208D01*
X136460440Y-89983861D01*
X136460440Y-89588000D01*
X136416162Y-89352683D01*
X136277090Y-89136559D01*
X136064890Y-88991569D01*
X135813000Y-88940560D01*
X134563000Y-88940560D01*
X134327683Y-88984838D01*
X134111559Y-89123910D01*
X134057519Y-89203000D01*
X133319844Y-89203000D01*
X133277090Y-89136559D01*
X133064890Y-88991569D01*
X132813000Y-88940560D01*
X131563000Y-88940560D01*
X131327683Y-88984838D01*
X131111559Y-89123910D01*
X131057519Y-89203000D01*
X130319844Y-89203000D01*
X130277090Y-89136559D01*
X130064890Y-88991569D01*
X129813000Y-88940560D01*
X128563000Y-88940560D01*
X128327683Y-88984838D01*
X128111559Y-89123910D01*
X128023356Y-89253000D01*
X127123209Y-89253000D01*
X127069890Y-89216569D01*
X126818000Y-89165560D01*
X126362139Y-89165560D01*
X125890599Y-88694019D01*
X125890599Y-86736981D01*
X129263787Y-83363792D01*
X129263790Y-83363790D01*
X129455633Y-83076675D01*
X129482599Y-82941110D01*
X129523001Y-82738000D01*
X129523000Y-82737995D01*
X129523000Y-82579797D01*
X129584431Y-82489890D01*
X129635440Y-82238000D01*
X129635440Y-80938000D01*
X129591162Y-80702683D01*
X129523000Y-80596756D01*
X129523000Y-80252018D01*
X129639441Y-80177090D01*
X129784431Y-79964890D01*
X129835440Y-79713000D01*
X129835440Y-79413750D01*
X140671000Y-79413750D01*
X140671000Y-80016309D01*
X140767673Y-80249698D01*
X140946301Y-80428327D01*
X141179690Y-80525000D01*
X141782250Y-80525000D01*
X141941000Y-80366250D01*
X141941000Y-79255000D01*
X140829750Y-79255000D01*
X140671000Y-79413750D01*
X129835440Y-79413750D01*
X129835440Y-78463000D01*
X129791162Y-78227683D01*
X129652090Y-78011559D01*
X129439890Y-77866569D01*
X129302880Y-77838824D01*
X129423317Y-77816162D01*
X129639441Y-77677090D01*
X129778890Y-77473000D01*
X134457995Y-77473000D01*
X134458000Y-77473001D01*
X134748961Y-77415124D01*
X134796675Y-77405633D01*
X135083790Y-77213790D01*
X136787733Y-75509846D01*
X137011212Y-75417507D01*
X137286540Y-75142659D01*
X137416070Y-74830716D01*
X137505633Y-74696675D01*
X137552253Y-74462303D01*
X137558317Y-74461162D01*
X137679900Y-74382926D01*
X137693301Y-74396327D01*
X137926690Y-74493000D01*
X138402250Y-74493000D01*
X138561000Y-74334250D01*
X138561000Y-72715000D01*
X138541000Y-72715000D01*
X138541000Y-72461000D01*
X138561000Y-72461000D01*
X138561000Y-70841750D01*
X138402250Y-70683000D01*
X137926690Y-70683000D01*
X137693301Y-70779673D01*
X137679754Y-70793220D01*
X137574890Y-70721569D01*
X137573000Y-70721186D01*
X137573000Y-63838005D01*
X137573001Y-63838000D01*
X137505633Y-63499325D01*
X137313790Y-63212210D01*
X137313787Y-63212208D01*
X128461763Y-54360183D01*
X128462264Y-53786188D01*
X128419049Y-53681599D01*
X159742153Y-53681599D01*
X161143941Y-55083387D01*
X161143941Y-55083387D01*
G37*
X161143941Y-55083387D02*
X160802169Y-54941471D01*
X160413136Y-54941132D01*
X160053587Y-55089694D01*
X159778259Y-55364542D01*
X159629069Y-55723831D01*
X159628730Y-56112864D01*
X159777292Y-56472413D01*
X159803000Y-56498166D01*
X159803000Y-68819906D01*
X159742659Y-68759460D01*
X159383370Y-68610270D01*
X158994337Y-68609931D01*
X158634788Y-68758493D01*
X158540116Y-68853000D01*
X149053000Y-68853000D01*
X148771728Y-68908949D01*
X148533276Y-69068277D01*
X146930994Y-70670560D01*
X146357401Y-70670560D01*
X146357401Y-62458045D01*
X148249493Y-60565954D01*
X148381663Y-60566069D01*
X148741212Y-60417507D01*
X149016540Y-60142659D01*
X149165730Y-59783370D01*
X149166069Y-59394337D01*
X149017507Y-59034788D01*
X148742659Y-58759460D01*
X148383370Y-58610270D01*
X147994337Y-58609931D01*
X147634788Y-58758493D01*
X147359460Y-59033341D01*
X147210270Y-59392630D01*
X147210153Y-59526400D01*
X145102678Y-61633876D01*
X144943350Y-61872327D01*
X144887401Y-62153599D01*
X144887401Y-70670560D01*
X144053000Y-70670560D01*
X143817683Y-70714838D01*
X143687573Y-70798562D01*
X143574890Y-70721569D01*
X143323000Y-70670560D01*
X142053000Y-70670560D01*
X141817683Y-70714838D01*
X141687573Y-70798562D01*
X141574890Y-70721569D01*
X141323000Y-70670560D01*
X140053000Y-70670560D01*
X139817683Y-70714838D01*
X139696100Y-70793074D01*
X139682699Y-70779673D01*
X139449310Y-70683000D01*
X138973750Y-70683000D01*
X138815000Y-70841750D01*
X138815000Y-72461000D01*
X138835000Y-72461000D01*
X138835000Y-72715000D01*
X138815000Y-72715000D01*
X138815000Y-74334250D01*
X138973750Y-74493000D01*
X139449310Y-74493000D01*
X139682699Y-74396327D01*
X139696246Y-74382780D01*
X139801110Y-74454431D01*
X139953000Y-74485189D01*
X139953000Y-76709314D01*
X140005242Y-76971952D01*
X140008949Y-76990586D01*
X140168277Y-77229037D01*
X140856607Y-77917368D01*
X140767673Y-78006302D01*
X140671000Y-78239691D01*
X140671000Y-78842250D01*
X140829750Y-79001000D01*
X141941000Y-79001000D01*
X141941000Y-78981000D01*
X142195000Y-78981000D01*
X142195000Y-79001000D01*
X142215000Y-79001000D01*
X142215000Y-79255000D01*
X142195000Y-79255000D01*
X142195000Y-80366250D01*
X142353750Y-80525000D01*
X142631232Y-80525000D01*
X151797495Y-89691264D01*
X151634788Y-89758493D01*
X151359460Y-90033341D01*
X151210270Y-90392630D01*
X151210104Y-90583696D01*
X151166050Y-90649627D01*
X151110101Y-90930899D01*
X151110101Y-94328000D01*
X150973750Y-94328000D01*
X150815000Y-94486750D01*
X150815000Y-95461000D01*
X150835000Y-95461000D01*
X150835000Y-95715000D01*
X150815000Y-95715000D01*
X150815000Y-96689250D01*
X150973750Y-96848000D01*
X151110101Y-96848000D01*
X151110101Y-98132843D01*
X150635440Y-97658182D01*
X150635440Y-97588000D01*
X150591162Y-97352683D01*
X150452090Y-97136559D01*
X150239890Y-96991569D01*
X150123000Y-96967898D01*
X150123000Y-96848000D01*
X150402250Y-96848000D01*
X150561000Y-96689250D01*
X150561000Y-95715000D01*
X150541000Y-95715000D01*
X150541000Y-95461000D01*
X150561000Y-95461000D01*
X150561000Y-94648333D01*
X150573001Y-94588000D01*
X150573000Y-94587995D01*
X150573000Y-93006688D01*
X150665730Y-92783370D01*
X150666069Y-92394337D01*
X150517507Y-92034788D01*
X150242659Y-91759460D01*
X149883370Y-91610270D01*
X149494337Y-91609931D01*
X149269092Y-91703000D01*
X138054579Y-91703000D01*
X137138016Y-90786436D01*
X137130634Y-90749326D01*
X137036018Y-90607723D01*
X136938790Y-90462210D01*
X136938787Y-90462208D01*
X136460440Y-89983861D01*
X136460440Y-89588000D01*
X136416162Y-89352683D01*
X136277090Y-89136559D01*
X136064890Y-88991569D01*
X135813000Y-88940560D01*
X134563000Y-88940560D01*
X134327683Y-88984838D01*
X134111559Y-89123910D01*
X134057519Y-89203000D01*
X133319844Y-89203000D01*
X133277090Y-89136559D01*
X133064890Y-88991569D01*
X132813000Y-88940560D01*
X131563000Y-88940560D01*
X131327683Y-88984838D01*
X131111559Y-89123910D01*
X131057519Y-89203000D01*
X130319844Y-89203000D01*
X130277090Y-89136559D01*
X130064890Y-88991569D01*
X129813000Y-88940560D01*
X128563000Y-88940560D01*
X128327683Y-88984838D01*
X128111559Y-89123910D01*
X128023356Y-89253000D01*
X127123209Y-89253000D01*
X127069890Y-89216569D01*
X126818000Y-89165560D01*
X126362139Y-89165560D01*
X125890599Y-88694019D01*
X125890599Y-86736981D01*
X129263787Y-83363792D01*
X129263790Y-83363790D01*
X129455633Y-83076675D01*
X129482599Y-82941110D01*
X129523001Y-82738000D01*
X129523000Y-82737995D01*
X129523000Y-82579797D01*
X129584431Y-82489890D01*
X129635440Y-82238000D01*
X129635440Y-80938000D01*
X129591162Y-80702683D01*
X129523000Y-80596756D01*
X129523000Y-80252018D01*
X129639441Y-80177090D01*
X129784431Y-79964890D01*
X129835440Y-79713000D01*
X129835440Y-79413750D01*
X140671000Y-79413750D01*
X140671000Y-80016309D01*
X140767673Y-80249698D01*
X140946301Y-80428327D01*
X141179690Y-80525000D01*
X141782250Y-80525000D01*
X141941000Y-80366250D01*
X141941000Y-79255000D01*
X140829750Y-79255000D01*
X140671000Y-79413750D01*
X129835440Y-79413750D01*
X129835440Y-78463000D01*
X129791162Y-78227683D01*
X129652090Y-78011559D01*
X129439890Y-77866569D01*
X129302880Y-77838824D01*
X129423317Y-77816162D01*
X129639441Y-77677090D01*
X129778890Y-77473000D01*
X134457995Y-77473000D01*
X134458000Y-77473001D01*
X134748961Y-77415124D01*
X134796675Y-77405633D01*
X135083790Y-77213790D01*
X136787733Y-75509846D01*
X137011212Y-75417507D01*
X137286540Y-75142659D01*
X137416070Y-74830716D01*
X137505633Y-74696675D01*
X137552253Y-74462303D01*
X137558317Y-74461162D01*
X137679900Y-74382926D01*
X137693301Y-74396327D01*
X137926690Y-74493000D01*
X138402250Y-74493000D01*
X138561000Y-74334250D01*
X138561000Y-72715000D01*
X138541000Y-72715000D01*
X138541000Y-72461000D01*
X138561000Y-72461000D01*
X138561000Y-70841750D01*
X138402250Y-70683000D01*
X137926690Y-70683000D01*
X137693301Y-70779673D01*
X137679754Y-70793220D01*
X137574890Y-70721569D01*
X137573000Y-70721186D01*
X137573000Y-63838005D01*
X137573001Y-63838000D01*
X137505633Y-63499325D01*
X137313790Y-63212210D01*
X137313787Y-63212208D01*
X128461763Y-54360183D01*
X128462264Y-53786188D01*
X128419049Y-53681599D01*
X159742153Y-53681599D01*
X161143941Y-55083387D01*
G36*
X154801731Y-92695500D02*
X154641487Y-92855464D01*
X154492297Y-93214753D01*
X154491958Y-93603786D01*
X154640520Y-93963335D01*
X154735027Y-94058007D01*
X154735027Y-95928023D01*
X154544734Y-96006650D01*
X154269406Y-96281498D01*
X154120216Y-96640787D01*
X154119898Y-97005935D01*
X153936559Y-97123910D01*
X153796701Y-97328599D01*
X153463230Y-97190130D01*
X153074197Y-97189791D01*
X152714648Y-97338353D01*
X152580101Y-97472665D01*
X152580101Y-91484076D01*
X152741212Y-91417507D01*
X153016540Y-91142659D01*
X153084713Y-90978481D01*
X154801731Y-92695500D01*
X154801731Y-92695500D01*
G37*
X154801731Y-92695500D02*
X154641487Y-92855464D01*
X154492297Y-93214753D01*
X154491958Y-93603786D01*
X154640520Y-93963335D01*
X154735027Y-94058007D01*
X154735027Y-95928023D01*
X154544734Y-96006650D01*
X154269406Y-96281498D01*
X154120216Y-96640787D01*
X154119898Y-97005935D01*
X153936559Y-97123910D01*
X153796701Y-97328599D01*
X153463230Y-97190130D01*
X153074197Y-97189791D01*
X152714648Y-97338353D01*
X152580101Y-97472665D01*
X152580101Y-91484076D01*
X152741212Y-91417507D01*
X153016540Y-91142659D01*
X153084713Y-90978481D01*
X154801731Y-92695500D01*
G36*
X163668277Y-93923116D02*
X163627131Y-93984696D01*
X163782408Y-93667001D01*
X163655502Y-93500000D01*
X162065000Y-93500000D01*
X162065000Y-93520000D01*
X161811000Y-93520000D01*
X161811000Y-93500000D01*
X161791000Y-93500000D01*
X161791000Y-93246000D01*
X161811000Y-93246000D01*
X161811000Y-93226000D01*
X162065000Y-93226000D01*
X162065000Y-93246000D01*
X163655502Y-93246000D01*
X163674805Y-93220599D01*
X164370793Y-93220599D01*
X163668277Y-93923116D01*
X163668277Y-93923116D01*
G37*
X163668277Y-93923116D02*
X163627131Y-93984696D01*
X163782408Y-93667001D01*
X163655502Y-93500000D01*
X162065000Y-93500000D01*
X162065000Y-93520000D01*
X161811000Y-93520000D01*
X161811000Y-93500000D01*
X161791000Y-93500000D01*
X161791000Y-93246000D01*
X161811000Y-93246000D01*
X161811000Y-93226000D01*
X162065000Y-93226000D01*
X162065000Y-93246000D01*
X163655502Y-93246000D01*
X163674805Y-93220599D01*
X164370793Y-93220599D01*
X163668277Y-93923116D01*
G36*
X118211750Y-89961000D02*
X119061000Y-89961000D01*
X119061000Y-89945599D01*
X119315000Y-89945599D01*
X119315000Y-89961000D01*
X119335000Y-89961000D01*
X119335000Y-90215000D01*
X119315000Y-90215000D01*
X119315000Y-91189250D01*
X119473750Y-91348000D01*
X119814309Y-91348000D01*
X120047698Y-91251327D01*
X120188936Y-91110090D01*
X120223910Y-91164441D01*
X120303000Y-91218481D01*
X120303000Y-92184778D01*
X120302683Y-92184838D01*
X120086559Y-92323910D01*
X119941569Y-92536110D01*
X119890560Y-92788000D01*
X119890560Y-93183860D01*
X119871420Y-93203000D01*
X119073000Y-93203000D01*
X119073000Y-93188005D01*
X119073001Y-93188000D01*
X119008743Y-92864960D01*
X119005633Y-92849325D01*
X118813790Y-92562210D01*
X118813787Y-92562208D01*
X116625330Y-90373750D01*
X118053000Y-90373750D01*
X118053000Y-90839310D01*
X118149673Y-91072699D01*
X118328302Y-91251327D01*
X118561691Y-91348000D01*
X118902250Y-91348000D01*
X119061000Y-91189250D01*
X119061000Y-90215000D01*
X118211750Y-90215000D01*
X118053000Y-90373750D01*
X116625330Y-90373750D01*
X116197179Y-89945599D01*
X118196349Y-89945599D01*
X118211750Y-89961000D01*
X118211750Y-89961000D01*
G37*
X118211750Y-89961000D02*
X119061000Y-89961000D01*
X119061000Y-89945599D01*
X119315000Y-89945599D01*
X119315000Y-89961000D01*
X119335000Y-89961000D01*
X119335000Y-90215000D01*
X119315000Y-90215000D01*
X119315000Y-91189250D01*
X119473750Y-91348000D01*
X119814309Y-91348000D01*
X120047698Y-91251327D01*
X120188936Y-91110090D01*
X120223910Y-91164441D01*
X120303000Y-91218481D01*
X120303000Y-92184778D01*
X120302683Y-92184838D01*
X120086559Y-92323910D01*
X119941569Y-92536110D01*
X119890560Y-92788000D01*
X119890560Y-93183860D01*
X119871420Y-93203000D01*
X119073000Y-93203000D01*
X119073000Y-93188005D01*
X119073001Y-93188000D01*
X119008743Y-92864960D01*
X119005633Y-92849325D01*
X118813790Y-92562210D01*
X118813787Y-92562208D01*
X116625330Y-90373750D01*
X118053000Y-90373750D01*
X118053000Y-90839310D01*
X118149673Y-91072699D01*
X118328302Y-91251327D01*
X118561691Y-91348000D01*
X118902250Y-91348000D01*
X119061000Y-91189250D01*
X119061000Y-90215000D01*
X118211750Y-90215000D01*
X118053000Y-90373750D01*
X116625330Y-90373750D01*
X116197179Y-89945599D01*
X118196349Y-89945599D01*
X118211750Y-89961000D01*
G36*
X123306110Y-91059431D02*
X123443120Y-91087176D01*
X123322683Y-91109838D01*
X123159257Y-91215000D01*
X123081750Y-91215000D01*
X122923000Y-91373750D01*
X122923000Y-91539310D01*
X122938268Y-91576171D01*
X122910560Y-91713000D01*
X122910560Y-92363000D01*
X122944291Y-92542263D01*
X122485440Y-93001113D01*
X122485440Y-92788000D01*
X122441162Y-92552683D01*
X122302090Y-92336559D01*
X122089890Y-92191569D01*
X122073000Y-92188149D01*
X122073000Y-91219844D01*
X122139441Y-91177090D01*
X122278890Y-90973000D01*
X123179614Y-90973000D01*
X123306110Y-91059431D01*
X123306110Y-91059431D01*
G37*
X123306110Y-91059431D02*
X123443120Y-91087176D01*
X123322683Y-91109838D01*
X123159257Y-91215000D01*
X123081750Y-91215000D01*
X122923000Y-91373750D01*
X122923000Y-91539310D01*
X122938268Y-91576171D01*
X122910560Y-91713000D01*
X122910560Y-92363000D01*
X122944291Y-92542263D01*
X122485440Y-93001113D01*
X122485440Y-92788000D01*
X122441162Y-92552683D01*
X122302090Y-92336559D01*
X122089890Y-92191569D01*
X122073000Y-92188149D01*
X122073000Y-91219844D01*
X122139441Y-91177090D01*
X122278890Y-90973000D01*
X123179614Y-90973000D01*
X123306110Y-91059431D01*
G36*
X125293910Y-90914441D02*
X125506110Y-91059431D01*
X125643120Y-91087176D01*
X125522683Y-91109838D01*
X125306559Y-91248910D01*
X125234144Y-91354894D01*
X125094250Y-91215000D01*
X125013949Y-91215000D01*
X124869890Y-91116569D01*
X124732880Y-91088824D01*
X124853317Y-91066162D01*
X125016743Y-90961000D01*
X125094250Y-90961000D01*
X125233965Y-90821285D01*
X125293910Y-90914441D01*
X125293910Y-90914441D01*
G37*
X125293910Y-90914441D02*
X125506110Y-91059431D01*
X125643120Y-91087176D01*
X125522683Y-91109838D01*
X125306559Y-91248910D01*
X125234144Y-91354894D01*
X125094250Y-91215000D01*
X125013949Y-91215000D01*
X124869890Y-91116569D01*
X124732880Y-91088824D01*
X124853317Y-91066162D01*
X125016743Y-90961000D01*
X125094250Y-90961000D01*
X125233965Y-90821285D01*
X125293910Y-90914441D01*
G36*
X149723277Y-82742724D02*
X149929163Y-82880292D01*
X149961728Y-82902051D01*
X150243000Y-82958000D01*
X154648021Y-82958000D01*
X154603000Y-83066690D01*
X154603000Y-83207250D01*
X154761750Y-83366000D01*
X155861000Y-83366000D01*
X155861000Y-83346000D01*
X156115000Y-83346000D01*
X156115000Y-83366000D01*
X156135000Y-83366000D01*
X156135000Y-83620000D01*
X156115000Y-83620000D01*
X156115000Y-83640000D01*
X155861000Y-83640000D01*
X155861000Y-83620000D01*
X154761750Y-83620000D01*
X154603000Y-83778750D01*
X154603000Y-83919310D01*
X154692806Y-84136122D01*
X154641569Y-84211110D01*
X154590560Y-84463000D01*
X154590560Y-85063000D01*
X154634838Y-85298317D01*
X154698678Y-85397528D01*
X154641569Y-85481110D01*
X154590560Y-85733000D01*
X154590560Y-86333000D01*
X154634838Y-86568317D01*
X154773910Y-86784441D01*
X154986110Y-86929431D01*
X155210198Y-86974810D01*
X155209931Y-87281663D01*
X155358493Y-87641212D01*
X155633341Y-87916540D01*
X155992630Y-88065730D01*
X156381663Y-88066069D01*
X156741212Y-87917507D01*
X157016540Y-87642659D01*
X157165730Y-87283370D01*
X157166069Y-86894337D01*
X157139236Y-86829396D01*
X157189441Y-86797090D01*
X157334431Y-86584890D01*
X157362152Y-86448000D01*
X157603192Y-86448000D01*
X157438512Y-86612393D01*
X157289322Y-86971682D01*
X157288983Y-87360715D01*
X157437545Y-87720264D01*
X157532052Y-87814936D01*
X157532052Y-88667052D01*
X157586457Y-88940560D01*
X157588001Y-88948324D01*
X157747329Y-89186775D01*
X157913554Y-89353000D01*
X155992447Y-89353000D01*
X149399220Y-82759774D01*
X149516540Y-82642659D01*
X149547838Y-82567285D01*
X149723277Y-82742724D01*
X149723277Y-82742724D01*
G37*
X149723277Y-82742724D02*
X149929163Y-82880292D01*
X149961728Y-82902051D01*
X150243000Y-82958000D01*
X154648021Y-82958000D01*
X154603000Y-83066690D01*
X154603000Y-83207250D01*
X154761750Y-83366000D01*
X155861000Y-83366000D01*
X155861000Y-83346000D01*
X156115000Y-83346000D01*
X156115000Y-83366000D01*
X156135000Y-83366000D01*
X156135000Y-83620000D01*
X156115000Y-83620000D01*
X156115000Y-83640000D01*
X155861000Y-83640000D01*
X155861000Y-83620000D01*
X154761750Y-83620000D01*
X154603000Y-83778750D01*
X154603000Y-83919310D01*
X154692806Y-84136122D01*
X154641569Y-84211110D01*
X154590560Y-84463000D01*
X154590560Y-85063000D01*
X154634838Y-85298317D01*
X154698678Y-85397528D01*
X154641569Y-85481110D01*
X154590560Y-85733000D01*
X154590560Y-86333000D01*
X154634838Y-86568317D01*
X154773910Y-86784441D01*
X154986110Y-86929431D01*
X155210198Y-86974810D01*
X155209931Y-87281663D01*
X155358493Y-87641212D01*
X155633341Y-87916540D01*
X155992630Y-88065730D01*
X156381663Y-88066069D01*
X156741212Y-87917507D01*
X157016540Y-87642659D01*
X157165730Y-87283370D01*
X157166069Y-86894337D01*
X157139236Y-86829396D01*
X157189441Y-86797090D01*
X157334431Y-86584890D01*
X157362152Y-86448000D01*
X157603192Y-86448000D01*
X157438512Y-86612393D01*
X157289322Y-86971682D01*
X157288983Y-87360715D01*
X157437545Y-87720264D01*
X157532052Y-87814936D01*
X157532052Y-88667052D01*
X157586457Y-88940560D01*
X157588001Y-88948324D01*
X157747329Y-89186775D01*
X157913554Y-89353000D01*
X155992447Y-89353000D01*
X149399220Y-82759774D01*
X149516540Y-82642659D01*
X149547838Y-82567285D01*
X149723277Y-82742724D01*
G36*
X126815000Y-78961000D02*
X126835000Y-78961000D01*
X126835000Y-79215000D01*
X126815000Y-79215000D01*
X126815000Y-79235000D01*
X126561000Y-79235000D01*
X126561000Y-79215000D01*
X126541000Y-79215000D01*
X126541000Y-78961000D01*
X126561000Y-78961000D01*
X126561000Y-78941000D01*
X126815000Y-78941000D01*
X126815000Y-78961000D01*
X126815000Y-78961000D01*
G37*
X126815000Y-78961000D02*
X126835000Y-78961000D01*
X126835000Y-79215000D01*
X126815000Y-79215000D01*
X126815000Y-79235000D01*
X126561000Y-79235000D01*
X126561000Y-79215000D01*
X126541000Y-79215000D01*
X126541000Y-78961000D01*
X126561000Y-78961000D01*
X126561000Y-78941000D01*
X126815000Y-78941000D01*
X126815000Y-78961000D01*
G36*
X155492630Y-75565730D02*
X155626400Y-75565847D01*
X156271152Y-76210598D01*
X156115000Y-76366750D01*
X156115000Y-77016000D01*
X156135000Y-77016000D01*
X156135000Y-77270000D01*
X156115000Y-77270000D01*
X156115000Y-77290000D01*
X155861000Y-77290000D01*
X155861000Y-77270000D01*
X155841000Y-77270000D01*
X155841000Y-77016000D01*
X155861000Y-77016000D01*
X155861000Y-76366750D01*
X155702250Y-76208000D01*
X155423000Y-76208000D01*
X155423000Y-75536817D01*
X155492630Y-75565730D01*
X155492630Y-75565730D01*
G37*
X155492630Y-75565730D02*
X155626400Y-75565847D01*
X156271152Y-76210598D01*
X156115000Y-76366750D01*
X156115000Y-77016000D01*
X156135000Y-77016000D01*
X156135000Y-77270000D01*
X156115000Y-77270000D01*
X156115000Y-77290000D01*
X155861000Y-77290000D01*
X155861000Y-77270000D01*
X155841000Y-77270000D01*
X155841000Y-77016000D01*
X155861000Y-77016000D01*
X155861000Y-76366750D01*
X155702250Y-76208000D01*
X155423000Y-76208000D01*
X155423000Y-75536817D01*
X155492630Y-75565730D01*
G36*
X159801110Y-74454431D02*
X160053000Y-74505440D01*
X161323000Y-74505440D01*
X161558317Y-74461162D01*
X161574885Y-74450501D01*
X161688000Y-74473001D01*
X161688005Y-74473000D01*
X162269312Y-74473000D01*
X162445425Y-74546129D01*
X160868277Y-76123277D01*
X160819979Y-76195560D01*
X160638000Y-76195560D01*
X160402683Y-76239838D01*
X160186559Y-76378910D01*
X160069997Y-76549503D01*
X159641360Y-76120866D01*
X159402909Y-75961538D01*
X159400204Y-75961000D01*
X159121637Y-75905589D01*
X159114980Y-75905589D01*
X159165730Y-75783370D01*
X159166069Y-75394337D01*
X159039365Y-75087689D01*
X159165730Y-74783370D01*
X159165847Y-74649600D01*
X159207724Y-74607723D01*
X159276067Y-74505440D01*
X159323000Y-74505440D01*
X159558317Y-74461162D01*
X159688427Y-74377438D01*
X159801110Y-74454431D01*
X159801110Y-74454431D01*
G37*
X159801110Y-74454431D02*
X160053000Y-74505440D01*
X161323000Y-74505440D01*
X161558317Y-74461162D01*
X161574885Y-74450501D01*
X161688000Y-74473001D01*
X161688005Y-74473000D01*
X162269312Y-74473000D01*
X162445425Y-74546129D01*
X160868277Y-76123277D01*
X160819979Y-76195560D01*
X160638000Y-76195560D01*
X160402683Y-76239838D01*
X160186559Y-76378910D01*
X160069997Y-76549503D01*
X159641360Y-76120866D01*
X159402909Y-75961538D01*
X159400204Y-75961000D01*
X159121637Y-75905589D01*
X159114980Y-75905589D01*
X159165730Y-75783370D01*
X159166069Y-75394337D01*
X159039365Y-75087689D01*
X159165730Y-74783370D01*
X159165847Y-74649600D01*
X159207724Y-74607723D01*
X159276067Y-74505440D01*
X159323000Y-74505440D01*
X159558317Y-74461162D01*
X159688427Y-74377438D01*
X159801110Y-74454431D01*
G36*
X171315000Y-75961000D02*
X171335000Y-75961000D01*
X171335000Y-76215000D01*
X171315000Y-76215000D01*
X171315000Y-76230401D01*
X171165776Y-76230401D01*
X171166024Y-75945599D01*
X171315000Y-75945599D01*
X171315000Y-75961000D01*
X171315000Y-75961000D01*
G37*
X171315000Y-75961000D02*
X171335000Y-75961000D01*
X171335000Y-76215000D01*
X171315000Y-76215000D01*
X171315000Y-76230401D01*
X171165776Y-76230401D01*
X171166024Y-75945599D01*
X171315000Y-75945599D01*
X171315000Y-75961000D01*
G36*
X178823000Y-73463554D02*
X178823000Y-72998750D01*
X178664250Y-72840000D01*
X177315000Y-72840000D01*
X177315000Y-73914250D01*
X177473750Y-74073000D01*
X178213554Y-74073000D01*
X176078734Y-76207820D01*
X174229574Y-76207820D01*
X176364395Y-74073000D01*
X176902250Y-74073000D01*
X177061000Y-73914250D01*
X177061000Y-72840000D01*
X177041000Y-72840000D01*
X177041000Y-72586000D01*
X177061000Y-72586000D01*
X177061000Y-72566000D01*
X177315000Y-72566000D01*
X177315000Y-72586000D01*
X178664250Y-72586000D01*
X178779651Y-72470599D01*
X179631955Y-72470599D01*
X179861643Y-72424911D01*
X178823000Y-73463554D01*
X178823000Y-73463554D01*
G37*
X178823000Y-73463554D02*
X178823000Y-72998750D01*
X178664250Y-72840000D01*
X177315000Y-72840000D01*
X177315000Y-73914250D01*
X177473750Y-74073000D01*
X178213554Y-74073000D01*
X176078734Y-76207820D01*
X174229574Y-76207820D01*
X176364395Y-74073000D01*
X176902250Y-74073000D01*
X177061000Y-73914250D01*
X177061000Y-72840000D01*
X177041000Y-72840000D01*
X177041000Y-72586000D01*
X177061000Y-72586000D01*
X177061000Y-72566000D01*
X177315000Y-72566000D01*
X177315000Y-72586000D01*
X178664250Y-72586000D01*
X178779651Y-72470599D01*
X179631955Y-72470599D01*
X179861643Y-72424911D01*
X178823000Y-73463554D01*
G36*
X172783154Y-72902310D02*
X172623826Y-73140761D01*
X172567877Y-73422033D01*
X172567877Y-73569298D01*
X172406775Y-73730401D01*
X172179651Y-73730401D01*
X172164250Y-73715000D01*
X171315000Y-73715000D01*
X171315000Y-73730401D01*
X171165776Y-73730401D01*
X171166024Y-73445599D01*
X171315000Y-73445599D01*
X171315000Y-73461000D01*
X172164250Y-73461000D01*
X172323000Y-73302250D01*
X172323000Y-73130976D01*
X174040611Y-71413366D01*
X174272097Y-71413366D01*
X172783154Y-72902310D01*
X172783154Y-72902310D01*
G37*
X172783154Y-72902310D02*
X172623826Y-73140761D01*
X172567877Y-73422033D01*
X172567877Y-73569298D01*
X172406775Y-73730401D01*
X172179651Y-73730401D01*
X172164250Y-73715000D01*
X171315000Y-73715000D01*
X171315000Y-73730401D01*
X171165776Y-73730401D01*
X171166024Y-73445599D01*
X171315000Y-73445599D01*
X171315000Y-73461000D01*
X172164250Y-73461000D01*
X172323000Y-73302250D01*
X172323000Y-73130976D01*
X174040611Y-71413366D01*
X174272097Y-71413366D01*
X172783154Y-72902310D01*
M02*
