%TF.GenerationSoftware,KiCad,Pcbnew,4.0.7-e2-6376~61~ubuntu18.04.1*%
%TF.CreationDate,2018-06-03T07:13:52+02:00*%
%TF.ProjectId,esp32_radio,65737033325F726164696F2E6B696361,V0.1*%
%TF.FileFunction,Soldermask,Top*%
%FSLAX46Y46*%
G04 Gerber Fmt 4.6, Leading zero omitted, Abs format (unit mm)*
G04 Created by KiCad (PCBNEW 4.0.7-e2-6376~61~ubuntu18.04.1) date Sun Jun  3 07:13:52 2018*
%MOMM*%
%LPD*%
G01*
G04 APERTURE LIST*
%ADD10C,0.100000*%
%ADD11C,0.150000*%
%ADD12C,1.701600*%
%ADD13C,2.301600*%
%ADD14R,1.351600X1.101600*%
%ADD15R,2.101600X1.551600*%
%ADD16R,1.601600X0.901600*%
%ADD17R,0.951600X0.401600*%
%ADD18R,0.401600X0.951600*%
%ADD19R,1.401600X1.401600*%
%ADD20C,0.251600*%
%ADD21O,0.401600X0.851600*%
%ADD22O,0.851600X0.401600*%
%ADD23R,1.001600X1.001600*%
%ADD24R,2.101600X2.101600*%
%ADD25C,2.101600*%
%ADD26R,1.101600X1.351600*%
%ADD27R,1.301600X1.001600*%
%ADD28R,1.301600X1.301600*%
%ADD29R,1.625600X4.165600*%
%ADD30R,1.071600X1.371600*%
%ADD31R,1.801600X1.801600*%
%ADD32O,1.801600X1.801600*%
%ADD33R,1.401600X0.801600*%
%ADD34R,1.001600X0.901600*%
%ADD35R,0.801600X1.401600*%
%ADD36R,1.161600X0.751600*%
%ADD37R,1.321600X0.751600*%
%ADD38R,0.701600X1.601600*%
%ADD39C,1.879600*%
%ADD40C,2.641600*%
%ADD41R,0.551600X1.601600*%
%ADD42O,2.601600X1.001600*%
%ADD43O,1.001600X2.601600*%
%ADD44R,6.101600X6.101600*%
%ADD45R,1.201600X1.901600*%
%ADD46R,1.371600X2.641600*%
%ADD47R,1.301600X1.801600*%
%ADD48O,1.301600X1.801600*%
%ADD49R,1.625600X1.625600*%
%ADD50C,1.625600*%
%ADD51R,0.551600X1.401600*%
%ADD52C,1.901600*%
%ADD53C,0.901600*%
G04 APERTURE END LIST*
D10*
D11*
X107188000Y-109088000D02*
G75*
G03X112188000Y-114088000I5000000J0D01*
G01*
X182188000Y-114088000D02*
G75*
G03X187188000Y-109088000I0J5000000D01*
G01*
X187188000Y-44088000D02*
G75*
G03X182188000Y-39088000I-5000000J0D01*
G01*
X112188000Y-39088000D02*
G75*
G03X107188000Y-44088000I0J-5000000D01*
G01*
X182188000Y-39088000D02*
X112188000Y-39088000D01*
X187188000Y-109088000D02*
X187188000Y-44088000D01*
X112188000Y-114088000D02*
X182188000Y-114088000D01*
X107188000Y-44088000D02*
X107188000Y-109088000D01*
D12*
X152688000Y-98658000D03*
X154688000Y-100588000D03*
X150688000Y-100588000D03*
X154688000Y-96588000D03*
X123188000Y-77838000D03*
X128188000Y-97588000D03*
D13*
X165188000Y-42088000D03*
X129188000Y-42088000D03*
X111188000Y-110088000D03*
D14*
X121438000Y-96838000D03*
X121438000Y-94838000D03*
D15*
X185188000Y-96863000D03*
X185188000Y-83113000D03*
X176888000Y-83113000D03*
X176888000Y-96863000D03*
D16*
X182588000Y-94488000D03*
X182588000Y-93388000D03*
X182588000Y-92288000D03*
X182588000Y-91188000D03*
X182588000Y-90088000D03*
X182588000Y-88988000D03*
X182588000Y-87888000D03*
X182588000Y-86788000D03*
D17*
X126238000Y-96438000D03*
X126238000Y-96938000D03*
X126238000Y-97438000D03*
X126238000Y-97938000D03*
X126238000Y-98438000D03*
X126238000Y-98938000D03*
D18*
X126938000Y-99638000D03*
X127438000Y-99638000D03*
X127938000Y-99638000D03*
X128438000Y-99638000D03*
X128938000Y-99638000D03*
X129438000Y-99638000D03*
D17*
X130138000Y-98938000D03*
X130138000Y-98438000D03*
X130138000Y-97938000D03*
X130138000Y-97438000D03*
X130138000Y-96938000D03*
X130138000Y-96438000D03*
D18*
X129438000Y-95738000D03*
X128938000Y-95738000D03*
X128438000Y-95738000D03*
X127938000Y-95738000D03*
X127438000Y-95738000D03*
X126938000Y-95738000D03*
D19*
X128838000Y-98338000D03*
X128838000Y-97038000D03*
X127538000Y-98338000D03*
X127538000Y-97038000D03*
D20*
X148438000Y-44088000D03*
X145938000Y-44088000D03*
X148438000Y-44838000D03*
X145938000Y-44838000D03*
D21*
X122463000Y-79313000D03*
X122963000Y-79313000D03*
X123463000Y-79313000D03*
X123963000Y-79313000D03*
D22*
X124688000Y-78588000D03*
X124688000Y-78088000D03*
X124688000Y-77588000D03*
X124688000Y-77088000D03*
D21*
X123963000Y-76363000D03*
X123463000Y-76363000D03*
X122963000Y-76363000D03*
X122463000Y-76363000D03*
D22*
X121738000Y-77088000D03*
X121738000Y-77588000D03*
X121738000Y-78088000D03*
X121738000Y-78588000D03*
D23*
X123663000Y-77388000D03*
X122763000Y-77388000D03*
X123663000Y-78288000D03*
X122763000Y-78288000D03*
D24*
X111188000Y-80088000D03*
D25*
X111188000Y-72488000D03*
D26*
X114688000Y-96588000D03*
X112688000Y-96588000D03*
D14*
X119188000Y-96838000D03*
X119188000Y-94838000D03*
X123538000Y-96838000D03*
X123538000Y-94838000D03*
D26*
X117188000Y-105088000D03*
X115188000Y-105088000D03*
X128688000Y-79088000D03*
X126688000Y-79088000D03*
D14*
X128188000Y-72088000D03*
X128188000Y-74088000D03*
D26*
X128688000Y-76588000D03*
X126688000Y-76588000D03*
D14*
X120688000Y-72088000D03*
X120688000Y-74088000D03*
X174888000Y-101538000D03*
X174888000Y-99538000D03*
X177388000Y-101538000D03*
X177388000Y-99538000D03*
D26*
X167138000Y-111238000D03*
X169138000Y-111238000D03*
D27*
X110438000Y-97688000D03*
X110438000Y-100988000D03*
D28*
X111588000Y-102838000D03*
X113788000Y-102838000D03*
D29*
X147188000Y-41588000D03*
X149728000Y-41588000D03*
X144648000Y-41588000D03*
D30*
X116188000Y-85088000D03*
X117468000Y-85088000D03*
D31*
X184188000Y-68088000D03*
D32*
X184188000Y-65548000D03*
X181648000Y-68088000D03*
X181648000Y-65548000D03*
X179108000Y-68088000D03*
X179108000Y-65548000D03*
X176568000Y-68088000D03*
X176568000Y-65548000D03*
D33*
X123188000Y-72138000D03*
X123188000Y-74038000D03*
X125688000Y-72138000D03*
X125688000Y-74038000D03*
D31*
X123688000Y-66088000D03*
D32*
X126228000Y-66088000D03*
D34*
X112688000Y-98888000D03*
X112688000Y-100788000D03*
X114688000Y-99838000D03*
X132438000Y-99738000D03*
X132438000Y-101638000D03*
X134438000Y-100688000D03*
X132438000Y-95988000D03*
X132438000Y-97888000D03*
X134438000Y-96938000D03*
X116688000Y-69038000D03*
X116688000Y-67138000D03*
X114688000Y-68088000D03*
D35*
X111238000Y-105088000D03*
X113138000Y-105088000D03*
D33*
X116688000Y-98888000D03*
X116688000Y-100788000D03*
D35*
X117688000Y-102838000D03*
X115788000Y-102838000D03*
X134388000Y-93938000D03*
X132488000Y-93938000D03*
X134388000Y-91688000D03*
X132488000Y-91688000D03*
D33*
X123438000Y-98888000D03*
X123438000Y-100788000D03*
X166338000Y-92038000D03*
X166338000Y-93938000D03*
X112188000Y-84138000D03*
X112188000Y-86038000D03*
D35*
X126738000Y-81588000D03*
X128638000Y-81588000D03*
D33*
X179888000Y-101488000D03*
X179888000Y-99588000D03*
X182370000Y-99588000D03*
X182370000Y-101488000D03*
X184888000Y-99588000D03*
X184888000Y-101488000D03*
D36*
X118838000Y-98888000D03*
X118838000Y-99838000D03*
X118838000Y-100788000D03*
X121038000Y-100788000D03*
X121038000Y-98888000D03*
D37*
X119628000Y-102638000D03*
X119628000Y-103588000D03*
X119628000Y-104538000D03*
X122248000Y-104538000D03*
X122248000Y-102638000D03*
D38*
X185033000Y-72038000D03*
X183763000Y-72038000D03*
X182493000Y-72038000D03*
X181223000Y-72038000D03*
X179953000Y-72038000D03*
X178683000Y-72038000D03*
X177413000Y-72038000D03*
X176143000Y-72038000D03*
X176143000Y-77438000D03*
X177413000Y-77438000D03*
X178683000Y-77438000D03*
X179953000Y-77438000D03*
X181223000Y-77438000D03*
X182493000Y-77438000D03*
X183763000Y-77438000D03*
X185033000Y-77438000D03*
D39*
X179688000Y-61338000D03*
X177188000Y-61338000D03*
X174688000Y-61338000D03*
D40*
X183838000Y-43838000D03*
X183838000Y-59338000D03*
X170538000Y-59338000D03*
X170538000Y-43838000D03*
D39*
X167438000Y-49088000D03*
X167438000Y-51608076D03*
X167438000Y-54088000D03*
X114688000Y-41838000D03*
X117188000Y-41838000D03*
X119688000Y-41838000D03*
D40*
X110538000Y-59338000D03*
X110538000Y-43838000D03*
X123838000Y-43838000D03*
X123838000Y-59338000D03*
D39*
X126938000Y-54088000D03*
X126938000Y-51567924D03*
X126938000Y-49088000D03*
D26*
X126938000Y-101438000D03*
X128938000Y-101438000D03*
D41*
X170838000Y-102738000D03*
X170188000Y-102738000D03*
X169538000Y-102738000D03*
X168888000Y-102738000D03*
X168238000Y-102738000D03*
X167588000Y-102738000D03*
X166938000Y-102738000D03*
X166288000Y-102738000D03*
X166288000Y-108638000D03*
X166938000Y-108638000D03*
X167588000Y-108638000D03*
X168238000Y-108638000D03*
X168888000Y-108638000D03*
X169538000Y-108638000D03*
X170188000Y-108638000D03*
X170838000Y-108638000D03*
D42*
X143388000Y-106358000D03*
X143388000Y-105088000D03*
X143388000Y-103818000D03*
X143388000Y-102548000D03*
X143388000Y-101278000D03*
X143388000Y-100008000D03*
X143388000Y-98738000D03*
X143388000Y-97468000D03*
X143388000Y-96198000D03*
X143388000Y-94928000D03*
X143388000Y-93658000D03*
X143388000Y-92388000D03*
X143388000Y-91118000D03*
D43*
X146673000Y-88358000D03*
X147943000Y-88358000D03*
X149213000Y-88358000D03*
X150483000Y-88358000D03*
X151753000Y-88358000D03*
X153023000Y-88358000D03*
X154293000Y-88358000D03*
X155563000Y-88358000D03*
X156833000Y-88358000D03*
X158103000Y-88358000D03*
D42*
X161388000Y-89848000D03*
X161388000Y-91118000D03*
X161388000Y-92388000D03*
X161388000Y-93658000D03*
X161388000Y-94928000D03*
X161388000Y-96198000D03*
X161388000Y-97468000D03*
X161388000Y-98738000D03*
X161388000Y-100008000D03*
X161388000Y-101278000D03*
X161388000Y-102548000D03*
X161388000Y-103818000D03*
X161388000Y-105088000D03*
X161388000Y-106358000D03*
D44*
X152688000Y-98658000D03*
D42*
X143388000Y-89848000D03*
X143498000Y-88578000D03*
X143498000Y-87308000D03*
X143498000Y-86038000D03*
X143498000Y-84768000D03*
X143498000Y-83498000D03*
X161388000Y-88578000D03*
X161388000Y-87308000D03*
X161388000Y-86038000D03*
X161388000Y-84768000D03*
X161278000Y-83498000D03*
D14*
X165188000Y-100088000D03*
X165188000Y-98088000D03*
D26*
X173498000Y-103632000D03*
X175498000Y-103632000D03*
X173498000Y-105918000D03*
X175498000Y-105918000D03*
D35*
X137688000Y-102488000D03*
X139588000Y-102488000D03*
D45*
X139088000Y-105438000D03*
X139088000Y-111638000D03*
X135388000Y-105438000D03*
X135388000Y-111638000D03*
D31*
X140988000Y-67588000D03*
D32*
X140988000Y-65048000D03*
X143528000Y-67588000D03*
X143528000Y-65048000D03*
X146068000Y-67588000D03*
X146068000Y-65048000D03*
X148608000Y-67588000D03*
X148608000Y-65048000D03*
X151148000Y-67588000D03*
X151148000Y-65048000D03*
X153688000Y-67588000D03*
X153688000Y-65048000D03*
D46*
X136688000Y-72588000D03*
X138688000Y-72588000D03*
X140688000Y-72588000D03*
X142688000Y-72588000D03*
X144688000Y-72588000D03*
X146688000Y-72588000D03*
X148688000Y-72588000D03*
X150688000Y-72588000D03*
X152688000Y-72588000D03*
X154688000Y-72588000D03*
X156688000Y-72588000D03*
X158688000Y-72588000D03*
X158688000Y-46588000D03*
X138688000Y-46588000D03*
X156688000Y-46588000D03*
X136688000Y-46588000D03*
X145188000Y-46588000D03*
X147188000Y-46588000D03*
X149188000Y-46588000D03*
X160688000Y-72588000D03*
D47*
X127188000Y-107838000D03*
D48*
X129188000Y-107838000D03*
D49*
X142068000Y-79128000D03*
D50*
X142068000Y-76588000D03*
X144608000Y-79128000D03*
X144608000Y-76588000D03*
X147148000Y-79128000D03*
X147148000Y-76588000D03*
X149688000Y-79128000D03*
X149688000Y-76588000D03*
D13*
X183188000Y-110088000D03*
D12*
X150688000Y-96588000D03*
D51*
X116638000Y-108438000D03*
X117288000Y-108438000D03*
X117938000Y-108438000D03*
X118588000Y-108438000D03*
X119238000Y-108438000D03*
D25*
X114213000Y-108488000D03*
X121663000Y-108488000D03*
D52*
X114063000Y-112288000D03*
X121813000Y-112288000D03*
D53*
X115438000Y-109538000D03*
X120438000Y-109538000D03*
D35*
X168082000Y-88392000D03*
X166182000Y-88392000D03*
X172908000Y-110998000D03*
X171008000Y-110998000D03*
D33*
X179832000Y-105344000D03*
X179832000Y-103444000D03*
X168656000Y-77536000D03*
X168656000Y-79436000D03*
X166624000Y-77536000D03*
X166624000Y-79436000D03*
X164338000Y-77536000D03*
X164338000Y-79436000D03*
X162052000Y-77536000D03*
X162052000Y-79436000D03*
X159766000Y-77536000D03*
X159766000Y-79436000D03*
M02*
