G04 #@! TF.FileFunction,Legend,Top*
%FSLAX46Y46*%
G04 Gerber Fmt 4.6, Leading zero omitted, Abs format (unit mm)*
G04 Created by KiCad (PCBNEW 4.0.7-e2-6376~60~ubuntu17.10.1) date Mon Apr 23 00:33:59 2018*
%MOMM*%
%LPD*%
G01*
G04 APERTURE LIST*
%ADD10C,0.100000*%
%ADD11C,0.200000*%
%ADD12C,0.150000*%
%ADD13C,0.120000*%
G04 APERTURE END LIST*
D10*
D11*
X155080859Y-71662857D02*
X155080859Y-71034286D01*
X155023716Y-70920000D01*
X154909430Y-70862857D01*
X154680859Y-70862857D01*
X154566573Y-70920000D01*
X155080859Y-71605714D02*
X154966573Y-71662857D01*
X154680859Y-71662857D01*
X154566573Y-71605714D01*
X154509430Y-71491429D01*
X154509430Y-71377143D01*
X154566573Y-71262857D01*
X154680859Y-71205714D01*
X154966573Y-71205714D01*
X155080859Y-71148571D01*
X155652287Y-70862857D02*
X155652287Y-71662857D01*
X155652287Y-70977143D02*
X155709430Y-70920000D01*
X155823716Y-70862857D01*
X155995144Y-70862857D01*
X156109430Y-70920000D01*
X156166573Y-71034286D01*
X156166573Y-71662857D01*
X156566573Y-70862857D02*
X157023716Y-70862857D01*
X156738001Y-70462857D02*
X156738001Y-71491429D01*
X156795144Y-71605714D01*
X156909430Y-71662857D01*
X157023716Y-71662857D01*
X157595144Y-71662857D02*
X157480858Y-71605714D01*
X157423715Y-71548571D01*
X157366572Y-71434286D01*
X157366572Y-71091429D01*
X157423715Y-70977143D01*
X157480858Y-70920000D01*
X157595144Y-70862857D01*
X157766572Y-70862857D01*
X157880858Y-70920000D01*
X157938001Y-70977143D01*
X157995144Y-71091429D01*
X157995144Y-71434286D01*
X157938001Y-71548571D01*
X157880858Y-71605714D01*
X157766572Y-71662857D01*
X157595144Y-71662857D01*
X158509429Y-71662857D02*
X158509429Y-70862857D01*
X158509429Y-70462857D02*
X158452286Y-70520000D01*
X158509429Y-70577143D01*
X158566572Y-70520000D01*
X158509429Y-70462857D01*
X158509429Y-70577143D01*
X159080858Y-70862857D02*
X159080858Y-71662857D01*
X159080858Y-70977143D02*
X159138001Y-70920000D01*
X159252287Y-70862857D01*
X159423715Y-70862857D01*
X159538001Y-70920000D01*
X159595144Y-71034286D01*
X159595144Y-71662857D01*
X160623715Y-71605714D02*
X160509429Y-71662857D01*
X160280858Y-71662857D01*
X160166572Y-71605714D01*
X160109429Y-71491429D01*
X160109429Y-71034286D01*
X160166572Y-70920000D01*
X160280858Y-70862857D01*
X160509429Y-70862857D01*
X160623715Y-70920000D01*
X160680858Y-71034286D01*
X160680858Y-71148571D01*
X160109429Y-71262857D01*
X161938000Y-71091429D02*
X161880858Y-71034286D01*
X161766572Y-70977143D01*
X161652286Y-70977143D01*
X161538000Y-71034286D01*
X161480858Y-71091429D01*
X161423715Y-71205714D01*
X161423715Y-71320000D01*
X161480858Y-71434286D01*
X161538000Y-71491429D01*
X161652286Y-71548571D01*
X161766572Y-71548571D01*
X161880858Y-71491429D01*
X161938000Y-71434286D01*
X161938000Y-70977143D02*
X161938000Y-71434286D01*
X161995143Y-71491429D01*
X162052286Y-71491429D01*
X162166572Y-71434286D01*
X162223715Y-71320000D01*
X162223715Y-71034286D01*
X162109429Y-70862857D01*
X161938000Y-70748571D01*
X161709429Y-70691429D01*
X161480858Y-70748571D01*
X161309429Y-70862857D01*
X161195143Y-71034286D01*
X161138000Y-71262857D01*
X161195143Y-71491429D01*
X161309429Y-71662857D01*
X161480858Y-71777143D01*
X161709429Y-71834286D01*
X161938000Y-71777143D01*
X162109429Y-71662857D01*
X163252286Y-71662857D02*
X163252286Y-70462857D01*
X163252286Y-71605714D02*
X163138000Y-71662857D01*
X162909429Y-71662857D01*
X162795143Y-71605714D01*
X162738000Y-71548571D01*
X162680857Y-71434286D01*
X162680857Y-71091429D01*
X162738000Y-70977143D01*
X162795143Y-70920000D01*
X162909429Y-70862857D01*
X163138000Y-70862857D01*
X163252286Y-70920000D01*
X163995143Y-71662857D02*
X163880857Y-71605714D01*
X163823714Y-71548571D01*
X163766571Y-71434286D01*
X163766571Y-71091429D01*
X163823714Y-70977143D01*
X163880857Y-70920000D01*
X163995143Y-70862857D01*
X164166571Y-70862857D01*
X164280857Y-70920000D01*
X164338000Y-70977143D01*
X164395143Y-71091429D01*
X164395143Y-71434286D01*
X164338000Y-71548571D01*
X164280857Y-71605714D01*
X164166571Y-71662857D01*
X163995143Y-71662857D01*
X165423714Y-70862857D02*
X165423714Y-71662857D01*
X164909428Y-70862857D02*
X164909428Y-71491429D01*
X164966571Y-71605714D01*
X165080857Y-71662857D01*
X165252285Y-71662857D01*
X165366571Y-71605714D01*
X165423714Y-71548571D01*
X165937999Y-71605714D02*
X166052285Y-71662857D01*
X166280857Y-71662857D01*
X166395142Y-71605714D01*
X166452285Y-71491429D01*
X166452285Y-71434286D01*
X166395142Y-71320000D01*
X166280857Y-71262857D01*
X166109428Y-71262857D01*
X165995142Y-71205714D01*
X165937999Y-71091429D01*
X165937999Y-71034286D01*
X165995142Y-70920000D01*
X166109428Y-70862857D01*
X166280857Y-70862857D01*
X166395142Y-70920000D01*
X166909428Y-71605714D02*
X167023714Y-71662857D01*
X167252286Y-71662857D01*
X167366571Y-71605714D01*
X167423714Y-71491429D01*
X167423714Y-71434286D01*
X167366571Y-71320000D01*
X167252286Y-71262857D01*
X167080857Y-71262857D01*
X166966571Y-71205714D01*
X166909428Y-71091429D01*
X166909428Y-71034286D01*
X166966571Y-70920000D01*
X167080857Y-70862857D01*
X167252286Y-70862857D01*
X167366571Y-70920000D01*
X168452286Y-71662857D02*
X168452286Y-71034286D01*
X168395143Y-70920000D01*
X168280857Y-70862857D01*
X168052286Y-70862857D01*
X167938000Y-70920000D01*
X168452286Y-71605714D02*
X168338000Y-71662857D01*
X168052286Y-71662857D01*
X167938000Y-71605714D01*
X167880857Y-71491429D01*
X167880857Y-71377143D01*
X167938000Y-71262857D01*
X168052286Y-71205714D01*
X168338000Y-71205714D01*
X168452286Y-71148571D01*
X169538000Y-70862857D02*
X169538000Y-71662857D01*
X169023714Y-70862857D02*
X169023714Y-71491429D01*
X169080857Y-71605714D01*
X169195143Y-71662857D01*
X169366571Y-71662857D01*
X169480857Y-71605714D01*
X169538000Y-71548571D01*
X170623714Y-71662857D02*
X170623714Y-70462857D01*
X170623714Y-71605714D02*
X170509428Y-71662857D01*
X170280857Y-71662857D01*
X170166571Y-71605714D01*
X170109428Y-71548571D01*
X170052285Y-71434286D01*
X170052285Y-71091429D01*
X170109428Y-70977143D01*
X170166571Y-70920000D01*
X170280857Y-70862857D01*
X170509428Y-70862857D01*
X170623714Y-70920000D01*
X171195142Y-71548571D02*
X171252285Y-71605714D01*
X171195142Y-71662857D01*
X171137999Y-71605714D01*
X171195142Y-71548571D01*
X171195142Y-71662857D01*
X171938000Y-71662857D02*
X171823714Y-71605714D01*
X171766571Y-71548571D01*
X171709428Y-71434286D01*
X171709428Y-71091429D01*
X171766571Y-70977143D01*
X171823714Y-70920000D01*
X171938000Y-70862857D01*
X172109428Y-70862857D01*
X172223714Y-70920000D01*
X172280857Y-70977143D01*
X172338000Y-71091429D01*
X172338000Y-71434286D01*
X172280857Y-71548571D01*
X172223714Y-71605714D01*
X172109428Y-71662857D01*
X171938000Y-71662857D01*
X172852285Y-71662857D02*
X172852285Y-70862857D01*
X172852285Y-71091429D02*
X172909428Y-70977143D01*
X172966571Y-70920000D01*
X173080857Y-70862857D01*
X173195142Y-70862857D01*
X174109428Y-70862857D02*
X174109428Y-71834286D01*
X174052285Y-71948571D01*
X173995142Y-72005714D01*
X173880857Y-72062857D01*
X173709428Y-72062857D01*
X173595142Y-72005714D01*
X174109428Y-71605714D02*
X173995142Y-71662857D01*
X173766571Y-71662857D01*
X173652285Y-71605714D01*
X173595142Y-71548571D01*
X173537999Y-71434286D01*
X173537999Y-71091429D01*
X173595142Y-70977143D01*
X173652285Y-70920000D01*
X173766571Y-70862857D01*
X173995142Y-70862857D01*
X174109428Y-70920000D01*
X156690476Y-61854762D02*
X156833333Y-61902381D01*
X157071429Y-61902381D01*
X157166667Y-61854762D01*
X157214286Y-61807143D01*
X157261905Y-61711905D01*
X157261905Y-61616667D01*
X157214286Y-61521429D01*
X157166667Y-61473810D01*
X157071429Y-61426190D01*
X156880952Y-61378571D01*
X156785714Y-61330952D01*
X156738095Y-61283333D01*
X156690476Y-61188095D01*
X156690476Y-61092857D01*
X156738095Y-60997619D01*
X156785714Y-60950000D01*
X156880952Y-60902381D01*
X157119048Y-60902381D01*
X157261905Y-60950000D01*
X157690476Y-61235714D02*
X157690476Y-62235714D01*
X157690476Y-61283333D02*
X157785714Y-61235714D01*
X157976191Y-61235714D01*
X158071429Y-61283333D01*
X158119048Y-61330952D01*
X158166667Y-61426190D01*
X158166667Y-61711905D01*
X158119048Y-61807143D01*
X158071429Y-61854762D01*
X157976191Y-61902381D01*
X157785714Y-61902381D01*
X157690476Y-61854762D01*
X158976191Y-61854762D02*
X158880953Y-61902381D01*
X158690476Y-61902381D01*
X158595238Y-61854762D01*
X158547619Y-61759524D01*
X158547619Y-61378571D01*
X158595238Y-61283333D01*
X158690476Y-61235714D01*
X158880953Y-61235714D01*
X158976191Y-61283333D01*
X159023810Y-61378571D01*
X159023810Y-61473810D01*
X158547619Y-61569048D01*
X159880953Y-61854762D02*
X159785715Y-61902381D01*
X159595238Y-61902381D01*
X159500000Y-61854762D01*
X159452381Y-61807143D01*
X159404762Y-61711905D01*
X159404762Y-61426190D01*
X159452381Y-61330952D01*
X159500000Y-61283333D01*
X159595238Y-61235714D01*
X159785715Y-61235714D01*
X159880953Y-61283333D01*
X160166667Y-61235714D02*
X160547619Y-61235714D01*
X160309524Y-60902381D02*
X160309524Y-61759524D01*
X160357143Y-61854762D01*
X160452381Y-61902381D01*
X160547619Y-61902381D01*
X160880953Y-61902381D02*
X160880953Y-61235714D01*
X160880953Y-61426190D02*
X160928572Y-61330952D01*
X160976191Y-61283333D01*
X161071429Y-61235714D01*
X161166668Y-61235714D01*
X161880954Y-61854762D02*
X161785716Y-61902381D01*
X161595239Y-61902381D01*
X161500001Y-61854762D01*
X161452382Y-61759524D01*
X161452382Y-61378571D01*
X161500001Y-61283333D01*
X161595239Y-61235714D01*
X161785716Y-61235714D01*
X161880954Y-61283333D01*
X161928573Y-61378571D01*
X161928573Y-61473810D01*
X161452382Y-61569048D01*
X162357144Y-61521429D02*
X163119049Y-61521429D01*
X163452382Y-60902381D02*
X164023811Y-60902381D01*
X163738096Y-61902381D02*
X163738096Y-60902381D01*
X164261906Y-60902381D02*
X164928573Y-61902381D01*
X164928573Y-60902381D02*
X164261906Y-61902381D01*
X156738095Y-63602381D02*
X156738095Y-62602381D01*
X157071429Y-63316667D01*
X157404762Y-62602381D01*
X157404762Y-63602381D01*
X158309524Y-62935714D02*
X158309524Y-63602381D01*
X157880952Y-62935714D02*
X157880952Y-63459524D01*
X157928571Y-63554762D01*
X158023809Y-63602381D01*
X158166667Y-63602381D01*
X158261905Y-63554762D01*
X158309524Y-63507143D01*
X158928571Y-63602381D02*
X158833333Y-63554762D01*
X158785714Y-63459524D01*
X158785714Y-62602381D01*
X159166667Y-62935714D02*
X159547619Y-62935714D01*
X159309524Y-62602381D02*
X159309524Y-63459524D01*
X159357143Y-63554762D01*
X159452381Y-63602381D01*
X159547619Y-63602381D01*
X159880953Y-63602381D02*
X159880953Y-62935714D01*
X159880953Y-62602381D02*
X159833334Y-62650000D01*
X159880953Y-62697619D01*
X159928572Y-62650000D01*
X159880953Y-62602381D01*
X159880953Y-62697619D01*
X160357143Y-62935714D02*
X160357143Y-63935714D01*
X160357143Y-62983333D02*
X160452381Y-62935714D01*
X160642858Y-62935714D01*
X160738096Y-62983333D01*
X160785715Y-63030952D01*
X160833334Y-63126190D01*
X160833334Y-63411905D01*
X160785715Y-63507143D01*
X160738096Y-63554762D01*
X160642858Y-63602381D01*
X160452381Y-63602381D01*
X160357143Y-63554762D01*
X161261905Y-63602381D02*
X161261905Y-62935714D01*
X161261905Y-63126190D02*
X161309524Y-63030952D01*
X161357143Y-62983333D01*
X161452381Y-62935714D01*
X161547620Y-62935714D01*
X162023810Y-63602381D02*
X161928572Y-63554762D01*
X161880953Y-63507143D01*
X161833334Y-63411905D01*
X161833334Y-63126190D01*
X161880953Y-63030952D01*
X161928572Y-62983333D01*
X162023810Y-62935714D01*
X162166668Y-62935714D01*
X162261906Y-62983333D01*
X162309525Y-63030952D01*
X162357144Y-63126190D01*
X162357144Y-63411905D01*
X162309525Y-63507143D01*
X162261906Y-63554762D01*
X162166668Y-63602381D01*
X162023810Y-63602381D01*
X162642858Y-62935714D02*
X163023810Y-62935714D01*
X162785715Y-62602381D02*
X162785715Y-63459524D01*
X162833334Y-63554762D01*
X162928572Y-63602381D01*
X163023810Y-63602381D01*
X163500001Y-63602381D02*
X163404763Y-63554762D01*
X163357144Y-63507143D01*
X163309525Y-63411905D01*
X163309525Y-63126190D01*
X163357144Y-63030952D01*
X163404763Y-62983333D01*
X163500001Y-62935714D01*
X163642859Y-62935714D01*
X163738097Y-62983333D01*
X163785716Y-63030952D01*
X163833335Y-63126190D01*
X163833335Y-63411905D01*
X163785716Y-63507143D01*
X163738097Y-63554762D01*
X163642859Y-63602381D01*
X163500001Y-63602381D01*
X164690478Y-63554762D02*
X164595240Y-63602381D01*
X164404763Y-63602381D01*
X164309525Y-63554762D01*
X164261906Y-63507143D01*
X164214287Y-63411905D01*
X164214287Y-63126190D01*
X164261906Y-63030952D01*
X164309525Y-62983333D01*
X164404763Y-62935714D01*
X164595240Y-62935714D01*
X164690478Y-62983333D01*
X165261906Y-63602381D02*
X165166668Y-63554762D01*
X165119049Y-63507143D01*
X165071430Y-63411905D01*
X165071430Y-63126190D01*
X165119049Y-63030952D01*
X165166668Y-62983333D01*
X165261906Y-62935714D01*
X165404764Y-62935714D01*
X165500002Y-62983333D01*
X165547621Y-63030952D01*
X165595240Y-63126190D01*
X165595240Y-63411905D01*
X165547621Y-63507143D01*
X165500002Y-63554762D01*
X165404764Y-63602381D01*
X165261906Y-63602381D01*
X166166668Y-63602381D02*
X166071430Y-63554762D01*
X166023811Y-63459524D01*
X166023811Y-62602381D01*
X156595238Y-64302381D02*
X157166667Y-64302381D01*
X156880952Y-65302381D02*
X156880952Y-64302381D01*
X157500000Y-65302381D02*
X157500000Y-64635714D01*
X157500000Y-64826190D02*
X157547619Y-64730952D01*
X157595238Y-64683333D01*
X157690476Y-64635714D01*
X157785715Y-64635714D01*
X158547620Y-65302381D02*
X158547620Y-64778571D01*
X158500001Y-64683333D01*
X158404763Y-64635714D01*
X158214286Y-64635714D01*
X158119048Y-64683333D01*
X158547620Y-65254762D02*
X158452382Y-65302381D01*
X158214286Y-65302381D01*
X158119048Y-65254762D01*
X158071429Y-65159524D01*
X158071429Y-65064286D01*
X158119048Y-64969048D01*
X158214286Y-64921429D01*
X158452382Y-64921429D01*
X158547620Y-64873810D01*
X159023810Y-64635714D02*
X159023810Y-65302381D01*
X159023810Y-64730952D02*
X159071429Y-64683333D01*
X159166667Y-64635714D01*
X159309525Y-64635714D01*
X159404763Y-64683333D01*
X159452382Y-64778571D01*
X159452382Y-65302381D01*
X159880953Y-65254762D02*
X159976191Y-65302381D01*
X160166667Y-65302381D01*
X160261906Y-65254762D01*
X160309525Y-65159524D01*
X160309525Y-65111905D01*
X160261906Y-65016667D01*
X160166667Y-64969048D01*
X160023810Y-64969048D01*
X159928572Y-64921429D01*
X159880953Y-64826190D01*
X159880953Y-64778571D01*
X159928572Y-64683333D01*
X160023810Y-64635714D01*
X160166667Y-64635714D01*
X160261906Y-64683333D01*
X160738096Y-65302381D02*
X160738096Y-64635714D01*
X160738096Y-64730952D02*
X160785715Y-64683333D01*
X160880953Y-64635714D01*
X161023811Y-64635714D01*
X161119049Y-64683333D01*
X161166668Y-64778571D01*
X161166668Y-65302381D01*
X161166668Y-64778571D02*
X161214287Y-64683333D01*
X161309525Y-64635714D01*
X161452382Y-64635714D01*
X161547620Y-64683333D01*
X161595239Y-64778571D01*
X161595239Y-65302381D01*
X162071429Y-65302381D02*
X162071429Y-64635714D01*
X162071429Y-64302381D02*
X162023810Y-64350000D01*
X162071429Y-64397619D01*
X162119048Y-64350000D01*
X162071429Y-64302381D01*
X162071429Y-64397619D01*
X162404762Y-64635714D02*
X162785714Y-64635714D01*
X162547619Y-64302381D02*
X162547619Y-65159524D01*
X162595238Y-65254762D01*
X162690476Y-65302381D01*
X162785714Y-65302381D01*
X162976191Y-64635714D02*
X163357143Y-64635714D01*
X163119048Y-64302381D02*
X163119048Y-65159524D01*
X163166667Y-65254762D01*
X163261905Y-65302381D01*
X163357143Y-65302381D01*
X164071430Y-65254762D02*
X163976192Y-65302381D01*
X163785715Y-65302381D01*
X163690477Y-65254762D01*
X163642858Y-65159524D01*
X163642858Y-64778571D01*
X163690477Y-64683333D01*
X163785715Y-64635714D01*
X163976192Y-64635714D01*
X164071430Y-64683333D01*
X164119049Y-64778571D01*
X164119049Y-64873810D01*
X163642858Y-64969048D01*
X164547620Y-65302381D02*
X164547620Y-64635714D01*
X164547620Y-64826190D02*
X164595239Y-64730952D01*
X164642858Y-64683333D01*
X164738096Y-64635714D01*
X164833335Y-64635714D01*
X156738095Y-67002381D02*
X156738095Y-66002381D01*
X157119048Y-66002381D01*
X157214286Y-66050000D01*
X157261905Y-66097619D01*
X157309524Y-66192857D01*
X157309524Y-66335714D01*
X157261905Y-66430952D01*
X157214286Y-66478571D01*
X157119048Y-66526190D01*
X156738095Y-66526190D01*
X157738095Y-67002381D02*
X157738095Y-66335714D01*
X157738095Y-66526190D02*
X157785714Y-66430952D01*
X157833333Y-66383333D01*
X157928571Y-66335714D01*
X158023810Y-66335714D01*
X158500000Y-67002381D02*
X158404762Y-66954762D01*
X158357143Y-66907143D01*
X158309524Y-66811905D01*
X158309524Y-66526190D01*
X158357143Y-66430952D01*
X158404762Y-66383333D01*
X158500000Y-66335714D01*
X158642858Y-66335714D01*
X158738096Y-66383333D01*
X158785715Y-66430952D01*
X158833334Y-66526190D01*
X158833334Y-66811905D01*
X158785715Y-66907143D01*
X158738096Y-66954762D01*
X158642858Y-67002381D01*
X158500000Y-67002381D01*
X159119048Y-66335714D02*
X159500000Y-66335714D01*
X159261905Y-66002381D02*
X159261905Y-66859524D01*
X159309524Y-66954762D01*
X159404762Y-67002381D01*
X159500000Y-67002381D01*
X159976191Y-67002381D02*
X159880953Y-66954762D01*
X159833334Y-66907143D01*
X159785715Y-66811905D01*
X159785715Y-66526190D01*
X159833334Y-66430952D01*
X159880953Y-66383333D01*
X159976191Y-66335714D01*
X160119049Y-66335714D01*
X160214287Y-66383333D01*
X160261906Y-66430952D01*
X160309525Y-66526190D01*
X160309525Y-66811905D01*
X160261906Y-66907143D01*
X160214287Y-66954762D01*
X160119049Y-67002381D01*
X159976191Y-67002381D01*
X161357144Y-66002381D02*
X161690477Y-67002381D01*
X162023811Y-66002381D01*
X162785716Y-66335714D02*
X162785716Y-67002381D01*
X162547620Y-65954762D02*
X162309525Y-66669048D01*
X162928573Y-66669048D01*
D12*
X122750000Y-105680000D02*
X124550000Y-102880000D01*
X124550000Y-95480000D02*
X124550000Y-102880000D01*
X152550000Y-115480000D02*
X152550000Y-95480000D01*
X124550000Y-95480000D02*
X152550000Y-95480000D01*
X122750000Y-115480000D02*
X122750000Y-105680000D01*
X115260000Y-115480000D02*
X115260000Y-72760000D01*
X175520000Y-115480000D02*
X175520000Y-72760000D01*
X108750000Y-72760000D02*
X185930000Y-72760000D01*
X108750000Y-115480000D02*
X185930000Y-115480000D01*
X185930000Y-115480000D02*
X185930000Y-72760000D01*
X108750000Y-115480000D02*
X108750000Y-72760000D01*
X119380000Y-53319924D02*
G75*
G03X119380000Y-53319924I-1270000J0D01*
G01*
X118110000Y-52049924D02*
X118110000Y-54589924D01*
X116840000Y-53319924D02*
X119380000Y-53319924D01*
X111460000Y-45569924D02*
X124760000Y-45569924D01*
X124760000Y-60719924D02*
X124760000Y-45919924D01*
X111460000Y-45919924D02*
X111460000Y-60719924D01*
X111460000Y-61069924D02*
X124760000Y-61069924D01*
X177800000Y-53340000D02*
G75*
G03X177800000Y-53340000I-1270000J0D01*
G01*
X176530000Y-54610000D02*
X176530000Y-52070000D01*
X177800000Y-53340000D02*
X175260000Y-53340000D01*
X183180000Y-61090000D02*
X169880000Y-61090000D01*
X169880000Y-45940000D02*
X169880000Y-60740000D01*
X183180000Y-60740000D02*
X183180000Y-45940000D01*
X183180000Y-45590000D02*
X169880000Y-45590000D01*
X150030000Y-108755000D02*
X149530000Y-108755000D01*
X146780000Y-105505000D02*
X147280000Y-105505000D01*
X146780000Y-108755000D02*
X147280000Y-108755000D01*
X150030000Y-105505000D02*
X150030000Y-106005000D01*
X146780000Y-105505000D02*
X146780000Y-106005000D01*
X146780000Y-108755000D02*
X146780000Y-108255000D01*
X150030000Y-108755000D02*
X150030000Y-108255000D01*
D13*
X145630000Y-106545000D02*
X145630000Y-105545000D01*
X143930000Y-105545000D02*
X143930000Y-106545000D01*
X143725000Y-106545000D02*
X143725000Y-105545000D01*
X142025000Y-105545000D02*
X142025000Y-106545000D01*
X158690000Y-109280000D02*
X161350000Y-109280000D01*
X158690000Y-106680000D02*
X158690000Y-109280000D01*
X161350000Y-106680000D02*
X161350000Y-109280000D01*
X158690000Y-106680000D02*
X161350000Y-106680000D01*
X158690000Y-105410000D02*
X158690000Y-104080000D01*
X158690000Y-104080000D02*
X160020000Y-104080000D01*
X146085000Y-101990000D02*
X147285000Y-101990000D01*
X147285000Y-103750000D02*
X146085000Y-103750000D01*
X141185000Y-57015000D02*
X141185000Y-56015000D01*
X139485000Y-56015000D02*
X139485000Y-57015000D01*
X157695000Y-108450000D02*
X157695000Y-107450000D01*
X155995000Y-107450000D02*
X155995000Y-108450000D01*
X155995000Y-103640000D02*
X155995000Y-104640000D01*
X157695000Y-104640000D02*
X157695000Y-103640000D01*
X153425000Y-104740000D02*
X153425000Y-103540000D01*
X155185000Y-103540000D02*
X155185000Y-104740000D01*
X153425000Y-108550000D02*
X153425000Y-107350000D01*
X155185000Y-107350000D02*
X155185000Y-108550000D01*
X179330000Y-69870000D02*
X179330000Y-64670000D01*
X171650000Y-69870000D02*
X179330000Y-69870000D01*
X169050000Y-64670000D02*
X179330000Y-64670000D01*
X171650000Y-69870000D02*
X171650000Y-67270000D01*
X171650000Y-67270000D02*
X169050000Y-67270000D01*
X169050000Y-67270000D02*
X169050000Y-64670000D01*
X170380000Y-69870000D02*
X169050000Y-69870000D01*
X169050000Y-69870000D02*
X169050000Y-68540000D01*
X143185000Y-53915000D02*
X150185000Y-53915000D01*
X143185000Y-59115000D02*
X150185000Y-59115000D01*
X150185000Y-59115000D02*
X150185000Y-58115000D01*
D12*
X109650181Y-113219305D02*
X110459705Y-113219305D01*
X110554943Y-113171686D01*
X110602562Y-113124067D01*
X110650181Y-113028829D01*
X110650181Y-112838352D01*
X110602562Y-112743114D01*
X110554943Y-112695495D01*
X110459705Y-112647876D01*
X109650181Y-112647876D01*
X110650181Y-111647876D02*
X110650181Y-112219305D01*
X110650181Y-111933591D02*
X109650181Y-111933591D01*
X109793038Y-112028829D01*
X109888276Y-112124067D01*
X109935895Y-112219305D01*
X125154762Y-114194286D02*
X125202381Y-114051429D01*
X125202381Y-113813333D01*
X125154762Y-113718095D01*
X125107143Y-113670476D01*
X125011905Y-113622857D01*
X124916667Y-113622857D01*
X124821429Y-113670476D01*
X124773810Y-113718095D01*
X124726190Y-113813333D01*
X124678571Y-114003810D01*
X124630952Y-114099048D01*
X124583333Y-114146667D01*
X124488095Y-114194286D01*
X124392857Y-114194286D01*
X124297619Y-114146667D01*
X124250000Y-114099048D01*
X124202381Y-114003810D01*
X124202381Y-113765714D01*
X124250000Y-113622857D01*
X125202381Y-113194286D02*
X124202381Y-113194286D01*
X124202381Y-112956191D01*
X124250000Y-112813333D01*
X124345238Y-112718095D01*
X124440476Y-112670476D01*
X124630952Y-112622857D01*
X124773810Y-112622857D01*
X124964286Y-112670476D01*
X125059524Y-112718095D01*
X125154762Y-112813333D01*
X125202381Y-112956191D01*
X125202381Y-113194286D01*
X125107143Y-111622857D02*
X125154762Y-111670476D01*
X125202381Y-111813333D01*
X125202381Y-111908571D01*
X125154762Y-112051429D01*
X125059524Y-112146667D01*
X124964286Y-112194286D01*
X124773810Y-112241905D01*
X124630952Y-112241905D01*
X124440476Y-112194286D01*
X124345238Y-112146667D01*
X124250000Y-112051429D01*
X124202381Y-111908571D01*
X124202381Y-111813333D01*
X124250000Y-111670476D01*
X124297619Y-111622857D01*
X124916667Y-111241905D02*
X124916667Y-110765714D01*
X125202381Y-111337143D02*
X124202381Y-111003810D01*
X125202381Y-110670476D01*
X125202381Y-109765714D02*
X124726190Y-110099048D01*
X125202381Y-110337143D02*
X124202381Y-110337143D01*
X124202381Y-109956190D01*
X124250000Y-109860952D01*
X124297619Y-109813333D01*
X124392857Y-109765714D01*
X124535714Y-109765714D01*
X124630952Y-109813333D01*
X124678571Y-109860952D01*
X124726190Y-109956190D01*
X124726190Y-110337143D01*
X125202381Y-109337143D02*
X124202381Y-109337143D01*
X124202381Y-109099048D01*
X124250000Y-108956190D01*
X124345238Y-108860952D01*
X124440476Y-108813333D01*
X124630952Y-108765714D01*
X124773810Y-108765714D01*
X124964286Y-108813333D01*
X125059524Y-108860952D01*
X125154762Y-108956190D01*
X125202381Y-109099048D01*
X125202381Y-109337143D01*
X120848095Y-47272305D02*
X120848095Y-48081829D01*
X120895714Y-48177067D01*
X120943333Y-48224686D01*
X121038571Y-48272305D01*
X121229048Y-48272305D01*
X121324286Y-48224686D01*
X121371905Y-48177067D01*
X121419524Y-48081829D01*
X121419524Y-47272305D01*
X122371905Y-47272305D02*
X121895714Y-47272305D01*
X121848095Y-47748495D01*
X121895714Y-47700876D01*
X121990952Y-47653257D01*
X122229048Y-47653257D01*
X122324286Y-47700876D01*
X122371905Y-47748495D01*
X122419524Y-47843734D01*
X122419524Y-48081829D01*
X122371905Y-48177067D01*
X122324286Y-48224686D01*
X122229048Y-48272305D01*
X121990952Y-48272305D01*
X121895714Y-48224686D01*
X121848095Y-48177067D01*
X119948096Y-64524000D02*
X119852858Y-64476381D01*
X119710001Y-64476381D01*
X119567143Y-64524000D01*
X119471905Y-64619238D01*
X119424286Y-64714476D01*
X119376667Y-64904952D01*
X119376667Y-65047810D01*
X119424286Y-65238286D01*
X119471905Y-65333524D01*
X119567143Y-65428762D01*
X119710001Y-65476381D01*
X119805239Y-65476381D01*
X119948096Y-65428762D01*
X119995715Y-65381143D01*
X119995715Y-65047810D01*
X119805239Y-65047810D01*
X120424286Y-65476381D02*
X120424286Y-64476381D01*
X120995715Y-65476381D01*
X120995715Y-64476381D01*
X121471905Y-65476381D02*
X121471905Y-64476381D01*
X121710000Y-64476381D01*
X121852858Y-64524000D01*
X121948096Y-64619238D01*
X121995715Y-64714476D01*
X122043334Y-64904952D01*
X122043334Y-65047810D01*
X121995715Y-65238286D01*
X121948096Y-65333524D01*
X121852858Y-65428762D01*
X121710000Y-65476381D01*
X121471905Y-65476381D01*
X114236667Y-64476381D02*
X114570000Y-65476381D01*
X114903334Y-64476381D01*
X115808096Y-65381143D02*
X115760477Y-65428762D01*
X115617620Y-65476381D01*
X115522382Y-65476381D01*
X115379524Y-65428762D01*
X115284286Y-65333524D01*
X115236667Y-65238286D01*
X115189048Y-65047810D01*
X115189048Y-64904952D01*
X115236667Y-64714476D01*
X115284286Y-64619238D01*
X115379524Y-64524000D01*
X115522382Y-64476381D01*
X115617620Y-64476381D01*
X115760477Y-64524000D01*
X115808096Y-64571619D01*
X116808096Y-65381143D02*
X116760477Y-65428762D01*
X116617620Y-65476381D01*
X116522382Y-65476381D01*
X116379524Y-65428762D01*
X116284286Y-65333524D01*
X116236667Y-65238286D01*
X116189048Y-65047810D01*
X116189048Y-64904952D01*
X116236667Y-64714476D01*
X116284286Y-64619238D01*
X116379524Y-64524000D01*
X116522382Y-64476381D01*
X116617620Y-64476381D01*
X116760477Y-64524000D01*
X116808096Y-64571619D01*
X129748096Y-55319924D02*
X129652858Y-55272305D01*
X129510001Y-55272305D01*
X129367143Y-55319924D01*
X129271905Y-55415162D01*
X129224286Y-55510400D01*
X129176667Y-55700876D01*
X129176667Y-55843734D01*
X129224286Y-56034210D01*
X129271905Y-56129448D01*
X129367143Y-56224686D01*
X129510001Y-56272305D01*
X129605239Y-56272305D01*
X129748096Y-56224686D01*
X129795715Y-56177067D01*
X129795715Y-55843734D01*
X129605239Y-55843734D01*
X130224286Y-56272305D02*
X130224286Y-55272305D01*
X130795715Y-56272305D01*
X130795715Y-55272305D01*
X131271905Y-56272305D02*
X131271905Y-55272305D01*
X131510000Y-55272305D01*
X131652858Y-55319924D01*
X131748096Y-55415162D01*
X131795715Y-55510400D01*
X131843334Y-55700876D01*
X131843334Y-55843734D01*
X131795715Y-56034210D01*
X131748096Y-56129448D01*
X131652858Y-56224686D01*
X131510000Y-56272305D01*
X131271905Y-56272305D01*
X129176667Y-50272305D02*
X129510000Y-51272305D01*
X129843334Y-50272305D01*
X130748096Y-51177067D02*
X130700477Y-51224686D01*
X130557620Y-51272305D01*
X130462382Y-51272305D01*
X130319524Y-51224686D01*
X130224286Y-51129448D01*
X130176667Y-51034210D01*
X130129048Y-50843734D01*
X130129048Y-50700876D01*
X130176667Y-50510400D01*
X130224286Y-50415162D01*
X130319524Y-50319924D01*
X130462382Y-50272305D01*
X130557620Y-50272305D01*
X130700477Y-50319924D01*
X130748096Y-50367543D01*
X131748096Y-51177067D02*
X131700477Y-51224686D01*
X131557620Y-51272305D01*
X131462382Y-51272305D01*
X131319524Y-51224686D01*
X131224286Y-51129448D01*
X131176667Y-51034210D01*
X131129048Y-50843734D01*
X131129048Y-50700876D01*
X131176667Y-50510400D01*
X131224286Y-50415162D01*
X131319524Y-50319924D01*
X131462382Y-50272305D01*
X131557620Y-50272305D01*
X131700477Y-50319924D01*
X131748096Y-50367543D01*
X117824286Y-65476381D02*
X117824286Y-64476381D01*
X117824286Y-64952571D02*
X118395715Y-64952571D01*
X118395715Y-65476381D02*
X118395715Y-64476381D01*
X129276667Y-52872305D02*
X129610000Y-53872305D01*
X129943334Y-52872305D01*
X172268095Y-58292381D02*
X172268095Y-59101905D01*
X172315714Y-59197143D01*
X172363333Y-59244762D01*
X172458571Y-59292381D01*
X172649048Y-59292381D01*
X172744286Y-59244762D01*
X172791905Y-59197143D01*
X172839524Y-59101905D01*
X172839524Y-58292381D01*
X173744286Y-58292381D02*
X173553809Y-58292381D01*
X173458571Y-58340000D01*
X173410952Y-58387619D01*
X173315714Y-58530476D01*
X173268095Y-58720952D01*
X173268095Y-59101905D01*
X173315714Y-59197143D01*
X173363333Y-59244762D01*
X173458571Y-59292381D01*
X173649048Y-59292381D01*
X173744286Y-59244762D01*
X173791905Y-59197143D01*
X173839524Y-59101905D01*
X173839524Y-58863810D01*
X173791905Y-58768571D01*
X173744286Y-58720952D01*
X173649048Y-58673333D01*
X173458571Y-58673333D01*
X173363333Y-58720952D01*
X173315714Y-58768571D01*
X173268095Y-58863810D01*
X173482096Y-45982000D02*
X173386858Y-45934381D01*
X173244001Y-45934381D01*
X173101143Y-45982000D01*
X173005905Y-46077238D01*
X172958286Y-46172476D01*
X172910667Y-46362952D01*
X172910667Y-46505810D01*
X172958286Y-46696286D01*
X173005905Y-46791524D01*
X173101143Y-46886762D01*
X173244001Y-46934381D01*
X173339239Y-46934381D01*
X173482096Y-46886762D01*
X173529715Y-46839143D01*
X173529715Y-46505810D01*
X173339239Y-46505810D01*
X173958286Y-46934381D02*
X173958286Y-45934381D01*
X174529715Y-46934381D01*
X174529715Y-45934381D01*
X175005905Y-46934381D02*
X175005905Y-45934381D01*
X175244000Y-45934381D01*
X175386858Y-45982000D01*
X175482096Y-46077238D01*
X175529715Y-46172476D01*
X175577334Y-46362952D01*
X175577334Y-46505810D01*
X175529715Y-46696286D01*
X175482096Y-46791524D01*
X175386858Y-46886762D01*
X175244000Y-46934381D01*
X175005905Y-46934381D01*
X177736667Y-45934381D02*
X178070000Y-46934381D01*
X178403334Y-45934381D01*
X179308096Y-46839143D02*
X179260477Y-46886762D01*
X179117620Y-46934381D01*
X179022382Y-46934381D01*
X178879524Y-46886762D01*
X178784286Y-46791524D01*
X178736667Y-46696286D01*
X178689048Y-46505810D01*
X178689048Y-46362952D01*
X178736667Y-46172476D01*
X178784286Y-46077238D01*
X178879524Y-45982000D01*
X179022382Y-45934381D01*
X179117620Y-45934381D01*
X179260477Y-45982000D01*
X179308096Y-46029619D01*
X180308096Y-46839143D02*
X180260477Y-46886762D01*
X180117620Y-46934381D01*
X180022382Y-46934381D01*
X179879524Y-46886762D01*
X179784286Y-46791524D01*
X179736667Y-46696286D01*
X179689048Y-46505810D01*
X179689048Y-46362952D01*
X179736667Y-46172476D01*
X179784286Y-46077238D01*
X179879524Y-45982000D01*
X180022382Y-45934381D01*
X180117620Y-45934381D01*
X180260477Y-45982000D01*
X180308096Y-46029619D01*
X163368096Y-50340000D02*
X163272858Y-50292381D01*
X163130001Y-50292381D01*
X162987143Y-50340000D01*
X162891905Y-50435238D01*
X162844286Y-50530476D01*
X162796667Y-50720952D01*
X162796667Y-50863810D01*
X162844286Y-51054286D01*
X162891905Y-51149524D01*
X162987143Y-51244762D01*
X163130001Y-51292381D01*
X163225239Y-51292381D01*
X163368096Y-51244762D01*
X163415715Y-51197143D01*
X163415715Y-50863810D01*
X163225239Y-50863810D01*
X163844286Y-51292381D02*
X163844286Y-50292381D01*
X164415715Y-51292381D01*
X164415715Y-50292381D01*
X164891905Y-51292381D02*
X164891905Y-50292381D01*
X165130000Y-50292381D01*
X165272858Y-50340000D01*
X165368096Y-50435238D01*
X165415715Y-50530476D01*
X165463334Y-50720952D01*
X165463334Y-50863810D01*
X165415715Y-51054286D01*
X165368096Y-51149524D01*
X165272858Y-51244762D01*
X165130000Y-51292381D01*
X164891905Y-51292381D01*
X162796667Y-55292381D02*
X163130000Y-56292381D01*
X163463334Y-55292381D01*
X164368096Y-56197143D02*
X164320477Y-56244762D01*
X164177620Y-56292381D01*
X164082382Y-56292381D01*
X163939524Y-56244762D01*
X163844286Y-56149524D01*
X163796667Y-56054286D01*
X163749048Y-55863810D01*
X163749048Y-55720952D01*
X163796667Y-55530476D01*
X163844286Y-55435238D01*
X163939524Y-55340000D01*
X164082382Y-55292381D01*
X164177620Y-55292381D01*
X164320477Y-55340000D01*
X164368096Y-55387619D01*
X165368096Y-56197143D02*
X165320477Y-56244762D01*
X165177620Y-56292381D01*
X165082382Y-56292381D01*
X164939524Y-56244762D01*
X164844286Y-56149524D01*
X164796667Y-56054286D01*
X164749048Y-55863810D01*
X164749048Y-55720952D01*
X164796667Y-55530476D01*
X164844286Y-55435238D01*
X164939524Y-55340000D01*
X165082382Y-55292381D01*
X165177620Y-55292381D01*
X165320477Y-55340000D01*
X165368096Y-55387619D01*
X176244286Y-46934381D02*
X176244286Y-45934381D01*
X176244286Y-46410571D02*
X176815715Y-46410571D01*
X176815715Y-46934381D02*
X176815715Y-45934381D01*
X164696667Y-52692381D02*
X165030000Y-53692381D01*
X165363334Y-52692381D01*
X147828095Y-103846381D02*
X147828095Y-104655905D01*
X147875714Y-104751143D01*
X147923333Y-104798762D01*
X148018571Y-104846381D01*
X148209048Y-104846381D01*
X148304286Y-104798762D01*
X148351905Y-104751143D01*
X148399524Y-104655905D01*
X148399524Y-103846381D01*
X149018571Y-104274952D02*
X148923333Y-104227333D01*
X148875714Y-104179714D01*
X148828095Y-104084476D01*
X148828095Y-104036857D01*
X148875714Y-103941619D01*
X148923333Y-103894000D01*
X149018571Y-103846381D01*
X149209048Y-103846381D01*
X149304286Y-103894000D01*
X149351905Y-103941619D01*
X149399524Y-104036857D01*
X149399524Y-104084476D01*
X149351905Y-104179714D01*
X149304286Y-104227333D01*
X149209048Y-104274952D01*
X149018571Y-104274952D01*
X148923333Y-104322571D01*
X148875714Y-104370190D01*
X148828095Y-104465429D01*
X148828095Y-104655905D01*
X148875714Y-104751143D01*
X148923333Y-104798762D01*
X149018571Y-104846381D01*
X149209048Y-104846381D01*
X149304286Y-104798762D01*
X149351905Y-104751143D01*
X149399524Y-104655905D01*
X149399524Y-104465429D01*
X149351905Y-104370190D01*
X149304286Y-104322571D01*
X149209048Y-104274952D01*
X144333334Y-103857143D02*
X144285715Y-103904762D01*
X144142858Y-103952381D01*
X144047620Y-103952381D01*
X143904762Y-103904762D01*
X143809524Y-103809524D01*
X143761905Y-103714286D01*
X143714286Y-103523810D01*
X143714286Y-103380952D01*
X143761905Y-103190476D01*
X143809524Y-103095238D01*
X143904762Y-103000000D01*
X144047620Y-102952381D01*
X144142858Y-102952381D01*
X144285715Y-103000000D01*
X144333334Y-103047619D01*
X144714286Y-103047619D02*
X144761905Y-103000000D01*
X144857143Y-102952381D01*
X145095239Y-102952381D01*
X145190477Y-103000000D01*
X145238096Y-103047619D01*
X145285715Y-103142857D01*
X145285715Y-103238095D01*
X145238096Y-103380952D01*
X144666667Y-103952381D01*
X145285715Y-103952381D01*
X142083334Y-103607143D02*
X142035715Y-103654762D01*
X141892858Y-103702381D01*
X141797620Y-103702381D01*
X141654762Y-103654762D01*
X141559524Y-103559524D01*
X141511905Y-103464286D01*
X141464286Y-103273810D01*
X141464286Y-103130952D01*
X141511905Y-102940476D01*
X141559524Y-102845238D01*
X141654762Y-102750000D01*
X141797620Y-102702381D01*
X141892858Y-102702381D01*
X142035715Y-102750000D01*
X142083334Y-102797619D01*
X142416667Y-102702381D02*
X143035715Y-102702381D01*
X142702381Y-103083333D01*
X142845239Y-103083333D01*
X142940477Y-103130952D01*
X142988096Y-103178571D01*
X143035715Y-103273810D01*
X143035715Y-103511905D01*
X142988096Y-103607143D01*
X142940477Y-103654762D01*
X142845239Y-103702381D01*
X142559524Y-103702381D01*
X142464286Y-103654762D01*
X142416667Y-103607143D01*
X162171143Y-107132381D02*
X161694952Y-107132381D01*
X161694952Y-106132381D01*
X162456857Y-107084762D02*
X162599714Y-107132381D01*
X162837810Y-107132381D01*
X162933048Y-107084762D01*
X162980667Y-107037143D01*
X163028286Y-106941905D01*
X163028286Y-106846667D01*
X162980667Y-106751429D01*
X162933048Y-106703810D01*
X162837810Y-106656190D01*
X162647333Y-106608571D01*
X162552095Y-106560952D01*
X162504476Y-106513333D01*
X162456857Y-106418095D01*
X162456857Y-106322857D01*
X162504476Y-106227619D01*
X162552095Y-106180000D01*
X162647333Y-106132381D01*
X162885429Y-106132381D01*
X163028286Y-106180000D01*
X163980667Y-107132381D02*
X163409238Y-107132381D01*
X163694952Y-107132381D02*
X163694952Y-106132381D01*
X163599714Y-106275238D01*
X163504476Y-106370476D01*
X163409238Y-106418095D01*
X146391334Y-101544381D02*
X146058000Y-101068190D01*
X145819905Y-101544381D02*
X145819905Y-100544381D01*
X146200858Y-100544381D01*
X146296096Y-100592000D01*
X146343715Y-100639619D01*
X146391334Y-100734857D01*
X146391334Y-100877714D01*
X146343715Y-100972952D01*
X146296096Y-101020571D01*
X146200858Y-101068190D01*
X145819905Y-101068190D01*
X147343715Y-101544381D02*
X146772286Y-101544381D01*
X147058000Y-101544381D02*
X147058000Y-100544381D01*
X146962762Y-100687238D01*
X146867524Y-100782476D01*
X146772286Y-100830095D01*
X140168334Y-59412143D02*
X140120715Y-59459762D01*
X139977858Y-59507381D01*
X139882620Y-59507381D01*
X139739762Y-59459762D01*
X139644524Y-59364524D01*
X139596905Y-59269286D01*
X139549286Y-59078810D01*
X139549286Y-58935952D01*
X139596905Y-58745476D01*
X139644524Y-58650238D01*
X139739762Y-58555000D01*
X139882620Y-58507381D01*
X139977858Y-58507381D01*
X140120715Y-58555000D01*
X140168334Y-58602619D01*
X141120715Y-59507381D02*
X140549286Y-59507381D01*
X140835000Y-59507381D02*
X140835000Y-58507381D01*
X140739762Y-58650238D01*
X140644524Y-58745476D01*
X140549286Y-58793095D01*
X156805334Y-110847143D02*
X156757715Y-110894762D01*
X156614858Y-110942381D01*
X156519620Y-110942381D01*
X156376762Y-110894762D01*
X156281524Y-110799524D01*
X156233905Y-110704286D01*
X156186286Y-110513810D01*
X156186286Y-110370952D01*
X156233905Y-110180476D01*
X156281524Y-110085238D01*
X156376762Y-109990000D01*
X156519620Y-109942381D01*
X156614858Y-109942381D01*
X156757715Y-109990000D01*
X156805334Y-110037619D01*
X157662477Y-109942381D02*
X157472000Y-109942381D01*
X157376762Y-109990000D01*
X157329143Y-110037619D01*
X157233905Y-110180476D01*
X157186286Y-110370952D01*
X157186286Y-110751905D01*
X157233905Y-110847143D01*
X157281524Y-110894762D01*
X157376762Y-110942381D01*
X157567239Y-110942381D01*
X157662477Y-110894762D01*
X157710096Y-110847143D01*
X157757715Y-110751905D01*
X157757715Y-110513810D01*
X157710096Y-110418571D01*
X157662477Y-110370952D01*
X157567239Y-110323333D01*
X157376762Y-110323333D01*
X157281524Y-110370952D01*
X157233905Y-110418571D01*
X157186286Y-110513810D01*
X156805334Y-101957143D02*
X156757715Y-102004762D01*
X156614858Y-102052381D01*
X156519620Y-102052381D01*
X156376762Y-102004762D01*
X156281524Y-101909524D01*
X156233905Y-101814286D01*
X156186286Y-101623810D01*
X156186286Y-101480952D01*
X156233905Y-101290476D01*
X156281524Y-101195238D01*
X156376762Y-101100000D01*
X156519620Y-101052381D01*
X156614858Y-101052381D01*
X156757715Y-101100000D01*
X156805334Y-101147619D01*
X157138667Y-101052381D02*
X157805334Y-101052381D01*
X157376762Y-102052381D01*
X154011334Y-102052381D02*
X153535143Y-102052381D01*
X153535143Y-101052381D01*
X154868477Y-102052381D02*
X154297048Y-102052381D01*
X154582762Y-102052381D02*
X154582762Y-101052381D01*
X154487524Y-101195238D01*
X154392286Y-101290476D01*
X154297048Y-101338095D01*
X154011334Y-110942381D02*
X153535143Y-110942381D01*
X153535143Y-109942381D01*
X154297048Y-110037619D02*
X154344667Y-109990000D01*
X154439905Y-109942381D01*
X154678001Y-109942381D01*
X154773239Y-109990000D01*
X154820858Y-110037619D01*
X154868477Y-110132857D01*
X154868477Y-110228095D01*
X154820858Y-110370952D01*
X154249429Y-110942381D01*
X154868477Y-110942381D01*
X167502381Y-67603333D02*
X168216667Y-67603333D01*
X168359524Y-67650953D01*
X168454762Y-67746191D01*
X168502381Y-67889048D01*
X168502381Y-67984286D01*
X167502381Y-67222381D02*
X167502381Y-66603333D01*
X167883333Y-66936667D01*
X167883333Y-66793809D01*
X167930952Y-66698571D01*
X167978571Y-66650952D01*
X168073810Y-66603333D01*
X168311905Y-66603333D01*
X168407143Y-66650952D01*
X168454762Y-66698571D01*
X168502381Y-66793809D01*
X168502381Y-67079524D01*
X168454762Y-67174762D01*
X168407143Y-67222381D01*
X145923095Y-55952381D02*
X145923095Y-56761905D01*
X145970714Y-56857143D01*
X146018333Y-56904762D01*
X146113571Y-56952381D01*
X146304048Y-56952381D01*
X146399286Y-56904762D01*
X146446905Y-56857143D01*
X146494524Y-56761905D01*
X146494524Y-55952381D01*
X147399286Y-56285714D02*
X147399286Y-56952381D01*
X147161190Y-55904762D02*
X146923095Y-56619048D01*
X147542143Y-56619048D01*
M02*
