G04 #@! TF.FileFunction,Soldermask,Bot*
%FSLAX46Y46*%
G04 Gerber Fmt 4.6, Leading zero omitted, Abs format (unit mm)*
G04 Created by KiCad (PCBNEW 4.0.7-e2-6376~60~ubuntu17.10.1) date Mon Apr 23 00:33:59 2018*
%MOMM*%
%LPD*%
G01*
G04 APERTURE LIST*
%ADD10C,0.100000*%
%ADD11C,1.625600*%
%ADD12R,1.625600X4.165600*%
%ADD13R,0.701600X1.601600*%
%ADD14C,1.879600*%
%ADD15C,2.641600*%
%ADD16R,1.801600X1.801600*%
%ADD17O,1.801600X1.801600*%
%ADD18R,1.101600X1.351600*%
%ADD19R,1.371600X2.641600*%
%ADD20R,1.625600X1.625600*%
G04 APERTURE END LIST*
D10*
D11*
X183750000Y-110480000D03*
X183750000Y-107940000D03*
X183750000Y-105400000D03*
X183750000Y-102860000D03*
X183750000Y-100320000D03*
X183750000Y-97780000D03*
X183750000Y-95240000D03*
X183750000Y-92700000D03*
X183750000Y-90160000D03*
X183750000Y-87620000D03*
X183750000Y-85080000D03*
X183750000Y-82540000D03*
X183750000Y-80000000D03*
X183750000Y-77460000D03*
X111290000Y-97700000D03*
X111290000Y-95160000D03*
X111290000Y-92620000D03*
X111290000Y-90080000D03*
D12*
X147701000Y-44450000D03*
X145161000Y-44450000D03*
X150241000Y-44450000D03*
D11*
X135255000Y-90170000D03*
X183515000Y-113030000D03*
X137795000Y-90170000D03*
X140335000Y-90170000D03*
X142875000Y-90170000D03*
X145415000Y-90170000D03*
X147955000Y-90170000D03*
X150495000Y-90170000D03*
X153035000Y-90170000D03*
X155575000Y-90170000D03*
X158115000Y-90170000D03*
X160655000Y-90170000D03*
X163195000Y-90170000D03*
X165735000Y-90170000D03*
X168275000Y-90170000D03*
X170815000Y-90170000D03*
X173355000Y-90170000D03*
X180975000Y-113030000D03*
X178435000Y-113030000D03*
X175895000Y-113030000D03*
X173355000Y-113030000D03*
X170815000Y-113030000D03*
X168275000Y-113030000D03*
X165735000Y-113030000D03*
X163195000Y-113030000D03*
X160655000Y-113030000D03*
X158115000Y-113030000D03*
X155575000Y-113030000D03*
X153035000Y-113030000D03*
X150495000Y-113030000D03*
X147955000Y-113030000D03*
X145415000Y-113030000D03*
X142875000Y-113030000D03*
X140335000Y-113030000D03*
X137795000Y-113030000D03*
X135255000Y-113030000D03*
D13*
X169545000Y-72865000D03*
X170815000Y-72865000D03*
X172085000Y-72865000D03*
X173355000Y-72865000D03*
X174625000Y-72865000D03*
X175895000Y-72865000D03*
X177165000Y-72865000D03*
X178435000Y-72865000D03*
X178435000Y-78265000D03*
X177165000Y-78265000D03*
X175895000Y-78265000D03*
X174625000Y-78265000D03*
X173355000Y-78265000D03*
X172085000Y-78265000D03*
X170815000Y-78265000D03*
X169545000Y-78265000D03*
D14*
X115610000Y-63069924D03*
X118110000Y-63069924D03*
X120610000Y-63069924D03*
D15*
X111460000Y-45569924D03*
X111460000Y-61069924D03*
X124760000Y-61069924D03*
X124760000Y-45569924D03*
D14*
X127860000Y-50819924D03*
X127860000Y-53340000D03*
X127860000Y-55819924D03*
X179030000Y-43590000D03*
X176530000Y-43590000D03*
X174030000Y-43590000D03*
D15*
X183180000Y-61090000D03*
X183180000Y-45590000D03*
X169880000Y-45590000D03*
X169880000Y-61090000D03*
D14*
X166780000Y-55840000D03*
X166780000Y-53319924D03*
X166780000Y-50840000D03*
D16*
X160020000Y-105410000D03*
D17*
X160020000Y-107950000D03*
D18*
X169910000Y-81280000D03*
X167910000Y-81280000D03*
X169910000Y-83185000D03*
X167910000Y-83185000D03*
D16*
X170380000Y-68540000D03*
D17*
X170380000Y-66000000D03*
X172920000Y-68540000D03*
X172920000Y-66000000D03*
X175460000Y-68540000D03*
X175460000Y-66000000D03*
X178000000Y-68540000D03*
X178000000Y-66000000D03*
D19*
X158185000Y-76500000D03*
X156185000Y-76500000D03*
X154185000Y-76500000D03*
X152185000Y-76500000D03*
X150185000Y-76500000D03*
X148185000Y-76500000D03*
X146185000Y-76500000D03*
X144185000Y-76500000D03*
X142185000Y-76500000D03*
X140185000Y-76500000D03*
X138185000Y-76500000D03*
X136185000Y-76500000D03*
X136185000Y-50500000D03*
X156185000Y-50500000D03*
X138185000Y-50500000D03*
X158185000Y-50500000D03*
X149685000Y-50500000D03*
X147685000Y-50500000D03*
X145685000Y-50500000D03*
X134185000Y-76500000D03*
D20*
X123190000Y-81534000D03*
D11*
X123190000Y-78994000D03*
X120650000Y-81534000D03*
X120650000Y-78994000D03*
X118110000Y-81534000D03*
X118110000Y-78994000D03*
X115570000Y-81534000D03*
X115570000Y-78994000D03*
M02*
