G04 #@! TF.FileFunction,Soldermask,Bot*
%FSLAX46Y46*%
G04 Gerber Fmt 4.6, Leading zero omitted, Abs format (unit mm)*
G04 Created by KiCad (PCBNEW 4.0.7-e2-6376~61~ubuntu18.04.1) date Sat Jun  2 02:29:43 2018*
%MOMM*%
%LPD*%
G01*
G04 APERTURE LIST*
%ADD10C,0.100000*%
%ADD11C,1.701600*%
%ADD12C,2.301600*%
%ADD13R,4.101600X0.501600*%
%ADD14C,0.251600*%
%ADD15R,2.101600X2.101600*%
%ADD16C,2.101600*%
%ADD17R,1.351600X1.101600*%
%ADD18R,1.625600X4.165600*%
%ADD19R,1.801600X1.801600*%
%ADD20O,1.801600X1.801600*%
%ADD21R,1.701600X1.101600*%
%ADD22C,1.879600*%
%ADD23C,2.641600*%
%ADD24R,1.301600X1.801600*%
%ADD25O,1.301600X1.801600*%
%ADD26R,1.625600X1.625600*%
%ADD27C,1.625600*%
%ADD28C,1.901600*%
%ADD29C,0.901600*%
G04 APERTURE END LIST*
D10*
D11*
X123188000Y-77838000D03*
X128188000Y-97588000D03*
D12*
X165188000Y-42088000D03*
X129188000Y-42088000D03*
X111188000Y-110088000D03*
D13*
X162188000Y-85488000D03*
X162188000Y-86288000D03*
X162188000Y-87088000D03*
X162188000Y-87888000D03*
X162188000Y-88688000D03*
X162188000Y-89488000D03*
X162188000Y-90288000D03*
X162188000Y-91088000D03*
X162188000Y-91888000D03*
X162188000Y-92688000D03*
X162188000Y-93488000D03*
X162188000Y-94288000D03*
X162188000Y-95088000D03*
X162188000Y-95888000D03*
X162188000Y-96688000D03*
X162188000Y-97488000D03*
X162188000Y-98288000D03*
X162188000Y-99088000D03*
D14*
X148438000Y-44088000D03*
X145938000Y-44088000D03*
X148438000Y-44838000D03*
X145938000Y-44838000D03*
D15*
X111188000Y-80088000D03*
D16*
X111188000Y-72488000D03*
D17*
X141688000Y-57588000D03*
X141688000Y-55588000D03*
D18*
X149728000Y-41588000D03*
X144648000Y-41588000D03*
D19*
X184188000Y-68088000D03*
D20*
X184188000Y-65548000D03*
X181648000Y-68088000D03*
X181648000Y-65548000D03*
X179108000Y-68088000D03*
X179108000Y-65548000D03*
X176568000Y-68088000D03*
X176568000Y-65548000D03*
D19*
X123688000Y-66088000D03*
D20*
X126228000Y-66088000D03*
D21*
X149688000Y-55016800D03*
X149688000Y-58216800D03*
X144688000Y-55016800D03*
X144688000Y-58216800D03*
D22*
X179688000Y-61338000D03*
X177188000Y-61338000D03*
X174688000Y-61338000D03*
D23*
X183838000Y-43838000D03*
X183838000Y-59338000D03*
X170538000Y-59338000D03*
X170538000Y-43838000D03*
D22*
X167438000Y-49088000D03*
X167438000Y-51608076D03*
X167438000Y-54088000D03*
X114688000Y-41838000D03*
X117188000Y-41838000D03*
X119688000Y-41838000D03*
D23*
X110538000Y-59338000D03*
X110538000Y-43838000D03*
X123838000Y-43838000D03*
X123838000Y-59338000D03*
D22*
X126938000Y-54088000D03*
X126938000Y-51567924D03*
X126938000Y-49088000D03*
D19*
X140988000Y-67588000D03*
D20*
X140988000Y-65048000D03*
X143528000Y-67588000D03*
X143528000Y-65048000D03*
X146068000Y-67588000D03*
X146068000Y-65048000D03*
X148608000Y-67588000D03*
X148608000Y-65048000D03*
X151148000Y-67588000D03*
X151148000Y-65048000D03*
X153688000Y-67588000D03*
X153688000Y-65048000D03*
D24*
X127188000Y-107838000D03*
D25*
X129188000Y-107838000D03*
D26*
X142068000Y-79128000D03*
D27*
X142068000Y-76588000D03*
X144608000Y-79128000D03*
X144608000Y-76588000D03*
X147148000Y-79128000D03*
X147148000Y-76588000D03*
X149688000Y-79128000D03*
X149688000Y-76588000D03*
D12*
X183188000Y-110088000D03*
D16*
X114213000Y-108488000D03*
X121663000Y-108488000D03*
D28*
X114063000Y-112288000D03*
X121813000Y-112288000D03*
D29*
X115438000Y-109538000D03*
X120438000Y-109538000D03*
D11*
X152688000Y-98658000D03*
M02*
